<?xml version="1.0" encoding="UTF-8"?>
<svg id="Layer_2" data-name="Layer 2" xmlns="http://www.w3.org/2000/svg" viewBox="0 0 82.52 34.08">
  <defs>
    <style>
      .cls-1 {
        fill: #fff;
      }

      .cls-1, .cls-2 {
        stroke-width: 0px;
      }

      .cls-2 {
        fill: #ff008c;
      }
    </style>
  </defs>
  <g id="Layer_1-2" data-name="Layer 1">
    <g>
      <g>
        <polygon class="cls-1" points="32.97 4.77 27.53 4.68 24.75 0 22.98 5.15 17.67 6.35 22.02 9.62 21.52 15.04 25.98 11.92 30.98 14.06 29.38 8.86 32.97 4.77"/>
        <polygon class="cls-1" points="13.17 14.14 14.93 12.14 12.26 12.09 10.89 9.8 10.02 12.32 7.42 12.91 9.55 14.52 9.31 17.18 11.5 15.64 13.95 16.7 13.17 14.14"/>
        <polygon class="cls-1" points="19.2 17.54 17.27 14.3 16.05 17.87 12.37 18.7 15.38 20.97 15.04 24.73 18.13 22.56 21.59 24.05 20.49 20.44 22.97 17.6 19.2 17.54"/>
        <polygon class="cls-1" points="8.96 20.52 7.92 18.79 7.27 20.7 5.3 21.14 6.91 22.36 6.73 24.37 8.38 23.21 10.24 24 9.64 22.07 10.98 20.55 8.96 20.52"/>
        <path class="cls-2" d="M27.71,15.03c.11.76.13,1.56.04,2.4-.53,5.19-4.65,8.96-9.8,8.96H7.22l-4.75,3.47,1.59-15.72c.32-3.12,3.35-5.67,6.76-5.67h6.47l-2.51-2.04h-3.75c-4.54,0-8.58,3.46-9.01,7.71L0,34.08l7.72-5.65h10.03c3.1,0,6.03-1.15,8.25-3.24,2.15-2.02,3.5-4.78,3.8-7.76.05-.49.07-.96.06-1.44l-2.14-.96Z"/>
      </g>
      <g>
        <g>
          <path class="cls-1" d="M32.41,33.97l.46-4.58c.21-1.38,1.04-2.1,2.49-2.16h2.28c1.32.09,1.94.81,1.86,2.14l-.46,4.6h-1.79l.21-2.05h-2.99s-.2,2.04-.2,2.04h-1.85ZM34.72,29.53l-.08.72h2.98l.06-.56c.1-.52-.05-.81-.45-.87h-1.81c-.48.02-.72.25-.71.72Z"/>
          <path class="cls-1" d="M42.51,27.26l-.42,4.19c0,.41.2.63.62.67h4.1s-.18,1.9-.18,1.9h-4.65c-1.47-.07-2.11-.92-1.94-2.53l.43-4.23h2.04Z"/>
          <path class="cls-1" d="M54.13,33.99h-4.74c-1.36-.08-1.93-1.2-1.72-3.36.21-2.16,1.05-3.28,2.52-3.35h4.61l-.16,1.63h-4.08c-.35,0-.55.08-.62.26l-.16.58h4.79s-.17,1.62-.17,1.62l-4.75-.02v.38c.02.32.13.49.35.52h4.32s-.17,1.74-.17,1.74Z"/>
          <path class="cls-1" d="M61.72,33.99h-4.74c-1.36-.08-1.94-1.2-1.73-3.37.21-2.16,1.05-3.28,2.52-3.36h4.63s-.17,1.64-.17,1.64h-4.08c-.3,0-.53.11-.67.32-.33.83-.46,1.67-.39,2.5.04.27.2.44.48.51h2.56s.2-1.96.2-1.96h1.76s-.37,3.71-.37,3.71Z"/>
          <path class="cls-1" d="M63.22,27.26h4.66c1.41.23,2.08,1,2.01,2.29-.02.94-.39,1.69-1.12,2.24l.94,2.21h-2.24l-.91-2.12h-1.78l-.21,2.09h-2.02s.68-6.72.68-6.72ZM64.97,30.11h2.47c.38,0,.59-.18.65-.54.06-.36-.12-.57-.52-.63h-2.49l-.12,1.17Z"/>
          <path class="cls-1" d="M71.05,27.27h1.96l-.67,6.73h-2.01l.71-6.73Z"/>
          <path class="cls-1" d="M73.25,33.97l.46-4.58c.21-1.38,1.04-2.1,2.49-2.16h2.28c1.32.09,1.94.81,1.86,2.14l-.46,4.6h-1.79l.21-2.05h-2.99s-.2,2.04-.2,2.04h-1.85ZM75.56,29.53l-.08.72h2.98l.06-.56c.1-.52-.05-.81-.45-.87h-1.81c-.48.02-.72.25-.71.72Z"/>
        </g>
        <g>
          <path class="cls-2" d="M47.23,6.73h-11.92l-1.88,18.78h5.62s.59-5.86.59-5.86h6.63c3.89-.23,6.05-2.39,6.47-6.48.42-4.09-1.42-6.23-5.52-6.44ZM47.85,13.18c-.16,1-.75,1.49-1.78,1.48l-5.85.03.32-3.26h5.85c1.13.17,1.61.75,1.46,1.75Z"/>
          <polygon class="cls-2" points="54.79 6.76 52.81 25.54 58.42 25.54 60.28 6.76 54.79 6.76"/>
          <polygon class="cls-2" points="82.52 6.73 75.35 6.73 71.45 11.3 68.59 6.73 61.42 6.73 67.31 16.16 59.34 25.51 66.52 25.51 70.35 21.02 73.16 25.51 80.34 25.51 74.49 16.16 82.52 6.73"/>
        </g>
        <g>
          <path class="cls-1" d="M41.8,21.61h2.68c.85.05,1.21.71,1.09,1.96-.13,1.26-.59,1.91-1.4,1.96h-2.76s.39-3.93.39-3.93ZM42.52,24.53h1.54c.16-.02.28-.11.35-.26.09-.15.16-.38.19-.69.03-.31,0-.58-.08-.8-.06-.13-.18-.2-.36-.21h-1.45l-.19,1.96Z"/>
          <path class="cls-1" d="M46.37,25.52l.27-2.68c.12-.81.61-1.23,1.46-1.26h1.33c.77.06,1.13.47,1.09,1.25l-.27,2.69h-1.05l.12-1.2h-1.75s-.12,1.19-.12,1.19h-1.09ZM47.72,22.92l-.04.42h1.75l.04-.33c.06-.3-.03-.47-.26-.51h-1.06c-.28.01-.42.15-.42.42Z"/>
        </g>
      </g>
    </g>
  </g>
</svg>