<?xml version="1.0" encoding="UTF-8"?>
<svg id="Layer_2" data-name="Layer 2" xmlns="http://www.w3.org/2000/svg" viewBox="0 0 225.95 41.04">
  <defs>
    <style>
      .cls-1 {
        fill: #fff;
        fill-rule: evenodd;
        stroke-width: 0px;
      }
    </style>
  </defs>
  <g id="Layer_1-2" data-name="Layer 1">
    <path class="cls-1" d="M219.66,22.46l6.29,9.94h-7.17s-5.94-9.33-5.94-9.33h-.07v9.34h-6.46V8.19h9.65c2.24-.13,4.45.5,6.28,1.8.81.68,1.45,1.55,1.87,2.53.41.97.59,2.02.51,3.07.04,1.62-.47,3.21-1.44,4.51-.38.62-.89,1.15-1.5,1.56-.61.41-1.3.68-2.03.8h0ZM217.51,14.44c-.25-.4-.6-.72-1.02-.93-.45-.22-.93-.37-1.42-.43-.55-.08-1.11-.11-1.67-.11h-.63v6.05h.63c.56,0,1.11-.03,1.67-.11.49-.07.97-.21,1.42-.43.43-.21.78-.53,1.02-.93.5-.97.5-2.12,0-3.09h0ZM188.17,8.19h14.15v5.36h-7.66v3.9h7.66v5.52h-7.66v3.9h7.66v5.52h-14.15V8.19ZM94.64,13.55h-7.66v3.9h7.66v5.52h-7.66v3.9h7.66v5.52h-14.15V8.19h14.15v5.36ZM70.65,32.41l-5.93-9.34h-.07v9.34h-6.47V8.19h9.65c2.24-.13,4.45.5,6.28,1.8.81.68,1.45,1.55,1.86,2.53.41.97.59,2.03.51,3.07.04,1.62-.47,3.21-1.43,4.51-.48.63-1.08,1.16-1.76,1.57-.69.4-1.45.67-2.25.79l6.78,9.94h-7.18ZM69.39,14.44c-.25-.4-.6-.72-1.03-.93-.45-.22-.92-.37-1.42-.43-.55-.08-1.11-.11-1.67-.11h-.62v6.05h.62c.56,0,1.11-.03,1.67-.11.49-.07.97-.21,1.42-.43.42-.21.78-.53,1.03-.93.5-.97.5-2.12,0-3.09ZM111.61,9.11c1.41.6,2.68,1.48,3.75,2.58,1.08,1.12,1.93,2.44,2.51,3.89,1.2,3.03,1.2,6.41-.01,9.44-.59,1.44-1.45,2.75-2.53,3.87-1.07,1.1-2.34,1.98-3.75,2.58-1.41.62-2.94.94-4.48.93h-8.47V8.2h8.47c1.55,0,3.09.3,4.51.91h0s0,0,0,0ZM104.6,13.53v13.55h1.34c.87,0,1.73-.13,2.56-.4.81-.26,1.55-.71,2.16-1.29.61-.58,1.08-1.29,1.37-2.08.36-.96.54-1.98.52-3,.05-.9-.08-1.81-.39-2.66-.31-.86-.79-1.64-1.41-2.31-.63-.61-1.37-1.08-2.18-1.38-.82-.31-1.69-.45-2.57-.41h-1.4s0,0,0,0ZM145.73,13.53h-5.34v18.88h-6.46V13.53h-5.34v-5.33h17.15v5.33h0ZM156.14,32.41h-6.47V8.13h6.47v24.28ZM163.51,11.54c1.13-1.1,2.49-1.94,3.97-2.48,1.62-.59,3.33-.88,5.06-.86,2.2-.05,4.37.5,6.26,1.6,1.83,1.13,3.27,2.79,4.13,4.76l-5.68,2.35c-.37-1.05-1.04-1.97-1.93-2.65-.88-.65-1.96-.99-3.05-.96-.88-.01-1.75.19-2.54.6-.75.4-1.4.96-1.9,1.64-.51.7-.91,1.49-1.16,2.32-.53,1.7-.53,3.51,0,5.21.26.83.65,1.61,1.18,2.3.51.68,1.17,1.23,1.93,1.61.8.4,1.69.6,2.58.59,1.19.05,2.37-.31,3.33-1.02.44-.36.81-.8,1.07-1.31.26-.5.4-1.05.43-1.62h-4.89v-4.63h11.88c0,1.68-.18,3.35-.5,5-.33,1.44-.96,2.8-1.85,3.97-1.04,1.46-2.46,2.62-4.09,3.36-1.7.75-3.55,1.12-5.41,1.1-1.69.02-3.37-.27-4.95-.86-1.46-.54-2.79-1.38-3.91-2.45-1.11-1.07-1.97-2.37-2.54-3.81-.6-1.55-.91-3.2-.89-4.86-.02-1.71.28-3.41.9-5,.57-1.46,1.45-2.79,2.57-3.89h0s0,0,0,0ZM31.35,13.48c-.02.66.03,1.4-1.02,1.74-.62.2-1.39-.63-1.43-1.22.31-.41.74-.71,1.23-.89.98-.36,1.21-.43,1.23.37ZM13.23,15.22c-1.06-.34-1-1.08-1.02-1.74.01-.8.24-.73,1.23-.37.49.17.92.48,1.23.89-.04.58-.81,1.42-1.43,1.22h0s0,0,0,0ZM37.13,34.5c.64-.3,1.23-.7,1.73-1.2,2.46-2.57,2.94-5.52,3.24-8.94.08-.89.06-1.79.11-2.7,0-.14.03-.78.1-.77.19.21.35.45.45.71.3.8.49,1.63.57,2.47.28,1.66.33,3.36.15,5.03-.08.58-.28,1.15-.58,1.66-1.54,2.51-3.24,4.85-4.87,7.32-.13.2-.23-.19-.33-.25l-.13-.13c-.37-.19-.51-.22-.69-.1-.06.11-.11.21-.16.32-.48,1.01-1,2.01-1.55,2.99-.03.05-.08.09-.13.12-.12.05-.25.01-.33-.09-.04-.05-.06-.11-.06-.17,0-.94,0-1.89,0-2.83,0-.59,0-1.31-.83-1.31-.81,0-.84.7-.85,1.3,0,.55,0,1.1,0,1.74,0,.1-.05.2-.15.24-.09.05-.2.05-.29,0-.69-.51-1.45-.91-2.25-1.2-1.3-.51-2.77-.35-3.94.42l.18-.15c.49-.43,1.07-.74,1.7-.91.63-.16,1.3-.18,1.94-.04.35.07.72.1,1.08.08.09,0,.17-.05.22-.12.05-.07.06-.16.03-.24-.51-1.31-2.08-6.11,1.16-7.74.08-.04.14-.12.16-.21.11-.88,1.76-4.69-2.71-7.18-.7.61-1.57,2.03-2.67,2.94,1.95.41,2.98-.74,3.92-1.53-.39,2.22-2.16,2.38-3.57,3.18,1.22-.51,2.43.18,3.87-.56-1.04,1.95-3.11.99-4.38,2.02,1.22.77,2.34.35,3.46.23.32-.04.64-.03.95.04-.26.37-.57.71-.91,1.02-.43.32-.92.56-1.44.7-.53.16-1.1.18-1.64.04-1.6-.49-3.16-1.07-4.72-1.67-.15-.07-.28-.17-.39-.29-.11-.12-.19-.27-.23-.43-.1-.49.02-1.02-.03-1.53-.06-.31.01-.63.19-.89.18-.26.46-.44.78-.5,1.46-.39,2.75-1.26,3.66-2.46.3-.43.52-.9.64-1.41v-.03c0-.47-.08-.93-.25-1.37-.09-.35-.08-.71.03-1.06l.03-.11v-.02h0l.32-1.33c.1-.41.36-.77.71-1.02l.1-.06s.08-.06.12-.08c.6-.31,1.22-.55,1.86-.74,1.12-.43,2.12-1.1,2.95-1.96.82-.86,1.43-1.89,1.78-3.01.27-.75.34-1.57.19-2.36-.22.43-.55,1.29-.76,1.73-.13.34-.36.63-.67.81-.31.19-.68.27-1.04.24-2.07.01-4.07.36-5.21,2.47-.49,1.14-1.37,2.06-2.47,2.62-.02-.61.08-1.22.28-1.8-.96-.39-.58-.93-.07-1.48.7-.74,1.41-1.47,2.15-2.24-.62-.15-1.2-.46-1.67-.9h4.06s0-.08.01-.12c-1.24-.22-2.43-.64-3.54-1.24,1.88-1.13,5.8-.57,6.46-.78,0-.15-.54-.27-1.1-.45-1.3-.33-1.79-.43-3.08-.77-1.29-.34-2.53-.83-3.7-1.46h5.33c-1.82-1.01-3.81-1.65-5.88-1.9-.91-.06-1.82-.08-2.73-.06v-.33s0,.33,0,.33c-.91-.02-1.82,0-2.73.06-2.06.25-4.06.9-5.88,1.9h5.33c-1.17.63-2.41,1.12-3.7,1.46-1.3.34-1.79.44-3.08.77-.56.18-1.11.29-1.1.45.66.21,4.58-.36,6.46.78-1.1.6-2.3,1.02-3.54,1.24,0,.04,0,.08.01.12h4.06c-.47.44-1.04.75-1.66.9.74.77,1.45,1.5,2.15,2.24.51.54.9,1.09-.07,1.48.21.58.3,1.19.28,1.8-1.11-.55-1.99-1.48-2.48-2.62-1.14-2.11-3.13-2.45-5.21-2.47-.36.04-.73-.04-1.05-.24-.31-.19-.55-.48-.67-.81-.2-.43-.54-1.29-.76-1.73-.15.79-.08,1.6.19,2.36.36,1.13.97,2.16,1.78,3.01.82.87,1.83,1.54,2.95,1.96.64.19,1.27.44,1.86.74.04.02.08.05.12.08.03.02.06.04.1.06.35.24.61.61.71,1.02l.32,1.33h0v.02l.03.11c.11.34.12.71.03,1.06-.17.45-.25.92-.25,1.4.12.51.34.98.64,1.41.91,1.2,2.2,2.07,3.66,2.46.32.06.6.24.78.5.18.26.25.58.19.89-.05.51.07,1.04-.03,1.53-.09.32-.32.58-.62.72-1.56.6-3.13,1.18-4.72,1.67-.54.14-1.11.12-1.64-.04-.52-.14-1.01-.38-1.44-.7-.34-.3-.64-.65-.91-1.02.31-.06.63-.08.95-.03,1.12.12,2.24.54,3.47-.23-1.27-1.03-3.34-.07-4.38-2.02,1.44.74,2.65.05,3.87.56-1.41-.81-3.18-.97-3.57-3.19.94.79,1.98,1.94,3.92,1.53-1.1-.91-1.97-2.33-2.67-2.94-4.47,2.48-2.83,6.3-2.72,7.18.01.09.07.17.16.21,3.24,1.63,1.66,6.43,1.16,7.74-.05.13,0,.27.12.33.04.02.08.03.12.04.36.02.73,0,1.08-.08.64-.14,1.31-.12,1.94.04.63.16,1.22.47,1.7.91l.18.15c-1.17-.77-2.63-.93-3.94-.42-.8.29-1.56.7-2.25,1.2-.14.08-.31.04-.4-.1-.03-.04-.04-.09-.04-.14v-1.74c-.01-.6-.03-1.3-.85-1.3-.84,0-.82.72-.83,1.31-.01.94-.01,1.89,0,2.83,0,.06-.02.12-.06.17-.08.1-.21.13-.33.08-.06-.02-.1-.06-.14-.12-.55-.98-1.06-1.97-1.55-2.98-.05-.11-.11-.21-.16-.32-.18-.12-.32-.1-.69.1l-.13.13c-.09.07-.19.46-.32.25-1.62-2.48-3.33-4.81-4.87-7.32-.3-.51-.5-1.07-.59-1.66-.19-1.68-.14-3.37.14-5.03.08-.85.27-1.68.57-2.47.11-.26.26-.5.45-.71.07,0,.09.63.1.77.05.91.03,1.81.11,2.7.29,3.42.77,6.38,3.23,8.94.5.5,1.09.91,1.73,1.21.11.04.23.01.31-.07.08-.08.1-.2.05-.31-.75-1.49-1.56-2.96-2.17-4.5-.62-1.57-1.03-3.23-1.5-4.86-.03-.1,0-.2.07-.27.08-.07.18-.1.28-.06.35.12.82.31,1.19.44.1.04.21.02.29-.06.08-.07.11-.18.08-.28-.47-1.58-1.99-6.18-1.99-6.18.36.49.71.98,1.05,1.49.72,1.12,1.34,2.3,1.88,3.52.25.64.46,1.11.57,1.35.05.11.07.23-.02.31-1.26,1.05-.24,3.04.3,3.66.74.86,1.27,1.88,1.56,2.98.08.22.17.54.28.88.02.06.07.11.12.14.12.06.27.04.35-.07.04-.05.06-.11.06-.18-.1-1.41-.35-3.32-.83-3.76-.73-.67-.58-3,.24-3.41.77-.38.94-.79.55-1.45-.08-.13-.04-.3.09-.38,0,0,0,0,0,0l3.52-1.97c.13-.07.18-.23.11-.36-.01-.03-.03-.05-.05-.07-.04-.04-.1-.07-.15-.08-1.22-.11-2.43.24-3.41.98-.62.36-1.41.25-1.92-.26-.16-.16-.28-.36-.35-.58-.07-.17-.14-.35-.19-.54-.04-.15.1-.28.25-.32,1.73-.42,1.99-.51,2.08-1.02.01-.08-.01-.16-.06-.22-.05-.06-.13-.1-.21-.1-.6.09-1.22.01-1.78-.21-.33-.33-.55-.76-.62-1.22-.03-.1,0-.21.08-.28.08-.07.2-.09.3-.05.61.25.78.24,1.11,0,.06-.05.1-.11.11-.19,0-.08-.01-.15-.06-.21-.08-.09-.16-.18-.26-.25-1.27-.97-3.22-6.31-3.16-7.89-.51.42-.89.98-1.1,1.6-1.34-.53-2.37-.7-2.17-2.55l1.49.75s.08-.56-.72-1.21C.41,5.8.15,3.94.1,1.93c-.03-.33.04-.66.19-.95.15-.29.38-.54.67-.71.58-.35,1.32-.36,1.9,0,3.32,1.52,7.89,3.06,11.67,2.58l.12-.03h.01s0,0,0,0c2.35-.47,4.74-.72,7.14-.74h.02c2.4.02,4.79.27,7.14.74h0s.01,0,.01,0l.12.03c3.77.47,8.34-1.06,11.66-2.58.59-.35,1.32-.35,1.91,0,.28.17.52.42.67.71.15.29.22.62.19.95-.05,2.01-.31,3.87-2.02,5.26-.8.65-.72,1.21-.72,1.21l1.49-.75c.19,1.85-.83,2.01-2.17,2.55-.21-.62-.6-1.18-1.1-1.6.06,1.58-1.89,6.92-3.16,7.89-.09.08-.18.16-.26.25-.08.09-.09.22-.03.32.02.03.04.06.07.08.34.25.5.26,1.12,0,.1-.04.21-.02.29.05.08.07.11.18.08.28-.07.46-.29.89-.62,1.22-.57.22-1.18.3-1.78.21-.08,0-.16.04-.21.1-.05.06-.08.14-.06.22.09.51.34.6,2.08,1.02.15.04.29.16.25.32-.05.18-.11.36-.19.54-.07.22-.19.42-.35.58-.16.17-.36.29-.57.38-.44.16-.93.12-1.34-.11-.97-.74-2.19-1.09-3.41-.98-.06,0-.11.04-.15.08-.08.08-.11.21-.06.31.03.05.07.09.12.12l3.52,1.97c.06.04.11.1.13.17.02.07,0,.15-.03.21-.39.66-.22,1.07.55,1.45.82.41.97,2.74.24,3.41-.48.44-.73,2.35-.83,3.76,0,.06.02.13.06.18.09.1.24.13.35.07.06-.03.1-.08.12-.14.11-.34.21-.66.28-.88.29-1.1.82-2.12,1.56-2.98.54-.62,1.56-2.62.3-3.66-.08-.08-.09-.21-.02-.31.11-.24.33-.71.58-1.35.54-1.22,1.17-2.39,1.88-3.51.34-.51.69-1,1.05-1.49,0,0-1.52,4.61-1.99,6.18-.03.1,0,.21.08.28.08.07.19.09.29.06.37-.14.84-.33,1.19-.44.1-.03.21,0,.28.06.07.07.1.18.07.27-.47,1.63-.88,3.28-1.5,4.86-.61,1.54-1.42,3.01-2.17,4.5-.05.1-.03.23.05.31.08.08.2.11.31.07h-.01s0,0,0,0ZM13.98,22.34l-.15.08c.06-.03.11-.05.16-.08h0ZM7.62,2.21c.29.07.57.13.85.19-.28-.08-.56-.15-.85-.19h0ZM7.25,2.6c-3.91-.3-3.19,2.51-2.43,4.19l.63,1.02s.07.09.09.14c0,0,0,.02.01.03.97,2.24,1.79,7.01,6.48,8.85-.18-.1-.36-.22-.54-.34-1.35-1.11-2.46-2.49-3.26-4.04-2.1-4.11-1.55-6.69-1.8-7.72.4.14,1.84.44,2.12.53.03-.06-2.52-1.14-3.25-1.52.32-.2.69-.32,1.06-.37,1.65-.17,2.28.35,3.35.49.72.06,1.44,0,2.14-.16l-4.6-1.1h0ZM29.58,22.34s.1.05.16.08l-.16-.08ZM35.1,2.4c.28-.06.56-.13.85-.19-.29.04-.57.11-.85.19h0ZM38.01,7.98s0-.02.01-.03c.02-.05.05-.1.09-.14l.63-1.02c.76-1.67,1.48-4.49-2.43-4.19l-4.61,1.1c.7.17,1.42.23,2.13.16,1.07-.15,1.69-.66,3.35-.49.38.05.74.18,1.06.37-.73.37-3.28,1.45-3.25,1.52.28-.1,1.72-.4,2.12-.53-.26,1.03.29,3.61-1.8,7.72-.8,1.55-1.91,2.93-3.26,4.04-.17.12-.35.23-.54.34,4.7-1.83,5.51-6.6,6.48-8.84h0s0,0,0,0ZM21.77,22.59c-.56,0-1.17,0-1.95-.01-.71.01-1.41-.12-2.07-.39-.18-.12-.32-.29-.4-.49-.08-.2-.11-.41-.07-.62.04-.58.81-.98.81-.98-.03,1.35,1.17,1.71,3.67,1.73h.02c2.5-.02,3.7-.38,3.67-1.73,0,0,.77.41.81.98.04.21.02.43-.07.62-.08.2-.22.37-.4.49-.66.27-1.36.4-2.07.39-.78.01-1.39.02-1.95.01v-.06s-.02.06-.02.06h0ZM21.78,37.02c.07,1.78-3.06,1.93-5.7.39-.15-.55.14-1.5-.17-1.7-.46-.31-1.18.1-1.64.38-.46.29-.76.83-1.21,1.18.19-2.75,3-5.24,7.32-5.47.47-.03.95-.06,1.4-.05.45,0,.92.03,1.4.05,4.32.23,7.12,2.73,7.32,5.47-.46-.34-.75-.89-1.21-1.18-.46-.29-1.19-.69-1.64-.38-.31.21-.02,1.15-.17,1.7-2.65,1.54-5.78,1.39-5.7-.39Z"/>
  </g>
</svg>