<?xml version="1.0" encoding="UTF-8"?>
<svg id="Layer_2" data-name="Layer 2" xmlns="http://www.w3.org/2000/svg" viewBox="0 0 134.97 109.03">
  <defs>
    <style>
      .cls-1 {
        fill: #fff;
        stroke-width: 0px;
      }
    </style>
  </defs>
  <g id="Layer_1-2" data-name="Layer 1">
    <g>
      <path class="cls-1" d="M81.18,47.2s2.84,4.77,2.9,5.54c.1,1.28.03,4.52,0,4.9-.1,1.06-2.07,3.36-2.07,3.36h14.23s-.45-5.16-1.91-9.39c-1.47-4.23-6.48-9.74-6.48-9.74,0,0-6.67,5.32-6.67,5.32ZM49.54,44.54l7.82,8.65-.67,7.82h-12.63s1.98-1.86,2.42-3.27c.16-.51.93-3.65,1.28-5.22.48-2.05,1.79-7.98,1.79-7.98h0Z"/>
      <path class="cls-1" d="M113.28,61.04c-.31-2.55-.8-5.08-1.47-7.56-.86-3.08-2.23-5.1-2.23-6.38s-.89-13.94-1.15-15.48c-.26-1.54-3.83-7.15-6.28-10.57s-4.21-5.16-6.09-5.77c-1.24-.41-2.51-.74-3.8-.99,0,0,3.32,3.78,4.85,5.96,1.53,2.18,3.22,6.18,3.22,6.18-3.7-4.77-8.04-9.03-12.82-12.69-7.78-5.83-17.54-10.93-17.54-10.93,0,0,1.56,3.52,2.17,4.71.42.99.77,1.99,1.05,3.01,0,0-1.69-2.05-4.21-4.9-2.52-2.85-4.88-5.64-4.88-5.64,0,0-8.42,1.99-14.55,4.84-6.12,2.85-9.41,4.93-10.08,6.73-.67,1.8-1.47,8.24-4.69,12.01-6.86,7.95-15.76,4.2-15.76,4.2,1.34,2.85,3.8,5.06,6.79,6.06-3.41.51-6.89.13-10.11-1.06-2.9-1.18-5.33-3.3-6.89-6.02,0,0,.83,6.83,4.27,10.06,3.44,3.24,6.19,4.29,6.25,4.84.06.54,0,3.88.13,5.32.13,1.44,1.79,5.19,4.53,5.19s7.75.26,9.7-.22c2.07-.48,5.2-2.92,8.65-5.67,3.44-2.76,6.73-5.48,7.08-8.68.22-2.18.29-4.39.22-6.6,0,0,1.05,3.2.96,5.96-.06,1.59-.2,3.17-.42,4.74,0,0,.61-1.51,3.29-2.69,2.07-.93,6.89-1.83,6.89-1.83,0,0-4.62,1.6-6.83,3.59-1.63,1.47-.93,3.4-.13,4.39,2.01,2.47,9.6,10.28,10.14,11.63.45,1.09.57,3.78.57,3.78l9.6-7.66s-2.01-2.66-2.81-3.52c-.61-.67-2.26-2.21-2.74-3.01-.38-.67,6.32-3.14,7.59-3.85.64-.35.13-2.15-.51-3.75-.73-1.79-3.64-5.77-3.64-5.77,0,0,3.51,4.04,5.07,6.57,1.15,1.86,2.04,3.2,1.05,3.75-1.66.9-6.73,3.49-6.73,3.49l2.93,2.95s11.26-8.88,12.31-9.42c1.05-.54,6.03-.64,6.03-.64-.56-1.43-1.21-2.82-1.95-4.17l-1.53-2.5s2.65,2.02,6.19,6.83c3.54,4.81,5.71,10.28,5.96,11.15.26.87.32,5.67.32,6.57s-1.82,3.4-1.82,3.4l13.81.06h0ZM34.01,35.44c-1.15.48-3,1.28-3,1.28l3.06-5.32s.73.8,1.28,1.51.29,1.86-1.34,2.53h0ZM49.96,16.82c-.96.74-2.11,1.47-3.35,1.7-.69.15-1.4.23-2.11.22.16-.8.38-1.57.7-2.27.45-.8,4.56-4.77,4.56-4.77.35.9.64,1.79.83,2.72.1.96.32,1.67-.64,2.4h0Z"/>
      <path class="cls-1" d="M31.74,12.11s-.22,2.47-.13,3.27c.1.8,2.04,4.1,2.04,4.1,0,0,1.18-2.08,1.4-2.4.22-.32.7-1.25.7-1.25,0,0-2.07-1.7-2.78-2.4-.7-.7-1.24-1.31-1.24-1.31ZM116.05,31.91c-6.16,0-8.13-6.63-8.13-6.63,0,0,2.97,3.72,6.89,3.72,4.43,0,5.07-3.88,5.1-4.07,0,0,1.28,3.53-.45,5.54-.8.96-1.95,1.44-3.41,1.44h0Z"/>
      <path class="cls-1" d="M103.67,15.7c1.76-.64,3.6-.96,5.46-1.03,2.78,0,3.96.39,3.96.39l-.13,1.41s4.21,3.14,5.07,4.49c.86,1.35,0,4.33,0,4.33.09-1.26-.35-2.5-1.21-3.43-1.43-1.51-4.85-3.08-4.85-3.08l-.61,1.41s-3.86-2.24-5.29-3.11c-.79-.48-1.58-.94-2.39-1.38h0ZM18.21,92.37l-6.09-7.53h-4.5v7.53H0v-22.68h19.2c2.55,0,4.27.35,5.2,1.06.92.71,1.37,2.05,1.37,4.04v5.16c0,1.86-.42,3.14-1.24,3.78-.83.64-2.11,1.06-3.8,1.15l6.54,7.53h-9.06s0-.03,0-.03ZM18.34,75.68c.03-.16-.03-.32-.13-.48-.13-.1-.32-.13-.48-.13H7.62v4.32h10.14c.16.03.32-.03.48-.13.1-.13.13-.32.13-.48,0,0-.03-3.11-.03-3.11ZM49.28,92.37v-8.78h-12.09v8.78h-7.75v-22.69h7.75v8.17h12.09v-8.17h7.75v22.68h-7.75,0ZM61.18,92.37v-22.68h7.75v22.68h-7.75ZM95.92,92.37l-15.5-13.55.13,13.55h-7.46v-22.68h5.9s12.22,10.54,15.6,13.62l-.19-13.62h7.46v22.68h-5.93ZM112.45,92.53c-2.58,0-4.34-.38-5.29-1.18-.96-.8-1.4-2.37-1.4-4.71v-11.25c0-2.34.48-3.91,1.4-4.71.93-.8,2.68-1.18,5.29-1.18h15.89c2.58,0,4.34.38,5.26,1.18.93.8,1.37,2.37,1.37,4.71v11.25c0,2.34-.45,3.91-1.37,4.71-.93.8-2.68,1.18-5.26,1.18,0,0-15.89,0-15.89,0ZM127.25,75.68c.03-.16-.03-.29-.13-.42-.14-.09-.31-.13-.48-.13h-12.44c-.19-.03-.38.03-.54.13-.1.11-.16.26-.16.42v10.44c-.03.16.03.32.13.45.16.1.35.13.54.13h12.44c.17.02.34-.02.48-.13.1-.13.16-.29.13-.45l.03-10.44ZM31.68,109c-.96,0-1.63-.16-1.98-.45-.35-.29-.51-.86-.51-1.76v-4.1c0-.86.16-1.44.51-1.76.35-.29,1.02-.45,1.98-.45h7.62v2.02h-7.02c-.16,0-.22.06-.22.19v4c0,.06,0,.13.06.16.06.03.13.04.19.03h4.34c.06,0,.13,0,.19-.03.04-.04.06-.1.06-.16v-.99h-1.82v-1.89h4.56v3.01c0,.86-.16,1.44-.51,1.76-.35.32-.99.45-1.98.45l-5.49-.03ZM50.43,108.94l-.67-1.31h-4.5l-.67,1.31h-3.09l4.56-8.43h2.97l4.56,8.43h-3.16ZM46.13,105.8h2.78l-1.37-2.6h-.03l-1.37,2.6ZM64.76,108.94v-2.6c0-1.19.03-2.05.1-2.66h-.06c-.25.48-.54.93-.86,1.38l-2.11,3.01h-.51l-2.11-3.01c-.32-.43-.6-.89-.83-1.38h-.03c.06.8.1,1.7.1,2.66v2.6h-2.78v-8.43h3.16l1.66,2.5,1.18,1.79c.29-.48.67-1.09,1.18-1.79l1.66-2.5h3.1v8.43h-2.84,0ZM70.28,108.94v-8.43h2.87v8.43h-2.87ZM84.38,108.94l-5.77-5.03.03,5.03h-2.78v-8.43h2.2l5.84,5.06-.1-5.06h2.77v8.43h-2.2,0ZM91.74,109c-.96,0-1.63-.16-1.98-.45-.35-.29-.51-.86-.51-1.76v-4.1c0-.86.16-1.44.51-1.76.35-.29,1.02-.45,1.98-.45h7.66v2.02h-7.02c-.16,0-.22.06-.22.19v4c0,.06,0,.13.03.16.06.03.13.04.19.03h4.34c.06,0,.13,0,.19-.03.03-.03.06-.1.03-.16v-.99h-1.82v-1.89h4.56v3.01c0,.86-.16,1.44-.51,1.76-.35.32-.99.45-1.95.45,0,0-5.49-.03-5.49-.03Z"/>
    </g>
  </g>
</svg>