<?xml version="1.0" encoding="UTF-8"?>
<svg id="Layer_2" data-name="Layer 2" xmlns="http://www.w3.org/2000/svg" viewBox="0 0 223.97 58">
  <defs>
    <style>
      .cls-1 {
        fill: #fff;
        stroke-width: 0px;
      }
    </style>
  </defs>
  <g id="Layer_1-2" data-name="Layer 1">
    <g>
      <path class="cls-1" d="M29.6,22.29c0,1.37.21,2.75.63,4.12.95-1.58,2.22-2.96,3.59-4.12,0-3.91,2.43-7.5,6.13-8.88.75,1.47,2.42,2.22,4.02,1.8,1.15-.31,2.01-1.26,2.22-2.43,1.8-.53,2.75-2.43,2.11-4.22-.53-1.69-2.43-2.64-4.12-2.11-.85-.85-2.11-1.06-3.28-.74-1.56.52-2.53,2.07-2.33,3.7-5.39,1.9-8.99,7.08-8.99,12.89Z"/>
      <path class="cls-1" d="M52.75,4.12H4.23v18.28c-1.48,1.16-2.64,2.54-3.59,4.12-.42-1.33-.63-2.72-.63-4.12V0h56.98v22.5c0,7.5-6.13,13.63-13.64,13.63-2.75,0-5.5-.85-7.82-2.43.11-1.48.74-2.85,1.59-4.12,3.91,3.38,9.94,2.96,13.32-.95,1.48-1.69,2.33-3.91,2.33-6.13V4.12Z"/>
      <path class="cls-1" d="M29.6,34.34c0-7.5,6.13-13.63,13.64-13.63,2.75,0,5.5.85,7.82,2.43-.1,1.48-.74,2.85-1.58,4.12-3.91-3.38-9.94-2.96-13.32.95-3.38,3.91-2.96,9.93.95,13.31.85.74,1.8,1.27,2.85,1.69.75-1.47,2.42-2.22,4.02-1.8,1.15.31,2.01,1.26,2.22,2.43,1.75.52,2.74,2.35,2.23,4.1,0,0,0,.02,0,.02-.53,1.69-2.43,2.75-4.12,2.22-.85.85-2.11,1.06-3.28.74-1.56-.52-2.53-2.07-2.33-3.7-5.5-2.01-9.09-7.18-9.09-12.89ZM27.38,34.34c0-1.37-.21-2.75-.63-4.12-.95,1.58-2.22,2.96-3.59,4.12,0,3.91-2.43,7.5-6.13,8.87-.75-1.47-2.42-2.22-4.02-1.8-1.15.31-2.01,1.26-2.22,2.43-1.75.52-2.74,2.35-2.23,4.1,0,0,0,.02,0,.02.52,1.75,2.36,2.74,4.1,2.22,0,0,.01,0,.02,0,.85.85,2.11,1.06,3.28.74,1.56-.52,2.53-2.07,2.33-3.7,5.39-2.01,9.09-7.18,9.09-12.89h0Z"/>
      <path class="cls-1" d="M27.38,22.29c0-5.81-3.7-10.99-9.09-12.89.31-1.65-.7-3.26-2.33-3.7-1.16-.32-2.33-.1-3.28.74-1.8-.53-3.59.42-4.12,2.22-.53,1.69.42,3.59,2.11,4.12.42,1.8,2.22,2.96,4.02,2.54.95-.21,1.8-.85,2.33-1.8,4.86,1.8,7.4,7.29,5.6,12.15-1.8,4.86-7.29,7.39-12.16,5.6-1.06-.42-2.01-.95-2.85-1.69-.95,1.16-1.48,2.64-1.59,4.12,6.24,4.33,14.69,2.85,19.03-3.38,1.48-2.54,2.33-5.18,2.33-8.03h0Z"/>
      <path class="cls-1" d="M0,34.34c0-7.5,6.13-13.63,13.64-13.63,2.75,0,5.5.85,7.82,2.43-.1,1.48-.74,2.85-1.58,4.12-3.91-3.38-9.94-2.96-13.32.95-1.5,1.73-2.33,3.94-2.32,6.23v18.28h48.52v-18.28c1.48-1.16,2.64-2.53,3.59-4.12.42,1.37.63,2.75.63,4.12v23.56H0v-23.66ZM61.29,21.27h1.48l4.86,9.09,4.86-9.09h1.48v13.1h-1.48v-9.83l-4.86,9.09-4.86-9.09v9.82h-1.48v-13.1h0ZM86.55,31.31h-7.29l-1.27,2.96h-1.58l5.81-13.1h1.59l5.81,13.1h-1.59l-1.48-2.96h0ZM85.92,29.93l-3.07-6.87-3.07,6.87h6.13ZM90.99,32.47l.95-1.16c1.06,1.06,2.43,1.9,4.33,1.9,2.01,0,3.07-1.06,3.07-2.32,0-1.37-1.27-1.9-3.49-2.43-2.64-.63-4.33-1.48-4.33-3.7s1.9-3.7,4.33-3.7c1.9,0,3.38.74,4.55,1.9l-.95,1.16c-1.06-1.06-2.43-1.69-3.7-1.69-1.58,0-2.75,1.06-2.75,2.22,0,1.37,1.27,1.8,3.49,2.32,2.54.63,4.33,1.48,4.33,3.8,0,2.11-1.59,3.8-4.65,3.8-2.22-.11-3.91-.85-5.18-2.11ZM102.73,27.72c0-3.7,3.07-6.76,6.66-6.76,1.8,0,3.49.74,4.65,2.01l-1.06,1.06c-.95-1.06-2.22-1.69-3.7-1.69-2.85,0-5.18,2.43-5.18,5.39s2.43,5.39,5.18,5.39c1.48,0,2.75-.63,3.7-1.69l1.06,1.06c-1.27,1.27-2.85,2.01-4.65,2.01-3.59,0-6.66-3.06-6.66-6.76h0ZM115.41,27.72c0-3.7,3.07-6.76,6.66-6.76s6.66,3.06,6.66,6.76-3.07,6.76-6.66,6.76-6.66-3.06-6.66-6.76h0ZM127.25,27.72c0-2.96-2.32-5.39-5.18-5.39s-5.18,2.43-5.18,5.39,2.43,5.39,5.18,5.39,5.18-2.43,5.18-5.39h0ZM134.97,22.65h-4.44v-1.37h10.25v1.37h-4.44v11.62h-1.48v-11.62h.11ZM154.73,27.4h5.29v5.07c-1.27,1.27-3.28,2.01-5.07,2.01-3.59,0-6.66-3.06-6.66-6.76s3.07-6.76,6.66-6.76c1.8,0,3.91.74,5.07,2.01l-1.06,1.06c-.95-1.06-2.64-1.69-4.12-1.69-2.85,0-5.18,2.43-5.18,5.39s2.43,5.39,5.18,5.39c1.27,0,2.64-.42,3.59-1.27v-3.17h-3.7v-1.27ZM172.28,31.31h-7.29l-1.27,2.96h-1.59l5.81-13.1h1.59l5.81,13.1h-1.59l-1.48-2.96h0ZM171.65,29.93l-3.07-6.87-3.07,6.87h6.13ZM177.57,21.27h1.48l4.86,9.09,4.86-9.09h1.48v13.1h-1.48v-9.83l-4.86,9.09-4.86-9.09v9.82h-1.48v-13.1ZM193.53,21.27h1.48v13.1h-1.48v-13.1ZM198.28,21.27h1.48l8.14,10.67v-10.67h1.48v13.1h-1.48l-8.14-10.67v10.67h-1.48v-13.1h0ZM218.69,27.4h5.29v5.07c-1.27,1.27-3.28,2.01-5.07,2.01-3.59,0-6.66-3.06-6.66-6.76s3.07-6.76,6.66-6.76c1.8,0,3.91.74,5.07,2.01l-1.06,1.06c-.95-1.06-2.64-1.69-4.12-1.69-2.85,0-5.18,2.43-5.18,5.39s2.43,5.39,5.18,5.39c1.27,0,2.64-.42,3.59-1.27v-3.17h-3.7v-1.27Z"/>
    </g>
  </g>
</svg>