<?xml version="1.0" encoding="UTF-8"?>
<svg id="Layer_2" data-name="Layer 2" xmlns="http://www.w3.org/2000/svg" viewBox="0 0 225.68 27.31">
  <defs>
    <style>
      .cls-1 {
        fill: #fff;
        stroke-width: 0px;
      }
    </style>
  </defs>
  <g id="Layer_1-2" data-name="Layer 1">
    <g>
      <path class="cls-1" d="M23.67,1.49S13.07-3.07,4.86,3.77C-3.35,10.61,1.33,20.07,1.33,20.07c0,0,4.22,6.73,12.54,7.18,8.44.46,14.14-2.17,14.14-2.17l1.82-.91.11-7.41s-.23-1.6,1.6-2.05c1.82-.57,1.6-.46,1.6-.46v-1.82h-14.14v1.71s1.71.11,2.85.68c1.14.46,1.14,2.96,1.14,2.96v5.81s-1.6,1.37-5.36,1.37-10.49-3.88-10.49-11.29S12.61,2.4,16.49,2.4s6.5,2.05,7.3,3.19c.91,1.14,2.28,3.65,2.28,3.65h2.62l-.34-9.01h-2.74c.11-.11-.11,1.25-1.94,1.25ZM55.7,25.09s1.6.11,1.6-1.25v-13.11s0-.91-1.03-1.14c-.68-.11-1.37-.23-2.05-.11v-1.48h11.17v1.48c-.68,0-1.37.11-2.05.23-.68.23-1.03.57-1.03,1.14v13.68h6.38s1.48-.46,2.17-1.82c.57-1.37.68-1.6.68-1.6h2.05c-.57,1.03-1.03,2.05-1.25,3.19-.22.7-.34,1.43-.34,2.17h-17.78v-1.25s1.48-.11,1.48-.11ZM98.68,23.95v-13.34s.23-.8-1.25-1.03c-1.48-.23-1.71,0-1.71,0v-1.37h17.21v4.67h-1.37s-.46-2.85-2.28-2.85h-6.27v5.81h5.24s1.6-.23,1.6-1.37v-1.14h1.37v7.07h-1.37v-1.03s-.23-1.48-1.48-1.48h-5.36v6.73h7.3c.91-.34,1.71-1.14,2.28-2.05.8-1.6.91-1.94.91-1.94h1.14s-.8,2.28-.91,3.31c-.1.8-.21,1.6-.34,2.39h-17.67v-1.25h1.82c-.11,0,1.14.11,1.14-1.14h0ZM115.55,25.31s3.08.23,3.08-1.6v-12.54s-1.03-1.6-2.96-1.6v-1.37h5.7l12.08,11.63v-9.12s-.11-1.25-3.42-1.25v-1.25h8.89v1.25s-3.19,0-3.19,1.03v15.85h-1.37l-13.68-13.45v10.72s0,1.48,3.42,1.6v1.14h-8.44v-1.03h-.11ZM203.33,14.37s-1.6-4.45-5.7-4.45-5.93,3.53-5.93,7.64,1.71,7.41,6.27,7.41,6.16-4.1,6.16-4.1l1.48.11.91.91s-2.62,5.13-8.78,5.13-12.08-3.31-11.97-10.15c.11-6.5,7.52-8.89,9.46-9.12,1.94-.23,4.1-.11,5.59.57s1.6.68,1.6.68l.91-1.25h1.71l.34.46h18.35v4.67h-2.39s-.57-2.74-2.96-2.74h-4.45v5.81h4.45s1.14-.23,1.14-1.37v-1.14h1.6l1.14.11v6.95h-2.39v-1.14s0-1.6-1.71-1.6h-4.1v6.73h6.04c1.14-.46,1.94-1.37,2.51-2.39l.57-1.37h1.48l1.03.23c-.34.91-.68,1.82-.91,2.85-.23,1.25-.34,2.74-.34,2.74h-18.7v-1.6h1.6s1.25,0,1.25-1.48v-12.2s.11-1.6-1.25-1.6h-1.82v4.79l-2.17-.11Z"/>
      <path class="cls-1" d="M87.51,8.21h-14.02v1.37h2.28c1.03,0,1.25,1.48,1.25,1.48v12.77c0,1.03-1.03,1.14-1.03,1.14h-2.62v1.37l14.59-.11s8.09-1.25,8.09-9.23c.11-7.98-8.55-8.78-8.55-8.78ZM86.6,24.4h-5.13v-14.14h3.99s6.27.34,6.27,6.73-5.13,7.41-5.13,7.41ZM187.03,24.97c-.57,0-1.37-1.37-1.37-1.37l-7.98-15.85h-1.48s-7.18,14.82-7.64,16.07c-.46,1.14-.8,1.03-.8,1.03l-9.01-10.37s6.38-2.28,6.38-7.07-5.93-6.73-7.87-6.73h-17.9v1.94h2.05c2.39,0,2.51,1.6,2.51,1.6v18.35c0,1.71-2.05,2.05-2.05,2.05h-2.62v1.94h14.93v-1.71h-2.17c-1.71,0-2.17-2.05-2.17-2.05v-7.52h1.71l9.92,11.4h12.43v-1.25c-.34,0-.68-.11-1.14-.11-.55-.1-1.08-.25-1.6-.46l1.03-2.74h7.3l1.48,3.19h-2.17v1.6h9.8v-1.94h-1.6ZM153.17,12.55h-3.42V3.31s8.21-.91,8.21,4.22c0,4.67-4.79,5.02-4.79,5.02ZM173.12,19.84l2.62-5.47,2.85,5.47h-5.47ZM52.4,10.72c-3.31-3.65-8.44-3.42-8.44-3.42-2.86,0-5.62,1.05-7.75,2.96-4.22,3.88-2.62,10.94,0,13.45s4.9,2.85,7.75,2.85,5.7-.46,8.44-3.31c2.74-2.85,3.31-8.89,0-12.54ZM44.19,24.74c-2.96,0-5.36-3.42-5.36-7.64s2.39-7.64,5.36-7.64,5.36,3.42,5.36,7.64-2.51,7.64-5.36,7.64Z"/>
    </g>
  </g>
</svg>