<?xml version="1.0" encoding="UTF-8"?>
<svg id="Layer_2" data-name="Layer 2" xmlns="http://www.w3.org/2000/svg" viewBox="0 0 212.8 46.07">
  <defs>
    <style>
      .cls-1 {
        fill: #fff;
        stroke-width: 0px;
      }
    </style>
  </defs>
  <g id="Layer_1-2" data-name="Layer 1">
    <g>
      <path class="cls-1" d="M211.59,9.6c.87,0,1.45.87,1.1,1.65l-10.64,23.75c-3.66,8.14-7.03,11.07-14.04,11.07h-2c-.66,0-1.2-.53-1.2-1.18v-5.52c0-.65.54-1.18,1.2-1.18h1.37c3.58,0,4.66-.91,5.92-4.22l-10.46-22.73c-.36-.78.22-1.66,1.1-1.66h7.48c.5,0,.94.3,1.12.75l5.47,13.89,5.08-13.86c.17-.47.62-.78,1.13-.78h7.37Z"/>
      <path class="cls-1" d="M181.19,10.75v24.23c0,.65-.54,1.18-1.2,1.18h-5.23c-.48,0-.92-.28-1.11-.72l-.49-1.16c-2.22,1.76-5.04,2.78-8.2,2.78-8.3,0-14.24-5.93-14.24-14.19s5.93-14.09,14.24-14.09c3.2,0,6.06,1.05,8.3,2.86l.64-1.37c.19-.42.62-.69,1.09-.69h5c.66,0,1.2.53,1.2,1.18ZM172.29,22.88c0-3.45-2.58-6.04-6.08-6.04s-6.08,2.59-6.08,6.04,2.58,6.06,6.08,6.06,6.08-2.59,6.08-6.06Z"/>
      <path class="cls-1" d="M140.15,4.09l5.25-3.86c.21-.15.46-.23.72-.23h1.7c.66,0,1.2.53,1.2,1.18v33.83c0,.65-.54,1.18-1.2,1.18h-6.95c-.66,0-1.2-.53-1.2-1.18V5.03c0-.37.18-.72.48-.94Z"/>
      <path class="cls-1" d="M116.95,37.8v7.1c0,.65-.54,1.17-1.2,1.17h-1.7c-.26,0-.51-.08-.72-.23-1.37-1-3.76-2.76-5.25-3.86-.3-.22-.48-.57-.48-.94v-9.48l3.18,2.7c1.73,1.6,3.83,2.8,6.18,3.54Z"/>
      <path class="cls-1" d="M105.97,1.18v13.05l-3.18-2.71c-1.73-1.6-3.83-2.8-6.18-3.54v-2.95c0-.37.18-.72.48-.94,1.4-1.02,3.89-2.86,5.25-3.86.21-.15.46-.23.72-.23h1.7c.66,0,1.2.53,1.2,1.18Z"/>
      <path class="cls-1" d="M122.82,8.73c-6.44,0-11.57,3.14-13.89,8.02l8.07,6.86c-.02-.23-.04-.47-.04-.72,0-3.51,2.45-5.94,5.86-5.94,1.81,0,3.34.69,4.39,1.85.1.11.19.22.28.34.02.02.04.05.06.07.03.04.05.08.08.12.03.04.05.07.08.11.02.03.04.07.06.1.03.05.06.09.08.14.02.03.03.06.05.09.03.05.06.1.09.16.01.03.03.05.04.08.03.06.06.12.08.17.01.02.02.05.03.07.03.06.05.12.08.19,0,.02.02.05.03.07.03.07.05.14.07.21,0,.02.01.04.02.06.02.07.05.15.07.22,0,.02.01.03.01.05.02.08.04.16.06.24,0,.01,0,.03,0,.04.02.09.04.18.06.27,0,0,0,.01,0,.02.07.4.11.82.11,1.25,0,3.51-2.45,5.94-5.85,5.94-1.81,0-3.02-.75-4.4-1.85l-16.76-14.25c-2.7-2.51-6.51-4-10.93-4-8.85,0-15.23,5.92-15.23,14.16,0,3.58,1.21,6.73,3.31,9.14,0,0,.02.02.02.03.04.04.07.08.11.12.04.04.08.09.12.13,0,0,.01.01.02.02,2.72,2.94,6.81,4.71,11.64,4.71,6.42,0,11.56-3.15,13.88-8.02l-8.06-6.85c.02.23.04.47.04.71,0,3.51-2.45,5.94-5.86,5.94-1.81,0-3.35-.68-4.39-1.85-.11-.12-.21-.25-.31-.38,0,0-.01-.02-.02-.02-.04-.05-.07-.1-.11-.16-.02-.02-.03-.05-.05-.07-.03-.05-.06-.09-.09-.14-.02-.03-.04-.06-.06-.09-.03-.04-.05-.09-.08-.14-.02-.03-.04-.07-.06-.11-.02-.04-.05-.09-.07-.14-.02-.04-.04-.07-.05-.11-.02-.05-.04-.09-.06-.14-.02-.04-.03-.08-.05-.11-.02-.05-.04-.1-.06-.15-.01-.04-.03-.08-.04-.11-.02-.05-.04-.1-.05-.16-.01-.04-.02-.07-.03-.11-.02-.05-.03-.11-.05-.17,0-.03-.02-.07-.03-.11-.02-.06-.03-.12-.04-.18,0-.03-.01-.06-.02-.09-.01-.07-.03-.13-.04-.2,0-.02,0-.05-.01-.07-.01-.07-.02-.15-.03-.22,0-.01,0-.03,0-.04-.03-.28-.05-.57-.05-.87,0-3.51,2.45-5.94,5.86-5.94,1.81,0,3.16.84,4.39,1.85l16.76,14.25c2.46,2.29,5.84,3.73,9.78,3.96h0c.06,0,.13,0,.19.01.08,0,.15,0,.23.01.09,0,.17,0,.26,0,.09,0,.17,0,.26,0,.07,0,.14,0,.21,0,8.82,0,15.23-5.95,15.23-14.16s-6.4-14.16-15.23-14.16Z"/>
      <path class="cls-1" d="M64.79,4.09l5.25-3.86c.21-.15.46-.23.72-.23h1.7c.66,0,1.2.53,1.2,1.18v33.83c0,.65-.54,1.18-1.2,1.18h-6.95c-.66,0-1.2-.53-1.2-1.18V5.03c0-.37.18-.72.48-.94Z"/>
      <path class="cls-1" d="M32.08,22.89c0-8.24,6.37-14.16,15.23-14.16s15.23,5.92,15.23,14.16-6.4,14.16-15.23,14.16-15.23-5.95-15.23-14.16ZM47.31,28.83c3.41,0,5.86-2.42,5.86-5.94s-2.45-5.94-5.86-5.94-5.86,2.42-5.86,5.94,2.45,5.94,5.86,5.94Z"/>
      <path class="cls-1" d="M16,8.77c8.36,0,14.27,5.88,14.27,14.14s-5.91,14.14-14.27,14.14c-3.17,0-5.99-1.04-8.19-2.84l-.57,1.27c-.19.43-.62.7-1.1.7H1.2c-.66,0-1.2-.53-1.2-1.18V5.03c0-.37.18-.72.48-.94L5.73.24C5.94.08,6.19,0,6.45,0h1.59c.66,0,1.2.53,1.2,1.18v9.42c1.94-1.17,4.24-1.83,6.75-1.83ZM20.83,22.91c0-3.47-2.58-6.06-6.08-6.06s-6.08,2.59-6.08,6.06,2.58,6.03,6.08,6.03,6.08-2.59,6.08-6.03Z"/>
    </g>
  </g>
</svg>