<?xml version="1.0" encoding="UTF-8"?>
<svg id="Layer_2" data-name="Layer 2" xmlns="http://www.w3.org/2000/svg" viewBox="0 0 225.25 65.07">
  <defs>
    <style>
      .cls-1 {
        fill: #fff;
        stroke-width: 0px;
      }
    </style>
  </defs>
  <g id="Layer_1-2" data-name="Layer 1">
    <g>
      <path class="cls-1" d="M67.8,29.68c-.52-4.05-1.77-7.97-3.69-11.57-10.02-2.1-18.38-8.64-23.05-17.36-2.33-.45-4.67-.75-7.16-.75s-5.05.3-7.46.83C21.85,9.47,13.56,15.93,3.69,18.11c-1.81,3.46-3.09,7.21-3.69,11.2,6.1,6.16,9.94,14.65,9.94,24.04,0,1.65-.15,3.23-.38,4.88,2.8,2.81,6.07,5.12,9.64,6.84,4.59-2.18,9.61-3.31,14.69-3.31,5.2,0,10.17,1.2,14.61,3.23,3.79-1.78,7.21-4.25,10.1-7.29-.15-1.43-.3-2.86-.3-4.36,0-9.32,3.62-17.58,9.49-23.67ZM33.9,58.98c-13.86,0-25.09-11.19-25.09-25.02s11.22-25.02,25.09-25.02,25.09,11.2,25.09,25.02c-.08,13.83-11.3,25.02-25.09,25.02Z"/>
      <path class="cls-1" d="M29,46.43l-4.14-11.72v-2.26h3.69v-8.04h-4.75v22.02h-3.77v-25.25h10.02c1.51,0,2.26.75,2.26,2.33v9.17c0,1.5-.75,2.25-2.26,2.33h-1.28l4.14,11.27v.15s-3.92,0-3.92,0ZM45.5,46.43h-7.99c-1.51,0-2.26-.75-2.26-2.33v-20.59c0-1.58.75-2.33,2.26-2.33h7.91c1.58,0,2.33.75,2.33,2.26v5.41h-3.84v-4.43h-4.97v18.86h4.97v-7.14h-2.79v-3.23h6.7v11.19c0,1.58-.83,2.33-2.33,2.33h0ZM87.76,48.01l-5.57-15.78v-3.08h4.97v-10.75h-6.4v29.6h-5.05V14.13h13.48c2.03,0,3.09,1.05,3.09,3.08v12.32c0,2.03-.98,3.08-3.01,3.08h-1.73l5.57,15.18v.15h-5.35v.08ZM96.2,48.01V14.13h14.01v4.51h-8.89v9.92h7.68v4.43h-7.68v10.67h9.04v4.51h-14.16s0-.15,0-.15ZM124.15,48.01h-5.05l-6.48-33.89v-.08h5.12l3.77,23.29.15,2.86.15-2.86,3.84-23.29h5.05v.08s-6.55,33.89-6.55,33.89ZM149.91,47.19c-.53.53-1.28.83-2.26.83h-11.07c-2.03,0-3.01-1.05-3.01-3.08v-27.73c0-2.1.98-3.08,3.01-3.08h11.07c.98,0,1.73.3,2.26.83s.83,1.28.83,2.33v27.73c-.08.9-.3,1.65-.83,2.18h0ZM145.62,18.41h-7.01v25.25h7.01v-25.25ZM154.81,48.01V14.13h5.05v29.38h8.29v4.51h-13.33ZM180.27,48.01h-5.05l-6.48-33.89v-.08h5.12l3.77,23.29.15,2.86.15-2.86,3.84-23.29h5.05v.08l-6.55,33.89h0ZM189.69,48.01V14.13h14.01v4.51h-8.96v9.92h7.68v4.43h-7.68v10.67h9.04v4.51h-14.09v-.15h0ZM219.37,48.01l-5.57-15.78v-3.08h4.97v-10.75h-6.4v29.6h-5.05V14.13h13.49c2.03,0,3.09,1.05,3.09,3.08v12.32c0,2.03-.98,3.08-3.01,3.08h-1.73l5.57,15.18v.15h-5.35v.07h0ZM154.96,54.93h-6.33v5.86h6.33v-2.33h-3.31v-1.05h4.6v2.63c0,.75-.15,1.28-.38,1.5-.3.3-.75.38-1.51.38h-5.27c-.75,0-1.21-.15-1.51-.38-.3-.3-.38-.75-.38-1.5v-4.28c0-.75.15-1.28.38-1.5.3-.3.75-.38,1.51-.38h5.27c.68,0,1.21.15,1.51.38.3.23.45.75.45,1.43v.22l-1.36.3v-1.28ZM160.99,61.91l4.45-8.11h1.43l4.52,8.11h-1.51l-1.05-1.95h-5.5l-1.05,1.95h-1.28ZM163.92,58.91h4.37l-2.18-4.13-2.18,4.13ZM177.41,55.3c.07.3.07.68.07,1.2v5.49h-1.13v-8.11h1.13l3.92,5.26,3.69-5.26h1.28v8.11h-1.28v-5.56l.07-1.2c-.15.38-.38.68-.45.9l-3.09,4.51h-.45l-3.24-4.36c-.07-.15-.23-.53-.53-.98h0ZM192.85,61.91v-8.11h1.36v8.11h-1.36ZM200.76,61.91v-8.11h.83l6.03,5.41c.3.22.6.6.9,1.05-.1-.65-.15-1.3-.15-1.95v-4.43h1.28v8.11h-.75l-6.25-5.64c-.23-.23-.38-.3-.38-.38-.15-.15-.3-.38-.45-.53.07.45.07,1.05.07,1.8v4.73l-1.13-.07h0ZM223.89,54.93h-6.33v5.86h6.33v-2.33h-3.31v-1.05h4.6v2.63c0,.75-.15,1.28-.38,1.5-.3.3-.75.38-1.51.38h-5.27c-.75,0-1.21-.15-1.51-.38-.3-.3-.38-.75-.38-1.5v-4.28c0-.75.15-1.28.38-1.5.3-.3.75-.38,1.51-.38h5.27c.68,0,1.21.15,1.51.38.3.22.45.75.45,1.43v.23l-1.36.3v-1.28Z"/>
    </g>
  </g>
</svg>