<?xml version="1.0" encoding="UTF-8"?>
<svg id="Layer_2" data-name="Layer 2" xmlns="http://www.w3.org/2000/svg" xmlns:xlink="http://www.w3.org/1999/xlink" viewBox="0 0 186.48 24.18">
  <defs>
    <style>
      .cls-1 {
        fill: url(#linear-gradient);
      }

      .cls-1, .cls-2, .cls-3 {
        stroke-width: 0px;
      }

      .cls-2 {
        fill: #fff;
      }

      .cls-3 {
        fill: url(#linear-gradient-2);
      }
    </style>
    <linearGradient id="linear-gradient" x1="-53.98" y1="2056.86" x2="-56.76" y2="2039.33" gradientTransform="translate(234 2057.89) scale(1 -1)" gradientUnits="userSpaceOnUse">
      <stop offset="0" stop-color="#fff"/>
      <stop offset="1" stop-color="#fff" stop-opacity="0"/>
    </linearGradient>
    <linearGradient id="linear-gradient-2" x1="-64.6" y1="2033.96" x2="-60.94" y2="2052.53" xlink:href="#linear-gradient"/>
  </defs>
  <g id="Layer_1-2" data-name="Layer 1">
    <g>
      <path class="cls-2" d="M47.13,12.05c0-3.7,0-7.41,0-11.11,0-.44.13-.55.54-.54,2.1.02,4.2.02,6.3,0,.43,0,.61.14.77.54,1.08,2.75,2.19,5.48,3.31,8.21.11.26.04.64.47.7.48.07.66-.18.82-.58,1.11-2.83,2.25-5.67,3.35-8.5.11-.29.25-.37.53-.37,2.13,0,4.27,0,6.4,0,.43,0,.59.15.59.6,0,7.39,0,14.79,0,22.17,0,.44-.14.55-.55.54-1.13-.03-2.26-.03-3.39,0-.44,0-.54-.13-.53-.55,0-5.41,0-10.81.02-16.23,0-.49-.17-.57-.59-.55-.24,0-.29.16-.36.33-.69,1.67-1.38,3.35-2.06,5.02-.5,1.23-1.01,2.48-1.51,3.71-.12.28-.33.4-.61.4h-3.93c-.27,0-.46-.11-.58-.41-1.06-2.63-2.12-5.25-3.2-7.88-.11-.26-.24-.5-.32-.77-.12-.37-.37-.41-.68-.37-.37.05-.22.35-.22.54,0,5.32,0,10.65,0,15.98q0,.78-.79.78c-1.09,0-2.16-.02-3.25,0-.45,0-.53-.14-.53-.56.03-3.69.02-7.4.02-11.1Z"/>
      <path class="cls-2" d="M16.02,10.73h4.46c.63,0,.67.04.67.65,0,.97.04,1.94,0,2.9-.16,2.99-1.07,5.67-3.37,7.68-1.28,1.12-2.79,1.75-4.44,2.01-1.92.32-3.84.26-5.72-.29-1.43-.41-2.74-1.08-3.89-2.08-2.06-1.81-3.04-4.17-3.51-6.82C0,13.53-.04,12.25.04,10.98c.15-2.54.8-4.93,2.35-6.98C3.86,2.04,5.83.84,8.2.34c2.82-.6,5.57-.46,8.17.9,2.18,1.14,3.44,3.03,4.08,5.38.08.28.1.5-.36.48-1.38-.04-2.74-.02-4.12,0-.27,0-.46-.04-.56-.33-.57-1.54-1.83-2.15-3.31-2.3-1.03-.1-2.08-.12-3.1.25-1.65.59-2.7,1.77-3.35,3.37-.7,1.73-.8,3.54-.61,5.38.15,1.46.5,2.82,1.37,4.02,1.05,1.45,2.45,2.26,4.26,2.3,1.09.02,2.15,0,3.16-.5,1.37-.69,2.09-1.85,2.37-3.32.23-1.19.21-1.2-.98-1.2-1.26,0-2.52-.02-3.78,0-.44,0-.57-.17-.56-.57,0-.94,0-1.87,0-2.81,0-.57.08-.66.64-.66,1.5,0,3.01,0,4.51,0Z"/>
      <path class="cls-2" d="M33.61.41c1.04,0,2.06.02,3.1,0,.49,0,.76.19.91.67.97,3.11,1.95,6.22,2.93,9.33.95,3.03,1.88,6.07,2.83,9.11.4,1.26.79,2.52,1.22,3.77.12.35.05.44-.32.44-1.34-.02-2.69,0-4.02,0-.27,0-.42-.06-.5-.38-.52-1.82-1.1-3.61-1.63-5.42-.11-.38-.28-.51-.68-.5-2.55.02-5.11.02-7.66,0-.36,0-.55.09-.66.46-.51,1.81-1.05,3.6-1.57,5.4-.09.31-.2.45-.55.44-1.29-.03-2.59-.02-3.88,0-.37,0-.44-.1-.32-.45.98-3.06,1.94-6.12,2.9-9.19,1.11-3.56,2.23-7.12,3.34-10.68.27-.86.53-1.71.78-2.58.09-.3.22-.42.54-.41,1.08,0,2.15-.02,3.24-.02ZM33.6,13.19h2.71c.27,0,.38-.05.28-.37-.7-2.3-1.39-4.61-2.08-6.92-.23-.78-.25-.75-1.07-.78-.39,0-.56.1-.68.48-.7,2.39-1.42,4.77-2.15,7.15-.11.36,0,.43.33.43h2.66Z"/>
      <path class="cls-2" d="M74.66,12.05V1.14c0-.67.05-.73.72-.73h14.19c.7,0,.75.07.61.77-.2,1.06-.43,2.1-.59,3.16-.07.41-.24.49-.6.49-2.98,0-5.94,0-8.92-.02-.47,0-.6.14-.58.6.03,1.24.03,2.49,0,3.73,0,.39.11.5.49.5,2.71-.02,5.43,0,8.14,0,.62,0,.61,0,.5.61-.18,1.08-.38,2.14-.54,3.22-.06.39-.23.5-.61.49-2.47-.02-4.94,0-7.42-.02-.44,0-.58.11-.57.57.03,1.42.03,2.85,0,4.28,0,.43.09.59.55.58,2.13-.03,4.27,0,6.4,0,.52,0,.59.09.5.59-.19,1.11-.41,2.2-.55,3.32-.06.4-.26.41-.55.41h-10.57c-.58,0-.62-.05-.62-.65,0-3.65,0-7.33,0-10.99Z"/>
      <path class="cls-2" d="M96.01,23.73c-1.75,0-3.49,0-5.23,0-.36,0-.47-.06-.41-.45,1.19-6.81,2.37-13.63,3.55-20.44.12-.66.22-1.32.33-1.99.04-.28.13-.41.45-.41,3.03.02,6.04-.02,9.06.02,1.76.03,3.39.55,4.62,1.92,1.74,1.92,1.69,5.12-.04,7.27-.52.66-1.17,1.17-1.91,1.56-.49.27-.52.7-.07,1.03,1.94,1.4,2.67,3.71,1.96,6.31-.74,2.72-2.67,4.15-5.23,4.85-.86.24-1.75.34-2.64.33-1.47,0-2.96,0-4.45,0ZM97.02,21.79c.9,0,1.8,0,2.71,0,.82,0,1.64-.07,2.45-.24,2.49-.53,3.95-2.08,4.23-4.56.19-1.71-.56-3.1-2.09-3.84-.71-.34-1.46-.54-2.24-.55-2.45-.03-4.9-.02-7.36-.04-.3,0-.36.13-.41.39-.47,2.79-.95,5.57-1.45,8.36-.09.46.05.5.44.49,1.23-.03,2.47,0,3.72,0ZM98.87,10.55c1,0,2,0,3,0,1.34,0,2.65-.18,3.8-.93,1.42-.92,1.88-2.32,1.8-3.93-.08-1.44-.9-2.37-2.2-2.88-.47-.19-.95-.32-1.45-.33-2.45-.09-4.9-.02-7.36-.05-.24,0-.34.09-.38.33-.42,2.46-.84,4.93-1.28,7.39-.06.32,0,.42.34.41,1.24-.02,2.48,0,3.72,0Z"/>
      <path class="cls-2" d="M142.83,23.73q-1.12,0-1.32-1.1c-.35-2.01-.71-4.03-1.04-6.04-.05-.3-.16-.38-.43-.37-3.21,0-6.43,0-9.64,0-.28,0-.4.14-.5.36-1.13,2.22-2.28,4.43-3.39,6.67-.18.37-.38.54-.8.5-.46-.05-.94-.03-1.4,0-.37.02-.36-.11-.21-.39.84-1.62,1.68-3.24,2.51-4.86,3.01-5.82,6.02-11.63,9.01-17.46.22-.44.47-.6.95-.58.97.04,1.94.02,2.91,0,.28,0,.39.08.44.38.96,5.47,1.93,10.94,2.9,16.41.36,2.02.7,4.06,1.09,6.08.08.4-.06.44-.38.41-.22-.04-.45-.03-.68-.03ZM131.14,14.17c.11.02.16.05.22.05,2.77,0,5.56,0,8.33,0,.28,0,.36-.08.3-.37-.61-3.6-1.2-7.19-1.8-10.79-.02-.11,0-.23-.14-.3-.37-.2-1.15.06-1.35.44-1.31,2.57-2.62,5.14-3.93,7.71-.53,1.06-1.08,2.13-1.64,3.23Z"/>
      <path class="cls-2" d="M120.44,21.76c-.33.64-.63,1.2-.91,1.77-.09.18-.21.21-.39.21-2.78,0-5.56,0-8.34,0-.31,0-.29-.13-.25-.36,1.21-6.95,2.41-13.92,3.62-20.88.09-.53.2-1.06.26-1.6.04-.38.19-.46.55-.46,3.18,0,6.36,0,9.55,0,2.15,0,4.29,0,6.45,0,.44,0,.46.1.25.44-.29.49-.44,1.16-.84,1.45-.42.3-1.1.09-1.66.09-3.95,0-7.91,0-11.86,0-.42,0-.54.13-.61.52-.41,2.4-.82,4.8-1.26,7.2-.08.41.02.5.44.5,3.39-.02,6.78,0,10.17,0h.59c-.34.66-.64,1.25-.94,1.84-.11.22-.32.13-.49.13-3.22,0-6.43.02-9.64,0-.47,0-.57.17-.65.58-.45,2.68-.92,5.35-1.41,8.02-.08.43-.04.59.46.58,2.27-.03,4.55,0,6.91,0Z"/>
      <path class="cls-2" d="M153.47.45c2.73,0,5.46,0,8.19,0,.4,0,.53.1.41.48-.02.08-.04.16-.06.24-.09.41.01.98-.29,1.19-.27.2-.77.06-1.18.06-1.96,0-3.91,0-5.86,0-.33,0-.5.04-.57.44-1.16,6.81-2.36,13.63-3.53,20.44-.06.33-.15.44-.48.42-.42-.03-.84-.03-1.26,0-.38.03-.49-.06-.42-.47.45-2.48.87-4.96,1.3-7.44.76-4.34,1.5-8.66,2.27-13,.07-.37-.08-.4-.37-.4-2.23,0-4.46,0-6.69,0-.36,0-.56-.04-.41-.47.07-.18.07-.39.1-.58q.15-.93,1.1-.93c2.59,0,5.17,0,7.76,0Z"/>
      <path class="cls-1" d="M170.79,19.1h12.66l3.02-18.66h-12.66l-3.02,18.66Z"/>
      <path class="cls-3" d="M163.43,23.75h12.66l3.02-18.67h-12.66l-3.02,18.67Z"/>
    </g>
  </g>
</svg>