<?xml version="1.0" encoding="UTF-8"?>
<svg id="Layer_2" data-name="Layer 2" xmlns="http://www.w3.org/2000/svg" viewBox="0 0 196.21 50.3">
  <defs>
    <style>
      .cls-1 {
        fill: #fff;
        stroke-width: 0px;
      }
    </style>
  </defs>
  <g id="Layer_1-2" data-name="Layer 1">
    <g>
      <path class="cls-1" d="M61.12,14.48h6.75l13.43,35.01h-6.9l-2.74-7.21h-14.26l-2.83,7.21h-6.9l13.46-35.01ZM64.54,23.76l-4.68,12.01h9.35l-4.67-12.01Z"/>
      <path class="cls-1" d="M89.83,14.48h6.49l8.1,24.42,8.17-24.42h6.47l5.86,35.01h-6.44l-3.75-22.11-7.42,22.11h-5.86l-7.35-22.11-3.83,22.11h-6.49l6.05-35.01Z"/>
      <path class="cls-1" d="M128.35,14.48h21.14l-12.44,28.61h11.64v6.4h-21.37l12.38-28.42h-11.36v-6.59Z"/>
      <path class="cls-1" d="M154.04,14.48h6.61v35.01h-6.61V14.48Z"/>
      <path class="cls-1" d="M165.87,14.48h7.48l7.34,11.25,7.35-11.25h7.48l-11.08,16.96,11.78,18.04h-7.48l-8.05-12.31-8.03,12.31h-7.53l11.81-18.04-11.07-16.96Z"/>
      <path class="cls-1" d="M163.13,13.84c-.07-.76-.99-5.08-5.88-5.08s-5.72,5.08-5.72,5.08c.45-.56,2.55-1.93,5.79-1.93s5.36,1.39,5.81,1.93Z"/>
      <path class="cls-1" d="M49.62,29.91c.14-1.01.21-2.03.21-3.06l-.05-2.05h-24.04v8.57h13.84c-1.32,2.82-3.07,4.9-5.22,6.22-2.15,1.32-4.8,1.98-7.96,1.98-4.84,0-8.9-1.6-12.19-4.81-3.3-3.22-4.94-7.13-4.94-11.75s1.6-8.27,4.77-11.4c3.17-3.13,7.11-4.69,11.83-4.69,5.39,0,10.13,2.16,14.17,6.45l6.4-6.34c-2.93-3.16-5.91-5.41-8.97-6.71-3.63-1.55-7.51-2.31-11.66-2.31-6.85,0-12.58,2.07-17.21,6.21v.02c-.35.3-1.44,1.25-2.52,2.47-1.99,2.26-3.52,4.92-4.6,7.96C-.04,20.96-.39,25.34.43,29.83c.49,2.61,1.32,5.02,2.52,7.23,1.16,2.14,2.36,3.55,3.14,4.47,1.2,1.39,2.97,3.42,5.88,5.2,2.32,1.41,4.58,2.19,6.5,2.62,2.38.63,4.89.96,7.58.96,4.65,0,8.69-.97,12.12-2.95,3.43-1.98,6.24-4.85,8.41-8.6,1.63-2.82,2.65-5.75,3.04-8.83t0,0Z"/>
    </g>
  </g>
</svg>