<?xml version="1.0" encoding="UTF-8"?>
<svg id="Layer_2" data-name="Layer 2" xmlns="http://www.w3.org/2000/svg" viewBox="0 0 216 78.03">
  <defs>
    <style>
      .cls-1 {
        fill: #fff;
        stroke-width: 0px;
      }
    </style>
  </defs>
  <g id="Layer_1-2" data-name="Layer 1">
    <g>
      <path class="cls-1" d="M26.75,78.02c-1.39-.62-2.77-1.25-3.68-1.66,1.08-9.49,2.16-18.8,3.17-28.12.12-1.73.14-3.47.08-5.21,0-1.11.08-1.87-1.48-2.53-.98-.42-1.22-2.94-1.42-4.56-.04-.35,1.49-1.16,2.37-1.31,5.88-1.02,11.78-1.93,18.04-2.93.23,1.54.42,2.89.66,4.5-2.98.14-3.07,2.06-2.9,4.25.52,5.94.71,11.92,1.51,17.82.81,5.9,2.21,11.68,3.41,17.81l-5.63,1.36c-.89-5.44-1.74-10.71-2.68-16.4-2.2.22-4.38.56-6.54,1.02-.64.16-1.27,1.32-1.46,2.12-1.04,4.59-1.94,9.22-2.9,13.83h-.55ZM37.03,40.34c-1.56.12-3.11.35-4.65.68-.63.19-1.49,1.02-1.51,1.59-.15,4-.1,8.01-.1,12.42l6.25-.69v-13.99s.01,0,.01,0ZM195.1,78.02l-3.62-1.69c1.07-9.55,2.15-18.9,3.16-28.24.13-1.54.16-3.08.08-4.63-.05-1.2.41-2.31-1.63-3.03-1.02-.35-1.16-3.29-1.78-5.39l20.85-3.3c.28,1.56.51,2.86.77,4.28l-2.93,1.24c.18,13.02,1.33,26.03,5.32,38.76l-6,1.45-2.75-16.49c-2.32.38-4.43.58-6.42,1.16-.71.22-1.38,1.44-1.59,2.31-1.05,4.5-1.95,9.03-2.9,13.55l-.57.03h0ZM205.38,40.38c-1.52.13-3.03.33-4.53.61-.61.15-1.57.79-1.58,1.23-.12,4.17-.07,8.36-.07,12.81l6.18-.67v-13.98ZM110.93,78.02l-3.12-1.63c1.32-11.86,2.61-23.49,3.89-34.92-2.54-.87-4.34-4.32-3.61-5.83.3-.48.79-.81,1.34-.91,6.19-1.01,12.38-1.97,18.9-2.99l.9,4.34-2.99,1.08c.29,13.15,1.28,26.15,5.38,38.76-.27.12-.56.22-.85.3-1.59.36-3.19.71-5.17,1.16l-2.78-16.42c-2.16.25-4.31.61-6.43,1.09-.65.18-1.3,1.29-1.47,2.08-1.02,4.63-1.9,9.26-2.83,13.89h-1.16ZM115.44,55.07l6.28-.78v-13.95c-1.69.16-3.37.41-5.03.76-.62.31-1.06.9-1.16,1.58-.13,3.92-.09,7.85-.09,12.39ZM216,19.01c-1.43,1-2.78,2.18-4.34,2.89-.61.28-2.12-.23-2.49-.82-.5-.81-.29-2.05-.38-3.11.56-.08,1.12-.12,1.69-.1.18,1.09.29,2.2.32,3.3.74-.16,2.41-.11,2.61-.63.38-1.17.32-2.43-.17-3.56-.3-.67-1.74-.76-2.42-1.38-.84-.76-2.08-1.87-1.97-2.69.1-.67.35-1.32.72-1.89.37-.57.85-1.07,1.42-1.44.95-.5,2.61-.09,3.74.39.41.17.21,1.74.28,2.69l-1.12.31c-.09-.26-.19-.52-.31-.77-.36-.63-.74-1.24-1.12-1.86-.58.4-1.59.79-1.6,1.2.02.81.38,1.58.99,2.11,1.33.9,2.71,1.72,4.13,2.45v2.9Z"/>
      <path class="cls-1" d="M172.94,58.94c1.78-7.16,3.55-14.33,5.32-21.49.18-.75.3-1.51.47-2.26q1.32-5.66,7.34-5.08c-3.44,14.64-.98,29.03,2.04,43.8-1.27-.1-2.44-.18-3.62-.29-1.18-.11-2.47-.28-3.99-.46.5-7.52,1.31-14.96-1.94-22.2l-5.73,22.65-.54.09-7.02-21.92v24.44h-6.26c.31-3.73.67-7.52.95-11.33.77-10.37,1.53-20.73-.1-31.12-.89-6.08-1.28-12.23-1.16-18.38.72,3.88,1.52,7.76,2.1,11.65.29,1.95,1.12,2.89,3.38,2.89-.76-5.94-1.29-11.77-2.32-17.52-.74-4.13-4.8-5.27-8.96-3.04-2,1.14-4.13,2.03-6.35,2.64-5.11,1.24-9.22-1.03-12.88-4.33-3.11-2.81-6.38-5.3-10.74-5.83-8.4-1.02-15.09,3.72-16.7,12-.53,2.74-.96,5.5-1.29,8.27-.33,2.6-1.63,3.88-4.3,4.12-7.19.66-14.37,1.47-21.65,1.9,1.8-.38,3.59-.84,5.4-1.12,4.86-.74,9.79-1.2,14.61-2.16,4.49-.89,4.64-1.67,5.57-6.13.75-3.73,1.49-7.7,3.37-10.9,5.56-9.45,18.58-10.46,26.08-2.45,1.21,1.24,2.53,2.37,3.93,3.39,4.06,3.11,8.3,3.11,12.72.69,1.68-.94,3.46-1.69,5.31-2.22,3.52-.97,6.36.65,7.41,4.14.53,1.55.83,3.17.91,4.8.23,14.37,5.08,27.92,7.3,41.93.09.27.23.52.4.74l.95.09Z"/>
      <path class="cls-1" d="M138.61,67.91c.77,3.37,2.67,4.96,5.62,4.87,1.6-.08,3.13-.69,4.35-1.72,1.22-1.04,2.06-2.45,2.4-4.01.78-4.39-1-7.99-5.08-10.01-1.65-.79-3.36-1.47-5.1-2.04-3.67-1.25-6.87-3.03-7.09-7.4-.27-4.97.89-9.68,5.55-12.19,2.75-1.49,6.16-1.74,10.01-2.78-.43-4.93-.93-10.6-1.43-16.29l.54-.14c.87,4.31,1.85,8.6,2.55,12.94.45,2.81.35,5.49,3.38,7.39,2.55,1.6,2.18,6.64-.35,8.37-1.18.72-2.61.9-3.93.47-.78-.34-1.37-2.26-1.16-3.33.27-1.57,1.54-3.01-.71-4.12-2.26-1.11-5.22-.62-6.68,1.08-2,2.31-1.45,6.62,1.27,8.41,1.4.85,2.9,1.52,4.48,1.98,8.13,2.7,10.4,5.28,10.27,11.84-.12,6.43-4.56,11.72-11.38,13.61-3.96,1.09-7.67.69-10.99-1.85-3.32-2.54-4.29-7.42-2.22-10.62.98-1.47,2.65-2.34,4.42-2.29,1.77.05,3.39,1,4.29,2.52,1.4,2.46.15,4.82-3.01,5.33h0ZM72.86,74.35c-2.71.82-4.31-.12-5.7-2.68-2.98-5.5-6.39-10.77-9.62-16.13-.52-.87-1.11-1.69-1.67-2.54l-.81.13v19.8l-6.58-1.78c.98-11.91,1.94-23.47,2.9-35.29.24,0,1.08-.1,1.92-.1.84,0,1.74.07,2.65.11,2.59,8.84,6.12,17.14,12.04,24.48v-5.9c-.11-6.26-.25-12.52-.37-18.78-.08-4.24.13-4.42,4.26-4.39.33,14.3.68,28.6.98,43.08ZM76.3,33.87l28.64-2.61v5.06c-3.03.58-6.19,1.27-9.38,1.85-2.01.36-2.85,1.25-2.8,3.47.24,11.44.66,22.85,3.71,34.22h-6.97c-.3-11.89.51-23.76-2.9-35.51l-9.67,1.32c-.24-2.94-.45-5.65-.63-7.81h0ZM0,32.67l22.4-3.97c-.84,3.25-1.54,5.95-2.32,9.01-3.22-2.15-7.28-2.6-10.88-1.19-1.07.44-1.88,1.34-2.22,2.44-.44,2.54-.38,5.17-.58,7.75-.2,2.59,1.2,3.23,3.42,2.72,1.39-.31,2.75-.79,4.49-1.3l-.36,7.69c-.81-.37-1.46-.72-2.15-.96-3.31-1.16-5.41.14-5.05,3.54.64,5.89,1.63,11.75,2.49,17.71H2.1c.53-14.63,1.11-29.21-2.1-43.46ZM134.38,11.07c-.34,1.71-.38,3.55-1.09,5.09-1.69,3.67-3.63,7.23-5.58,10.77-1.9,3.42-4.51,4.41-8.29,3.23-4.26-1.33-7.29-4.3-9.79-7.79-1.26-1.74-.38-3.14,1.82-3.24.29-.03.58-.01.86.06,6.1,1.96,10.84-.46,15.21-4.48,1.74-1.59,3.79-2.83,5.7-4.24l1.16.6ZM191.9,15.59c-.95,2.56.41,5.06-.75,6.94l-.98-.24v-14.23q1.16.31,3.74,8.86c1.07-3.41,1.97-6.25,2.87-9.1l.74.3c.25,4.4.5,8.79.79,13.86-2.9-1.85-.45-4.98-2.52-6.77-.59,2.02-1.17,4.04-1.74,6.06-.73-1.89-1.45-3.78-2.15-5.67ZM179.33,12.85c-.95-.96-1.77-2.41-2.49-2.36-.95.07-2.48,1.23-2.59,2.07-.26,2.44-.23,4.9.07,7.34.24.81.89,1.43,1.7,1.65.81.07,1.68-.63,2.53-1l-.95-1.22-2.14-.79-.05-.68,5.47-1.64-1.29,6.78-.99-1.58c-3.1,2.23-5.45,1.52-6.39-2.14-.82-3.18-.61-6.36,1.45-9.11,1.33-1.77,3.87-2.2,5.09-.9,1.49,1.59,1.68,3.47.43,5.28-.29.42-1.37.58-1.92.41-.36-.13-.41-1.12-.58-1.74l2.63-.36h0ZM114.72,16.76c-2.15,0-3.69-2.09-3.7-4.95,0-2.76,1.65-5.03,3.65-4.98,2.11.05,3.7,2.34,3.68,5.31-.02,2.8-1.47,4.66-3.63,4.62ZM188.16,22.59c-2.55-.54-1.09-3.19-2.49-4.72-3.45-.33-1.94,3.21-3.52,5.01-.31-.58-.81-1.1-.76-1.55.22-2,.76-3.97.88-5.98.11-1.74-.18-3.52-.31-5.73l4.92-.92c.42,4.63.83,9.01,1.28,13.89h0ZM186.22,13.57l-1.4-2.15c-.42.69-1.13,1.36-1.16,2.06-.03.7.62,1.43.95,2.16l1.61-2.07ZM202.29,13.82l2.57.33c.06.23.12.46.18.69l-2.9,1.05v4.38l4.68-.53c-.06,2.02-1.28,2.4-6.46,2v-12.15q4.72-.8,5.02,1.12c-1.72.25-4.36-.39-3.09,3.11h0ZM122.16,10.21c.41-2.43,1.98-3.95,4.58-4.44,2.43-.46,3.33-.04,4.3,1.74l-8.88,2.71h0Z"/>
    </g>
  </g>
</svg>