<?xml version="1.0" encoding="UTF-8"?>
<svg id="Layer_2" data-name="Layer 2" xmlns="http://www.w3.org/2000/svg" viewBox="0 0 216 38">
  <defs>
    <style>
      .cls-1, .cls-2 {
        fill: #fff;
        stroke-width: 0px;
      }

      .cls-2 {
        fill-rule: evenodd;
      }
    </style>
  </defs>
  <g id="Layer_1-2" data-name="Layer 1">
    <g>
      <path class="cls-2" d="M64.81,0h11.48c-.47.4-.85.9-1.06,1.61-1.58.07-3.17.3-4.75.7-1.77.45-3.31,1.52-3.31,3.38,0,.6.16,1.17.43,1.66l-.02-.39.24-.12c.21-.11.44-.21.67-.31.57-.24,1.17-.45,1.76-.62,3.49-1.01,8.64-1.01,12.13,0,.6.17,1.19.38,1.76.62.22.09.45.19.67.31l.24.12-.02.39c.27-.49.43-1.06.43-1.66,0-1.86-1.54-2.95-3.31-3.38-1.68-.41-3.37-.65-5.05-.71.35-.45.89-.75,1.43-1.03.34-.19.68-.37.99-.58h8.3c1.13,0,2.05.94,2.05,2.09v33.81c0,1.15-.92,2.09-2.05,2.09h-23.01c-1.13,0-2.05-.94-2.05-2.09V2.09c0-1.15.91-2.09,2.05-2.09ZM78.03,16.46c2.91-1.69,4.25-3.65,4.42-6.88-1.18,3.96-2.91,5.87-4.42,6.88ZM68.2,11.4c.41,5.68,6.42,6.15,8.12,9.37,1.7-3.21,7.7-3.7,8.12-9.37l.19-4.18c-4.11-2.18-12.5-2.18-16.61,0l.18,4.18Z"/>
      <path class="cls-2" d="M33.42,0h23.01c1.13,0,2.05.94,2.05,2.09v33.81c0,1.15-.92,2.09-2.05,2.09h-23.01c-1.13,0-2.05-.94-2.05-2.09V2.09c0-1.15.92-2.09,2.05-2.09ZM46.77,26.01c2.91-1.69,4.25-3.65,4.42-6.88-1.18,3.96-2.91,5.87-4.42,6.88ZM36.82,21.25c.41,5.68,6.42,6.16,8.12,9.37,1.7-3.21,7.7-3.7,8.12-9.37l.19-4.18c-4.11-2.18-12.5-2.18-16.6,0l.18,4.18ZM43.85,11.47c-1.58.07-3.17.3-4.75.7-1.77.45-3.31,1.52-3.31,3.38,0,.6.16,1.17.43,1.66l-.02-.39.24-.12c.21-.11.44-.21.67-.31.57-.24,1.17-.45,1.76-.62,3.49-1.01,8.64-1.01,12.13,0,.6.17,1.19.38,1.76.62.22.09.45.19.67.31l.24.12-.02.39c.27-.49.43-1.06.43-1.66,0-1.86-1.54-2.95-3.31-3.38-1.68-.41-3.37-.65-5.05-.71.35-.45.89-.75,1.43-1.03,1.19-.64,2.35-1.26,2.49-3.06-2.21.28-1.1.18-3.27,1.55-1.05.57-2.12,1.14-2.53,2.55Z"/>
      <path class="cls-2" d="M2.05,0h3.31l.08,1.78c.41,5.68,6.42,6.15,8.12,9.37,1.7-3.21,7.7-3.7,8.12-9.37l.08-1.78h3.31c1.13,0,2.05.94,2.05,2.09v33.81c0,1.15-.92,2.09-2.05,2.09h-3.3l.1-2.25c-4.11-2.18-12.5-2.18-16.61,0l.1,2.25h-3.31c-1.13,0-2.05-.94-2.05-2.09V2.09C0,.94.92,0,2.05,0ZM19.84,0c-1.17,3.38-2.75,5.09-4.14,6.03,2.64-1.54,3.99-3.3,4.34-6.03h-.2ZM12.48,30.15c-1.58.07-3.17.3-4.75.7-1.77.45-3.31,1.52-3.31,3.38,0,.6.16,1.17.43,1.66l-.02-.39.24-.12c.21-.11.44-.21.67-.31.57-.24,1.17-.45,1.76-.62,3.49-1.01,8.64-1.01,12.13,0,.6.17,1.19.38,1.76.62.22.09.45.19.67.31l.24.12-.02.39c.27-.49.43-1.06.43-1.66,0-1.86-1.54-2.95-3.31-3.38-1.68-.41-3.37-.65-5.05-.71.35-.45.89-.75,1.43-1.03,1.19-.64,2.35-1.27,2.49-3.06-2.21.28-1.1.18-3.27,1.55-1.05.56-2.12,1.14-2.53,2.55Z"/>
      <path class="cls-2" d="M112.1,21.85c4.61,0,7.45-2.93,7.45-6.91v-.06c0-3.92-2.75-5.43-5.56-5.92l5.23-5.1V.37h-13.98v3.98h8.13l-4.94,5.07.71,2.96h1.89c2.54,0,4.05.97,4.05,2.68v.06c0,1.57-1.21,2.56-2.93,2.56-2.1,0-3.57-.91-4.99-2.54l-3.12,3.07c1.77,2.14,4.34,3.65,8.07,3.65Z"/>
      <path class="cls-2" d="M142.66,21.85c6.38,0,11.02-4.92,11.02-10.93v-.06c0-6.01-4.58-10.87-10.97-10.87s-11.02,4.92-11.02,10.92v.06c0,6.02,4.58,10.87,10.97,10.87ZM142.72,17.56c-3.67,0-6.26-3.02-6.26-6.64v-.06c0-3.62,2.54-6.58,6.21-6.58s6.27,3.02,6.27,6.64v.06c0,3.62-2.54,6.58-6.21,6.58Z"/>
      <path class="cls-2" d="M154.63,21.49h4.64l1.89-4.74h8.75l1.89,4.74h4.76L167.7.21h-4.2l-8.87,21.28ZM162.79,12.65l2.75-6.85,2.75,6.85h-5.5Z"/>
      <path class="cls-2" d="M179.76,21.49h4.56v-6.46l2.39-2.54,6.42,8.99h5.46l-8.81-12.16L198.2.37h-5.5l-8.39,9.24V.37h-4.56v21.12Z"/>
      <path class="cls-2" d="M208.4,21.8c4.46,0,7.6-2.35,7.6-6.55v-.06c0-3.68-2.37-5.22-6.56-6.34-3.57-.93-4.46-1.39-4.46-2.77v-.06c0-1.03.91-1.84,2.66-1.84s3.55.79,5.38,2.08l2.37-3.5c-2.1-1.72-4.67-2.68-7.69-2.68-4.22,0-7.24,2.54-7.24,6.37v.06c0,4.19,2.69,5.38,6.86,6.46,3.46.91,4.17,1.51,4.17,2.68v.06c0,1.24-1.12,1.99-2.99,1.99-2.37,0-4.31-1-6.18-2.56l-2.69,3.29c2.48,2.26,5.65,3.38,8.77,3.38Z"/>
      <path class="cls-2" d="M108.57,38c1.58,0,2.8-.63,3.69-1.4v-3.83h-3.76v1.68h1.91v1.26c-.49.36-1.09.53-1.79.53-1.53,0-2.61-1.18-2.61-2.8v-.02c0-1.5,1.1-2.75,2.48-2.75,1,0,1.6.32,2.25.89l1.2-1.48c-.9-.78-1.84-1.21-3.39-1.21-2.61,0-4.53,2.05-4.53,4.57v.02c0,2.61,1.84,4.54,4.53,4.54Z"/>
      <path class="cls-2" d="M125.2,37.85h1.94l.79-1.98h3.65l.79,1.98h1.99l-3.7-8.89h-1.75l-3.69,8.89ZM128.61,34.16l1.15-2.86,1.15,2.86h-2.3Z"/>
      <path class="cls-2" d="M147.55,37.85h1.86v-5.73l2.41,3.74h.06l2.43-3.77v5.76h1.89v-8.82h-2.05l-2.27,3.73-2.27-3.73h-2.05v8.82Z"/>
      <path class="cls-1" d="M172.11,29.02h-1.9v8.82h1.9v-8.82Z"/>
      <path class="cls-2" d="M186.12,37.85h1.88v-5.61l4.18,5.61h1.61v-8.82h-1.87v5.43l-4.05-5.43h-1.76v8.82Z"/>
      <path class="cls-2" d="M211.9,38c1.58,0,2.8-.63,3.69-1.4v-3.83h-3.76v1.68h1.92v1.26c-.49.36-1.1.53-1.79.53-1.53,0-2.62-1.18-2.62-2.8v-.02c0-1.5,1.1-2.75,2.48-2.75,1,0,1.6.32,2.26.89l1.2-1.48c-.9-.78-1.84-1.21-3.39-1.21-2.61,0-4.53,2.05-4.53,4.57v.02c0,2.61,1.86,4.54,4.54,4.54Z"/>
    </g>
  </g>
</svg>