<?xml version="1.0" encoding="UTF-8"?>
<svg id="Layer_2" data-name="Layer 2" xmlns="http://www.w3.org/2000/svg" viewBox="0 0 226.01 72">
  <defs>
    <style>
      .cls-1 {
        fill: #fff;
        stroke-width: 0px;
      }
    </style>
  </defs>
  <g id="Layer_1-2" data-name="Layer 1">
    <g>
      <path class="cls-1" d="M72.98,36.05c0,19.88-16.37,35.98-36.64,35.92C16.27,71.92-.14,55.93,0,35.69.14,15.95,16.45-.21,36.95,0c19.74.21,36.03,16.07,36.03,36.05h0ZM68.73,36.05c.1-17.54-14.56-32.12-32.69-31.9-17.41.21-32.1,14.44-31.81,32.43.28,16.97,14.59,31.46,32.74,31.22,17.35-.23,31.78-14.35,31.76-31.76ZM210.23,71.94h-4.62v-28.87h.82c3.48,0,6.95.02,10.43,0,3.75-.03,6.39,1.79,7.94,5,1.9,3.93,1.43,7.75-1.36,11.16-.75.92-1.82,1.57-2.85,2.44l5.42,10.33c-1.69,0-3.24.02-4.78-.03-.2,0-.44-.36-.57-.6-1.67-3.1-3.33-6.21-5.02-9.31-.17-.24-.44-.39-.73-.41-1.34-.04-2.69,0-4.03-.03-.54-.01-.66.19-.65.68.02,2.93,0,5.85,0,8.78v.88h0ZM210.28,57.33c.13.03.25.04.38.05,2.32,0,4.63,0,6.95,0,.25-.01.5-.06.74-.15,1.67-.6,2.58-1.84,3.02-3.48.78-2.86-1.29-6.21-4.55-6.1-1.97.07-3.94.03-5.91,0-.56,0-.7.18-.7.71.02,2.79,0,5.57.01,8.37,0,.19.02.39.04.61h0ZM94.98,1.73h.93c3.43,0,6.86.08,10.29-.02,3.98-.11,7.17,2.61,8.39,5.93.99,2.7.92,5.39-.32,8-.83,1.75-2.04,3.2-3.78,4.17-.2.11-.39.23-.64.38l5.51,10.48h-1.67c-.88,0-1.76-.04-2.64.01-.56.03-.83-.19-1.07-.64-1.02-1.95-2.05-3.88-3.08-5.82-.62-1.17-1.24-2.34-1.88-3.51-.09-.17-.31-.39-.47-.4-1.64-.03-3.28-.02-4.99-.02v10.31h-4.58V1.73h0ZM99.55,11.15c0,1.42.01,2.83,0,4.25,0,.45.1.65.61.65,2.22-.02,4.45.02,6.67-.03.53-.02,1.04-.16,1.51-.41,1.99-1.1,2.62-2.88,2.49-5.04-.14-2.29-2.05-4.2-4.37-4.24-2.11-.04-4.22,0-6.32-.02-.46,0-.6.16-.59.6.03,1.41.01,2.83.01,4.24h0ZM94.94,71.92v-.76c.03-9.08.05-18.15.08-27.23,0-.9,0-.9.92-.9,2.34,0,4.68.02,7.02,0,3.4-.04,6.34,1.13,8.7,3.49,4.17,4.19,5.4,9.24,4.05,14.9-.72,3.09-2.46,5.84-4.93,7.82-1.48,1.21-3.19,1.81-5.04,2.13-3.42.58-6.86.67-10.32.62-.16-.01-.31-.04-.47-.07h0ZM99.99,67.3c1.81.03,3.62-.15,5.39-.55,1.96-.46,3.42-1.56,4.57-3.12,1.88-2.55,2.43-5.42,1.75-8.46-.7-3.14-2.48-5.54-5.56-6.81-1.96-.81-4.05-.46-6.14-.52v19.45s0,0,0,0ZM162.06,30.66c-1.32,0-2.51.01-3.7,0-1.46-.02-1.21.26-1.74-1.18-.36-.99-.76-1.96-1.11-2.95-.12-.35-.29-.5-.7-.5-3.04.02-6.07.02-9.1,0-.43,0-.59.17-.73.54-.47,1.24-.96,2.47-1.47,3.69-.07.16-.26.38-.4.38-1.53.03-3.05.02-4.73.02L150.21,0c3.99,10.29,7.9,20.41,11.85,30.65ZM150.33,12.93h-.19c-1.16,3.07-2.32,6.15-3.49,9.26h7.2c-1.2-3.14-2.36-6.2-3.52-9.26ZM162.05,71.93c-1.65,0-3.15.02-4.65-.03-.2,0-.47-.32-.56-.55-.47-1.16-.92-2.34-1.34-3.53-.13-.36-.3-.49-.7-.49-3.04.01-6.07.01-9.11,0-.4,0-.56.15-.7.5-.46,1.22-.95,2.43-1.46,3.63-.09.2-.36.45-.56.45-1.48.04-2.96.02-4.59.02l11.82-30.62,11.82,30.61h0ZM153.84,63.5l-3.62-9.52-3.59,9.52h7.21ZM185.54,43.1h15.38v4.53h-10.71v7.9h8.97v3.77h-9.03v8.07h10.79v4.56h-15.4v-28.83h0ZM133.58,55.57c0,1.18,0,2.25,0,3.32,0,.53-.38.43-.68.43-2.55,0-5.1,0-7.65,0h-.82v8.04h10.75v4.57h-15.36v-28.81h15.37v4.53h-.85c-3.06,0-6.12.01-9.18-.01-.58,0-.75.17-.74.74.03,2.15.03,4.3,0,6.45-.01.62.2.76.79.75,2.5-.03,5.01-.01,7.51-.01h.86ZM133.58,17.98h-7.83q-1.36,0-1.35,1.31c.01,2.03.04,4.07.03,6.1,0,.56.19.69.72.69,3.06-.02,6.12-.01,9.18-.01h.9c0,1.46,0,2.85-.02,4.23,0,.12-.23.28-.38.35-.11.06-.28.02-.41.02-4.61,0-9.22,0-13.83.01-.63,0-.82-.17-.82-.81.02-9.15.02-18.29.01-27.44,0-.52.13-.72.69-.72,4.71.02,9.41.02,14.11,0,.52,0,.67.17.66.67-.03,1.27-.01,2.55-.01,3.9h-10.74c-.02.29-.05.51-.05.73,0,2.17.01,4.34-.01,6.52,0,.53.14.71.7.71,2.59-.03,5.19,0,7.79-.02.51,0,.7.13.68.65-.04,1-.01,2-.01,3.1ZM171.22,67.38h9.76v4.56h-14.39v-28.81h4.64s0,24.25,0,24.25ZM166.6,1.77h4.63v24.26h9.77v4.56h-14.4V1.77h0ZM183.38,8.66l-1.67-3.99-.16.02v3.89h-.19V3.82c.26.26.47.39.56.57.52,1.19,1.01,2.39,1.57,3.75.46-1.12.85-2.08,1.25-3.04.1-.28.22-.55.36-.81.09-.15.29-.24.56-.44v4.76l-.24.02c-.02-.62-.04-1.24-.04-1.85s0-1.27,0-1.91l-.17-.05-1.62,3.82s-.21.03-.21.02ZM176.47,4.03h3.26c0,.06,0,.11.01.17l-1.48.08v4.33h-.24v-4.3l-1.57-.14.02-.14h0Z"/>
      <path class="cls-1" d="M52.22,45.71h-30.51c-.99,0-.97,0-1.16-.98-.87-4.57-1.75-9.15-2.63-13.72-.4-2.06-.83-4.12-1.23-6.17-.05-.26-.07-.53-.1-.84,1.7-.44,3.35-.87,5.01-1.28,3.81-.95,7.63-1.89,11.44-2.83.74-.18,1.48-.37,2.21-.58.78-.23,1.6-.24,2.39-.03,4.84,1.22,9.68,2.43,14.52,3.64l4.28,1.07-4.21,21.73h0ZM34.55,23.43c-.27.04-.4.05-.53.08-4.17,1.02-8.34,2.06-12.53,3.06-.52.12-.46.41-.39.75.9,4.67,1.81,9.33,2.69,14,.09.49.3.61.78.61,3.06-.02,6.12-.03,9.18,0,.63,0,.82-.15.82-.79-.02-5.64,0-11.29,0-16.93,0,0,0-.77,0-.77ZM38.49,23.4v18.45c.12.03.24.04.37.06,3.24,0,6.48,0,9.73.01.5,0,.54-.29.61-.64.64-3.37,1.28-6.73,1.93-10.09.28-1.47.58-2.95.87-4.47l-13.51-3.31ZM51.99,49.2v3.74h-31.13v-3.74h31.13Z"/>
    </g>
  </g>
</svg>