<?xml version="1.0" encoding="UTF-8"?>
<svg id="Layer_2" data-name="Layer 2" xmlns="http://www.w3.org/2000/svg" viewBox="0 0 220.14 51.52">
  <defs>
    <style>
      .cls-1 {
        fill: #fff;
        stroke-width: 0px;
      }
    </style>
  </defs>
  <g id="Layer_1-2" data-name="Layer 1">
    <path class="cls-1" d="M40.96,15.99v-.74l2.17-.53v11.2h-1.01v-9.93h-1.16ZM48.82,14.89h1.27l3.22,4.58,3.25-4.58h1.2l-3.83,5.39,4.03,5.65h-1.27l-3.4-4.91-3.48,4.91h-1.2l4.05-5.68-3.84-5.35ZM65.42,21.81c1.05-1.1,2.21-2.35,2.21-3.96,0-1.82-1.16-2.34-2.34-2.34-.99.05-1.94.43-2.7,1.07v-.96c.79-.61,1.74-.96,2.74-1.01,1.89,0,3.33,1.12,3.33,3.13s-1.36,3.35-2.15,4.18l-3,3.11h5.39v.9h-6.58v-.81l3.11-3.31ZM82.49,14.89l6.68,9v-9h.96v11.04h-.7l-6.68-9v9h-.96v-11.04h.7ZM102.44,14.89v.9h-5.24v3.88h4.32v.9h-4.32v4.45h5.24v.9h-6.25v-11.04h6.25ZM107.11,15.79v-.9h8.88v.9h-3.94v10.14h-1.01v-10.14h-3.93ZM121.14,14.89l2.98,9.13,2.9-9.13h.7l2.89,9.13,2.94-9.13h1.01l-3.64,11.04h-.7l-2.89-9.05-2.92,9.05h-.7l-3.64-11.04h1.07ZM144.42,14.61c3.24,0,5.65,2.43,5.65,5.79s-2.41,5.79-5.65,5.79-5.65-2.41-5.65-5.79,2.39-5.8,5.65-5.8h0ZM144.42,15.55c-2.67,0-4.6,1.95-4.6,4.86s1.93,4.86,4.6,4.86,4.6-1.95,4.6-4.86-1.97-4.86-4.6-4.86h0ZM163.29,25.93h-1.2l-3.16-4.56h-2.32v4.56h-1.01v-11.04h3.42c2.37,0,3.4,1.51,3.4,3.24,0,1.49-.75,2.78-2.43,3.13l3.29,4.67ZM161.41,18.13c0-1.14-.57-2.34-2.39-2.34h-2.41v4.67h2.41c1.82,0,2.39-1.18,2.39-2.34h0ZM175.39,25.93l-5.9-5.43v5.43h-1.01v-11.04h1.01v5.39l5.35-5.39h1.23l-5.43,5.45,6.11,5.59h-1.36,0ZM91.06,45.72v.46h-2.7v1.99h2.22v.46h-2.22v2.29h2.69v.46h-3.21v-5.67h3.21ZM93.81,50.68c.4.24.86.37,1.32.38.58,0,.98-.23.98-.77,0-.42-.35-.59-1.09-.77-.8-.21-1.2-.66-1.2-1.18,0-.62.47-1.14,1.4-1.14.41.01.8.12,1.16.31l-.1.42c-.32-.18-.69-.27-1.06-.28-.64,0-.91.28-.91.67s.33.6.93.75c.87.22,1.37.63,1.37,1.15,0,.84-.63,1.31-1.5,1.31-.5,0-.98-.14-1.41-.4l.1-.44ZM100.43,47.73v3.66h-.5v-3.66h-.92v-.42h.92v-1.12h.5v1.12h.91v.43h-.92,0ZM104.04,51.38v-.62h.62v.62h-.62ZM109.04,49.27c.54-.57,1.13-1.21,1.13-2.03.02-.16,0-.33-.05-.48-.05-.15-.14-.29-.26-.41-.12-.12-.26-.2-.41-.26-.15-.05-.32-.07-.48-.05-.51.03-1,.22-1.39.55v-.49c.4-.31.9-.5,1.41-.52.97,0,1.71.58,1.71,1.61s-.7,1.72-1.11,2.15l-1.54,1.6h2.77v.46h-3.38v-.42l1.59-1.7ZM115.65,45.57c1.17,0,2.08,1.12,2.08,2.98s-.91,2.98-2.08,2.98-2.08-1.11-2.08-2.98c0-1.86.92-2.98,2.08-2.98h0ZM115.65,46.03c-.9,0-1.56.91-1.56,2.51s.66,2.51,1.56,2.51,1.56-.9,1.56-2.51c0-1.6-.66-2.51-1.56-2.51h0ZM122.55,45.57c1.17,0,2.08,1.12,2.08,2.98s-.91,2.98-2.08,2.98-2.08-1.11-2.08-2.98c0-1.86.91-2.98,2.08-2.98h0ZM122.55,46.03c-.9,0-1.56.91-1.56,2.51s.66,2.51,1.56,2.51,1.56-.9,1.56-2.51c0-1.6-.66-2.51-1.56-2.51h0ZM128.8,49.27c.54-.57,1.13-1.21,1.13-2.03.02-.16,0-.33-.05-.48-.05-.15-.14-.29-.26-.41-.12-.12-.26-.2-.41-.26-.15-.05-.32-.07-.48-.05-.51.03-1,.22-1.39.55v-.49c.4-.31.9-.5,1.41-.52.97,0,1.71.58,1.71,1.61s-.7,1.72-1.11,2.15l-1.54,1.6h2.77v.46h-3.38v-.42l1.6-1.7ZM216.46,3.68v32.38H3.68V3.68h212.78M217.93,2.21H2.21v35.32h215.73V2.21h0ZM219.22.92v37.9H.92V.92h218.3M220.14,0H0v39.74h220.14V0Z"/>
  </g>
</svg>