<?xml version="1.0" encoding="UTF-8"?>
<svg id="Layer_2" data-name="Layer 2" xmlns="http://www.w3.org/2000/svg" viewBox="0 0 226.12 36.98">
  <defs>
    <style>
      .cls-1 {
        fill: #fff;
        stroke-width: 0px;
      }
    </style>
  </defs>
  <g id="Layer_1-2" data-name="Layer 1">
    <path class="cls-1" d="M0,23.95h226.12v1.39H0v-1.39ZM189.9,27.53c.35,3.01.7,5.9.94,9.02h-11.37v-4.74h-4.1c-.12,0-.35.35-.47.58-.35,1.16-.7,2.43-1.17,3.58-.12.23-.35.58-.59.58h-10.32c.12-.23.12-.46.12-.58.94-2.43,1.76-4.86,2.7-7.28.12-.35.23-.58.82-.58,7.62-.12,15.24-.35,22.86-.46.23-.11.35-.11.59-.11h0ZM142.42,36.55c.35-2.66.7-5.2,1.05-7.86,6.33-.12,12.66-.35,19.11-.46-.35,2.78-.82,5.55-1.17,8.32h-18.99,0ZM86.39,35.4c.59-1.73,1.17-3.47,1.64-5.09,0-.12.35-.35.47-.35,6.56-.12,13.13-.35,19.81-.46l.24.12c-.59,1.85-1.29,3.58-2.93,4.74-1.88,1.5-4.22,2.08-6.56,2.43-3.99.46-7.85.11-11.72-1.04-.24-.12-.59-.23-.94-.35ZM62.36,30.54c7.74-.23,15.47-.35,23.21-.58-.12.35-.24.69-.47.93-2.11,3.58-5.39,5.55-9.49,5.9-2.46.23-4.81.23-7.15-.46-2.46-.81-4.57-2.2-5.63-4.62-.23-.35-.35-.69-.47-1.16ZM59.08,36.55h-20.16c.23-1.85.47-3.58.82-5.43,6.68-.11,13.36-.35,20.16-.46-.35,1.96-.59,3.82-.82,5.9ZM16.65,31.58c7.03-.12,13.95-.35,21.1-.46-.24,1.85-.47,3.58-.7,5.43H15.94c.12-1.62.35-3.24.7-4.97ZM209.24,27.3c-.47,3.01-.82,6.13-1.29,9.25h-10.9c.23-1.62.47-3.24.82-4.86.24-1.27.35-2.54.59-3.82,0-.23.35-.58.47-.58,0,0,10.32,0,10.32,0ZM117.81,36.55c.35-2.54.7-4.86,1.06-7.4,6.33-.11,12.66-.35,18.99-.46-1.29.81-2.7,1.16-4.22,1.27-1.52.11-3.05,0-4.57,0-.35,2.2-.59,4.39-.94,6.59h-10.32,0ZM75.84.71c-.35,2.78-.82,5.55-1.17,8.33-.47,3.7-1.06,7.51-1.52,11.22-.12.92.24,1.39.82,1.5.82.12,1.41-.23,1.64-1.16,0-.23.12-.35.12-.58.35-2.31.7-4.74,1.06-7.05.59-3.93,1.06-7.75,1.64-11.68,0-.23.35-.58.59-.58h9.85s.12,0,.23.12c-.12,1.16-.35,2.43-.47,3.7l-2.46,17v.12q-.24,1.39-1.64,1.39h-22.16v-1.5c.94-6.94,1.88-13.76,2.93-20.7,3.4-.12,6.92-.12,10.55-.12h0ZM121.91.71h6.8c2.7,0,5.39,0,8.09.12,1.21.13,2.4.44,3.52.92,2.11.92,2.93,2.78,3.28,4.97.35,2.31-.12,4.51-.47,6.71-.24,1.27-.47,2.54-.82,3.7-1.05,3.01-3.28,4.86-6.45,5.67-.23,0-.47.12-.59.12h-16.41c.94-7.4,1.99-14.8,3.05-22.2ZM130.23,15.28c.47,0,.82,0,1.17-.12.7-.12,1.29-.35,1.41-1.04.24-1.27.35-2.43.47-3.7,0-.69-.47-1.04-1.05-1.16h-1.17c-.23,1.97-.59,3.93-.82,6.01h0ZM165.4,22.91c.8-2.28,1.62-4.55,2.46-6.82,1.76-4.86,3.63-9.71,5.39-14.68.24-.58.47-.81,1.05-.81h13.48l2.46,22.2c-8.32.12-16.53.12-24.85.12ZM179.82,10.07s-.12,0,0,0c-.7,2.2-1.41,4.51-2.11,6.82h2.11v-6.82h0ZM59.9,19.09h-8.67c-.12.69-.23,1.27-.35,1.97h9.26c-.12.69-.12,1.27-.23,1.85h-20.04c1.17-7.4,2.23-14.8,3.28-22.2h19.93l-1.41,8.67h-9.14c-.12.69-.23,1.27-.35,1.97h8.67c-.23,2.66-.59,5.2-.94,7.75h0ZM110.77,1.4c-.82,2.78-1.64,5.43-2.46,8.21-1.52-.23-2.93-.46-4.34-.58-.97-.12-1.96-.12-2.93,0-.59,0-1.29.23-1.29,1.04s.59.92,1.29,1.16c1.06.35,2.23.58,3.28.92.75.25,1.46.6,2.11,1.04,1.64.92,2.58,2.43,2.58,4.28,0,1.74-.24,3.47-.35,5.09,0,.46-.24.58-.7.58h-19.81c.24-.81.47-1.5.7-1.97,2.34.23,4.69.46,6.92.58.7,0,1.41-.12,2.11-.23.23,0,.59-.35.59-.58s-.24-.58-.47-.69c-.82-.35-1.64-.58-2.46-.81-.94-.35-1.88-.46-2.7-.92-3.05-1.39-4.22-4.28-3.52-7.86C90.73,3.94,95.42.13,101.98.01c3.05-.12,5.98.46,8.79,1.39h0ZM205.72,8.92c.94-2.43,1.76-4.97,2.7-7.4.24-.69.59-.81,1.17-.81,2.93,0,5.98,0,8.91.12h.7c-.11.33-.27.64-.47.92-2.7,5.32-5.51,10.52-8.21,15.84-.82,1.62-1.88,3.24-1.76,5.32h-10.67c.59-3.82-1.05-7.28-1.64-10.87-.7-3.7-1.64-7.4-2.46-11.22h9.73c.59,0,.82.23.82.81.23,2.43.59,4.97.82,7.4.24-.12.35-.12.35-.12h0ZM20.04.71h20.98c-.47,2.78-.94,5.43-1.41,8.21,0,.23-.35.58-.47.81-3.17,3.7-6.21,7.28-9.38,10.99-.12.12-.24.35-.47.69h8.91v.23q-.12,1.39-1.52,1.39h-19.46c0-.93.24-1.73.82-2.43,3.05-3.58,5.98-7.17,9.03-10.75.12-.23.23-.35.47-.69h-8.44c.12-2.89.47-5.67.94-8.44ZM143.48,22.91c.47-3.12.82-6.24,1.29-9.25.59-4.05,1.17-8.09,1.76-12.26.12-.46.12-.69.7-.69h9.49q.12,0,.35.12c-.94,6.82-1.88,13.53-2.93,20.47h8.56c-.12.58-.12,1.16-.23,1.73-6.33-.11-12.66-.11-18.99-.11h0Z"/>
  </g>
</svg>