<?xml version="1.0" encoding="UTF-8"?>
<svg id="Layer_2" data-name="Layer 2" xmlns="http://www.w3.org/2000/svg" viewBox="0 0 208 68.01">
  <defs>
    <style>
      .cls-1, .cls-2 {
        fill: #fff;
        stroke-width: 0px;
      }

      .cls-2 {
        fill-rule: evenodd;
      }
    </style>
  </defs>
  <g id="Layer_1-2" data-name="Layer 1">
    <g>
      <path class="cls-1" d="M80.44,14.07c4.74,0,8.37,1.16,10.91,3.46,2.54,2.26,3.8,5.7,3.8,10.33v17.7h-8.31v-3.86c-1.66,2.89-4.78,4.33-9.33,4.33-2.35,0-4.4-.4-6.15-1.21-1.7-.8-3.01-1.92-3.93-3.34-.92-1.42-1.37-3.04-1.37-4.84,0-2.89,1.06-5.15,3.18-6.8,2.16-1.65,5.49-2.47,9.95-2.47h7.04c0-1.96-.58-3.46-1.77-4.5-1.18-1.08-2.93-1.6-5.3-1.6-1.62,0-3.24.27-4.84.8-1.56.51-2.89,1.18-3.99,2.07l-3.18-6.29c1.66-1.18,3.66-2.11,5.96-2.77,2.38-.68,4.84-1.02,7.31-1.01ZM79.77,39.96c1.52,0,2.87-.34,4.03-1.03,1.18-.74,2.01-1.8,2.49-3.17v-3.17h-6.09c-3.64,0-5.46,1.2-5.46,3.63,0,1.16.44,2.07,1.31,2.77.93.65,2.16.97,3.72.97h0ZM103.21,2.77h8.87v42.78h-8.87V2.77h0ZM150.28,30.16c0,.11-.06.93-.17,2.43h-23.15c.42,1.92,1.41,3.44,2.95,4.56,1.56,1.12,3.49,1.67,5.8,1.67,1.6,0,2.99-.23,4.22-.7,1.25-.51,2.41-1.27,3.47-2.3l4.72,5.19c-2.89,3.34-7.09,5.03-12.63,5.03-3.45,0-6.5-.68-9.16-2.03-2.66-1.39-4.7-3.29-6.15-5.7-1.43-2.43-2.16-5.17-2.16-8.26s.71-5.76,2.1-8.19c1.43-2.47,3.39-4.37,5.86-5.7,2.49-1.39,5.3-2.07,8.35-2.07s5.71.65,8.12,1.97c2.43,1.31,4.32,3.19,5.69,5.66,1.46,2.39,2.14,5.22,2.14,8.45ZM134.42,20.87c-2.02,0-3.7.57-5.07,1.73-1.37,1.16-2.2,2.72-2.49,4.73h15.07c-.31-1.96-1.14-3.53-2.49-4.67-1.37-1.2-3.03-1.79-5.01-1.79ZM175.92,44.06c-.87.65-1.95,1.16-3.24,1.5-1.25.32-2.58.46-3.99.46-3.64,0-6.46-.95-8.48-2.83-1.97-1.88-2.95-4.65-2.95-8.3v-12.75h-4.72v-6.91h4.72v-7.56h8.87v7.56h7.63v6.93h-7.63v12.63c0,1.31.33,2.32.98,3.06.68.7,1.62,1.03,2.85,1.03,1.41,0,2.6-.38,3.57-1.16l2.39,6.34h0ZM193.25,14.07c4.74,0,8.37,1.16,10.91,3.46,2.54,2.26,3.8,5.7,3.8,10.33v17.7h-8.31v-3.86c-1.66,2.89-4.78,4.33-9.33,4.33-2.35,0-4.4-.4-6.15-1.21-1.7-.8-3.01-1.92-3.93-3.34s-1.37-3.04-1.37-4.84c0-2.89,1.06-5.15,3.18-6.8,2.16-1.65,5.49-2.47,9.95-2.47h7.04c0-1.96-.58-3.46-1.77-4.5-1.18-1.08-2.93-1.6-5.3-1.6-1.62,0-3.24.27-4.84.8-1.56.51-2.89,1.18-3.99,2.07l-3.18-6.29c1.66-1.18,3.66-2.11,5.96-2.77,2.38-.68,4.84-1.02,7.32-1.01h0ZM192.56,39.96c1.52,0,2.87-.34,4.03-1.03,1.18-.74,2.02-1.8,2.49-3.17v-3.17h-6.09c-3.64,0-5.46,1.2-5.46,3.63,0,1.16.44,2.07,1.31,2.77.93.65,2.16.97,3.72.97ZM69.88,55.55v9.72h-.98v-7.77l-3.76,6.53h-.48l-3.76-6.48v7.73h-.98v-9.72h.83l4.16,7.2,4.11-7.2h.85ZM75.33,57.89c.93,0,1.66.23,2.16.72.5.46.75,1.18.75,2.11v4.52h-.93v-1.14c-.23.39-.57.7-.98.89-.42.21-.91.32-1.52.32-.81,0-1.43-.19-1.91-.59-.48-.38-.71-.91-.71-1.54s.23-1.12.67-1.5c.46-.38,1.16-.57,2.12-.57h2.29v-.44c0-.63-.17-1.1-.52-1.44-.35-.34-.85-.51-1.52-.51-.46,0-.89.08-1.31.23-.4.14-.77.35-1.08.63l-.44-.74c.37-.32.81-.55,1.31-.72.53-.15,1.07-.23,1.62-.23h0ZM74.97,64.54c.54,0,1.02-.13,1.41-.38.39-.25.69-.63.87-1.12v-1.18h-2.24c-1.23,0-1.85.44-1.85,1.31,0,.42.17.76.48,1.01.31.23.77.36,1.33.36h0ZM83.56,61.59l-1.7,1.58v2.07h-.98v-10.29h.98v6.97l4.3-3.97h1.21l-3.07,2.98,3.37,4.31h-1.18s-2.91-3.65-2.91-3.65ZM89,57.96h.98v7.29h-.98v-7.29ZM89.5,56.35c-.21,0-.37-.06-.5-.21-.14-.13-.21-.32-.21-.51,0-.19.06-.34.21-.49.13-.14.31-.21.5-.21.21,0,.37.06.5.21.13.12.21.29.21.46,0,.21-.06.38-.21.51-.12.17-.29.23-.5.23ZM96.36,57.89c.92,0,1.62.27,2.14.8.54.53.81,1.29.81,2.32v4.22h-.98v-4.14c0-.76-.19-1.33-.56-1.73s-.91-.59-1.6-.59c-.77,0-1.39.23-1.85.7-.46.46-.67,1.1-.67,1.92v3.82h-.98v-7.28h.93v1.35c.27-.44.62-.78,1.1-1.04.51-.24,1.07-.37,1.64-.36h0ZM108.66,57.96v6.4c0,1.25-.31,2.15-.92,2.75-.6.59-1.5.91-2.7.91-.65,0-1.29-.1-1.91-.3-.6-.19-1.08-.46-1.45-.82l.5-.74c.35.32.77.55,1.27.74.51.17,1.04.26,1.58.25.92,0,1.58-.21,2.02-.65.44-.42.64-1.1.64-2.01v-.93c-.29.45-.7.82-1.18,1.06-.51.24-1.06.36-1.62.36-.64,0-1.28-.14-1.85-.44-.54-.3-.99-.74-1.31-1.27-.31-.55-.46-1.16-.46-1.84s.15-1.29.46-1.84c.31-.53.75-.95,1.31-1.25.54-.3,1.16-.44,1.85-.44.6,0,1.16.13,1.66.38.5.25.89.61,1.18,1.08v-1.39h.94ZM104.96,64.1c.52,0,1-.11,1.41-.34.42-.23.75-.55.98-.95.23-.4.35-.87.35-1.39,0-.48-.12-.95-.35-1.37-.23-.4-.57-.73-.98-.95-.42-.23-.87-.34-1.41-.34s-1,.11-1.41.34c-.41.22-.75.55-.98.95-.23.4-.33.87-.33,1.39s.1.97.33,1.39c.23.4.56.72.98.95.44.21.89.32,1.41.32ZM121.21,60.24c.62.15,1.12.42,1.46.82.35.4.52.93.52,1.58,0,.82-.31,1.48-.91,1.92-.6.44-1.5.68-2.68.68h-4.4v-9.71h4.13c1.06,0,1.89.21,2.47.65.6.44.89,1.06.89,1.84,0,.53-.12.99-.4,1.37-.27.39-.64.68-1.08.84h0ZM116.18,56.39v3.53h3.05c.77,0,1.37-.15,1.79-.44.42-.29.62-.74.62-1.31s-.21-1.01-.62-1.31c-.41-.29-1.02-.46-1.79-.46h-3.05ZM119.55,64.4c.85,0,1.52-.15,1.95-.44.44-.29.66-.76.66-1.39,0-1.2-.87-1.82-2.6-1.82h-3.39v3.65h3.37ZM131.56,61.9h-6.03c.06.76.33,1.37.87,1.84.52.46,1.18.7,1.97.7.46,0,.85-.08,1.23-.23.37-.17.71-.4.98-.72l.54.63c-.31.38-.73.68-1.21.89s-1,.3-1.58.3c-.75,0-1.39-.15-1.97-.46-.56-.31-1.02-.77-1.33-1.33-.32-.59-.49-1.25-.48-1.92,0-.72.15-1.35.46-1.92.31-.57.73-1.01,1.27-1.31.54-.32,1.14-.46,1.81-.46s1.27.15,1.79.46c.52.32.93.76,1.25,1.31.31.55.46,1.18.46,1.92l-.02.32ZM128.07,58.74c-.68,0-1.29.23-1.74.68s-.73,1.04-.79,1.75h5.11c-.06-.72-.33-1.31-.81-1.75-.48-.44-1.06-.68-1.77-.68h0ZM137.33,64.8c-.2.18-.43.3-.69.38-.27.08-.54.13-.83.13-.69,0-1.21-.19-1.56-.55-.37-.38-.54-.89-.54-1.56v-4.41h-1.29v-.82h1.29v-1.61h.98v1.61h2.18v.82h-2.18v4.37c0,.44.1.76.31.99.23.23.52.34.93.34.21,0,.4-.04.58-.11.19-.06.35-.15.5-.28l.31.7h0ZM142.72,64.8c-.2.18-.43.3-.69.38-.27.08-.54.13-.83.13-.69,0-1.21-.19-1.56-.55-.37-.38-.54-.89-.54-1.56v-4.41h-1.29v-.82h1.29v-1.61h.98v1.61h2.18v.82h-2.2v4.37c0,.44.1.76.31.99.23.23.52.34.93.34.21,0,.4-.04.58-.11.19-.06.35-.15.5-.28l.33.7h0ZM150.51,61.9h-6.03c.06.76.33,1.37.87,1.84.52.46,1.18.7,1.97.7.46,0,.85-.08,1.23-.23.37-.17.71-.4.98-.72l.54.63c-.31.38-.73.68-1.21.89s-1,.3-1.58.3c-.75,0-1.39-.15-1.97-.46-.56-.31-1.02-.77-1.33-1.33-.32-.59-.49-1.25-.48-1.92,0-.72.15-1.35.46-1.92.31-.57.73-1.01,1.27-1.31.54-.32,1.14-.46,1.81-.46s1.27.15,1.79.46c.52.32.93.76,1.25,1.31.31.59.47,1.25.46,1.92l-.02.32ZM147.02,58.74c-.69,0-1.29.23-1.75.68-.46.44-.73,1.04-.79,1.75h5.11c-.06-.72-.33-1.31-.81-1.75-.48-.44-1.06-.68-1.77-.68h0ZM153.44,59.39c.23-.49.56-.87,1.02-1.12.46-.25,1.02-.38,1.68-.38v.95l-.23-.02c-.75,0-1.35.23-1.79.7-.44.46-.65,1.14-.65,1.99v3.72h-.98v-7.28h.93v1.46ZM168.54,60.4h.98v3.7c-.46.4-1,.71-1.58.91-.62.21-1.28.32-1.93.32-.96,0-1.83-.21-2.6-.63-.75-.41-1.38-1.01-1.81-1.75-.44-.77-.67-1.65-.66-2.54,0-.93.23-1.77.66-2.53.42-.75,1.05-1.36,1.81-1.77.77-.42,1.64-.63,2.6-.63.69,0,1.37.12,2.02.36.59.22,1.12.57,1.54,1.04l-.62.65c-.75-.76-1.73-1.14-2.89-1.14-.77,0-1.48.17-2.12.53-.62.34-1.1.82-1.48,1.44-.36.62-.55,1.33-.54,2.05,0,.76.19,1.44.54,2.05.35.61.86,1.1,1.48,1.44.62.36,1.33.53,2.1.53.98,0,1.83-.25,2.51-.74v-3.25h0ZM174.69,57.89c.93,0,1.66.23,2.16.72.5.46.75,1.18.75,2.11v4.52h-.93v-1.14c-.23.39-.57.7-.98.89-.41.21-.91.32-1.52.32-.81,0-1.43-.19-1.91-.59-.48-.38-.71-.91-.71-1.54s.23-1.12.66-1.5c.46-.38,1.16-.57,2.12-.57h2.29v-.44c0-.63-.17-1.1-.52-1.44s-.85-.51-1.52-.51c-.46,0-.89.08-1.31.23-.42.15-.79.36-1.08.63l-.44-.74c.37-.32.81-.55,1.31-.72.53-.15,1.07-.23,1.62-.23h0ZM174.36,64.54c.54,0,1.02-.13,1.41-.38.4-.25.69-.63.87-1.12v-1.18h-2.26c-1.23,0-1.85.44-1.85,1.31,0,.42.17.76.48,1.01.31.23.77.36,1.35.36ZM189.24,57.89c.91,0,1.62.25,2.12.78.52.53.79,1.31.79,2.32v4.22h-.98v-4.14c0-.76-.19-1.33-.54-1.73-.35-.4-.87-.59-1.52-.59-.75,0-1.33.23-1.77.7-.44.46-.65,1.1-.65,1.92v3.82h-.98v-4.14c0-.76-.19-1.33-.54-1.73-.35-.4-.87-.59-1.54-.59-.75,0-1.33.23-1.77.7-.44.46-.65,1.1-.65,1.92v3.82h-.98v-7.28h.93v1.33c.25-.44.62-.8,1.06-1.04.49-.24,1.03-.37,1.58-.36.6,0,1.12.13,1.56.38.46.25.79.63,1,1.16.26-.48.66-.87,1.14-1.12.54-.23,1.12-.36,1.7-.36h0ZM201.08,61.9h-6.03c.06.76.33,1.37.87,1.84.52.46,1.18.7,1.97.7.46,0,.85-.08,1.23-.23.37-.17.71-.4.98-.72l.54.63c-.31.38-.73.68-1.21.89s-1,.3-1.58.3c-.75,0-1.39-.15-1.97-.46-.56-.31-1.02-.77-1.33-1.33-.32-.59-.49-1.25-.48-1.92,0-.72.15-1.35.46-1.92.31-.57.73-1.01,1.27-1.31.54-.32,1.14-.46,1.81-.46s1.27.15,1.79.46c.52.32.94.76,1.25,1.31.31.55.46,1.18.46,1.92l-.02.32ZM197.59,58.74c-.69,0-1.29.23-1.75.68s-.73,1.04-.79,1.75h5.11c-.06-.72-.33-1.31-.81-1.75-.48-.44-1.06-.68-1.77-.68h0ZM205.01,65.33c-.57,0-1.14-.08-1.68-.25-.45-.14-.87-.36-1.25-.65l.44-.78c.31.23.69.44,1.14.59.46.15.93.23,1.43.23.66,0,1.14-.11,1.45-.3.3-.19.49-.53.48-.89,0-.28-.08-.49-.27-.63-.19-.17-.42-.28-.66-.34-.35-.1-.7-.18-1.06-.23-.58-.11-1.06-.21-1.41-.34-.35-.12-.66-.32-.91-.59-.25-.28-.37-.65-.37-1.16,0-.61.25-1.12.75-1.5.5-.38,1.21-.59,2.1-.59.46,0,.93.06,1.39.19.46.13.85.27,1.14.49l-.42.78c-.6-.42-1.31-.63-2.12-.63-.62,0-1.1.11-1.41.34-.31.23-.46.51-.46.87,0,.27.08.51.27.68.19.17.42.29.66.38.27.08.62.15,1.1.23.58.11,1.04.21,1.39.34.35.11.65.3.89.57.25.28.37.63.37,1.12,0,.63-.27,1.14-.79,1.52-.56.38-1.29.57-2.2.57h0Z"/>
      <path class="cls-2" d="M63.55,25.67C69.68,11.94,58.37-2.19,43.7.28L15.17,5.1C1.48,7.4-4.63,23.72,3.97,35.02l16.62,21.9c8.6,11.32,25.21,9.9,30.9-2.92l12.05-28.34ZM27.87,43.87c2.58,1.37,5.42,2.07,8.58,2.07,2.68,0,5.11-.49,7.29-1.46,2.18-.97,4.01-2.36,5.49-4.2l-4.59-4.33c-2.08,2.49-4.68,3.74-7.77,3.74-1.91,0-3.64-.42-5.13-1.27-1.49-.85-2.71-2.1-3.53-3.61-.83-1.54-1.25-3.27-1.25-5.24s.42-3.7,1.25-5.24c.82-1.5,2.04-2.74,3.53-3.57,1.52-.87,3.22-1.31,5.13-1.31,3.1,0,5.67,1.22,7.77,3.69l4.59-4.33c-1.47-1.82-3.3-3.19-5.49-4.16-2.16-.95-4.57-1.44-7.25-1.44-3.18,0-6.07.72-8.62,2.13-2.53,1.39-4.53,3.34-6.01,5.83-1.43,2.47-2.16,5.28-2.16,8.4s.73,5.96,2.16,8.45c1.45,2.44,3.52,4.46,6.01,5.83Z"/>
    </g>
  </g>
</svg>