<?xml version="1.0" encoding="UTF-8"?>
<svg id="Layer_2" data-name="Layer 2" xmlns="http://www.w3.org/2000/svg" viewBox="0 0 193.86 117.67">
  <defs>
    <style>
      .cls-1 {
        fill: #fff;
        stroke-width: 0px;
      }
    </style>
  </defs>
  <g id="Layer_1-2" data-name="Layer 1">
    <g>
      <path class="cls-1" d="M105.35,75.75h-9.3c-2.45,0-2.35,0-2.84-2.35-.88-4.4-1.76-8.7-2.74-13.09l-.39-1.17c-.49,3.32-.88,6.35-1.37,9.38-.29,2.15-.59,4.2-.98,6.25-.1.29-.39.78-.68.78-3.33.1-6.76,0-10.28,0,.39-2.35.68-4.59,1.08-6.74l4.99-31.95c.1-.59.1-1.08.88-.98,4.8.1,9.6-.1,14.4.39,7.93.78,10.97,5.18,9.6,12.9-.78,4.3-2.74,7.82-7.05,9.58-.78.39-.59.78-.39,1.37,1.57,4.79,3.23,9.58,4.8,14.36.1.39.2.68.29,1.27h0ZM91.05,54.16c.1.1.19.29.29.39.98-.29,1.96-.39,2.74-.78,2.06-1.08,3.33-4.01,2.94-6.25-.29-1.86-1.86-3.13-3.82-2.93-.29,0-.78.39-.78.59-.49,2.93-.88,5.96-1.37,8.99ZM8.31,35.98c5.78.19,11.46-.49,17.04.68,5.39,1.08,7.93,4.3,7.83,9.67,0,2.74-.59,5.38-1.96,7.72-1.17,2.05-2.84,3.62-4.99,4.59-.88.39-.98.78-.69,1.56l4.7,14.07c.1.39.2.78.39,1.27-.39,0-.78.1-1.08.1h-9.4c-.88,0-1.17-.29-1.37-1.07-.88-4.59-1.86-9.19-2.84-13.78-.1-.49-.2-.88-.49-1.37-.1.29-.19.49-.19.78-.69,4.79-1.37,9.58-2.16,14.36-.1.39-.49,1.07-.78,1.07-3.33.1-6.56,0-10.09,0,1.96-13.19,4.01-26.38,6.07-39.67ZM16.24,54.16c.1.1.2.29.29.39.98-.29,2.06-.39,2.94-.88,2.25-1.37,3.04-3.62,2.84-6.15-.1-1.66-.98-2.54-2.55-2.93-1.76-.49-1.96-.29-2.25,1.37,0,.29-.1.59-.1.88l-1.17,7.33ZM46.4,75.85c.69-4.59,1.37-8.7,2.06-12.9,1.37-8.6,2.74-17.1,4.01-25.7.19-1.08.49-1.27,1.57-1.27,3.23.1,6.46-.1,9.79.1,8.32.49,13.51,5.67,13.9,13.88.2,5.57-.88,10.85-3.53,15.83-2.94,5.38-7.44,8.79-13.61,9.48-4.7.59-9.3.39-14.2.59ZM58.74,66.18c2.25,0,3.72-.98,4.8-2.54,2.94-4.5,3.53-9.48,2.64-14.66-.29-1.37-1.18-2.44-2.64-2.93-1.27-.39-1.57-.2-1.76,1.08-.59,3.52-1.08,7.03-1.66,10.55-.49,2.74-.88,5.57-1.37,8.5ZM147.06,35.98c-.88,5.47-1.66,10.85-2.55,16.22.1,0,.1.1.2.1.2-.29.39-.59.49-.88l7.35-14.36c.39-.78.88-1.17,1.86-1.17,3.33.1,6.56,0,10.09,0-.29.49-.49.88-.68,1.27-3.43,5.67-6.85,11.34-10.38,17-.39.68-.49,1.27-.2,2.05,1.96,5.96,3.82,12.02,5.68,18.08.1.39.2.78.39,1.37-.49,0-.88.1-1.27.1h-9.01c-1.08,0-1.37-.39-1.57-1.27-1.08-5.08-2.15-10.16-3.23-15.34-.1-.39-.2-.78-.49-1.17-.2,1.37-.49,2.74-.69,4.1-.68,4.2-1.27,8.5-2.06,12.7-.1.29-.49.88-.78.88h-9.79c-.1,0-.1-.1-.29-.2.29-2.25.69-4.5,1.08-6.74,1.66-10.36,3.23-20.72,4.9-31.08.29-2.15,0-1.76,2.15-1.86h7.54c.29.2.68.2,1.27.2h0Z"/>
      <path class="cls-1" d="M129.24,75.65h-11.16v-4.98h-6.95c-.29,0-.59.49-.68.78-.39,1.07-.69,2.35-1.18,3.42-.19.39-.68.78-1.08.78s-.98-.39-1.08-.78c-1.37-3.81-2.64-7.72-3.92-11.53-.1-.29-.2-.69-.1-.88.78-1.76,1.18-3.62,2.64-5.08,2.84-2.93,3.82-6.65,4.01-10.55,0-.68.2-1.47.39-2.05.98-2.54,2.06-5.08,3.03-7.62.29-.78.69-1.17,1.57-1.08,3.72.1,7.44,0,11.07,0,.78,0,1.08.19,1.08.98.68,12.51,1.47,25.11,2.15,37.62.2.2.2.49.2.98h0ZM113.57,62.27c1.18,0,2.15-.1,3.13,0,1.08.1,1.57-.19,1.57-1.47.1-4.3.29-8.6.39-12.8,0-.69.1-1.27.1-1.96h-.2c-1.71,5.39-3.37,10.8-4.99,16.22ZM183.88,50.83c-.49,3.13-.98,5.96-1.47,8.79,0,.29-.59.59-.98.59-2.15.1-4.21.1-6.37,0-.78,0-1.27.19-1.37,1.08-.2,1.66-.49,3.32-.78,5.08h9.3c-.29,2.35-.69,4.5-.98,6.64q-.39,2.74-3.23,2.74h-17.43c.2-1.27.39-2.44.49-3.61,1.86-11.63,3.62-23.26,5.48-34.89.2-1.08.59-1.37,1.57-1.37h18.8c-.19,1.4-.39,2.8-.59,4.2-.1.68-.2,1.47-.39,2.15q-.49,3.03-3.52,3.03c-1.66,0-3.33.1-4.99,0-1.08-.1-1.47.29-1.57,1.27-.2,1.37-.39,2.74-.69,4.3h8.72ZM46.01,66.47c-.39,3.03-.78,5.77-1.27,8.4-.1.29-.59.78-.88.78-3.49.1-6.99.1-10.48,0-.29,0-.78-.39-.88-.68-1.57-4.69-3.23-9.48-4.7-14.17-.1-.29.2-.88.49-.98,6.17-3.52,7.74-11.73,6.56-17-.49-2.25-1.76-4.1-3.53-5.57-.2-.19-.29-.59-.49-.88.29-.1.49-.29.78-.29h18.7c.2,0,.29.1.59.1l-.88,6.16q-.49,2.93-3.53,2.93h-5.39c-.69,0-.98.19-1.08.88-.2,1.56-.49,3.03-.78,4.79h8.42c-.49,3.13-.98,6.16-1.47,9.28-2.35,0-4.6.1-6.85,0-1.17,0-1.67.29-1.76,1.47-.1,1.56-.49,3.03-.69,4.79h9.11ZM154.21,117.28c-4.21-2.15-8.42-4.3-12.63-6.55-12.24-6.35-24.38-12.61-36.62-18.96-.59-.29-1.18-.98-1.47-1.56-.88-2.15-1.67-4.3-2.55-6.74.49.1.88.2,1.18.29l24.38,7.33c.59.19,1.08.49,1.57.88l22.62,17c.59.39.98,1.07,1.27,1.66.88,2.15,1.66,4.3,2.45,6.55-.1-.1-.1,0-.2.1h0ZM178.69,29.63c-2.06-4.69-5.68-6.65-12.14-6.45,1.08-1.56,2.06-3.13,3.13-4.69,2.55-3.71,5.09-7.33,7.44-11.14,1.18-1.86,2.74-2.54,4.8-2.35,2.94.29,5.39,1.37,7.34,3.62,1.47,1.76,1.47,3.13.29,4.89-3.56,5.42-7.18,10.79-10.87,16.12Z"/>
      <path class="cls-1" d="M160.87,31.97c1.76-2.83,2.94-5.57,5.48-7.43.69-.49,1.76-.59,2.64-.59,2.74.1,5.19,1.08,7.05,3.13.72.74,1.26,1.65,1.57,2.64.49,1.66-.1,2.25-1.86,2.25h-14.88,0ZM139.52,80.15c-2.94,4.3-5.68,8.4-8.52,12.6-1.47-1.07-2.84-1.95-4.31-3.03.52-.84,1.08-1.65,1.66-2.44,1.37-2.15,2.84-4.2,4.21-6.35.39-.59.88-.88,1.57-.78,1.66.1,3.33,0,5.39,0ZM191.52,10.77c-1.76-4.59-6.17-6.84-12.04-6.45,1.86-4.01,4.41-5.18,8.62-3.71,1.96.68,3.62,1.66,4.8,3.32,1.27,1.76,1.27,2.83.1,4.59-.49.78-.98,1.47-1.47,2.25h0ZM31.61,93.15c.39-2.54.88-4.89,1.27-7.33-.1,0-.2-.1-.29-.1-1.08,2.44-2.15,4.98-3.23,7.43-.2,0-.29-.1-.49-.1l-.59-7.04h-.29c-.2,1.27-.49,2.64-.69,3.91-.2.78-.29,1.66-.49,2.44-.1.29-.39.49-.59.78-.1-.1-.29-.19-.39-.19.39-2.25.78-4.4,1.17-6.64.2-1.17.39-2.35.69-3.52.1-.29.39-.49.59-.68.2.19.49.49.59.68.2,1.76.29,3.42.39,5.18.1.88.2,1.76.49,2.64l1.47-3.52c.59-1.47,1.17-2.93,1.86-4.3.2-.39.59-.59.98-.88.1.1.29.2.39.29-.69,3.52-1.37,7.13-2.06,10.65,0,.2-.29.2-.78.29h0ZM155.68,117.67c-.98-2.74-1.96-5.18-2.94-7.72,2.25-1.37,5.19-1.27,6.66.19.59.59.78.98.2,1.76-1.32,1.91-2.62,3.84-3.92,5.77ZM54.43,92.85c.59-3.42,1.18-6.74,1.86-10.16,0-.19.39-.39.69-.59.2.29.49.49.49.78.2,2.15.39,4.4.78,6.64.1-.29.2-.49.29-.78.39-1.86.68-3.81,1.08-5.67.1-.29.29-.59.49-.88.1.1.29.1.39.2l-.59,3.22c-.39,2.25-.78,4.59-1.27,6.84-.1.29-.39.49-.59.78-.2-.29-.59-.49-.68-.78-.2-1.76-.29-3.42-.39-5.18,0-.39-.1-.78-.1-1.17h-.29c-.29,1.46-.49,2.93-.78,4.4-.1.68-.2,1.47-.39,2.15-.1.29-.39.49-.59.68-.1-.29-.2-.39-.39-.49ZM4.39,85.33c0-.59.2-.98.1-1.27-.2-.39-.39-.88-.68-1.27-.49.29-.98.39-1.37.78-.29.29-.29.78-.29,1.27-.39,2.05-.78,4.1-1.08,6.16-.1.39.39.88.59,1.27.49-.2,1.37-.39,1.47-.68.29-1.17,1.17-2.44.29-3.71-.29-.49.1-.68,1.67-.59-.39,1.66-.69,3.42-1.27,5.08-.29.88-1.86,1.17-2.94.78-1.08-.39-.88-1.27-.78-2.05.39-2.44.78-4.79,1.27-7.23.2-1.17.88-1.95,2.16-1.95.68,0,1.66.19,1.86.68.29.59,0,1.56-.1,2.35,0,.1-.39.19-.88.39h0ZM73.33,85.04c-.49-.98-.59-2.05-1.08-2.15-1.18-.29-1.47.68-1.57,1.56-.39,2.05-.78,4.2-1.08,6.25-.1.59-.29,1.37.69,1.56.88.19,1.47-.39,1.47-1.17.1-1.17.98-2.25.1-3.42.49-.19.88-.49,1.37-.68l.29.29c-.29,1.47-.49,2.93-.88,4.3-.39,1.37-2.25,2.15-3.43,1.37-.39-.29-.69-.98-.59-1.37.39-2.72.88-5.43,1.47-8.11.29-1.37,2.15-2.05,3.33-1.37,1.18.59.68,1.66.49,2.54-.2.29-.59.39-.59.39ZM17.9,90.8q-2.15-.39-2.84,1.47c-.1.39-.49.68-.68.98-.1-.1-.29-.1-.39-.19.1-.29.1-.68.19-.98.98-2.93,1.96-5.76,2.84-8.7.39-1.17.98-1.46,1.86-1.17v10.26c0,.2-.29.49-.49.68-.2-.19-.39-.49-.39-.68-.19-.59-.1-1.07-.1-1.66ZM18,82.69c-.73,2.27-1.45,4.55-2.15,6.84.1.1.2.29.29.39.59-.29,1.67-.49,1.67-.78.29-2.15.2-4.2.2-6.45h0ZM42.38,92.85l.59-3.52c.39-2.15.78-4.3,1.17-6.55.1-.29.39-.59.59-.88.1.1.29.1.39.2-.39,2.25-.78,4.5-1.17,6.84-.2,1.07-.39,2.25-.59,3.32-.1.29-.39.59-.59.88,0-.1-.2-.2-.39-.29ZM102.21,82.89c2.45-1.27,5.09-1.07,6.36.49.2.29.29.68.39,1.07-.39.1-.78.2-1.08.2l-5-1.47c-.19-.1-.29-.19-.68-.29Z"/>
    </g>
  </g>
</svg>