<?xml version="1.0" encoding="UTF-8"?>
<svg id="Layer_2" data-name="Layer 2" xmlns="http://www.w3.org/2000/svg" viewBox="0 0 224.13 51.46">
  <defs>
    <style>
      .cls-1 {
        fill: #fff;
        stroke-width: 0px;
      }
    </style>
  </defs>
  <g id="Layer_1-2" data-name="Layer 1">
    <g>
      <path class="cls-1" d="M85.55,7.19c0,.72-.11,1.5-.35,2.34-.23.84-.6,1.62-1.11,2.33-.53.73-1.21,1.34-2,1.79-.83.48-1.82.72-3.01.72h-8.48v-4.96h8.47c.64,0,1.14-.22,1.48-.65.35-.43.52-.98.52-1.62,0-.69-.19-1.22-.59-1.61-.37-.38-.88-.59-1.42-.58h-8.47c-.64,0-1.14.22-1.48.65-.35.43-.52.98-.52,1.62v7.28c0,.7.2,1.24.59,1.63.39.38.88.58,1.45.58h8.44v4.98h-8.48c-.65,0-1.35-.13-2.1-.39-.77-.27-1.49-.68-2.1-1.23-.64-.57-1.18-1.32-1.62-2.23-.44-.92-.65-2.03-.65-3.34v-7.32c0-.72.11-1.5.34-2.34.23-.84.6-1.62,1.11-2.33.53-.73,1.21-1.34,2-1.79C68.43.24,69.42,0,70.6,0h8.47c.65,0,1.35.13,2.1.39.77.27,1.49.68,2.1,1.23.64.57,1.18,1.32,1.62,2.23.45.92.66,2.03.66,3.34h0ZM109.11,19.06c0,.38-.06.72-.18,1.04-.11.31-.28.59-.49.84-.21.23-.46.42-.74.55-.28.13-.59.2-.91.2h-10.62c-.62,0-1.24-.08-1.85-.22-.68-.16-1.33-.4-1.94-.71-.66-.34-1.28-.76-1.85-1.24-.61-.52-1.14-1.14-1.56-1.82-.45-.71-.8-1.54-1.07-2.48s-.41-1.99-.41-3.17V0h4.7v12.03c0,.69.1,1.3.32,1.83.21.54.49,1.01.86,1.39.36.39.78.69,1.28.89.49.21,1.01.31,1.58.31h8.22V0h4.7v19.06h0ZM128.74,5.21h-10.57c-.64,0-1.12.18-1.44.54-.33.36-.48.87-.48,1.56v14.38h-4.7V7.3c0-.89.1-1.7.31-2.4.18-.66.46-1.29.82-1.88.32-.52.72-.98,1.18-1.38.42-.37.89-.68,1.4-.93.47-.24.97-.41,1.48-.54.46-.11.93-.16,1.4-.17h10.61v5.22h0,0ZM148.1,14.51c0,.72-.11,1.5-.34,2.34-.23.84-.6,1.62-1.11,2.33-.53.73-1.21,1.34-2,1.79-.83.48-1.82.72-3.01.72h-8.47c-.65,0-1.35-.13-2.1-.39-.77-.27-1.49-.68-2.09-1.23-.64-.57-1.18-1.32-1.62-2.23-.44-.92-.65-2.03-.65-3.34,0-.72.11-1.5.35-2.35.23-.84.6-1.63,1.11-2.34.53-.73,1.22-1.34,2-1.79.83-.48,1.82-.72,3.01-.72h8.47v4.98h-8.47c-.64,0-1.13.22-1.48.65-.35.43-.52.98-.52,1.62,0,.69.21,1.21.6,1.6.38.38.9.58,1.43.57h8.44c.64,0,1.14-.22,1.48-.64.35-.43.52-.96.52-1.61v-7.28c0-.69-.19-1.22-.57-1.63-.38-.4-.86-.6-1.43-.6h-10.31V.01h10.31c.65,0,1.35.13,2.1.38.77.27,1.49.68,2.09,1.23.64.57,1.18,1.32,1.62,2.23.44.92.65,2.03.65,3.35v7.31h0,0ZM170.04,14.37c0,.89-.1,1.7-.31,2.41-.18.66-.45,1.3-.81,1.89-.31.52-.71.99-1.17,1.38-.42.37-.89.68-1.4.93-.47.24-.97.42-1.48.54-.5.11-.98.17-1.41.17h-12.73v-5.22h12.69c.64,0,1.12-.18,1.44-.54.33-.36.48-.88.48-1.57-.07-1.39-.69-2.08-1.9-2.08h-7.28c-1.03,0-1.92-.2-2.63-.6-.73-.4-1.31-.9-1.76-1.5-.45-.58-.78-1.24-.98-1.94-.2-.7-.3-1.34-.3-1.94,0-1.17.19-2.14.56-2.94.37-.8.85-1.44,1.4-1.94.54-.48,1.16-.84,1.84-1.07.66-.22,1.29-.33,1.86-.33h11.55v5.22h-11.51c-.24,0-.43.03-.57.09-.13.05-.23.13-.31.24-.06.1-.1.21-.12.32,0,.11-.02.22-.02.33,0,.22.05.38.11.5.06.12.14.21.22.26.09.06.2.09.31.09.11,0,.22,0,.34,0h7.28c1.2,0,2.23.24,3.07.72.81.45,1.5,1.06,2.04,1.81.51.72.89,1.52,1.13,2.38.23.85.35,1.65.35,2.39h0ZM176.63,21.68h-4.7V0h4.7v21.68ZM200.32,14.51c0,.72-.11,1.5-.34,2.34-.23.84-.6,1.62-1.11,2.33-.53.73-1.21,1.34-2,1.79-.83.48-1.82.72-3.01.72h-8.47c-.65,0-1.35-.13-2.1-.39-.77-.27-1.49-.68-2.1-1.23-.64-.57-1.18-1.32-1.62-2.23-.44-.92-.65-2.03-.65-3.34,0-.72.11-1.5.34-2.35.23-.84.6-1.63,1.11-2.34.53-.74,1.22-1.35,2.01-1.79.83-.48,1.82-.72,3.01-.72h8.47v4.98h-8.47c-.64,0-1.13.22-1.48.65-.35.43-.52.98-.52,1.62,0,.69.21,1.21.6,1.6.38.38.9.58,1.43.57h8.44c.64,0,1.14-.22,1.48-.64.35-.43.52-.96.52-1.61v-7.28c0-.69-.19-1.22-.57-1.63-.38-.4-.86-.6-1.43-.6h-10.32V.01h10.32c.65,0,1.35.13,2.1.38.77.27,1.49.68,2.09,1.23.64.57,1.18,1.32,1.62,2.23.44.92.65,2.03.65,3.35v7.31h-.02ZM224.12,21.68h-4.7v-12.03c0-.69-.1-1.3-.32-1.83-.19-.51-.48-.99-.86-1.39-.36-.38-.79-.69-1.27-.89-.5-.21-1.04-.32-1.58-.31h-8.22v16.47h-4.7V2.59c0-.36.05-.69.18-1.01.12-.31.29-.59.5-.83s.47-.41.76-.55c.29-.14.6-.2.92-.2h10.59c.59,0,1.21.08,1.87.22.66.15,1.3.38,1.96.71.66.34,1.28.76,1.84,1.24.59.5,1.1,1.11,1.55,1.82.46.71.81,1.54,1.08,2.48.26.94.4,1.99.4,3.17v12.04h0ZM59.46,25.9c-.38-1.27-1.01-2.46-1.83-3.49-.85-1.07-1.95-1.97-3.31-2.7-1.37-.72-3.03-1.09-4.98-1.09h-13.73c-2.18,3.87-6.1,6.61-10.69,7.11-.24,1.11-.28,2.37-.28,3.68,0,1.09.19,2.25.57,3.51.38,1.27,1.01,2.46,1.83,3.5.85,1.07,1.95,1.97,3.31,2.7,1.37.72,3.29,1.09,5.25,1.09h13.75v-7.45h-14.03c-1.05,0-1.87-.33-2.45-.98-.58-.65-.87-1.47-.87-2.42,0-1.02.33-1.83.97-2.42.65-.58,1.43-.87,2.35-.87h14.02c1.05,0,1.87.33,2.45.98.58.66.87,1.47.87,2.42v11.83c0,1.04-.33,1.86-.97,2.44-.65.58-1.45.87-2.4.87h-18.16v6.43h18.21c1.08,0,2.23-.19,3.48-.57,1.26-.39,2.44-1.02,3.46-1.85,1.07-.86,1.95-1.6,2.67-2.98.72-1.38,1.08-2.38,1.08-4.35v-11.88c0-1.08-.19-2.26-.57-3.51h0Z"/>
      <path class="cls-1" d="M22.35,25.83h-11.59c-.96,0-1.76-.29-2.4-.87-.65-.58-.97-1.4-.97-2.44v-10.95c0-.97.29-1.78.87-2.42.58-.66,1.4-.98,2.45-.98h14.02c.91,0,1.69.29,2.35.87.65.58.97,1.39.97,2.41,0,.97-.29,1.78-.87,2.42-.58.66-1.4.98-2.45.98h-14.03v7.45h13.75c1.95,0,3.88-.37,5.25-1.09s2.47-1.62,3.31-2.7c.83-1.04,1.45-2.22,1.83-3.49.38-1.26.57-2.42.57-3.51,0-1.97-.36-3.65-1.08-5.03-.72-1.38-1.61-2.49-2.67-3.34-1.07-.85-2.23-1.47-3.46-1.85-1.25-.39-2.4-.57-3.48-.57h-14.02c-1.95,0-3.61.37-4.98,1.09-1.37.72-2.47,1.62-3.31,2.7-.83,1.04-1.45,2.22-1.83,3.49-.38,1.26-.57,2.42-.57,3.51v11.01c0,1.97.36,3.65,1.08,5.03.72,1.38,1.61,2.49,2.67,3.35,1.02.83,2.2,1.46,3.46,1.85,1.25.39,2.4.57,3.48.57h11.65v-7.48h0ZM124.56,44.21c0,.72-.11,1.5-.34,2.34-.23.84-.6,1.62-1.11,2.33-.53.73-1.21,1.34-2,1.79-.83.48-1.82.72-3.01.72h-8.47c-.65,0-1.35-.13-2.1-.39-.77-.27-1.49-.68-2.09-1.23-.64-.57-1.18-1.32-1.62-2.23-.44-.92-.65-2.03-.65-3.34,0-.72.11-1.5.34-2.35.23-.84.6-1.63,1.11-2.34.53-.73,1.21-1.34,2-1.79.83-.48,1.82-.72,3.01-.72h8.47v4.98h-8.47c-.64,0-1.14.22-1.48.65-.35.43-.52.98-.52,1.62,0,.69.21,1.21.61,1.6.4.39.89.57,1.43.57h8.44c.64,0,1.14-.22,1.48-.64.35-.43.52-.96.52-1.61v-7.28c0-.69-.19-1.22-.57-1.63s-.86-.6-1.43-.6h-10.32v-4.96h10.32c.65,0,1.35.13,2.1.38.77.27,1.49.69,2.09,1.23.64.57,1.18,1.32,1.62,2.23.44.92.65,2.03.65,3.34v7.32s-.01,0-.01,0ZM144.14,51.4h-4.7v-14.38c0-.69-.16-1.2-.48-1.56-.33-.36-.81-.54-1.44-.54h-6.11v16.47h-4.7v-19.09c0-.36.06-.7.18-1.02.12-.31.29-.59.5-.83.21-.24.46-.41.76-.56.29-.13.6-.2.92-.2h8.47c.65,0,1.35.13,2.1.39.78.27,1.5.69,2.13,1.22v-1.61h6.36c.45,0,.91.06,1.4.17.51.12,1,.3,1.47.54.48.24.96.55,1.4.93.45.39.84.85,1.17,1.38.35.59.63,1.22.81,1.88.21.7.31,1.51.31,2.4v14.38h-4.7v-14.38c0-.69-.15-1.2-.46-1.56-.31-.36-.78-.54-1.41-.54h-4.23c.16.64.23,1.33.23,2.08v14.4h.02ZM161.43,51.4h-4.7v-21.69h4.7v21.69ZM185.19,51.4h-4.7v-12.03c0-.69-.1-1.3-.32-1.83-.21-.54-.49-1-.86-1.39-.36-.38-.79-.69-1.27-.89-.5-.21-1.04-.32-1.58-.31h-8.22v16.47h-4.7v-19.11c0-.36.06-.69.18-1.01.12-.31.29-.59.5-.83s.46-.41.76-.56c.29-.13.6-.2.92-.2h10.59c.59,0,1.21.07,1.87.22.66.15,1.3.39,1.95.71.66.34,1.28.76,1.84,1.24.59.5,1.1,1.11,1.55,1.82s.81,1.54,1.08,2.48c.26.94.4,1.99.4,3.17v12.05h0ZM84.49,46.58h8.01c2.59,0,3.07-.19,3.46-.57.39-.39.59-.91.59-1.6v-7.73c0-.63-.18-1.15-.52-1.59-.35-.42-.85-.64-1.48-.64h-8.47c-.56,0-1.02.19-1.42.57-.39.39-.59.9-.59,1.58,0,.63.18,1.16.52,1.59.35.42.85.64,1.48.64h8.47v4.87h-8.31c-1.18,0-2.35-.24-3.17-.71-.79-.44-1.47-1.04-2-1.77-.51-.69-.88-1.46-1.11-2.28-.22-.74-.34-1.52-.34-2.29,0-1.29.06-2.49.48-3.39.44-.9,1.14-1.51,1.78-2.08.61-.54,1.32-.95,2.09-1.21.75-.25,1.45-.38,2.1-.38h8.47c1.18,0,2.19.24,3.01.71.79.44,1.47,1.04,2,1.77.5.69.88,1.46,1.11,2.28.23.82.34,1.59.34,2.29v7.77c0,1.29-.21,2.39-.65,3.28-.44.9-.98,1.62-1.62,2.19-.61.54-1.32.95-2.1,1.21-.75.25-1.45.38-4.11.38h-8.05v-4.89h.02,0ZM192.13,46.58h8.01c2.59,0,3.07-.19,3.46-.57.39-.39.59-.91.59-1.6v-7.73c0-.63-.18-1.15-.52-1.59-.35-.42-.85-.64-1.48-.64h-8.47c-.53-.01-1.04.2-1.41.57-.39.39-.59.9-.59,1.58,0,.63.18,1.16.52,1.59.35.42.85.64,1.48.64h8.47v4.87h-8.31c-1.18,0-2.35-.24-3.17-.71-.79-.44-1.47-1.04-2-1.77-.5-.69-.88-1.46-1.11-2.28-.22-.74-.34-1.52-.34-2.29,0-1.29.06-2.49.48-3.39.44-.9,1.14-1.51,1.78-2.08.61-.54,1.32-.95,2.09-1.21.75-.25,1.45-.38,2.1-.38h8.47c1.18,0,2.19.24,3.01.71.79.44,1.47,1.04,2,1.77.51.69.88,1.46,1.11,2.28.23.82.34,1.59.34,2.29v7.77c0,1.29-.21,2.39-.65,3.28-.44.9-.98,1.62-1.62,2.19-.61.54-1.32.95-2.09,1.21-.75.25-1.45.38-4.11.38h-8.05v-4.89h.02,0Z"/>
    </g>
  </g>
</svg>