<?xml version="1.0" encoding="UTF-8"?>
<svg id="Layer_2" data-name="Layer 2" xmlns="http://www.w3.org/2000/svg" viewBox="0 0 224 79">
  <defs>
    <style>
      .cls-1 {
        fill: #fff;
        stroke-width: 0px;
      }
    </style>
  </defs>
  <g id="Layer_1-2" data-name="Layer 1">
    <g>
      <path class="cls-1" d="M32.77,55.81l6.86-11.64,6.79,11.76,13.83-23.43h-6.82s6.8-11.71,6.8-11.71h20.16l-34.02,58.21-13.59-23.19Z"/>
      <path class="cls-1" d="M25.71,43.77l7.06,12.04,6.86-11.64h0s-6.74-11.67-6.74-11.67h13.67l6.8-11.71h-27.54s-5.35-9.07-5.35-9.07l38.28.06L65.54.07,0,0l19.18,32.5h.03l6.5,11.27Z"/>
      <path class="cls-1" d="M103.97,25.05h-10.49v5.82h8.59v4.3h-8.59v8.85h-4.74v-23.27h15.22v4.3Z"/>
      <path class="cls-1" d="M126.98,34.39c0,6.24-4.21,10.05-9.82,10.05s-9.82-3.81-9.82-10.05v-13.65h4.74v14c0,3.49,2.21,5.29,5.09,5.29s5.09-1.8,5.09-5.29v-14h4.74v13.65Z"/>
      <path class="cls-1" d="M152.93,25.37l-3.37,2.79c-1.54-2.15-3.61-3.42-6.46-3.42-4.49,0-7.44,3.21-7.44,7.65s3.05,7.79,7.72,7.79c2.7,0,4.84-1.13,6.1-2.89v-1.9h-6.38v-4.13h11.12v6.88c-2.03,3.67-6.1,6.31-11.05,6.31-6.95,0-12.38-5.22-12.38-12.06s5.4-12.06,12.38-12.06c4.14,0,7.54,1.87,9.75,5.04Z"/>
      <path class="cls-1" d="M171.66,40.99h-9.47l-1.3,3.03h-5.08l10.35-23.7h1.58l10.31,23.7h-5.09l-1.3-3.03ZM166.93,29.21l-3.09,7.86h6.17l-3.09-7.86Z"/>
      <path class="cls-1" d="M195.97,24.73l-3.23,2.5c-1.12-1.69-2.53-2.68-4.42-2.68-1.54,0-2.88.71-2.88,2.26,0,1.34,1.02,1.9,2.7,2.68l2.63,1.16c3.65,1.62,5.72,3.49,5.72,6.81,0,4.34-3.51,6.98-8.1,6.98-4,0-7.22-2.05-8.94-5.15l3.26-2.47c1.26,1.76,2.91,3.39,5.68,3.39,2.04,0,3.3-.95,3.3-2.57,0-1.52-1.12-2.05-2.95-2.89l-2.49-1.13c-3.3-1.52-5.61-3.42-5.61-6.7,0-4.02,3.33-6.59,7.68-6.59,3.68,0,6.28,1.87,7.65,4.41Z"/>
      <path class="cls-1" d="M224,32.38c0,6.84-5.54,12.06-12.35,12.06s-12.28-5.22-12.28-12.06,5.47-12.06,12.28-12.06,12.35,5.22,12.35,12.06ZM204.25,32.38c0,4.51,3.12,7.65,7.44,7.65s7.44-3.14,7.44-7.65-3.19-7.65-7.44-7.65-7.44,3.17-7.44,7.65Z"/>
    </g>
  </g>
</svg>