<?xml version="1.0" encoding="UTF-8"?>
<svg id="Layer_2" data-name="Layer 2" xmlns="http://www.w3.org/2000/svg" viewBox="0 0 143.06 118.01">
  <defs>
    <style>
      .cls-1 {
        fill: #fff;
        stroke-width: 0px;
      }
    </style>
  </defs>
  <g id="Layer_1-2" data-name="Layer 1">
    <g>
      <path class="cls-1" d="M63.51,0c.13.08.24.18.37.21l22.39,5.75c4.03,1.03,8.07,2.08,12.1,3.13.3.07.59.2.91.28.82.19,1.26.73,1.39,1.52.13.78-.11,1.45-.89,1.85-2.98,1.59-5.97,3.2-8.97,4.78-3.28,1.73-6.58,3.41-9.85,5.12-2.66,1.39-5.45,2.22-8.45,2.31-2.06.05-4.03-.35-5.99-1.02-2.78-.96-5.63-1.73-8.44-2.6-7.33-2.27-14.67-4.53-21.99-6.82-.73-.23-.56-.19-1.23-.56-.4-.23-.71-1.46-.38-1.83,1.71-1.74,2.95-2.08,4.92-2.98,5.57-2.51,11.14-4.98,16.73-7.4,1.42-.62,2.95-1,4.43-1.49.15-.05.28-.15.42-.23C61.83,0,62.68,0,63.51,0ZM48.94,14.26c.87-.09,1.77-.13,2.63-.29,1.46-.28,2.86-.67,3.86-1.92.28-.35.24-.62.04-.94-.67-1.06-1.76-1.43-2.87-1.75-1.63-.48-3.31-.45-5-.36-1.35.06-2.71.33-3.9,1.02-1.59.93-1.9,1.98-.06,3.04,1.63.93,3.44,1.16,5.3,1.21h0ZM67.6,14.25c1.04-.13,2.09-.19,3.11-.4,1.15-.24,2.26-.64,3.1-1.55.57-.6.57-.9,0-1.54-.69-.8-1.63-1.14-2.61-1.41-1.72-.49-3.49-.49-5.24-.35-1.07.09-2.16.43-3.2.77-.71.23-1.35.67-1.68,1.41-.18.4-.2.76.18,1.05.48.37.94.78,1.47,1.05,1.54.74,3.17.94,4.87.98ZM86.38,14.1c.66-.06,1.58-.09,2.45-.27,1.26-.27,2.53-.62,3.44-1.68.42-.48.49-.93.02-1.34-.54-.47-1.15-.95-1.81-1.18-2.62-.95-5.3-.92-7.97-.25-1.02.25-2.07.64-2.63,1.65-.15.27-.19.85-.03,1,.51.48,1.1.88,1.73,1.2,1.42.72,2.99.79,4.78.87ZM133.58,118c-.27-.1-.53-.23-.8-.29-1.52-.33-2.91-.87-3.79-2.26-1.02-1.59-.85-3.91.46-5.26.35-.38.3-.58,0-.93-1.09-1.25-1.1-2.93-.13-4.22.11-.15.14-.53.04-.68-2.1-3.03-.68-7.14,2.86-8.1,1.04-.29,2.15-.4,3.24-.43,2.12-.06,4.25-.03,6.39-.03.95,0,1.16.25,1.21,1.2.05.85-.08,1.5-1.04,1.7-.09.03-.23.39-.16.53,1.44,3.05-.11,6.28-3.41,7.02-1.9.43-3.79.49-5.69-.03-.35-.1-.68-.07-.78.28-.08.28-.01.64.13.88.11.19.44.32.7.38,1.99.5,3.97.97,5.94,1.47.58.15,1.16.36,1.72.62,2,.89,2.62,2.47,2.06,4.76-.48,1.97-2.09,2.66-3.87,3.06-.34.08-.67.2-1,.32-1.37-.01-2.72-.01-4.06-.01h0ZM135.44,103.76s.01-.05.03-.07c.23-.01.47-.01.7-.04,1.91-.2,2.58-1.06,2.34-2.95-.11-.87-.6-1.42-1.4-1.69-1.11-.37-2.24-.35-3.35,0-.91.29-1.42.98-1.47,1.98-.07,1.3.23,1.98,1.23,2.36.6.21,1.28.28,1.93.42ZM135.68,115.11c.68-.11,1.44-.16,2.16-.35.72-.19.96-.63.97-1.36.01-.67-.39-1.01-.95-1.17-1.35-.39-2.7-.76-4.06-1.11-1.06-.28-1.25-.15-1.58.89-.09.28-.11.58-.13.87-.02,1.11.33,1.65,1.39,1.93.68.16,1.4.19,2.19.3h0ZM.04,90.89c1.16-.64,2.43-.26,3.64-.28.18,0,.52.5.52.77.03,2.72,0,5.46,0,8.18,0,.14.03.28.05.56.2-.19.33-.26.42-.39,2.1-2.81,4.2-5.62,6.27-8.45.4-.56.85-.79,1.53-.74.88.05,1.77,0,2.66.03.23.01.56.1.63.25.08.15-.05.48-.19.65-2.31,3.02-4.64,6.02-6.99,9.01-.3.39-.3.63-.01,1.02,2.35,3.25,4.68,6.52,6.99,9.8.11.16.25.47.18.59-.08.14-.38.21-.59.21-1.11.03-2.24,0-3.35.01-.52.01-.87-.2-1.15-.63-1.98-2.97-3.97-5.94-5.97-8.9-.12-.16-.24-.32-.38-.47-.06.25-.13.38-.13.5.01,2.85.03,5.71.03,8.56,0,.67-.24.91-.91.92-.76.01-1.52.04-2.28-.01-.34-.03-.67-.2-1-.3.04-6.95.04-13.93.04-20.9H.04ZM34.39,16c.64.14,1.25.21,1.83.39,10.49,3.23,20.98,6.47,31.47,9.71,2.01.63,3.86,1.58,5.34,3.11,1.81,1.89,2.54,4.16,2.44,6.78-.1,2.62-.03,5.24-.03,7.88.03,8.02.08,16.05.09,24.07,0,1.13-.11,2.26-.23,3.39-.25,2.48-1.53,3.49-4.08,4.07-1.52.35-2.79-.2-4.12-.67-6.38-2.26-12.76-4.54-19.14-6.83-3.61-1.3-7.21-2.6-10.78-3.98-2.2-.86-3.36-2.69-4.11-4.83-.59-1.71-.66-3.51-.75-5.28-.51-10.01-.99-20.01-1.48-30.02-.05-1.07-.19-2.14-.15-3.2.03-.96.18-1.9.34-2.85.11-.62.78-1.37,1.37-1.55.72-.24.9-.13,1.99-.19h0ZM49.51,46.1c.4.9.85,1.78,1.28,2.66,2.36,4.8,4.75,9.6,7.11,14.41.6,1.24,1.44,2.16,2.72,2.64,2.32.87,4.63,1.73,6.97,2.53.3.1.87.05,1.01-.15.18-.24.14-.77-.01-1.07-1.18-2.42-2.4-4.82-3.62-7.21-1.92-3.81-3.86-7.61-5.75-11.45-.6-1.21-.62-2.4.38-3.49.9-1,1.71-2.08,2.57-3.11,1.68-2.02,3.38-4.03,5.05-6.05.7-.83.58-1.31-.42-1.78-.07-.04-.15-.07-.23-.1-1.36-.43-2.71-.85-4.07-1.27-1.18-.37-2.36-.73-3.54-1.07-.37-.1-.76-.13-1.14-.18,0,0-.3,0-.76.63,0,.09-.09.2-.16.24-1.16,1.29-1.01,1.22-1.53,1.83-.65.76-1.11,1.67-1.71,2.47-1.28,1.75-2.61,3.48-3.88,5.23-.62.86-1.01,1.82-.89,2.9l.63,1.4h0ZM46.45,60.52c1.53,0,2.18-.57,2.12-1.63-.11-2.27-.28-4.53-.4-6.78-.2-3.63-.42-7.25-.57-10.88-.18-3.97-.28-7.93-.44-11.9-.04-1.06-.49-1.9-1.59-2.26-2.09-.67-4.17-1.36-6.27-1.99-1.04-.32-1.72.25-1.68,1.34.05,1.69.17,3.38.24,5.07.09,1.78.17,3.54.25,5.32l.38,7.96c.09,1.75.18,3.51.25,5.26l.27,6.52c.03.82.69,1.7,1.47,1.97,1.07.37,2.14.74,3.21,1.11,1.01.34,2.05.67,2.77.91h0ZM77.35,51.64c.15-6.24.3-12.47.44-18.71.09-3.68,1.83-6.33,5-8.12,6.3-3.56,12.61-7.1,18.91-10.65.49-.28.96-.61,1.44-.91.51-.31.8-.25.95.33.19.77.39,1.56.39,2.35-.03,3.59-.09,7.18-.19,10.77-.2,7.32-.43,14.65-.66,21.98-.05,1.58-.09,3.15-.3,4.7-.34,2.5-1.39,4.59-3.45,6.22-5.59,4.44-11.13,8.93-16.63,13.45-1.02.85-2.06,1.08-3.31.96-1.91-.18-2.76-.98-2.86-2.9-.04-.64-.01-1.3,0-1.95.1-5.84.2-11.67.32-17.51-.03.01-.04.01-.04.01ZM93.88,48.91c.39,2.45.77,4.77,1.16,7.09.05.29.16.71.35.78.21.09.59-.1.83-.26.81-.6,1.62-1.2,2.35-1.89.46-.43,1.06-.78.88-1.65-.44-2.14-.78-4.31-1.19-6.46-.57-3.04-1.18-6.06-1.73-9.12-.61-3.32-1.21-6.63-1.78-9.95-.19-1.08-.9-1.58-1.96-1.22-.34.11-.63.38-.96.48-.87.25-1.57.74-2.19,1.4-.73.77-.82,1.73-1,2.71-.4,2.27-.9,4.53-1.34,6.8-.61,3.09-1.19,6.18-1.78,9.27-.56,2.89-1.09,5.78-1.64,8.65-.56,2.86-1.14,5.72-1.71,8.57-.15.73-.32,1.47-.39,2.22-.03.24.14.59.33.72.15.1.54.03.72-.1.76-.53,1.46-1.14,2.2-1.68.9-.66,1.54-1.44,1.64-2.61.06-.78.23-1.56.37-2.35.36-2.09.74-4.19,1.11-6.28.1-.54.14-1.11.67-1.49,1.26-.9,2.5-1.83,3.76-2.75.44-.28.87-.57,1.29-.88h0ZM82.75,97.01c.46-.24.75-.42,1.06-.57,1.83-.91,3.76-1.24,5.55-.15.85.5,1.37.43,2.18.07,1.67-.74,3.44-.94,5.25-.49,1.63.4,2.52,1.55,2.87,3.11.19.87.28,1.79.29,2.68.04,3.18.01,6.34.01,9.52,0,.72-.21.93-.94.95-.63.01-1.26.01-1.9,0-.8-.01-1.01-.23-1.01-1.01v-9.14c0-.53-.01-1.05-.09-1.58-.11-.87-.63-1.35-1.49-1.44-.99-.11-1.93.09-2.82.52-.19.09-.4.39-.4.61,0,2.28.05,4.58.08,6.86.01,1.41.01,2.81.01,4.22,0,.71-.23.95-.95.96-.66.01-1.3.01-1.96,0-.73-.01-.94-.21-.94-.95,0-3.15.01-6.3-.01-9.46,0-.58-.09-1.17-.19-1.74-.1-.58-.54-.88-1.1-1-1.13-.23-2.11.24-3.06.74-.18.09-.26.47-.26.71-.01,3.53-.01,7.06,0,10.59,0,.91-.18,1.1-1.11,1.1-.61,0-1.23.01-1.83,0-.67-.01-.89-.23-.89-.86,0-4.88,0-9.75-.01-14.63,0-.59.28-.84.85-.84.63,0,1.26.03,1.9,0,.71-.04,1,.33.92,1.2h0ZM26.03,106.12c-.89,0-1.77.03-2.66-.01-.51-.01-.72.2-.82.67-.33,1.44-.68,2.86-1.01,4.29-.22.94-.37,1.06-1.31,1.06-.72,0-1.43.01-2.15,0-.73-.01-.92-.25-.75-.93.96-3.69,1.92-7.4,2.9-11.1.62-2.37,1.24-4.75,1.88-7.12.4-1.49,1.42-2.32,2.91-2.64,2.28-.47,4.2.43,4.93,2.38.29.77.46,1.58.66,2.37,1.3,4.96,2.59,9.91,3.88,14.86.11.43.23.86.34,1.27.15.58-.03.87-.62.88-.91.03-1.81.01-2.72,0-.54-.01-.75-.37-.86-.85-.35-1.54-.75-3.06-1.1-4.59-.1-.44-.32-.58-.75-.58-.91.05-1.83.03-2.76.02ZM26.07,102.82c.66,0,1.3-.01,1.96,0,.48.01.58-.2.47-.63-.2-.74-.38-1.5-.57-2.26-.47-1.89-.91-3.79-1.4-5.69-.05-.21-.32-.38-.49-.57-.17.2-.42.38-.47.61-.66,2.62-1.28,5.26-1.92,7.89-.13.52.07.64.53.63.65.01,1.28.01,1.9.01ZM58.97,106.4v4.47c0,.78-.16.98-.96,1.11-2.34.38-4.69.61-7.04.32-3.25-.4-5.78-2.81-6.36-6.05-.21-1.18-.31-2.37-.29-3.57.03-2.07,0-4.17.29-6.22.51-3.57,3.47-6.14,7.08-6.18,2.18-.03,4.36.29,6.54.47.53.04.77.36.76.89-.01.48,0,.97,0,1.45,0,.68-.19.86-.87.83-1.81-.06-3.62-.09-5.43-.2-2.56-.15-3.79,1.38-4.11,3.39-.43,2.77-.4,5.57-.01,8.35.21,1.49.92,2.87,2.5,3.25,1.14.26,2.38.13,3.57.11.1,0,.29-.42.29-.64.03-2.11.01-4.2.01-6.3,0-.93.15-1.08,1.11-1.08h2.02c.68.01.91.23.91.91-.01,1.59-.01,3.14-.01,4.69h0ZM75.3,105.91v5.23c0,.79-.19.98-1.01,1h-1.58c-.47,0-.89-.03-1.05-.59-.03-.08-.43-.15-.58-.06-1.57.82-3.2,1.13-4.96.81-1.81-.34-3.04-1.31-3.44-3.14-.34-1.55-.35-3.1.53-4.51.77-1.22,2.02-1.79,3.38-1.98,1.37-.19,2.77-.24,4.15-.29.56-.03.77-.15.76-.76-.05-2.22-.56-2.76-2.78-2.74-1.45.03-2.91.11-4.35.19-.75.04-.94-.13-.92-.88,0-.35.03-.72,0-1.07-.05-.59.21-.93.78-1.02,2.35-.38,4.72-.67,7.1-.16,2.38.5,3.84,2.13,3.96,4.56.09,1.8.01,3.62.03,5.42-.01,0-.03,0,0,0ZM71.47,106.77s.01,0,0,0c.01-.44,0-.88.01-1.32.01-.34-.13-.53-.47-.52-.95.03-1.9,0-2.83.13-1.16.15-1.73.85-1.81,1.99-.03.29-.03.59,0,.88.08.81.49,1.25,1.3,1.37,1.03.15,2.01-.01,2.97-.39.6-.23.96-.55.83-1.26-.05-.29-.01-.59-.01-.88ZM115.23,97.01c.28-.15.44-.24.6-.33,1.97-1.11,4.09-1.34,6.22-.67,1.73.54,2.43,1.98,2.71,3.64.13.78.18,1.59.18,2.38.02,3.05.01,6.09.01,9.14,0,.74-.23.96-.99.97-.61.01-1.23,0-1.83,0-.82,0-1.01-.19-1.01-1,0-3.05.01-6.09-.01-9.14,0-.63-.07-1.26-.18-1.88-.11-.66-.58-1.01-1.21-1.14-1.43-.28-2.76.11-4.01.76-.19.1-.34.48-.34.72-.03,3.53-.01,7.06-.01,10.58,0,.83-.2,1.06-1.02,1.06-.66,0-1.3.01-1.96,0-.65-.01-.87-.25-.87-.89,0-4.85,0-9.71-.01-14.55,0-.59.25-.87.82-.87.7-.01,1.39.01,2.09-.01.76,0,.78.56.85,1.22ZM103.87,103.94v-7.11c0-.87.15-1.02,1.04-1.02.66,0,1.3-.01,1.96,0,.66.01.85.24.85.89v14.49c0,.69-.23.93-.95.94-.66.01-1.3.01-1.96,0-.73-.01-.92-.21-.92-.94-.02-2.42-.01-4.83-.01-7.25h0ZM105.79,93.55h-1.26c-.49,0-.75-.28-.76-.74-.02-.76-.01-1.5,0-2.26.01-.44.27-.69.72-.69h2.58c.49,0,.72.28.72.76v2.13c0,.54-.28.81-.81.81h-1.19,0Z"/>
      <path class="cls-1" d="M91.84,34.31c.13.9.25,1.8.39,2.7.21,1.42.4,2.85.68,4.25.14.71-.1,1.2-.61,1.59-.6.47-1.23.87-1.86,1.29-.14.09-.34.08-.51.1-.02-.16-.11-.35-.09-.5.52-2.97,1.05-5.94,1.58-8.91.04-.19.13-.37.19-.54.08.01.15.03.21.04Z"/>
    </g>
  </g>
</svg>