<?xml version="1.0" encoding="UTF-8"?>
<svg id="Layer_2" data-name="Layer 2" xmlns="http://www.w3.org/2000/svg" viewBox="0 0 226 74">
  <defs>
    <style>
      .cls-1 {
        fill: #fff;
        stroke-width: 0px;
      }
    </style>
  </defs>
  <g id="Layer_1-2" data-name="Layer 1">
    <g>
      <path class="cls-1" d="M52.22,56.69h11.8v13.81c-1.64,1.2-3.48,2.11-5.43,2.68-1.96.56-3.99.83-6.02.82-2.73,0-5.22-.42-7.46-1.27-2.13-.78-4.08-1.97-5.75-3.5-1.59-1.48-2.85-3.29-3.69-5.3-.88-2.11-1.32-4.37-1.3-6.66-.03-2.3.39-4.58,1.23-6.72.79-1.99,1.99-3.79,3.52-5.29,1.59-1.52,3.47-2.7,5.53-3.46,2.17-.82,4.58-1.23,7.26-1.24,1.31,0,2.61.1,3.9.33,1.15.21,2.27.51,3.36.92.98.37,1.92.83,2.81,1.39.81.51,1.58,1.1,2.28,1.75l-2.24,3.36c-.3.49-.79.84-1.36.97-.56.12-1.15-.01-1.79-.4-.61-.36-1.18-.67-1.72-.93-1.08-.52-2.24-.86-3.43-1-.7-.08-1.4-.12-2.1-.11-1.34-.02-2.66.24-3.9.75-1.13.48-2.13,1.2-2.95,2.12-.84.96-1.48,2.08-1.88,3.3-.46,1.38-.69,2.82-.67,4.28-.02,1.57.23,3.13.74,4.62.44,1.27,1.14,2.43,2.06,3.41.9.93,1.98,1.66,3.19,2.12,1.31.5,2.71.75,4.11.73.85.01,1.69-.08,2.51-.27.75-.18,1.49-.42,2.2-.72v-4.96h-3.28c-.42.03-.82-.11-1.14-.38-.27-.25-.42-.6-.41-.96v-4.18h0ZM98.47,73.64h-5.97c-.67,0-1.21-.15-1.62-.46-.41-.3-.73-.71-.93-1.18l-1.96-5.7h-12.62l-1.96,5.7c-.19.45-.5.84-.9,1.13-.46.35-1.03.52-1.61.5h-6.01l12.85-32.71h7.89l12.84,32.71h0ZM86.23,61.14l-3.08-8.96c-.57-1.48-1.07-2.99-1.5-4.51-.21.85-.46,1.7-.73,2.54-.26.78-.5,1.45-.73,2.02l-3.05,8.91h9.09,0ZM138.4,40.94v32.71h-6.78v-18.81c0-.43,0-.9.03-1.41.02-.51.06-1.02.12-1.55l-8.82,16.81c-.25.49-.63.91-1.11,1.19-.48.27-1.03.41-1.58.4h-1.05c-.55,0-1.1-.13-1.58-.4-.48-.28-.86-.7-1.11-1.19l-8.82-16.86c.04.54.08,1.07.11,1.58s.04.99.04,1.42v18.81h-6.79v-32.7h5.88c.33,0,.63,0,.88.02.23,0,.45.06.67.13.2.08.38.2.54.35.19.2.34.42.47.66l8.54,16.59c.3.57.6,1.16.88,1.77.28.61.55,1.24.81,1.89.26-.66.53-1.3.81-1.93.27-.61.57-1.21.9-1.79l8.52-16.52c.12-.24.28-.46.47-.66.15-.15.33-.27.54-.35.21-.08.44-.12.67-.13.25-.01.54-.02.88-.02h5.88ZM152.57,46.77v7.63h10.43v5.61h-10.43v7.79h13.62v5.84h-21.36v-32.71h21.36v5.84h-13.62ZM189.27,47.58c-.18.31-.43.59-.72.81-.29.19-.62.28-.97.27-.4-.01-.78-.13-1.13-.33-.4-.22-.86-.46-1.37-.73-.56-.29-1.14-.54-1.74-.73-.72-.23-1.48-.34-2.23-.33-1.44,0-2.52.3-3.22.91-.71.61-1.06,1.43-1.06,2.46-.02.61.21,1.2.64,1.64.48.47,1.05.85,1.67,1.12.77.34,1.56.63,2.37.86.91.27,1.82.56,2.72.88.93.32,1.84.7,2.72,1.13.87.42,1.67.99,2.37,1.66.71.7,1.28,1.54,1.67,2.46.43.96.64,2.13.64,3.49.01,1.46-.26,2.9-.79,4.25-.52,1.3-1.31,2.47-2.31,3.45-1.07,1.02-2.35,1.8-3.74,2.31-1.48.56-3.16.84-5.05.84-1.06,0-2.12-.11-3.16-.31-1.06-.21-2.1-.5-3.11-.89-.98-.37-1.92-.82-2.82-1.36-.83-.49-1.61-1.08-2.3-1.75l2.28-3.55c.19-.26.44-.48.72-.64.29-.17.63-.26.97-.26.49.01.97.16,1.38.43.46.28.99.6,1.57.94.64.37,1.32.69,2.02.94.86.3,1.77.45,2.69.43,1.4,0,2.48-.3,3.26-.91.78-.61,1.17-1.57,1.17-2.88,0-.76-.21-1.39-.64-1.86-.47-.51-1.04-.91-1.67-1.19-.76-.34-1.55-.61-2.36-.82-.91-.25-1.81-.51-2.71-.8-.93-.29-1.83-.65-2.71-1.08-.88-.42-1.67-.99-2.36-1.68-.73-.75-1.29-1.63-1.67-2.6-.43-1.04-.64-2.32-.64-3.85,0-1.24.26-2.46.75-3.59.51-1.18,1.26-2.25,2.2-3.12,1.04-.95,2.25-1.7,3.58-2.19,1.41-.55,3.03-.83,4.85-.83,1,0,1.99.08,2.97.24.93.15,1.85.38,2.75.7.84.29,1.65.66,2.43,1.1.72.41,1.4.89,2.02,1.45l-1.91,3.53h0ZM12.21.36c2.29,0,4.24.21,5.85.63,1.61.42,2.92,1.01,3.94,1.77.98.71,1.74,1.67,2.22,2.78.48,1.16.71,2.4.69,3.66,0,.72-.1,1.44-.32,2.12-.22.69-.56,1.34-1,1.91-.5.63-1.09,1.18-1.75,1.63-.8.54-1.66.97-2.58,1.28,2.19.53,3.8,1.37,4.85,2.54,1.05,1.17,1.57,2.68,1.57,4.53.01,1.34-.27,2.66-.82,3.88-.56,1.21-1.38,2.28-2.4,3.13-1.15.94-2.48,1.65-3.9,2.09-1.55.5-3.32.75-5.31.75H0V.36h12.21ZM7.69,6.04v8.08h4.01c.77,0,1.54-.06,2.3-.18.62-.1,1.21-.31,1.74-.63.48-.3.86-.73,1.09-1.23.27-.62.4-1.3.37-1.98.02-.66-.08-1.32-.3-1.94-.18-.49-.5-.91-.91-1.23-.46-.34-1-.57-1.56-.67-.74-.15-1.49-.22-2.25-.21h-4.52ZM13.12,27.34c1.02,0,1.85-.13,2.49-.38.58-.21,1.09-.55,1.52-.99.36-.39.61-.86.75-1.37.14-.51.2-1.03.2-1.55,0-.55-.07-1.09-.24-1.62-.16-.47-.44-.89-.82-1.21-.45-.36-.98-.62-1.54-.76-.79-.2-1.6-.29-2.41-.27h-5.38v8.15h5.43ZM142.03.36v32.71h-6.79V14.25c0-.43.01-.9.04-1.41.02-.52.06-1.04.12-1.55l-8.82,16.81c-.25.49-.63.91-1.1,1.19-.48.27-1.03.41-1.58.4h-1.05c-.55,0-1.1-.13-1.58-.4-.47-.28-.86-.7-1.11-1.19l-8.82-16.85c.05.54.08,1.07.11,1.58.03.52.04.99.04,1.42v18.81h-6.79V.36h5.88c.33,0,.63,0,.88.02.23.01.45.06.67.14.2.08.38.2.54.35.19.2.34.42.47.66l8.54,16.59c.3.57.6,1.16.88,1.77s.55,1.24.81,1.88c.26-.66.53-1.3.81-1.93.28-.63.58-1.23.9-1.8l8.52-16.52c.12-.24.28-.46.47-.66.15-.15.33-.27.54-.35.21-.08.44-.12.67-.14.25-.01.54-.02.88-.02h5.88s0,0,0,0ZM156.2,33.07h-7.75V.36h7.75v32.71h0ZM191.6.36v32.71h-4.01c-.51.02-1.02-.08-1.49-.28-.46-.24-.87-.57-1.2-.98l-15.65-19.51c.06.58.1,1.15.13,1.69.02.55.03,1.06.03,1.54v17.53h-6.78V.36h4.06c.28,0,.56.01.84.05.21.02.42.08.62.17.19.09.37.2.52.35.2.19.39.39.57.61l15.79,19.64c-.07-.61-.13-1.22-.17-1.83-.03-.56-.05-1.11-.05-1.67V.36h6.8ZM213.97,16.12h11.8v13.81c-1.64,1.2-3.48,2.1-5.43,2.67-1.96.56-3.98.83-6.02.82-2.73,0-5.22-.42-7.46-1.27-2.13-.78-4.08-1.97-5.75-3.5-1.59-1.48-2.85-3.29-3.69-5.3-.88-2.11-1.32-4.37-1.3-6.66-.03-2.3.39-4.58,1.22-6.72.78-1.99,1.98-3.79,3.51-5.29,1.59-1.52,3.47-2.7,5.54-3.46C208.56.41,210.98,0,213.65,0c1.31,0,2.61.11,3.9.34,1.15.2,2.27.51,3.36.92.98.37,1.93.83,2.81,1.39.81.51,1.58,1.1,2.28,1.75l-2.23,3.35c-.15.24-.35.45-.58.62-.23.17-.5.28-.78.35-.56.12-1.15-.01-1.79-.4-.61-.36-1.18-.67-1.72-.93-.53-.26-1.09-.47-1.65-.64-.58-.17-1.18-.29-1.78-.36-.7-.08-1.4-.12-2.1-.11-1.34-.02-2.66.24-3.9.75-1.13.48-2.13,1.21-2.94,2.12-.84.96-1.48,2.08-1.88,3.29-.46,1.38-.68,2.83-.67,4.28-.03,1.57.22,3.14.73,4.62.44,1.27,1.14,2.43,2.06,3.41.9.93,1.98,1.65,3.19,2.11,1.31.5,2.71.75,4.11.73.85,0,1.69-.08,2.52-.27.75-.18,1.49-.42,2.2-.72v-4.96h-3.28c-.41.02-.82-.11-1.14-.38-.27-.25-.42-.6-.41-.96v-4.18h0ZM93.44,18.32c-.46,2.43-1.76,4.61-3.67,6.18-1.93,1.58-4.34,2.43-6.83,2.43h-.24c-.76-.02-1.56,0-3.56-.84-2-.83-2.42-1.34-3.88-2.45-.84-.64-2.05-1.87-3.22-2.91-1.17,1.26-3.84,4.15-4.06,4.38,1.02,1.09,3.52,3.23,4.52,3.98l-.15-.13c2.26,1.86,4.97,3.09,7.86,3.56.82.14,1.66.21,2.5.21.75,0,1.51-.04,2.26-.12,3.24-.39,6.29-1.71,8.78-3.81,2.47-2.08,4.27-4.86,5.17-7.96l-5.46-2.52h0Z"/>
      <path class="cls-1" d="M74.88,9.5c1.83-2.07,4.39-3.35,7.14-3.58,2.76-.24,5.5.6,7.66,2.32l-2.56,1.78,11.72,5.3-1.2-12.65-3.03,2.12c-1.64-1.6-3.59-2.85-5.74-3.66-4.35-1.64-9.19-1.41-13.36.65-2.05,1.01-3.87,2.44-5.34,4.2h0c-.12.16-9.31,11.22-13.08,14.87-.21.2-.43.38-.63.56l-.11.1c-.27.23-.54.46-.81.67l-.17.14c-.25.2-.49.39-.73.58l-.19.14c-.17.13-.33.25-.49.37l-.19.14c-.27.2-.55.39-.83.58l-.19.12c-.21.14-.41.27-.61.39l-.17.1c-.18.11-.35.22-.52.31l-.19.11c-.17.09-.32.18-.47.26-.88.49-1.82.89-2.78,1.2-.78.24-1.37.35-2.6.34-2.72-.12-5.29-1.27-7.19-3.21-1.89-1.92-2.96-4.5-2.99-7.2-.02-2.7,1-5.3,2.85-7.26,1.87-1.98,4.41-3.17,7.13-3.35,3.36-.22,6.33,1.21,8.53,3.32.37.35,3.37,3.52,3.99,4.3,1.14-1.2,3.86-4.36,3.95-4.48-.54-.69-2.79-3.03-2.95-3.21C55.52,2.37,50.9.06,45.7.12c-8.65.11-15.87,6.92-16.34,15.43-.24,4.31,1.25,8.54,4.14,11.74,2.91,3.24,6.97,5.21,11.32,5.49.83.04,1.67.04,2.5-.02.68-.08,1.36-.21,2.03-.38.66-.17,1.29-.41,1.9-.71l.16-.07c.19-.08.39-.16.58-.26l.27-.12c.21-.1.42-.21.64-.31l.24-.12c.63-.33,1.25-.68,1.86-1.06l.27-.16c.24-.15.48-.31.72-.47l.33-.22c.24-.17.49-.33.73-.51l.31-.22c.25-.18.5-.37.76-.57l.19-.14.12-.1c.37-.29.74-.59,1.12-.9l.27-.22c.29-.24.59-.49.89-.76.12-.11.25-.22.38-.33l.17-.15c.22-.2.44-.4.66-.6.13-.12,3.48-3.35,5.74-6.04s4.72-5.92,7.23-8.83h0Z"/>
    </g>
  </g>
</svg>