<?xml version="1.0" encoding="UTF-8"?>
<svg id="Layer_2" data-name="Layer 2" xmlns="http://www.w3.org/2000/svg" viewBox="0 0 243.97 42.86">
  <defs>
    <style>
      .cls-1 {
        fill: #fff;
        stroke-width: 0px;
      }
    </style>
  </defs>
  <g id="Layer_1-2" data-name="Layer 1">
    <g>
      <path class="cls-1" d="M160.14,37.65c-.55-.23-1.15-.35-1.6-.78-.43-.41-.45-.89-.09-1.37.38-.5.93-.6,1.48-.55.48.04.9.28,1.15.73.09.16.17.32.38.28.27-.05.55-.1.75-.31.07-.07.07-.18.03-.24-.27-.51-.55-.91-1.09-1.18-.52-.26-1.18-.42-1.77-.35-1.11.12-2.05.65-2.29,1.74-.18.79-.1,1.55.61,2.15.54.45,1.16.71,1.8.92.59.2,1.17.4,1.61.88.36.4.42,1.04.14,1.47-.38.58-1.24.85-1.93.67-.62-.16-1.01-.56-1.3-1.07-.34-.6-.41-.63-1-.29-.11.06-.21.15-.32.23-.05.04.29.69.33.76.43.75,1.15,1.26,1.99,1.44.87.19,1.82.05,2.56-.4.58-.36.94-1.12,1.01-1.78.08-.7-.13-1.42-.62-1.93-.51-.54-1.18-.74-1.83-1.01Z"/>
      <path class="cls-1" d="M129.48,40.75c-1.27-1.35-1.23-3.59.12-4.92.67-.65,1.49-.92,2.39-.89.89.03,1.69.36,2.27,1.13.28-.28.54-.54.81-.81-.48-.52-.99-.91-1.66-1.14-.66-.22-1.38-.3-2.08-.22-1.22.14-2.3.75-3.04,1.73-.42.56-.71,1.2-.82,1.89-.26,1.65.35,3.42,1.69,4.44.52.4,1.12.66,1.75.8,1.04.22,2.16.07,3.12-.44.12-.06,1.28-.85,1.21-.92-.29-.3-.55-.58-.81-.85-1.57,1.78-3.8,1.44-4.97.19Z"/>
      <path class="cls-1" d="M26.54,2.15C26.41.95,25.81,0,24.32,0,16.51.01,8.7,0,.9,0h-.9c.09.07.12.11.16.12.92.18,1.84.34,2.76.54.54.12,1.08.26,1.62.35,1.03.18,2.06.39,3.08.6,1.12.23,2.25.48,3.38.69,1.46.28,2.93.59,4.4.85,1.19.21,2.38.47,3.56.76.4.1.82.17,1.16.48.54.48.72,1.07.72,1.78,0,11.77,0,23.53,0,35.3,0,.24,0,.48,0,.71,0,.39.01.4.39.4,1.19,0,2.39-.03,3.58.01.68.03,1.51-.81,1.63-1.41.09-.49.13-.97.13-1.47,0-12.39,0-24.79,0-37.18,0-.13.01-.26,0-.39Z"/>
      <path class="cls-1" d="M223.92,10.08c-1.93-2.1-5.12-2.46-7.68-1.39-1.8.76-2.87,2.14-3.98,3.67-.4-.92-.74-1.71-1.47-2.43-.65-.65-1.45-1.16-2.32-1.47-3.05-1.08-6.44.43-8.1,3.09-.13.21-.21.47-.44.61-.09-.11-.06-.22-.06-.32,0-.89-.01-1.77,0-2.66,0-.27-.07-.39-.36-.38-.45.02-.91,0-1.37,0-.84,0-.73-.1-.73.72,0,5.84,0,11.68,0,17.52,0,.15,0,.3,0,.45,0,.19.08.27.27.27.67,0,1.34,0,2.02,0,.21,0,.33-.06.31-.3-.01-.15,0-.3,0-.45,0-3.24,0-6.49,0-9.73,0-1.76.73-3.68,1.9-5,1.25-1.42,3.2-2.18,5.07-1.76.63.14,1.25.4,1.74.82,1.27,1.09,1.59,3.06,1.59,4.65-.01,3.68,0,7.35,0,11.03,0,.15.01.3,0,.45-.02.23.09.3.3.3.54,0,1.08,0,1.63,0,.78,0,.66.05.66-.65,0-3.35,0-6.7,0-10.06,0-.47.02-.94.13-1.4.35-1.44.92-2.74,2.05-3.77,1.69-1.54,4.48-2.15,6.4-.62,1.37,1.09,1.67,3.07,1.68,4.71.03,3.68.01,7.35.01,11.03,0,.15,0,.3,0,.45-.01.21.06.31.29.31.63,0,1.26,0,1.89,0,.22,0,.33-.07.3-.3,0-.09,0-.17,0-.26,0-4,0-8,0-12,0-1.84-.44-3.75-1.71-5.14Z"/>
      <path class="cls-1" d="M57.66,22.78c-1.07-.55-2.23-.87-3.29-1.44-.22-.12-.4-.04-.47.18-.13.43-.42.74-.71,1.05-1.6,1.78-4.23,2.33-6.39,1.22-1.88-.97-3.09-3.03-3.18-5.14-.13-2.96,1.81-6.07,4.91-6.45,2.15-.27,4.13.84,5.13,2.71.14.26.25.3.55.19,1.14-.41,2.21-.97,3.36-1.37.22-.08.3-.29.14-.47-.16-.17-.17-.39-.28-.57-1.85-3.03-5.39-4.83-8.97-4.58-1.51.11-2.98.57-4.28,1.35-3.09,1.87-4.79,5.24-4.89,8.65-.07,2.6.8,5.23,2.71,7.23,1.82,1.91,4.42,3.05,7.06,3.09,3.77.05,6.87-2,8.76-5.16.15-.25.09-.36-.16-.49Z"/>
      <path class="cls-1" d="M72.37,12.73c.15,0,.22-.07.25-.23.21-1.06.61-2.08.95-3.1.52-1.56-3.28-1.15-4.02-.97-1.62.4-3.1,1.39-3.95,2.84-.09.15-.17.29-.37.36-.01-.09-.03-.17-.03-.25,0-.71,0-1.43,0-2.14,0-.41-.01-.42-.44-.42-1.02,0-2.04,0-3.06,0-.74,0-.65-.06-.65.66,0,5.17,0,10.34,0,15.5,0,.78,0,1.56,0,2.34,0,.44,0,.45.47.45,1.11,0,2.21,0,3.32,0,.54,0,.51.03.51-.54,0-1.84-.02-3.68,0-5.51.02-1.46-.08-2.92.09-4.39.2-1.7.98-3.35,2.49-4.26,1.15-.69,2.86-.97,4.11-.38.09.04.21.03.32.03Z"/>
      <path class="cls-1" d="M243.96,25.82c0-.24-.12-.36-.36-.36-.15,0-.3,0-.46,0-3.38,0-6.77,0-10.15,0-.23,0-.47.04-.73-.05.76-1.12,1.65-2.1,2.46-3.14.75-.97,1.54-1.9,2.3-2.86.86-1.09,1.69-2.19,2.55-3.27,1.12-1.4,2.27-2.79,3.39-4.19.87-1.1.86-1.1.85-2.56,0-.06,0-.13,0-.19.03-.28-.09-.4-.37-.37-.09,0-.17,0-.26,0-4.4,0-8.8,0-13.21,0-.13,0-.26,0-.39,0-.12,0-.2.06-.2.19,0,.61,0,1.21,0,1.82,0,.13.07.2.2.2.15,0,.3,0,.46,0,3.27,0,6.55,0,9.82,0h.66c-.05.35-.27.57-.45.79-1.52,1.91-3.05,3.8-4.57,5.71-1,1.25-1.98,2.52-2.97,3.78-.89,1.12-1.75,2.28-2.71,3.34-.68.75-.91,1.54-.82,2.51.06.61-.11.61.58.61.02,0,.04,0,.07,0,4.55,0,9.11,0,13.66,0,.13,0,.26,0,.39,0,.2,0,.26-.09.26-.28,0-.56,0-1.12,0-1.69Z"/>
      <path class="cls-1" d="M148.14,8.38c-2,.5-3.44,1.77-4.33,3.78-.01-.24-.02-.34-.02-.45,0-.84-.01-1.69,0-2.53,0-.29-.1-.38-.38-.37-.43.02-.87,0-1.3,0-.74,0-.67-.08-.67.64,0,.04,0,.09,0,.13,0,5.83,0,11.67,0,17.5,0,.13,0,.26,0,.39-.02.23.09.3.31.3.61,0,1.21-.02,1.82,0,.29.01.39-.1.36-.37-.01-.13,0-.26,0-.39,0-3.26.01-6.53,0-9.79,0-1.02.17-2,.54-2.94.64-1.64,1.91-3.06,3.66-3.5,1-.25,2.08-.15,3.03.25.4-.74.53-1.54.85-2.29-1.27-.63-2.58-.69-3.85-.37Z"/>
      <path class="cls-1" d="M186.07,34.22c0-.13-.06-.2-.19-.2-.13,0-.26,0-.39,0-.55,0-.57.03-.58.6,0,.97-.02,1.95,0,2.92.02.77,0,2.57,0,3.04-.34-.51-.64-.95-.92-1.4-.94-1.5-1.9-3-2.8-4.52-.3-.51-.63-.71-1.22-.64-.56.06-.54-.03-.54.6,0,2.42,0,4.84,0,7.26,0,.8-.17.71.78.73.26,0,.39-.06.39-.36-.01-1.86-.01-3.72,0-5.58,0-.26,0-.38,0-.75.07.07,1.53,2.34,2.22,3.44.62.99,1.25,1.99,1.88,2.98.08.12.11.28.32.27.28-.02.56,0,.84,0,.13,0,.2-.07.2-.19,0-.13,0-.26,0-.39,0-2.46,0-4.93,0-7.39,0-.13,0-.26,0-.39Z"/>
      <path class="cls-1" d="M107.79,35.17c1.02,0,2.04,0,3.06,0,.15,0,.3.04.43-.09.1-.1.16-.69.08-.87-.1-.23-.31-.2-.5-.2-1.37,0-2.73,0-4.1,0-.52,0-.56.03-.56.54,0,1.25,0,2.51,0,3.76,0,1.25,0,2.51,0,3.76,0,.44-.09.51.49.51,1.41,0,2.82,0,4.23,0,.09,0,.17,0,.26,0,.12,0,.2-.06.2-.2,0-.17,0-.35,0-.52,0-.2-.12-.32-.32-.32-.15,0-.3,0-.46,0-.95,0-1.91,0-2.86,0-.27,0-.39-.07-.38-.36.02-.63.02-1.25,0-1.88,0-.28.08-.38.37-.38.91.01,1.82,0,2.73,0,.41,0,.41-.01.43-.44,0-.06,0-.13,0-.19,0-.51,0-.52-.54-.52-.85,0-1.69,0-2.54,0-.43,0-.44-.01-.44-.42,0-.58,0-1.17,0-1.75,0-.42,0-.43.42-.43Z"/>
      <path class="cls-1" d="M98.52,34.02c-.15,0-.3,0-.45,0-.28-.02-.4.1-.49.38-.18.54-.35,1.09-.54,1.63-.44,1.2-.84,2.41-1.29,3.6-.14.37-.3.92-.49.92s-.24-.33-.33-.57c-.64-1.71-1.21-3.45-1.76-5.19-.24-.77-.24-.78-1.05-.77-.15,0-.3-.04-.52.1.24.35.29.73.42,1.09.48,1.3.95,2.6,1.41,3.9.33.92.62,1.86.96,2.77.28.74.3.71,1.09.72.33,0,.46-.14.56-.4.37-1.04.74-2.09,1.11-3.13.4-1.09.79-2.19,1.2-3.28.16-.44.35-.87.51-1.31.14-.36.07-.45-.33-.46Z"/>
      <path class="cls-1" d="M75.21,41.54c-.87,0-1.73,0-2.6,0-.38,0-.38-.01-.39-.4,0-.13,0-.26,0-.39,0-1.99,0-3.97,0-5.96,0-.15,0-.3,0-.45,0-.2-.11-.32-.32-.33-.13,0-.26,0-.39,0-.44,0-.45,0-.45.47,0,1.27,0,2.55,0,3.82,0,1.29,0,2.59,0,3.88,0,.24,0,.41.33.4,1.38-.01,2.77,0,4.15,0,.25,0,.34-.08.34-.34-.01-.87.04-.7-.67-.71Z"/>
      <path class="cls-1" d="M13.98,20.24c-.81,0-1.11.23-1.5.95-.38.71-.25,1.39.09,2.01.49.89,1.49,1.05,2.19.56.63-.45.94-1.11.85-1.89-.1-.89-.76-1.71-1.64-1.63Z"/>
      <path class="cls-1" d="M83.74,34.01s-.09,0-.13,0c-.21.01-.31.13-.32.33,0,.15,0,.3,0,.45,0,2.37,0,4.75,0,7.12,0,.72-.13.67.71.67.02,0,.04,0,.06,0,.38-.02.39-.02.39-.41,0-1.27,0-2.55,0-3.82,0-1.23,0-2.46,0-3.69,0-.71.14-.66-.72-.66Z"/>
      <path class="cls-1" d="M171.02,34.01c-.09.01-.17,0-.26,0-.42,0-.51.09-.55.52,0,.11,0,.22,0,.32,0,2.35,0,4.71,0,7.06,0,.7-.11.66.65.66.58,0,.51-.03.51-.55,0-1.23,0-2.46,0-3.69,0-1.32,0-2.64,0-3.95,0-.26-.06-.42-.35-.38Z"/>
      <path class="cls-1" d="M200.86,34.87c-.93-.76-2.18-1.13-3.37-.99-1.43.16-2.7,1.01-3.4,2.27-1.01,1.81-.54,4.18.95,5.58.87.81,2.12,1.22,3.3,1.12,1.4-.11,2.68-.91,3.41-2.1.64-1.03.82-2.3.56-3.47-.21-.93-.69-1.79-1.45-2.41ZM201.2,38.97c-.04.23-.1.46-.19.69-.28.71-.79,1.34-1.46,1.71-1.97,1.1-4.4-.25-4.76-2.39-.21-1.22.09-2.28.97-3.15,1.24-1.22,3.28-1.22,4.5.03.81.83,1.14,1.99.94,3.1Z"/>
      <path class="cls-1" d="M136.61,0c-1.24,0-2.47,0-3.71,0-.21,0-.33.05-.31.29.01.15,0,.3,0,.45,0,2.49,0,4.97,0,7.46,0,.92,0,1.85,0,2.78-.16-.02-.23-.11-.3-.19-1.91-2.68-5.96-3.17-8.86-2.1-4.34,1.59-6.55,6.42-6.06,10.83.13,1.13.42,2.25.89,3.29,1.06,2.34,3.04,4.27,5.47,5.11,3.25,1.12,6.82.14,8.92-2.58.23.13.19.32.19.49,0,.52,0,1.04,0,1.56,0,.38.01.38.41.39.98,0,1.95,0,2.93,0q.71,0,.71-.73c0-8.78,0-17.56,0-26.34,0-.13,0-.26,0-.39.01-.2-.04-.32-.28-.32ZM132.77,19.04c-.14,1.02-.41,1.96-.95,2.82-.83,1.34-2.06,2.12-3.6,2.41-3.97.75-7.13-3.21-6.48-6.96.34-1.98,1.35-3.77,3.23-4.64,2.08-.96,4.6-.46,6.18,1.17.79.82,1.32,1.83,1.51,2.92.13.73.21,1.5.1,2.29Z"/>
      <path class="cls-1" d="M93.66,23.22c-1.16-.57-2.3-1.13-3.43-1.7-.21-.11-.32-.07-.42.11-1.19,2.01-3.53,3.22-5.87,2.82-2.62-.45-4.36-2.67-4.66-5.22h.69c4.4,0,8.8,0,13.2,0,.15,0,.3,0,.46,0,.21.01.31-.05.32-.29.04-1.41-.08-2.88-.46-4.26-.38-1.37-1.01-2.66-1.98-3.74-1.06-1.18-2.48-2-4.01-2.43-4.11-1.16-8.47.35-10.87,3.91-2.49,3.69-2.31,8.98.55,12.4,1.35,1.62,3.21,2.83,5.26,3.35,4.34,1.09,9.13-.98,11.22-4.94ZM79.66,15.46c.89-2.28,2.98-3.85,5.51-3.6,1.91.19,4.24,1.69,4.35,3.75,0,.14.06.25-.22.25-2.73,0-6.82,0-9.55,0-.15,0-.2-.13-.09-.39Z"/>
      <path class="cls-1" d="M112.74,10.93c-1.06-1.18-2.48-2-4.01-2.43-4.11-1.16-8.47.35-10.87,3.91-2.49,3.69-2.31,8.98.55,12.4,1.35,1.62,3.21,2.83,5.26,3.35,4.34,1.09,9.13-.98,11.22-4.94-1.16-.57-2.3-1.13-3.43-1.7-.21-.11-.32-.07-.42.11-1.19,2.01-3.53,3.22-5.87,2.82-2.62-.45-4.36-2.67-4.66-5.22h.69c4.4,0,8.8,0,13.2,0,.15,0,.3,0,.46,0,.21.01.31-.05.32-.29.04-1.41-.08-2.88-.46-4.26-.38-1.37-1.01-2.66-1.98-3.74ZM110.52,15.85c-2.73,0-6.82,0-9.55,0-.15,0-.2-.13-.09-.39.89-2.28,2.98-3.85,5.51-3.6,1.91.19,4.24,1.69,4.35,3.75,0,.14.06.25-.22.25Z"/>
      <path class="cls-1" d="M170.83,12.39c-1.47-2.35-4.04-3.85-6.76-4.18-4.58-.56-8.81,2.21-10.26,6.55-.27.81-.44,1.66-.52,2.51-.31,3.41.98,6.95,3.66,9.13,3.37,2.74,8.72,2.68,12.03-.14.13-.11.26-.23.39-.35,1.64-1.57,2.68-3.71,3.03-5.95.2-1.26.17-2.54-.07-3.79-.26-1.33-.76-2.62-1.49-3.78ZM169.34,21.51c-.15.39-.34.76-.55,1.12-.67,1.12-1.61,2.06-2.77,2.67-2.36,1.24-5.26,1.02-7.35-.65-2.94-2.34-3.67-6.79-2.06-10.12,1.81-3.74,6.44-5.31,9.97-2.93,3.16,2.13,4.12,6.45,2.76,9.91Z"/>
      <path class="cls-1" d="M193.82,16.17c-.26-1.33-.76-2.62-1.49-3.78-1.47-2.35-4.04-3.85-6.76-4.18-4.58-.56-8.81,2.21-10.26,6.55-.27.81-.44,1.66-.52,2.51-.31,3.41.98,6.95,3.66,9.13,3.37,2.74,8.72,2.68,12.03-.14.13-.11.26-.23.39-.35,1.64-1.57,2.68-3.71,3.03-5.95.2-1.26.17-2.54-.07-3.79ZM190.84,21.51c-.15.39-.34.76-.55,1.12-.67,1.12-1.61,2.06-2.77,2.67-2.36,1.24-5.26,1.02-7.35-.65-2.94-2.34-3.67-6.79-2.06-10.12,1.81-3.74,6.44-5.31,9.97-2.93,3.16,2.13,4.12,6.45,2.76,9.91Z"/>
      <path class="cls-1" d="M149.39,41.16c-.8-2.15-1.59-4.3-2.4-6.45-.26-.71-.28-.7-1.04-.69-.48,0-.56.05-.72.48-.27.74-.53,1.48-.81,2.22-.49,1.31-1,2.62-1.49,3.93-.24.63-.45,1.26-.69,1.95.27,0,.48,0,.7,0,.55,0,.54,0,.72-.5.16-.46.36-.91.5-1.38.08-.26.21-.35.46-.34.95,0,1.91,0,2.86,0,.25,0,.38.08.5.31.2.38.39,1.24.52,1.64.08.26.07.3.36.3.27,0,.48-.02.76-.03.28,0,.34-.1.23-.37-.14-.36-.32-.7-.45-1.06ZM144.71,39.18c.44-1.21.87-2.39,1.31-3.57.04,0,.09-.01.13-.02.43,1.18.85,2.36,1.3,3.59h-2.74Z"/>
    </g>
  </g>
</svg>