<?xml version="1.0" encoding="UTF-8"?>
<svg id="Layer_2" data-name="Layer 2" xmlns="http://www.w3.org/2000/svg" viewBox="0 0 192 118.03">
  <defs>
    <style>
      .cls-1 {
        fill: #fff;
        stroke-width: 0px;
      }
    </style>
  </defs>
  <g id="Layer_1-2" data-name="Layer 1">
    <g>
      <path class="cls-1" d="M9.1,97.45c-1.95-1.45-3.22-2.41-3.77-2.88-.4-.38-.77-.78-1.12-1.2-.44-.57-.66-1.27-.62-1.99-.04-.93.31-1.84.96-2.5.69-.65,1.62-.99,2.57-.94,2.33,0,3.7,1.39,4.13,4.17h.85v-4.17c.02-.14-.03-.28-.13-.39-.45-.5-1.96-.74-4.52-.74-1.72-.05-3.41.42-4.85,1.36-1.46.93-2.32,2.56-2.27,4.29-.03,1,.27,1.99.86,2.79.91,1.08,1.98,2.03,3.17,2.79,2.42,1.69,4.01,2.99,4.79,3.91.76.85,1.17,1.96,1.17,3.1.03,1.14-.42,2.24-1.24,3.02-.83.81-1.96,1.24-3.12,1.2-1.67.07-3.26-.75-4.17-2.15-.5-.92-.82-1.93-.94-2.97H0v4.58c-.03.28.11.55.36.68.75.31,1.53.52,2.33.63.99.19,2,.3,3.01.31,2.39,0,4.31-.58,5.78-1.75,1.43-1.09,2.25-2.81,2.2-4.61.02-1.14-.33-2.25-.98-3.18-1.06-1.27-2.27-2.4-3.62-3.35h0ZM26.06,93.27c-2.18-.05-4.26.93-5.6,2.66v-2.66c-1.71.88-3.61,1.34-5.53,1.36v.81h.77c.5-.04,1.01.06,1.46.29.32.35.47.83.4,1.3v16.89c0,1.41-.12,2.24-.36,2.55-.24.31-.99.53-2.24.7v.84h8.85v-.84c-1.64-.15-2.61-.38-2.9-.64-.29-.27-.45-1.16-.45-2.61v-4.36c1.17.48,2.42.73,3.68.74,2.34.06,4.59-.9,6.17-2.63,1.66-1.83,2.53-4.24,2.44-6.71,0-2.34-.61-4.2-1.82-5.59-1.22-1.4-3.01-2.18-4.86-2.1ZM28.09,107.24c-.88,1.29-2.36,2.04-3.92,1.98-1.38-.03-2.69-.57-3.68-1.53v-5.74c-.04-1.27.05-2.53.27-3.78.5-2.24,1.79-3.35,3.87-3.35,1.43-.05,2.78.63,3.6,1.8.88,1.2,1.32,2.86,1.32,4.96-.02,2.43-.5,4.31-1.45,5.64,0,0,0,.02,0,.02ZM47.65,108.1c-.39.03-.75-.2-.9-.56-.19-.61-.26-1.26-.22-1.9v-7.18c0-1.82-.43-3.15-1.3-3.96-.88-.82-2.24-1.23-4.17-1.23-1.43-.02-2.85.26-4.17.84-.42.15-.74.49-.86.92l-.49,1.83c-.04.16.04.26.26.32l1.01.26c.09.02.18.04.27.04.17,0,.4-.26.68-.78.85-1.58,1.85-2.37,3.03-2.37,1.83,0,2.77,1.58,2.8,4.73l-3.54,1.36c-1.08.38-2.13.84-3.13,1.39-1.53.77-2.49,2.34-2.47,4.05-.05,1.17.37,2.31,1.17,3.16.8.83,1.92,1.28,3.07,1.24.86-.06,1.69-.37,2.37-.9l2.5-1.68c.05.91.32,1.79.79,2.57l4.63-1.46-.2-.89c-.36.13-.74.2-1.12.22ZM43.58,102.85c0,3.6-1.18,5.4-3.54,5.4-.72.02-1.42-.26-1.92-.78-.49-.54-.76-1.25-.73-1.98,0-1.79,1.11-3.15,3.32-4.07.74-.31,1.68-.67,2.89-1.12l-.03,2.56h0ZM66.54,108.1c-.78,0-1.17-.82-1.17-2.44v-19.71c-1.77.65-3.65.98-5.54.97v.87h.88c.46-.04.93.06,1.33.3.26.2.39.72.39,1.57v4.12c-1.14-.36-2.34-.53-3.54-.52-2.61,0-4.73.79-6.33,2.38-1.64,1.64-2.52,3.89-2.43,6.21-.07,2.18.68,4.32,2.1,5.97,1.26,1.55,3.16,2.44,5.16,2.42,1.02-.08,2.01-.42,2.86-1l2.18-1.28v.22c.02.74.27,1.46.72,2.06l4.69-1.46-.22-.91c-.35.12-.71.2-1.08.22ZM62.43,104.31c0,1.3-.18,2.16-.56,2.58-.43.45-.93.82-1.49,1.08-.58.3-1.23.47-1.89.49-1.68,0-2.98-.88-3.92-2.63-.81-1.5-1.23-3.18-1.21-4.89-.05-1.59.38-3.16,1.24-4.5.87-1.3,2.32-2.09,3.89-2.12,1.56-.03,3.04.72,3.96,1.99l-.03,8ZM82.27,97.42c-.85-2.79-2.76-4.15-5.74-4.15-2.04-.08-4.01.75-5.37,2.27-1.46,1.63-2.24,3.76-2.18,5.94-.04,2.31.76,4.56,2.24,6.33,1.37,1.65,3.49,2.47,6.35,2.47h.85l4.23-2.01-.49-.98c-1.16.65-2.45,1.04-3.78,1.12-1.06.03-2.11-.23-3.03-.75-2.08-1.16-3.14-3.41-3.19-6.75h10.46c.05-1.17-.06-2.35-.35-3.48h0ZM77.74,99.73h-5.61c.05-.75.17-1.5.36-2.24.63-2.1,1.9-3.15,3.81-3.15.93-.03,1.84.33,2.51.99.66.66,1.03,1.56,1.01,2.49,0,1.28-.69,1.91-2.08,1.91ZM100.44,93.67l-.36-.4c-1.53.33-3.1.49-4.66.48h-.83c-.93-.31-1.9-.46-2.88-.45-1.7-.07-3.37.46-4.72,1.5-1.2.97-1.87,2.45-1.82,3.99,0,2.34,1.24,4.06,3.71,5.16l-3.11,2.54v.28c-.02.1-.04.19-.04.29,0,.98.7,1.63,2.12,1.96l-3.42,1.84c-.27.16-.4.56-.4,1.17-.04,1.2.33,2.38,1.04,3.35.71.87,1.64,1.53,2.68,1.93,1.22.49,2.52.74,3.83.73,1.84.08,3.66-.44,5.18-1.48,1.72-1.25,2.58-2.79,2.58-4.62.07-1.71-.97-3.27-2.58-3.87-1.16-.44-2.38-.74-3.61-.87-1.18-.13-2.35-.37-3.48-.71-.44-.17-.65-.43-.65-.77s.3-.83.91-1.3h1.28c1.66.06,3.28-.51,4.54-1.59,1.18-.97,1.86-2.43,1.84-3.96.03-1.39-.47-2.74-1.41-3.78h3.36l.9-1.39h0ZM89.3,109.24l3.19.56c.67.11,1.33.26,1.98.45,1.52.46,2.28,1.42,2.28,2.87.01,1.09-.51,2.11-1.39,2.75-2.21,1.46-5.08,1.42-7.25-.09-.93-.7-1.47-1.79-1.45-2.95-.02-.66.18-1.32.56-1.86.59-.68,1.3-1.27,2.08-1.73h0ZM91.78,103.46c-.5,0-1-.15-1.43-.41-.43-.26-.79-.63-1.03-1.07-.68-1.12-1.02-2.41-.96-3.72-.06-1.08.24-2.16.85-3.05.55-.73,1.43-1.15,2.34-1.12.92,0,1.77.51,2.2,1.33.59,1.14.87,2.42.8,3.71,0,2.89-.92,4.33-2.77,4.33ZM113.66,108.1c-.39.03-.75-.2-.9-.56-.2-.62-.28-1.26-.24-1.91v-7.18c0-1.82-.43-3.15-1.3-3.96-.87-.82-2.24-1.23-4.17-1.23-1.44-.02-2.86.26-4.18.84-.41.15-.73.49-.85.92l-.48,1.83c-.04.16.04.26.25.32l1.01.26c.08.02.17.04.26.04.18,0,.4-.26.68-.78.85-1.58,1.86-2.37,3.03-2.37,1.85,0,2.8,1.58,2.8,4.73l-3.56,1.36c-1.08.38-2.12.85-3.12,1.39-1.65.97-2.47,2.32-2.47,4.05-.05,1.17.37,2.31,1.17,3.16.8.82,1.91,1.26,3.05,1.22.86-.06,1.69-.37,2.38-.9l2.5-1.68c.05.91.33,1.79.79,2.57l4.62-1.46-.19-.91c-.35.13-.72.22-1.09.25h0ZM109.59,102.85c0,3.6-1.19,5.4-3.56,5.4-.72.03-1.43-.25-1.93-.77-.49-.54-.76-1.25-.73-1.98,0-1.79,1.11-3.15,3.32-4.07.96-.39,1.93-.77,2.9-1.12,0,0,0,2.54,0,2.54ZM142.11,105.83v-6.79c.02-.88-.04-1.76-.2-2.63-.48-2.09-1.96-3.14-4.43-3.14-2.21,0-4.18.94-5.89,2.85-.34-.88-.91-1.65-1.65-2.24-.79-.46-1.71-.68-2.62-.63-2.31-.04-4.51,1.02-5.93,2.85v-2.85c-1.71.89-3.61,1.36-5.54,1.39v.81h.72c.51-.05,1.02.06,1.47.31.32.35.46.82.39,1.28v8.76c0,1.45-.11,2.32-.34,2.59-.23.27-.98.49-2.24.62v.86h8.17v-.86c-1.29-.13-2.06-.34-2.29-.62s-.34-1.12-.34-2.59v-3.79c0-2.86.39-4.75,1.18-5.68.76-.9,1.91-1.39,3.09-1.32,1.19,0,2.02.37,2.48,1.08.46.71.67,1.97.67,3.77v5.94c0,1.45-.11,2.32-.33,2.59s-.99.49-2.24.62v.86h8.16v-.86c-1.29-.13-2.06-.33-2.29-.62s-.35-1.12-.35-2.59v-3.79c-.02-.98.02-1.96.11-2.93.09-.97.44-1.9,1.01-2.69.76-.93,1.92-1.45,3.12-1.37,1.18,0,2,.38,2.48,1.12.48.74.72,1.97.72,3.75v5.94c0,1.45-.12,2.32-.34,2.59-.22.27-.99.49-2.24.62v.86h8.14v-.86c-1.31-.13-2.07-.32-2.28-.6-.21-.28-.36-1.12-.36-2.61ZM149.47,91.11c.51,0,1-.19,1.36-.56.37-.35.57-.84.56-1.35,0-.5-.2-.99-.56-1.34-.53-.55-1.35-.71-2.05-.42-.23.1-.44.24-.62.42-.36.33-.56.81-.56,1.3,0,.52.19,1.01.56,1.38.34.36.81.57,1.31.57ZM151.56,108.24c-.22-.31-.33-1.17-.33-2.58v-12.55c-1.71.88-3.61,1.36-5.53,1.39v.81h.74c.51-.05,1.02.05,1.47.29.26.2.39.63.39,1.3v8.74c0,1.45-.11,2.32-.34,2.6-.23.28-.98.49-2.24.62v.85h8.14v-.83c-1.32-.14-2.08-.34-2.29-.64ZM172.14,108.2c-.2-.24-.3-1.08-.3-2.54v-6.85c.05-.99-.05-1.99-.29-2.95-.65-1.85-2.16-2.76-4.53-2.76-2.47-.05-4.85.97-6.51,2.79v-2.79c-1.71.87-3.6,1.33-5.53,1.35v.81h.74c.5-.04,1,.06,1.45.29.28.2.4.63.4,1.3v8.78c0,1.39-.11,2.24-.36,2.53-.25.29-.98.52-2.24.69v.85h8.17v-.83c-1.3-.17-2.07-.4-2.29-.68-.22-.28-.35-1.12-.35-2.54v-3.99c-.03-1.12.06-2.25.27-3.35.51-2.31,2.01-3.48,4.48-3.48,1.37,0,2.32.36,2.86,1.08.54.72.82,1.96.82,3.73v5.99c0,1.39-.09,2.24-.26,2.47-.24.37-1.02.61-2.34.75v.85h8.14v-.83c-1.35-.14-2.11-.36-2.33-.68h0ZM192,93.51l-.36-.4c-1.53.33-3.09.49-4.66.47-.3,0-.56,0-.84-.03-.93-.31-1.9-.46-2.88-.45-1.7-.08-3.37.46-4.71,1.5-1.2.97-1.88,2.44-1.83,3.98,0,2.34,1.24,4.06,3.71,5.16l-3.13,2.57v.26c-.02.1-.03.19-.03.29,0,.97.71,1.62,2.12,1.95l-3.4,1.85c-.26.16-.39.56-.39,1.17-.04,1.2.32,2.38,1.04,3.35.71.87,1.63,1.54,2.68,1.93,1.21.49,2.51.74,3.82.73,1.85.08,3.67-.44,5.19-1.49,1.71-1.24,2.57-2.79,2.57-4.62.03-.84-.2-1.66-.67-2.36-.47-.7-1.14-1.23-1.92-1.52-1.16-.44-2.38-.74-3.62-.87-1.18-.13-2.35-.37-3.48-.72-.44-.16-.66-.42-.66-.77s.31-.82.92-1.29h1.24c1.67.06,3.29-.51,4.56-1.59,1.17-.98,1.84-2.43,1.82-3.96.03-1.39-.47-2.74-1.4-3.78h3.36l.93-1.38h0ZM180.86,109.08l3.2.56c.67.11,1.34.26,1.99.45,1.51.46,2.28,1.41,2.28,2.87,0,1.09-.52,2.12-1.41,2.75-2.2,1.46-5.07,1.42-7.24-.09-.93-.7-1.47-1.8-1.45-2.96-.02-.66.18-1.31.56-1.86.59-.69,1.29-1.27,2.07-1.73h0ZM183.34,103.31c-1.03-.02-1.97-.59-2.46-1.49-.67-1.12-1.01-2.41-.96-3.71-.07-1.08.23-2.16.85-3.05.55-.73,1.43-1.15,2.34-1.12.92,0,1.77.51,2.2,1.33.59,1.14.87,2.42.8,3.71,0,2.89-.93,4.33-2.76,4.33h0ZM129.05,73.18h-2.06v-.81h4.98v.81h-2.06v5.59h-.86v-5.59h0ZM132.84,72.37h1.29l2.03,4.82h.04l2.01-4.82h1.29v6.38h-.86v-5.24l-2.15,5.24h-.56l-2.16-5.24v5.24h-.93v-6.38ZM106.6,69.09c-2.73-3.06-4.14-7.08-3.92-11.18l.09-1.06,1.05.27c.1,0,10.75,2.79,16.04-1.9,5.11-4.57,6.99-15.2.43-25.91-6.24-10.2-21.3-20.8-24.24-22.83-2.98,2.04-18.02,12.64-24.28,22.84-6.57,10.72-4.69,21.35.43,25.91,5.29,4.72,15.93,1.92,16.04,1.9l1.05-.27.09,1.06c.21,4.1-1.21,8.12-3.95,11.18-3.68,4.01-9.53,6.06-17.44,6.06v3.61c8.97,0,15.69-2.44,20.11-7.24,3.54-3.73,5.35-8.78,4.98-13.91-.09-1.79-.28-3.57-.56-5.33l-5.19,1.37c-2.28.59-9.53,1.68-12.7-1.12-4.02-3.58-5.3-12.3.24-21.33,4.98-8.13,16.16-16.7,21.16-20.29,5.01,3.62,16.19,12.16,21.15,20.29,5.54,9.05,4.25,17.75.24,21.33-3.15,2.79-10.41,1.71-12.69,1.12l-5.16-1.37c-.28,1.77-.47,3.55-.56,5.33-.37,5.12,1.42,10.16,4.94,13.89,4.39,4.8,11.15,7.24,20.11,7.24v-3.61c-7.88,0-13.74-2.05-17.42-6.06h0Z"/>
      <path class="cls-1" d="M123.43,59.25c6.91-6.15,9.63-19.41,1.45-32.76-7.54-12.28-25.62-24.33-26.38-24.81l-2.5-1.68-2.49,1.68c-.76.51-18.84,12.55-26.38,24.85-8.18,13.33-5.46,26.57,1.45,32.72,4.12,3.67,9.8,4.31,14.26,4.11-.41.78-.92,1.5-1.52,2.14-2.61,2.79-7.1,4.21-13.35,4.21v3.6c7.35,0,12.77-1.83,16.08-5.46,2.16-2.41,3.4-5.5,3.51-8.74-3.07.64-11.6,1.87-16.57-2.57-5.8-5.14-7.93-16.5-.77-28.17,7.16-11.67,24.56-23.24,25.29-23.73l.49-.33.5.33c.73.5,18.17,12.1,25.29,23.73,7.12,11.63,5.04,23.02-.77,28.19-4.98,4.44-13.51,3.2-16.57,2.57.11,3.23,1.36,6.32,3.51,8.74,3.31,3.63,8.73,5.46,16.08,5.46v-3.6c-6.24,0-10.74-1.43-13.35-4.21-.6-.64-1.11-1.36-1.52-2.14,4.45.19,10.14-.44,14.26-4.13h0Z"/>
    </g>
  </g>
</svg>