<?xml version="1.0" encoding="UTF-8"?>
<svg id="Layer_2" data-name="Layer 2" xmlns="http://www.w3.org/2000/svg" viewBox="0 0 225.89 29.52">
  <defs>
    <style>
      .cls-1 {
        fill: #fff;
        stroke-width: 0px;
      }
    </style>
  </defs>
  <g id="Layer_1-2" data-name="Layer 1">
    <g>
      <path class="cls-1" d="M.23,0h131.02c1.37,0,2.05.58,2.74,1.62,1.68,2.63,3.43,5.21,5.24,7.75,1.6,2.31,3.19,4.63,4.68,6.94,1.71,2.43,3.42,4.86,5.02,7.29,1.25,1.85,2.51,3.82,3.99,5.9h-7.64c-.34,0-.8-.46-1.03-.81-.91-1.16-1.6-2.43-2.51-3.7-.23-.35-.68-.46-1.14-.46h-18.36l-3.42,4.97H1.6c-1.37,0-1.6-.35-1.6-1.62V1.74C.23,1.16.23.69.23,0ZM30.9,7.29c-1.37-.69-2.51-1.62-3.88-2.08-3.88-1.5-7.87-1.5-11.86-.81-3.88.58-7.41,2.43-8.89,6.13-2.05,5.55-.34,10.88,5.36,13.42,3.88,1.74,7.98,1.85,11.97,1.16,2.17-.46,4.33-1.5,6.39-2.43.46-.23,1.14-.93,1.14-1.39.11-2.66,0-5.21,0-7.87h-13.57v3.59h9.58v1.27c.34,1.62-.46,2.31-1.83,2.89-2.62.93-5.25.69-7.87.69-4.9-.12-7.41-2.78-7.41-7.75,0-3.24,1.71-5.09,4.1-5.78,4.56-1.39,9.24-1.62,13.45,1.39.34.23.57.35.91.46l2.4-2.89ZM94.76,3.94l-.46-.23-13,12.38-13.45-12.5-.34.35v21.17h4.22v-12.61l9.69,8.8,9.24-8.68.34.23v12.27h3.88l-.11-21.17h0ZM126.69,4.4h-24.17v20.83l9.58.12,2.85-4.05h-8.44v-4.98h11.97l2.51-3.7h-14.48v-4.4h17.56s2.62-3.82,2.62-3.82ZM48.23,3.12l-14.71,21.99h4.1c.23,0,.46-.11.69-.35.68-.81,1.25-1.74,1.82-2.66.34-.69.8-.93,1.6-.93,3.99,0,8.1.12,12.09,0,1.6,0,2.62.46,3.31,1.85.34.81,1.03,1.85,1.71,1.97,1.37.35,2.85.11,4.56.11,0,0-15.17-21.99-15.17-21.99ZM127.14,17.82h9.81l-5.02-7.17-4.79,7.17h0ZM181.76,18.63l9.69,10.76h-8.89c-.34,0-.68-.35-.91-.58-2.51-2.89-5.02-5.9-7.64-8.79-.35-.34-.78-.58-1.26-.69h-9.46v10.18c-2.39,0-4.56,0-6.73-.11-.23,0-.68-.81-.68-1.27V.93c.34-.12.8-.12,1.14-.12h22.81c6.5.12,10.6,5.32,8.89,11.69-.68,2.43-2.51,4.4-4.79,5.32-.8.23-1.37.46-2.17.81ZM163.29,12.96h15.17c1.94,0,3.19-1.16,3.19-2.78,0-1.74-1.26-2.78-3.31-2.78h-14.37c-.23,0-.46,0-.68.12v5.44h0ZM205.59,7.64h-11.75c-1.14,0-1.48-.35-1.48-1.5.11-1.46.11-2.93,0-4.4,0-.81.23-1.16,1.14-1.16h31.13c1.03,0,1.26.35,1.26,1.27,0,1.5-.11,3.01,0,4.51,0,.92-.34,1.27-1.26,1.27h-11.86v20.37c0,1.16-.23,1.5-1.48,1.5-1.48-.12-2.97-.12-4.45,0-1.14.12-1.37-.35-1.37-1.39V9.03l.11-1.39Z"/>
      <path class="cls-1" d="M53.37,17.47h-10.03l4.9-7.41,5.13,7.41Z"/>
    </g>
  </g>
</svg>