<?xml version="1.0" encoding="UTF-8"?>
<svg id="Layer_2" data-name="Layer 2" xmlns="http://www.w3.org/2000/svg" viewBox="0 0 222.68 33.96">
  <defs>
    <style>
      .cls-1, .cls-2 {
        fill: #fff;
        stroke-width: 0px;
      }

      .cls-2 {
        fill-rule: evenodd;
      }
    </style>
  </defs>
  <g id="Layer_1-2" data-name="Layer 1">
    <g>
      <path class="cls-1" d="M16.59,6.04C12.54.98,18.02-1.24,23.61.69h-.01s.01,0,.01,0c1.91.65,3.83,1.78,5.37,3.45h.02c-1.98,3.74-3.04,8.19-3.04,12.83s1.05,9.09,3.03,12.82c-1.55,1.67-3.47,2.81-5.38,3.47-5.59,1.93-11.07-.28-7.02-5.34l4.56.69c-1.89-3.3-2.91-7.35-2.91-11.64s1.02-8.33,2.9-11.63l-4.55.69Z"/>
      <path class="cls-1" d="M0,16.98c0,6.07,1.93,7.38,4.62,5.71h0c.98-.61,2.06-1.61,3.17-2.92,2.31,3.84,5.41,6.5,8.81,8.16-1.4-3.31-2.15-7.06-2.15-10.94s.75-7.64,2.15-10.94c-3.4,1.65-6.5,4.32-8.81,8.15-1.1-1.31-2.18-2.31-3.16-2.91h0c-2.68-1.68-4.63-.38-4.63,5.7Z"/>
      <path class="cls-2" d="M42.48,20.2c-.51.27-1.01.54-1.06.83,0,0-1.32,4.99-8.63,7.81-1.98-3.34-3.05-7.48-3.05-11.87s1.08-8.52,3.05-11.87c4.3,1.56,7.7,4.57,8.89,8.61.1.34.34.94.62,1.62.56,1.39,1.28,3.16,1.28,3.92,0,.34-.56.64-1.11.93ZM39.99,15.19c0,1.93-1.57,3.49-3.51,3.49s-3.51-1.56-3.51-3.49,1.57-3.49,3.51-3.49,3.51,1.56,3.51,3.49Z"/>
      <path class="cls-2" d="M38.55,14.66c0,.84-.69,1.52-1.53,1.52s-1.53-.68-1.53-1.52.69-1.52,1.53-1.52,1.53.68,1.53,1.52ZM38.26,14.32c0,.33-.27.59-.59.59s-.59-.26-.59-.59.27-.59.59-.59.59.26.59.59Z"/>
      <path class="cls-1" d="M54.46,29.49V4.74h7.18c4.25,0,6.38,2.34,6.38,7.03,0,2.3-.58,3.99-1.75,5.05-1.16,1.07-2.81,1.6-4.92,1.6h-2.34v11.06h-4.55ZM59.01,15.27h1.46c1.29,0,2.15-.25,2.6-.75.45-.5.68-1.42.68-2.77,0-.77-.03-1.36-.09-1.78-.06-.42-.2-.8-.42-1.14-.22-.35-.55-.58-.99-.71-.43-.13-1.03-.2-1.77-.2h-1.47v7.34Z"/>
      <path class="cls-1" d="M67.93,29.49l5.07-24.75h4.74l5.06,24.75h-4.23l-1.01-5.75h-4.32l-1.02,5.75h-4.29ZM73.72,20.81h3.34l-1.67-10.17-1.67,10.17Z"/>
      <path class="cls-1" d="M85.26,29.49V4.74h3.13l6.11,14.02V4.74h3.76v24.75h-2.98l-6.17-14.74v14.74h-3.85Z"/>
      <path class="cls-1" d="M108.25,29.82c-2.36,0-4.06-.73-5.09-2.19-1.04-1.46-1.56-3.59-1.56-6.39v-8.07c0-1.42.11-2.65.34-3.68.22-1.03.61-1.93,1.14-2.71.53-.78,1.26-1.36,2.2-1.75.93-.39,2.08-.58,3.43-.58,2.47,0,4.24.6,5.32,1.8,1.07,1.2,1.61,3.02,1.61,5.46v1.21h-4.35v-1.29c0-.55-.01-.99-.04-1.34-.03-.35-.09-.7-.18-1.05-.1-.35-.24-.63-.41-.81-.18-.19-.43-.35-.74-.46-.31-.12-.69-.18-1.15-.18-.34,0-.64.04-.91.13-.27.08-.49.19-.67.31-.18.12-.33.3-.46.53-.12.23-.22.45-.28.66-.06.21-.12.49-.15.83-.04.34-.06.64-.07.9-.01.26-.02.59-.02,1v9.99c0,1.49.19,2.59.56,3.28.37.69,1.08,1.04,2.12,1.04.54,0,1-.1,1.36-.31.36-.2.65-.51.86-.92.2-.41.35-.89.43-1.42.09-.53.13-1.17.13-1.93v-2.03h-2.69v-2.91h6.79v12.57h-2.95l-.33-2.51c-.74,1.89-2.15,2.84-4.22,2.84Z"/>
      <path class="cls-1" d="M117.9,29.49l5.07-24.75h4.74l5.06,24.75h-4.23l-1.01-5.75h-4.32l-1.02,5.75h-4.29ZM123.69,20.81h3.34l-1.67-10.17-1.67,10.17Z"/>
      <path class="cls-1" d="M148.99,29.82c-2.36,0-4.06-.73-5.1-2.19-1.04-1.46-1.56-3.59-1.56-6.39v-8.07c0-1.42.11-2.65.34-3.68.23-1.03.61-1.93,1.14-2.71.53-.78,1.26-1.36,2.2-1.75.93-.39,2.08-.58,3.43-.58,2.47,0,4.24.6,5.32,1.8,1.07,1.2,1.61,3.02,1.61,5.46v1.21h-4.35v-1.29c0-.55-.01-.99-.04-1.34-.03-.35-.09-.7-.18-1.05-.1-.35-.24-.63-.41-.81-.18-.19-.43-.35-.74-.46-.31-.12-.69-.18-1.15-.18-.34,0-.64.04-.91.13-.27.08-.49.19-.67.31-.18.12-.33.3-.46.53-.12.23-.22.45-.28.66-.06.21-.12.49-.15.83-.04.34-.06.64-.07.9-.01.26-.02.59-.02,1v9.99c0,1.49.19,2.59.56,3.28.37.69,1.08,1.04,2.12,1.04.54,0,1-.1,1.36-.31.36-.2.65-.51.86-.92.2-.41.35-.89.44-1.42.08-.53.13-1.17.13-1.93v-2.03h-2.69v-2.91h6.79v12.57h-2.95l-.33-2.51c-.75,1.89-2.16,2.84-4.23,2.84Z"/>
      <path class="cls-1" d="M158.64,29.49l5.07-24.75h4.74l5.06,24.75h-4.23l-1.01-5.75h-4.32l-1.02,5.75h-4.29ZM164.44,20.81h3.34l-1.67-10.17-1.67,10.17Z"/>
      <path class="cls-1" d="M175.92,29.49l.41-24.75h4.67l3.61,17.39,3.72-17.39h4.56l.42,24.75h-3.43l-.3-17.05-3.59,17.05h-2.66l-3.64-17.11-.27,17.11h-3.48Z"/>
      <path class="cls-1" d="M197,29.49V4.74h10.45v3.18h-5.9v7.11h4.67v3.18h-4.67v8.17h5.97v3.12h-10.52Z"/>
      <path class="cls-1" d="M216.43,29.79c-4.39,0-6.7-2.52-6.92-7.56l3.96-.82c.1,3.27,1.04,4.91,2.83,4.91.69,0,1.21-.21,1.54-.63.34-.42.5-.98.5-1.68s-.12-1.32-.38-1.89c-.25-.57-.54-1.04-.87-1.4-.33-.36-.8-.81-1.41-1.35l-3.28-2.82c-.96-.83-1.68-1.71-2.15-2.6-.47-.9-.71-2.03-.71-3.38,0-1.92.57-3.41,1.71-4.48,1.14-1.06,2.7-1.6,4.69-1.63.91-.01,1.72.1,2.42.33.7.23,1.28.55,1.74.94.46.39.84.88,1.15,1.47.31.59.54,1.2.68,1.83.15.63.26,1.33.32,2.12l-3.88.76c-.02-.5-.05-.93-.1-1.3s-.12-.74-.24-1.12c-.11-.38-.25-.69-.43-.92-.18-.23-.41-.42-.71-.56-.29-.14-.64-.2-1.03-.16-.67.04-1.19.26-1.54.66-.35.4-.54.94-.54,1.62,0,.8.16,1.45.47,1.96.32.51.81,1.06,1.48,1.65l3.25,2.81c.54.49,1.01.96,1.41,1.42.4.46.79.98,1.15,1.57.36.59.64,1.23.84,1.94.19.71.28,1.46.28,2.24,0,1.8-.57,3.26-1.73,4.39-1.15,1.13-2.66,1.69-4.52,1.69Z"/>
    </g>
  </g>
</svg>