<?xml version="1.0" encoding="UTF-8"?>
<svg id="Layer_2" data-name="Layer 2" xmlns="http://www.w3.org/2000/svg" viewBox="0 0 225.94 77.82">
  <defs>
    <style>
      .cls-1 {
        fill: #fff;
        stroke-width: 0px;
      }
    </style>
  </defs>
  <g id="Layer_1-2" data-name="Layer 1">
    <g>
      <path class="cls-1" d="M225.83,1.49c0-.46,0-.8-.11-1.49-.57.46-1.03.69-1.37,1.03-2.85,2.41-5.82,4.81-8.55,7.22-.68.69-1.71,1.03-2.74,1.03H37.98c-9.92,0-19.73.11-29.65,0C3.19,9.28,0,13.52,0,17.53c.11,17.31.11,34.61,0,51.92,0,4.47,3.99,8.37,8.44,8.37,69.69-.11,139.37-.11,209.06,0,4.33,0,8.44-3.78,8.44-8.37-.11-22.58-.11-45.27-.11-67.96h0ZM47.1,52.6c-1.37,1.95-3.31,3.32-5.7,3.67-3.76.57-7.3.34-9.92-2.98-.11-.11-.34-.23-.57-.34v11.57h-7.07V30.94h6.73v2.52c1.37-.8,2.51-1.95,3.99-2.52,3.08-1.49,7.07-.92,10.04.92,3.88,2.41,5.59,7.33,5.47,11.69-.11,2.98-1.03,6.42-2.97,9.05h0ZM60.68,55.81h-6.84V21.43h6.84v34.38h0ZM83.15,55.81c-.23,0-.57-.34-.68-.57l-.34-1.38c-1.6.8-3.08,1.83-4.79,2.18-3.08.69-6.27.92-9.24-.8-3.08-1.72-3.65-5.16-3.08-8.14.57-2.98,2.62-4.35,5.25-5.04,2.17-.57,4.45-.8,6.61-1.15.91-.12,1.94-.23,2.85-.46,1.48-.46,2.17-1.26,2.17-2.41,0-1.49-.68-2.63-2.17-2.98-1.25-.23-2.62-.34-3.99-.11-1.48.23-2.62,1.26-2.85,2.75-.11.69-.46.8-1.14.8h-6.05c-.23-3.21,2.51-6.07,4.68-6.99,4.9-1.83,9.81-1.83,14.71,0,2.17.8,3.76,3.09,3.76,5.5v13.07c0,1.83.34,3.67.46,5.73-1.94,0-4.11.11-6.16,0h0ZM107.67,55.35c-.11.23-.23.46-.57.57-2.62.34-5.36.46-7.87-.46-2.51-.92-3.54-2.52-3.54-5.27v-14.9h-4.11v-4.47h4.11v-7.56h6.96v7.68h5.02v4.47h-4.9v12.26c0,2.41.57,2.98,2.96,2.98h2.05c-.11,1.61-.11,3.1-.11,4.7ZM117.82,55.7h-6.84v-24.64h6.84v24.64ZM117.82,26.82h-6.84v-5.27h6.84v5.27h0ZM146.1,52.49c-1.6,2.18-3.76,3.55-6.5,3.9-2.4.23-4.79.23-6.84-1.15-.91-.57-1.71-1.38-2.74-2.29v11.57h-6.96V30.94h6.61v2.64c1.14-.8,2.17-1.83,3.42-2.41,5.82-2.64,12.32-.11,14.71,5.73,2.05,5.39,1.82,10.77-1.71,15.59h0ZM176.56,55.81h-6.62l-.11-2.86c-2.4,2.18-5.47,3.78-8.78,3.67-4.68,0-8.33-3.44-8.33-8.14-.11-5.62-.11-11.23-.11-16.85,0-.23,0-.46.11-.57h6.96v9.28c0,2.41-.23,5.16.34,7.56.23.92.68,1.72,1.37,2.29,1.48,1.38,4.56,1.26,6.16.11,2.28-1.72,2.28-6.07,2.4-8.71,0-.92,0-10.54-.34-10.54h6.96v24.75ZM200.17,54.67c-3.54,2.41-13.23,2.52-16.77-.57-1.94-1.72-2.97-3.78-3.19-6.42h6.5c1.14,3.44,4.79,5.27,8.21,3.67.68-.34,1.26-.8,1.6-1.38.68-1.03.34-2.52-.68-3.09-.16-.14-.36-.23-.57-.23-1.6-.57-3.31-1.03-5.02-1.49-1.94-.57-3.99-.92-5.82-1.6-2.62-1.15-3.99-3.9-3.54-6.65.57-3.78,3.54-5.5,7.07-6.19,3.54-.8,7.18-.46,10.61.92,2.74,1.15,4.45,3.67,4.45,6.53h-6.39s-.8-1.49-.91-1.6c-.46-.46-.91-.92-1.48-1.15-1.37-.69-2.85-.8-4.33-.46-.8.23-1.48.69-1.94,1.38-.46.92-.11,2.06.8,2.64,1.29.58,2.62,1.04,3.99,1.38,1.94.57,3.99.8,5.82,1.49,1.94.69,3.88,1.6,4.68,3.78,1.48,3.21.11,6.88-3.08,9.05h0Z"/>
      <path class="cls-1" d="M41.52,37.94c-.23-.46-.57-.8-1.03-1.15-1.82-1.6-4.45-1.83-6.5-.8-2.4,1.38-3.42,4.81-3.42,7.45,0,2.87,1.14,6.42,4.11,7.56,2.97,1.15,6.27-.34,7.41-3.21,1.03-2.87,1.26-7.11-.57-9.86ZM135.72,35.3c-2.28,0-4.11,1.03-5.02,3.21-1.48,3.32-1.48,6.76.23,10.2,1.14,2.41,4.45,3.09,6.84,2.29,3.19-1.03,4.33-4.81,4.22-7.79-.11-3.67-2.17-7.91-6.27-7.91ZM73.22,46.07c-.46.34-.91.69-1.25,1.26-.91,1.72,0,3.67,1.82,4.36,1.6.57,3.31.46,4.9-.11,1.14-.46,2.28-1.26,2.51-2.52.34-1.6.57-3.32.8-5.04-2.39.46-4.9.8-7.3,1.49-.51.14-1.01.33-1.48.57Z"/>
    </g>
  </g>
</svg>