<?xml version="1.0" encoding="UTF-8"?>
<svg id="Layer_2" data-name="Layer 2" xmlns="http://www.w3.org/2000/svg" viewBox="0 0 224 43">
  <defs>
    <style>
      .cls-1, .cls-2 {
        fill: #fff;
        stroke-width: 0px;
      }

      .cls-2 {
        fill-rule: evenodd;
      }
    </style>
  </defs>
  <g id="Layer_1-2" data-name="Layer 1">
    <g>
      <path class="cls-1" d="M16.46,7.76c-1.32-1.09-3.01-1.81-4.78-1.81-1.32,0-3.09.76-3.09,2.28s1.95,2.21,3.2,2.61l1.84.54c3.86,1.12,6.84,3.05,6.84,7.47,0,2.72-.66,5.51-2.87,7.36-2.17,1.81-5.07,2.58-7.86,2.58-3.49,0-6.91-1.16-9.74-3.12l3.09-5.73c1.8,1.56,3.93,2.83,6.39,2.83,1.69,0,3.49-.83,3.49-2.76s-2.83-2.68-4.37-3.12c-4.52-1.27-7.5-2.43-7.5-7.73S5.11,0,10.66,0c2.79,0,6.21.87,8.67,2.25l-2.87,5.51Z"/>
      <path class="cls-1" d="M47.92.73v15.38c0,3.52-.15,7-2.9,9.65-2.32,2.25-5.95,3.05-9.19,3.05s-6.87-.8-9.19-3.05c-2.76-2.65-2.9-6.13-2.9-9.65V.73h7.2v14.4c0,3.55.26,7.44,4.89,7.44s4.89-3.88,4.89-7.44V.73h7.2Z"/>
      <path class="cls-1" d="M52.48.73h11.02c5.95,0,10.07,2.72,10.07,8.99s-3.53,9.29-9.81,9.29h-4.08v9.07h-7.2V.73ZM59.68,13.27h1.21c2.61,0,5.18,0,5.18-3.34s-2.39-3.48-5.18-3.48h-1.21v6.82Z"/>
      <path class="cls-1" d="M83.98,6.75v4.57h8.12v6.02h-8.12v4.71h8.56v6.02h-15.77V.73h15.77v6.02h-8.56Z"/>
      <path class="cls-1" d="M120.03,28.07h-8.97l-6.8-10.52h-.07v10.52h-7.2V.73h10.77c5.48,0,9.63,2.58,9.63,8.41,0,3.77-2.13,7.04-6.06,7.73l8.71,11.21ZM104.19,12.98h.7c2.35,0,5-.44,5-3.41s-2.65-3.41-5-3.41h-.7v6.82Z"/>
      <path class="cls-1" d="M149.64,20.6c-3.46,0-6.3-2.77-6.3-6.57,0-3.04,2.84-5.81,6.3-5.81s6.3,2.77,6.3,5.81c0,3.8-2.84,6.57-6.3,6.57Z"/>
      <path class="cls-1" d="M202.67,14.03c0,3.8,2.84,6.57,6.3,6.57s6.3-2.77,6.3-6.57c0-3.04-2.84-5.81-6.3-5.81s-6.3,2.77-6.3,5.81Z"/>
      <path class="cls-2" d="M121.06.76h102.94v27.35h-102.94V.76ZM149.64,26.14c7.16,0,12.34-5.02,12.34-12.15,0-6.66-5.92-11.33-12.34-11.33s-12.34,4.67-12.34,11.33c0,7.12,5.18,12.15,12.34,12.15ZM136.54,20.57h-6.95V3.4h-5.8v22.02h12.75v-4.85ZM173.55,25.41h-5.8V8.25h-4.79V3.4h15.38v4.85h-4.79v17.17ZM185.07,25.41h5.8V8.25h4.79V3.4h-15.38v4.85h4.79v17.17ZM221.31,14c0,7.12-5.18,12.15-12.34,12.15s-12.34-5.02-12.34-12.15c0-6.66,5.92-11.33,12.34-11.33s12.34,4.67,12.34,11.33Z"/>
      <path class="cls-1" d="M132.29,36.74c-.03,1.54-.14,2.86-1.1,4.18-1.05,1.45-2.63,2.08-4.42,2.08-3.37,0-5.72-2.26-5.72-5.59s2.36-5.7,5.82-5.7c2.21,0,3.91.98,4.84,2.96l-2.65,1.1c-.38-1.01-1.2-1.68-2.32-1.68-1.83,0-2.79,1.73-2.79,3.34s1,3.31,2.83,3.31c1.21,0,2.13-.62,2.25-1.84h-2.28v-2.16h5.53Z"/>
      <path class="cls-1" d="M148.11,40.81l-.74,1.84h-2.96l4.12-10.58h3.04l4.04,10.58h-2.97l-.7-1.84h-3.84ZM150.06,35.34h-.03l-1.15,3.37h2.32l-1.14-3.37Z"/>
      <path class="cls-1" d="M168.46,32.06h2.75l2.18,5.66,2.3-5.66h2.77l1.62,10.58h-2.79l-.78-6.09h-.03l-2.57,6.09h-1.11l-2.46-6.09h-.03l-.9,6.09h-2.77l1.82-10.58Z"/>
      <path class="cls-1" d="M196.43,34.39v1.77h3.14v2.33h-3.14v1.83h3.31v2.33h-6.1v-10.58h6.1v2.33h-3.31Z"/>
      <path class="cls-1" d="M222.45,34.79c-.52-.44-1.17-.69-1.85-.7-.51,0-1.19.29-1.19.88s.75.86,1.24,1.01l.71.21c1.49.44,2.65,1.18,2.65,2.89,0,1.05-.26,2.13-1.11,2.85-.84.7-1.96,1-3.04,1-1.35-.01-2.67-.43-3.77-1.21l1.19-2.22c.7.6,1.52,1.09,2.47,1.09.65,0,1.35-.32,1.35-1.07s-1.1-1.04-1.69-1.21c-1.75-.49-2.9-.94-2.9-2.99s1.55-3.55,3.7-3.55c1.17.02,2.32.32,3.36.87l-1.11,2.13Z"/>
    </g>
  </g>
</svg>