<?xml version="1.0" encoding="UTF-8"?>
<svg id="Layer_2" data-name="Layer 2" xmlns="http://www.w3.org/2000/svg" viewBox="0 0 226.03 83.09">
  <defs>
    <style>
      .cls-1 {
        fill: #fff;
        stroke-width: 0px;
      }
    </style>
  </defs>
  <g id="Layer_1-2" data-name="Layer 1">
    <g>
      <path class="cls-1" d="M226,13.13c-.12.43-.27.85-.42,1.34h-11.78c-.36-3.65-.6-4.01-4.31-4.1-6.06-.12-12.14-.18-18.2,0-4.07.12-5.45,1.46-6,5.56-.51,3.8-.78,7.66-.9,11.49-.06,2.67,1.09,3.86,3.77,3.89,6.66.12,13.35.18,20.01.03,3.74-.09,4.67-1.4,4.52-5.35h-15.7c.27-2.74.51-5.32.78-7.97h27.66c-.33,2.8-.63,5.56-.99,8.3-.22,1.66-.47,3.31-.75,4.96-.87,5.02-3.62,8.09-8.62,8.79-4.85.67-9.79,1.06-14.71,1.06-6.75,0-13.53-.4-20.28-.76-1.21-.06-2.44-.61-3.59-1.09-2.77-1.22-4.46-3.4-4.4-6.48.09-4.71.36-9.4.75-14.08.24-2.86.78-5.72,1.39-8.54,1.05-5.14,4.1-8.36,9.4-9.03,2.62-.33,5.27-.58,7.93-.88l2.53-.27h15.37c2.2.21,4.4.36,6.57.64,4.49.61,8.86,1.43,10,6.96-.03,1.89-.03,3.71-.03,5.53ZM12.96,83.06c-1.08-.58-2.08-1.22-2.05-2.86h37.34c3.31,0,4.19-.88,4.49-4.26,1.48-17.21,2.95-34.39,4.46-51.59.3-3.62.6-7.24.93-10.92,1.72.73,2.53,2.19,2.35,4.17l-2.71,31.47c-.87,10.03-1.75,20.07-2.56,30.1-.15,1.67-.69,3.01-2.14,3.92-13.38-.03-26.76-.03-40.11-.03h0ZM0,68.16c.18-1.1.33-2.19.54-3.62,1.33,3.43,3.32,6.11,6.39,7.9-4.25.82-5.7.36-6.93-2.19v-2.1Z"/>
      <path class="cls-1" d="M46.01,65.46c-.12,1.43-.15,2.71-.33,3.95-.33,2.25-1.54,3.25-3.77,3.25h-20.73c.15.12.3.24.45.33,1.45-1.55,2.89-3.1,4.34-4.68-6.21-5.93-7.65-12.5-4.82-20-6.18-4.41-15.13-2.01-19.62,5.47,0-.64-.03-1.06,0-1.49,1.39-15.84,2.74-31.68,4.16-47.52.24-2.95,1.27-3.8,4.25-3.8h37.52c3.1,0,3.98.85,3.77,4.01-.48,6.32-1.06,12.62-1.6,18.91-.64,7.42-1.29,14.84-1.96,22.26-.03.21-.06.39-.12.85-2.77-3.44-6.15-5.5-10.4-5.81-4.31-.3-8.01,1.16-11.03,4.23-4.88,5.02-5.3,12.98-1,18.46,2.56,3.28,5.97,5.05,10.07,5.41,3.1.3,5.27-.49,10.82-3.83ZM31.4,39.34c-5.15-10.34-17.18-15.41-25.13-14.23v3.28c9.67-.03,16.91,4.1,21.97,12.25,1.06-.43,2.05-.85,3.16-1.31h0ZM18.59,22.53c7.26.09,17.15-7.17,19.77-14.41-7.14,4.07-13.71,8.6-19.77,14.41h0ZM19.92,44.75c-.12-3.92-.99-7.63-2.65-11.13-.14-.26-.36-.46-.63-.58-2.05-.73-4.1-1.43-6.33-2.22,1.2,2.37,2.41,4.29,3.19,6.38.81,2.1,1.2,4.35,1.78,6.51,1.45.3,2.89.64,4.64,1.03ZM18.23,18.55c4.64-3.25,9.28-6.51,13.92-9.73-6.33.82-10.82,4.32-13.92,9.73ZM117.04,40.62h-11.93c.12-1.67.27-3.25.36-4.86.06-.82.06-1.64-.03-2.43-.18-1.61-1.03-2.49-2.65-2.58-2.95-.15-5.91-.18-8.89-.21-4.22-.03-8.41,0-12.78,0-.36,3.4-.72,6.69-1.08,10.06h-12.02c1.32-13.27,2.66-26.53,4.01-39.8.45-.03.81-.09,1.21-.09,11.84,0,23.72,0,35.56.03,1.72,0,3.4.09,5.12.24,3.53.33,6.27,2.86,6.27,6.41,0,3.92-.39,7.88-1.03,11.74-.6,3.62-3.22,5.41-7.05,6.02.69.21,1.06.33,1.45.42,2.95.67,4.22,1.98,4.19,5.02-.06,3.31-.45,6.63-.69,10.03ZM82.11,20.46c6.96,0,13.68.03,20.4-.03,4.07-.03,4.97-.97,5.3-5.05.03-.3.03-.61.06-.91.06-2.77-.72-3.68-3.5-3.71-5.76-.06-11.51-.03-17.3-.06h-4.01c-.3,3.28-.63,6.41-.96,9.76h0ZM171.91.76c-.33,3.38-.67,6.75-1.02,10.12h-17.63c-.27,2.55-.51,4.96-.75,7.36-.72,7.11-1.42,14.2-2.17,21.31-.03.4-.51,1.1-.81,1.1-3.92.06-7.8.06-11.96.06.99-9.94,1.96-19.73,2.98-29.73h-17.63c.36-3.5.69-6.81,1.03-10.18,16-.03,31.88-.03,47.97-.03ZM144.76,56.34c3.5.18,6.66.18,9.79.55,3.35.39,5.12,2.19,5.03,5.53-.12,4.01-.6,8.06-1.36,12.01-.6,3.25-3.04,5.35-6.24,5.47-6.51.27-13.02.36-19.53.06-3.8-.18-5.45-2.37-5.27-6.2.15-3.59.54-7.18,1.18-10.67.66-3.74,2.74-5.65,6.51-6.11,3.38-.4,6.81-.46,9.88-.64h0ZM144.19,62.08c-1.9.09-3.8.15-5.7.3-2.11.18-2.89.82-3.29,2.89-.39,2.04-.66,4.11-.75,6.14-.09,2.13.72,3.04,2.83,3.13,3.71.12,7.41.12,11.12,0,1.93-.06,3.07-1.09,3.4-3.04.36-2.04.57-4.11.66-6.17.09-2.1-.6-2.8-2.74-2.98-1.81-.15-3.68-.18-5.54-.27h0ZM95.04,63.88h-6.69c.18-1.95-1.06-2.25-2.47-2.25-3.22,0-6.42.03-9.61.12-1.45.03-2.26.88-2.23,2.13.03,1.52,1.08,1.79,2.26,1.82,4.61.12,9.22.12,13.83.3,3.8.15,5.18,1.76,5.09,5.59-.03,1.22-.24,2.43-.51,3.59-.6,2.58-2.23,4.23-4.85,4.5-2.89.33-5.78.58-8.68.61-3.4.06-6.84.09-10.21-.24-4.52-.46-5.75-2.49-4.7-7.21h6.66c.36,2.19.39,2.37,2.62,2.43,3.35.09,6.72-.03,10.07-.09.45,0,.87-.15,1.3-.3.99-.36,1.39-1.12,1.26-2.16-.12-.97-.72-1.55-1.72-1.58-1.51-.06-3.01-.12-4.52-.15-3.22-.06-6.42.03-9.64-.15-4.25-.21-5.69-1.98-5.36-6.26.09-1.06.3-2.1.57-3.13.6-2.34,2.14-3.74,4.46-4.22,1.42-.27,2.89-.55,4.31-.55,4.7-.03,9.43-.15,14.13.18,4.25.33,5.54,2.52,4.64,7.02ZM193.58,72.81h6.75c-.18,1.92.87,2.55,2.53,2.52,3.34-.03,6.72-.06,10.06-.12.39,0,.78-.15,1.18-.27,1.09-.33,1.51-1.09,1.39-2.22-.09-1.12-.81-1.58-1.84-1.61-3.25-.06-6.51-.06-9.79-.15-1.96-.06-3.92-.09-5.85-.36-2.56-.39-3.65-1.76-3.74-4.32-.03-.94,0-1.92.12-2.89.6-4.23,2.44-6.23,6.69-6.42,5.66-.24,11.33-.3,16.96-.03,3.92.18,5.33,2.77,4.28,6.93h-6.57c-.03-1.7-.99-2.25-2.44-2.25-3.32.03-6.63.03-9.91.12-1.24.03-2.11.79-2.08,2.13,0,1.37.99,1.79,2.14,1.79,4.67.12,9.34.12,13.98.3,3.83.15,5.3,1.92,5.12,5.75-.07,1.11-.23,2.2-.48,3.28-.6,2.64-2.2,4.26-4.88,4.68-1.02.18-2.08.43-3.13.46-5,.06-10.03.24-15.04,0-5.12-.21-6.39-2.1-5.45-7.33ZM67.53,48.86c.06-.97.09-1.76.12-2.61h157.96c-.06.88-.09,1.7-.15,2.61H67.53h0Z"/>
      <path class="cls-1" d="M6.33,74.97h37.46c3.1,0,3.98-.73,4.25-3.77.99-11.16,1.93-22.29,2.89-33.44.81-9.58,1.66-19.15,2.47-28.76.03-.24.09-.46.15-.73,1.69.76,2.38,1.95,2.23,4.07-.33,4.34-.69,8.68-1.08,13.01-.85,9.88-1.71,19.76-2.59,29.64-.54,6.35-1.05,12.71-1.63,19.06-.24,2.92-1.21,3.77-4.13,3.77H9.76c-2.26.03-3.19-.7-3.43-2.86ZM173.63,62.45h-10.37c.21-1.98.39-3.8.57-5.69h27.84c-.21,1.92-.39,3.74-.6,5.65h-10.37c-.65,5.91-1.3,11.82-1.93,17.72h-7.02c.63-5.84,1.24-11.64,1.87-17.69ZM107.64,74.46h16c-.18,1.98-.36,3.8-.54,5.68h-23.14c.84-7.78,1.66-15.5,2.5-23.35h7.02c-.61,5.89-1.22,11.78-1.84,17.67Z"/>
      <path class="cls-1" d="M26.7,51.93c1.02-4.07,3.22-6.51,6.84-7.51,3.16-.88,6.6.09,8.56,2.4-5.85-.76-10.88.82-15.4,5.11ZM3.8,57.37c.78-3.31,2.47-5.38,5.27-6.39,3.1-1.12,5.91-.46,8.71,1.92-5.45-.73-9.91.67-13.98,4.47Z"/>
    </g>
  </g>
</svg>