<?xml version="1.0" encoding="UTF-8"?>
<svg id="Layer_2" data-name="Layer 2" xmlns="http://www.w3.org/2000/svg" viewBox="0 0 162.75 66.83">
  <defs>
    <style>
      .cls-1 {
        fill: #fff;
        stroke-width: 0px;
      }
    </style>
  </defs>
  <g id="Layer_1-2" data-name="Layer 1">
    <path class="cls-1" d="M3.87,48.86L13.98,0h16.99l-7.37,35.61h12.97l-2.74,13.25H3.87ZM97.54,48.86l.2-6.84h-6.67l-2.79,6.84h-16.55L93.67,0h18.7l2.15,48.86h-16.98ZM99.53,17.2l-4.51,13.28h3.67l.84-13.28h0ZM160.46,21.19c-2.01,7.27-7.67,10.75-14.53,10.99-3.09.06-9.38-.06-9.38-.06l-3.46,16.74h-16.5L126.71,0h24.93C159.6,0,163.63,4.46,162.58,10.87c-.26,1.7-.56,3.39-.91,5.07-.35,1.76-.76,3.52-1.22,5.25h0ZM145.11,11.33c-.24-.92-.78-1.4-2.07-1.4h-2.01l-2.87,12.92s1.21.06,1.99.06c1.31-.02,2.49-.81,3-2.01.21-.67,1.43-5.28,1.6-6.08.19-.85.6-2.5.36-3.48ZM70.23,48.86l2.68-13.26h-33.9l-2.74,13.25h33.97ZM73.8,30.95l2.68-13.25h-33.77l-2.74,13.25s33.83,0,33.83,0ZM132.87,53.58H2.74l-2.74,13.25,132.87-13.25h0ZM80.04,0h-33.67l-2.74,13.26h33.76l2.65-13.26h0Z"/>
  </g>
</svg>