<?xml version="1.0" encoding="UTF-8"?>
<svg id="Layer_2" data-name="Layer 2" xmlns="http://www.w3.org/2000/svg" viewBox="0 0 227 57">
  <defs>
    <style>
      .cls-1, .cls-2 {
        fill: #fff;
        stroke-width: 0px;
      }

      .cls-2 {
        fill-rule: evenodd;
      }
    </style>
  </defs>
  <g id="Layer_1-2" data-name="Layer 1">
    <g>
      <rect class="cls-1" x="78.1" width="5.04" height="5.02"/>
      <rect class="cls-1" x="78.1" y="5.78" width="5.04" height="5.02"/>
      <rect class="cls-1" x="78.1" y="11.55" width="5.04" height="5.02"/>
      <rect class="cls-1" x="72.31" y="5.78" width="5.04" height="5.02"/>
      <rect class="cls-1" x="72.31" y="11.55" width="5.04" height="5.02"/>
      <rect class="cls-1" x="72.31" y="17.33" width="5.04" height="5.02"/>
      <rect class="cls-1" x="72.31" y="23.1" width="5.04" height="5.02"/>
      <rect class="cls-1" x="72.31" y="28.88" width="5.04" height="5.02"/>
      <rect class="cls-1" x="72.31" y="34.65" width="5.04" height="5.02"/>
      <rect class="cls-1" x="72.31" y="40.43" width="5.04" height="5.02"/>
      <rect class="cls-1" x="112.87" y="40.43" width="5.04" height="5.02"/>
      <rect class="cls-1" x="112.87" y="34.65" width="5.04" height="5.02"/>
      <rect class="cls-1" x="112.87" y="28.88" width="5.04" height="5.02"/>
      <rect class="cls-1" x="112.87" y="23.1" width="5.04" height="5.02"/>
      <rect class="cls-1" x="107.07" y="28.88" width="5.04" height="5.02"/>
      <rect class="cls-1" x="107.07" y="23.1" width="5.04" height="5.02"/>
      <rect class="cls-1" x="101.28" y="28.88" width="5.04" height="5.02"/>
      <rect class="cls-1" x="101.28" y="23.1" width="5.04" height="5.02"/>
      <rect class="cls-1" x="95.49" y="28.88" width="5.04" height="5.02"/>
      <rect class="cls-1" x="95.49" y="23.1" width="5.04" height="5.02"/>
      <rect class="cls-1" x="78.1" y="40.43" width="5.04" height="5.02"/>
      <rect class="cls-1" x="118.67" y="40.43" width="5.04" height="5.02"/>
      <rect class="cls-1" x="118.67" y="34.65" width="5.04" height="5.02"/>
      <rect class="cls-1" x="118.67" y="28.88" width="5.04" height="5.02"/>
      <rect class="cls-1" x="118.67" y="23.1" width="5.04" height="5.02"/>
      <rect class="cls-1" x="72.31" y="46.2" width="5.04" height="5.02"/>
      <rect class="cls-1" x="95.49" y="46.2" width="5.04" height="5.02"/>
      <rect class="cls-1" x="95.49" y="51.98" width="5.04" height="5.02"/>
      <rect class="cls-1" x="83.9" y="46.2" width="5.04" height="5.02"/>
      <rect class="cls-1" x="83.9" y="51.98" width="5.04" height="5.02"/>
      <rect class="cls-1" x="107.07" y="46.2" width="5.04" height="5.02"/>
      <rect class="cls-1" x="107.07" y="51.98" width="5.04" height="5.02"/>
      <rect class="cls-1" x="89.69" y="46.2" width="5.04" height="5.02"/>
      <rect class="cls-1" x="89.69" y="51.98" width="5.04" height="5.02"/>
      <rect class="cls-1" x="112.87" y="46.2" width="5.04" height="5.02"/>
      <rect class="cls-1" x="66.51" y="11.55" width="5.04" height="5.02"/>
      <rect class="cls-1" x="66.51" y="17.33" width="5.04" height="5.02"/>
      <rect class="cls-1" x="66.51" y="23.1" width="5.04" height="5.02"/>
      <rect class="cls-1" x="66.51" y="28.88" width="5.04" height="5.02"/>
      <rect class="cls-1" x="66.51" y="34.65" width="5.04" height="5.02"/>
      <rect class="cls-1" x="66.51" y="40.43" width="5.04" height="5.02"/>
      <rect class="cls-1" x="107.07" y="40.43" width="5.04" height="5.02"/>
      <rect class="cls-1" x="78.1" y="46.2" width="5.04" height="5.02"/>
      <rect class="cls-1" x="78.1" y="51.98" width="5.04" height="5.02"/>
      <rect class="cls-1" x="101.28" y="46.2" width="5.04" height="5.02"/>
      <rect class="cls-1" x="101.28" y="51.98" width="5.04" height="5.02"/>
      <rect class="cls-1" x="83.9" width="5.04" height="5.02"/>
      <rect class="cls-1" x="83.9" y="5.78" width="5.04" height="5.02"/>
      <rect class="cls-1" x="89.69" width="5.04" height="5.02"/>
      <rect class="cls-1" x="89.69" y="5.78" width="5.04" height="5.02"/>
      <rect class="cls-1" x="95.49" width="5.04" height="5.02"/>
      <rect class="cls-1" x="95.49" y="5.78" width="5.04" height="5.02"/>
      <rect class="cls-1" x="101.28" width="5.04" height="5.02"/>
      <rect class="cls-1" x="101.28" y="5.78" width="5.04" height="5.02"/>
      <rect class="cls-1" x="107.07" y="5.78" width="5.04" height="5.02"/>
      <rect class="cls-1" x="107.07" y="11.55" width="5.04" height="5.02"/>
      <rect class="cls-1" x="112.87" y="5.78" width="5.04" height="5.02"/>
      <rect class="cls-1" x="112.87" y="11.55" width="5.04" height="5.02"/>
      <rect class="cls-1" y="5.78" width="5.04" height="5.02"/>
      <rect class="cls-1" x="5.79" y="11.55" width="5.04" height="5.02"/>
      <rect class="cls-1" x="5.79" y="17.33" width="5.04" height="5.02"/>
      <rect class="cls-1" x="5.79" y="23.1" width="5.04" height="5.02"/>
      <rect class="cls-1" x="5.79" y="28.88" width="5.04" height="5.02"/>
      <rect class="cls-1" x="5.79" y="34.65" width="5.04" height="5.02"/>
      <rect class="cls-1" x="5.79" y="40.43" width="5.04" height="5.02"/>
      <rect class="cls-1" x="5.79" y="46.2" width="5.04" height="5.02"/>
      <rect class="cls-1" x="5.79" y="51.98" width="5.04" height="5.02"/>
      <rect class="cls-1" y="11.55" width="5.04" height="5.02"/>
      <rect class="cls-1" y="17.33" width="5.04" height="5.02"/>
      <rect class="cls-1" y="23.1" width="5.04" height="5.02"/>
      <rect class="cls-1" y="28.88" width="5.04" height="5.02"/>
      <rect class="cls-1" y="34.65" width="5.04" height="5.02"/>
      <rect class="cls-1" y="40.43" width="5.04" height="5.02"/>
      <rect class="cls-1" y="46.2" width="5.04" height="5.02"/>
      <rect class="cls-1" y="51.98" width="5.04" height="5.02"/>
      <rect class="cls-1" x="5.79" width="5.04" height="5.02"/>
      <rect class="cls-1" x="5.79" y="5.78" width="5.04" height="5.02"/>
      <rect class="cls-1" x="11.59" width="5.04" height="5.02"/>
      <rect class="cls-1" x="11.59" y="5.78" width="5.04" height="5.02"/>
      <rect class="cls-1" x="17.38" width="5.04" height="5.02"/>
      <rect class="cls-1" x="17.38" y="5.78" width="5.04" height="5.02"/>
      <rect class="cls-1" x="23.18" width="5.04" height="5.02"/>
      <rect class="cls-1" x="23.18" y="5.78" width="5.04" height="5.02"/>
      <rect class="cls-1" x="28.97" width="5.04" height="5.02"/>
      <rect class="cls-1" x="28.97" y="5.78" width="5.04" height="5.02"/>
      <rect class="cls-1" x="34.77" width="5.04" height="5.02"/>
      <rect class="cls-1" x="34.77" y="5.78" width="5.04" height="5.02"/>
      <rect class="cls-1" x="40.56" y="11.55" width="5.04" height="5.02"/>
      <rect class="cls-1" x="40.56" width="5.04" height="5.02"/>
      <rect class="cls-1" x="46.36" width="5.04" height="5.02"/>
      <rect class="cls-1" x="40.56" y="5.78" width="5.04" height="5.02"/>
      <rect class="cls-1" x="46.36" y="5.78" width="5.04" height="5.02"/>
      <rect class="cls-1" x="46.36" y="11.55" width="5.04" height="5.02"/>
      <rect class="cls-1" x="46.36" y="17.33" width="5.04" height="5.02"/>
      <rect class="cls-1" x="46.36" y="23.1" width="5.04" height="5.02"/>
      <rect class="cls-1" x="46.36" y="28.88" width="5.04" height="5.02"/>
      <rect class="cls-1" x="46.36" y="34.65" width="5.04" height="5.02"/>
      <rect class="cls-1" x="40.56" y="28.88" width="5.04" height="5.02"/>
      <rect class="cls-1" x="40.56" y="34.65" width="5.04" height="5.02"/>
      <rect class="cls-1" x="52.15" y="11.55" width="5.04" height="5.02"/>
      <rect class="cls-1" x="52.15" y="17.33" width="5.04" height="5.02"/>
      <rect class="cls-1" x="52.15" y="23.1" width="5.04" height="5.02"/>
      <rect class="cls-1" x="52.15" y="28.88" width="5.04" height="5.02"/>
      <rect class="cls-1" x="34.77" y="34.65" width="5.04" height="5.02"/>
      <rect class="cls-1" x="34.77" y="40.43" width="5.04" height="5.02"/>
      <rect class="cls-1" x="28.97" y="34.65" width="5.04" height="5.02"/>
      <rect class="cls-1" x="28.97" y="40.43" width="5.04" height="5.02"/>
      <rect class="cls-1" x="23.18" y="34.65" width="5.04" height="5.02"/>
      <rect class="cls-1" x="23.18" y="40.43" width="5.04" height="5.02"/>
      <rect class="cls-1" x="17.38" y="34.65" width="5.04" height="5.02"/>
      <rect class="cls-1" x="17.38" y="40.43" width="5.04" height="5.02"/>
      <rect class="cls-1" x="11.59" y="34.65" width="5.04" height="5.02"/>
      <rect class="cls-1" x="11.59" y="40.43" width="5.04" height="5.02"/>
      <path class="cls-1" d="M135.54,20.84h7.56v3.77h-5.54v7.53h3.53v-2.01h-1.76v-3.77h5.79v7.78h-2.02v1.76h-7.56v-1.76h-2.02v-11.55h2.02v-1.76Z"/>
      <path class="cls-2" d="M200.29,20.84h-9.57v1.76h-2.01v5.78h2.01v1.76h5.54v2.01h-7.56v3.77h9.57v-1.76h2.02v-5.78h-1.76v-2.01h-5.79v-1.76h7.56v-3.77Z"/>
      <path class="cls-2" d="M156.46,20.84h-7.56v1.76h-2.02v13.31h4.03v-3.77h3.53v3.77h4.03v-13.31h-2.02v-1.76ZM154.44,24.61h-3.53v3.77h3.53v-3.77Z"/>
      <path class="cls-2" d="M173.84,20.84h-2.02v1.76h-2.01v2.01h-2.02v1.76h-1.76v-1.76h-1.76v-2.01h-2.01v-1.76h-2.02v15.07h4.03v-5.78h1.76v2.01h2.01v-2.01h1.76v5.78h4.03v-15.07Z"/>
      <path class="cls-2" d="M179.13,20.84h-3.53v15.07h11.59v-3.77h-7.56v-2.01h5.54v-3.77h-5.54v-1.76h7.56v-3.77h-8.06Z"/>
      <path class="cls-2" d="M145.12,41.93h-9.57v1.76h-2.02v5.78h2.02v1.76h5.54v2.01h-7.56v3.77h9.57v-1.76h2.02v-5.78h-1.76v-2.01h-5.79v-1.76h7.56v-3.77Z"/>
      <path class="cls-2" d="M177.37,41.93h-3.53v3.77h3.53v11.3h4.03v-11.3h4.03v-3.77h-8.06Z"/>
      <path class="cls-2" d="M160.24,41.93h11.59v3.77h-7.56v2.01h5.54v3.77h-5.54v5.52h-4.03v-15.07Z"/>
      <path class="cls-2" d="M148.9,41.93h7.56v1.76h2.02v11.3h-2.02v2.01h-7.56v-2.01h-2.02v-11.3h2.02v-1.76ZM154.44,53.23v-7.53h-3.53v7.53h3.53Z"/>
      <path class="cls-1" d="M177.62,0h-4.03v15.07h4.03v-5.78h3.53v5.78h4.03v-5.78h-2.01v-3.77h2.01V0h-4.03v5.52h-3.53V0Z"/>
      <path class="cls-1" d="M200.29,0v3.52h3.53v11.55h4.03V3.52h4.03V0h-11.59Z"/>
      <path class="cls-1" d="M186.94,0v15.07h11.59v-3.77h-7.56v-2.01h5.54v-3.77h-5.54v-1.76h7.56V0h-11.59Z"/>
      <path class="cls-1" d="M169.81,0h-7.56v2.01h-2.02v11.05h2.02v2.01h7.56v-2.01h2.01v-3.77h-4.03v2.01h-3.53V3.77h3.53v2.01h4.03v-3.77h-2.01V0Z"/>
      <path class="cls-2" d="M148.9,0h7.56v2.01h2.02v11.05h-2.02v2.01h-7.56v-2.01h-2.02V2.01h2.02V0ZM154.44,11.3V3.77h-3.53v7.53h3.53Z"/>
      <path class="cls-2" d="M133.53,0v15.07h4.03v-5.52h5.79v-1.76h1.76V1.76h-1.76V0h-9.83ZM141.09,3.77h-3.53v2.01h3.53v-2.01Z"/>
      <path class="cls-2" d="M215.41,1V0h4.28v1h-1.51v5.52h-1.26V1h-1.51ZM221.84,0h-1.13v6.53h1.26v-3.64l1.29,2.38h1.23s1.26-2.38,1.26-2.38v3.64h1.26V0h-1.01l-2.14,3.77-2.02-3.77Z"/>
    </g>
  </g>
</svg>