<?xml version="1.0" encoding="UTF-8"?>
<svg id="Layer_2" data-name="Layer 2" xmlns="http://www.w3.org/2000/svg" viewBox="0 0 225.87 66.91">
  <defs>
    <style>
      .cls-1 {
        fill: #fff;
        stroke-width: 0px;
      }
    </style>
  </defs>
  <g id="Layer_1-2" data-name="Layer 1">
    <g>
      <path class="cls-1" d="M55.22,41.38c-.23,2.5-.91,3.19-3.42,3.76-.34.11-.57.46-.91.68.34.11.68.34.91.34h8.78c.34,0,.68-.34,1.03-.46-.34-.23-.57-.57-.8-.57-1.83-.34-2.97-1.25-3.08-3.19-.11-1.02-.23-2.16-.23-3.19v-20.72l.23-.11.34.68c3.42,8.77,6.96,17.54,10.38,26.19.23.46.57.91.91,1.37.34-.46.57-.91.8-1.37,3.54-9,6.96-18.1,10.5-27.1.11-.34.23-.57.34-.91.11.23.23.57.23.8v22.89c0,.91-.11,1.82-.23,2.62-.11.8-.8,1.48-1.6,1.71-.46.11-1.03.23-1.48.34-.29.15-.56.34-.8.57.34.11.57.46.91.46h11.18c.23,0,.46-.34.57-.46-.23-.23-.34-.46-.57-.57s-.57-.11-.91-.23c-1.71-.34-2.28-.91-2.39-2.62-.11-.8-.11-1.59-.11-2.39v-22.43c0-.57,0-1.25.11-1.82.23-2.39.68-2.96,3.08-3.42.34-.11.57-.46.8-.57-.23-.11-.57-.46-.8-.46h-6.73c-1.14,0-1.6.34-1.94,1.37-2.97,8.2-6.05,16.28-9.13,24.37l-.46.91c-.23-.57-.34-.91-.57-1.25-3.19-8.08-6.39-16.17-9.58-24.25-.34-.8-.8-1.14-1.71-1.14-2.17.12-4.33,0-6.62,0-.46,0-1.26-.34-1.26.46s.8.57,1.14.57c2.17.34,2.74.91,2.97,2.96.11.57.11,1.14.11,1.71v21.75c.23,1.02.11,1.82,0,2.73ZM2.4,46.17h10.04c.23,0,.46,0,.68-.11v-1.14l-1.71-.34c-1.71-.34-2.51-1.37-2.28-3.07,0-.46.11-1.03.23-1.48l2.74-8.2c.23-.34.57-.57.91-.57h14.03c.46-.11.91.23,1.03.68.8,2.28,1.71,4.44,2.51,6.72.46,1.25.68,2.5.8,3.76.11,1.37-.34,1.82-1.71,2.16-.8.11-1.6.23-2.4.46v1.03c.11,0,.23.11.34.11h14.03c.23,0,.69-.34.57-.46-.11-.34-.34-.8-.57-.8-1.71-.34-2.85-1.37-3.54-3.07-.23-.68-.57-1.37-.91-2.05C32.29,26.81,27.38,13.82,22.48.96c-.23-.46-.23-1.14-1.03-.91-.46.23-.68.57-.91.91-3.99,10.93-7.99,21.86-11.98,32.91-1.03,2.85-2.28,5.58-3.42,8.43-.57,1.37-1.71,2.39-3.08,2.73-.46.11-.91.23-.8.91.23.46.68.23,1.14.23h0ZM19.97,10.07h.34l6.73,18.45h-13.69l6.62-18.45h0ZM225.65,49.92H0v1.37h225.65v-1.37ZM225.43,41.27c.57-.68.68-1.25-.23-1.71-1.03.91-2.05,1.94-3.08,2.73-3.2,2.39-6.62,3.19-10.5,1.94-3.42-1.14-5.36-3.76-6.73-6.95-1.6-4.1-1.6-8.2-1.03-12.53.34-3.08,1.37-6.04,3.42-8.54,4.11-5.01,11.29-4.78,14.83.68.91,1.48,1.48,3.19,2.17,4.9.23.57.46.91,1.14.68,0-.11.11-.11.11-.23l-.34-10.93c0-.23-.23-.57-.34-.57-.34,0-.57.23-.8.46-.8,1.14-1.37,1.37-2.74,1.03-.8-.23-1.71-.57-2.51-.8-6.5-1.94-13.01,0-16.66,5.58-4.9,7.4-5.25,15.37-.91,23.12,5.13,9,17.68,9.57,24.18,1.14ZM105.41,46.28h3.42c.23,0,.46-.23.68-.34-.13-.24-.33-.44-.57-.57-.23-.11-.57-.11-.91-.23-1.14-.23-1.6-.91-1.6-2.05,0-.57.11-1.14.34-1.71.57-1.94,1.25-3.87,1.94-5.92.23-.57.46-.68,1.03-.68h10.5c.57-.11,1.03.23,1.14.8.34,1.03.8,2.05,1.14,3.19.47,1.39.89,2.79,1.25,4.21.34,1.37-.11,1.94-1.6,2.16-.23,0-.46,0-.68.11-.34.11-.57.34-.8.57.34.11.57.46.91.46h9.81c.34,0,.57-.23.91-.34-.23-.23-.46-.57-.68-.68-1.03-.23-1.82-.91-2.28-1.94-.46-1.14-.91-2.28-1.37-3.3-3.65-9.45-7.19-19.02-10.84-28.47-.11-.34-.46-.57-.8-.91-.23.34-.68.57-.8.8-2.17,5.92-4.33,11.96-6.62,17.88-1.6,4.44-3.31,8.77-5.02,13.21-.46,1.25-1.25,2.28-2.74,2.73-.23.11-.34.46-.57.57.23.11.46.46.68.46h4.11ZM114.88,18.38h.23l5.13,14.24h-10.5l5.13-14.23h0ZM137.58,20.09c.23-.23.68-.34.68-.57.34-.91.46-1.94.8-2.85.57-1.94,1.83-2.96,3.88-3.19,1.37-.11,2.62-.11,3.99-.23.91-.11,1.14.23,1.14,1.14v25.74c0,1.02-.11,2.05-.34,2.96-.12.8-.68,1.48-1.48,1.59-.8.23-1.6.34-2.4.57-.34.8.11.91.8.91h11.98c.23,0,.46-.23.46-.34,0-.24-.13-.46-.34-.57-.23-.11-.57-.11-.8-.11-2.51-.34-3.08-.91-3.19-3.42V14.17c0-.34.11-.57.11-.91,1.83.11,3.54.11,5.25.34,1.6.11,2.85,1.14,3.31,2.62.34,1.02.68,2.05.91,3.07.11.46.23.91.8.8.23-.11.46-.57.46-.91,0-2.28-.11-4.67-.11-6.95,0-.8-.23-1.14-1.14-1.14h-23.73c-.34,0-.57,0-1.26.12v8.2c-.11.23.11.46.23.68h0ZM174.77,12.12c2.74.34,3.42,1.02,3.54,3.76.11,3.19.11,6.38.11,9.56,0,5.35,0,10.59-.11,15.94,0,2.96-.57,3.42-3.54,3.87q-.11,0-.23.11c-.11,0-.11.11-.23.11l-.11.11c-.11.11-.23.23-.34.23.11,0,.11.11.23.11l.11.11c.11,0,.11.11.23.11s.23.11.34.11h11.87c.11,0,.23-.11.34-.11l.11-.11.11-.11-.23-.23-.34-.34c-.23-.11-.57-.11-.91-.11-2.17-.34-2.62-.91-2.85-2.96v-25.62c0-3.3.68-3.99,3.76-4.33.23,0,.34-.34.57-.57-.23-.11-.46-.46-.68-.46h-11.98c-.57,0-1.03.11-.68.8.23-.11.68,0,.91,0h0Z"/>
      <path class="cls-1" d="M173.97,45.82c.12,0,.12.11.23.11-.12,0-.23-.11-.23-.11ZM180.71,46.17h-5.82c1.82.11,3.76,0,5.82,0h6.05c-2.05.11-4.11,0-6.05,0ZM174.43,46.17c-.11,0-.11-.11-.23-.11.12,0,.23,0,.23.11ZM187.32,45.82l-.11.11.11-.11ZM187.44,45.82l-.23-.23.23.23ZM187.21,45.94l-.11.11.11-.11ZM25.55,56.19v5.35c-.11-.11-.11-.23-.23-.34-.46-1.37-.8-2.73-1.25-4.1-.11-.23-.11-.46-.23-.68,0-.11-.11-.11-.11-.11-.23-.34-.57-.34-1.48,0v10.48h1.48v-5.47c.57,1.48,1.14,2.85,1.48,4.33q.34,1.25,1.83,1.03v-9.22c.23-1.59.11-1.71-1.48-1.25Z"/>
      <path class="cls-1" d="M23.73,56.19c-.23-.34-.57-.34-1.48,0v10.47-10.47c.91-.23,1.25-.34,1.48,0ZM52.71,57.67c0-1.14-.46-1.59-1.6-1.59h-2.51c-.8,0-1.03.23-1.03,1.03v8.77c0,.34,0,.57.11.91,1.26,0,2.51.11,3.65,0,.8-.11,1.37-.57,1.37-1.48v-7.63ZM51,65.52h-1.71v-7.86c0-.57.23-.8.68-.68.34.11.91.34.91.46.11,2.85.11,5.47.11,8.08ZM152.98,61.2c0-1.25.23-2.39.34-3.64,0-1.03-.46-1.48-1.48-1.59h-2.62c-.8,0-1.03.23-1.03,1.03v8.88c0,.34,0,.57.11.91h1.6v-3.87c0-.57.11-.91.8-.91s.91.23.91.91v2.5c0,1.48.34,1.71,1.71,1.37v-3.42c0-.8-.34-1.48-.34-2.16h0ZM151.61,58.01v2.39c0,.11,0,.23-.11.23-1.48.34-1.6.34-1.6-1.14v-1.48c0-.68.11-.91.91-.91s.91.34.8.91h0ZM76.55,56.19v9.34h-1.71v-8.54c0-.57,0-1.03-.8-1.03s-.91.34-.91.91v7.86c0,1.37.91,2.05,2.51,2.05s2.51-.68,2.51-2.16v-7.4c0-1.37-.11-1.48-1.6-1.02h0ZM102.22,60.85c-.68-.11-1.6,0-1.82-.34-.34-.46-.11-1.37-.11-2.05v-.46c0-.57.11-1.02.8-1.02s.91.23.91.91c0,.23,0,.46.11.68h1.48c.34-1.71-.34-2.62-1.94-2.73-2.05-.23-2.97.57-2.97,2.62v.46q0,2.62,2.62,2.85c.23,0,.68.34.68.46.11,1.03,0,2.16,0,3.19h-1.6l-.23-1.82c-.57.23-1.37.34-1.48.57-.34.68,0,1.59.68,1.94.91.57,2.62.68,3.54,0,.46-.34.68-.8.8-1.37.11-.83.11-1.67,0-2.5,0-.91-.46-1.25-1.48-1.37ZM223.03,60.74c-.23-.11-.46-.23-.57-.46-.11-.87-.11-1.75,0-2.62,0-.23.57-.46.8-.46.34,0,.8.34.8.46-.11,1.25.68,1.25,1.6,1.03.23-1.82-.46-2.73-2.17-2.73-.46,0-.91,0-1.37.11-.91.23-1.48.8-1.37,1.82v2.39c-.11,1.03.46,1.48,1.37,1.59.68.11,1.6,0,1.94.34.34.46.11,1.37.11,2.05v.34c.11.8-.23,1.03-1.03,1.03-.68,0-.68-.46-.68-.91.11-.68-.34-.8-.91-.8-.68,0-.68.34-.8.8-.11.8.34,1.48,1.03,1.71,2.17,1.03,3.99-.11,3.99-2.39q.11-2.85-2.74-3.3h0ZM198.39,57.1h1.82c.23,0,.46-.34.68-.46-.23-.23-.34-.57-.57-.57h-2.97c-1.03,0-1.48.57-1.48,1.6v7.52c0,1.03.46,1.59,1.6,1.59h2.62c.8,0,1.03-.34.68-1.14h-3.2v-1.48c0-.68-.11-1.48.23-2.05.23-.34,1.14-.11,1.71-.23h.11c.11-.11.46-.34.46-.46,0-.23-.23-.46-.46-.57-.46-.11-.91-.11-1.26,0-.57,0-.8-.23-.8-.8v-2.05c-.23-.8.11-1.02.8-.91h0ZM128,56.07h-4.56v.91q1.71.23,1.71,1.94v6.72c0,.34,0,.68.11,1.03h1.6v-8.2c0-.8,0-1.48,1.14-1.37.11,0,.46-.34.46-.57-.11-.23-.23-.46-.46-.46h0ZM.91,55.96c-.8,0-.8.34-.8,1.03v9.68q1.71.11,1.71-1.37v-8.31c0-.68-.11-1.03-.91-1.03ZM174.54,55.96c-.68,0-.8.34-.8.91v9.79c.34,0,.46.11.57.11h.91c0-.34.11-.57.11-.68v-9.22c0-.68-.11-.91-.8-.91Z"/>
    </g>
  </g>
</svg>