<?xml version="1.0" encoding="UTF-8"?>
<svg id="Layer_2" data-name="Layer 2" xmlns="http://www.w3.org/2000/svg" viewBox="0 0 226 53">
  <defs>
    <style>
      .cls-1 {
        fill: #fff;
        stroke-width: 0px;
      }
    </style>
  </defs>
  <g id="Layer_1-2" data-name="Layer 1">
    <path class="cls-1" d="M74.86,53c-.47-.71-3.88-5.58-8.36-12-3.06-4.4-6.59-9.63-10.24-14.74C47.44,13.19,38.49.24,38.37,0c-.35.59-15.07,21.86-15.07,21.86,0,0-14.6,0-23.31,2.74,4.24.36,8,.95,11.18,1.54,4.83.83,7.89,1.78,7.89,1.78l-7.42,10.69-4.24,6.18h22.25l3.65-12.83c7.89,2.38,14.95,5.47,21.07,8.56,10.47,4.99,17.77,10.34,20.48,12.48h0ZM42.85,26.03s-2.83-1.07-7.18-2.14l2.24-7.72,4.94,9.86ZM225.88,43.38H75.69v1.07h150.2v-1.07h0ZM225.88,30.66H75.69v1.07h150.2v-1.07ZM54.73,12.6v8.2l5.18,7.49v-15.69h-5.18ZM79.22,12.6v11.41l-9.65-11.41h-7.89v15.69h5.18v-11.41l9.65,11.41h7.89v-15.69h-5.18,0ZM97.23,18.54c-5.42,0-6.12,0-6.12-1.43,0-.83.82-1.19,1.88-1.19h5.65c2.35,0,2.47.47,2.47,1.66h5.18v-.47c0-2.73-.59-4.63-6.47-4.63h-7.06c-6.47,0-6.71,2.14-6.71,4.99,0,3.8.82,4.75,8.59,4.75,6.59,0,7.18.12,7.18,1.43,0,1.19-1.06,1.31-2.24,1.31h-6.24c-1.41,0-2.24-.12-2.24-1.78h-5.18v1.07c0,3.44,1.88,4.28,6.47,4.28h6.12c6.83,0,8.24-.71,8.24-4.87.24-4.75-1.53-5.23-9.53-5.11h0ZM132.66,12.6l-3.53,11.53-4.24-11.53h-4.71l-4.24,11.53-3.53-11.53h-5.06l5.42,15.69h5.89l3.88-10.34,3.89,10.34h5.88l5.41-15.69h-5.06ZM153.26,12.36h-8.12c-4.59,0-7.3,1.07-7.3,5.7v4.63c0,4.64,2.71,5.7,7.3,5.7h8.12c4.59,0,7.3-1.07,7.3-5.7v-4.63c0-4.63-2.71-5.7-7.3-5.7ZM155.38,21.27c0,2.26-.47,3.21-2.94,3.21h-6.47c-2.35,0-2.94-.83-2.94-3.21v-1.66c0-1.9.47-3.21,3.18-3.21h6c2.71,0,3.18,1.19,3.18,3.21v1.66ZM182.68,18.18v-.95c0-2.85-1.06-4.63-4.94-4.63h-15.42v15.69h5.06v-4.04h8c1.53,0,2.12.47,2.12,2.26v1.9h5.18v-2.61c0-2.61-1.29-3.21-2.82-3.45v-.12c2.35-.71,2.82-1.9,2.82-4.04h0ZM177.74,18.66c0,1.19-.47,1.66-1.88,1.66h-8.48v-3.8h8c1.65,0,2.35.24,2.35,1.66v.47h0ZM184.21,12.6v3.92h7.18v11.76h5.06v-11.76h7.18v-3.92h-19.42,0ZM220.94,12.6v5.58h-10.83v-5.59h-5.18v15.69h5.18v-5.94h10.83v5.94h5.06v-15.68h-5.06,0ZM77.1,39.93v-1.78h4.12v-1.19h-4.12v-1.54h5.77v-1.19h-7.06v7.01h7.42v-1.19s-6.12-.12-6.12-.12ZM89.22,37.55l3.41-3.45h-1.65l-2.59,2.73-2.59-2.61h-1.65l3.41,3.45-3.53,3.57h1.65l2.71-2.73,2.71,2.73h1.65l-3.53-3.68h0ZM101.23,34.82c-.51-.39-1.13-.6-1.76-.59h-5.53v7.01h1.41v-2.49h4c.82,0,1.41-.24,1.88-.59.47-.36.71-.95.71-1.66,0-.83-.24-1.31-.71-1.66h0ZM99.35,37.31h-4v-2.02h3.88c.82,0,1.29.36,1.29.95,0,.83-.35,1.07-1.18,1.07ZM104.53,39.93v-1.78h4.12v-1.19h-4.12v-1.54h5.77v-1.19h-7.06v7.01h7.42v-1.19s-6.12-.12-6.12-.12ZM118.53,38.5c1.18-.24,1.65-.95,1.65-2.14,0-.71-.24-1.19-.59-1.54-.51-.39-1.13-.6-1.77-.59h-5.53v7.01h1.41v-2.49h3.41l1.76,2.5h1.53l-1.88-2.73h0ZM113.59,37.31v-2.02h3.88c.82,0,1.29.36,1.29.95s-.47.95-1.18.95l-4,.12ZM123.48,34.22h-1.41v7.01h1.41v-7.01h0ZM127.01,39.93v-1.78h4v-1.19h-4v-1.54h5.77v-1.19h-7.06v7.01h7.41v-1.19l-6.12-.12ZM141.49,34.22v5.82l-4.71-5.82h-2v7.01h1.41v-5.82l4.71,5.82h2v-7.01h-1.41ZM149.25,40.05c-.94,0-1.76-.24-2.35-.71s-.82-1.07-.82-1.78.35-1.31.82-1.78c.59-.47,1.41-.71,2.35-.71,1.18,0,2.12.36,2.82,1.07l1.29-.48c-1.06-1.31-2.35-1.9-4.12-1.9-1.18,0-2.24.36-3.06.95-.94.71-1.41,1.66-1.41,2.73s.47,2.02,1.29,2.61c.82.71,2,1.07,3.3,1.07,1.65,0,2.94-.6,4-1.78l-1.18-.59c-.82.95-1.77,1.31-2.94,1.31h0ZM156.32,39.93v-1.78h4v-1.19h-4v-1.54h5.77v-1.19h-7.18v7.01h7.42v-1.19l-6-.12ZM171.5,40.05c-.94,0-1.77-.24-2.35-.71-.59-.47-.82-1.07-.82-1.78s.35-1.31.82-1.78c.59-.47,1.41-.71,2.35-.71,1.18,0,2.12.36,2.82,1.07l1.29-.48c-1.06-1.31-2.35-1.9-4.12-1.9-1.18,0-2.24.36-3.06.95-.94.71-1.41,1.66-1.41,2.73s.47,2.02,1.29,2.61c.82.71,2,1.07,3.3,1.07,1.65,0,2.94-.6,4-1.78l-1.18-.59c-.82.95-1.77,1.31-2.94,1.31h0ZM184.33,34.94c-.82-.6-1.88-.95-3.06-.95s-2.24.36-3.06.95c-.94.71-1.41,1.66-1.41,2.73,0,1.19.47,2.02,1.41,2.73.82.59,1.88.95,3.06.95,1.29,0,2.24-.36,3.06-.95.94-.71,1.41-1.66,1.41-2.73,0-1.19-.47-2.14-1.41-2.73h0ZM183.51,39.45c-.59.47-1.29.71-2.24.71s-1.65-.24-2.35-.71c-.59-.47-.82-1.07-.82-1.78s.35-1.31.82-1.78c.59-.47,1.41-.71,2.24-.71.94,0,1.65.24,2.24.71.59.47.82,1.07.82,1.78.12.71-.12,1.31-.71,1.78h0ZM194.22,34.22v4.4c0,1.07-.82,1.54-2.59,1.54s-2.71-.47-2.71-1.54v-4.4h-1.41v4.64c0,.71.35,1.31,1.06,1.78.71.48,1.65.71,2.94.71,1.18,0,2.24-.24,2.94-.71.71-.47,1.06-1.07,1.06-1.78v-4.64h-1.29ZM204.34,34.22v5.82l-4.71-5.82h-2v7.01h1.29v-5.82l4.71,5.82h2v-7.01h-1.29ZM206.93,34.22v1.19h3.3v5.7h1.29v-5.7h3.3v-1.19h-7.89ZM222.35,37.43c-.47-.36-1.29-.48-2.35-.59-.82-.12-1.53-.12-2.35-.24-.59-.12-.82-.36-.82-.59,0-.48.71-.83,2.35-.83,1.02,0,2.03.24,2.94.71l.82-.83c-.94-.71-2.24-1.07-3.77-1.07-1.18,0-2.12.24-2.71.6-.59.36-.94.95-.94,1.54,0,.47.24.95.59,1.31.35.36,1.06.47,1.88.59.24,0,.82,0,1.76.12.59,0,1.06.12,1.41.12.47.12.82.47.82.83s-.24.6-.59.83c-.47.24-1.06.36-1.76.36-1.41,0-2.47-.36-3.53-1.07l-.71.95c1.06.83,2.47,1.19,4.24,1.19,1.29,0,2.24-.24,2.82-.6.59-.47.94-.95.94-1.66-.24-.83-.59-1.31-1.06-1.66h0ZM223.18,34.22h.47v1.43h.24v-1.43h.47v-.12h-1.18v.12h0ZM225.65,33.99l-.47,1.31-.47-1.31h-.35v1.54h.24v-1.31l.47,1.31h.24l.47-1.31v1.31h.23v-1.54h-.35,0Z"/>
  </g>
</svg>