<?xml version="1.0" encoding="UTF-8"?>
<svg id="Layer_2" data-name="Layer 2" xmlns="http://www.w3.org/2000/svg" viewBox="0 0 122.54 113.29">
  <defs>
    <style>
      .cls-1 {
        fill: #fff;
        stroke-width: 0px;
      }
    </style>
  </defs>
  <g id="Layer_1-2" data-name="Layer 1">
    <g>
      <path class="cls-1" d="M83.93,22.89c-2.44,2.5-4.88,4.99-7.32,7.49-4.88,4.97-9.75,9.94-14.64,14.89-.12.13-.19.52-.54.29.18-.2.1-.44.1-.66,0-2.56,0-5.13,0-7.69.14-.12.29-.23.42-.37,2.12-2.13,4.24-4.26,6.36-6.4,2.53-2.55,5.05-5.1,7.57-7.65,2.69-.01,5.38-.02,8.07-.03h0s-.01.09-.02.14h0Z"/>
      <path class="cls-1" d="M83.95,22.75c-2.69.01-5.38.02-8.06.03-4.75-4.78-9.5-9.56-14.24-14.34-.03-.03-.07-.04-.1-.06,0-2.79,0-5.58,0-8.38.92.62,1.59,1.49,2.36,2.27,3.01,3.04,6,6.11,9,9.16,3.58,3.65,7.16,7.3,10.74,10.95.12.12.21.25.31.38h0Z"/>
      <path class="cls-1" d="M61.54,0c0,2.79,0,5.58,0,8.38-4.77,4.8-9.54,9.61-14.31,14.41h-8.08c1.16-1.21,2.32-2.43,3.49-3.62,6.14-6.26,12.29-12.51,18.43-18.76.14-.15.31-.27.46-.4h0Z"/>
      <path class="cls-1" d="M39.15,22.79h8.08c.07.08.13.16.21.23,4.7,4.73,9.4,9.46,14.1,14.18,0,2.56,0,5.13,0,7.69,0,.22.08.46-.1.66-3.94-4.01-7.89-8.02-11.83-12.03-3.35-3.4-6.69-6.81-10.03-10.22-.15-.16-.37-.26-.41-.52h0Z"/>
      <path class="cls-1" d="M21.96,49.82c-.09-.14.06-.18.12-.24,5.57-5.67,11.14-11.34,16.71-17.01.1-.1.16-.25.34-.23,0,1.98,0,3.95,0,5.93-.14.12-.29.23-.42.36-1.74,1.75-3.48,3.5-5.22,5.25-1.95,1.98-3.9,3.96-5.85,5.93-1.89,0-3.79,0-5.68.01h0Z"/>
      <path class="cls-1" d="M83.32,32.42c.31-.25.39.11.51.23,3.17,3.21,6.33,6.43,9.49,9.65,2.29,2.33,4.58,4.65,6.87,6.98.15.16.38.26.4.53-1.89,0-3.78,0-5.67,0-.07-.08-.12-.17-.2-.24-3.67-3.69-7.33-7.38-11-11.07-.09-.09-.19-.15-.29-.23,0-1.73,0-3.46,0-5.18,0-.22.07-.46-.1-.66h0Z"/>
      <path class="cls-1" d="M83.56,67.14c-.24.26-.32-.04-.42-.14-3.1-3.15-6.2-6.31-9.3-9.46-2.46-2.5-4.92-5-7.38-7.5-.09-.09-.37-.15-.09-.34.22.14.47.12.72.12h4.89c.15.14.31.28.45.42,3.51,3.53,7.02,7.06,10.53,10.59.17.17.3.41.58.43,0,1.96.01,3.92.02,5.87h0Z"/>
      <path class="cls-1" d="M61.88,67.61c-.06.02-.12.04-.18.04-4.18,0-8.36,0-12.68,0,.37-.39.67-.72.97-1.03,3.79-3.85,7.58-7.7,11.37-11.55.15-.15.24-.41.53-.37,0,4.3,0,8.6-.01,12.9h0Z"/>
      <path class="cls-1" d="M21.96,49.82c1.89,0,3.79,0,5.68-.01,2.93,2.95,5.85,5.89,8.79,8.84.89.9,1.8,1.78,2.7,2.66,0,1.96,0,3.93,0,5.89-.22.07-.29-.13-.39-.24-5.55-5.64-11.1-11.29-16.65-16.94-.05-.06-.09-.13-.13-.2h0Z"/>
      <path class="cls-1" d="M39.13,67.2c0-1.96,0-3.93,0-5.89,3.82-3.84,7.63-7.67,11.45-11.51l5.66-.02c-.77.96-1.67,1.78-2.53,2.65-4.77,4.87-9.55,9.72-14.33,14.58-.07.07-.16.12-.24.18h0Z"/>
      <path class="cls-1" d="M61.88,67.61c0-4.3,0-8.6.01-12.9,1.55,1.41,2.97,2.95,4.44,4.44,2.66,2.68,5.3,5.39,7.95,8.08.1.1.19.21.28.3-.06.17-.17.13-.27.13-3.97,0-7.95,0-11.93,0-.16,0-.33-.04-.49-.06h0Z"/>
      <path class="cls-1" d="M56.23,49.79c-1.89,0-3.77.01-5.66.02-.1-.11-.19-.22-.29-.32-3.72-3.74-7.44-7.48-11.15-11.21,0-1.98,0-3.95,0-5.93,2.1,2.12,4.21,4.23,6.3,6.36,3.43,3.49,6.86,6.98,10.29,10.47.19.19.42.34.51.61h0Z"/>
      <path class="cls-1" d="M71.98,49.81h-4.89c-.25,0-.5.02-.72-.12,1.52-1.56,3.03-3.12,4.56-4.67,4.13-4.2,8.26-8.4,12.39-12.6.17.2.1.44.1.66,0,1.73,0,3.46,0,5.18-1.37,1.37-2.73,2.73-4.09,4.11-2.46,2.48-4.9,4.96-7.36,7.45h0Z"/>
      <path class="cls-1" d="M83.56,67.14c0-1.96-.01-3.92-.02-5.88,3.79-3.82,7.58-7.64,11.37-11.45,1.89,0,3.78,0,5.67,0-1.13,1.3-2.38,2.48-3.59,3.71-4.37,4.45-8.74,8.89-13.11,13.33-.1.1-.22.19-.33.28h0Z"/>
      <path class="cls-1" d="M83.93,22.89s.01-.09.02-.14c.09.06.08.1-.02.14Z"/>
      <path class="cls-1" d="M61.53,12.76c.2-.02.28.15.39.26,3.13,3.14,6.26,6.29,9.39,9.43.09.09.26.16.21.35-1.5,0-3,0-4.5-.01-.49-.27-.99-.51-1.47-.8-1.84-1.13-3.09-2.78-4.02-4.71,0-1.51,0-3.01,0-4.52h0Z"/>
      <path class="cls-1" d="M61.53,32.79c-1.89-1.89-3.79-3.77-5.67-5.66-1.43-1.44-2.84-2.9-4.26-4.34,1.49,0,2.97,0,4.46,0,2.62,1.04,4.31,3.01,5.47,5.52,0,1.49,0,2.99,0,4.49h0Z"/>
      <path class="cls-1" d="M56.05,22.79c-1.49,0-2.97,0-4.46,0,0-.17.15-.24.24-.34,3.15-3.17,6.3-6.33,9.45-9.5.07-.07.16-.13.24-.19,0,1.5,0,3.01,0,4.51-1.13,2.54-2.97,4.37-5.48,5.51Z"/>
      <path class="cls-1" d="M61.53,32.79c0-1.49,0-2.99,0-4.49.04-.07.1-.13.13-.2,1.18-2.39,2.82-4.31,5.36-5.32,1.5,0,3,0,4.5.01-.72.74-1.43,1.49-2.16,2.22-2.45,2.47-4.9,4.94-7.36,7.4-.14.14-.23.35-.47.36h0Z"/>
      <path class="cls-1" d="M39.02,56.95c-1.9-1.89-3.8-3.79-5.69-5.68-.4-.4-.79-.79-1.18-1.2-.09-.1-.32-.19-.11-.39.16.2.37.13.57.13.77,0,1.55,0,2.32,0,1.12.44,2.06,1.14,2.83,2.06.55.65.96,1.39,1.39,2.12-.06.98.14,1.97-.11,2.95h0Z"/>
      <path class="cls-1" d="M34.92,49.81c-.77,0-1.55,0-2.32,0-.2,0-.41.07-.57-.13,2.26-2.28,4.52-4.56,6.78-6.84.09-.09.17-.18.32-.16v2.87c-.44.67-.77,1.4-1.29,2.03-.81.97-1.85,1.62-2.92,2.23h0Z"/>
      <path class="cls-1" d="M39.02,56.95c.25-.98.05-1.97.11-2.95.93-1.85,2.11-3.43,4.13-4.18.98,0,1.97,0,2.95-.01,0,.17-.15.24-.25.34-2.17,2.19-4.33,4.37-6.51,6.55-.12.12-.2.34-.45.26h0Z"/>
      <path class="cls-1" d="M46.22,49.8c-.98,0-1.97,0-2.95.01-.06-.05-.12-.11-.19-.15-1.82-.88-3.15-2.24-3.95-4.11v-2.87c.57.38.99.92,1.47,1.4,1.75,1.74,3.48,3.5,5.22,5.25.14.14.26.31.4.47h0Z"/>
      <path class="cls-1" d="M83.67,56.84c-.15.25-.3.14-.44-.01-2.29-2.32-4.58-4.63-6.87-6.95-.01-.01,0-.04,0-.06.99,0,1.97,0,2.95.01,1.81.68,2.99,2.03,3.91,3.66.1.17.09.42.34.49,0,.43-.03.87,0,1.3.04.52-.15,1.06.12,1.56h0Z"/>
      <path class="cls-1" d="M83.42,42.66c.18-.03.25.12.35.22,2.22,2.22,4.44,4.45,6.65,6.68.07.07.12.16.18.24-.99,0-1.97,0-2.96,0-.19-.11-.38-.23-.58-.34-1.62-.9-2.85-2.15-3.54-3.91-.2-.96-.06-1.94-.1-2.9h0Z"/>
      <path class="cls-1" d="M87.64,49.81c.99,0,1.97,0,2.96,0-.03.05-.04.12-.08.16-2.28,2.29-4.57,4.58-6.85,6.87-.28-.5-.08-1.04-.12-1.56-.03-.43,0-.86,0-1.3.87-1.88,2.11-3.4,4.1-4.17h0Z"/>
      <path class="cls-1" d="M83.42,42.66c.04.97-.1,1.94.1,2.9-.19.06-.21.25-.28.39-.7,1.44-1.75,2.55-3.12,3.38-.28.17-.62.22-.84.49-.99,0-1.97,0-2.95-.01.75-.94,1.66-1.74,2.5-2.59,1.52-1.53,3.06-3.04,4.59-4.56h0Z"/>
      <path class="cls-1" d="M19.81,112.89h.99v-5.87l5.88,6.21v-8.2h-.99v5.82l-5.88-6.21v8.25ZM12.55,112.89h4.2v-.89h-3.21v-2.98h3.16v-.89h-3.16v-2.19h3.21v-.89h-4.2v7.86h0ZM33.01,105.88h-1.88v6.96h-.99v-6.96h-1.88v-.9h4.69v.9h.05ZM35.23,112.89h4.2v-.89h-3.21v-2.98h3.16v-.89h-3.16v-2.19h3.21v-.89h-4.2v7.86ZM46.79,107.22c0,1.14-.74,2.09-1.88,2.19l2.47,3.43h-1.19l-2.32-3.33h-.4v3.33h-.99v-7.91h1.19c.69,0,1.43,0,2.08.35.69.45,1.04,1.19,1.04,1.94ZM43.78,105.93h-.25v2.83h.3c.99,0,2.08-.2,2.08-1.44s-1.19-1.39-2.12-1.39ZM51.73,105.93h1.88v-.89h-4.69v.89h1.88v6.96h.99v-6.96h-.05ZM61.22,112.94l-.89-1.99h-3.61l-.89,1.99h-1.04l3.75-8.21,3.76,8.21h-1.09ZM58.55,106.88l-1.38,3.18h2.77l-1.38-3.18ZM65.32,105.04h-.99v7.91h.99v-7.91h0ZM68.83,112.94h-.99v-8.25l5.88,6.22v-5.82h.99v8.21l-5.88-6.22v5.87h0ZM81.83,113.09l2.37-5.37.94,5.22h.99l-1.58-8.21-2.67,6.22-2.67-6.22-1.58,8.21h.99l.94-5.22,2.27,5.37h0ZM93.19,112.94h-4.2v-7.91h4.2v.89h-3.21v2.19h3.16v.89h-3.16v2.98h3.21v.94h0ZM95.37,112.94h.99v-5.87l5.88,6.22v-8.21h-.99v5.82l-5.88-6.22v8.25h0ZM109.05,105.93h-1.88v6.96h-.99v-6.96h-1.88v-.89h4.69v.89h.05Z"/>
      <path class="cls-1" d="M0,95.29h2.42v-14.47l14.58,15.36v-20.34h-2.42v14.42L0,74.9v20.39ZM20.26,95.29h10.43v-2.24h-8v-7.36h7.81v-2.24h-7.81v-5.47h8v-2.24h-10.43v19.54h0ZM45.61,78.04h-4.6v17.3h-2.42v-17.3h-4.6v-2.24h11.66l-.05,2.24h0ZM57.71,85.44v2.24h5.04c-.1,3.18-3.36,5.82-6.37,5.82-4.2,0-7.56-3.88-7.56-7.96,0-4.38,3.41-7.91,7.76-7.91,2.37,0,4.69,1.24,6.13,3.18l1.68-1.64c-1.93-2.39-4.89-3.78-7.91-3.78-5.58,0-10.08,4.62-10.08,10.19s4.4,10.09,9.83,10.09,9.19-4.13,9.19-9.45v-.8h-7.71ZM82.82,95.29l-2.22-4.87h-8.89l-2.22,4.87h-2.62l9.29-20.34,9.29,20.34h-2.62ZM76.59,80.27l-3.46,7.91h6.92l-3.46-7.91ZM98.23,95.69l5.83-13.28h.05l2.27,12.88h2.52l-3.95-20.34-6.67,15.36-6.67-15.36-3.95,20.34h2.52l2.27-12.88h.05l5.73,13.28h0ZM122.54,95.29h-10.43v-19.44h10.43v2.24h-8.01v5.47h7.81v2.24h-7.81v7.36h8.01v2.14h0Z"/>
    </g>
  </g>
</svg>