<?xml version="1.0" encoding="UTF-8"?>
<svg id="Layer_2" data-name="Layer 2" xmlns="http://www.w3.org/2000/svg" viewBox="0 0 226 36">
  <defs>
    <style>
      .cls-1, .cls-2 {
        fill: #fff;
        stroke-width: 0px;
      }

      .cls-2 {
        fill-rule: evenodd;
      }
    </style>
  </defs>
  <g id="Layer_1-2" data-name="Layer 1">
    <g>
      <path class="cls-1" d="M0,9.72v7.92l34.02-8.4,3.97-9.24L0,9.72ZM0,26.88v-7.68l31.42-4.32-3.6,8.28S0,26.88,0,26.88ZM0,36v-7.56h25.46l-3.35,7.56H0ZM61.96,22.2h-7.45v4.08h14.4v6.12h-21.61V6.6h21.36l-2.61,6h-11.55v3.96h9.93l-2.48,5.64Z"/>
      <path class="cls-2" d="M139.32,6.6h-11.42v25.8h7.45v-7.44h3.73c2.98.12,5.84-.72,8.32-2.4.99-.84,1.86-1.92,2.48-3.12.5-1.2.74-2.52.74-3.84.12-1.32-.12-2.52-.74-3.72-.5-1.2-1.24-2.16-2.24-3-2.48-1.56-5.46-2.52-8.32-2.28h0ZM141.81,18.48c-.87.6-1.99.84-2.98.84h-3.48v-6.72h3.48c1.12-.12,2.24.24,3.1.84.29.19.51.52.71.83.05.09.11.17.16.25.25.36.25.84.25,1.32s0,.96-.25,1.44c-.25.48-.5.96-.99,1.2Z"/>
      <path class="cls-1" d="M152.99,6.6h7.33v19.56h11.67l-2.73,6.24h-16.27V6.6h0Z"/>
      <path class="cls-2" d="M184.52,6.36l-9.56,21.84-1.74,4.2h7.7l1.86-4.56h10.31l1.86,4.56h7.95l-11.3-26.04h-7.08ZM184.9,22.2l2.98-7.2,2.98,7.2h-5.96,0Z"/>
      <path class="cls-1" d="M212.34,16.08l5.46-9.48h8.2l-10.06,15.96v9.84h-7.45v-9.6l-10.06-16.2h8.44l5.46,9.48ZM90.65,6.6l-6.08,16.32-6.08-16.32h-8.2l10.8,26.04h6.83l10.8-26.04h-8.07Z"/>
      <path class="cls-2" d="M103.44,8.4c2.36-1.44,4.97-2.28,7.7-2.28,3.6,0,7.2,1.44,9.69,4.08,2.61,2.52,4.1,5.88,4.1,9.48,0,2.64-.87,5.28-2.36,7.44-1.49,2.16-3.72,3.96-6.21,4.92-2.48.96-5.22,1.2-7.95.72-2.73-.6-5.09-1.8-7.08-3.72-1.86-1.8-3.23-4.2-3.72-6.84-.62-2.64-.25-5.4.75-7.8.99-2.4,2.86-4.56,5.09-6ZM107.16,25.44c1.12.84,2.48,1.2,3.97,1.2,1.91-.13,3.73-.84,5.22-2.04,1.37-1.32,2.11-3,2.11-4.92,0-1.44-.5-2.76-1.24-3.96-.75-1.2-1.86-2.16-3.23-2.64-1.35-.48-2.81-.6-4.22-.36-1.37.24-2.73.96-3.72,1.92s-1.74,2.28-1.99,3.6c-.37,1.32-.12,2.76.37,4.08.62,1.2,1.49,2.4,2.73,3.12h0Z"/>
    </g>
  </g>
</svg>