<?xml version="1.0" encoding="UTF-8"?>
<svg id="Layer_2" data-name="Layer 2" xmlns="http://www.w3.org/2000/svg" viewBox="0 0 227.12 51.05">
  <defs>
    <style>
      .cls-1, .cls-2 {
        fill: #fff;
        stroke-width: 0px;
      }

      .cls-2 {
        fill-rule: evenodd;
      }
    </style>
  </defs>
  <g id="Layer_1-2" data-name="Layer 1">
    <g>
      <path class="cls-1" d="M86.72,0v40.12l-8.85.91V.91l8.85-.91Z"/>
      <path class="cls-2" d="M20.77,41.49c11.35,0,20.77-9.05,20.77-20.43S32.12.63,20.77.63,0,9.67,0,21.06s9.42,20.43,20.77,20.43h0ZM20.77,32.61c-6.13,0-11.12-5.58-11.12-11.55s4.99-11.55,11.12-11.55,11.12,5.58,11.12,11.55-4.99,11.55-11.12,11.55Z"/>
      <path class="cls-1" d="M53.63,14.74h-.11v-4.44l-8.17.91v29.82l8.85-.91v-16.79c0-3.41,1.76-5.06,4.43-5.06s4.43,1.65,4.43,5.06v17.7l8.85-.91v-17.41c0-7.28-2.67-12.41-10.67-12.41-2.44,0-5.33,1.03-7.6,4.44h0ZM111.4,10.3l-7.04,17.41-7.09-17.41-8.63,2.11,11.12,25.04-6.3,12.69,9.25.91,17.2-38.58s-8.51-2.16-8.51-2.16Z"/>
      <path class="cls-2" d="M129.28,50.14l-8.85.91V11.21l8.29-.91v5.35h.11c1.59-3.3,5.22-5.35,8.85-5.35,8.51,0,14.41,7.85,14.41,15.93s-6.92,15.25-14.87,15.25c-2.89,0-6.24-.74-7.83-3.36h-.11v12.01h0ZM136.03,33.52c4.14,0,7.21-3.81,7.21-7.62s-3.07-7.63-7.21-7.63-7.21,3.81-7.21,7.63,3.06,7.62,7.21,7.62h0Z"/>
      <path class="cls-1" d="M165.54,40.12V0l-8.85.91v40.12l8.85-.91h0Z"/>
      <path class="cls-2" d="M174.85,11.61c2.27-.8,5.56-1.31,8-1.31,7.26,0,12.26,3.02,12.26,10.24v19.58l-7.72.91v-2.9h-.11c-1.7,2.62-4.26,3.36-7.26,3.36-6.58,0-10.16-4.32-10.16-10.58,0-5.92,4.82-9.62,10.44-9.62,2.21,0,4.71.85,6.58,2.22.06-.28.06-.57.06-.91,0-4.04-1.87-4.9-5.68-4.9-2.61,0-5.28.68-7.66,1.76l1.25-7.85h0ZM182.51,34.66c2.38,0,4.37-1.42,4.37-3.87s-1.99-3.81-4.37-3.81-4.43,1.42-4.43,3.81,1.99,3.87,4.43,3.87h0Z"/>
      <path class="cls-1" d="M218.61,10.3l-7.04,17.41-7.09-17.41-8.63,2.11,11.12,25.04-6.3,12.69,9.25.91,17.2-38.58s-8.51-2.16-8.51-2.16Z"/>
    </g>
  </g>
</svg>