<?xml version="1.0" encoding="UTF-8"?>
<svg id="Layer_2" data-name="Layer 2" xmlns="http://www.w3.org/2000/svg" viewBox="0 0 216 55">
  <defs>
    <style>
      .cls-1 {
        fill: #fff;
        fill-rule: evenodd;
        stroke-width: 0px;
      }
    </style>
  </defs>
  <g id="Layer_1-2" data-name="Layer 1">
    <path class="cls-1" d="M1.57,30.11C-1.6,22.35.03,13.15,6.47,6.89c2.47-2.4,5.38-4.12,8.48-5.14.35-.11.71.13.71.49,0,.22-.15.42-.36.49-2.95.98-5.72,2.61-8.08,4.9C2.56,12.15.55,18.29,1.17,24.22c.05.43.1.86.18,1.29.32,1.87.9,3.69,1.76,5.43-.65-.22-1.15-.53-1.54-.83ZM37.75,6.89c4.31,4.2,6.47,9.71,6.47,15.22,0,2.51-.45,5.01-1.34,7.39-.47.5-1.17.97-1.69,1.28,2.67-5.57,2.63-12.08-.13-17.62-.16-.33-.33-.65-.51-.96-.93-1.65-2.11-3.19-3.55-4.59-1.43-1.4-3.02-2.55-4.71-3.45-.33-.18-.66-.34-.99-.5-.41-.2-.83-.38-1.26-.54-.3-.12-.61-.23-.91-.34-.21-.07-.36-.27-.36-.49,0-.36.36-.6.71-.49,3.02,1.03,5.86,2.72,8.27,5.07ZM22.11,22.34c-.94,0-1.7-.71-1.7-1.58V1.58c0-.87.76-1.58,1.7-1.58s1.7.71,1.7,1.58v19.18c0,.87-.76,1.58-1.7,1.58ZM25.35,45.22c.53.23,1.21.32,1.7.36.47.04.33.55.2,1.01-.52,1.79-1.77,2.84-3.56,3.37-.22.06-.48,0-.66.19-.02.02-.02.05-.02.12.75.21,1.45-.06,2.24-.29-.11.64-.19,1.28-.25,1.9,6.82.37,12.45,1.53,15.3,3.11-5.09-1.01-12.11-1.64-19.88-1.64s-14.79.62-19.87,1.63c2.86-1.57,8.53-2.75,15.37-3.11-.12-.49-.24-1.07-.35-1.86.78.17,1.46.48,2.2.26-.06-.32-.34-.24-.54-.29-1.81-.45-3.03-1.51-3.63-3.21-.15-.44-.45-1.23.26-1.26.45-.02,1,0,1.51-.19-3.01.18-4.5-.48-6-2.63-.04-.05-.02-.05-.04-.05-1-.44-1.58-1.09-2.45-1.85-.99-.88-1.81-1.9-2.55-2.98-.66-.97-1.47-1.81-2.54-2.38-.9-.48-1.28-1.36-1.69-2.2-.08-.16-.18-.41.04-.53.19-.11.41.03.53.19.21.26.4.55.59.83.33.48.75.82,1.46.99-.23-.41-.43-.71-.58-1.02-.04-.11,0-.3.07-.38.12-.12.28-.02.38.07.76.52,1.52,1.04,2.27,1.58.15.11.3.3.33.48.2,1.23,1.17,1.75,2.18,2.24.99.47,1.98.94,2.91,1.53.34.21.69.41.92.76.23.08.54.18.54.18,0,0,.47.1.95.28,1.76.07,3.09.92,4.16,2.2.66.79,1.23,1.68,2.2,2.21-.71-.72-.74-1.78-1.43-2.52-.25-.26-.39-.75-.13-1.02.43-.45.38-.96.45-1.48.15-1.25,1.22-2.22,2.44-2.23,1.2-.02,2.19.86,2.45,2.12.11.52.02,1.09.45,1.57.21.24.16.74-.11,1.03-.7.73-.71,1.81-1.43,2.53.53-.22.88-.62,1.23-1,.32-.37.6-.76.91-1.14,1.3-1.62,2.95-2.36,4.89-2.29.5-.59,2-1.38,2.69-1.75.83-.46,1.71-.84,2.55-1.29.59-.31,1.23-.66,1.39-1.33.35-1.57,1.98-1.79,2.93-2.7.23-.22.42.05.36.32-.1.36-.35.64-.7,1.04.83-.14,1.26-.55,1.64-1.08.27-.38.46-1.15,1.05-.82.34.19-.19.82-.39,1.23-.33.64-.79,1.16-1.46,1.52-.94.51-1.65,1.25-2.24,2.1-.84,1.23-1.77,2.38-2.92,3.36-.81.7-1.61,1.57-2.17,1.81,0,0-.3.26-.66.65-1.43,1.51-3.1,2.42-5.53,1.79ZM84.18,37.82l2.56,5.14h-5.7l-2.53-5.14h5.66ZM81.65,32.67h0s-5.74,0-5.74,0h0s-4.48-9.09-4.48-9.09l-4.51,9.09-2.52,5.1-2.6,5.18h-5.67l15.31-30.94,10.21,20.64ZM113.95,12.03v5.18h-10.17v25.76h-5.17v-25.76h-10.17v-5.18h25.51ZM144.57,42.97h-20.41V12.03h5.09v25.75h15.17l.15,5.18ZM183.68,42.97h-5.89l-2.61-5.16h5.85l2.65,5.16ZM172.85,32.68h0s-4.48-9.08-4.48-9.08l-4.51,9.08h0s-2.52,5.11-2.52,5.11l-2.59,5.18h-5.67l2.56-5.18,2.53-5.11,10.21-20.64,10.21,20.64h0s-5.74,0-5.74,0ZM213.1,28.68c1.41,1.51,2.24,3.26,2.49,5.25h-5.1c-.19-.53-.49-1.02-.89-1.46-.75-.8-1.61-1.2-2.65-1.2h-7.41c-2.43,0-4.48-.92-6.15-2.71-1.67-1.84-2.53-4.03-2.53-6.62s.86-4.71,2.53-6.55c.74-.8,1.55-1.43,2.43-1.89,1.12-.57,2.37-.86,3.73-.86h16.06l.07,5.34h-16.13c-.53,0-1,.08-1.45.28-.49.2-.86.48-1.23.88-.34.36-.6.8-.79,1.27-.19.48-.26,1-.26,1.52,0,1.12.33,2.03,1.04,2.83.74.79,1.6,1.19,2.68,1.19h7.41c2.43,0,4.48.92,6.15,2.71ZM216,37.81c-.45.92-1.07,1.75-1.87,2.53-.74.72-1.61,1.3-2.55,1.73-.17.07-.34.14-.5.21-.17.06-.35.13-.52.18-.52.17-1.06.29-1.61.38-.54.09-1.1.13-1.67.13h-16.79v-5.14h17.1v-.02h8.41Z"/>
  </g>
</svg>