<?xml version="1.0" encoding="UTF-8"?>
<svg id="Layer_2" data-name="Layer 2" xmlns="http://www.w3.org/2000/svg" viewBox="0 0 226.98 104.99">
  <defs>
    <style>
      .cls-1 {
        fill: #fff;
        stroke-width: 0px;
      }
    </style>
  </defs>
  <g id="Layer_1-2" data-name="Layer 1">
    <path class="cls-1" d="M92.57,40.88c2.62-.27,5.26-.25,7.87.06v.85c-.19,2.52.34,5.04,1.55,7.27,1.21,2.22,3.03,4.05,5.25,5.27,4.54,2.48,10.1,2.09,14.24-1.01,5.81-4.35,6.99-12.58,2.64-18.38-.4-.53-.83-1.02-1.3-1.49-1.8-1.78-4.08-2.99-6.56-3.51-1.05-.19-2.11-.3-3.17-.3-1.99-.05-4,0-5.99,0-.44.09-.9,0-1.28-.24.05-.28.12-.55.21-.82.73-1.94,1.51-3.87,2.22-5.83.16-.73.86-1.21,1.6-1.1,2.16.09,4.33-.08,6.49.21,3.95.52,7.67,2.14,10.73,4.69,3.87,3.07,6.49,7.45,7.37,12.31,1.4,6.7-.63,13.66-5.41,18.56-3.37,3.67-7.98,5.96-12.93,6.44-5.34.69-10.75-.74-15.05-3.98-4.28-3.1-7.23-7.71-8.25-12.89-.35-1.71-.48-3.45-.39-5.19.03-.27.1-.55.16-.9h0ZM125.4.32c-.15.44-.27.85-.41,1.23-2,5.19-4.01,10.38-5.97,15.58-.15.73-.83,1.23-1.57,1.16-1.99-.05-4,0-5.99,0-.32-.01-.63-.05-.94-.11-.33-.47-.08-.82,0-1.16.87-2.26,1.75-4.52,2.61-6.78.35-.64.59-1.34.71-2.07-.41-.27-.9-.36-1.37-.26h-7.91c-1.54,0-3.05-.45-4.33-1.32-1.75-1.17-2.95-3-3.32-5.07-.05-.4-.08-.79-.08-1.19.22-.13.45-.22.7-.29.38-.03.77-.03,1.15,0h25.01c.6-.1,1.21,0,1.74.28ZM22.41,96.46c0,.52-.08.94-.09,1.34v5.34c0,.45-.05.94-.08,1.39-1.04.24-2.12.27-3.18.1-.32-.43-.45-.97-.35-1.49v-22.91q0-1.76,1.78-1.76h4.84c2.12,0,4.18.76,5.79,2.14,1.61,1.38,2.69,3.28,3.02,5.38.56,3.13-.61,6.31-3.06,8.34-.6.54-1.24,1-1.96,1.59.94,1.46,1.88,2.82,2.77,4.29.88,1.47,1.88,2.82,2.82,4.41-1.3.08-2.61.08-3.91,0-.44,0-.63-.4-.83-.72-.77-1.22-1.54-2.44-2.31-3.66-.66-1.04-1.33-2.07-1.96-3.14-.28-.54-.86-.86-1.47-.8-.59.11-1.17.12-1.84.16ZM22.51,92.7c1.4.15,2.8.15,4.2,0,.13-.02.25-.06.37-.11,1.08-.39,2-1.11,2.64-2.05.64-.95.96-2.07.91-3.21-.02-1.11-.39-2.19-1.07-3.08-.68-.89-1.62-1.54-2.69-1.85-1.4-.37-2.86-.42-4.28-.17-.07,0-.12.1-.19.16-.17,3.43-.14,6.87.11,10.29v.03ZM85.78,93.51c-.28,2.45-.3,4.92-.07,7.37.4.32.89.2,1.34.2h7.53c.46,0,.94,0,1.45.07.27,1.11.27,2.28,0,3.39-4.67.28-9.35.28-14.03,0,0-.33-.09-.69-.1-1.07v-23.58c0-.38.05-.75.08-1.23.42-.08.84-.14,1.27-.16h11.61c.37,0,.73.08,1.14.12.26,1.12.26,2.29,0,3.41-.52,0-.94.07-1.43.07h-7.53c-.45,0-.94,0-1.47.07-.15,2.54-.07,4.99-.07,7.34.48.48.94.34,1.42.34h8.93c.4.99.5,2.07.28,3.12,0,.18-.31.41-.52.46-.38.07-.76.09-1.14.07h-7.27c-.46-.02-.92.01-1.43.03ZM46.77,78.64c.44-.08.88-.13,1.33-.15h5.36c2.18.05,4.26.9,5.86,2.37,3.31,3.05,3.85,8.08,1.25,11.76-1.26,1.78-3.12,3.04-5.23,3.55-.75.12-1.51.19-2.28.19-.76,0-1.53,0-2.29.05-.1.03-.19.07-.27.11-.3.34-.19.78-.2,1.18v6.37c.01.27-.15.51-.4.6-.08.03-.17.04-.25.03h-2.71c-.1-.31-.17-.62-.21-.94v-23.42c0-.54.02-1.07.05-1.7ZM50.53,92.73c1.36.11,2.72.08,4.07-.08.29-.05.57-.15.84-.29,1.93-.84,3.16-2.75,3.11-4.86.09-2.1-1.12-4.05-3.06-4.88-1.58-.59-3.28-.74-4.94-.45-.28,3.5-.28,7.02,0,10.53l-.02.03ZM.17,82.01c-.19-1.03-.22-2.09-.08-3.14.41-.33.95-.46,1.47-.36h13.67c.31.02.56.26.58.57.09.94.03,1.89-.17,2.82-.93.19-1.88.25-2.82.16h-2.76c-.24.49-.33,1.04-.24,1.58v19.21c0,.54-.06,1.07-.09,1.65-1.1.23-2.23.25-3.34.06-.22-.48-.29-1.01-.22-1.53v-19.93c-.02-.32-.06-.63-.11-.94-2.02-.21-3.93.04-5.9-.16h0ZM65.39,78.74c.97-.3,2-.36,3-.19.31.02.55.29.54.61v20.25c0,.5.05,1,.07,1.6.56,0,1.01.07,1.46.07h6.13c.45,0,.94.06,1.4.08.25,1.11.27,2.25.07,3.37-.25.08-.5.14-.76.17h-11.23c-.19-.02-.38-.06-.57-.1-.08-.27-.14-.54-.18-.82v-23.43c.02-.54.06-1.08.07-1.62ZM188.07,104.68h-1.55c-.45,0-.65-.37-.86-.68-.83-1.28-1.65-2.57-2.47-3.86-.78-1.21-1.59-2.41-2.33-3.64-.26-.5-.8-.79-1.35-.74h-3.45c-.34.4-.47.93-.36,1.44v5.97c0,.46-.07.94-.08,1.31-.48.26-1.05.29-1.55.07-.05-.47-.13-.94-.13-1.37v-23.16c0-.42.05-.83.07-1.15.29-.31.72-.46,1.15-.39,1.7,0,3.41-.07,5.1,0,3.1.05,5.91,1.8,7.33,4.55,2.26,4.17.71,9.39-3.46,11.65-.19.1-.38.2-.58.29-.34.16-.7.3-1.07.46.07.47.27.91.59,1.26,1.48,2.28,2.95,4.56,4.42,6.84.19.35.35.71.61,1.17h0ZM175.84,93.95h4.22c1.59.04,3.13-.53,4.31-1.59,2.12-1.7,2.98-4.53,2.15-7.12-.31-1.29-1.02-2.46-2.02-3.33-1-.88-2.25-1.42-3.57-1.56-1.65-.12-3.3-.12-4.95,0-.07,0-.13.09-.21.14-.19,4.49-.15,8.98.12,13.46h-.07ZM191.75,78.64c.45-.08.89-.13,1.35-.15h4.7c1.94.04,3.81.72,5.31,1.94,3.7,3.01,4.25,8.44,1.25,12.14-.79.97-1.77,1.75-2.89,2.3l-1.26.61c.04.48.25.93.57,1.29,1.43,2.22,2.88,4.41,4.3,6.63.23.35.56.65.52,1.12-1.4.4-1.65.34-2.34-.73-1.44-2.21-2.82-4.42-4.28-6.64-.19-.33-.41-.64-.65-.94-.17-.18-.38-.32-.62-.39-1.43-.1-2.86-.05-4.28.15,0,.38-.08.79-.08,1.2v5.98c0,.46-.05.94-.08,1.47l-1.21.06c-.31-.3-.44-.73-.37-1.15v-23.18c0-.54.05-1.08.07-1.71h0ZM193.49,93.82c.17.06.35.11.53.13h4.6c.59-.05,1.17-.2,1.71-.44,3.49-1.49,5.11-5.53,3.62-9.02-.35-.81-.85-1.55-1.48-2.18-1.07-1.06-2.46-1.75-3.95-1.95-1.56-.12-3.14,0-4.7,0-.11,0-.22.11-.31.16-.17,1-.26,9.76-.13,12.61,0,.18.07.42.11.69h0ZM150.23,104.55c0-.55-.09-1.05-.09-1.56v-8.39c0-.45,0-.94-.07-1.36-.19-.07-.39-.13-.59-.16h-9.32c-.2.03-.4.09-.59.17,0,.45-.07.94-.07,1.35v8.54c0,.45,0,.94-.07,1.34-.46.26-1.03.26-1.49,0-.05-.36-.09-.73-.1-1.1v-23.55c0-.38.05-.75.07-1.06.39-.32.92-.39,1.37-.18.23.42.31.92.22,1.39v9.8c0,.46,0,.94.06,1.43,1.16.15,2.33.2,3.49.13h3.44c1.13.04,2.25.02,3.38-.06.26-.43.35-.94.26-1.43v-10.56c.05-.52.51-.89,1.03-.84.16.02.32.07.45.17.13.11.21.26.24.43.04.38.05.76.05,1.14v23.17c.02,1.39-.07,1.46-1.65,1.2h0ZM132.83,100.36l1.12,1.04c-3.76,4.33-12.75,5.2-18.2,0-2.7-2.58-4.21-6.15-4.19-9.88.02-3.73,1.58-7.29,4.31-9.83,6.07-5.56,14.83-3.76,18.03.1-.24.46-.66.8-1.17.94-1.99-1.68-4.47-2.67-7.07-2.82-1.93-.12-3.87.22-5.64,1-1.66.78-3.12,1.93-4.26,3.37-3.44,4.31-3.4,10.44.09,14.71,2.01,2.48,4.95,4.02,8.14,4.25,3.21.29,6.41-.75,8.84-2.86h0ZM158.35,90.83h11.06c.41.47.41,1.17,0,1.63-3.66.07-7.38,0-11.12.06-.08.19-.13.38-.17.58v9.3c.03.2.09.4.16.59.45,0,.94.07,1.35.07h9.76c.38.4.42,1.02.09,1.46-1.05.19-8.47.27-11.99.14-.28,0-.57-.08-.94-.14-.06-.38-.1-.76-.11-1.15v-23.55c0-.38,0-.75.07-1.24.51-.06.94-.15,1.41-.16h10.98c.64.08.83.28.83.94s-.19.78-.73.83c-.34.02-.68.02-1.02,0h-9.68c-.08.18-.13.37-.17.56v9.3c.04.26.11.52.22.77h0ZM41.77,104.62c-1.13.18-2.28.18-3.4,0,0-.4-.11-.77-.11-1.14v-23.68c0-.34,0-.67.08-1.05.99-.31,2.04-.37,3.06-.17.18,0,.4.31.46.52.06.29.09.59.07.88v23.3c-.04.41-.09.83-.14,1.34ZM218.11,104.64h-1.35c-.28-.41-.39-.92-.29-1.41,0-2.51-.05-5,0-7.51.03-1.06-.24-2.1-.79-3-2.39-4.06-4.7-8.14-7.09-12.21-.32-.55-.62-1.11-.94-1.65,1.16-.6,1.64-.49,2.24.54,1.73,2.97,3.44,5.94,5.16,8.92.59,1.02,1.18,2.06,1.79,3.08.12.21.28.39.52.72.33-.54.59-.94.85-1.4,2.19-3.76,4.38-7.53,6.58-11.33.57-.94.88-1.06,2.19-.61-.16.34-.29.68-.47,1-2.52,4.37-5.03,8.74-7.59,13.15-.49.79-.73,1.71-.71,2.64v7.51c.03.45-.06.95-.1,1.57Z"/>
  </g>
</svg>