<?xml version="1.0" encoding="UTF-8"?>
<svg id="Layer_2" data-name="Layer 2" xmlns="http://www.w3.org/2000/svg" viewBox="0 0 169.92 100">
  <defs>
    <style>
      .cls-1, .cls-2 {
        fill: #fff;
        stroke-width: 0px;
      }

      .cls-2 {
        fill-rule: evenodd;
      }
    </style>
  </defs>
  <g id="Layer_1-2" data-name="Layer 1">
    <g>
      <path class="cls-2" d="M70.11,37.76s14.04-5.01,10.56-16.36c-3.18-10.39-15.51-8.19-19.48-7.76-3.93.42-3.92-3.79-3.16-5.88.76-2.08,1.16-2.05-.37-3.88-1.53-1.83-1.49-5.68-3.26-2.91-1.77,2.78-5.7,15.32,3.74,17.34,4.62.99,11.89-2.34,14.9,2.3,3.02,4.64-6.02,8.21-11.96,5.77-5.94-2.44-8.42-.94-9.83,1.45,0,0-7.97-6.23-14.25-2.85-6.28,3.37-4.56,14.34,2.01,21.11,1.42,1.46,4.13,3.15,4.13,3.15,0,0-4.36-.51-7.18-3.6-2.91-3.19-4.54-7.75-4.54-7.75-4.56,1.53-12.1,1.08-17.89,3.53-4.57,1.94-8.34,7.34-9.86,18.86-1.53,11.52-3.66,18.96-3.66,18.96,0,0,6.5-10.1,6.71-14.58,0,0,8.63,18,8.17,34.19,0,.11.02.23.06.34.04.11.1.21.18.29.08.08.18.15.28.19.11.05.22.07.34.07l6.36.08c.11,0,.23-.02.33-.06.11-.04.2-.1.29-.18s.15-.18.19-.28c.05-.11.07-.22.07-.33.04-3.76.16-18.52-.72-22.07,0,0,3.96-.71,5.38-2.14,0,0,.32,15.72-2.22,24.06-.17.56.24,1.12.83,1.13l7.09.04c.47,0,.86-.37.88-.84.13-4.13,1.1-22.25,7.65-29.18,0,0,12.71,2.55,16.87,2.14l2.48,5.81c.16.38.52.62.94.63l8.09.12c.18,0,.35-.04.5-.12.15-.08.29-.2.38-.35.09-.15.15-.32.16-.49.01-.18-.02-.35-.1-.51l-5.46-11.63c-.18-.38-.5-.67-.88-.84l-10.18-4.43s3.96-5.2,3.56-8.6c0,0,2.19.79,5.13-3.21,2.94-4,4.87-5.01,5.92-4.96,1.05.05,1.05.06,1.05.06.22-.61-1.63-1.64-1.91-1.62,3.39.48,11.75,2.85,14.79-5.04-.01,0-2.79,4.86-13.11.84h0Z"/>
      <path class="cls-1" d="M74.58,64.49h4.81v11.16h7.68v3.84h-12.49v-15h0ZM106.69,73.45c0,2.05-.65,3.61-1.94,4.69-1.29,1.08-3.13,1.61-5.51,1.61s-4.22-.54-5.53-1.61c-1.29-1.07-1.94-2.64-1.94-4.69v-8.96h4.81v8.89c0,.84.22,1.52.67,2.03.45.49,1.1.74,1.96.74s1.51-.25,1.96-.76c.46-.51.7-1.18.7-2v-8.89h4.81v8.96h0ZM120.32,64.23c2.22,0,3.98.56,5.27,1.68,1.29,1.11,1.94,2.69,1.94,4.75h-4.59c0-.87-.23-1.56-.7-2.07-.45-.51-1.1-.76-1.94-.76-.97,0-1.69.3-2.16.92-.45.61-.67,1.46-.67,2.55v1.39c0,1.08.23,1.93.67,2.55.47.61,1.17.92,2.11.92s1.63-.24,2.11-.72c.48-.48.72-1.16.72-2.03h4.44c0,2.05-.63,3.62-1.89,4.71-1.25,1.09-3.02,1.64-5.31,1.64-2.55,0-4.49-.65-5.81-1.96-1.31-1.31-1.96-3.24-1.96-5.8s.65-4.49,1.96-5.8c1.32-1.31,3.26-1.96,5.81-1.96h0ZM143.52,64.49h5.96l-5.38,6.17,5.48,8.83h-5.68l-3.11-5.49-2.61,2.14v3.36h-4.81v-15h4.81v6.41l5.33-6.41h0ZM164.07,79.49h-4.81v-5.82l-5.94-9.18h5.53l2.87,4.99h.09l2.87-4.99h5.25l-5.85,9.18v5.82h0Z"/>
      <path class="cls-1" d="M81.57,57.96c-.3.34-.75.61-1.33.82-.62.21-1.27.32-1.92.31-1.07,0-1.93-.33-2.57-.99-.64-.66-.98-1.57-1.03-2.74v-.71c0-.81.14-1.51.42-2.11.28-.6.69-1.07,1.22-1.39.53-.33,1.15-.49,1.84-.49,1.02,0,1.81.23,2.37.7.57.47.9,1.16.99,2.09h-1.9c-.07-.46-.21-.78-.44-.98-.22-.19-.54-.29-.96-.29-.5,0-.88.21-1.15.63-.27.42-.41,1.02-.41,1.8v.5c0,.82.14,1.43.42,1.85.28.41.72.61,1.32.61.51,0,.9-.11,1.15-.34v-1.27h-1.37v-1.36h3.35v3.37h0Z"/>
      <path class="cls-1" d="M97.51,57.44h-2.71l-.47,1.53h-2.11l3-8.2h1.86l3.03,8.2h-2.12l-.48-1.53h0ZM95.28,55.92h1.76l-.88-2.84-.88,2.84h0Z"/>
      <path class="cls-1" d="M113.45,50.77l1.83,5.71,1.82-5.71h2.6v8.2h-1.98v-1.92l.19-3.92-1.98,5.84h-1.3l-1.99-5.84.19,3.93v1.92h-1.97v-8.2h2.59,0Z"/>
      <path class="cls-1" d="M133.2,58.98h-1.97v-8.2h1.97v8.2h0Z"/>
      <path class="cls-1" d="M151.55,58.98h-1.96l-2.9-5.1v5.1h-1.97v-8.2h1.97l2.9,5.1v-5.1h1.97v8.2h0Z"/>
      <path class="cls-1" d="M169.65,57.96c-.3.34-.75.61-1.33.82-.62.21-1.27.32-1.92.31-1.07,0-1.93-.33-2.57-.99-.64-.66-.99-1.57-1.03-2.74v-.71c0-.81.14-1.51.42-2.11.29-.6.69-1.07,1.22-1.39.53-.33,1.15-.49,1.84-.49,1.02,0,1.81.23,2.37.7.57.47.9,1.16.99,2.09h-1.9c-.07-.46-.21-.78-.44-.98-.23-.19-.54-.29-.96-.29-.49,0-.88.21-1.15.63-.27.42-.41,1.02-.41,1.8v.5c0,.82.14,1.43.41,1.85.28.41.72.61,1.32.61.51,0,.9-.11,1.15-.34v-1.27h-1.37v-1.36h3.35v3.37h0Z"/>
      <path class="cls-1" d="M41.3,85.01h12.95v3.6h-8.14v2.07h6.96v3.44h-6.96v2.29h8.29v3.6h-13.1v-15ZM57,85.01h4.81v11.16h7.68v3.84h-12.49v-15ZM71.52,85.01h12.95v3.6h-8.14v2.07h6.97v3.44h-6.97v2.29h8.29v3.6h-13.1v-15ZM95.62,85.01c.93,0,1.76.22,2.48.65.72.42,1.31,1.03,1.7,1.76.41.74.61,1.58.61,2.51v.28c0,.93-.2,1.77-.61,2.53-.39.74-.98,1.36-1.7,1.79-.72.42-1.55.63-2.48.63h-3.59v4.84h-4.81v-14.99h8.4ZM92.03,91.65h1.98c.51,0,.89-.13,1.13-.39.26-.26.39-.62.39-1.07v-.17c0-.46-.13-.82-.39-1.07-.25-.26-.62-.39-1.13-.39h-1.98v3.09ZM113.03,100v-5.69h-5.29v5.69h-4.81v-14.99h4.81v5.47h5.29v-5.47h4.81v14.99h-4.81ZM131.09,100l-.63-2.11h-5.24l-.63,2.11h-4.92l5.46-14.99h5.59l5.46,14.99h-5.09ZM126.21,94.53h3.24l-1.57-5.34h-.09l-1.59,5.34h0ZM148.7,100l-6.29-7.28v7.28h-4.42v-14.99h4.2l6.29,7.39v-7.39h4.42v14.99h-4.2ZM164.74,88.84v11.16h-4.81v-11.16h-4.92v-3.83h14.62v3.83h-4.9Z"/>
    </g>
  </g>
</svg>