<?xml version="1.0" encoding="UTF-8"?>
<svg id="Layer_2" data-name="Layer 2" xmlns="http://www.w3.org/2000/svg" viewBox="0 0 227.41 32.53">
  <defs>
    <style>
      .cls-1 {
        fill: #fff;
        stroke-width: 0px;
      }
    </style>
  </defs>
  <g id="Layer_1-2" data-name="Layer 1">
    <g>
      <path class="cls-1" d="M56.6,13.51h5.22v8.15h3.33v-8.15h5.16v-2.72h-13.71v2.72ZM99.15,13.51h5.22v8.15h3.32v-8.15h5.17v-2.72h-13.71v2.72h0ZM176.31,13.51h5.22v8.15h3.32v-8.15h5.17v-2.72h-13.71v2.72ZM45.82,10.79c-.87,0-1.61.1-2.23.31-.61.21-1.11.49-1.49.87-.38.38-.67.85-.82,1.36-.18.58-.27,1.18-.26,1.79v2.24c0,.66.08,1.25.26,1.79.17.54.44.98.82,1.36.38.37.87.67,1.49.87.62.21,1.36.31,2.23.31h9.21v-2.83h-8.91c-.65,0-1.11-.13-1.37-.4-.26-.26-.39-.72-.39-1.37v-1.82c0-.67.13-1.13.39-1.38.26-.25.72-.38,1.37-.38h8.91v-2.72h-9.21ZM165.86,10.79c-.87,0-1.61.1-2.23.31-.61.21-1.11.49-1.49.87-.38.38-.67.85-.82,1.36-.18.58-.27,1.18-.26,1.79v2.24c0,.66.08,1.25.26,1.79.17.54.45.98.82,1.36.38.37.87.67,1.49.87.62.21,1.36.31,2.23.31h9.21v-2.83h-8.91c-.65,0-1.11-.13-1.37-.4-.26-.26-.39-.72-.39-1.37v-1.82c0-.67.13-1.13.39-1.38.26-.25.72-.38,1.37-.38h8.91v-2.72h-9.21s0,0,0,0ZM26.62,25.01l-7.46,6.91c-.88.81-2.31.81-3.19,0L.66,17.74c-.81-.73-.88-1.99-.15-2.8.05-.05.1-.1.15-.15l4.22-3.91h3.78c4.26,0,6.22-.94,6.9-3.36h-7.06L15.97.61c.88-.81,2.31-.81,3.19,0l7.46,6.91h-3.9c-5.57,0-7.2,1.59-7.2,6v5.49c0,4.41,1.63,6,7.2,6h3.9s0,0,0,0Z"/>
      <path class="cls-1" d="M34.47,14.79l-4.23-3.91h-7.33c-2.58,0-3.22.69-3.22,2.85v5.13c0,2.18.64,2.82,3.24,2.82h7.28l4.25-3.93c.88-.83.88-2.15,0-2.96ZM26.76,18.4h-.97v-2.94h.97v2.94ZM26.76,14.68h-.97v-.88h.97v.88ZM76.57,21.66v-10.84h3.31v10.84h-3.31ZM117.89,18.82h10.08v2.81h-13.43l.03-10.84h13.35s.01,2.66.01,2.66l-10.04.05v1.56h5.45v2.21h-5.46s0,1.55,0,1.55ZM217.34,18.82h10.08v2.81h-13.43l.03-10.84h13.35s.01,2.66.01,2.66l-10.04.05v1.56h5.45v2.21h-5.46s0,1.55,0,1.55h0ZM133.2,17.74v3.93h-3.31l.02-10.84h9.58c.73,0,1.34.08,1.85.24s.91.39,1.23.69c.31.3.54.67.68,1.09.14.43.21.91.21,1.44v.77c0,.53-.07,1-.21,1.42-.14.42-.36.77-.67,1.07-.3.3-.7.52-1.18.68-.48.16-1.07.24-1.77.24h-.76v.09c.14.12,4.8,2.99,4.8,2.99v.12h-4.32l-6.16-3.93h0ZM133.19,13.53v2.62h5.7c.44,0,.75-.08.94-.24.19-.16.28-.46.28-.91v-.37c0-.42-.1-.7-.28-.87-.19-.16-.51-.24-.94-.24h-5.7ZM191.27,21.66v-10.84h3.31v10.84h-3.31ZM209.02,10.83h3.85v.12l-6.06,10.66h-4.96s-6.01-10.66-6.01-10.66v-.12h3.91l4.31,8.15h.62l4.35-8.15h0ZM160.81,21.62h-11.16l1.76-2.8h4.34l-2.9-4.59h-.42l-4.66,7.39h-3.3l6.77-10.86h2.78l6.78,10.86h0ZM94.2,18.84h-.37l-6.28-8.07h-4.77v10.84h3.28v-8.03h.36l6.19,8.03h4.89v-10.84h-3.28s0,8.07,0,8.07Z"/>
    </g>
  </g>
</svg>