<?xml version="1.0" encoding="UTF-8"?>
<svg id="Layer_2" data-name="Layer 2" xmlns="http://www.w3.org/2000/svg" viewBox="0 0 190.01 59.01">
  <defs>
    <style>
      .cls-1 {
        fill: #fff;
        stroke-width: 0px;
      }
    </style>
  </defs>
  <g id="Layer_1-2" data-name="Layer 1">
    <g>
      <path class="cls-1" d="M19.13,14.15S27.63.32,36.85.56c9.21.24,14.17,7.16,19.25,16.05,5.08,8.89,16.29,33.51,16.29,33.51,0,0-8.38,4.7-17.95,1.65-9.57-3.05-13.23-9.96-19.72-22.73-6.49-12.77-6.38-17.34-15.58-14.88Z"/>
      <path class="cls-1" d="M33.19,38.88c-2.88,5.48-7.42,9.91-12.99,12.67-9.1,4.3-20.2-1.31-20.2-1.31,0,0,12.99-25.18,14.65-27.65,1.66-2.47,4.73-5.28,8.15-1.88,3.42,3.4,10.4,18.16,10.4,18.16Z"/>
      <path class="cls-1" d="M97.51,22.77l-2.27-6.1h-9.24l-2.22,6.1h-2.97L89.04.31c.23-.09.48-.16.72-.2.31-.07.63-.11.95-.11.41,0,.81.09,1.18.29.4.26.7.65.84,1.1l7.89,21.38h-3.11ZM90.61,3.44l-3.86,10.81h7.68l-3.82-10.81Z"/>
      <path class="cls-1" d="M109.6,20.81c.57,0,1.14-.08,1.69-.26.47-.15.91-.36,1.31-.63.33-.22.62-.49.85-.8.18-.22.29-.48.31-.77V6.68h.64c.58-.02,1.15.16,1.62.49.24.22.43.5.55.81.11.31.15.64.12.97v13.82h-2.89v-1.43c-.56.57-1.24,1.03-1.98,1.34-1,.44-2.08.64-3.18.6-1.06.06-2.12-.15-3.07-.61-.68-.36-1.24-.9-1.62-1.56-.36-.64-.57-1.35-.64-2.08-.07-.76-.1-1.49-.1-2.18V6.68h.61c.58-.02,1.15.15,1.62.47.25.22.43.5.55.8.12.31.15.64.11.96v7.95c-.02.71.04,1.41.19,2.1.1.48.37.9.76,1.19.33.24.71.42,1.11.51.46.1.94.14,1.41.14h0Z"/>
      <path class="cls-1" d="M135.04,21.66c.01,1.24-.11,2.47-.36,3.68-.2.99-.63,1.92-1.25,2.73-.63.77-1.45,1.36-2.39,1.71-1.21.43-2.5.63-3.79.59-.94.02-1.88-.09-2.8-.3-.69-.15-1.36-.39-1.98-.72-.33-.18-.63-.43-.87-.72-.16-.2-.25-.46-.25-.72.03-.36.16-.7.39-.98.22-.31.47-.6.72-.88.13.15.28.28.45.39.32.24.66.45,1.01.63.47.25.97.45,1.49.59.61.18,1.24.26,1.88.26.89.04,1.79-.12,2.61-.46.62-.28,1.14-.73,1.5-1.3.37-.61.61-1.29.69-1.99.11-.84.16-1.68.15-2.52v-.27c-.18.18-.41.39-.68.62-.3.24-.62.45-.97.62-.41.2-.84.35-1.28.47-.51.13-1.04.19-1.57.19-.87,0-1.74-.15-2.56-.44-.82-.3-1.57-.79-2.16-1.43-.68-.73-1.18-1.6-1.49-2.54-.39-1.24-.58-2.54-.55-3.84-.03-1.31.16-2.61.55-3.87.29-.98.79-1.88,1.44-2.66.59-.67,1.33-1.2,2.16-1.54.82-.34,1.71-.51,2.6-.5.92-.03,1.84.14,2.7.49.68.29,1.29.71,1.81,1.24.04-.23.14-.45.27-.64.14-.19.31-.35.51-.47.36-.22.77-.35,1.2-.36h.58c.09.01.18.01.27,0v14.94h-.01ZM123.98,14.69c0,.82.06,1.63.2,2.43.12.69.36,1.34.72,1.94.33.54.8.99,1.36,1.29.64.32,1.36.48,2.08.46.52,0,1.03-.06,1.53-.2.43-.12.84-.29,1.22-.51.31-.18.58-.42.79-.72.17-.24.27-.52.27-.81v-7.88l-.53-.51c-.25-.22-.52-.42-.82-.57-.37-.19-.75-.35-1.15-.46-.47-.13-.96-.19-1.44-.19-.59-.02-1.18.09-1.72.34-.54.25-1.01.62-1.37,1.09-.76.96-1.13,2.39-1.13,4.28h0Z"/>
      <path class="cls-1" d="M146.31,20.81c.57,0,1.14-.08,1.69-.26.47-.15.91-.36,1.31-.63.33-.22.62-.49.85-.8.18-.22.29-.48.31-.77V6.68h.61c.58-.02,1.15.16,1.62.49.24.22.43.5.55.81.12.31.15.64.12.97v13.82h-2.89v-1.43c-.54.57-1.19,1.04-1.91,1.37-1,.44-2.08.64-3.17.6-1.06.06-2.12-.15-3.07-.61-.69-.36-1.26-.92-1.64-1.59-.36-.64-.57-1.35-.63-2.08-.06-.75-.09-1.48-.09-2.18V6.68h.61c.58-.02,1.15.15,1.62.47.25.22.43.5.55.8.12.31.15.64.11.96v7.95c-.02.71.05,1.41.19,2.1.1.48.37.9.76,1.19.33.24.71.42,1.11.51.45.1.92.14,1.38.14h0Z"/>
      <path class="cls-1" d="M167.19,7.39c.35.17.67.42.92.72.15.18.23.4.24.63-.01.3-.07.59-.19.87-.13.33-.28.66-.46.97h-.48c-.46-.54-1.04-.97-1.7-1.26-.74-.35-1.55-.53-2.37-.52-.33,0-.65.03-.97.09-.34.05-.68.16-.99.31-.31.14-.57.36-.77.63-.21.3-.32.65-.31,1.02-.02.33.07.65.24.93.17.28.43.5.73.63.77.36,1.58.63,2.41.82.67.16,1.34.35,1.98.59.61.22,1.18.53,1.69.92.49.38.89.87,1.16,1.43.3.66.45,1.38.43,2.1.02.76-.16,1.51-.51,2.18-.33.61-.8,1.15-1.36,1.56-.61.43-1.28.74-2,.92-.77.22-1.57.32-2.37.32-.73,0-1.45-.05-2.16-.19-.55-.1-1.09-.25-1.6-.46-.44-.15-.85-.4-1.2-.72-.2-.19-.32-.44-.34-.72,0-.32.09-.63.24-.92.16-.31.36-.68.61-1.08.16.13.38.3.66.51.32.22.66.41,1.02.57.42.19.86.34,1.31.46.5.13,1.01.19,1.53.19.4,0,.81-.04,1.21-.12.36-.07.72-.2,1.04-.39.29-.18.54-.42.72-.72.2-.36.3-.77.29-1.19.02-.41-.09-.82-.3-1.17-.21-.31-.49-.57-.82-.76-.36-.21-.74-.38-1.14-.49-.41-.13-.82-.23-1.23-.3-.64-.13-1.27-.3-1.89-.52-.59-.21-1.14-.52-1.62-.91-.47-.36-.85-.83-1.13-1.35-.3-.61-.45-1.29-.43-1.97-.01-.69.15-1.37.48-1.98.31-.57.76-1.06,1.3-1.43.57-.37,1.19-.65,1.85-.82.71-.19,1.43-.29,2.16-.29.8,0,1.6.08,2.37.27.61.13,1.2.35,1.75.64h0Z"/>
      <path class="cls-1" d="M172.68,20.76c-.17-.46-.26-.94-.29-1.43-.03-.51-.05-1.01-.05-1.51V1.97h.61c.57-.01,1.13.15,1.6.47.25.21.44.47.56.77s.16.62.12.94v2.65h5.09v2.5h-5.09v8.72c0,1.85.74,2.78,2.22,2.78.35,0,.7-.06,1.02-.19.3-.12.58-.26.85-.44.22-.15.44-.31.63-.49.12-.1.23-.21.32-.34.26.31.5.64.72.98.18.27.28.59.29.92-.02.25-.13.48-.31.66-.24.27-.53.49-.85.66-.43.23-.88.4-1.35.51-.58.14-1.17.21-1.76.2-.99.05-1.98-.19-2.84-.68-.7-.43-1.23-1.07-1.52-1.83h0Z"/>
      <path class="cls-1" d="M92.56,49.44c.6,0,1.19-.05,1.77-.17.47-.1.94-.23,1.39-.41.35-.13.69-.3,1.01-.49.22-.13.43-.28.61-.46v-5.96h-4.78v-2.41h7.62v9.59c-.26.29-.55.54-.87.76-.51.36-1.06.67-1.64.93-1.7.75-3.55,1.13-5.41,1.1-1.56.04-3.11-.26-4.55-.88-1.24-.56-2.32-1.41-3.16-2.48-.86-1.13-1.49-2.41-1.85-3.78-.41-1.57-.61-3.18-.6-4.8-.01-1.59.19-3.17.61-4.7.36-1.35,1-2.6,1.88-3.69.87-1.05,1.97-1.88,3.23-2.42,1.46-.62,3.04-.92,4.62-.88.82,0,1.63.1,2.42.29.73.16,1.44.4,2.12.72.55.26,1.06.6,1.5,1.02.16.13.3.29.4.48.1.18.16.38.18.59-.01.32-.11.64-.27.92-.17.33-.38.63-.61.92h-.58c-.25-.29-.52-.55-.82-.78-.37-.29-.76-.54-1.18-.76-.48-.25-.98-.44-1.5-.57-.61-.15-1.23-.23-1.86-.22-1.2-.04-2.39.22-3.45.78-.88.5-1.62,1.2-2.16,2.05-.56.88-.95,1.85-1.15,2.86-.22,1.11-.33,2.23-.32,3.36,0,1.17.12,2.34.36,3.49.22,1.07.63,2.09,1.23,3.01.58.89,1.36,1.62,2.29,2.15,1.08.59,2.3.88,3.53.84h0Z"/>
      <path class="cls-1" d="M116.78,47.72c0,.42.01.85.06,1.27.02.25.11.48.26.68.13.15.31.25.51.29.28.05.56.07.84.06v1.35c-.24.08-.48.13-.72.17-.31.04-.61.07-.92.06-.65.02-1.29-.13-1.87-.42-.27-.15-.5-.37-.66-.63-.16-.26-.26-.56-.28-.87-.6.58-1.29,1.07-2.04,1.43-.98.43-2.06.64-3.13.59-.6,0-1.2-.07-1.79-.2-.59-.12-1.14-.37-1.63-.72-.51-.38-.92-.87-1.21-1.43-.34-.73-.51-1.53-.48-2.34-.04-1.03.28-2.04.9-2.86.6-.74,1.36-1.35,2.23-1.76.89-.45,1.83-.78,2.81-.95.92-.15,1.84-.24,2.77-.27h.72c.24-.01.48-.01.72,0v-.47c.06-.84-.2-1.66-.72-2.32-.48-.53-1.42-.79-2.82-.79-.88-.02-1.76.11-2.6.39-.72.27-1.41.63-2.05,1.07h-.35c-.19-.3-.34-.62-.46-.95-.11-.26-.17-.54-.19-.82.02-.17.07-.34.17-.48.1-.14.22-.26.38-.35.44-.31.93-.55,1.44-.72.63-.21,1.27-.37,1.93-.47.69-.11,1.39-.17,2.08-.17.97-.02,1.95.1,2.89.37.71.22,1.35.62,1.86,1.15.5.52.85,1.16,1.02,1.86.21.84.31,1.71.3,2.58v6.68h.02ZM113.89,43.38h-.99c-.74,0-1.47.05-2.21.14-.7.08-1.39.25-2.04.51-.57.22-1.08.58-1.49,1.03-.4.49-.61,1.11-.58,1.75,0,.65.21,1.28.61,1.8.29.3.65.53,1.05.67.4.14.82.19,1.24.14.57,0,1.14-.09,1.68-.26.51-.15.99-.36,1.44-.62.37-.22.69-.49.97-.82.21-.23.34-.53.36-.84v-3.48h-.05Z"/>
      <path class="cls-1" d="M129.87,35.08c.87,0,1.72.18,2.53.51.81.3,1.5.86,1.95,1.59.62-.63,1.35-1.13,2.16-1.47.97-.43,2.02-.65,3.09-.63,1.23-.08,2.46.28,3.45,1.02.8.65,1.36,1.56,1.57,2.57.12.5.19,1,.2,1.51v11.24h-2.89v-10.76c0-.37-.07-.75-.19-1.1-.14-.56-.49-1.04-.97-1.35-.69-.36-1.46-.53-2.24-.47-.73,0-1.45.16-2.1.47-.55.25-1.04.61-1.44,1.05.05.39.08.79.1,1.2.02.42.02.85,0,1.3v9.66h-2.89v-9.52c0-.45-.02-.89-.07-1.34-.04-.39-.12-.77-.24-1.14-.37-1.13-1.39-1.7-3.07-1.7-.49,0-.97.07-1.44.2-.44.12-.86.31-1.25.54-.34.2-.64.46-.89.76-.21.23-.32.52-.34.83v11.36h-2.89v-15.99h.65c.51-.02,1.02.13,1.44.42.2.16.37.36.49.58.12.22.2.47.23.72.6-.6,1.31-1.09,2.09-1.43.93-.42,1.93-.63,2.95-.63h0Z"/>
      <path class="cls-1" d="M153.04,30.26c.01.25-.02.5-.11.74-.09.24-.22.45-.39.63-.17.18-.38.33-.61.43-.23.1-.48.15-.73.15s-.5-.05-.73-.15c-.23-.1-.44-.24-.61-.43-.17-.18-.31-.4-.39-.63-.09-.24-.12-.49-.11-.74,0-.25.03-.51.12-.75.09-.24.23-.46.4-.64.17-.17.38-.31.6-.4.23-.09.47-.14.71-.14s.49.05.71.14c.23.09.43.23.6.4.18.19.31.4.4.64.09.24.13.49.12.75h0ZM149.87,35.31h.61c.58-.02,1.15.16,1.62.49.24.22.43.5.55.81.12.31.15.64.12.97v10.81c-.04.48.06.96.29,1.39.18.16.39.29.63.36.23.07.48.09.72.05v1.22c-.27.08-.55.14-.84.17-.34.04-.69.07-1.04.06-.52.03-1.05-.08-1.52-.31-.34-.19-.61-.47-.79-.82-.18-.35-.28-.74-.31-1.13-.03-.42-.05-.83-.05-1.24v-12.84h0Z"/>
      <path class="cls-1" d="M158.73,35.38c.51-.01,1.01.12,1.44.39.21.16.39.36.51.59.12.23.2.49.21.75.63-.59,1.36-1.06,2.16-1.39,1.01-.43,2.1-.64,3.2-.61,1.27-.08,2.52.28,3.55,1.02.79.65,1.35,1.54,1.58,2.53.12.5.19,1,.2,1.51v11.24h-2.89v-10.76c0-.37-.07-.75-.19-1.1-.14-.56-.5-1.05-.99-1.35-.68-.36-1.45-.52-2.22-.47-1.09-.05-2.17.21-3.11.77-.31.15-.58.38-.78.66-.2.28-.33.6-.37.95v11.32h-2.89v-15.99h.36l.22-.04Z"/>
      <path class="cls-1" d="M190,50.29c.01,1.24-.11,2.47-.36,3.68-.2.99-.63,1.92-1.25,2.73-.63.77-1.45,1.36-2.39,1.71-1.21.43-2.5.63-3.79.59-.94.01-1.88-.09-2.8-.31-.69-.15-1.36-.39-1.99-.72-.33-.18-.63-.43-.87-.72-.16-.2-.25-.46-.25-.72.02-.36.16-.7.39-.98.22-.31.46-.6.72-.88.13.15.28.28.45.39.32.24.66.45,1.01.63.47.25.97.45,1.49.59.61.18,1.24.26,1.88.26.89.04,1.79-.12,2.61-.46.62-.28,1.14-.73,1.5-1.3.37-.61.6-1.29.69-1.99.1-.84.16-1.68.15-2.52v-.26c-.18.18-.41.39-.68.62-.3.24-.62.45-.97.62-.41.2-.84.35-1.28.47-.51.13-1.04.19-1.57.19-.87,0-1.74-.15-2.56-.44-.82-.3-1.57-.79-2.16-1.43-.68-.73-1.18-1.6-1.49-2.54-.39-1.24-.58-2.54-.55-3.84-.03-1.31.16-2.61.55-3.87.3-.98.79-1.88,1.44-2.66.59-.67,1.33-1.2,2.17-1.54.82-.34,1.71-.51,2.6-.51.93-.03,1.85.14,2.7.49.68.29,1.29.71,1.81,1.24.04-.23.14-.45.27-.64s.31-.35.51-.47c.36-.22.77-.35,1.2-.36h.58c.09.01.18.01.27,0v14.95h-.01ZM178.93,43.33c0,.82.06,1.63.2,2.43.12.69.36,1.34.72,1.94.33.54.8.98,1.36,1.28.64.32,1.36.48,2.08.46.52,0,1.03-.06,1.53-.2.43-.12.84-.29,1.22-.51.31-.18.58-.42.79-.72.17-.24.27-.52.28-.81v-7.88l-.53-.51c-.25-.22-.52-.42-.82-.57-.36-.19-.75-.35-1.15-.46-.47-.13-.96-.19-1.44-.19-.59-.02-1.18.09-1.72.34-.54.25-1.01.62-1.37,1.09-.76.97-1.13,2.4-1.13,4.29Z"/>
    </g>
  </g>
</svg>