<?xml version="1.0" encoding="UTF-8"?>
<svg id="Layer_2" data-name="Layer 2" xmlns="http://www.w3.org/2000/svg" viewBox="0 0 225.84 81.92">
  <defs>
    <style>
      .cls-1 {
        fill: #fff;
        stroke-width: 0px;
      }
    </style>
  </defs>
  <g id="Layer_1-2" data-name="Layer 1">
    <g>
      <path class="cls-1" d="M216.31,38.23h-14.32v-7.99h23.7c.05,1.72.12,3.45.15,5.17.07,4.3-.51,8.5-2.25,12.47-2.59,5.89-6.99,10.01-13.16,12.06-8.55,2.87-17.19,2.77-25.64-.31-7.77-2.83-13.14-8.29-16.18-15.8-3.5-8.64-3.61-17.4.2-25.96,3.88-8.71,10.8-14.14,20.12-16.62,5.78-1.53,11.62-1.63,17.45-.18,5.87,1.45,10.54,4.69,14.43,9.31-2.35,1.74-4.67,3.47-7.04,5.22-.16-.15-.35-.28-.48-.42-3.86-4.2-8.7-6.27-14.43-6.35-6.65-.11-12.44,1.84-17.02,6.74-2.98,3.19-4.69,6.98-5.29,11.26-.65,4.61-.43,9.18,1.43,13.51,3.25,7.6,9.15,11.9,17.5,12.82,4.26.47,8.45.16,12.43-1.5,5.85-2.46,8.77-7.29,8.4-13.44h0ZM50.82,15.68c-.53-.41-.93-.72-1.34-1.03-5.75-4.36-12.25-6.28-19.5-5.78-10.11.72-18.1,8.1-19.46,17.99-.75,5.39-.33,10.64,2.42,15.48,3.88,6.8,9.84,10.43,17.85,10.64,7.26.18,13.56-2.28,19.12-6.74.2-.15.38-.31.58-.46.03-.03.1-.02.22-.05.02.25.05.47.05.7,0,3.06-.02,6.14.02,9.2,0,.57-.22.88-.66,1.17-4.28,2.85-9.01,4.41-14.14,4.88-5.85.55-11.6.02-17.05-2.25C9.11,55.38,3.04,48.11.82,37.93-.98,29.65.13,21.66,4.73,14.38,9.67,6.62,16.86,2,26.04.5c8.8-1.43,17,.21,24.51,5.05.58.37.81.73.76,1.43-.18,2.85-.33,5.71-.5,8.71ZM158.21,19.39c-2.9,0-5.65.02-8.4-.01-.25,0-.61-.26-.75-.49-3.26-5.32-8.2-8.01-14.29-9.13-6.79-1.25-12.23,1.46-17.29,5.42-4.79,3.74-8.49,8.43-11.7,13.51-3.25,5.11-7.09,9.68-12.26,13.04-3.55,2.31-7.41,3.58-11.72,3.22-.38-.03-.76-.1-1.14-.15-.35-.05-.7-.13-1.21-.23.88-.41,1.64-.7,2.37-1.09,3.91-2.07,7.03-5.05,9.91-8.28,3.83-4.3,6.93-9.1,9.98-13.95,3.66-5.83,8.25-10.84,14.1-14.66,5.22-3.42,10.9-5.14,17.2-4.78,6.03.33,11.58,1.92,16.39,5.71,3.45,2.74,7.36,7.83,8.8,11.88h0Z"/>
      <path class="cls-1" d="M56.19,43.24c.5-.05.73-.08.96-.08,2.35,0,4.69-.03,7.04.02.36,0,.85.28,1.04.57,3.46,5,8.33,7.76,14.3,8.84,1.49.26,2.98.49,4.49.62,2.07.18,4.06-.34,5.95-1.12,4.13-1.71,7.39-4.57,10.47-7.68,3.11-3.14,5.39-6.85,7.84-10.45,2.93-4.3,6.26-8.27,10.28-11.64,2.82-2.36,5.85-4.35,9.56-5.09,2.62-.52,5.05-.11,7.52,1.15-3.48.44-6.05,2.28-8.47,4.36-4.38,3.81-7.79,8.41-10.99,13.17-1.89,2.8-3.61,5.71-5.67,8.4-4.56,5.92-10.09,10.74-17.07,13.82-3.46,1.53-7.09,2.51-10.86,2.56-3.17.05-6.28-.68-9.3-1.71-6.23-2.11-11.32-5.71-14.78-11.29-.83-1.38-1.51-2.85-2.34-4.43ZM115.53,46.01c7.92,7.05,16.71,9.44,26.6,4.72,6.4-3.04,9.3-8.87,11.52-15.3-.53-.03-.88-.06-1.21-.06-5.22,0-10.44-.02-15.66.02-.76,0-1.08-.16-1.04-.99.1-2.17.13-4.33.17-6.51,0-.55.23-.68.74-.68,7.92.02,15.86.02,23.78,0,.6,0,.79.21.89.78,1.16,7.65-.6,14.57-5.52,20.59-4.69,5.73-10.57,9.86-18.05,11.33-8.2,1.61-15.78-.1-22.67-4.7-1.11-.75-2.17-1.6-3.21-2.43-.17-.13-.33-.52-.26-.64,1.28-2.05,2.6-4.07,3.93-6.12h0ZM99.08,16.45c-1.53-1.22-2.93-2.49-4.49-3.53-3.38-2.25-7.18-3.21-11.25-3.3-5.97-.15-11.15,1.76-15.58,5.66-3.18,2.82-5.15,6.38-6.41,10.35-.75,2.34-1.23,4.72-1.14,7.18.02.65.13,1.3.1,1.94-.02.21-.35.55-.55.55-1.96.05-3.93.02-5.88.03-.5,0-.65-.23-.7-.68-.32-2.77-.25-5.58.22-8.33.85-5.13,2.77-9.81,6.25-13.79,4.71-5.35,10.62-8.77,17.7-10.07,9.64-1.77,18.01,1.11,25.42,7.13.46.38.51.65.18,1.14-1.32,1.94-2.62,3.89-3.86,5.73ZM108.19,81.6v-11.51c2.14.13,4.29.03,6.33.44,2.21.44,3.26,2.2,3.53,4.33.1.88.05,1.79-.12,2.65-.45,2.31-1.96,3.81-4.32,4.05-1.77.16-3.56.03-5.42.03ZM110.86,79.36c1.51.02,3.02.31,3.96-1.22.76-1.24.7-3.56-.15-4.64-1.01-1.29-2.42-.99-3.81-.96v6.82ZM178.34,75.95c.05-2.23.61-4.23,2.78-5.35,3.66-1.9,7.51.41,7.84,4.72.06.84,0,1.67-.2,2.49-.63,2.75-2.72,4.22-5.65,4.02-2.54-.16-4.41-2.05-4.69-4.75-.03-.37-.05-.75-.08-1.12ZM181.03,75.81c.18.78.3,1.63.6,2.39.33.85,1.08,1.3,2.02,1.3.96.02,1.71-.42,2.1-1.3.68-1.51.66-3.06-.02-4.56-.38-.85-1.09-1.25-2.04-1.27-.95,0-1.67.42-2.04,1.27-.31.65-.41,1.38-.63,2.17ZM73.33,70.24h2.67v7.01c0,1.6.66,2.41,1.94,2.38,1.26-.02,1.91-.83,1.91-2.43v-6.93h2.57c.03.16.08.34.08.52,0,2.28.03,4.56,0,6.82-.03,2.67-1.76,4.25-4.56,4.26-2.77.02-4.52-1.53-4.57-4.15-.08-2.49-.03-4.95-.03-7.49ZM222.28,72.94c-.28-.1-.51-.19-.75-.24-.74-.15-1.51-.36-2.27-.41-.61-.05-1.33-.03-1.56.75-.2.65.15,1.14,1.06,1.51.66.28,1.34.47,2.01.75,1.81.76,2.59,1.94,2.39,3.57-.18,1.48-1.44,2.64-3.25,2.91-1.56.24-3.07.03-4.56-.46-.51-.18-.7-.42-.6-.94.1-.47.13-.96.2-1.5.76.19,1.49.44,2.24.55.7.1,1.44.16,2.14.05.37-.07.88-.49.95-.81.08-.34-.2-.91-.5-1.15-.46-.36-1.08-.52-1.64-.75-.55-.24-1.14-.42-1.67-.7-1.13-.59-1.69-1.51-1.64-2.78.05-1.25.65-2.18,1.77-2.72,1.87-.89,3.76-.62,5.63.03.15.05.28.36.28.55-.03.55-.15,1.14-.23,1.79h0ZM10.72,72.86c-.99-.19-1.87-.39-2.77-.54-.3-.05-.65-.07-.9.05-.36.18-.83.46-.89.78-.07.33.18.86.46,1.09.46.34,1.09.5,1.64.75.68.31,1.39.54,2.01.94,1.81,1.2,1.81,3.79.07,5.08-1.52,1.12-5.34,1.22-6.91.16-.12-.08-.25-.24-.23-.36.05-.64.13-1.27.18-1.74,1.44.18,2.8.38,4.16.47.53.05,1.06-.18,1.21-.78.15-.65-.15-1.12-.73-1.4-.5-.24-1.03-.41-1.52-.62-.63-.28-1.29-.49-1.86-.86-1.67-1.09-1.87-3.48-.35-4.75.58-.49,1.39-.93,2.12-.96,1.36-.07,2.72.18,4.08.32.46.05.63.32.51.81-.15.49-.2,1.04-.28,1.55h0ZM41.31,72.49h-2.92v-2.25h8.53v2.21h-2.9v9.13h-2.72v-9.1ZM149.72,70.27v11.33h-2.57v-11.33h2.57Z"/>
    </g>
  </g>
</svg>