<?xml version="1.0" encoding="UTF-8"?>
<svg id="Layer_2" data-name="Layer 2" xmlns="http://www.w3.org/2000/svg" viewBox="0 0 224.06 93.58">
  <defs>
    <style>
      .cls-1 {
        fill: #fff;
        stroke-width: 0px;
      }
    </style>
  </defs>
  <g id="Layer_1-2" data-name="Layer 1">
    <g>
      <polygon class="cls-1" points="0 33.2 0 60.37 14.36 46.79 0 33.2"/>
      <polygon class="cls-1" points="209.7 46.79 224.06 60.37 224.06 33.2 209.7 46.79"/>
      <path class="cls-1" d="M35.82,23.27c0-4.66-2.16-5.31-7.09-5.31v24.18c4.29.5,7.42-.03,7.13-6.1-.2-4.25-.04-8.51-.04-12.77Z"/>
      <path class="cls-1" d="M28.77,50.36v24.17c5.41,0,7.69-.78,7.73-4.98.04-4.55-.05-9.1.11-13.64.2-5.52-2.95-5.56-7.84-5.56Z"/>
      <path class="cls-1" d="M220.69,33.82V0H3.36v33.82l13.71,12.96-13.71,12.96v33.82h217.33v-33.82l-13.71-12.96,13.71-12.96ZM21.04,10.22c1.42,0,9.23,0,10.42,0,12.16.06,12.22,8.56,12.22,10.55,0,5.21.08,10.52.08,15.64s-1.1,7.32-1.97,8.18h-20.75V10.22ZM44.56,70.88c-.03,5.85-4.66,11.15-10.46,11.56-4.31.3-8.66.06-13.06.06v-34.71h21.69c1.18,1.87,1.78,3.92,1.81,6.08.06,5.67.05,11.34.02,17.01ZM50.2,10.07h20.34v7.6h-12.35v24.57h12.09v2.22h-20.07V10.07ZM70.57,82.49h-20.37v-34.84h20.07v2.36h-12.02v24.53h12.32v7.96ZM91.64,82.48h-7.65v-34.83h7.65v34.83ZM98.76,17.74h-6.93v26.72h-7.91v-26.73h-7.73v-7.6h22.56v7.61ZM127.24,72.91c-.3,4.53-5.02,8.94-9.49,9.51-5.66.71-10.71-2.02-12.77-6.69-1.45-3.3-.96-6.69-1.03-10.18h7.86c0,1.58,0,3.13,0,4.68,0,2.94,1.21,4.29,3.86,4.3,2.61,0,4.14-1.52,4.07-4.31-.09-3.59.17-7.17-.28-10.77-.5-4.04-2.75-6.87-5.61-9.41-.82-.72-1.67-1.41-2.91-2.45,4.57,0,8.61-.09,12.63.06,2.41,1.75,3.86,6.06,3.86,9.64-.04,5.21.15,10.43-.19,15.62ZM127.63,27.12h-7.84c0-1.97.12-3.88-.03-5.76-.17-2.03-1.33-3.36-3.45-3.56-2.18-.21-3.91.89-4.08,2.93-.38,4.52-.62,9.11.14,13.61.72,4.26,3.93,6.84,7.1,9.34.22.18.43.37.91.79h-12.76c-2.24-2.58-3.25-5.74-3.4-9.06-.21-4.62-.08-9.27-.05-13.9.03-4.86,2.58-8.26,6.71-10.31,4.25-2.11,8.48-1.56,12.35,1.32,5.07,3.76,4.7,9.13,4.41,14.6ZM155.62,70.76c-.02,6.36-5.12,11.62-11.44,11.81-6.33.2-11.9-4.65-12.07-10.98-.2-7.29-.07-16.6-.04-23.9h7.83c0,6.78-.03,15.56-.03,22.33,0,3.6,1.89,5.15,5.39,4.31,2-.48,2.44-2.2,2.45-3.94.05-6.69.02-16.01.02-22.7h7.9c0,1.02,0,17.27,0,23.07ZM155.63,44.45h-7.91v-1.47c0-6.99,0-13.98,0-20.98,0-2.65-1.43-4.21-3.82-4.24-2.35-.03-3.94,1.65-3.95,4.25-.03,6.95-.03,13.9-.04,20.85,0,.49,0,.97,0,1.59h-7.84c0-4.63-.03-9.17,0-13.71.03-3.59-.09-7.21.27-10.78.54-5.29,4.08-8.18,8.85-9.69,3.97-1.25,9.2.73,11.98,4.19,1.75,2.17,2.48,4.57,2.47,7.31-.03,7.52-.01,15.05-.01,22.67ZM181.05,50.07h-12.25v32.41h-7.86v-34.85h20.12v2.44ZM181.46,17.72h-12.63v24.49h12.22v2.26h-20.09V10.12h20.5v7.59ZM200.07,82.5h-7.66v-34.83h7.66v34.83ZM200.26,44.43h-7.92v-26.66h-7.85v-7.68h22.67v7.67h-6.9v26.66Z"/>
    </g>
  </g>
</svg>