<?xml version="1.0" encoding="UTF-8"?>
<svg id="Layer_2" data-name="Layer 2" xmlns="http://www.w3.org/2000/svg" viewBox="0 0 298.1 65.37">
  <defs>
    <style>
      .cls-1 {
        fill: #fff;
        stroke-width: 0px;
      }
    </style>
  </defs>
  <g id="Layer_1-2" data-name="Layer 1">
    <g>
      <path class="cls-1" d="M206.83,62.45c.11-1.07-.19-1.93-1.38-2.34,1.44-.51,1.62-.75,1.63-2.14,0-.19,0-.39,0-.58-.05-.94-.56-1.53-1.44-1.88-.68-.28-1.38-.19-2.07-.19-1.08,0-2.16-.04-3.22.02-.05.21-.09.32-.09.43,0,2.91,0,5.82-.01,8.73,0,.33.09.6.25.87h1.41c.3-.36.24-.8.24-1.22,0-1.11,0-2.22,0-3.35.8-.18,1.45.29,2.09.14.51.26.63.64.73,1.14.23,1.09.05,2.23.44,3.29h1.64c.03-.17.16-.29.12-.53-.15-.79-.41-1.57-.33-2.39ZM205.03,59.07c-.83.74-1.83.35-2.83.47v-3.02c.5,0,.97-.04,1.43.01.42.05.82.19,1.23.29q.63.91.18,2.25Z"/>
      <path class="cls-1" d="M233.53,59.05c.02-.67-.09-1.31-.23-1.95-.14-.64-.49-1.11-1.1-1.41-1.61-.79-3.19-.73-4.77.09-.52.27-.89.73-.91,1.27-.03.85-.26,1.68-.27,2.53-.02,1.25.09,2.48.25,3.7.12.87.51,1.64,1.5,1.86.15.03.31.05.37.22h3.04c.16-.33.54-.25.81-.38.54-.26.91-.67,1.03-1.2.13-.59.32-1.18.29-1.82-.05-.97-.04-1.95,0-2.92ZM231.62,62.43c-.02,1.41-1.14,2.11-2.47,1.56-.21-.09-.42-.2-.68-.32-.47-1.43-.44-5.35.02-6.69.63-.63,1.43-.48,2.23-.45.68.36.91.96.9,1.72-.01,1.4,0,2.79-.01,4.19Z"/>
      <path class="cls-1" d="M188.47,55.34c-.98-.28-1.99-.26-2.97,0-1.42.37-2.06,1.19-2.1,2.55-.05,1.56-.04,3.11,0,4.67.03,1.47.55,2.12,1.96,2.65.06.02.1.11.15.16h3.04c.05-.18.22-.17.36-.23.95-.44,1.54-1.14,1.53-2.25,0-1.71,0-3.43,0-5.14,0-1.32-.89-2.1-1.97-2.41ZM188.49,63.39c-.39.52-.88.83-1.51.78-.66-.05-1.31-.18-1.69-.89v-5.89c.2-.37.48-.63.85-.87.77-.02,1.6-.22,2.32.51.51,2.05.31,4.16.03,6.36Z"/>
      <path class="cls-1" d="M198.68,55.35c-.52-.04-1.08-.11-1.7.08,0,.97,0,1.9,0,2.83,0,1.48.02,2.96-.02,4.43-.03.99-.57,1.47-1.56,1.49-1.11.03-1.67-.48-1.68-1.6-.02-2.1,0-4.2-.01-6.3,0-.3.1-.62-.2-.96-.5.07-1.08-.14-1.68.15,0,2.28.02,4.53,0,6.78-.03,1.77.51,2.58,2.07,3.03.03,0,.04.07.05.1h2.81c.05-.06.08-.14.14-.17,1.6-.61,1.96-1.09,1.97-2.72.01-2.14,0-4.28,0-6.42,0-.22.07-.47-.18-.71Z"/>
      <path class="cls-1" d="M257.51,55.37c-.2.42-.11.81-.12,1.19-.01,1.98.01,3.97-.02,5.95-.02,1.41-1.24,2.1-2.51,1.48-.3-.14-.51-.35-.71-.67-.08-2.61.03-5.28-.06-7.97-.7-.01-1.27-.14-1.85.12,0,2.4,0,4.78,0,7.15,0,1.48.42,2.03,1.86,2.56.1.04.17.13.26.2h2.81c.05-.18.22-.18.36-.23.91-.32,1.47-.94,1.66-1.91.06-.31.08-.61.08-.92,0-2.06,0-4.12,0-6.19,0-.26.08-.55-.17-.76h-1.6Z"/>
      <path class="cls-1" d="M180.93,60.26c-.94-.47-1.89-.91-2.82-1.4-.59-.31-.88-.89-.78-1.42.11-.59.53-.91,1.29-.94.39-.02.78-.06,1.15.08.77.29.41,1.11.78,1.71.51.07,1.06.17,1.6-.04.11-.4.11-.76.03-1.09-.19-.84-.63-1.51-1.5-1.77-1.17-.35-2.37-.36-3.53.03-.71.24-1.27.72-1.53,1.48-.41,1.2.08,2.47,1.28,3.13.75.41,1.52.78,2.29,1.14.54.26,1.03.55,1.32,1.08.13.62-.01,1.16-.47,1.63-.41.07-.77.3-1.22.31-1.12.03-1.65-.43-1.75-1.55-.02-.26.08-.55-.21-.77-.51,0-1.05-.09-1.57.04-.21,1.82.26,2.63,1.85,3.29.06.03.1.11.15.17h3.04c.11-.34.46-.21.69-.34,1.36-.8,1.78-2.28,1.06-3.69-.27-.52-.67-.84-1.17-1.08Z"/>
      <path class="cls-1" d="M250.03,60.44c-.63-.38-1.29-.69-1.98-.96-.72-.27-1.45-.58-1.85-1.33v-1.03c.65-1,1.6-.54,2.36-.6.73.46.5,1.25.8,1.81.54,0,1.04.12,1.52-.1.07-.12.18-.21.18-.31.11-1.48-.71-2.47-2.15-2.62-.15-.02-.32.01-.46-.04-.99-.4-1.9.03-2.8.32-.91.3-1.26,1.1-1.35,1.98-.12,1.2.54,1.97,1.53,2.5.79.42,1.59.81,2.4,1.18.64.3,1.08.73,1.21,1.49-.12.33-.25.69-.37,1.01-1.69.7-2.24.61-3.08-.46-.1-.46.05-.93-.16-1.39-.3-.01-.57-.05-.84-.03-.3.01-.63-.1-.88.16-.26,1.75.42,2.85,2,3.26.03,0,.04.06.06.1h2.81c.11-.28.4-.19.6-.27,1.06-.42,1.55-1.27,1.63-2.33.07-.97-.31-1.79-1.18-2.32Z"/>
      <path class="cls-1" d="M296.9,60.45c-.64-.38-1.29-.69-1.98-.96-.72-.29-1.42-.63-1.87-1.31v-1.05c.65-1.01,1.6-.54,2.36-.6.74.46.5,1.25.8,1.82.56-.05,1.12.18,1.6-.2.23-1.65-.43-2.54-1.92-2.86-.9-.2-1.75-.14-2.63.02-1.72.33-2.66,2.14-1.82,3.64.28.51.73.9,1.28,1.15.74.35,1.46.73,2.2,1.08.54.26,1.03.55,1.32,1.1q.01.87-.52,1.62c-.34.09-.71.23-1.09.27-1.17.12-1.75-.39-1.85-1.55-.02-.22.07-.47-.17-.73-.51-.06-1.07-.09-1.62.03-.2,1.86.28,2.68,1.87,3.28.06.02.1.11.15.16h2.81c.11-.28.4-.19.6-.27,1.04-.42,1.65-1.24,1.68-2.3.03-.92-.3-1.81-1.21-2.35Z"/>
      <path class="cls-1" d="M290.23,61.68c-.72-1.2-1.8-1.72-2.94-2.16-.77-.29-1.52-.6-1.99-1.36,0-.38-.09-.76.11-1.24.68-.71,1.56-.43,2.32-.35.68.48.46,1.21.73,1.77.61-.09,1.28.28,1.72-.39,0-.1,0-.18,0-.25-.22-1.51-.87-2.56-2.62-2.44-.99-.42-1.9,0-2.8.31-.96.32-1.31,1.14-1.37,2.09-.07,1.16.59,1.88,1.53,2.39.78.42,1.59.81,2.4,1.19.64.3,1.08.74,1.22,1.48-.12.34-.25.69-.37,1.01-1.68.71-2.24.62-3.09-.46-.1-.46.05-.93-.16-1.39-.6-.03-1.17-.13-1.71.07-.27,1.81.41,2.9,2,3.31.03,0,.04.06.06.1h2.81c.09-.23.31-.18.49-.24,1.08-.39,1.77-1.32,1.66-2.39-.04-.38,0-.77,0-1.06Z"/>
      <path class="cls-1" d="M265.63,61.98c-.05.9,0,1.84-1.07,2.13-.84.23-1.52-.06-1.99-.83,0-.16,0-.31,0-.47,0-1.01,0-2.02,0-3.03,0-.7-.03-1.4.01-2.1.04-.75.41-1.12,1.17-1.18.42-.03.85,0,1.06,0,1.05.39.64,1.23.9,1.82.57.02,1.1.14,1.59-.1.36-1.32-.17-2.45-1.32-2.83-1.17-.39-2.35-.26-3.53,0-.25.06-.49.23-.71.39-.8.57-1.03,1.42-1.05,2.33-.02,1.48-.03,2.95,0,4.43.03,1.44.56,2.12,1.96,2.65.06.02.1.11.15.16h2.81c.09-.27.36-.26.55-.37,1.03-.61,1.48-1.74,1.13-3-.53-.2-1.08-.18-1.66-.01Z"/>
      <path class="cls-1" d="M213.74,55.5c-.88-.28-1.74-.42-2.7-.24-1.83.34-2.59,1.08-2.6,2.92,0,1.4.02,2.8,0,4.2-.03,1.33.43,2.34,1.76,2.81.06.02.09.11.14.17h2.81c.74-.38,1.58-.66,1.83-1.62.05-.58.14-1.2,0-1.84-.56-.05-1.04-.1-1.51.03-.16.65-.31,1.24-.44,1.78-1.27.7-1.79.61-2.63-.39v-6.26c.96-.67.97-.68,2.46-.47.54.42.48,1.09.58,1.71.55.07,1.03.09,1.51,0,.16-.31.1-.59.12-.85.07-.98-.35-1.64-1.3-1.94Z"/>
      <path class="cls-1" d="M273.95,61.91c-.34.2-.38.46-.39.74,0,.27-.04.54-.06.86-.16.14-.34.29-.52.44-.09.07-.19.13-.27.19q-1.07.05-1.92-.53c.09-.46-.25-.89-.24-1.41.02-1.32-.02-2.64.02-3.96.02-.66.15-1.31.85-1.72.7.04,1.51-.29,2.08.38.17.49-.11,1.02.43,1.42.45.02.98.15,1.48-.1.08-.55.05-1.05,0-1.54-.47-.85-1.17-1.24-2.12-1.43-.8-.16-1.53-.09-2.28.06-1.21.23-2.11.82-2.15,2.45-.04,1.71,0,3.42-.02,5.13,0,.71.3,1.24.77,1.75.33.36.79.43,1.14.73h2.81c.08-.07.16-.17.25-.2,1.2-.34,2.09-1.84,1.45-3.26-.46,0-.92,0-1.31,0Z"/>
      <path class="cls-1" d="M221.82,63.93h-3.5c0-1.13-.13-2.16.09-3.25h3.29c.16-.4.17-.73-.03-1.17h-3.37c0-.57-.02-1.03,0-1.49.02-.49-.11-.99.14-1.53h3.54c.09-.44.18-.8-.07-1.12h-5.4c-.04.16-.09.27-.09.38,0,2.92,0,5.83-.01,8.75,0,.33.09.6.25.87h5.39c.23-.47.44-.93-.22-1.44Z"/>
      <path class="cls-1" d="M278.77,63.87v-3.18h3.44c-.03-.45.13-.79-.14-1.13-1.09-.15-2.22.09-3.3-.14v-2.94h3.6c.11-.45.18-.78-.03-1.1-1.49-.16-4.63-.12-5.5.09v9.89h5.62c0-.45.12-.92-.1-1.35-1.23-.17-2.44.1-3.59-.15Z"/>
      <path class="cls-1" d="M237.58,55.32c-.88.03-1.77-.13-2.66.11v9.94h1.64c.02-1.54.04-3.07.06-4.66,1.13,0,2.14,0,3.15,0,.1,0,.2-.09.32-.14-.03-.35.14-.71-.25-1.07h-3.18v-2.99c1.15,0,2.24,0,3.32,0,.1,0,.2-.09.3-.13.03-.36.14-.71-.17-1.05-.82,0-1.68-.02-2.53,0Z"/>
      <path class="cls-1" d="M270.49,50.39c.95-.07,1.89-.31,2.78-.73,2.55-1.2,4.6-3.03,6.45-5.09.56-.62,1.24-1.18,1.62-1.96-.24-.62-.82-.77-1.31-1.1-1,1.4-2.21,2.49-3.52,3.47-.62.47-1.21,1.14-2.12.98-.34-.26-.64-.51-.79-.83-.13-.95.07-1.81.33-2.67.64-2.18,1.33-4.34,1.95-6.52.97-3.4,1.99-6.79,3.02-10.18.52-1.69.96-3.41,1.38-5.12.12-.48.11-1.01.07-1.51-.17-1.77-1.64-2.98-3.37-2.79-1.71.19-3.32.76-4.83,1.54-2.66,1.38-5.08,3.12-7.4,5.01-2.2,1.79-4.29,3.71-6.27,5.75-.23.24-.48.46-.9.86,2.7-9.74,5.34-19.24,8-28.84-.99.02-1.87-.2-2.67.1-1.31.49-2.64.84-3.99,1.16-2.04.48-4.09.78-6.19.85-.23,0-.47-.05-.64.14-.09.32-.17.61-.25.91-.08.33-.17.67.09,1.08,1.05,0,2.14.02,3.22,0,.63-.01,1.23.1,1.84.22.39.08.68.27.8.6.2.54.38,1.08.22,1.69-.27,1.08-.54,2.16-.84,3.23-.98,3.48-1.91,6.97-2.87,10.46-.68,2.48-1.38,4.96-2.07,7.44-.68,2.44-1.39,4.88-2.05,7.33-.17.61-.46,1.14-.79,1.66-1.21,1.93-2.8,3.52-4.42,5.09-1.44,1.4-3.13,2.42-4.93,3.25-1.15.53-2.38.73-3.64.54-3.21-.49-5.25-3.01-5.91-5.42-.37-1.37-.22-2.77-.26-4.17-.05-1.61.32-3.15.76-4.66.84-2.88,2.23-5.51,3.96-7.96,1.46-2.08,3.36-3.63,5.7-4.65,1.24-.53,2.52-.76,3.86-.64.79.07,1.51.34,1.86,1.14-.02.48-.29.83-.47,1.21-.29.59-.53,1.2-.71,1.83-.41,1.41,0,2.75,1,3.53,1.36,1.06,3.01.74,4,0,1.44-1.07,2.15-2.47,1.91-4.4-.25-1.95-1.24-3.26-2.75-4.35-1.8-1.3-3.9-1.36-5.98-1.54-.42-.04-.81.26-1.26.2-.79-.11-1.56.11-2.29.31-3.27.87-6.18,2.46-8.67,4.76-2.42,2.24-4.28,4.89-5.65,7.89-1.3,2.85-2.04,5.81-2.06,8.94,0,.46.07.93-.06,1.39-2.16,1.72-4.33,3.41-6.77,4.71-1.54.82-3.09,1.57-4.82,1.94-3.17.69-5.72-.74-6.64-3.86-.41-1.4-.27-2.86-.08-4.27.09-.7,0-1.48.49-2.1,1.62-.36,3.28-.45,4.92-.73,3.51-.6,6.83-1.7,9.92-3.43,2.29-1.29,4.3-2.91,5.69-5.2,1.08-1.78,1.41-3.74,1.03-5.7-.4-2.07-1.8-3.44-3.81-4.19-2.25-.84-4.54-.81-6.86-.36-1.88.37-3.63,1.05-5.31,1.95-2.76,1.47-4.97,3.58-6.93,5.96-1.53,1.86-2.74,3.93-3.7,6.14-1.25,2.89-2.12,5.87-2.14,9.05,0,.67-.22,1.19-.68,1.66-.38.39-.72.82-1.07,1.22-1.23,1.41-2.54,2.75-4.49,3.09-1.24-.54-1.87-1.49-1.65-2.6.3-1.47.64-2.93,1-4.38,1.28-5.11,2.57-10.21,3.89-15.31.39-1.52.66-3.08,1.28-4.53,1.94-.07,3.84.04,5.63-.06.44-.45.3-.93.49-1.32.16-.35.11-.79.17-1.28h-5.46c0-.27-.04-.47,0-.64.83-3.4,1.67-6.79,2.5-10.19.06-.26.13-.54-.13-.75h-1.8c-.41.26-.48.67-.65,1.01-.56,1.11-1.19,2.17-1.86,3.22-1.31,2.04-2.83,3.89-4.81,5.32-1.77,1.29-3.76,2.11-5.89,2.55-2.17-1.17-5.09-.49-6.33.95-1.35,1.58-1.75,4.38.06,6.08.48.45.97.89,1.48,1.31.82.68,1.36,1.46,1.04,2.72-.37,1.42-.8,2.81-1.37,4.16-.47,1.1-1.02,2.17-1.48,3.28-.66,1.57-1.48,3.05-2.22,4.56-.21-.08-.3-.22-.33-.37-.4-2.58-.96-5.14-1.42-7.71-.5-2.8-1.04-5.59-1.68-8.36-.38-1.65-.82-3.29-1.4-4.88-.28-.77-.59-1.53-1.43-2.01-3,.35-6.03.96-8.89,1.22-.48-.07-.44-.45-.72-.41h-9.44c-.32,1.21-.64,2.39-.96,3.62-.12-.39-.2-.77-.36-1.11-.43-.9-.82-1.82-1.73-2.42-1.51-1.01-3.1-1.34-4.93-1.16-2.04.2-3.81.97-5.5,2.02-2.99,1.86-5.27,4.42-7.31,7.24-1.7,2.34-2.92,4.93-3.9,7.62-.8,2.21-1.44,4.48-1.45,6.86,0,.37-.1.71-.25,1-.53.99-1.16,1.93-2.01,2.68-.62.55-.8.52-1.61.05-.34-.68-.32-1.32-.12-2.04.53-1.85.97-3.72,1.44-5.58,1.21-4.81,2.42-9.62,3.64-14.42,1.05-4.17,2.08-8.35,3.18-12.52.77-2.9,1.36-5.84,2.27-8.7.05-.15.03-.31-.14-.46-1.79.49-3.65.8-5.51,1.06-2.18.3-4.35.69-6.56.81-.84.05-1.69.18-2.54.2-.33,0-.59.16-.88.39,0,.46-.11.96.11,1.5.49-.1.89.23,1.37.21.87-.05,1.48.38,1.91,1.04.24,1.03-.05,1.97-.26,2.9-.4,1.76-.86,3.51-1.31,5.26-1.12,4.37-2.25,8.74-3.39,13.14-.16-.26-.1-.5-.09-.73.07-1.33-.13-2.62-.48-3.89-.72-2.6-2.3-4.48-4.91-5.29-1.27-.4-2.6-.53-3.99-.34-1.43.2-2.69.7-3.88,1.45-1.97,1.23-3.53,2.9-4.97,4.7-.15.18-.31.35-.46.53-.15.17-.13.51-.47.46.58-2.1,1.16-4.19,1.77-6.4-2.63.41-5.13.84-7.64,1.17-2.52.33-5.06.54-7.58.81-.33.61-.2,1.16-.13,1.78.76-.06,1.42.18,2.11.27.87.12,1.3.61,1.32,1.5.02.73.02,1.45-.17,2.19-.22.85-.39,1.73-.59,2.59-1.16,4.86-2.4,9.7-3.61,14.55-1.13,4.55-2.23,9.11-3.39,13.65-.37,1.45-.68,2.93-1.37,4.28-.4.78-.98,1.19-1.83,1.44-.57.17-1.17.02-1.75.32-.21.65-.36,1.3.1,1.9,1.93.16,17.74.1,18.67-.07.07-.56.08-1.13-.04-1.87-1.38-.2-3.01.05-3.88-1.47-.07-1.29-.1-2.57.24-3.82.43-1.56.86-3.11,1.27-4.67.24-.91.47-1.83.69-2.69.33-.08.48.05.64.16.65.43,1.34.75,2.09,1.01,1.87.64,3.76.53,5.62.13,2.5-.53,4.66-1.79,6.64-3.42,1-.82,1.86-1.75,2.7-2.72.84-.97,1.6-1.99,2.3-3.06.75-1.13,1.41-2.3,2.01-3.55.17.21.13.42.09.6-.26,1.12-.59,2.23-.8,3.36-.28,1.58-.77,3.13-.38,4.78.43,1.8,1.25,3.23,3.06,3.92,1.39.53,2.82.52,4.24.21,1.99-.43,3.61-1.55,5.07-2.93.94-.88,1.7-1.9,2.53-2.97.13.37.22.69.34,1,.53,1.35,1.23,2.56,2.44,3.45,1.89,1.4,4.04,1.81,6.29,1.55,3.06-.36,5.54-1.93,7.54-4.2.92-1.04,1.65-2.24,2.46-3.38.12-.17.14-.43.47-.45,0,.16.02.32,0,.46-.25,1.36-.51,2.7-.24,4.1.14.71.4,1.33.86,1.86.92,1.05,2.18,1.5,3.51,1.61,2.82.23,5.25-.71,7.34-2.6,2.07-1.87,3.6-4.14,4.96-6.54-.41-.62-.99-.95-1.64-1.33-.56.79-1.07,1.56-1.65,2.29-.77.96-1.48,2-2.9,2.34-.68-.53-.95-1.17-.77-1.97.67-3,1.48-5.97,2.29-8.94.78-2.86,1.56-5.71,2.34-8.57.41-1.51.84-3.02,1.26-4.53.43.08.66.28.9.57.54.65.8,1.44,1.03,2.19.82,2.72,1.37,5.52,1.92,8.31.37,1.85.74,3.69,1,5.56.25,1.71.6,3.4.87,5.11.19,1.18.41,2.35.55,3.54.13,1.07.38,2.12.4,3.2,0,.27.02.54.07.81.62,2.98-1.02,6.12-3.81,7.3-1.02-.22-1.83-.81-2.69-1.34-1.39-.85-2.77-1.51-4.55-1.24-2.12.32-4.41,2.45-4,5.12.22,1.4.81,2.58,2.14,3.27,1.51.79,3.08,1.03,4.8.85,1.8-.19,3.34-.9,4.84-1.81,2.7-1.65,4.77-3.97,6.71-6.4,1.99-2.48,3.75-5.12,5.41-7.83,1.62-2.64,3.2-5.3,4.65-8.04,1.16-2.19,2.33-4.37,3.37-6.62,1.3-2.81,2.45-5.67,3.34-8.63.32-1.07.57-2.17.56-3.29,0-.75-.2-1.49-.32-2.3.65,0,1.27-.02,1.89,0,.64.03,1.31-.13,1.93.11,0,.21.03.38,0,.52-.96,3.76-1.96,7.51-2.89,11.28-1.09,4.4-2.44,8.74-3.26,13.2-.25,1.37-.2,2.68.32,3.97.61,1.51,2.54,2.64,4.14,2.42,1.6-.23,3.05-.87,4.35-1.8,2-1.42,3.66-3.21,5.25-5.09.18.55.36,1.1.55,1.65.38,1.12.97,2.14,1.82,2.93,1.61,1.51,3.6,2.21,5.79,2.33,2.07.11,4.08-.25,6.06-.85,3.23-.98,6.1-2.65,8.81-4.62.86-.63,1.69-1.3,2.51-1.93.2.16.26.29.31.44.54,1.66,1.56,3.05,2.82,4.2,2.15,1.97,4.79,2.75,7.68,2.76.66,0,1.31-.14,1.96-.2,1.64-.15,3.17-.67,4.66-1.33,2.01-.9,3.71-2.25,5.25-3.8.31-.31.62-.62.94-.94.06.04.13.08.19.12-.55,2.01-1.1,4.03-1.67,6.11,1.03.07,1.93-.23,2.86-.2.96.03,1.9.47,2.87.16.19-.26.29-.54.38-.84.27-1,.6-1.99.88-2.99.65-2.33,1.28-4.67,1.93-7.01.34-1.22.69-2.44,1.09-3.65.67-2.03,1.91-3.7,3.38-5.22,1.76-1.82,3.61-3.54,5.59-5.11,1.58-1.26,3.18-2.48,5.03-3.33.82-.38,1.66-.66,2.59-.43.31.23.62.47.76.8.1.9,0,1.73-.27,2.56-.84,2.72-1.66,5.44-2.47,8.17-1.15,3.91-2.28,7.83-3.43,11.74-.24.82-.39,1.64-.4,2.5-.01.86.32,1.49.93,2.03.75.66,1.67.86,2.59.8ZM206.95,30.82c.88-2.24,1.94-4.38,3.39-6.32,1.61-2.15,3.55-3.86,6.16-4.72.97-.32,1.95-.44,2.97-.41,1.78.04,2.46,1,2.54,2.53.12,2.24-.69,4.17-2.18,5.81-2.44,2.7-5.53,4.28-9.02,5.2-1.31.34-2.67.39-3.99.67-.21.04-.47.08-.7-.15.15-.89.49-1.75.82-2.6ZM101.84,30.82c-1.01,3.88-2.32,7.66-4.18,11.24-.7,1.35-1.56,2.58-2.55,3.72-.45.51-1.03.93-1.66,1.25-1.35.69-2.37.49-3.45-.71-.18-1.5.05-2.89.41-4.29.9-3.46,1.81-6.9,2.82-10.33.55-1.85,1.25-3.65,2.13-5.36.58-1.14,1.28-2.22,2.27-3.06.68-.58,1.45-1.02,2.38-1.1,1.03-.09,1.7.41,2.14,1.28.26.52.4,1.07.44,1.66.12,1.96-.26,3.84-.75,5.71ZM146.99,28.66c-.66,2.65-1.53,5.25-2.54,7.78-.9,2.27-2.04,4.43-3.65,6.29-.82.95-1.84,1.66-3.29,1.81-1.91-.34-2.14-1.68-2.33-3.11-.09-.68.06-1.38.14-2.07.15-1.31.42-2.58.77-3.84.54-2.01,1.28-3.95,2.09-5.87.97-2.29,2.15-4.46,3.52-6.52.58-.86,1.15-1.74,2.1-2.29.27-.16.54-.28.83-.39,1.77-.61,2.97.36,3.14,2.15.19,2.07-.29,4.06-.79,6.05Z"/>
      <path class="cls-1" d="M76.87,23.54c-.29-5.02-3.74-8.92-8.15-11.03-3.43-1.64-7.27-2.21-11.07-2.33-4.99-.16-9.8.58-14.66,1.62-2.04.44-4.03,1.07-6,1.75-.64.22-1.11.15-1.63-.19-1.56-1.01-3.11-2.05-4.71-2.99-1.03-.61-1.99-1.35-3.1-1.83-1.73-.75-3.51-.26-4.57,1.29-.5.72-.75,1.51-.75,2.39.01,2.69,0,5.37,0,8.13-.62.61-4.36,2.79-5.55,3.66-6.43,4.72-13.07,11.2-15.7,18.93-1.08,3.18-1.46,6.84-.18,10,1.12,2.76,3.23,5.08,5.76,6.62,3.5,2.13,7.65,2.92,11.74,3.16,4.39.26,8.55-.35,12.88-.95,4.41-.62,8.93-2.38,13.06-4.03,4.35-1.74,8.56-3.84,12.5-6.37,2.78-1.78,5.42-3.78,7.87-6,6.06-5.47,12.76-13.16,12.25-21.85ZM26.7,17.54c0-1.3.64-2.11,1.84-2.5.57-.18,1.08-.11,1.56.17,1.17.69,2.33,1.38,3.48,2.1,3.97,2.48,7.94,4.97,11.91,7.46,1.51.95,3.03,1.88,4.52,2.85.69.45,1.11,1.08,1.05,1.95-.02.35,0,.7,0,.84-.4,1.08-1.21,1.45-1.92,1.88-3.8,2.32-7.62,4.61-11.43,6.91-2.25,1.36-4.52,2.7-6.75,4.1-.57.36-1.17.57-1.8.81-.19-.07-.36-.15-.55-.21-1.34-.44-1.89-1.16-1.89-2.56-.01-4.9-.01-9.8-.01-14.71,0-3.03-.01-6.07,0-9.1ZM44.12,53.16c-3.41,1.93-6.92,3.65-10.64,4.9-2.22.75-4.49,1.34-6.82,1.73-2.08.35-4.16.52-6.25.4-2.69-.15-5.3-.68-7.53-2.32-1.95-1.44-3.23-3.3-3.52-5.77-.07-.57-.19-1.13-.21-1.72-.05-1.38.26-2.71.59-4.04.01,1.86.66,3.49,1.72,4.96.84,1.18,1.89,2.14,3.14,2.9,2.15,1.3,4.5,1.96,6.97,2.33,2.52.38,5.06.31,7.57.15,2.8-.18,5.56-.76,8.28-1.53,2.34-.66,4.63-1.47,6.89-2.36.02,0,.06.03.1.05-.01.17-.15.24-.28.31ZM59.9,34.5c-1.95,3.41-4.5,6.32-7.4,8.93-2.25,2.02-4.69,3.81-7.3,5.34-3.76,2.2-7.83,4.06-12.07,5.16-3.8.98-8.2,1.42-11.91-.09-3.68-1.49-4.91-5.17-4.23-8.9.41-2.23,1.38-4.52,2.59-6.43.56-.88,1.17-1.73,1.75-2.6.22-.32.46-.62.81-.84.16.39.08.78.08,1.15,0,3.62,0,7.24.01,10.86,0,1.25.35,2.34,1.34,3.21,1.01.89,2.68,1.21,3.9.57,1.03-.54,2.01-1.17,3-1.77,3.08-1.87,6.15-3.75,9.22-5.63,2.58-1.57,5.16-3.15,7.74-4.72,2.75-1.67,5.5-3.33,8.25-4.99.5-.3.96-.65,1.47-.94,1.82-1.05,1.82-3.93.65-5.22-.44-.49-.95-.9-1.54-1.23-2.54-1.42-5.05-2.88-7.57-4.32-1.01-.58-2.01-1.17-3.02-1.75-.1-.06-.21-.1-.18-.33.06-.45,3.76-.83,4.25-.89,1.58-.19,3.17-.32,4.76-.18,2.1.19,4.21.9,5.73,2.36,3.72,3.59,1.87,9.38-.34,13.24ZM68.3,23.23c-.38-.58-.73-1.15-1.12-1.71-2.46-3.52-7.03-4.68-11.08-5.12-4.42-.48-8.89.09-13.21,1.04-.38.08-.75.05-1.13-.15-.48-.26-.92-.56-1.42-.89,5.26-2.15,10.67-3.81,16.42-3.54,2.42.11,4.87.54,6.98,1.72,2.27,1.27,4.03,3.5,4.37,6.11.11.83.46,1.65.19,2.54Z"/>
    </g>
  </g>
</svg>