<?xml version="1.0" encoding="UTF-8"?>
<svg id="Layer_2" data-name="Layer 2" xmlns="http://www.w3.org/2000/svg" viewBox="0 0 146.65 94.01">
  <defs>
    <style>
      .cls-1 {
        isolation: isolate;
        opacity: .25;
      }

      .cls-1, .cls-2 {
        fill: #fff;
        stroke-width: 0px;
      }
    </style>
  </defs>
  <g id="Layer_1-2" data-name="Layer 1">
    <g>
      <path class="cls-2" d="M107.71,17.4c3.35-5.24,1.85-12.23-3.35-15.58-5.15-3.35-12.03-1.89-15.38,3.25-.03.04-.05.08-.08.13l-11.94,18.7-11.85-18.67s-.06-.06-.06-.12l-.43-.61c-.09-.12-.17-.23-.23-.32-.14-.17-.29-.32-.43-.5-.11-.13-.22-.26-.35-.38-.12-.12-.26-.23-.38-.35-.16-.15-.32-.3-.49-.44-.12-.09-.2-.17-.32-.23l-.61-.44-.09-.06c-.09-.06-.17-.09-.23-.15l-.61-.35c-.14-.09-.29-.15-.43-.2-.14-.06-.35-.17-.52-.23-.17-.06-.35-.15-.55-.2-.2-.06-.29-.12-.46-.15l-.61-.17-.43-.09c-.2-.03-.4-.09-.64-.12-.14-.03-.29-.03-.46-.06-.2-.03-.4-.03-.58-.06-.17-.03-.35,0-.52,0h-.52c-.17,0-.4.03-.58.06-.14,0-.29.03-.46.06-.2.03-.4.06-.64.12l-.43.09-.61.17c-.14.06-.32.09-.46.15-.14.06-.38.15-.55.2-.18.07-.35.14-.52.23-.17.09-.29.15-.43.2l-.61.35c-.09.06-.17.09-.23.15l-.12.06-.61.44c-.1.08-.21.16-.32.23-.17.15-.32.29-.49.44-.17.15-.26.23-.38.35-.11.12-.23.26-.35.38-.12.12-.29.32-.43.5-.09.12-.17.2-.26.32l-.43.61s-.06.06-.06.12l-21.39,33.41c-3.35,5.24-1.85,12.24,3.35,15.58,5.15,3.35,12.03,1.89,15.38-3.25.03-.04.05-.08.08-.13l11.91-18.64,11.85,18.67c3.32,5.24,10.26,6.79,15.46,3.44.09-.06.17-.15.29-.2l.09-.06c.29-.2.55-.41.81-.61l.09-.09c.25-.21.5-.43.72-.67l.09-.09c.23-.23.44-.47.64-.73.03-.06.09-.12.12-.15.17-.23.35-.5.52-.73l.06-.09,21.45-33.5h0Z"/>
      <path class="cls-1" d="M65.37,5.66c-.12-.17-.23-.38-.35-.55-.09-.12-.14-.23-.23-.35-.09-.12-.12-.17-.17-.26-.06-.09-.17-.23-.23-.32-.14-.17-.29-.32-.43-.5-.11-.13-.22-.26-.35-.38-.12-.12-.26-.23-.38-.35-.16-.15-.32-.3-.49-.44-.12-.09-.2-.17-.32-.23-.2-.15-.38-.29-.61-.44l-.09-.06c-.09-.06-.17-.09-.23-.15l-.61-.35c-.14-.09-.29-.15-.43-.2-.14-.06-.35-.17-.52-.23-.17-.06-.35-.15-.55-.2-.2-.06-.29-.12-.46-.15l-.61-.17-.43-.09c-.2-.03-.4-.09-.64-.12-.14-.03-.29-.03-.46-.06-.2-.03-.4-.03-.58-.06-.17-.03-.35,0-.52,0h-.52c-.17,0-.4.03-.58.06-.17.03-.29.03-.46.06-.2.03-.4.06-.64.12l-.43.09-.61.17c-.14.06-.32.09-.46.15-.14.06-.38.12-.55.2-.17.09-.35.15-.52.23-.14.07-.29.14-.43.2l-.61.35c-.09.06-.17.09-.23.15h-.03l-.09.06-.61.44c-.1.08-.21.16-.32.23-.17.15-.32.29-.49.44-.13.11-.26.23-.38.35-.11.12-.23.26-.35.38-.11.12-.29.32-.43.5-.09.12-.17.2-.26.32l-.43.61-.06.12-12.89,20.16-7.86,12.32c2.4,3.7,7.34,4.75,11.01,2.33.94-.62,1.74-1.44,2.34-2.39l10.12-15.88,3.96-6.12c.03-.06.09-.12.11-.17.86-1.29,1.97-2.39,3.27-3.23.37-.22.75-.44,1.13-.64,5.03-2.48,11.13-.82,14.22,3.9l-6.24-9.85h0Z"/>
      <path class="cls-2" d="M55.32,32.73c.12-.18.24-.36.38-.52l-.03-.03-.35.55Z"/>
      <path class="cls-2" d="M88.09,43.77c-6.73,2.82-14.48-.41-17.28-7.19-.23-.53-.41-1.07-.55-1.63,0-.03,0-.06-.03-.09-.03-.12-.06-.2-.09-.32l-.03.03c-1.47-4.37-6.16-6.73-10.52-5.24-1.59.52-2.95,1.54-3.96,2.88l8.41,13.22,3.44,5.42c3.32,5.24,10.26,6.79,15.46,3.44.09-.06.17-.14.29-.2l.06-.06c.29-.2.55-.41.81-.61l.09-.09c.26-.2.49-.44.72-.67l.09-.09c.23-.23.44-.47.64-.73.03-.05.07-.1.12-.14.17-.23.35-.5.52-.73.03-.03.03-.06.06-.09l7.77-12.18c-1.39,2.27-3.53,4.05-6.01,5.07h0ZM76.99,23.9c2.69,3.66,7.84,4.45,11.5,1.76.03-.02.06-.05.09-.07.8-.6,1.48-1.34,2.02-2.19L104.39,1.82c-5.15-3.35-12.03-1.89-15.38,3.25-.03.04-.05.08-.08.13l-3.5,5.51-4.19,6.58-4.25,6.61ZM13.35,79.39v8.59h-4.16v-7.98c0-1.75-1.1-2.56-2.43-2.56-1.53,0-2.57.9-2.57,2.88v7.66H0v-13.98h4.16v1.31c.75-1.05,2.14-1.72,3.99-1.72,2.8,0,5.2,2.01,5.2,5.8ZM22.57,84.63c.99.03,1.95-.35,2.66-1.05l3.32,1.92c-1.36,1.89-3.41,2.88-6.07,2.88-4.77,0-7.72-3.23-7.72-7.4s3.01-7.4,7.4-7.4c4.04,0,7.05,3.18,7.05,7.4,0,.55-.06,1.14-.17,1.69h-9.8c.52,1.46,1.79,1.95,3.32,1.95ZM25.14,79.54c-.43-1.63-1.71-2.21-2.95-2.21-1.59,0-2.63.79-3.04,2.21h5.98ZM35.81,78.02v4.95c0,1.19,1.04,1.31,2.86,1.19v3.82c-5.46.55-7.02-1.11-7.02-5.01v-4.95h-2.23v-4.02h2.23v-2.65l4.16-1.25v3.9h2.86v4.05l-2.86-.03h0ZM54.33,74v13.31c0,4.72-3.64,6.7-7.34,6.7-2.89,0-5.32-1.11-6.59-3.38l3.56-2.07c.52.99,1.33,1.78,3.18,1.78s3.15-1.02,3.15-3v-1.28c-.93,1.14-2.25,1.81-4.07,1.81-3.96,0-6.85-3.26-6.85-7.11s2.89-7.11,6.85-7.11c1.82,0,3.15.67,4.07,1.83v-1.49h4.05ZM50.26,80.73c0-1.92-1.39-3.26-3.35-3.26s-3.35,1.31-3.35,3.26,1.39,3.26,3.35,3.26,3.35-1.34,3.35-3.26ZM70.95,74v14.01h-4.16v-1.31c-.93,1.05-2.28,1.72-4.13,1.72-3.64,0-6.65-3.23-6.65-7.4s3.01-7.4,6.65-7.4c1.85,0,3.24.64,4.13,1.72v-1.34h4.16ZM66.79,80.99c0-2.1-1.39-3.41-3.29-3.41s-3.29,1.31-3.29,3.41,1.39,3.41,3.29,3.41,3.29-1.31,3.29-3.41ZM94.19,79.39v8.59h-4.16v-8.24c0-1.4-.66-2.3-1.99-2.3s-2.17.99-2.17,2.62v7.89h-4.16v-8.24c0-1.4-.67-2.3-1.99-2.3s-2.17.99-2.17,2.62v7.89h-4.16v-13.92h4.16v1.28c.64-.96,1.88-1.69,3.73-1.69,1.65,0,2.86.67,3.64,1.86.78-1.11,2.05-1.86,4.05-1.86,3.12,0,5.23,2.3,5.23,5.8h0ZM95.92,70.24c0-1.39,1.12-2.53,2.51-2.53,1.39,0,2.52,1.14,2.51,2.53,0,1.39-1.12,2.53-2.51,2.53-1.39-.03-2.51-1.17-2.51-2.53h0ZM96.36,74h4.16v14.01h-4.16v-14.01ZM116.21,79.39v8.59h-4.16v-7.98c0-1.75-1.1-2.56-2.43-2.56-1.53,0-2.57.9-2.57,2.88v7.66h-4.16v-13.98h4.16v1.31c.75-1.05,2.14-1.72,3.99-1.72,2.8,0,5.17,2.01,5.17,5.8ZM132.66,74v13.31c0,4.72-3.64,6.7-7.34,6.7-2.89,0-5.32-1.11-6.59-3.38l3.55-2.07c.52.99,1.33,1.78,3.18,1.78s3.15-1.02,3.15-3v-1.28c-.92,1.14-2.25,1.81-4.05,1.81-3.96,0-6.85-3.26-6.85-7.11s2.89-7.11,6.85-7.11c1.79,0,3.15.67,4.05,1.83v-1.49h4.05ZM128.61,80.73c0-1.92-1.39-3.26-3.35-3.26s-3.35,1.31-3.35,3.26,1.39,3.26,3.35,3.26,3.35-1.34,3.35-3.26ZM140.36,74.59l.15-.85h-5.61l-.15.85h2.34l-1.2,7.01h.94l1.2-7.01h2.33ZM142.88,73.74h-1.17l-1.35,7.86h.94l.53-3.09.49-3.27.57,4.17h.56l2.08-4.14-.62,3.14-.54,3.19h.94l1.35-7.86h-1.22l-2,3.92-.55-3.92h0Z"/>
    </g>
  </g>
</svg>