<?xml version="1.0" encoding="UTF-8"?>
<svg id="Layer_2" data-name="Layer 2" xmlns="http://www.w3.org/2000/svg" viewBox="0 0 226 63.01">
  <defs>
    <style>
      .cls-1 {
        fill: #fff;
        stroke-width: 0px;
      }
    </style>
  </defs>
  <g id="Layer_1-2" data-name="Layer 1">
    <g>
      <path class="cls-1" d="M104.2,37.14c-.88,1.69-2.21,3.11-3.83,4.11-3.39,2.02-7.62,2.02-11.01,0-1.62-1-2.94-2.42-3.82-4.11-1.83-3.59-1.83-7.84,0-11.43.88-1.69,2.19-3.11,3.82-4.11,3.39-2.02,7.62-2.02,11.01,0,1.62,1,2.95,2.42,3.83,4.11,1.85,3.59,1.85,7.85,0,11.43ZM100.64,27.6c-.53-1.1-1.35-2.05-2.37-2.73-2.08-1.34-4.76-1.34-6.84,0-1.01.68-1.82,1.62-2.34,2.73-1.12,2.44-1.12,5.24,0,7.68.51,1.11,1.32,2.05,2.34,2.73,2.08,1.34,4.76,1.34,6.84,0,1.02-.68,1.84-1.62,2.37-2.73,1.14-2.42,1.14-5.23,0-7.65v-.03ZM121.89,27.19c.82,1.27,1.23,3.02,1.23,5.26v8.41c.02.51-.17,1-.53,1.37-.78.69-1.94.69-2.72,0-.35-.37-.54-.86-.53-1.37v-8.41c.05-.96-.2-1.92-.73-2.73-.5-.65-1.33-.97-2.52-.97-1.06-.06-2.1.32-2.87,1.05-.7.71-1.08,1.67-1.05,2.66v8.41c.02.51-.17,1-.53,1.37-.78.69-1.94.69-2.72,0-.35-.37-.54-.86-.53-1.37v-13.66c-.02-.51.17-1,.53-1.37.76-.74,1.96-.74,2.72,0,.17.18.31.4.4.63.09.24.13.49.12.74v.85c.61-.79,1.36-1.46,2.23-1.96.91-.54,1.95-.83,3.02-.82,2.15,0,3.64.64,4.46,1.91ZM141.41,34.86c-.37.31-.84.48-1.33.47h-10.41c.2,1.15.82,2.19,1.74,2.92.87.69,1.95,1.06,3.06,1.05.68.02,1.36-.06,2.02-.24.4-.13.79-.3,1.15-.53l.58-.36c.32-.17.68-.27,1.05-.28.43,0,.84.17,1.14.47.3.29.47.69.47,1.1-.03.63-.36,1.2-.88,1.54-.71.55-1.51.96-2.37,1.23-2.51.84-5.25.64-7.6-.57-1.28-.7-2.34-1.76-3.05-3.04-.72-1.34-1.08-2.84-1.05-4.36-.03-1.65.36-3.28,1.14-4.73.69-1.31,1.73-2.4,3-3.15,1.2-.71,2.58-1.09,3.97-1.09,1.39,0,2.75.39,3.93,1.13,1.23.75,2.24,1.8,2.95,3.06.73,1.26,1.11,2.7,1.1,4.16-.02.48-.25.92-.62,1.21h0ZM129.71,32.18h8.27v-.22c-.1-.9-.57-1.73-1.29-2.27-.74-.61-1.67-.95-2.63-.95-2.46,0-3.9,1.15-4.34,3.44h0ZM159.13,20.46c.36.35.55.83.53,1.33.02.49-.17.97-.53,1.31-.38.33-.88.51-1.39.49h-4.95v17.25c0,.26-.05.51-.15.75-.1.24-.26.45-.45.62-.4.37-.94.57-1.48.55-.54.02-1.06-.18-1.45-.55-.37-.36-.58-.85-.57-1.37v-17.25h-4.95c-.51.02-1.01-.17-1.39-.53-.36-.35-.55-.83-.53-1.32-.02-.49.19-.96.55-1.29.37-.35.86-.54,1.37-.53h14.01c.51,0,1.01.19,1.38.55h0ZM173.45,38.56c-.73,1.3-1.8,2.38-3.1,3.11-2.71,1.47-5.98,1.47-8.69,0-1.3-.73-2.37-1.8-3.09-3.11-1.52-2.82-1.52-6.22,0-9.04.73-1.3,1.8-2.38,3.09-3.12,2.7-1.49,5.98-1.49,8.69,0,1.3.73,2.38,1.81,3.1,3.12,1.52,2.82,1.52,6.22,0,9.04ZM170.15,31.28c-.4-.77-1-1.41-1.74-1.85-1.49-.88-3.34-.88-4.83,0-.74.46-1.34,1.1-1.74,1.88-.44.85-.66,1.8-.65,2.76-.01.95.21,1.88.65,2.72.4.76,1,1.41,1.74,1.86,1.49.88,3.34.88,4.83,0,.74-.45,1.34-1.09,1.74-1.86.44-.85.67-1.79.65-2.74.02-.96-.21-1.91-.65-2.76h0ZM191.25,25.84c.35.37.54.86.53,1.37v8.31c0,2.27-.63,4.04-1.88,5.32-1.25,1.28-3.04,1.92-5.35,1.92-2.32,0-4.09-.64-5.33-1.92-1.24-1.28-1.86-3.06-1.86-5.32v-8.32c-.02-.51.17-1,.53-1.37.76-.74,1.96-.74,2.72,0,.35.37.54.86.53,1.37v8.32c0,1.28.28,2.23.85,2.85.68.66,1.61,1,2.56.93.97.08,1.93-.26,2.62-.95.57-.62.85-1.57.85-2.85v-8.3c-.02-.51.17-1,.53-1.37.75-.74,1.95-.74,2.71,0h.01s0,0,0,0ZM207.19,26.11c1.1.56,1.64,1.3,1.64,2.22,0,.44-.14.87-.41,1.21-.25.33-.64.53-1.05.53-.28,0-.56-.04-.82-.14-.22-.1-.43-.23-.62-.38-.18-.15-.38-.28-.58-.39-.3-.13-.61-.23-.93-.28-.33-.07-.66-.12-.99-.13-1.38-.07-2.73.46-3.68,1.47-.92,1.05-1.4,2.42-1.34,3.83-.05,1.38.44,2.73,1.36,3.76.88.99,2.15,1.54,3.47,1.5.79.04,1.57-.09,2.3-.38.18-.1.36-.21.53-.33.19-.14.4-.26.62-.36.22-.09.46-.13.7-.13.47-.02.93.17,1.25.53.31.36.48.82.46,1.29-.05.59-.38,1.12-.88,1.42-.71.49-1.5.85-2.34,1.05-1.01.27-2.05.4-3.09.39-1.5.03-2.98-.36-4.27-1.14-1.23-.76-2.22-1.85-2.86-3.15-.68-1.38-1.03-2.91-1.01-4.46-.03-1.58.33-3.13,1.05-4.53.67-1.29,1.7-2.37,2.95-3.11,1.3-.76,2.78-1.14,4.29-1.12,1.47-.06,2.94.22,4.28.83h0ZM224.8,27.19c.8,1.27,1.2,3.02,1.2,5.26v8.39c.02.51-.17,1-.53,1.37-.76.74-1.96.74-2.72,0-.35-.37-.54-.86-.53-1.37v-8.37c.05-.96-.18-1.91-.68-2.73-.45-.66-1.25-.99-2.38-.99-1.03-.06-2.03.32-2.76,1.05-.67.72-1.03,1.68-.99,2.66v8.38c.02.51-.17,1-.53,1.37-.76.74-1.96.74-2.72,0-.35-.37-.54-.86-.53-1.37v-18.96c-.02-.51.17-1,.53-1.37.76-.74,1.96-.74,2.72,0,.35.37.54.86.53,1.37v6.15c.59-.78,1.33-1.44,2.16-1.94.88-.54,1.89-.82,2.92-.8,2.07,0,3.51.64,4.3,1.91h0ZM38.73,40.17c-.92.76-1.04,2.12-.28,3.03.37.44.89.72,1.47.77.57.05,1.14-.12,1.58-.49,2.5-2.07,4.29-4.87,5.13-8,.84-3.13.7-6.45-.42-9.49-1.12-3.05-3.15-5.67-5.82-7.52-5.47-3.78-12.73-3.72-18.14.16-2.64,1.89-4.62,4.55-5.69,7.62-1.06,3.06-1.15,6.38-.25,9.5.9,3.12,2.74,5.88,5.27,7.91.93.75,2.29.6,3.04-.33.75-.93.6-2.28-.33-3.03,0,0,0,0,0,0-8.38-6.72-3.64-20.33,7.14-20.33s15.49,13.41,7.31,20.2ZM45.3,50.7c3.05-2.19,5.54-5.08,7.26-8.43,1.72-3.34,2.61-7.05,2.61-10.81,0-1.19-.96-2.15-2.15-2.15,0,0,0,0,0,0-1.19,0-2.15.96-2.16,2.15,0,3.08-.73,6.12-2.13,8.86-1.41,2.74-3.44,5.11-5.95,6.91-.96.7-1.18,2.04-.49,3.01.7.97,2.05,1.18,3.01.49v-.02h0Z"/>
      <path class="cls-1" d="M22.42,1.32c-1.14.34-1.79,1.54-1.45,2.68.34,1.14,1.54,1.79,2.68,1.45,0,0,0,0,0,0,8.17-2.42,16.99-.85,23.83,4.23,3.37,2.51,6.1,5.76,7.99,9.51,1.89,3.75,2.87,7.88,2.88,12.08,0,1.19.96,2.15,2.15,2.15,0,0,0,0,0,0,1.19,0,2.15-.96,2.16-2.15,0-20.82-20.16-35.93-40.24-29.95h0Z"/>
      <path class="cls-1" d="M46.42,13.08C31.02.54,7.69,11.5,7.69,31.47c0,6.29,2.51,12.31,6.96,16.75,4.45,4.44,10.49,6.94,16.78,6.95,1.19,0,2.15-.96,2.16-2.15,0-1.19-.96-2.15-2.15-2.16,0,0,0,0,0,0-5.15-.01-10.08-2.06-13.73-5.7-3.64-3.63-5.69-8.56-5.7-13.71,0-16.37,19.11-25.28,31.69-15.04.92.75,2.28.61,3.04-.31.75-.92.62-2.28-.3-3.03,0,0,0,0,0,0h0Z"/>
      <path class="cls-1" d="M2.16,29.47C.97,29.47,0,30.43,0,31.62c0,5.97,1.7,11.82,4.91,16.86,3.21,5.04,7.8,9.06,13.21,11.58,11.06,5.16,24.11,3.46,33.48-4.37.91-.76,1.03-2.12.27-3.04-.77-.91-2.13-1.03-3.04-.27,0,0,0,0,0,0-8.08,6.75-19.33,8.22-28.88,3.76-4.67-2.18-8.62-5.64-11.39-9.99-2.77-4.34-4.24-9.39-4.24-14.54,0-1.19-.97-2.16-2.16-2.16h0ZM88.56,49.7c.39.41.59.96.57,1.52,0,.39-.08.77-.26,1.11-.17.32-.42.6-.73.78-.33.19-.71.29-1.09.28h-2.4v3.2c0,.06-.03.11-.07.15-.04.04-.1.07-.16.07-.06,0-.12-.02-.16-.07-.04-.04-.07-.09-.07-.15v-7.26c0-.06.02-.11.07-.15.04-.04.09-.07.15-.07h2.63c.56-.02,1.11.19,1.52.58ZM88.23,52.46c.3-.34.46-.79.44-1.25.02-.45-.13-.88-.44-1.21-.31-.31-.74-.47-1.18-.45h-2.4v3.39h2.4c.45.02.88-.16,1.18-.49ZM96.21,56.58c0,.06-.02.12-.06.16-.04.04-.09.06-.15.06-.03,0-.07,0-.1,0-.22-.13-.38-.32-.47-.56-.14-.41-.2-.85-.17-1.28.06-.47-.13-.93-.48-1.24-.33-.23-.72-.34-1.12-.34h-2.57v3.22c0,.06-.02.12-.07.15-.04.04-.1.07-.16.07-.06,0-.12-.02-.16-.07-.04-.04-.07-.09-.07-.15v-7.27c0-.06.02-.11.07-.15.04-.04.09-.07.15-.07h2.9c.39-.01.78.08,1.13.26.66.33,1.07,1.02,1.04,1.76.01.45-.13.9-.39,1.27-.25.35-.61.6-1.02.71.36.11.66.34.87.65.24.36.36.78.34,1.2-.02.35.01.71.1,1.05.04.17.14.31.28.41.06.03.11.08.13.15h0ZM93.79,52.9c.44-.03.86-.21,1.18-.53.33-.34.5-.79.48-1.26.01-.43-.17-.84-.48-1.12-.36-.31-.82-.46-1.29-.44h-2.63v3.37l2.74-.03h0ZM102.34,56.44s.04.04.05.07c.01.03.02.05.02.08,0,.03,0,.06-.01.09-.01.03-.03.05-.05.07-.04.04-.1.06-.15.06h-4.15c-.05,0-.11-.02-.14-.06-.04-.04-.07-.09-.07-.15v-7.26c0-.06.02-.11.07-.15.04-.04.09-.07.15-.07h4.15c.06,0,.11.02.15.07.04.04.07.09.07.15,0,.06-.02.12-.07.16-.04.04-.1.06-.15.06h-3.91v3.07h3.41c.06,0,.11.02.15.07.04.04.07.09.07.15,0,.06-.02.12-.07.16-.04.04-.1.06-.15.06h-3.41v3.31h3.91c.05,0,.11.02.14.06ZM110.81,49.19s.05.09.05.15v7.26c0,.06-.03.11-.07.15-.04.04-.1.07-.16.07-.06,0-.12-.02-.16-.07-.02-.02-.04-.04-.05-.07-.01-.03-.02-.05-.02-.08v-6.57l-2.84,4.29c-.03.05-.09.09-.15.09-.07,0-.14-.03-.17-.09l-2.85-4.3v6.58c0,.06-.02.11-.07.15-.04.04-.09.07-.15.07-.06,0-.12-.02-.16-.07-.04-.04-.06-.09-.06-.15v-7.26c0-.06.02-.11.06-.15.04-.05.09-.07.15-.07.08,0,.16.03.21.1l3.05,4.53,3.05-4.53c.04-.07.13-.11.21-.1.06,0,.11.03.15.07ZM113.34,56.75s-.09.07-.15.07c-.06,0-.13-.02-.17-.07-.04-.04-.06-.1-.06-.16v-7.23s0-.06.01-.09c.01-.03.03-.05.05-.07.04-.04.1-.07.16-.07.06,0,.12.02.16.07.04.04.07.1.07.16v7.23c0,.06-.03.12-.08.17h0ZM121.12,49.18s.06.09.06.15v4.73c0,.5-.13.99-.38,1.42-.25.43-.62.8-1.05,1.05-.87.51-1.96.51-2.83,0-.44-.25-.8-.62-1.05-1.05-.26-.43-.39-.92-.39-1.42v-4.73c0-.06.02-.12.07-.16.04-.04.1-.07.16-.06.06,0,.12.02.16.07.04.04.07.09.07.15v4.73c0,.42.11.83.32,1.2.21.36.5.66.86.87.74.43,1.65.43,2.39,0,.36-.21.66-.51.87-.87.21-.36.33-.78.33-1.2v-4.73s0-.06.02-.08c.01-.03.03-.05.05-.07.06-.07.16-.09.24-.05.03.01.05.03.07.05h.03ZM130.14,49.19s.05.09.05.15v7.26s0,.06-.02.08c-.01.03-.03.05-.05.07-.04.04-.1.07-.16.07-.06,0-.12-.02-.16-.07-.04-.04-.07-.09-.07-.15v-6.57l-2.84,4.29c-.03.05-.09.09-.15.09-.07,0-.14-.03-.17-.09l-2.85-4.3v6.58s0,.06-.02.08c-.01.03-.03.05-.05.07-.02.02-.04.04-.07.05-.03.01-.06.02-.08.02-.06,0-.12-.02-.16-.07-.04-.04-.06-.09-.06-.15v-7.26c0-.06.02-.11.06-.15.04-.05.09-.07.15-.07.08,0,.16.03.21.1l3.05,4.53,3.05-4.53c.04-.07.13-.11.21-.1.06,0,.11.03.15.07h0ZM142.02,49.19s.05.09.05.15v7.26s0,.06-.02.08c-.01.03-.03.05-.05.07-.04.04-.1.07-.16.07-.06,0-.12-.02-.16-.07-.04-.04-.07-.09-.07-.15v-6.57l-2.84,4.29c-.03.05-.09.09-.15.09-.07,0-.14-.03-.17-.09l-2.85-4.3v6.58s0,.06-.02.08c-.01.03-.03.05-.05.07-.04.04-.09.07-.15.07-.06,0-.12-.02-.16-.07-.04-.04-.07-.09-.06-.15v-7.26c0-.06.02-.11.06-.15.04-.05.09-.07.15-.07.08,0,.16.03.21.1l3.05,4.53,3.05-4.53c.04-.07.13-.11.21-.1.06,0,.11.03.15.07h0ZM150.52,55.02c-.29.58-.75,1.07-1.3,1.4-1.18.67-2.63.67-3.81,0-.56-.33-1.01-.82-1.3-1.4-.63-1.3-.63-2.81,0-4.11.29-.58.75-1.07,1.3-1.4,1.18-.67,2.63-.67,3.81,0,.56.33,1.01.82,1.3,1.4.63,1.3.63,2.81,0,4.11ZM150.12,51.12c-.25-.52-.65-.95-1.14-1.24-1.03-.59-2.3-.59-3.34,0-.49.3-.89.73-1.14,1.24-.28.57-.42,1.2-.4,1.83-.01.63.13,1.26.4,1.83.25.51.65.95,1.14,1.24,1.03.59,2.3.59,3.34,0,.49-.3.89-.73,1.14-1.24.28-.57.42-1.2.4-1.83,0-.64-.14-1.26-.42-1.83h.01ZM157.59,53.43c.29.37.44.83.42,1.31.04.58-.2,1.15-.63,1.54-.46.36-1.03.55-1.61.53h-3.04c-.06,0-.12-.02-.15-.07-.02-.02-.04-.04-.05-.07-.01-.03-.02-.05-.02-.08v-7.25c0-.06.02-.11.07-.15.04-.04.09-.07.15-.07h2.96c.52-.02,1.03.17,1.41.53.36.36.55.85.53,1.36,0,.39-.1.78-.31,1.11-.19.32-.5.57-.86.69.44.07.84.29,1.13.63h0ZM156.77,49.92c-.31-.27-.71-.41-1.13-.38h-2.66v3.09h2.66c.41.01.81-.15,1.1-.45.3-.33.45-.78.42-1.22.02-.39-.13-.76-.4-1.03ZM157.05,55.94c.67-.68.67-1.77,0-2.45-.38-.29-.85-.43-1.33-.41h-2.74v3.27h2.74c.48.03.95-.11,1.33-.39v-.02h0ZM159.94,56.75s-.09.07-.15.07c-.06,0-.13-.02-.17-.07-.02-.02-.04-.05-.05-.07-.01-.03-.02-.06-.01-.09v-7.23c0-.06.02-.12.07-.16.04-.04.1-.07.16-.07.06,0,.12.02.16.07.04.04.07.1.07.16v7.23s0,.06-.02.09c-.01.03-.03.05-.06.08h0ZM166.52,56.44c.07.06.09.16.05.24-.01.03-.03.05-.05.07-.04.04-.09.06-.15.06h-4.04c-.06,0-.12-.02-.16-.07-.04-.04-.06-.09-.06-.15v-7.26s0-.06.02-.08c.01-.03.03-.05.05-.07.04-.04.1-.07.16-.07.06,0,.12.02.16.07.04.04.07.09.07.15v7.04h3.8s.06,0,.08.02c.03.01.05.03.07.05h0ZM172.27,56.44s.06.1.06.15c0,.03,0,.06-.01.08-.01.03-.03.05-.05.07-.04.04-.09.06-.15.06h-4.15c-.06,0-.11-.02-.15-.07-.04-.04-.07-.09-.07-.15v-7.26s0-.06.02-.08c.01-.03.03-.05.05-.07.04-.04.09-.07.15-.07h4.15c.06,0,.11.02.15.07.04.04.06.1.06.15,0,.03,0,.06-.01.09-.01.03-.03.05-.05.07-.04.04-.09.06-.15.06h-3.91v3.07h3.41c.06,0,.11.02.15.07.04.04.07.09.07.15,0,.06-.02.12-.07.16-.04.04-.09.06-.15.06h-3.41v3.31h3.91c.06,0,.11.02.15.06ZM182.5,53.07s.06.1.06.15v2.76s0,.08-.02.11c-.02.04-.04.06-.08.09-.34.23-.71.4-1.1.53-1.08.34-2.25.23-3.25-.32-.59-.33-1.08-.82-1.41-1.41-.68-1.27-.68-2.8,0-4.07.33-.59.82-1.08,1.41-1.41.62-.35,1.32-.53,2.03-.53.4,0,.79.05,1.17.15.35.09.69.24.99.45.07.04.1.11.1.19,0,.06-.03.12-.07.16-.04.04-.09.06-.14.06-.05,0-.1-.02-.14-.04-.58-.34-1.24-.52-1.92-.53-.63-.01-1.25.15-1.8.45-.52.29-.95.73-1.24,1.25-.59,1.14-.59,2.49,0,3.63.29.52.72.96,1.24,1.25.55.31,1.17.46,1.8.45.35,0,.69-.05,1.03-.16.34-.1.65-.24.95-.43v-2.44h-1.98c-.06,0-.11-.02-.15-.07-.04-.04-.06-.1-.06-.15,0-.06.02-.12.06-.16.04-.04.09-.06.15-.06h2.2c.07,0,.13.03.16.09h0ZM189.93,56.6c0,.06-.02.12-.07.15-.09.06-.21.06-.3,0-.04-.02-.07-.06-.08-.11l-.93-2.26h-3.68l-.9,2.24s-.04.08-.07.11c-.04.03-.08.04-.12.04-.06,0-.11-.01-.16-.05-.04-.03-.07-.08-.07-.13,0-.04,0-.07,0-.11l2.96-7.28s.04-.09.08-.12c.04,0,.08,0,.13,0,.1,0,.19.05.22.14l2.96,7.28s.03.06.03.1h0ZM185.06,53.97h3.35l-1.68-4.15-1.67,4.15ZM198.18,49.19s.05.09.05.15v7.26s0,.06-.02.08c-.01.03-.03.05-.05.07-.04.04-.1.07-.16.07-.06,0-.12-.02-.16-.07-.04-.04-.07-.09-.07-.15v-6.57l-2.84,4.29c-.03.05-.09.09-.15.09-.07,0-.14-.03-.17-.09l-2.85-4.3v6.58s0,.06-.02.08c-.01.03-.03.05-.05.07-.04.04-.09.07-.15.07-.06,0-.12-.02-.16-.07-.02-.02-.04-.04-.05-.07-.01-.03-.02-.05-.02-.08v-7.26c0-.06.02-.11.06-.15.04-.05.09-.07.15-.07.08,0,.16.03.21.1l3.05,4.53,3.05-4.53c.04-.07.13-.11.21-.1.05.01.1.04.14.07h0ZM204.85,56.44s.06.1.06.15c0,.06-.02.12-.06.16-.04.04-.1.06-.15.06h-4.15c-.06,0-.12-.02-.15-.07-.04-.04-.07-.09-.07-.15v-7.26c0-.06.02-.11.07-.15.04-.04.1-.07.15-.07h4.18c.06,0,.11.02.15.07.02.02.04.04.05.07.01.03.02.05.02.08,0,.03,0,.06-.01.09-.01.03-.03.05-.05.07-.04.04-.09.06-.15.06h-3.91v3.07h3.38c.06,0,.11.02.15.07.04.04.07.09.07.15,0,.03,0,.06-.01.09-.01.03-.03.05-.05.07-.04.04-.1.06-.15.06h-3.41v3.31h3.94s.09.03.13.06ZM207.01,56.64c-.45-.22-.85-.51-1.2-.87-.04-.04-.07-.1-.07-.16,0-.03,0-.06.02-.09.01-.03.03-.05.06-.08.07-.1.2-.12.3-.05.02.01.04.03.05.05.28.33.63.59,1.02.77.39.17.81.26,1.24.26.5.02.99-.12,1.4-.4.35-.24.55-.63.55-1.05,0-.31-.09-.62-.28-.87-.19-.22-.42-.4-.68-.53-.36-.17-.72-.33-1.1-.46-.4-.15-.8-.33-1.18-.53-.29-.15-.53-.36-.73-.61-.21-.31-.31-.68-.3-1.05,0-.35.1-.69.29-.98.21-.31.51-.55.85-.69.4-.18.84-.26,1.28-.25.42,0,.84.08,1.23.24.36.13.68.35.93.64.06.07.1.14.11.23,0,.03,0,.06-.02.09-.01.03-.03.05-.06.07-.05.05-.11.07-.18.07-.03,0-.06,0-.08-.02-.02-.01-.05-.03-.06-.05-.21-.27-.48-.48-.79-.63-.33-.15-.69-.23-1.05-.23-.49-.02-.98.12-1.39.39-.35.23-.56.63-.56,1.05,0,.29.09.58.27.8.18.22.42.4.68.53.33.16.67.3,1.01.43.42.15.82.33,1.22.53.3.17.55.4.74.68.23.35.34.75.32,1.17,0,.34-.11.67-.3.95-.21.31-.51.55-.85.7-.4.18-.83.27-1.27.26-.48,0-.96-.09-1.4-.29h0Z"/>
    </g>
  </g>
</svg>