<?xml version="1.0" encoding="UTF-8"?>
<svg id="Layer_2" data-name="Layer 2" xmlns="http://www.w3.org/2000/svg" viewBox="0 0 227.51 56.94">
  <defs>
    <style>
      .cls-1 {
        fill: #fff;
        stroke-width: 0px;
      }
    </style>
  </defs>
  <g id="Layer_1-2" data-name="Layer 1">
    <g>
      <path class="cls-1" d="M219.48,40.52c1.84-2.43,1.38-5.31,1.38-8.08.12-7.74,0-17.32,0-24.94,0-1.04,0-2.19-.23-3.23-.12-.46-.57-.92-1.04-1.15-.8-.23-1.73-.23-2.65-.23-8.05,0-15.99.12-24.04-.12-4.6-.12-6.79,2.31-6.9,6.93-.12,6.35,0,14.78,0,21.13,0,1.04.12,2.08-1.5,2.19-1.96,0-2.18-.12-2.18-2.19V8.18c0-2.89-2.3-5.2-5.06-5.31h-20.36c-1.73,0-3.57,0-5.29.35-1.04.23-1.96,1.15-2.65,2.08-1.27,1.62-1.27,3.46-1.27,5.43v25.87c-.01,2.01,1.55,3.69,3.57,3.81h15.76c.57,0,1.15-.11,1.73.12.46.23.92.69.92,1.15s-.57.92-.92,1.15c-.46.23-1.15.11-1.73.11-5.18,0-10.35.12-15.65-.11-1.38,0-2.88-.69-4.14-1.39-.8-.46-1.38-.69-2.18,0-1.73,1.39-3.8,1.39-6.56,1.39-8.97,0-15.53.11-24.16.11-4.6,0-7.36-3-7.36-6V6.34c0-2.42.92-4.5,3.22-5.77.46-.23,1.15-.46,1.73-.46,9.55,0,19.09-.11,28.53.12,1.5,0,2.99,1.15,4.6,1.62.46.23,1.38.35,1.61.12,1.96-1.5,4.03-1.85,6.44-1.85,8.28,0,16.56.12,24.85,0,2.07,0,3.68.69,5.18,2.08.69.69,1.15.69,1.96,0,1.49-1.39,3.11-2.08,5.29-2.08,8.74.12,17.6,0,26.34,0,3.45,0,6.1,2.08,6.21,5.54.23,6.24.23,12.36.23,18.59v14.09c-.12,2.31-1.73,3.23-3.68,2.19h0ZM144.37,22.04c0-4.39.12-6.81,0-11.2-.12-4.27-1.04-7.74-5.75-7.85-3.68-.12-5.64,0-9.32,0-4.83,0-9.66,0-14.49.23-3.11.12-4.95,2.31-4.95,5.31,0,2.31,0,6.47-.11,8.78,0,7.16.11,13.63.11,21.36.57,1.73,2.42,1.85,3.8,1.85h27.15c2.53,0,3.68-1.04,3.68-3.58-.12-4.97-.12-9.93-.12-14.9h0ZM78.91,19.96c2.65-4.85,6.21-8.78,10.01-12.47,1.04-1.04,2.19-1.96,3.34-2.77,1.15-.81,2.42-1.27,3.8-.46,1.26.81,1.5,2.19,1.38,3.58-.21,3.07-1.16,6.04-2.76,8.66-2.53,4.27-5.98,7.74-9.43,11.32-.57.58-1.04,1.39-1.15,2.19-.23,1.39.81,2.08,2.18,1.5,1.04-.46,2.19-1.04,3.11-1.73,1.04-.69,1.96-1.39,2.76-2.19.92-.81,1.84-1.27,2.88-.46,1.15.81,1.61,2.89.81,3.93-2.88,3.23-5.87,6.24-9.89,7.85-4.49,1.85-7.36.58-9.55-4.16-.46.35-1.04.69-1.5,1.04-2.88,2.08-5.87,3.81-9.43,4.04-3.34.23-5.64-1.27-7.13-4.27l-.35-.69s-.12,0-.23-.23c-.58.46-1.15.92-1.73,1.27-2.42,1.73-4.95,3.23-7.94,3.69-3.22.58-5.98-.35-7.94-3.58-.23.92-.35,1.5-.46,2.08-.58,1.96-1.96,2.89-3.91,2.19-3.34-1.15-6.56-2.43-9.78-3.58-4.26-1.62-8.63-3.12-12.88-4.74-.92-.35-1.49-.35-2.07.58-.92,1.73-1.96,3.46-2.88,5.2-1.03,1.96-2.65,3.12-4.72,3.46-2.3.35-3.91-1.39-3.34-3.58.22-.89.57-1.75,1.03-2.54.8-1.39,1.61-2.77,2.53-4.16.69-1.15,1.5-2.08,0-3.35-.46-.35-.46-1.5-.34-2.19.81-3.35,3.11-5.2,6.21-5.77,2.76-.46,3.57-2.42,4.95-4.27-3.22.35-6.21.81-9.32,1.15-1.03.12-2.07,0-3.11-.35-1.38-.46-2.18-1.62-1.84-3,.81-4.04,2.3-7.74,6.67-9.24C16.8.33,26.92-1.17,37.39,1.02c7.59,1.62,9.89,6.7,6.44,13.74-1.73,3.47-4.49,5.66-8.05,6.58-4.14,1.15-8.4,1.85-12.65,2.77l-1.84.46c3.33,1.04,6.33,1.96,9.32,3,2.88,1.04,5.87,1.85,8.17,4.39.12-.81.12-1.38.23-2.08,1.15-7.39,7.82-13.4,15.18-13.97,3.45-.23,5.98,1.27,5.87,3.81,0,1.5-.69,3.23-1.61,4.5-1.5,2.42-4.03,3.7-6.56,4.85-1.38.69-2.88,1.27-4.37,1.85v.58c.81,0,1.84.23,2.53,0,3.68-1.5,7.02-3.23,9.09-6.81,2.99-5.2,7.48-8.31,13.46-8.89,3.22.12,5.06,1.15,6.33,4.16h0ZM20.02,10.03c.11.12.23.35.23.46l-6.56,9.35c-.57.92-1.27,1.39-2.41,1.39-1.96.23-3.68.92-5.06,2.42-1.84,2.08-1.72,3.23.57,4.62.11,0,.11.12.35.35-1.38,2.31-2.88,4.74-4.26,7.04-.46.69-.92,1.5-1.15,2.43-.35,1.15.34,1.85,1.5,1.62,1.5-.23,2.99-1.62,3.45-3,.11-.58.46-1.27.81-1.85.92-1.39,1.84-2.66,2.76-3.93.58-1.04,1.27-1.15,2.42-.81,7.13,2.77,14.26,5.43,21.4,8.08.69.23,1.49.69,2.19.69.58,0,1.38-.46,1.61-.92.92-2.31-.35-5.2-2.53-6.35-1.5-.81-2.99-1.39-4.6-1.96-4.78-1.59-9.57-3.13-14.38-4.62-.46-.12-.92-.35-1.49-.58,2.07-.69,4.03-1.04,5.98-1.5,4.6-.92,9.2-1.73,13.69-2.89,3.33-.81,6.1-2.66,7.59-5.89,2.99-6.01,1.15-9.82-5.41-11.32-4.26-.92-8.51-.92-12.77-.58-5.18.35-10.24,1.27-15.07,2.89-3.68,1.15-5.75,3.69-6.79,7.28-.58,2.08.12,2.89,2.19,2.66,2.64-.23,5.29-.58,7.94-.92.46,0,.81-.23,1.15-.46v-.46c-1.15-.23-2.3-.35-3.57-.58,0-.12,0-.35-.11-.46,3.57-.58,6.9-1.39,10.35-2.19ZM77.76,31.16c.11.69.23,1.04.23,1.5.46,4.85,3.34,6.47,7.82,4.5.57-.23,1.04-.46,1.5-.81,2.3-1.96,4.6-3.93,6.79-5.89.35-.35.12-1.15.23-1.73-.11,0-.34-.12-.46-.12-.35.34-.74.65-1.15.92-1.84,1.15-3.68,2.66-5.64,3.58-2.76,1.27-4.95-.35-4.6-3.46.11-1.04.81-2.08,1.5-2.89,2.76-3.23,5.64-6.24,8.28-9.47,2.19-2.77,3.57-6.01,3.57-9.58,0-.69-.11-1.62-.57-1.85-.46-.23-1.5.12-1.96.46-1.96,1.73-3.91,3.35-5.75,5.2-4.37,4.5-8.05,9.47-9.2,15.94-.11.35-.35.81-.57,1.04-2.42,1.62-4.83,3.46-7.48,4.73-1.15.58-2.88.35-4.37.23-1.04-.11-1.5-1.15-1.5-2.19,0-1.15.69-1.38,1.61-1.73,1.38-.46,2.88-.92,4.14-1.73,1.96-1.27,3.91-2.54,5.64-4.16,1.15-1.04,1.84-2.66,1.04-4.27-.81-1.5-2.42-1.5-3.91-1.39-5.87.58-9.89,3.81-12.54,8.78-.23.46-.35.92-.69,1.27-2.76,2.31-5.52,4.73-9.09,5.54-1.03.23-2.42.23-3.45-.23-.69-.35-1.15-1.5-1.27-2.31-.12-.46.81-1.15,1.38-1.5,1.38-.69,2.99-1.15,4.49-1.96,2.19-1.15,4.37-2.42,5.87-4.5.69-1.15,1.38-2.42.69-3.81-.69-1.39-2.07-1.39-3.45-1.39-6.67,0-13.8,6.35-14.03,13.05-.23,5.08,2.76,8.78,8.63,6.81,3.22-1.04,5.87-3,8.4-5.31.35-.35.81-.69,1.38-1.15.12.69.12,1.04.23,1.5.81,4.62,3.8,6.58,8.17,5.08,2.19-.69,4.14-1.96,6.21-3.23,1.26-.92,2.42-2.19,3.91-3.46h0ZM66.38,31.63c2.65,1.62,10.24-2.89,10.47-5.77-3.45,1.73-6.9,3.69-10.47,5.77Z"/>
      <path class="cls-1" d="M195.44,54.26c-5.98,3.7-7.82,2.08-9.43-1.39-4.37,3-9.43,3.58-14.61,3.46-1.15,0-2.3-.23-3.34-.69-1.73-.69-2.19-2.19-1.5-3.93.92-2.19,2.53-3.23,4.72-3.46.35,0,.92,0,1.15.23,2.65,2.08,5.18.23,7.71.12v-.46c-1.38-.35-2.88-.58-4.26-.92-.23,0-.46,0-.57-.11-2.3-.46-4.72-.69-5.18-3.58-.35-2.19.46-5.78,3.34-7.16,4.49-2.19,9.09-3.46,14.15-2.66,1.38.23,2.76.46,3.11,2.08.35,1.73,0,3.35-1.61,4.39-1.51.92-3.09,1.73-4.72,2.43-1.26.58-2.18,0-3.34-1.85-.92.23-1.96.58-3.34,1.04,3.34,1.27,6.79,1.15,8.97,3.46,2.19-2.54,4.26-5.08,6.33-7.62.57-.69,1.38-1.39,2.18-1.73.81-.35,1.96-.58,2.53-.23.69.46,1.38,1.62,1.26,2.43-.23,1.62-.8,3.23-1.38,4.85-.35.81-.92,1.62-1.61,2.54,3.57-2.08,6.79-5.31,11.16-1.85.8-1.5,2.3-2.31,4.14-2.66.46-.12.69-.69,1.15-.92,1.04-.58,2.07-1.27,3.22-1.5,1.38-.23,2.3.69,2.53,2.08.12.58.35,1.27.57,1.96.57-.35,1.04-.69,1.49-.92,1.84-.92,3.57-.12,4.03,1.96.12.69.35,1.39.46,2.08.12.69.12,1.39.23,1.96.57.35,1.38.46,1.84.92.92.81.92,2.54-.23,3.46-1.61,1.39-3.34,2.66-5.18,3.7-2.07,1.15-4.26.81-6.21-.46-.92-.69-1.61-.46-2.42.11-1.02.58-2.1,1.04-3.22,1.39-1.61.46-3.11-.23-3.8-1.73-.57-1.5-1.38-1.15-2.41-.46-.58.35-1.15.81-1.84,1.15-2.3.81-4.49.69-6.1-1.5h0ZM196.13,51.26c.12.35.23.58.35.81.92,2.43,2.53,3,4.95,1.85l6.44-3.23c-.12.58-.35.81-.23,1.15.12.92-.12,2.31.46,2.77.57.46,1.84.11,2.88,0,.35,0,.69-.35,1.04-.58.92-.58,1.73-1.27,2.53-1.85,2.3,2.54,4.14,3.12,6.56,2.08,2.41-1.04,4.6-3.12,4.6-4.27-1.84.92-3.11,2.77-5.41,2.54v-.23c.12-.12.23-.35.46-.46,2.53-1.85,3.45-4.16,2.3-7.16-.23-.58-.69-1.04-1.04-1.5-.46.46-1.04.81-1.5,1.27-2.76,2.54-5.52,5.2-8.4,7.74-.12.11-.23.11-.23.11-1.15.35-1.96-.23-1.49-1.27.46-1.5,1.26-3,2.18-4.27.35-.46,1.5-.58,2.19-.81,1.15-.35,2.76-2.31,2.41-3.12-.35-.12-.69-.35-1.04-.46.23-.69.46-1.27.69-1.96-1.49-.46-2.18.23-2.99,1.04-.46.46-1.15,1.04-1.84,1.15-1.96.23-2.99,1.39-3.68,3.12.69.11,1.38.23,2.07.23-1.15,2.43-3.68,4.39-4.72,4.16,0-1.96,0-3.69-.23-5.54,0-.35-.69-.92-1.15-.92-2.42-.35-6.67,2.08-7.48,4.5-.57,1.85-1.96,2.66-3.45,3.46-.92.46-1.96.81-2.65-.23-.8-1.04-.57-2.08.23-3.12,1.27-1.39,2.76-2.66,3.8-4.27,1.15-1.73,1.84-3.58,2.65-5.54.12-.35-.23-1.04-.23-1.5-.46.23-1.04.23-1.38.58-1.96,2.08-4.03,4.16-5.75,6.47-1.49,1.96-2.07,4.5-1.96,7.04.12,3,1.84,4.16,4.6,2.54.92-.35,2.07-1.39,3.45-2.31h0ZM183.36,40.75l.35.35c1.61-.81,3.34-1.62,4.72-2.66.46-.35.69-1.5.57-2.19,0-.35-1.04-.81-1.61-.81-1.49-.12-3.11-.23-4.72-.12-3.22.23-6.21,1.15-8.86,3-1.73,1.27-1.96,3.12-1.73,4.97.23,1.73,1.96,1.62,3.22,1.96,2.42.58,4.72,1.04,7.13,1.62.57.12,1.04.81,1.49,1.15-.46.46-.8,1.04-1.26,1.27-3.57,1.73-7.36,1.96-11.27,1.73.12-.46.23-.69.35-1.15-.69.23-1.38.23-1.61.58-.8.81-1.38,1.85-1.96,2.77.8.46,1.61,1.27,2.42,1.27,4.26.46,8.51,0,12.54-1.85,1.04-.46,2.07-1.39,2.76-2.43,1.15-1.62.69-3.35-1.04-4.39-.92-.58-2.07-.92-3.22-1.27-1.84-.58-3.8-.92-5.75-1.5-1.38-.46-1.49-1.04-.23-1.85,2.76-1.85,5.98-2.43,9.55-2.54-.66.65-1.27,1.35-1.84,2.08ZM207.52,25.27h-5.29c-1.04,0-1.49-.35-1.38-1.5.23-3.81.12-3.81,4.03-3.81h9.09c1.26,0,1.73.46,1.73,1.73.23,6.81-5.06,12.82-11.85,13.51-7.02.69-13.34-4.04-14.49-10.85-1.15-6.93,1.84-12.7,7.94-15.36,6.79-2.89,15.76,1.04,17.6,8.2h-6.21c-.92,0-1.26-.23-2.53-1.27-2.65-2.08-6.44-1.5-8.63.92-2.53,2.89-2.53,6.81.23,9.58,2.3,2.42,5.87,2.77,8.63.81.58-.46.92-1.04,1.38-1.5-.12-.12-.12-.23-.23-.46h0ZM175.2,34.28h-7.59c-.35,0-.8-.69-1.15-1.15-1.26-2.08-2.41-4.16-3.8-6.24,0,1.96-.12,3.93,0,5.77.12,1.39-.46,1.85-1.84,1.73-1.15-.12-2.3,0-3.45,0-1.04,0-1.38-.46-1.38-1.39.12-2.19.12-4.39.12-6.47,0-5.43-.12-10.97-.12-16.4,0-1.96,0-2.08,1.96-1.96,3.11,0,6.1-.12,9.2.23,5.41.46,8.51,5.2,7.25,10.51-.69,2.77-1.84,4.97-4.49,6.12-.92.35-.8.92-.35,1.62,1.61,2.08,3.11,4.27,4.6,6.47.35,0,.57.35,1.04,1.15ZM162.66,17.19v.58c-.12,2.31,0,2.42,2.19,2.31.35,0,.69,0,1.04-.12,1.73-.46,2.42-1.62,2.07-3.46-.35-1.73-1.84-2.54-4.26-2.42-1.96.12-.81,1.62-1.15,2.54.12.23.12.35.12.58h0Z"/>
      <path class="cls-1" d="M209.24,41.1c-1.15,1.04-2.3,1.27-3.8.92-1.38-.35-2.99,0-4.49.12-.69,0-1.61.46-1.73-.58,0-.23.92-.92,1.49-.92,2.88-.12,5.64,0,8.51,0v.46h0ZM131.6,21.81v-2.89c-.12-3.12-.12-6.24-.23-9.24,0-1.27.46-1.62,1.61-1.62q4.95-.12,4.95,4.85v19.52c0,1.96,0,1.85-1.96,2.08-2.76.35-4.49-.69-5.87-3.12-1.96-3.47-4.37-6.7-6.56-10.05-.23-.35-.46-.58-.92-1.27,0,.92-.11,1.5-.11,1.96.11,3.46.11,7.04.23,10.51,0,1.39-.46,1.96-1.96,1.85-1.15-.11-2.3,0-3.45,0-.92,0-1.38-.35-1.26-1.27v-3.93c0-6.47,0-13.05-.11-19.52,0-1.27.35-1.73,1.5-1.62,5.18.12,3.8-.81,6.56,3.46,1.95,3.11,3.95,6.19,5.98,9.24.23.46.58.81.92,1.15.46-.12.57-.12.69-.12h0ZM17.95,19.73c1.38-2.08,2.65-3.93,3.8-5.77.69-1.04,1.04-2.19,1.61-3.35.23-.46.81-1.04,1.26-1.04,4.03-.23,8.05-.46,12.08-.46,1.03,0,2.07.81,2.99,1.27-.58.92-1.03,2.19-1.96,2.77-2.07,1.27-4.37,2.54-6.67,3.23-4.03,1.27-8.17,2.19-12.31,3.23,0,.23-.23.12-.81.11ZM21.86,17.19c5.52-1.5,11.04-2.19,15.76-6.01-.58-.23-.81-.35-1.03-.35-3.57.12-7.13.35-10.7.46-.23,0-.69.12-.81.35-1.03,1.85-2.07,3.58-3.22,5.54ZM65.11,27.12c1.15-2.89,3.11-4.97,5.98-6.01.35-.12.81,0,1.15,0-.11.46,0,.92-.23,1.27-1.72,2.31-4.03,3.93-6.9,4.74ZM46.59,27.12c1.15-2.89,3.1-4.85,5.87-6.01.35-.12.81,0,1.26,0-.11.35,0,.81-.23,1.15-1.72,2.42-4.03,3.93-6.9,4.85ZM84.32,22.27c1.72-3.93,3.57-7.62,7.13-10.28-1.5,4.04-3.91,7.39-7.13,10.28ZM201.88,47.1c-.12,1.5,0,2.89-.46,4.04-.23.69-1.38,1.27-2.19,1.39-1.04.12-1.26-.81-1.04-1.73.57-2.08,2.07-2.89,3.68-3.69h0ZM220.06,46.29c.81,2.66.57,4.16-.92,4.97-1.49.92-1.73-1.15-3.11-1.15,1.5-1.39,2.65-2.43,4.03-3.81h0ZM191.07,45.95c1.04-1.96,1.96-4.04,3.8-5.43.12.11.35.23.46.35-1.26,1.85-2.53,3.58-3.8,5.43-.12-.11-.23-.23-.46-.35Z"/>
    </g>
  </g>
</svg>