<?xml version="1.0" encoding="UTF-8"?>
<svg id="Layer_2" data-name="Layer 2" xmlns="http://www.w3.org/2000/svg" viewBox="0 0 212 54">
  <defs>
    <style>
      .cls-1, .cls-2 {
        fill: #fff;
        stroke-width: 0px;
      }

      .cls-2 {
        fill-rule: evenodd;
      }
    </style>
  </defs>
  <g id="Layer_1-2" data-name="Layer 1">
    <g>
      <path class="cls-2" d="M186.99,20.65c.1.04.2.09.29.14.51.26.97.58,1.39.97.66.58,1.19,1.31,1.53,2.12.29.68.45,1.41.47,2.14v.08l12.71-14.5.18-.2,7.89-9.02c.58-.66.67-1.26.4-1.76-.01,0-.03-.01-.04-.02-.01,0-.02-.02-.02-.03-.02-.06-.06-.11-.09-.16-.07-.09-.16-.18-.25-.25-.16-.1-.35-.15-.55-.14h-7.73c-.65,0-1.29.05-1.93.16-2.12.77-4.02,2.05-5.52,3.73-3.17,3.62-5.92,9.51-7.84,14.37l-.89,2.4ZM193.75,8.76c-.38.88-.68,1.79-.92,2.72-.16.63-.28,1.26-.39,1.91h0c-.05.31-.1.62-.14.92-.11.92-.21,1.85-.26,2.8-.03.68-.08,1.35-.13,2.01h0c-.02.26-.04.53-.06.79-.05.65-.13,1.3-.22,1.95-.01.1-.03.21-.05.31,0,.05-.02.1-.02.16-.15,1.02-.37,2.03-.64,3.03.56-.94,1-1.94,1.31-2.99l3.79-5.14,2-2.69-5.36,6.15c.04-.22.08-.44.12-.66.07-.4.14-.8.19-1.2l5.01-6.84-4.84,5.49s0-.07.01-.1h0c0-.06.02-.11.02-.17l.15-1.48.03.02,3.55-4.94.75-1.05-.92,1.05-3.25,3.62c.07-.59.16-1.17.26-1.75l3.85-5.42-3.55,3.91c.16-.7.34-1.4.56-2.08.59-1.76,1.31-3.47,2.15-5.13-1.25,1.43-2.27,3.05-3.03,4.8Z"/>
      <path class="cls-1" d="M70.78,10.61c-.37,0-.65-.12-.85-.35-.2-.27-.27-.58-.2-.95l1-4.65c.07-.37.25-.67.55-.9.33-.27.67-.4,1-.4h6.25c.37,0,.65.13.85.4.2.23.27.53.2.9l-1.05,4.65c-.03.37-.2.68-.5.95-.3.23-.63.35-1,.35h-6.25Z"/>
      <path class="cls-1" d="M64.48,40.2c-.37,0-.65-.12-.85-.35-.17-.27-.22-.57-.15-.9l4.95-23.49c.07-.33.25-.62.55-.85.3-.27.63-.4,1-.4h6.25c.37,0,.63.12.8.35.2.23.27.53.2.9l-5,23.49c-.07.37-.25.67-.55.9-.27.23-.58.35-.95.35h-6.25Z"/>
      <path class="cls-2" d="M.25,39.95c.17.17.4.25.7.25h6.86c.8,0,1.43-.37,1.9-1.1l2.9-4.85h13.06l.8,4.75c.13.8.65,1.2,1.55,1.2h6.35c.37,0,.67-.13.9-.4.23-.27.33-.63.3-1.1L30.72,6.67c-.13-.97-.7-1.45-1.7-1.45h-8.11c-.97,0-1.73.48-2.3,1.45L.15,38.7c-.1.2-.15.38-.15.55,0,.27.08.5.25.7ZM25.17,26.75h-8.91l7.16-12.74,1.75,12.74Z"/>
      <path class="cls-1" d="M42.21,39.9c.2.2.53.3,1,.3h5.7c.47,0,.83-.1,1.1-.3.3-.23.58-.55.85-.95l14.36-23.19c.17-.27.25-.5.25-.7,0-.27-.08-.47-.25-.6-.17-.17-.4-.25-.7-.25h-6.4c-.7,0-1.25.35-1.65,1.05l-8.71,14.94-2.25-14.84c-.1-.37-.25-.65-.45-.85-.17-.2-.47-.3-.9-.3h-5.6c-.5,0-.87.13-1.1.4-.2.27-.27.62-.2,1.05l4.55,23.29c.1.4.23.72.4.95Z"/>
      <path class="cls-2" d="M80.18,38.45c1.53,1.5,3.7,2.25,6.51,2.25,1.77,0,3.24-.27,4.4-.8,1.17-.57,2.33-1.4,3.5-2.5l-.35,1.55c-.07.33,0,.63.2.9.2.23.48.35.85.35h5.95c.33,0,.65-.12.95-.35.3-.23.48-.53.55-.9l5-23.49c.07-.33,0-.62-.2-.85-.2-.27-.48-.4-.85-.4h-5.9c-.37,0-.7.12-1,.35-.27.23-.43.53-.5.9l-.3,1.25c-.7-.97-1.58-1.7-2.65-2.2-1.07-.53-2.53-.8-4.4-.8-3.37,0-6.14,1.03-8.31,3.1-2.17,2.03-3.74,4.9-4.7,8.59l-.75,3.55c-.17.87-.25,1.87-.25,3,0,2.8.75,4.96,2.25,6.5ZM93.94,32.4c-.9.9-2.08,1.35-3.55,1.35-1.13,0-1.93-.28-2.4-.85-.47-.57-.7-1.38-.7-2.45,0-.53.05-1.1.15-1.7.1-.93.32-1.97.65-3.1.47-1.57,1.12-2.78,1.95-3.65.83-.9,1.97-1.35,3.4-1.35,1.17,0,2.02.3,2.55.9.53.6.8,1.42.8,2.45,0,.23-.03.62-.1,1.15-.17,1.1-.43,2.35-.8,3.75-.37,1.4-1.02,2.57-1.95,3.5Z"/>
      <path class="cls-1" d="M122.2,40.2c-6.24,0-9.36-2.33-9.36-7,0-.93.12-1.92.35-2.95l1.95-9.24h-3.9c-.37,0-.65-.12-.85-.35-.2-.27-.25-.57-.15-.9l.85-4.3c.07-.33.25-.62.55-.85.3-.27.63-.4,1-.4h3.95l1.75-8.25c.07-.37.25-.67.55-.9.3-.23.62-.35.95-.35h6.16c.37,0,.63.13.8.4.2.23.27.52.2.85l-1.75,8.25h6.26c.37,0,.63.12.8.35.2.23.27.53.2.9l-.9,4.3c-.07.37-.25.67-.55.9-.3.23-.62.35-.95.35h-6.31l-1.8,8.5c-.13.57-.2,1.13-.2,1.7,0,.63.15,1.1.45,1.4.33.3.88.45,1.65.45h4.05c.37,0,.63.13.8.4.2.23.27.53.2.9l-1,4.6c-.07.37-.25.67-.55.9-.3.23-.62.35-.95.35h-4.25Z"/>
      <path class="cls-1" d="M132.15,39.85c.2.23.48.35.85.35h6.61c.37,0,.7-.12,1-.35.3-.23.48-.53.55-.9l2.7-12.59c.27-1.33.83-2.37,1.7-3.1.87-.73,1.97-1.1,3.3-1.1h5.05c.37,0,.7-.12,1-.35.3-.27.47-.57.5-.9l1.15-5.45c.07-.37,0-.67-.2-.9-.17-.23-.42-.35-.75-.35h-2.9c-1.74,0-3.2.28-4.4.85-1.2.53-2.24,1.32-3.1,2.35l.4-1.9c.07-.37,0-.67-.2-.9-.17-.27-.43-.4-.8-.4h-6.1c-.37,0-.7.13-1,.4-.3.23-.48.53-.55.9l-4.95,23.44c-.07.33-.02.63.15.9Z"/>
      <path class="cls-1" d="M162.46,10.61c-.37,0-.65-.12-.85-.35-.2-.27-.27-.58-.2-.95l1-4.65c.07-.37.25-.67.55-.9.33-.27.67-.4,1-.4h6.26c.37,0,.65.13.85.4.2.23.27.53.2.9l-1.05,4.65c-.03.37-.2.68-.5.95-.3.23-.63.35-1,.35h-6.25Z"/>
      <path class="cls-1" d="M156.16,40.2c-.37,0-.65-.12-.85-.35-.17-.27-.22-.57-.15-.9l4.95-23.49c.07-.33.25-.62.55-.85.3-.27.63-.4,1-.4h6.26c.37,0,.63.12.8.35.2.23.27.53.2.9l-5,23.49c-.07.37-.25.67-.55.9-.27.23-.58.35-.95.35h-6.26Z"/>
      <path class="cls-2" d="M173.16,16l4.86,9.75c-.08.38-.12.78-.12,1.18,0,3.26,2.64,5.89,5.9,5.89s5.9-2.64,5.9-5.89c0-2.83-1.99-5.19-4.65-5.76l-3.14-6.02c-.27-.6-.72-.9-1.35-.9h-6.21c-.37,0-.68.15-.95.45-.23.27-.35.57-.35.9,0,.07.03.2.1.4ZM183.8,29.17c1.24,0,2.25-1.01,2.25-2.25s-1.01-2.25-2.25-2.25-2.25,1.01-2.25,2.25,1.01,2.25,2.25,2.25Z"/>
      <path class="cls-2" d="M180.5,33.21c.09.05.19.1.29.14l-.89,2.4c-1.92,4.85-4.68,10.75-7.84,14.37-1.51,1.68-3.4,2.96-5.52,3.73-.64.1-1.29.16-1.93.16h-7.73c-.19,0-.38-.04-.55-.14-.09-.08-.17-.16-.25-.25-.04-.05-.07-.11-.09-.16,0-.01-.01-.03-.02-.04,0,0-.02-.02-.04-.02-.27-.5-.18-1.1.4-1.76l7.89-9.02.18-.2,12.71-14.5v.08c.02.74.18,1.46.47,2.14.35.81.87,1.53,1.53,2.12.42.38.89.71,1.39.97ZM174.95,42.51c-.24.93-.54,1.84-.92,2.72-.75,1.75-1.77,3.36-3.03,4.8.84-1.66,1.56-3.37,2.15-5.13.22-.68.4-1.38.56-2.08l-3.55,3.91,3.85-5.42c.1-.58.19-1.16.26-1.75l-3.25,3.62-.92,1.05.75-1.05,3.56-4.94.03.02.15-1.48c0-.06,0-.11.02-.17,0-.04.01-.07.01-.1l-4.83,5.49,5.01-6.84c.05-.4.11-.8.19-1.2.04-.22.08-.44.12-.66l-5.36,6.15,2-2.69,3.79-5.14c.32-1.05.76-2.05,1.31-2.99-.28,1-.49,2.01-.64,3.03,0,.05-.02.1-.02.16-.02.1-.03.21-.05.31-.09.65-.17,1.3-.22,1.95-.02.26-.04.53-.06.79h0c-.05.66-.1,1.33-.13,2.01-.05.95-.14,1.87-.26,2.8-.04.3-.09.61-.14.92h0c-.11.64-.24,1.28-.39,1.91Z"/>
      <path class="cls-1" d="M183.8,33.96c2.55,0,4.78-1.35,6.01-3.37l3.93,7.87c.07.2.1.33.1.4,0,.33-.12.63-.35.9-.26.3-.58.45-.95.45h-6.21c-.63,0-1.08-.3-1.35-.9l-2.9-5.57c.55.14,1.13.21,1.72.21Z"/>
    </g>
  </g>
</svg>