<?xml version="1.0" encoding="UTF-8"?>
<svg id="Layer_2" data-name="Layer 2" xmlns="http://www.w3.org/2000/svg" viewBox="0 0 226 70.04">
  <defs>
    <style>
      .cls-1 {
        fill: #fff;
        stroke-width: 0px;
      }
    </style>
  </defs>
  <g id="Layer_1-2" data-name="Layer 1">
    <path class="cls-1" d="M0,19.39c.69-.66,1.39-1.36,2.05-2.03C7.28,12.11,12.51,6.87,17.75,1.64c2.22-2.19,4.6-2.19,6.82,0,1.69,1.66,3.41,3.32,5,5.05.9.96,1.49.86,2.48.13,2.35-1.76,4.77-3.39,7.22-4.98.43-.27,1.29-.27,1.72,0,11.29,7.48,21.79,15.91,29.64,27.14,3.31,4.75,5.73,10.03,5.99,15.95.2,4.35-1.09,8.4-3.71,11.96-4.27,5.88-10.2,8.17-17.19,7.51-4.6-.43-8.61-2.66-11.92-5.95-.66-.66-1.33-1.26-2.35-2.19,1.06,4.19,2.81,7.38,6.03,9.57,3.11,2.13,6.76,2.92,10.86,3.36-1.32.96-33.81,1.23-36.23.2.56-.17,1.09-.47,1.66-.5,3.11-.2,5.96-1.23,8.54-2.86,3.51-2.19,5.33-5.51,5.69-9.73-.33.33-.76.6-.99.96-2.28,3.85-6.06,5.51-10.07,6.61-9.24,2.53-17.98-2.13-21.79-10.36-2.15-4.72-2.32-9.64-.53-14.52.89-2.49,2.09-4.85,3.24-7.24.4-.83.56-1.43-.17-2.19-2.42-2.62-4.8-5.22-7.25-7.77-.1-.1-.3-.03-.46-.07v-2.33h0ZM40.5,20.48c-.56-.8-.96-1.6-1.56-2.19-5.16-5.15-10.34-10.29-15.53-15.42-1.76-1.76-2.75-1.76-4.47-.07-5.2,5.11-10.38,10.23-15.56,15.35-1.92,1.89-1.92,2.79,0,4.68,5.33,5.22,10.63,10.47,15.96,15.68,1.42,1.43,2.35,1.49,3.77.07,5.4-5.39,10.79-10.79,16.16-16.21.5-.47.76-1.16,1.22-1.89ZM152.55,57.33c.76-2.26,1.42-4.12,2.02-5.98,1.06-3.19,2.15-6.38,3.15-9.6.33-1.03.79-1.56,1.99-1.46,1.26.13,2.55.07,3.81,0,1.09-.07,1.42.43,1.39,1.46-.03,6.31-.03,12.62,0,18.94,0,1-.33,1.46-1.32,1.36-.39-.03-.77-.03-1.16,0-1.42.2-1.92-.33-1.89-1.83.1-3.89.03-7.74.03-11.63,0-.5-.07-1-.1-1.53-.16-.03-.33-.03-.5-.07-.66,1.93-1.36,3.85-2.02,5.78-.93,2.66-1.92,5.28-2.78,7.97-.3.96-.79,1.39-1.76,1.3-.4-.03-.79-.07-1.16,0-1.52.23-2.35-.3-2.81-1.93-1.13-3.99-2.48-7.91-3.77-11.83-.2-.63-.6-1.19-1.13-1.6v2.82c0,3.72-.03,7.41.03,11.13,0,1.1-.36,1.53-1.46,1.39-.44-.07-.89-.07-1.32,0-1.19.13-1.49-.43-1.49-1.53.03-5.22.03-10.4.03-15.61,0-4.62,0-4.55,4.5-4.65,1.49-.03,2.32.27,2.78,1.93,1.29,4.62,2.88,9.17,4.34,13.72.13.37.26.67.6,1.43h0ZM97.32,24.5c1.29.96,2.42,2.46,2.42,4.69,0,3.42-1.89,5.61-5.26,5.71-4.17.13-8.38.07-12.55.13-1.09.03-1.42-.43-1.42-1.49.03-6.31.03-12.59,0-18.9,0-1.03.23-1.53,1.36-1.49,3.84.03,7.71-.07,11.56.03,4.31.1,6.72,2.49,6.19,6.35-.2,1.63-1.39,3.09-2.29,4.98h0ZM89.14,31.25h1.49c.56,0,1.09.03,1.65-.03,1.59-.17,2.52-1.23,2.45-2.79-.07-1.53-.86-2.36-2.38-2.39-2.09-.07-4.17-.13-6.29-.07-.36,0-.96.53-1.03.9-.7,3.85-.26,4.35,3.61,4.35.17.03.33.03.5.03ZM89.07,22.18v-.07c1.19,0,2.42.1,3.61-.03,1.46-.17,2.02-1.3,2.05-2.59.03-1.33-.6-2.26-2.02-2.36-2.25-.13-4.5-.2-6.75-.2-.33,0-.86.5-.93.86-.76,3.72-.2,4.42,3.51,4.42.2-.03.36-.03.53-.03h0ZM197.29,25.73c4.27,1.93,3.31,5.75,4.07,9.24-1.56,0-2.91.07-4.27-.03-.3-.03-.73-.6-.83-1-.23-1.03-.33-2.06-.5-3.12-.36-2.56-1.99-4.05-4.54-4.19-1.26-.07-2.55.03-3.81-.03-1.03-.03-1.36.4-1.32,1.4.03,1.89-.03,3.75.03,5.65.03,1.03-.4,1.33-1.36,1.36-3.11.13-3.11.17-3.11-2.89,0-5.81.03-11.63-.03-17.41,0-1.26.36-1.63,1.59-1.59,4.4.2,8.81.23,13.18.53,2.35.17,3.97,1.73,4.47,4.05.53,2.66.26,5.22-2.22,6.98-.44.37-.89.72-1.36,1.06h0ZM190.07,23.07c1.36-.1,2.75-.13,4.11-.37,1.62-.3,1.95-1.59,1.92-3.02-.03-1.43-.63-2.49-2.22-2.59-1.92-.1-3.84-.07-5.76-.27-1.62-.13-2.09.5-2.05,2.06.1,4.09.03,4.09,4.01,4.19h0ZM112.65,62.28c-4.57-.2-8.97-.17-13.31-.63-3.11-.33-4.93-2.62-5.76-5.52-1.06-3.69-1.03-7.44.56-11.03,1.42-3.19,4.11-4.55,7.38-4.72,3.31-.17,6.62,0,9.93-.07,1.32-.03,1.26.73,1.19,1.6-.07.9.46,2.13-1.26,2.09-2.59-.03-5.19-.03-7.78,0-3.74.03-5.63,1.86-5.66,5.58,0,1.79.2,3.62.53,5.42.33,1.73,1.52,2.82,3.28,3.02,1.62.2,3.28.2,4.93.33.89.07,1.26-.33,1.32-1.26.3-4.22.33-4.22-3.94-4.25-1.89,0-2.78-1.39-1.99-3.12.13-.3.69-.53,1.03-.53,2.81-.03,5.63-.03,8.44,0,.33,0,.96.46.99.73.13,4.02.1,8.01.1,12.36h0ZM196.43,62.08c-1.82,0-3.64-.07-5.46.03-1.29.07-1.62-.46-1.56-1.66.07-1.06-.16-2.09,1.52-2.09,3.31.03,6.62,0,9.9-.17,2.12-.1,3.01-1.03,2.95-2.59-.07-1.63-1.13-2.59-3.15-2.69-2.15-.1-4.3-.1-6.42-.23-3.61-.23-5.83-2.69-5.76-6.15.1-3.56,2.48-6.08,6.03-6.15,3.91-.07,7.82.03,11.76-.03,1.36-.03,1.36.73,1.32,1.69-.03.96.23,2.06-1.39,2.03-2.98-.07-5.96-.03-8.94,0-.7,0-1.42.1-2.12.23-1.16.2-1.82,1.06-1.62,2.13.17.86.73,1.83,1.42,2.29.63.43,1.69.33,2.55.4,2.55.23,5.2.17,7.68.7,2.48.57,3.71,2.96,3.64,6.01-.07,2.92-1.52,5.32-4.01,5.75-2.75.5-5.56.53-8.34.76v-.27h0ZM137.79,62.08c-1.65,0-3.11.1-4.5-.07-.43-.03-1.03-.7-1.13-1.2-.73-3.32-2.78-3.95-5.99-3.95s-5.03.7-5.66,3.85c-.23,1.16-.99,1.46-2.09,1.36-1.09-.07-2.19,0-3.58,0,.33-.93.53-1.63.83-2.29,2.48-6.08,5.03-12.13,7.48-18.21.4-1.03.96-1.26,1.95-1.26,3.81,0,3.81-.03,5.26,3.49,2.32,5.61,4.64,11.2,6.95,16.81.16.37.23.76.46,1.46h0ZM126.63,46.2c-.2,0-.4-.03-.6-.03-.93,2.23-1.82,4.49-2.82,6.94h6.23c-.95-2.3-1.89-4.6-2.82-6.91ZM202.99,35.03c1.32-3.26,2.45-6.08,3.64-8.94,1.49-3.69,3.08-7.31,4.5-11.03.56-1.43,1.26-2.06,2.88-1.96,3.68.23,2.82-.66,4.34,2.96,2.45,5.78,4.8,11.6,7.18,17.41.17.4.26.8.46,1.49-1.59,0-3.01.1-4.4-.07-.43-.03-1.06-.7-1.16-1.16-.76-3.49-2.95-4.19-6.26-4.05-2.75.1-4.7.43-5.23,3.49-.26,1.56-1.32,1.96-2.78,1.83-.89-.07-1.85.03-3.18.03ZM211.43,26h6.26c-.84-2.15-1.7-4.29-2.58-6.41-.07-.13-.99-.17-1.06-.03-.89,2.06-1.69,4.15-2.62,6.44h0ZM162.49,35c-1.62,0-3.05.1-4.44-.07-.43-.03-1.03-.7-1.13-1.16-.76-3.32-2.75-4.19-6.06-4.05-2.88.1-4.87.5-5.46,3.65-.26,1.36-1.19,1.83-2.55,1.69-.96-.1-1.95-.03-3.24-.03.36-1,.56-1.73.86-2.39,2.48-6.01,4.97-11.99,7.42-18.04.4-1.03.89-1.49,2.05-1.43,4.64.2,3.31-.83,5.13,3.46,2.35,5.51,4.6,11.1,6.89,16.64.13.43.26.96.53,1.73h0ZM151.36,19.05c-.2-.03-.4-.03-.6-.07-.96,2.26-1.89,4.52-2.95,7.01h6.32c-.96-2.46-1.89-4.68-2.78-6.94ZM179.77,49.35c1.59,0,3.21.03,4.8,0,1.59-.03,1.16,1.13,1.19,1.99.03.86.2,1.79-1.26,1.76-3.15-.07-6.29,0-9.44-.03-1.36-.03-1.76.36-1.32,1.76.56,1.96,1.79,3.02,3.74,3.22,2.25.2,4.5.33,6.76.3,1.66-.03,1.49,1,1.56,2.06.07,1.13-.16,1.76-1.52,1.69-2.35-.13-4.74-.03-7.09-.2-5.07-.33-7.78-2.96-8.51-8.01-.56-4.09-.26-7.94,2.68-11.16,1.42-1.56,3.18-2.36,5.26-2.39,2.58-.07,5.17.03,7.78-.03,1.32-.03,1.46.63,1.39,1.66-.07.93.3,2.09-1.32,2.09-2.52,0-5.07,0-7.58.27-1.99.2-3.35,1.96-3.24,3.95.03.36.73.93,1.19,1.03.79.17,1.65.03,2.48.03h2.45,0ZM113.32,26.06c-1.56,0-3.08.03-4.64,0-1.29-.07-1.52.53-1.16,1.63.56,1.86,1.75,3.12,3.71,3.29,2.25.2,4.5.27,6.76.23,1.59-.03,1.62.83,1.62,1.99s-.1,1.93-1.56,1.83c-2.65-.13-5.3,0-7.91-.3-4.17-.43-6.46-2.76-7.45-6.84-.63-2.66-.63-5.25.07-7.87,1.06-4.15,4.27-6.78,8.61-6.88,2.22-.03,4.4.07,6.62-.03,1.32-.07,1.72.4,1.69,1.73-.03,1.3-.17,2.09-1.75,2.03-2.18-.07-4.4.07-6.59.2-2.19.2-3.54,1.53-3.91,3.52-.23,1.23.07,1.86,1.49,1.79,2.75-.1,5.5-.03,8.28-.03,2.42,0,2.29,0,2.45,1.99.17,2.06-1.16,1.69-2.32,1.69-1.34.03-2.67.04-4.01.03ZM160.47,13.27h18.71c0,.83.13,1.66-.07,2.39-.13.47-.73,1.06-1.16,1.13-1.43.13-2.87.14-4.3.03-1.42-.1-1.95.4-1.92,1.86.07,4.82-.07,9.6.07,14.42.03,1.83-.83,1.93-2.22,1.93s-2.28.03-2.25-1.86c.13-4.69.03-9.4.03-14.09q0-2.23-2.32-2.23c-.93,0-1.89-.07-2.82.03-1.46.17-2.05-.4-1.85-1.86.16-.56.1-1.1.1-1.76h0ZM127.82,20.25c0,2.53-.07,5.08.03,7.61.07,2.09.73,2.89,2.88,3.12,1.89.23,3.84.3,5.76.2,1.72-.07,1.46,1,1.52,2.06.07,1.16-.1,1.93-1.56,1.79-2.88-.27-5.83-.17-8.68-.73-2.65-.5-4.3-2.82-4.4-5.55-.17-4.75-.17-9.5-.26-14.25-.03-1,.33-1.4,1.32-1.36,3.87.07,3.11-.3,3.18,2.96.03,1.4,0,2.76,0,4.15h.2Z"/>
  </g>
</svg>