<?xml version="1.0" encoding="UTF-8"?>
<svg id="Layer_2" data-name="Layer 2" xmlns="http://www.w3.org/2000/svg" viewBox="0 0 227.09 41.55">
  <defs>
    <style>
      .cls-1, .cls-2 {
        fill: #fff;
        fill-rule: evenodd;
        stroke-width: 0px;
      }

      .cls-2 {
        isolation: isolate;
        opacity: .2;
      }
    </style>
  </defs>
  <g id="Layer_1-2" data-name="Layer 1">
    <g>
      <path class="cls-1" d="M23.88,32.8c-1.54,1.4-3.77,2.1-6.69,2.1h-8.86c-.38,0-.69-.3-.69-.68V7.23c0-.38.31-.68.69-.68h8.23c3.01,0,5.3.66,6.87,1.98,1.57,1.32,2.35,3.25,2.35,5.79,0,1.44-.32,2.68-.97,3.72-.52.85-1.26,1.55-2.13,2.03-.12.06-.16.21-.1.33.03.05.07.09.13.11,1.01.39,1.87,1.09,2.44,2.01.7,1.1,1.05,2.45,1.05,4.06,0,2.75-.77,4.83-2.31,6.23h0ZM33.27,0H.55C.24,0,0,.24,0,.54v40.36c0,.3.25.54.55.54h32.73c.3,0,.55-.24.55-.54h0V.55c0-.3-.24-.54-.55-.55ZM17.56,22.58h-3.41c-.38,0-.69.3-.69.68v6.22c0,.38.31.68.69.68h3.04c1.04,0,1.84-.32,2.38-.96.54-.64.81-1.54.81-2.71,0-2.54-.94-3.85-2.82-3.91ZM14.15,18.41h2.34c2.29,0,3.43-1.16,3.43-3.49,0-1.28-.26-2.21-.79-2.76-.53-.56-1.39-.84-2.58-.84h-2.4c-.38,0-.69.3-.69.68v5.73c0,.37.31.68.69.68h0Z"/>
      <path class="cls-2" d="M201.4.09h-1.35c-.08,0-.15.06-.15.14h0v41.16c0,.08.07.15.15.15h1.35c.08,0,.15-.07.15-.15V.24c0-.08-.06-.15-.14-.15,0,0,0,0,0,0ZM167.58.09h-1.35c-.08,0-.15.06-.15.14h0v41.16c0,.08.07.15.15.15h1.35c.08,0,.15-.06.15-.14h0V.24c0-.08-.06-.15-.14-.15,0,0,0,0,0,0ZM133.76.09h-1.35c-.08,0-.15.06-.15.14h0v41.16c0,.08.07.15.15.15h1.35c.08,0,.15-.07.15-.15V.24c0-.08-.07-.15-.15-.15ZM99.95.09h-1.35c-.08,0-.14.06-.14.15h0v41.16c0,.08.07.15.14.15h1.35c.08,0,.15-.07.15-.15V.24c0-.08-.07-.15-.15-.15h0ZM66.13.09h-1.35c-.08,0-.14.06-.14.15h0v41.16c0,.08.07.15.14.15h1.35c.08,0,.14-.07.14-.15V.24c0-.08-.06-.15-.14-.15Z"/>
      <path class="cls-1" d="M226.58,20.88h-7.8c-.28,0-.5.22-.5.5h0v2.04c0,.28.23.5.5.5h4.21c.28,0,.5.22.5.5,0,0,0,0,0,0v5.75c0,.14-.06.27-.16.37l-.37.33c-1.01.92-2.48,1.39-4.42,1.39-2.06,0-3.63-.76-4.73-2.27-1.1-1.51-1.65-3.69-1.65-6.52v-5.74c.04-2.9.54-5.01,1.49-6.33.96-1.32,2.46-1.98,4.52-1.98,1.71,0,2.99.49,3.84,1.48.77.9,1.25,2.12,1.44,3.66.03.25.24.45.5.45h2.59c.29,0,.53-.25.51-.54-.23-2.51-1.07-4.46-2.5-5.85-1.54-1.49-3.67-2.23-6.39-2.23-3.19,0-5.59.98-7.2,2.95-1.6,1.97-2.4,4.92-2.4,8.86v5.53c.04,3.69.94,6.54,2.7,8.55,1.76,2.02,4.18,3.02,7.27,3.02,3.48,0,6.13-1.04,7.93-3.11l.52-.64c.07-.09.11-.2.11-.31v-9.84c0-.28-.23-.5-.5-.5h0ZM192.83,6.91h-2.55c-.28,0-.5.22-.5.5v19.4c0,.53-.7.7-.95.23l-10.32-19.86c-.09-.17-.26-.27-.45-.27h-2.78c-.28,0-.5.22-.5.5h0v27.36c0,.28.22.5.5.5h2.59c.28,0,.5-.22.5-.5V15.47c0-.52.7-.7.95-.23l10.28,19.76c.09.17.26.27.45.27h2.78c.28,0,.5-.22.5-.5h0V7.41c0-.28-.22-.5-.5-.5h0,0ZM151.45,6.91h-2.7c-.28,0-.52.22-.53.5v27.36c0,.28.24.5.53.5h2.7c.28,0,.52-.22.53-.5V7.41c0-.28-.24-.51-.53-.5ZM127.92,6.91h-3.73c-.22,0-.41.14-.48.35l-6.81,21.3c-.08.26-.36.41-.63.33-.16-.05-.28-.17-.33-.33l-6.81-21.3c-.07-.21-.26-.35-.48-.35h-3.73c-.28,0-.5.22-.5.5,0,0,0,0,0,0v27.36c0,.28.22.5.5.5,0,0,0,0,0,0h2.56c.28,0,.5-.22.5-.5h0v-10.54l-.27-8.88c-.01-.36.49-.45.61-.11l6.6,19.69c.07.2.26.34.47.34h2.01c.22,0,.41-.14.47-.34l6.64-19.78c.11-.34.62-.25.61.11l-.27,8.97v10.54c0,.28.22.5.5.5h2.56c.28,0,.5-.22.5-.5V7.41c0-.28-.22-.5-.5-.5h0ZM86.04,24.79h-6.43c-.28,0-.5-.22-.5-.5,0-.05,0-.1.02-.15l3.2-10.65c.14-.47.82-.48.97,0l3.22,10.65c.08.27-.07.54-.34.62-.05.01-.1.02-.15.02h0ZM84.48,7.26c-.07-.21-.26-.35-.48-.35h-2.34c-.22,0-.41.14-.48.35l-8.87,27.36c-.08.26.06.55.33.63.05.02.1.02.15.02h2.62c.22,0,.42-.15.48-.36l2-6.7c.06-.21.26-.36.48-.36h8.89c.22,0,.42.14.48.36l2.04,6.71c.07.21.26.36.48.36h2.62c.28,0,.5-.22.5-.5,0-.05,0-.11-.02-.16l-8.88-27.36ZM57.49,20.88h-7.81c-.28,0-.5.22-.5.5,0,0,0,0,0,0v2.04c0,.28.23.5.5.5h4.22c.28,0,.51.22.51.5v5.75c0,.14-.06.27-.16.37l-.37.33c-1.01.92-2.48,1.39-4.42,1.39-2.06,0-3.63-.76-4.73-2.27-1.1-1.51-1.65-3.69-1.65-6.52v-5.74c.04-2.9.54-5.01,1.49-6.33.96-1.32,2.46-1.98,4.51-1.98,1.72,0,2.99.49,3.84,1.48.77.9,1.25,2.12,1.44,3.66.03.25.24.45.5.45h2.59c.29,0,.53-.25.51-.54-.23-2.51-1.07-4.46-2.5-5.85-1.54-1.49-3.67-2.23-6.39-2.23-3.19,0-5.59.98-7.19,2.95-1.6,1.97-2.4,4.92-2.4,8.86v5.53c.04,3.69.94,6.54,2.7,8.55,1.76,2.02,4.18,3.02,7.27,3.02,3.48,0,6.12-1.04,7.93-3.11l.52-.64c.07-.09.11-.2.11-.31v-9.84c0-.28-.23-.5-.5-.5,0,0,0,0,0,0h0Z"/>
    </g>
  </g>
</svg>