<?xml version="1.0" encoding="UTF-8"?>
<svg id="Layer_2" data-name="Layer 2" xmlns="http://www.w3.org/2000/svg" viewBox="0 0 192.17 73.59">
  <defs>
    <style>
      .cls-1 {
        fill: #fff;
        stroke-width: 0px;
      }
    </style>
  </defs>
  <g id="Layer_1-2" data-name="Layer 1">
    <g>
      <path class="cls-1" d="M162.58,25.46c-.58-.48-.97-.76-.1-1.44,8.24-6.6,16.49-13.3,24.74-19.9,1.55-1.24,3.1-2.58,4.66-3.83-.29-.38-.49-.19-.68-.19h-33.46c-.58,0-1.07.19-1.46.57-2.91,2.01-5.82,4.02-8.73,6.12l-5.14,3.63V1.35c0-.96-.29-1.15-1.16-1.15h-23.18c-1.07,0-1.16.38-1.16,1.24v24.97c0,1.72.19,1.53-1.55,1.53h-29.58q-1.46,0-1.46-1.34V1.35c0-1.05-.19-1.43-1.36-1.34-10.77.1-21.53.1-32.2.1H17.66c-1.16,0-2.33,0-3.4.1C4.08.68.11,8.82.01,15.61.01,21.06.11,26.61.01,32.06c0,1.72-.1,3.44.29,5.17,1.65,7.94,7.66,12.82,16,12.82,25.41,0,50.83,0,76.24-.1,14.36,0,28.81,0,43.17-.1h5.63c.78,0,1.07-.19,1.07-1.05,0-2.96,0-5.93.1-8.9,0-.38-.19-.76.29-1.15.29.29.68.48.97.76,3.98,3.25,8.05,6.5,12.03,9.85.39.38.97.57,1.46.57h34.05c.29,0,.68.19.87-.29-1.84-1.53-3.69-2.96-5.53-4.5-8.05-6.6-16.01-13.2-24.06-19.71h0ZM182.37,46.89h-23.86c-.68,0-1.36-.19-1.94-.67-5.43-4.5-10.86-8.9-16.3-13.39-.22-.21-.49-.38-.78-.48-.29.38-.1.77-.1,1.15v12.15c0,.86-.29,1.24-1.16,1.15-.78-.1-1.46,0-2.23,0-14.07,0-28.23.1-42.29.1-25.9,0-51.7.1-77.6.1-7.47,0-13-5.26-13-12.63-.1-6.28-.1-12.56,0-18.85,0-3.92,1.36-7.37,4.56-10.04,2.33-1.91,5.04-2.49,7.95-2.58h.29l63.92-.1q1.46,0,1.46,1.34v25.35c0,.96.19,1.24,1.26,1.24h36.18c1.07,0,1.26-.29,1.26-1.24V4.13c0-.96.29-1.24,1.26-1.15h16.98c.97,0,1.16.29,1.16,1.15-.1,3.63-.1,7.17-.1,10.81,0,.29-.19.76.1.86.29.1.58-.19.87-.38,5.63-3.92,11.35-7.94,16.98-11.86.39-.38.97-.58,1.46-.58h24.06c.1,0,.29,0,.58.1-.58.86-1.46,1.34-2.23,2.01-7.77,6.31-15.56,12.59-23.38,18.85-.78.67-.78.96,0,1.53,8.44,6.89,16.78,13.68,25.22,20.57.19.19.49.29.58.76l-1.16.1h0ZM98.85,60.09c-1.75-.29-3.59-.1-5.43-.19-.68,0-.87.19-.87.86v11.67c0,.57.1.96.87.86,1.55-.1,3.2,0,4.75-.1,3.49-.19,5.92-2.77,6.11-6.22.19-3.54-2.04-6.31-5.43-6.89h0ZM102.44,67.27c-.19,2.49-2.23,4.4-4.85,4.5h-2.52c-.58,0-.78-.19-.78-.76v-8.71c0-.57.19-.96.87-.86,1.07.1,2.04-.1,3.1.1,2.81.48,4.36,2.58,4.17,5.74ZM150.75,59.71c-3.98,0-6.79,2.87-6.79,6.89s2.72,6.89,6.79,6.89,6.79-2.77,6.79-6.79-2.81-6.98-6.79-6.98ZM148.52,71.47c-2.33-1.15-3.49-4.3-2.43-7.08.87-2.49,3.3-3.64,5.92-2.96,2.23.57,3.59,2.58,3.59,5.26.1,4.02-3.59,6.5-7.08,4.78ZM184.02,66.5c-1.46-.76-3.1-.96-4.66-1.53-.78-.29-1.55-.77-1.46-1.72.1-.96.78-1.63,1.75-1.82,1.57-.38,3.23,0,4.46,1.05.58.48.78,0,1.16-.29.39-.38.29-.67-.1-1.05-1.75-1.43-4.95-1.82-6.98-.86-.29.1-.49.29-.78.48-2.04,1.63-1.75,4.5.58,5.64,1.46.77,3.1.86,4.56,1.53.87.38,1.65.96,1.55,2.01s-.78,1.72-1.75,1.91c-1.84.48-3.59.1-5.04-1.15-.29-.29-.58-.76-.97-.1-.29.48-.87.86-.1,1.43,1.36,1.15,2.91,1.63,4.85,1.53.97,0,2.04-.19,2.91-.67,1.16-.57,1.94-1.82,1.94-3.16.1-1.34-.68-2.58-1.94-3.25h0ZM12.14,66.02c-1.16-.38-2.33-.67-3.49-1.05-.87-.29-1.55-.76-1.45-1.82.1-1.05.78-1.53,1.65-1.72,1.55-.38,3.1-.1,4.36.96.58.38.78.38,1.26-.1.49-.57.19-.86-.19-1.24-1.45-1.05-3.4-1.53-5.24-1.15-1.65.29-2.91.96-3.49,2.58-.68,1.91.19,3.44,2.42,4.21,1.26.48,2.52.76,3.78,1.15.97.29,1.65.86,1.65,2.01,0,.96-.78,1.82-1.94,2.01-1.75.38-3.49,0-4.85-1.15-.39-.29-.58-.76-1.07-.1-.39.48-.68.86,0,1.43,1.26,1.05,2.91,1.53,4.56,1.53h.87c2.33-.19,3.98-1.43,4.17-3.25.29-2.2-.58-3.54-3.01-4.3ZM73.05,64.78v-4.02c0-.67-.19-.96-.87-.96-.78,0-.87.38-.87.96v7.56c0,1.63-.87,2.87-2.33,3.35-2.91.96-5.24-.67-5.24-3.64v-7.46c0-.67-.29-.86-.87-.86s-.87.1-.87.76v8.13c.1,2.39,1.55,4.11,3.98,4.5,4.66.76,7.37-1.53,7.08-5.55v-2.77ZM42.59,59.9h-8.73c-.68,0-.78.29-.78.86s.29.67.78.67c.78,0,1.55.1,2.33,0,.97-.1,1.16.29,1.16,1.15-.1,3.25,0,6.5,0,9.76,0,.57,0,.96.78.96.68,0,.97-.19.97-.86v-10.05c0-.76.19-1.05.97-.96.87.1,1.65,0,2.52,0,.58,0,.87-.1.87-.77s-.29-.76-.87-.76ZM124.07,59.9c-.68,0-.87.19-.87.86v11.67c0,.76.29.86.97.86.78,0,.87-.29.87-.96v-11.67c-.1-.57-.29-.77-.97-.77Z"/>
      <path class="cls-1" d="M60.15,5.75c-7.47.1-14.94,0-22.41,0H15.43c-4.36,0-7.37,2.2-8.73,6.12-.39,1.17-.59,2.4-.58,3.63v18.94c0,5.64,4.17,9.66,9.89,9.66h44.23c.87,0,1.16-.19,1.16-1.05-.1-2.77-.1-5.55,0-8.32,0-.86-.29-1.15-1.16-1.05H22.71c-.78,0-1.46-.1-2.04-.57-.58-.48-1.07-2.01-.78-2.68.39-.67,1.16-.29,1.65-.29h38.6c.87,0,1.16-.19,1.07-1.05-.1-2.61-.1-5.23,0-7.85,0-.96-.29-1.24-1.26-1.24H20.67c-.68,0-.87-.19-.87-.86-.1-2.1.78-2.97,2.91-2.97h37.15q1.46,0,1.46-1.44v-7.65c.19-.96-.1-1.34-1.16-1.34h0ZM153.08,25.37c-.68-.48-.78-.77-.1-1.34,6.96-5.53,13.88-11.11,20.76-16.74.39-.38.87-.77,1.36-1.15-.49-.29-.87-.19-1.16-.19h-13.87c-.78,0-1.46.19-2.04.67-6.79,4.78-13.68,9.57-20.56,14.35-.29.19-.58.57-1.07.57v-1.15c0-4.4,0-8.8.1-13.2,0-.77-.1-1.15-1.07-1.15-3.78.1-7.57,0-11.35,0-.87,0-1.07.19-1.07,1.05v35.97c0,.76.19.96.97.96h11.45c.87,0,1.07-.29,1.07-1.05v-16.93c.49.29.68.48.87.67,6.79,5.55,13.58,11.1,20.27,16.65.6.49,1.36.76,2.13.77h16.1c-.39-.29-.49-.38-.58-.48-7.47-6.22-14.84-12.24-22.21-18.27h0ZM120.48,35.12c0-1.72.19-1.53-1.55-1.53h-39.29c-1.07,0-1.36-.29-1.36-1.34,0-8.42,0-16.84.1-25.35,0-1.05-.29-1.34-1.36-1.24-3.69.1-7.47.1-11.15,0-1.07,0-1.26.29-1.26,1.24v35.87c0,1.15.39,1.24,1.36,1.24h53.16c.97,0,1.36-.19,1.26-1.24,0-2.49.1-5.07.1-7.65h0Z"/>
    </g>
  </g>
</svg>