<?xml version="1.0" encoding="UTF-8"?>
<svg id="Layer_2" data-name="Layer 2" xmlns="http://www.w3.org/2000/svg" viewBox="0 0 227.45 71.83">
  <defs>
    <style>
      .cls-1 {
        fill: #fff;
        stroke-width: 0px;
      }
    </style>
  </defs>
  <g id="Layer_1-2" data-name="Layer 1">
    <path class="cls-1" d="M133.52,71.83c-.29-.08-.57-.16-.86-.24-3.22-.87-5.12-3.87-4.62-7.26.45-3.02,3.33-5.37,6.56-5.34,3.23.03,6.07,2.46,6.46,5.54.45,3.44-1.82,6.5-5.32,7.19-.09.03-.19.06-.27.11h-1.95ZM128.87,65.4c-.01,3.07,2.48,5.57,5.57,5.59.75,0,1.5-.13,2.2-.41.69-.27,1.33-.68,1.87-1.2.53-.51.96-1.12,1.26-1.8.29-.67.44-1.4.45-2.14.01-3.06-2.53-5.6-5.63-5.63-3.16-.03-5.7,2.45-5.71,5.58h0ZM101.09,71.83s-.03-.04-.04-.04c-2.47-.51-3.6-2.32-3.52-4.75.08-2.61.02-5.22.02-7.87h.88v.61c0,2.57-.03,5.14.01,7.72.04,2.6,2.37,4.16,4.85,3.29,1.39-.49,2.16-1.5,2.21-2.91.07-2.27.03-4.55.04-6.82v-1.88h.89v7.55c0,3.1-.68,4.06-3.62,5.11,0,0-1.71,0-1.71,0ZM79.01,71.83l-3.17-1.17.37-.65c1.16.36,2.21.79,3.3.98.63.11,1.38-.09,2-.32.93-.36,1.46-1.08,1.55-2.09.09-1.05-.29-1.88-1.21-2.41-.59-.34-1.24-.58-1.86-.86-.7-.31-1.44-.55-2.09-.94-1.91-1.14-1.86-3.65.08-4.77,1.08-.62,2.25-.65,3.42-.42.73.14,1.43.4,2.19.62l-.34.68c-.72-.2-1.4-.49-2.11-.55-.76-.07-1.53-.02-2.27.15-.81.21-1.32.83-1.43,1.68-.11.87.3,1.51,1.06,1.91.73.39,1.5.69,2.26,1.02.44.2.9.36,1.33.58,1.46.77,2.1,1.93,1.9,3.46-.18,1.47-1.17,2.54-2.7,2.95-.15.04-.3.1-.45.15h-1.83ZM146.69,71.83c-1.1-.28-2.18-.61-3.13-1.31l.35-.63c.6.28,1.16.58,1.75.81,1.09.43,2.21.52,3.32.07,1-.41,1.61-1.11,1.72-2.18.11-1.1-.34-1.96-1.33-2.47-.85-.44-1.78-.77-2.66-1.16-.49-.2-.95-.43-1.4-.71-1.56-1.07-1.61-3.21-.12-4.37,1.12-.88,2.43-.95,3.76-.71.75.14,1.47.4,2.25.62-.15.3-.24.49-.35.71-.51-.16-1-.4-1.5-.45-.85-.09-1.74-.19-2.58-.06-.92.14-1.55.74-1.71,1.7-.16.96.32,1.61,1.13,2.04.67.36,1.4.63,2.1.93.39.17.79.31,1.17.49,1.67.79,2.3,1.91,2.1,3.68-.16,1.44-1.24,2.51-2.9,2.89-.1.03-.19.06-.28.11h-1.71ZM146.99,5.63h7.17v.77c0,7.1.06,14.2-.02,21.3-.05,3.86,3.64,6.93,6.98,7.1,2.79.14,5.1-.75,6.88-2.87.97-1.15,1.5-2.61,1.47-4.11,0-7.12,0-14.24,0-21.36v-.81h7.1v.69c0,7.2-.07,14.4.02,21.6.09,7.36-5.27,12.16-11.25,13.36-4.78.95-9.27.24-13.21-2.72-3.28-2.46-5.1-5.75-5.14-9.79-.08-7.63-.03-15.27-.03-22.9,0-.08.02-.17.03-.25ZM203.83,29.8l18.99-25.7c.03.28.06.41.06.55,0,3.01,0,6.01,0,9.02,0,.27-.09.54-.24.76-6.27,8.61-12.55,17.22-18.84,25.83-.07.1-.15.18-.27.35l-11.31-15.25v15.9h-6.95V4.12c6.24,8.63,12.38,17.13,18.57,25.68h0ZM36.87,5.64h7.15v28.85h17.17v6.76h-24.32V5.64h0ZM78.68,41.87c-.36-1.18-.68-2.24-1-3.29-.86-2.88-1.72-5.76-2.6-8.64-.1-.32-.24-.63-.41-.92l-12.78-22.73c-.11-.19-.21-.38-.37-.67.94,0,1.8-.03,2.65.02.19,0,.38.27.53.45,4.54,5.07,9.08,10.14,13.61,15.22.16.18.32.36.51.56,1.25-1.44,2.49-2.86,3.72-4.27,3.36-3.87,6.72-7.74,10.08-11.6.21-.21.5-.34.81-.37.76-.05,1.54-.02,2.41-.02-.15.27-.24.47-.37.67-4.29,7.49-8.61,14.97-12.84,22.48-.64,1.14-.93,2.47-1.3,3.74-.85,2.93-1.65,5.87-2.47,8.8-.04.15-.1.29-.2.56h0ZM138.24,41.25h-7.12V5.65h7.12v35.6ZM112.17,27.29l7-10.3.11.05c-.08.19-.17.38-.22.58-.36,1.19-.74,2.37-1.05,3.58-.16.65.1,1.13.75,1.52,3.53,2.14,4.82,5.38,4.57,9.27-.29,4.7-3.71,8.31-8.7,9.32-2.73.57-5.56.52-8.27-.15-.89-.22-1.42-.08-1.97.53-1.32,1.47-2.66,2.93-3.99,4.39-.15.17-.28.36-.51.47l6.41-11.73c1.14.21,2.21.48,3.31.59,1.4.16,2.82-.07,4.1-.66,2.5-1.15,2.95-3.93.93-5.77-.54-.5-1.2-.87-1.81-1.29-.19-.13-.4-.25-.65-.4ZM123.87,0l-1.21,1.64c-2.41,3.28-4.83,6.55-7.22,9.84-.26.37-.52.46-.95.37-1.41-.28-2.83-.28-4.22.15-1.28.39-2.22,1.12-2.51,2.48-.3,1.38.14,2.5,1.23,3.38.5.37,1.01.72,1.55,1.04.37.24.76.45,1.17.69l-7.09,9.93c.2-.77.42-1.38.52-2.02.29-1.79-.11-3.32-1.67-4.54-2.76-2.18-3.55-5.13-3.19-8.46.56-5.18,4.59-8.02,8.93-8.82,2.47-.46,4.93-.27,7.39.17.39.07.65.02.93-.22,1.07-.91,2.17-1.79,3.22-2.73,1.05-.94,2.05-1.9,3.12-2.9ZM28.02,34.46v6.79H3.09v-1.62c0-1.42-.01-2.85.02-4.27,0-.21.14-.51.31-.61,2.2-1.27,4.42-2.51,6.63-3.76.08-.03.15-.05.23-.06v3.52s17.74,0,17.74,0ZM10.3,12.39v3.58c-.16-.05-.32-.12-.47-.19-2.11-1.18-4.22-2.36-6.32-3.57-.19-.11-.41-.37-.41-.56-.03-1.92-.02-3.84-.01-5.75,0-.09.03-.17.06-.25h24.84v6.75H10.3ZM227.45,16.69c-.24.42-.5.84-.71,1.28-1.22,2.43-2.42,4.86-3.62,7.31-.15.34-.22.72-.21,1.09-.01,4.71,0,9.41,0,14.13v.76h-7.17c-.01-.19-.03-.39-.03-.58,0-2.43-.01-4.87.01-7.3,0-.31.1-.61.27-.87,3.68-5.17,7.37-10.32,11.07-15.47.1-.14.2-.26.3-.39l.1.05h0ZM0,31.46c5.24-3.91,5.35-12.09.1-15.89l13.45,7.89L0,31.46ZM110.47,71.69v-12.57c1.98.07,3.98-.25,5.9.41,2.86.99,4.56,3.94,4.05,6.99-.51,3.02-2.99,5.13-6.11,5.17-1.28.01-2.55,0-3.85,0ZM111.36,70.85c.98,0,1.93.03,2.88,0,2.79-.11,4.95-1.94,5.27-4.45.38-2.98-1.05-5.34-3.73-6.15-1.44-.43-2.93-.25-4.42-.27v10.87ZM89.89,59.94h-3.76v-.78h8.36v.79h-3.74v11.71h-.87s0-11.71,0-11.71ZM123.8,59.14h.82v12.52h-.82v-12.52Z"/>
  </g>
</svg>