<?xml version="1.0" encoding="UTF-8"?>
<svg id="Layer_2" data-name="Layer 2" xmlns="http://www.w3.org/2000/svg" viewBox="0 0 209.31 87.52">
  <defs>
    <style>
      .cls-1, .cls-2 {
        fill: #fff;
        stroke-width: 0px;
      }

      .cls-2 {
        fill-rule: evenodd;
      }
    </style>
  </defs>
  <g id="Layer_1-2" data-name="Layer 1">
    <g>
      <path class="cls-1" d="M41.5,34.22c-.2.1-.5.2-.5-.1,0-.1.1-.2.2-.3,1.9-1.7,4.1-3,6.5-4,.3-.1,0,.2-.3.4-.1.1-.2.2-.2.2-1,.8-2.1,1.6-3.2,2.3-.5.3-1.1.6-1.6,1-.4.1-.7.3-.9.5Z"/>
      <path class="cls-1" d="M66.6,39.82c-.1-.1,0-.3.1-.4.1-.1.2-.2.4-.2-.2.2-.4.4-.5.6Z"/>
      <path class="cls-1" d="M82.3,32.52c-.3,0-.7,0-1,.1.9-.6,1.8-1.1,2.8-1.6-.4.4-.8.7-1.2,1-.2.2-.3.4-.6.5Z"/>
      <path class="cls-1" d="M94.1,62.92c-3.5,1.2-7.2,1.8-11,1.8-6.1,0-10.6-1.5-13.7-4.3-1.4-1.3-2.5-3-3.3-4.8-.8-1.8-1.1-3.8-1-5.7,0-4.8,1.7-8.5,5.1-11.3,3.4-2.9,8-4.3,13.6-4.3,3-.1,6,.3,8.9,1.3l-1.2,4.2c-2.6-.9-5.3-1.3-8-1.3-3.2-.1-6.3.9-8.8,2.8-1.2.9-2.1,2.2-2.7,3.5-.6,1.4-.9,2.9-.8,4.3,0,1.5.2,3,.8,4.4.6,1.4,1.5,2.7,2.6,3.7,2.4,2.1,5.6,3.2,8.8,3.1,1.5.1,3.1-.1,4.6-.6l.5-.2v-7.8h-5.5v-4h11.1v15.2Z"/>
      <path class="cls-1" d="M29.3,41.02c.1,0,.3-.1.4-.2.7-.4,2-1.1,2.9-1.8.6-.4,1.4-.9,2.1-1.4.8-.5,1.6-1,1.9-1.3.3-.2.5-.4.8-.6.3-.3.4-.4.4-.5-2.5,1.1-5,2.4-7.4,3.8-.6.3-1.2.7-1.7,1.1-.2.4-.1.5,0,.6l.1.1c.2.2.4.2.5.2Z"/>
      <path class="cls-1" d="M57.8,17.02c-.4.7.3.7.8.3.5-.2,1.1-.7,1.8-1.3.5-.4,1.2-.9,2-1.5.4-.3.8-.6,1.1-.8.5-.4,1.1-.8,2-1.4,0-.1.3-.3.5-.5.3-.2.5-.5.5-.5-2.9,1.6-5.9,3.6-8.7,5.7Z"/>
      <path class="cls-1" d="M36.4,33.82c-.5.1-.7-.2-.3-.6l6-3.5c0,.1-.2.2-.3.3-.1.1-.2.2-.3.3-.5.4-.9.7-1.4,1-.3.2-.7.5-1.1.8-.8.6-1.7,1.2-2.6,1.7Z"/>
      <path class="cls-1" d="M49,22.72c-.3.1-.5-.2-.4-.4.8-.7,1.6-1.3,2.5-1.8.3-.2.6-.4.9-.5.5-.3.9-.5,1.4-.9.7-.5,1.5-.9,2.7-1.5.2-.1.4-.2.7-.3v.2h-.2c-1.2,1-2.5,2-4.2,3.2-.2.2-.4.3-.7.5-.8.5-1.7,1-2.7,1.5Z"/>
      <path class="cls-1" d="M44.9,27.52c-.2.4.2.4.3.4.6-.1,3.2-1.7,5.5-3.5.8-.6,1.6-1.3,2.5-2,1.2-1,2.3-1.9,3.1-2.5.6-.4,1.1-.8,1.6-1.3-2.5,1.4-4.9,3-7.2,4.7-.6.5-1.4,1-2.2,1.5-1.6,1.1-3.1,2.2-3.6,2.7Z"/>
      <path class="cls-2" d="M74,87.52c-.6,0-1.3-.1-1.9-.3-.6-.2-1.1-.6-1.5-1.1-.9-1.1-1.3-2.4-1.3-3.8-.1-1.4.4-2.8,1.3-3.9.4-.5.9-.9,1.5-1.1.6-.3,1.2-.4,1.9-.4.6,0,1.3.1,1.9.3.6.3,1.1.6,1.5,1.1.9,1.1,1.3,2.4,1.3,3.8.1,1.5-.4,2.9-1.4,4-.4.5-.9.8-1.5,1.1-.6.2-1.2.3-1.8.3ZM74,86.42c-.5,0-.9-.1-1.4-.3-.4-.2-.8-.5-1.1-.9-.6-.9-.9-1.9-.8-2.9,0-1.1.3-2.1.8-3,.3-.4.6-.7,1.1-1,.4-.2.9-.3,1.4-.3s1,.1,1.4.3c.4.2.8.6,1.1,1,.6.8.8,1.8.8,2.9.1,1.1-.2,2.1-.8,3-.3.4-.6.7-1.1.9s-.9.3-1.4.3Z"/>
      <path class="cls-2" d="M80.4,87.32v-10.2c.8-.2,1.7-.2,2.5-.2,1.1-.1,2.1.2,3,.8.3.2.5.5.6.9.1.3.2.7.2,1.1,0,.6-.2,1.2-.6,1.7s-.8.8-1.4,1c.4.2.7.4,1,.8s.5.9.6,1.4c.2.8.3,1.5.5,1.9.1.3.2.6.3.9h-1.4c-.1-.3-.2-.6-.3-.8-.1-.6-.3-1.1-.4-1.7-.1-.5-.3-1-.7-1.4-.2-.2-.4-.3-.6-.4s-.5-.1-.7-.1h-1.3v4.5l-1.3-.2ZM81.7,78.12v3.8h1.4c.6,0,1.2-.2,1.7-.5.2-.2.4-.4.5-.6.1-.2.2-.5.2-.8s0-.5-.1-.8c-.1-.3-.3-.5-.5-.6-.5-.3-1.1-.5-1.7-.5h-.8c-.3-.1-.4-.1-.7,0Z"/>
      <path class="cls-1" d="M88.6,77.02h1.3v10.3h-1.3v-10.3Z"/>
      <path class="cls-1" d="M100.1,81.92v5c-1,.4-2.1.5-3.2.6-.7,0-1.5-.1-2.2-.3-.6-.2-1.2-.6-1.7-1-.5-.5-.8-1-1.1-1.6-.3-.7-.4-1.5-.4-2.2s.1-1.4.4-2.1c.3-.7.7-1.2,1.2-1.7s1.2-.9,1.9-1.2c.7-.3,1.4-.4,2.2-.3.5,0,1,0,1.5.1.4.1.7.2,1.1.3l-.3,1.1c-.3-.1-.7-.3-1-.3-.4-.1-.8-.1-1.3-.1-.6,0-1.1.1-1.6.3-.5.2-1,.5-1.4.9-.4.4-.7.9-.9,1.4-.2.5-.3,1.1-.2,1.6-.1,1.1.3,2.2,1.1,3.1.4.4.8.7,1.3.8.5.2,1,.3,1.6.2.4,0,.7,0,1.1-.1.2,0,.5-.1.7-.2v-3.1h-2.1v-1.1h3.3v-.1Z"/>
      <path class="cls-1" d="M102.2,77.02h1.3v10.3h-1.3v-10.3Z"/>
      <path class="cls-1" d="M107.1,87.32h-1.3v-10.3h1.5l3.3,5.2c.3.5.7,1.1,1,1.7.3.6.6,1.1.8,1.6-.1-1.4-.1-2.8-.1-4.2v-4.3h1.3v10.3h-1.3l-3.3-5.2c-.2-.4-.4-.7-.7-1.1-.1-.2-.2-.4-.4-.6-.3-.6-.6-1.1-.8-1.7h-.1c0,.5,0,1.2.1,2.2v6.4Z"/>
      <path class="cls-2" d="M121.2,84.12h-3.6l-1.1,3.2h-1.4l3.5-10.3h1.6l3.5,10.3h-1.4l-1.1-3.2ZM117.8,83.02h3.1l-1-3c-.1-.3-.2-.6-.3-.8-.1-.2-.1-.4-.2-.7,0-.1-.1-.2-.1-.3l-.6,1.9-.9,2.9Z"/>
      <path class="cls-1" d="M125.2,87.32v-10.3h1.3v9.2h4.4v1.1h-5.7Z"/>
      <path class="cls-1" d="M131.9,86.82l.3-1.1c.7.4,1.5.7,2.4.7.6,0,1.1-.1,1.6-.5.2-.2.3-.4.4-.6.1-.2.1-.5.1-.7s0-.4-.1-.6c-.1-.2-.2-.4-.3-.6-.4-.4-.9-.7-1.5-.8-.7-.2-1.4-.6-2-1.1-.2-.2-.4-.5-.6-.8-.1-.3-.2-.6-.2-1s.1-.8.3-1.1.4-.6.7-.9c.7-.6,1.5-.8,2.4-.8.4,0,.9,0,1.3.1.3.1.7.2,1,.4l-.4,1.1c-.3-.2-.6-.3-1-.4-.3-.1-.7-.1-1-.1-.5,0-1.1.1-1.5.5-.1.1-.3.3-.3.5-.1.2-.1.4-.1.6s0,.4.1.6c.1.2.2.4.4.5.5.4,1,.6,1.6.8.8.2,1.4.7,2,1.2.4.5.7,1.2.6,1.8,0,.4,0,.8-.2,1.1-.1.4-.4.7-.7.9-.8.6-1.7,1-2.7.9-.5,0-1-.1-1.5-.2-.3.1-.6-.1-1.1-.4Z"/>
      <path class="cls-1" d="M16.1,34.52v18.6c0,4.1-1,7.2-2.8,9-1.8,1.8-4.6,2.8-8.3,2.8-1.7,0-3.4-.2-5-.6l.7-4.3c1.1.3,2.3.4,3.5.4.8.1,1.7-.1,2.5-.4.8-.3,1.5-.8,2.1-1.4,1.1-1.2,1.6-3.1,1.6-5.8v-18.3h5.7Z"/>
      <path class="cls-2" d="M119.5,59.62v-7.8c.1-1.2-.1-2.4-.5-3.6-.4-1.2-1-2.2-1.8-3.1-1.5-1.6-4.1-2.4-7.5-2.4-2.9-.1-5.8.5-8.4,1.7l.8,3c2-1,4.1-1.5,6.3-1.4.9,0,1.8.1,2.7.4.7.1,1.3.5,1.8,1,.3.3.6.7.7,1.2.2.4.2.8.2,1.2v1.1h-.8c-4.4,0-7.8.7-10.2,2.1-1,.6-1.9,1.4-2.5,2.5-.6,1.1-.9,2.2-.8,3.5,0,.8.1,1.6.5,2.3.3.7.8,1.4,1.4,2,.7.6,1.5,1.1,2.4,1.4.9.3,1.8.5,2.7.4,2.8,0,4.9-.8,6.4-2.5l.3-.3h1.3l.4,2.3h5c-.3-1.8-.4-3.4-.4-5ZM114,56.52c0,.5,0,1-.2,1.5-.3,1-1,1.9-1.9,2.5-.9.7-1.9,1-3,1-1,0-2-.3-2.8-.8-.4-.3-.7-.7-.9-1.2-.2-.5-.3-1-.3-1.4,0-.5.1-1,.3-1.4.2-.4.5-.8.8-1.2,1.2-1.2,3.5-1.8,7-1.8h.8v2.8h.2Z"/>
      <path class="cls-1" d="M161.5,52.12v12.2h-5.5v-11.2c0-5.2-2.5-6.2-4.6-6.2-1,0-2,.3-2.8.9-.7.6-1.3,1.4-1.6,2.3-.2.7-.3,1.4-.3,2.1v12.2h-5.5v-11.5c.1-1.5-.3-3-1.1-4.3-.4-.5-.9-1-1.5-1.3s-1.2-.4-1.9-.4c-1,0-2,.3-2.8.9-.8.6-1.4,1.4-1.7,2.4-.2.7-.3,1.4-.3,2.1v12.1h-5.5v-14.6c0-2,0-4.2-.1-6.6h4.6l.3,3.2h1.4l.2-.4c.7-1.1,1.7-2,2.9-2.6,1.2-.6,2.5-.9,3.8-.8,1.3,0,2.5.3,3.6,1,1,.6,1.8,1.5,2.3,2.6l.2.5h1.1l.2-.4c.8-1.1,1.8-2,2.9-2.7,1.3-.8,2.8-1.1,4.3-1.1,1,0,2,.2,2.9.5.9.4,1.8,1,2.4,1.8,1.4,1.7,2.1,4.1,2.1,7.3Z"/>
      <path class="cls-2" d="M188.5,53.42c0-1.3-.2-2.5-.6-3.8-.4-1.2-.9-2.4-1.7-3.5-.8-1.1-1.9-2-3.1-2.5-1.5-.7-3.1-1-4.8-1-1.8,0-3.6.4-5.2,1.1-1.4.6-2.6,1.6-3.5,2.8-.9,1.1-1.5,2.3-2,3.7-.4,1.2-.7,2.5-.7,3.8-.1,1.5.2,3,.7,4.3.5,1.4,1.4,2.6,2.5,3.6,2.1,2,5.2,3,9,3,2.7,0,5.4-.4,8-1.3l-.7-3.3c-2,.5-4.2.8-6.3.8-1.8,0-3.6-.4-5.2-1.2-.7-.4-1.3-.9-1.8-1.5-.5-.7-.7-1.4-.8-2.2l-.1-.9h16.2c0-.7.1-1.3.1-1.9ZM172.1,51.92l.1-1c.2-1.3.8-2.5,1.6-3.5.5-.6,1.2-1,1.9-1.3.7-.3,1.5-.4,2.3-.4.9,0,1.8.2,2.7.6.7.4,1.3.9,1.7,1.7.3.5.6,1,.7,1.6.1.5.2,1,.2,1.5v.8h-11.2Z"/>
      <path class="cls-1" d="M209.3,58.32c0,.9-.2,1.8-.6,2.7-.4.8-1,1.5-1.8,2.1-1.6,1.3-4.1,1.9-7.3,1.9-2.4,0-4.9-.4-7.1-1.4l.9-3.5c.8.3,1.5.6,2.3.8,1.2.4,2.5.6,3.8.6,3.4,0,4.2-1.5,4.2-2.7,0-.4-.1-.8-.3-1.2s-.5-.7-.8-.9c-1-.6-2-1-3.1-1.2-1.9-.4-3.6-1.3-5-2.6-.5-.5-.8-1-1.1-1.6-.2-.6-.4-1.2-.4-1.9,0-.9.2-1.8.6-2.7.4-.8,1-1.6,1.8-2.1,1.9-1.4,4.3-2.1,6.7-2,2,0,4.1.3,6,1l-.8,3.3c-1.6-.7-3.3-1-5-1-3.2,0-3.7,1.7-3.7,2.7,0,.4.1.9.4,1.2.2.4.6.7,1,.9,1.1.5,2.2,1,3.4,1.2,1.8.4,3.3,1.3,4.7,2.5.8,1.1,1.3,2.5,1.2,3.9Z"/>
      <path class="cls-2" d="M58.7,41.52c.2-.1.4-.2.5-.3.5-.3,1.1-.7,1.7-1.2.4-.3.9-.7,1.6-1.2,0-.1.1-.2.2-.3.1-.1.2-.3.2-.3-1.8,1-3.8,2.2-5.8,3.3h1.6Z"/>
      <path class="cls-2" d="M43.2,46.62c.1.2.2.4.3.6.3-.2.7-.4,1-.6v-.7c-.3.1-.5.3-.8.4-.2.1-.3.2-.5.3Z"/>
      <path class="cls-2" d="M42.7,45.72c.5-.4,1-.7,1-.8-.4.2-.7.4-1.1.6,0,.1,0,.2.1.2Z"/>
      <path class="cls-2" d="M61.8,41.52c.7-.4,1.3-.9,2-1.4.8-.5,1.2-.9,1.5-1.2.4-.3.7-.5,1.1-.8,0-.1.5-.5,1-.9.6-.5,1.1-.9,1.1-1-2.6,1.4-6.2,3.5-9,5.3h2.3Z"/>
      <path class="cls-2" d="M36.5,41.32c.5-.3,1-.7,1.5-1,1.4-.9,2.7-1.8,3.9-2.8.8-.6,1.6-1.2,2.5-1.8,0,0,.4-.3.7-.6.5-.4,1-.8,1-.9-1,.3-2.3,1.2-3.5,2-.8.5-1.5,1-2.1,1.3-1.7.9-3.3,1.9-5,3-.2.2-.5.3-.7.5.6.1,1.1.2,1.7.3Z"/>
      <path class="cls-2" d="M46.2,47.12h3.1v9.7c0,2.9.6,5,1.7,6.3.7.7,1.5,1.2,2.3,1.5.9.3,1.8.5,2.7.4,1.4,0,2.7-.1,4-.5v-4c-.5.1-1,.1-1.5.1-.6.1-1.2,0-1.7-.3-.5-.2-1-.6-1.3-1.1-.6-1.2-.8-2.5-.7-3.7v-8.4h5.3v-3.9h-5.3v-6l-5.5,1.4v4.5h-3.1v4Z"/>
      <path class="cls-2" d="M99.3,15.92l.4-2.7c-.1,0-.1-.1-.2-.1l-.1-.1v.1c.1-1.6-.2-3.2-.8-4.7-.8-2.1-2.2-3.9-4-5.1-.2-.1-.3-.3-.5-.5-.3-.3-.5-.6-.9-.7-.1-.1-.2,0-.3,0s-.2.1-.4,0c-.1,0-.2-.1-.4-.1v-.1c0-.3,0-.4-.1-.6-.2-.2-.5-.2-.9-.2-.3,0-.7,0-.9-.2l.1-.3c-.6-.4-5.6-.7-6.1-.6l-.6.6-1.5-.1c-.3.6-1.9,1.5-3.1,2.1-.5.3-1,.5-1.2.7h-.2v.2c.2.1.3.2.4.4h.2v.2c-1.1.1-2.1.6-3.1,1.1-.4.3-.6.8-.8,1.2-.3.6-.6,1.1-1.2,1.4v.3c.4.2.8.4,1.3.5-.3,1-1.4,1.2-2.5,1.1l-.1.1c-.3-.2-.6,0-.9.1-.2.1-.3.2-.5.2l-.7-.1v.6l-.3-.1c-.2.1-.3.3-.3.4-.1.1-.1.3-.5.4-.1,1-.1,2.1,0,3.1-.5.3-1,.4-1.6.5-.9.2-1.8.4-2.3,1.3l-.5-.1c-.2,1-.7,1.9-1.4,2.6v.2h.2c-.8.2-1.6.6-2.4,1.1q-.2.2-.1.3v.3c-2.4.8-4.9,2.2-5.7,5.1h.2q.2,0,.3-.1h.2c-.6,2.2-4.5,6.4-6.2,7.3l-.1.5c.3,0,.5,0,.8-.1.2-.1.5-.2.7-.4l.3.1c-.5.8-1,1.1-1.5,1.5-.3.2-.6.4-.9.7-.2.2-.2.3-.3.5-.1.2-.2.4-.4.6-.1.1-.2.1-.3.1s-.3,0-.4.1l-.3.6-1.5,1-.6.6c-.7.7-1.3,1.4-2.3,1.7v.4c0,.1.1.3.2.4-.2.1-.4.2-.6.3-.3.2-.7.4-1,.6q-.1.1-.2.1c-.1,0-.1.1-.2.1h-.3c-.1,0-.1.1-.2.1,0,.1-.1.1-.1.2-.1,0-.1.1-.1.2h-.1c.3.2.6.4.9.7.1,0,.1-.1.2-.1l.3.1c-.1.1-.2.2-.3.3.2.2.4.4.6.6.5-.2.9-.4,1.2-.5l.5.1,1.1-.5v-2h3.1v-4.1l8.9-2.4v3.8c.3-.1.5-.2.8-.3l.1-.5h.1q.4,0,.7-.2h.2c-.5.8-1.2,1.4-1.9,1.9v.4c1.5-.5,4.7-2.1,5.1-2.6.2-.3.3-.6.5-1,.3-.7.5-1.3,1.2-1.5.2-.3.5-.3.8-.4.2-.1.5-.1.6-.2l1.7.2c-.3.3-.7.6-1.2.8h.2c.4.3,1.6-.2,2.1-.4h.2c.4-.2.8-.3,1.3-.4s1-.2,1.4-.4l.8-.7.5.1c.3-.1.6-.5,1-.8.3-.3.6-.5.8-.7v-.2h.2v.2q-.1.3-.2.5l-.1.5.3.1c.2-.4.5-.7.8-.9.2-.2.4-.4.6-.6v-.2h.1l.1-.1c.4-.2.7-.8,1-1.5.2-.4.4-.8.6-1,.4-.5,1.1-.6,1.8-.7.5-.1,1-.1,1.4-.4l2.7.4c-.3.6-.5.8-1.2,1v.4c.4,0,.6-.1.7-.2.1-.1.2-.1.3-.2l1.5-.1c.1,0,.2-.1.3-.2.2-.1.3-.2.4-.2l1.2.2.1-.3,1.6-.3c.1,0,.2-.2.2-.3.1-.1.1-.2.2-.3l.7.1c.1,0,.5-.6,1-1.2.4-.5.7-1,.9-1.1.2-.2.4-.2.6-.1.2,0,.4.1.6,0,.1-.1.2-.3.3-.5s.2-.5.4-.6v-.1q.1,0,.2-.1c.4-.2.7-.5,1-.8.4-.5.8-.9,1.5-1l.1-.9c.5,0,.7-.1.9-.2.2-.1.4-.2,1-.2.1-.3.4-.8.7-1.4.9-1.3,1.9-2.9,1.4-3.7Z"/>
      <path class="cls-2" d="M33,42.62c-1.8,0-3.6.4-5.2,1.1-1.4.6-2.6,1.6-3.6,2.8-.9,1.1-1.5,2.3-2,3.7-.4,1.2-.6,2.5-.6,3.8-.1,1.5.2,3,.7,4.3.5,1.4,1.4,2.6,2.5,3.6,2.1,2,5.2,2.9,9,2.9,2.7,0,5.4-.4,8-1.3l-.7-3.3c-2.1.5-4.2.8-6.3.7-1.8,0-3.6-.4-5.2-1.2-.7-.4-1.3-.9-1.8-1.5-.5-.7-.7-1.4-.8-2.2l-.1-.9h16.2c.1-.6.1-1.2.1-1.8,0-1.3-.2-2.5-.6-3.8-.4-1.3-.9-2.4-1.7-3.5-.8-1.1-1.9-2-3.1-2.5-1.5-.6-3.2-.9-4.8-.9ZM37.9,51.92h-11.2l.1-1c.2-1.3.8-2.5,1.7-3.5.5-.6,1.2-1,1.9-1.3s1.5-.4,2.3-.4c.9,0,1.8.2,2.6.6.7.3,1.3.9,1.7,1.6.3.5.5,1,.7,1.6.1.5.2,1,.2,1.5v.9Z"/>
      <path class="cls-2" d="M31.2,48.92c.1-.1.2-.2.3-.2.2-.1.3-.3.3-.4-1,.5-2,1-2.8,1.4-.1.2-.2.3-.3.5h.4c.1-.1.3-.2.4-.3.6-.4,1.2-.7,1.7-1Z"/>
      <path class="cls-2" d="M34.4,50.02c.1.1,0,.1,0,0,.5-.1,1-.3,1.4-.5-.1-.2-.2-.4-.3-.6-.3.2-.6.3-.8.4-.7.6-.5.7-.3.7Z"/>
    </g>
  </g>
</svg>