<?xml version="1.0" encoding="UTF-8"?>
<svg id="Layer_2" data-name="Layer 2" xmlns="http://www.w3.org/2000/svg" viewBox="0 0 225.99 25.91">
  <defs>
    <style>
      .cls-1 {
        fill: #fff;
        stroke-width: 0px;
      }
    </style>
  </defs>
  <g id="Layer_1-2" data-name="Layer 1">
    <path class="cls-1" d="M22.91,25.43L.4,2.37C.01,1.97-.11,1.38.1.86c.1-.25.28-.47.5-.62C.83.08,1.09,0,1.36,0h22.51c.36,0,.7.15.96.41s.4.61.4.98v23.05c0,.27-.09.54-.24.76-.15.23-.36.4-.61.51-.5.22-1.09.1-1.48-.29M27.98,24.44V1.44c-.01-.37.13-.74.38-1.01C28.62.16,28.97,0,29.33,0h22.5c.27,0,.54.07.76.23.23.15.4.37.51.63.21.52.09,1.12-.31,1.53l-22.51,23.06c-.38.39-.97.51-1.47.29-.25-.11-.46-.28-.61-.51-.15-.23-.23-.49-.23-.77M55.55,24.44V1.44c0-.37.13-.74.39-1.01.25-.27.61-.42.97-.43h22.5c.27,0,.54.07.76.23.23.15.4.37.51.63.21.52.09,1.12-.31,1.53l-22.51,23.06c-.39.39-.97.5-1.48.29-.25-.11-.46-.28-.61-.51-.15-.23-.23-.49-.24-.76M111.67,0v15.89l-5.42-11.24h-3.11l-5.5,11.37V0h-4.89v25.83h4.85l7.04-14.06,7.08,14.06h4.81V0h-4.85ZM130.11,7.43l2.87,9.09h-5.73l2.85-9.09ZM127.66,0l-8.79,25.79h5.46l1.54-4.88h8.43l1.54,4.88h5.46L132.51,0h-4.85ZM142.3,0v4.47h10.27l-10.27,17.91v3.45h17.04v-4.43h-10.53l10.18-17.95V0h-16.69ZM176.21,14.6v-3.36c0-4.43-1.18-6.76-4.58-6.76h-3.87v16.93h3.85c3.41,0,4.58-2.33,4.58-6.8h.02ZM162.65,25.83V0h8.96c5.72,0,9.7,3,9.7,11.24v3.43c0,8.19-3.98,11.23-9.7,11.23h-8.96v-.07ZM193.39,7.43l2.84,9.09h-5.73l2.88-9.09h0ZM190.95,0l-8.79,25.79h5.46l1.54-4.88h8.43l1.54,4.88h5.47L195.84,0h-4.89ZM221.14,0v16.2L211.26,0h-4.24v25.83h4.85v-15.98l9.83,15.98h4.29V0h-4.85Z"/>
  </g>
</svg>