<?xml version="1.0" encoding="UTF-8"?>
<svg id="Layer_2" data-name="Layer 2" xmlns="http://www.w3.org/2000/svg" viewBox="0 0 225.87 35.96">
  <defs>
    <style>
      .cls-1 {
        fill: #fff;
        stroke-width: 0px;
      }
    </style>
  </defs>
  <g id="Layer_1-2" data-name="Layer 1">
    <g>
      <path class="cls-1" d="M110.92,23.02c-.2.08-.39.14-.56.22-1,.39-2.54.65-3.6.79-2.88.39-6.03-.7-6.62-3.79-.06-.31-.08-.62-.08-.95h11.95v-4.24c-.06-1.12-.22-2.22-.64-3.26-1.65-4.24-7.31-4.77-11-3.42-4.36,1.54-5.64,6.26-5.33,10.64,0,.14,0,.25.03.36,0,.17.03.36.06.53.03.31.08.62.14.9.67,4.41,4.63,7.52,9.02,7.44,2.18.06,4.58-.25,6.7-.95v-4.27h-.06ZM102.49,12.04c3.07-1.12,5.22.79,4.83,4.04h-7.18c.17-1.63.75-3.37,2.35-4.04Z"/>
      <path class="cls-1" d="M91.1,10.11c-2.32-3.12-7.71-3.23-10.3-.36h-.17V0l-5.05,1.38v25.52c5.67,2.27,14.66,2.36,16.72-4.77,1.06-3.59,1.03-8.95-1.2-12.01ZM86.66,22.4c-1.01,1.54-2.99,1.66-4.66,1.4-.47-.08-.92-.22-1.34-.45v-8c.42-1.18,1.12-2.25,2.35-2.64,1.28-.39,3.13-.17,3.85.95,1.28,1.82,1.2,6.68-.2,8.73Z"/>
      <path class="cls-1" d="M123.12,23.21c-2.99.9-3.74-.25-3.71-3.28v-7.89h3.71v-4.29h-3.71V1.38c-1.26.34-3.8,1.04-5.05,1.38v19.54c-.25,5.81,4.38,6.76,8.77,5.42v-4.49Z"/>
      <path class="cls-1" d="M190.88,21.92v6.32h-5.08v-5.95c-.11-2.22.33-6.96-.48-8.95-.5-1.26-2.23-1.32-3.38-.95-1.14.39-1.79,1.46-2.12,2.58v13.28h-5.05v-5.75c-.11-2.36.33-7.05-.5-9.15-.5-1.24-2.18-1.32-3.29-.95-1.09.36-1.79,1.35-2.21,2.41v13.47h-5.05V8.98l4.72-1.26v3.06c2.29-3.73,9.21-4.63,10.72.25,1.4-2.61,4.38-3.76,7.2-3.23,2.32.17,3.82,1.96,4.22,4.21.53,2.41.25,7.33.31,9.91Z"/>
      <path class="cls-1" d="M168.41,7.69l-4.72,1.26,4.72-1.26Z"/>
      <path class="cls-1" d="M138.39,7.78c-.08,0-.17-.03-.28-.03-.64-.08-1.29-.08-1.93-.08-4.16.06-8.15,1.68-9.41,6.12-.5,1.68-.75,3.79-.64,5.84,0,.14.03.31.03.45,0,.2.03.39.06.59.03.22.06.45.08.65.22,1.35.59,2.61,1.2,3.68,0,.03.03.03.03.06.14.25.28.51.45.73,1.73,2.33,5.17,2.98,7.85,1.96.06,0,.11-.03.17-.06.87-.34,1.65-.87,2.26-1.54h.17v2.47c-.14.81-.42,1.49-.84,1.99-.64.76-1.84,1.15-3.6,1.15-1.17,0-2.15-.11-2.93-.34-.78-.22-1.48-.48-2.07-.7v4.46c.39.14.84.25,1.37.39,1.09.28,2.57.39,4.41.39,2.76,0,4.89-.67,6.42-2.02.22-.2.45-.42.64-.67,1.09-1.32,1.65-3.2,1.65-5.61V8.98c-1.54-.56-3.27-1.01-5.08-1.21ZM138.42,21.02v.03c-.42,1.18-1.12,2.22-2.35,2.61-1.31.39-3.13.17-3.85-.95-1.26-1.82-1.2-6.71.19-8.73.95-1.46,2.76-1.63,4.36-1.43.11.03.22.03.34.06.11.03.22.06.31.06.36.08.67.2.98.36v8h.03Z"/>
      <path class="cls-1" d="M221.42,16.22c-1.65-.7-6.06-1.6-3.88-4.04,1.96-1.12,4.86.06,6.84.79v-4.18c-3.96-1.54-10.11-2.11-12.03,2.3-.95,2.41-.42,5.7,1.87,7.21,1.73,1.35,4.13,1.54,5.92,2.78.45.31.67.73.67,1.24-.2,3.54-6.45,1.26-8.21.2v4.52c2.74,1.24,6.25,1.54,9.02.76,5.81-1.66,5.58-9.99-.19-11.56Z"/>
      <path class="cls-1" d="M209.11,23.02c-.19.08-.39.14-.56.22-1,.39-2.54.65-3.6.79-2.88.39-6.03-.7-6.62-3.79-.06-.31-.08-.62-.08-.95h11.95v-4.24c-.06-1.12-.22-2.22-.64-3.26-1.65-4.24-7.32-4.77-11-3.42-4.35,1.54-5.64,6.26-5.33,10.64,0,.14,0,.25.03.36,0,.17.03.36.06.53.03.31.08.62.14.9.67,4.41,4.63,7.52,9.02,7.44,2.18.06,4.58-.25,6.7-.95v-4.27h-.06ZM200.68,12.04c3.07-1.12,5.22.79,4.83,4.04h-7.18c.17-1.63.73-3.37,2.35-4.04Z"/>
      <path class="cls-1" d="M160.67,15.49c-.06-1.71-.11-3.09-.25-3.71-.42-1.88-1.62-3-3.18-3.59-3.07-1.15-7.59-.31-10.58.67v4.32c2.01-.87,7.18-2.25,8.74-.28.03.03.03.06.06.08.39.73.42,1.57.33,2.47-.98.03-2.48.14-4.02.51-.5.11-.98.25-1.4.42-4.02,1.43-4.8,4.21-4.88,5.84-.14,2.67,1.14,4.74,3.38,5.59.61.22,1.28.37,1.98.39h.31c1.62,0,3.35-.51,4.91-1.43v1.43h4.55s.06-2.58.08-5.75c0-2.27,0-4.88-.03-6.96ZM155.95,21.53c-.67,1.18-1.56,2.16-2.96,2.22-1.26.17-3.04-.53-2.93-2.33.14-2.05,4.1-2.08,5.89-1.99v2.11Z"/>
      <path class="cls-1" d="M44.81,15.27c0,7.38-5.95,13.36-13.29,13.36s-13.29-5.98-13.29-13.36S24.18,1.91,31.53,1.91s13.29,5.98,13.29,13.36ZM31.53,9.32c-3.27,0-5.89,2.67-5.89,5.92s2.65,5.92,5.89,5.92,5.89-2.67,5.89-5.92-2.62-5.92-5.89-5.92Z"/>
      <path class="cls-1" d="M12.96,27.48c-1.81.81-3.94,0-4.75-1.82L.31,7.83c-.81-1.82,0-3.96,1.81-4.77,1.81-.81,3.94,0,4.75,1.82l7.9,17.82c.81,1.82,0,3.96-1.81,4.77Z"/>
      <path class="cls-1" d="M60.9,27.48c-1.81.81-3.94,0-4.75-1.82l-7.9-17.82c-.81-1.82,0-3.96,1.81-4.77,1.81-.81,3.94,0,4.75,1.82l7.9,17.82c.81,1.82,0,3.96-1.81,4.77Z"/>
    </g>
  </g>
</svg>