<?xml version="1.0" encoding="UTF-8"?>
<svg id="Layer_2" data-name="Layer 2" xmlns="http://www.w3.org/2000/svg" viewBox="0 0 220 43">
  <defs>
    <style>
      .cls-1 {
        fill: #fff;
        fill-rule: evenodd;
        stroke-width: 0px;
      }
    </style>
  </defs>
  <g id="Layer_1-2" data-name="Layer 1">
    <path class="cls-1" d="M66.91.08c-1.81.25-3.82.96-5.3,1.86-1.34.82-2.88,2.19-3.77,3.36-2.65,3.47-3.49,7.79-2.34,11.97.61,2.2,1.73,4.14,3.36,5.8,2.18,2.24,4.83,3.58,7.99,4.06.95.14,2.89.14,3.85,0,.83-.13,2.07-.44,2.77-.69.8-.29,2.14-.96,2.83-1.42,4.83-3.18,7.13-8.85,5.87-14.43-.55-2.41-1.78-4.66-3.55-6.47-2.03-2.08-4.54-3.4-7.5-3.95-.91-.17-3.25-.21-4.22-.08ZM95.47.65c-3.55.34-6.72,2.24-8.7,5.22-1.34,2.01-2.02,4.63-1.85,7.09.39,5.46,4.55,9.88,10.01,10.65.5.07,1.75.09,6.95.09h6.34s-.01-6.31-.01-6.31v-6.31s-5.84-.02-5.84-.02l-5.83-.02v4.12h7.47v4.42l-4.29-.02c-4.11-.02-4.31-.03-4.8-.15-3.05-.74-5.26-3.09-5.76-6.1-.14-.82-.08-2.1.12-2.9.69-2.72,2.72-4.73,5.54-5.48.48-.13.57-.13,6.93-.16l6.44-.03V.61h-6.11c-3.36-.01-6.34,0-6.61.03ZM162.59.62s-.04,5.22-.04,11.55v11.51h4.22v-11.54s-.03-11.54-.03-11.54l-2.05-.02c-1.13,0-2.07,0-2.09.02ZM189.15,7.92l-.02,7.34-9.36-7.16c-5.15-3.94-9.44-7.21-9.53-7.28l-.17-.12v22.99h4.15v-7.28s.03-7.28.03-7.28l9.53,7.28c5.24,4,9.54,7.28,9.56,7.28s.03-5.2.03-11.55V.58h-4.21v7.34ZM207.24.65c-3.69.35-7,2.42-8.92,5.58-1.19,1.96-1.76,4.28-1.62,6.69.28,4.93,3.89,9.23,8.75,10.44q1.35.34,8.21.34h6.33v-6.31s-.03-6.31-.03-6.31l-5.83-.02-5.83-.02v4.12h7.47v4.42l-4.29-.02c-4.11-.02-4.31-.03-4.8-.15-4.39-1.07-6.86-5.44-5.44-9.63.38-1.14,1-2.1,1.9-2.96.97-.92,2.07-1.53,3.45-1.89.48-.13.57-.13,6.93-.16l6.44-.03V.61h-6.11c-3.36-.01-6.34,0-6.61.03ZM117.56,9.37c-2.47,4.8-5.13,9.99-5.92,11.52l-1.43,2.79h4.69l1.15-2.22c.63-1.22,2.24-4.35,3.57-6.95,1.33-2.6,2.44-4.73,2.46-4.73.02,0,1.15,2.18,2.52,4.85,1.37,2.67,2.98,5.8,3.58,6.96l1.09,2.1h2.33c1.29,0,2.34-.01,2.34-.03s-.1-.22-.23-.46c-.13-.24-2.79-5.41-5.91-11.5-3.12-6.08-5.7-11.06-5.72-11.06-.02,0-2.05,3.93-4.52,8.73ZM135.93,12.16v11.52h4.22l.02-7.32v-7.32s.44.32.44.32c.23.18,1.91,1.46,3.72,2.84l3.3,2.52,3.72-2.84,3.72-2.84v7.32s.03,7.32.03,7.32h4.21v-11.52c0-6.34-.02-11.52-.05-11.52s-2.65,1.99-5.83,4.42c-3.18,2.43-5.79,4.42-5.81,4.42-.02,0-2.63-1.99-5.81-4.42-3.18-2.43-5.8-4.42-5.83-4.42s-.05,5.19-.05,11.52ZM1.46,5.47c5.11,9.97,10.38,20.19,10.41,20.19.03,0,10.69-20.71,11.62-22.55l.25-.49h-4.67l-1.03,1.99c-.56,1.09-2.17,4.22-3.58,6.96-1.4,2.73-2.57,4.97-2.58,4.97-.02,0-1.07-2.02-2.34-4.49-1.27-2.47-2.88-5.6-3.57-6.95l-1.27-2.46H0l1.46,2.85ZM25.74,14.15l.02,11.54h4.16l.02-11.54.02-11.54h-4.22l.02,11.54ZM32.92,4.54c3.39,6.65,10.84,21.08,10.89,21.07.05,0,2.56-4.86,9.8-18.95,1.12-2.19,2.04-4,2.04-4.02s-1.05-.03-2.33-.03h-2.33s-.71,1.39-.71,1.39c-1.39,2.71-6.38,12.43-6.42,12.51-.02.04-1.5-2.77-3.37-6.4-1.83-3.56-3.45-6.71-3.6-6.99l-.27-.51h-4.67l.98,1.93ZM73.94,5.39c2.36.98,4.29,1.8,4.29,1.82,0,.04-9.32,5.33-9.44,5.36-.08.02-9.56-5.38-9.48-5.41.02,0,2.16-.9,4.74-1.97l4.7-1.96.45.19c.25.1,2.38.99,4.74,1.97ZM68.12,6.2c-.43.08-.98.32-1.19.54-.13.13-.17.23-.17.42,0,.21.03.27.26.48.56.49,1.81.66,2.77.36.56-.17.96-.53.96-.85,0-.3-.42-.67-.94-.83-.47-.14-1.25-.2-1.71-.12ZM63.66,10.72c2.5,1.43,4.58,2.63,4.62,2.67.06.05.07,1.2.06,5.48l-.02,5.41-4.73-2.71-4.73-2.71-.02-5.44-.02-5.44.14.07c.07.04,2.18,1.24,4.68,2.67ZM78.72,13.43v5.39s-4.7,2.69-4.7,2.69c-2.58,1.48-4.72,2.7-4.76,2.71-.04.01-.06-1.88-.06-5.4v-5.42s4.71-2.67,4.71-2.67c2.59-1.47,4.73-2.67,4.76-2.67s.05,2.42.05,5.39ZM76.4,10.58c-.14.05-.36.22-.55.41-.83.88-.8,2.36.05,2.36.6,0,1.34-.93,1.42-1.79.07-.77-.33-1.2-.92-.99ZM71.9,12.91c-.66.22-1.19,1.06-1.19,1.88,0,.62.26.94.73.88.67-.09,1.32-1.02,1.33-1.89,0-.37-.1-.71-.26-.81-.17-.1-.41-.13-.61-.06ZM64.82,13.35c-.19.19-.27.55-.19.94.23,1.23,1.37,2.22,1.92,1.68.15-.15.16-.2.16-.62,0-.73-.37-1.45-.96-1.9-.3-.22-.75-.27-.92-.1ZM62.67,14.61c-.28.12-.36.29-.36.77,0,.71.35,1.4.94,1.88.3.24.74.29.93.11.41-.39.26-1.34-.35-2.13-.35-.45-.89-.74-1.17-.62ZM74.04,14.7c-1.05.53-1.44,2.47-.54,2.69.26.06.6-.08.89-.36.66-.66.9-1.78.47-2.24-.23-.25-.46-.27-.83-.09ZM60.31,15.99c-.62.25-.4,1.61.39,2.42.88.89,1.67.37,1.3-.87-.14-.47-.3-.75-.62-1.09-.27-.28-.66-.52-.85-.51-.05,0-.15.03-.22.06ZM76.15,16.55c-.84.5-1.25,2.03-.67,2.51.73.61,2-.86,1.78-2.06-.1-.57-.58-.76-1.11-.45ZM71.66,18.85c-.69.36-1.19,1.57-.93,2.24.12.32.29.45.56.45.66,0,1.36-.88,1.44-1.8.07-.82-.42-1.23-1.08-.89ZM129.35,34.5c-1,.23-1.54,1.22-1.37,2.47.12.81.37,1.19,1.54,2.33.87.85.99,1.06.99,1.7,0,.4-.01.45-.18.61-.14.14-.23.17-.42.17-.53,0-.68-.19-.72-.88l-.03-.49h-1.26l.03.62c.02.55.05.67.22,1.02.34.68.87.96,1.81.95.61,0,1.05-.17,1.4-.53.42-.43.63-1.38.47-2.13-.14-.68-.38-1.02-1.3-1.93-1.01-.99-1.18-1.25-1.22-1.81-.05-.64.15-.9.66-.9.43,0,.59.21.59.77v.36h1.34l-.04-.43c-.07-.81-.31-1.32-.77-1.62-.44-.29-1.19-.4-1.76-.27ZM159.41,34.53c-.65.18-1.05.6-1.23,1.31-.18.69-.08,1.45.25,2.09.1.19.48.61,1.01,1.14.93.91,1.16,1.24,1.21,1.69.08.66-.14,1.03-.62,1.03-.51,0-.68-.22-.68-.92v-.45h-1.32v.25c0,1.56.68,2.34,2.02,2.34,1.15,0,1.79-.56,1.95-1.68.11-.78-.1-1.57-.58-2.17-.12-.15-.55-.6-.95-.99-.86-.84-.99-1.06-.99-1.66s.15-.81.59-.81c.14,0,.31.03.38.06.18.1.3.38.3.74v.33h1.26v-.38c0-.85-.4-1.56-1.03-1.83-.41-.17-1.1-.21-1.56-.09ZM57.28,38.73v4.18h3.55v-1.19h-2.17v-7.16h-1.39v4.18ZM64.99,38.73v4.18h1.39v-8.36h-1.39v4.18ZM70.57,34.69c.01.07.29,1.88.62,4.02.33,2.13.62,3.95.64,4.04l.03.16h1.97l.04-.21c.02-.12.32-1.99.65-4.16l.61-3.95-.6-.02c-.33,0-.61,0-.62,0-.02.02-.99,6.52-.99,6.63,0,.28-.12-.43-.51-3.13-.25-1.72-.47-3.22-.49-3.33l-.03-.19h-.68c-.67,0-.68,0-.65.13ZM79.32,38.73v4.18h3.67v-1.19h-2.29v-2.45h1.81v-1.19h-1.81v-2.33h2.29v-1.19h-3.67v4.18ZM93.89,34.57s-.31,1.88-.68,4.17l-.68,4.15.6.02c.33,0,.61,0,.62,0,.01-.01.07-.34.13-.73l.11-.71h1.62l.11.71c.06.39.12.72.13.73.01.01.32.01.68,0l.66-.02-.67-4.15-.67-4.15-.98-.02c-.54,0-.98,0-.98,0ZM100.52,35.15v.6h1.39v7.16h1.39v-7.16h1.39v-1.19h-4.16v.6ZM114.31,38.73v4.18h1.39v-8.36h-1.39v4.18ZM119.85,35.15v.6h1.39v7.16h1.32v-7.16h1.39v-1.19h-4.1v.6ZM141.71,38.74v4.18l1.4-.02c1.31-.02,1.42-.03,1.7-.16.17-.08.38-.21.47-.3.42-.4.63-1.2.56-2.2-.06-.81-.17-1.13-.52-1.47-.16-.16-.34-.28-.39-.28s.02-.08.16-.19c.14-.11.33-.33.41-.49.14-.26.16-.38.18-1.06.03-.97-.07-1.32-.47-1.72-.42-.41-.71-.47-2.25-.47h-1.24v4.18ZM150.2,38.73v4.18h3.67v-1.19h-2.29v-2.45h1.81v-1.19h-1.81v-2.33h2.29v-1.19h-3.67v4.18ZM165.98,35.15v.6h1.39v7.16h1.38v-7.16h1.38v-1.19h-4.15v.6ZM144,35.82c.25.12.36.43.36.98s-.11.9-.31,1.03c-.07.05-.32.1-.54.11l-.41.03v-2.23h.38c.21,0,.44.04.53.08ZM95.09,38.08c.14.97.27,1.85.29,1.96l.03.19h-.61c-.45,0-.61-.02-.61-.07,0-.24.57-3.92.6-3.88.02.02.15.84.3,1.81ZM144.15,39.27c.25.15.29.3.32,1.07.04,1.21-.08,1.38-.95,1.38h-.42v-2.58l.47.03c.26.01.52.06.59.11Z"/>
  </g>
</svg>