<?xml version="1.0" encoding="UTF-8"?>
<svg id="Layer_2" data-name="Layer 2" xmlns="http://www.w3.org/2000/svg" viewBox="0 0 226 49.04">
  <defs>
    <style>
      .cls-1 {
        fill: #fff;
        stroke-width: 0px;
      }
    </style>
  </defs>
  <g id="Layer_1-2" data-name="Layer 1">
    <g>
      <path class="cls-1" d="M0,21.59c.32-1.39.64-2.83,1.01-4.22,1.65-5.9,5.71-9.92,10.58-13.27,2.01-1.35,4.22-2.43,6.31-3.58-.19-.18-.39-.36-.6-.52-1.77,2.19-3.58,4.38-5.27,6.61-3.18,4.1-4.62,8.69-3.14,13.78.85,2.99,2.37,5.46,5.43,6.97,3.82,1.87,5.19,5.14,3.9,8.09-1.37,3.19-5.43,4.74-9.25,3.47-5.11-1.75-7.48-5.66-8.53-10.64-.12-.64-.32-1.28-.44-1.91,0,0,0-4.78,0-4.78ZM226,16.05c-.12.28-.28.6-.36.88-.96,4.74-2.9,6.53-7.76,6.65-4.83.12-9.61.04-14.56.04V1.95c5.23,0,10.29-.24,15.36.08,4.5.28,6.07,2.03,6.92,6.33.08.44.24.88.4,1.31v6.37h0ZM206.38,20.91c4.3,0,8.45.08,12.59-.04,2.13-.08,3.54-1.47,3.66-3.54.2-3.08.2-6.16,0-9.24-.12-2.11-1.61-3.43-3.7-3.51-4.14-.12-8.24-.04-12.51-.04-.04,5.46-.04,10.92-.04,16.37h0ZM60.72,49c-4.95-1.51-5.19-1.87-5.35-7.21v-2.19c.12-5.22,1.29-6.41,6.51-6.61,2.01-.08,4.02-.04,6.03.12,2.93.24,3.74,1.24,3.7,4.34-1.01.36-1.73.48-2.13-1-.16-.68-1.21-1.51-1.93-1.59-2.45-.2-4.95-.16-7.4-.08-1.61.08-2.57,1.04-2.61,2.67-.04,2.23-.08,4.5,0,6.73.04,1.63,1.01,2.59,2.61,2.67,1.93.12,3.86.2,5.83.16,3.3-.08,3.94-.88,3.38-4.38-1.61,0-3.3.04-4.95-.04-.4-.04-.76-.56-1.17-.88.36-.28.72-.76,1.09-.76,2.41-.08,4.79-.04,7.16-.04,1.29,4.46,0,6.77-4.34,8.01-2.13.08-4.3.08-6.44.08h0ZM73.59,49v-15.58c4.14,0,8.25-.16,12.35.08,2.01.12,2.78,1.83,2.9,3.7.16,2.51-.4,3.55-2.49,4.46,3.5,1.67,1.85,4.78,2.13,7.33h-2.01c-.08-1.32-.2-2.63-.24-3.94-.04-1.39-.72-2.35-2.13-2.43-2.74-.12-5.43-.04-8.49-.04v6.37c-.68.04-1.33.04-2.01.04h0ZM75.84,34.7v6.02c2.98,0,5.83.16,8.65-.04,1.93-.12,2.05-1.75,1.97-3.31-.08-1.47-.64-2.63-2.33-2.63-2.74-.08-5.43-.04-8.28-.04ZM95.31,49c-3.62-.76-4.91-3.19-5.03-6.57-.32-8.68,2.13-9.48,8.44-9.32.81.04,1.61,0,2.41.12,2.89.36,4.18,1.47,4.71,4.3.28,1.39.36,2.87.32,4.34-.08,4.62-.96,5.74-5.27,7.17-1.85-.04-3.7-.04-5.59-.04ZM98.16,47.01s0,.04,0,0c.52.04,1.09.04,1.61.04,2.93-.12,3.9-.8,4.18-3.67.2-1.95.08-3.94-.2-5.9s-1.41-2.63-4.5-2.59c-2.29.04-5.11-.88-6.39,2.19-.17.43-.28.89-.32,1.35-.04,1.71-.12,3.43.04,5.14.24,2.39,1.21,3.23,3.58,3.43.64.08,1.33,0,2.01,0h0ZM113.4,49c-.2-.08-.36-.2-.56-.24-4.91-.92-5.11-1.19-5.11-6.01,0-3.03.04-6.1.04-9.12,0-.12.08-.24.16-.4h2.05v10.2c0,3.19.64,3.86,3.86,3.94,1.53.04,3.1-.04,4.62-.12,1.89-.12,2.69-1.15,2.65-2.99-.04-3.23,0-6.49,0-9.72,0-.4.08-.76.12-1.28h2.13c0,4.06.08,8.09-.04,12.07-.04,1.75-1.21,2.87-3.02,3.27-.56.12-1.13.28-1.73.44-1.69-.04-3.46-.04-5.19-.04ZM125.47,49v-15.7c3.86,0,7.76-.2,11.66.08,2.13.16,2.98,1.91,2.94,4.7,0,2.51-.85,3.86-3.02,4.22-1.97.32-3.98.28-5.99.36-1.13.04-2.25,0-3.38,0-.2,2.23-.4,4.26-.6,6.33,0,0-1.61,0-1.61,0ZM127.6,34.7v6.21c2.73,0,5.35.12,7.92-.04,2.05-.12,2.29-1.71,2.21-3.35-.08-1.63-.64-2.83-2.57-2.83h-7.56Z"/>
      <path class="cls-1" d="M48.9,30.71c-.76-2.59-1.29-5.06-2.25-7.37-2.81-6.73-8.49-10.48-15.24-10.08-1.33.08-2.65.72-3.94,1.2-.92.36-1.77.96-2.69,1.31-2.82,1.08-5.35.56-7-1.28-1.65-1.83-2.05-4.86-.76-7.25,1.97-3.59,5.23-5.26,9.17-5.5,7.96-.48,17.25,5.46,20.43,12.95,2.13,4.98,2.94,10.68,2.29,16.02Z"/>
      <path class="cls-1" d="M6.76,42.43c2.82.56,5.43,1.31,8.12,1.63,7.16.84,13.59-2.75,16.17-8.88.4-.92.4-2.03.52-3.07.08-.92-.08-1.87.04-2.75.4-3.11,2.05-5.14,4.54-5.66,2.65-.56,5.71.72,7.2,3.27,2.13,3.63,1.89,7.37-.16,10.95-3.82,6.73-13.92,11.39-21.68,10.2-5.31-.88-10.25-2.55-14.76-5.7ZM148.43,4.3c-2.13,5.82-4.1,11.11-6.07,16.41-1.09,2.91-2.25,3.55-5.35,2.83-.4-.08-.88-.56-1.05-1-2.69-6.77-5.31-13.54-7.96-20.36-.04-.12.04-.24.04-.32,2.29-.8,3.26.24,4.02,2.35,2.05,5.66,4.34,11.24,6.64,17.13.32-.68.56-1.08.72-1.51,2.05-5.5,4.22-10.99,6.11-16.57.64-1.95,1.97-1.47,3.3-1.59,1.37-.12,1.97.36,2.45,1.63,1.93,5.5,4.02,10.92,6.07,16.37.16.48.4.92.76,1.75,1.99-5.08,3.98-10.17,5.95-15.26.28-.76.68-1.47.85-2.23.48-2.27,1.89-2.71,4.06-2.07-2.05,5.3-4.1,10.6-6.19,15.9-.36.92-.72,1.83-1.09,2.79-1.25,3.23-1.85,3.58-5.31,2.91-.52-.12-1.09-.84-1.33-1.43-2.21-5.62-4.3-11.39-6.63-17.73ZM180.16,4.18v19.28h-3.02V1.87c2.69-.28,4.99-.52,7,2.35,4.02,5.66,8.57,11,13.19,16.81V1.87h3.14v21.43c-3.62.96-4.82.56-7.08-2.31-3.98-5.06-7.92-10.16-11.9-15.22-.28-.36-.64-.72-1.33-1.59ZM55.7,16.85h2.85c.72,4.26,1.17,4.62,5.63,4.66,2.13,0,4.3-.04,6.39-.28,2.21-.24,2.77-1.19,2.82-4.02,0-2.23-.6-3.15-2.78-3.35-2.98-.28-6.03-.32-9.01-.56-4.38-.32-6.07-2.35-5.71-6.65.24-2.59,1.37-4.22,3.98-4.46,3.85-.36,7.72-.43,11.58-.2,3.34.24,4.5,1.99,4.5,5.54h-2.86c-.8-3.23-1.37-3.71-4.75-3.78-1.73-.04-3.5-.04-5.23.04-3.14.2-4.14,1.15-4.14,3.67s.92,3.47,4.1,3.67c2.73.16,5.51.2,8.2.44,3.86.36,5.15,1.75,5.23,5.38.08,4.22-1.08,5.94-4.95,6.29-3.53.32-7.08.36-10.62.12-3.9-.2-5.31-2.11-5.27-6.49ZM82.04,14.02v9.44h-3.1V1.95h3.06v9.36c1.61-.64,2.98-.88,3.98-1.59,2.6-1.87,5.11-3.86,7.52-5.97,1.77-1.55,3.58-2.43,6.31-1.71-4.1,3.43-8.12,6.81-12.26,10.28,4.67,3.71,9.17,7.33,13.95,11.15-2.53.28-4.46.28-6.35-1.39-2.82-2.55-5.83-4.86-8.89-7.09-1.04-.8-2.49-1.12-3.74-1.63-.17.22-.33.44-.48.68ZM116.3,23.54h-3.34c0-2.43.12-4.86-.04-7.29-.08-1.08-.48-2.31-1.12-3.19-2.86-3.74-5.83-7.33-8.85-11.11,2.37-.68,3.86-.04,5.19,1.83,1.97,2.75,4.18,5.3,6.47,8.13,2.23-2.75,4.44-5.51,6.64-8.29q1.77-2.19,5.07-1.67c-2.78,3.43-5.35,6.85-8.16,10.08-1.45,1.67-2.13,3.35-1.93,5.54.2,1.95.08,3.86.08,5.98ZM171.31,1.83h2.9v21.67h-2.9V1.83Z"/>
    </g>
  </g>
</svg>