<?xml version="1.0" encoding="UTF-8"?>
<svg id="Layer_2" data-name="Layer 2" xmlns="http://www.w3.org/2000/svg" viewBox="0 0 223.28 61.69">
  <defs>
    <style>
      .cls-1 {
        fill: #fff;
        stroke-width: 0px;
      }
    </style>
  </defs>
  <g id="Layer_1-2" data-name="Layer 1">
    <path class="cls-1" d="M67.27,36.7c3.01,3.21,6.71,4.82,11.1,4.82,1.87,0,3.98-.47,6.34-1.42l.38-7.02-20.75-.77c.74,1.61,1.72,3.09,2.92,4.39h0ZM31.72,31.1l-2.35,9.73h10.98l.87-4.97h7.16l.79,4.97h10.98l-1.86-8.75-26.56-.98ZM42.6.71l-7.1,29.45,26.56.98L55.59.71h-12.99ZM46.42,26.52l1.07-6.14.74-4.75c.02-.08.05-.33.1-.74.05-.41.14-1.13.25-2.18.07-.52.13-1.01.19-1.45.06-.44.11-.84.14-1.19l.33,3.71c.08.76.15,1.39.2,1.89.05.5.09.89.13,1.18.32,2.57.5,4.04.53,4.42.02.23.05.46.1.69l.69,4.57h-4.48ZM80.73,29.69c-.85-.48-1.58-1.16-2.1-1.98-.62-.98-1.06-2.05-1.31-3.17-.32-1.4-.48-2.83-.46-4.26,0-3.28.61-5.85,1.83-7.71,1.22-1.84,2.92-2.77,5.09-2.77,1.66,0,3.29.79,4.86,2.36V.96c-1.68-.62-3.45-.95-5.25-.96-5.28,0-9.5,1.86-12.66,5.58-3.16,3.74-4.74,8.7-4.74,14.87,0,4.27.71,7.9,2.12,10.91l20.75.77.23-4.29c-1.85,1.69-3.69,2.54-5.53,2.54-.99.02-1.98-.22-2.85-.68h0ZM127.13,18.72c.55.96,1.22,1.85,1.99,2.64.91.94,1.9,1.8,2.96,2.58l1.73,1.34c1.26,1,1.88,2.02,1.89,3.07,0,.35-.07.69-.22,1.01-.15.31-.37.59-.65.81-.64.5-1.43.76-2.24.72-2.43,0-4.69-1.42-6.78-4.26v6.88l18.88.7c1.09-2,1.65-4.3,1.65-6.92,0-2.27-.49-4.25-1.48-5.94-.97-1.69-2.57-3.34-4.81-4.95l-1.68-1.24c-1.44-1.03-2.16-2.07-2.16-3.12,0-.32.07-.63.21-.92.14-.29.35-.54.6-.73.56-.48,1.28-.74,2.01-.71,1.07,0,2.16.38,3.26,1.15,1.18.85,2.19,1.93,2.95,3.16V2.01C142.68.67,140.13,0,137.6,0c-2.84,0-5.26.85-7.26,2.54-.73.59-1.38,1.28-1.94,2.04-1.75,2.42-2.71,5.31-2.75,8.28,0,1.03.11,2.05.36,3.04.24.98.62,1.92,1.12,2.8h0ZM0,40.83h10.62v-10.51l-10.62-.39v10.91ZM19.47,29.56l10.62.39V.71h-10.62v13.85h-5.07V.71H3.78v28.27l10.62.39v-5.24h5.07v5.43h0ZM15.69,40.83h10.62v-9.93l-10.62-.39v10.33h0ZM110.75.71l-6.26,16.8.28-16.8h-10.62v31.62l10.51.39-.17-10.89,4.31,11.05,11.1.41-6.42-13.66L121.96.71h-11.21ZM157.19.71l-8.12,33.65,28.48,1.05L170.18.71h-12.99ZM161.01,26.52l1.07-6.14.74-4.75c.02-.08.05-.33.1-.74.05-.41.14-1.13.26-2.18.07-.52.13-1.01.19-1.45.06-.44.11-.84.14-1.19l.33,3.71c.09.76.15,1.39.2,1.89.05.5.09.89.13,1.18.32,2.57.5,4.04.53,4.42.02.23.05.46.1.69l.69,4.57h-4.48ZM183.82,40.83h10.34l.52-3.7-11.79-.44.93,4.14ZM90.37,33.27v7.56h10.62l-.11-7.18-10.51-.39ZM212.91.71l-1.94,12.16c-.27,1.69-.52,3.58-.74,5.66-.22,2.08-.43,4.47-.61,7.16-.63-5.99-1.37-11.17-2.22-15.56l-1.78-9.41h-9.14l-1.99,11.19c-.56,3.23-1.02,6.64-1.38,10.23l-.33,3.07-.36-3.58c-.26-2.45-.71-5.83-1.38-10.12l-1.73-10.78h-10.49l7.83,35.04,11.79.44,1.49-10.51c.17-1.18.31-2.31.43-3.37.12-1.07.22-2.08.3-3.04.17-1.89.3-3.19.38-3.88.03.34.09.83.18,1.47.09.64.19,1.45.31,2.41.24,1.95.59,4.25,1.07,6.9l1.82,10.25,11.48.42L223.28.71h-10.36ZM201.29,40.83h10.24l.62-3.06-11.48-.42.62,3.48ZM162.97,35.95l.77,4.88h10.98l-.95-4.48-10.8-.4ZM122.03,39.87c2.85,1.1,5.53,1.65,8.02,1.65,3.62,0,6.6-1.25,8.97-3.76.74-.79,1.38-1.67,1.89-2.62l-18.88-.7v5.43h0ZM105.02,33.81l2.74,7.02h11.46l-3.11-6.61-11.1-.41ZM143.96,40.83h10.98l.87-4.97-10.51-.56-1.33,5.53ZM10.47,53.84h6.92c0,.64-.03,1.29-.09,1.93-.05.55-.17,1.09-.36,1.61-.23.67-.58,1.29-1.01,1.85-.42.53-.93.99-1.5,1.35-.59.37-1.22.64-1.89.82-.71.19-1.44.29-2.17.28-.98.01-1.94-.16-2.85-.51-.83-.32-1.58-.81-2.21-1.44-.63-.64-1.12-1.4-1.44-2.23-.35-.92-.53-1.9-.52-2.88-.01-.98.16-1.95.51-2.86.32-.83.81-1.59,1.44-2.22.64-.63,1.41-1.11,2.25-1.43.94-.35,1.93-.53,2.93-.51,1.29-.03,2.56.28,3.68.9,1.1.66,1.98,1.63,2.51,2.8l-3.31,1.36c-.23-.63-.65-1.18-1.2-1.58-.5-.32-1.08-.49-1.68-.48-.49,0-.97.09-1.42.29-.42.19-.8.48-1.09.83-.32.39-.56.83-.71,1.3-.18.55-.27,1.12-.26,1.7,0,.53.07,1.06.22,1.58.13.46.36.89.67,1.26.3.36.68.64,1.1.82.48.2,1,.3,1.53.29.34,0,.67-.04,1-.11.31-.07.6-.2.86-.37.26-.17.47-.4.63-.66.18-.31.29-.64.34-.99h-2.86v-2.69h0ZM52.9,58.99h-4.98l-.8,2.32h-3.72l5.1-13.35h3.8l5.1,13.35h-3.72l-.8-2.32ZM51.98,56.35l-1.56-4.45-1.56,4.45h3.13ZM83.94,61.31l2.28-13.35h3.45l2.68,7.12,2.67-7.12h3.45l2.28,13.35h-3.47l-1.15-7.69-3.16,7.69h-1.39l-3-7.69-1.16,7.69h-3.47ZM132.02,47.96v13.35h-3.48v-13.35h3.49,0ZM160.43,61.31v-13.35h3.48l6.43,8.16v-8.16h3.47v13.35h-3.47l-6.43-8.16v8.16h-3.48,0ZM208.99,53.84h6.92c0,.71-.03,1.35-.09,1.93-.05.55-.17,1.09-.35,1.61-.23.67-.58,1.29-1.01,1.85-.42.53-.93.99-1.5,1.35-.59.37-1.22.64-1.89.82-.71.19-1.44.29-2.17.28-.97.01-1.94-.16-2.85-.51-.83-.32-1.58-.82-2.21-1.44-.63-.64-1.12-1.4-1.44-2.23-.68-1.85-.69-3.88,0-5.74.32-.83.81-1.59,1.44-2.22.64-.63,1.41-1.11,2.25-1.43.94-.35,1.93-.53,2.93-.51,1.29-.03,2.56.28,3.68.9,1.11.66,1.98,1.63,2.51,2.8l-3.31,1.36c-.23-.63-.65-1.18-1.2-1.58-.5-.32-1.09-.49-1.68-.48-.49,0-.97.09-1.42.29-.42.19-.8.48-1.09.83-.32.39-.56.83-.71,1.3-.18.55-.27,1.12-.26,1.7,0,.53.07,1.06.22,1.58.13.46.36.89.67,1.26.3.36.68.64,1.1.82.48.2,1,.3,1.53.29.33,0,.67-.04,1-.11.31-.07.6-.2.86-.37.26-.17.47-.4.63-.66.18-.31.29-.64.34-.99h-2.86v-2.69Z"/>
  </g>
</svg>