<?xml version="1.0" encoding="UTF-8"?>
<svg id="Layer_2" data-name="Layer 2" xmlns="http://www.w3.org/2000/svg" viewBox="0 0 225.79 59">
  <defs>
    <style>
      .cls-1 {
        fill: #fff;
        fill-rule: evenodd;
        stroke-width: 0px;
      }
    </style>
  </defs>
  <g id="Layer_1-2" data-name="Layer 1">
    <path class="cls-1" d="M39.2.13c-.24.07-.76.12-1.15.13-.39,0-.93.06-1.2.13-.27.07-.61.13-.75.13s-.56.06-.93.14c-.37.08-1.18.26-1.82.41-.8.19-1.6.42-2.39.67-.68.22-1.72.6-2.3.84l-1.89.78c-.45.19-.99.46-1.2.6-.2.14-.75.44-1.21.67-.46.23-1.41.81-2.13,1.28-.71.47-1.51,1.04-1.78,1.26l-.97.81c-.34.28-.68.55-1.02.82-.29.23-.83.7-1.18,1.04-.36.34-.83.86-1.06,1.15-.22.29-.63.77-.91,1.06-.28.29-.76.87-1.07,1.28-.38.52-.75,1.05-1.11,1.59-.3.46-.69,1.07-.87,1.37-.18.29-.66,1.19-1.07,1.99-.41.8-.92,1.91-1.14,2.47-.22.56-.54,1.45-.72,1.99-.16.5-.31,1-.45,1.5-.16.7-.31,1.39-.45,2.1-.21,1.03-.31,1.82-.32,2.3,0,.4-.06.97-.13,1.26-.08.32-.13.97-.13,1.63s.05,1.32.13,1.63c.07.29.13.86.13,1.26,0,.48.11,1.27.31,2.3.17.86.39,1.8.48,2.1.09.29.23.79.31,1.1.08.32.45,1.33.81,2.25.37.92.81,1.96.98,2.3.17.34.42.78.55.97.13.19.39.64.57,1,.18.36.5.82.71,1.03.29.29.53.43.98.57.49.15.83.18,1.99.18s1.5-.03,1.96-.17c.4-.12.66-.27.89-.51.18-.18.41-.51.51-.72.11-.21.47-1.17.8-2.12.33-.95.85-2.41,1.15-3.24.71-1.94,1.42-3.88,2.13-5.83.35-.96.7-1.93,1.05-2.89.28-.79.62-1.65.74-1.92.12-.27.31-.57.42-.66.19-.17.34-.18,2.92-.2,2.08-.02,2.77,0,2.94.09.12.06.27.22.33.34.09.19.07.44-.15,1.53-.15.76-.26,1.58-.26,1.97,0,.51-.05.78-.22,1.16-.12.27-.34,1.01-.49,1.64-.15.63-.39,1.74-.54,2.46s-.26,1.41-.26,1.53.08.36.17.55c.1.21.29.39.48.48.26.12.7.14,3.1.14h2.79l.26-.22c.19-.16.3-.37.41-.79.08-.32.14-.8.15-1.08,0-.28.06-.75.12-1.04s.15-1.12.18-1.83c.04-.84.03-1.3-.03-1.3-.05,0-.19.17-.31.38-.12.21-.41.59-.63.84-.26.29-.62.56-1,.74-.5.24-.69.29-1.21.29-.49,0-.73-.05-1.12-.23-.31-.15-.59-.33-.85-.55-.22-.21-.4-.46-.53-.74-.13-.34-.23-.69-.29-1.05-.06-.35-.08-.73-.05-.86.03-.12.26-.43.51-.67.25-.25.64-.54.87-.66.23-.12.65-.28.93-.36.34-.1.64-.13.9-.09.21.03.63.18.92.33.3.15.66.42.81.6.15.18.42.6.61.94.18.34.37.62.42.64.05.01.19-.29.32-.68.17-.52.23-.89.24-1.39,0-.38.04-.85.09-1.04.05-.19.12-.65.17-1.01.06-.47.13-.7.26-.84.13-.12.3-.19.53-.19.22,0,.42.06.54.17.16.15.18.23.14.57-.03.22-.08,1.03-.1,1.81-.03.93-.01,1.57.06,1.88.06.25.13.46.17.46s.26-.28.49-.62c.23-.34.57-.74.74-.9.18-.15.53-.37.77-.49.25-.11.63-.23.85-.26.28-.04.55,0,.96.14.31.1.74.31.94.45s.58.51.84.83c.26.32.5.58.53.58s.1-.07.14-.15c.04-.08.08-1.09.08-2.23v-2.07l.25-.12c.16-.07.33-.09.5-.06.14.03.32.13.4.22.08.09.23.5.32.9.09.4.17,1.03.17,1.38,0,.36.06.87.13,1.15.08.33.16.67.23,1.01.06.28.14.51.18.51s.22-.28.4-.61c.18-.34.46-.77.63-.96.17-.2.55-.47.84-.62.29-.15.71-.29.92-.32.26-.04.56,0,.9.09.28.08.7.24.92.35.22.11.57.38.77.6s.41.48.47.6c.08.14.09.42.05.92-.03.39-.14.9-.24,1.13-.13.28-.31.53-.53.74-.26.22-.55.4-.85.55-.39.18-.63.23-1.12.23-.48,0-.73-.05-1.13-.24-.29-.13-.78-.49-1.14-.82-.39-.37-.66-.56-.71-.51-.05.04-.11.35-.14.67-.03.36-.01.75.06,1.01.06.23.14.8.18,1.26.04.46.13,1.16.21,1.54.1.56.18.75.37.9.23.2.26.2,2.95.2,2.49,0,2.75-.02,3.09-.17.22-.1.45-.29.55-.46.1-.16.18-.45.18-.64,0-.19-.06-.65-.13-1.01-.07-.36-.23-1.08-.34-1.59-.14-.62-.28-1.24-.42-1.85-.11-.51-.25-1.03-.31-1.15-.06-.12-.14-.48-.17-.79-.03-.32-.2-1.25-.37-2.07-.26-1.26-.29-1.53-.19-1.72.08-.14.19-.26.33-.34.16-.08.9-.11,2.82-.11,2.16,0,2.65.02,2.89.13.16.08.38.29.49.49.11.19.37.86.58,1.48.21.62.53,1.5.71,1.96.18.46.48,1.16.67,1.54.19.39.41.99.49,1.32.08.34.28,1.05.45,1.58.17.53.49,1.4.71,1.94l.45,1.1c.03.06.16.17.3.24.14.07.47.13.75.13s.58-.04.67-.09c.12-.08.21-.19.26-.32.07-.19,0-.48-.37-1.6-.25-.75-.54-1.5-.63-1.67-.12-.21-.39-.4-.96-.7-.51-.26-.9-.54-1.11-.77-.17-.2-.32-.41-.46-.63-.09-.2-.13-.41-.13-.62,0-.2.12-.62.27-.94.14-.32.41-.74.59-.94.18-.2.59-.49.9-.65.34-.17.76-.3,1.03-.32.32-.03.6.02.96.15.27.1.71.34.97.52.36.25.55.47.77.9.27.51.29.63.26,1.15-.02.4-.13.8-.32,1.16-.15.32-.28.68-.28.8s.14.61.3,1.1c.17.48.49,1.33.72,1.89.23.56.54,1.35.68,1.77l.44,1.23c.11.3.15.59.12.76-.05.19-.14.35-.28.49-.22.21-.28.21-1.98.26-1.3.03-1.79.08-1.9.17-.08.07-.15.25-.15.4s.14.63.31,1.07c.17.43.42.9.55,1.04.13.14.32.3.42.35.1.05.46.17.8.26.47.12.96.16,2.01.16,1,0,1.49-.04,1.76-.13.21-.07.52-.25.71-.39.18-.14.53-.55.78-.91s.81-1.38,1.26-2.28c.45-.9,1-2.07,1.21-2.6.22-.54.51-1.39.65-1.9.14-.51.38-1.4.52-1.99.14-.58.32-1.4.4-1.82.07-.42.14-.98.14-1.24,0-.26.06-.71.13-1,.09-.37.13-1.06.13-2.3s-.04-1.92-.13-2.3c-.08-.33-.12-.67-.13-1,0-.26-.06-.82-.14-1.24-.08-.42-.26-1.3-.41-1.96-.18-.77-.39-1.54-.62-2.29-.23-.71-.48-1.42-.75-2.12-.22-.56-.73-1.67-1.14-2.47-.41-.8-.89-1.69-1.07-1.99-.18-.29-.57-.91-.87-1.37-.35-.54-.72-1.07-1.11-1.59-.31-.41-.87-1.07-1.24-1.46-.38-.4-.74-.81-1.08-1.24-.29-.36-.61-.68-.97-.96-.43-.33-.84-.69-1.23-1.06-.36-.35-1.24-1.07-1.95-1.6-.71-.53-1.48-1.08-1.73-1.23l-.97-.6c-.29-.18-1.47-.8-2.61-1.37-1.15-.57-2.42-1.15-2.83-1.29-.55-.18-1.1-.37-1.64-.57-.49-.18-1.64-.51-2.57-.73-.92-.22-1.98-.47-2.35-.54-.37-.08-.78-.14-.93-.14s-.49-.06-.75-.13c-.27-.07-.81-.13-1.2-.13s-.93-.06-1.2-.13c-.39-.1-1.11-.13-3.5-.12-2.28,0-3.12.04-3.46.13h0ZM45.91,5.17c.69.22,1.46.51,1.7.63.24.12.79.45,1.21.73.42.28.94.66,1.15.85.22.19.6.49.85.67.25.19.61.54.79.79.19.25.54.68.79.96.25.28.86,1.09,1.34,1.82.49.73,1.13,1.81,1.43,2.4.3.6.66,1.39.8,1.76.14.37.26.78.26.91,0,.15-.07.29-.2.38-.17.12-1.58.14-13.22.14s-13.05-.01-13.22-.14c-.12-.09-.2-.23-.2-.38,0-.13.12-.54.26-.91.14-.37.52-1.18.84-1.81.33-.64.68-1.27,1.05-1.89.26-.41.89-1.31,1.41-1.99.51-.68,1.17-1.46,1.46-1.72.29-.27.77-.68,1.08-.93.31-.24.9-.68,1.33-.98.55-.37,1.13-.68,1.74-.92.55-.22,1.11-.41,1.68-.58.62-.17.93-.2,2.55-.2h1.84s1.26.4,1.26.4ZM210.78,14.93c-.15.05-.66.12-1.15.16s-1.12.12-1.42.18c-.29.06-.99.25-1.55.42-.56.17-1.34.47-1.73.66-.39.19-.99.55-1.34.79-.35.24-1.03.84-1.52,1.34-.78.8-.95,1.03-1.38,1.9-.27.54-.6,1.35-.72,1.8-.2.75-.22.97-.22,2.72s.02,1.98.19,2.52c.1.33.42,1.08.71,1.65.45.89.64,1.16,1.3,1.84.55.56,1.16,1.06,1.81,1.49.58.38,1.09.7,1.13.7s.49.18.97.4c.56.26,1.43.54,2.41.79,1.02.26,1.72.39,2.1.39.32,0,.79.06,1.06.13.27.07.87.13,1.33.13s1.06-.06,1.33-.13c.35-.08.71-.13,1.06-.13.38,0,1.09-.13,2.13-.4,1.24-.32,1.77-.5,2.65-.93.6-.29,1.38-.73,1.73-.97.35-.24,1.02-.83,1.48-1.3.46-.47,1.01-1.11,1.22-1.42.21-.31.49-.81.63-1.1.14-.3.38-1,.52-1.56.23-.85.27-1.18.27-2.06,0-.7-.06-1.34-.18-1.94-.09-.45-.2-.9-.32-1.34-.08-.24-.31-.78-.52-1.19-.21-.41-.53-.93-.72-1.15-.22-.25-.43-.51-.63-.77-.16-.2-.62-.62-1.03-.93-.42-.31-.84-.6-1.29-.88-.29-.18-.96-.49-1.48-.69-.52-.2-1.49-.5-2.16-.67-.74-.19-1.44-.31-1.78-.31-.35,0-.7-.05-1.04-.13-.35-.09-.93-.13-2.04-.12-.85,0-1.67.04-1.82.09h0ZM183.67,15.2c-.15.05-.96.12-1.82.16-.85.03-1.79.11-2.08.17-.29.06-.99.25-1.55.42-.56.17-1.46.53-1.99.8-.54.27-1.26.68-1.6.92-.35.24-1.09.9-1.65,1.47-.87.88-1.08,1.16-1.42,1.83-.22.43-.46.99-.54,1.23-.13.44-.23.89-.32,1.34-.1.49-.18,1.11-.18,1.37,0,.26.1.95.22,1.53.12.58.29,1.28.36,1.54.08.26.29.78.48,1.15s.52.88.74,1.13c.22.26.49.58.59.72.1.14.45.47.77.73.32.26.85.67,1.17.9.32.24.99.62,1.48.86.65.32,1.3.54,2.44.83l1.55.39h2.3c1.75,0,2.42-.03,2.79-.13.3-.08.6-.12.91-.13.23,0,.67-.06.98-.13.3-.07.89-.19,1.3-.27.47-.09.95-.19,1.42-.28.42-.09.84-.17,1.26-.26.34-.08.71-.11.87-.07.15.03.41.18.57.31.16.14.4.29.53.35.13.05.82.09,1.53.09h1.28l.26-.26.26-.26v-2.55c0-1.92.04-2.63.13-2.88.07-.19.19-.41.27-.5.08-.09.46-.33.84-.52.51-.26.72-.42.8-.62.07-.17.1-.57.08-1.1-.03-.78-.05-.86-.28-1.09l-.25-.24h-11.69l-.24.24c-.24.24-.24.26-.24,1.29s.01,1.06.21,1.28c.14.14.38.26.69.32.26.05.6.2.74.32.15.12.31.37.37.56.06.2.08.51.04.74-.04.24-.13.48-.26.69-.11.17-.42.4-.72.56-.51.26-.55.27-1.81.27s-1.32-.01-1.8-.24c-.36-.18-.69-.41-.98-.68-.26-.24-.57-.63-.7-.87-.12-.23-.31-.84-.41-1.35-.15-.75-.19-1.25-.19-2.57,0-1.44.02-1.74.21-2.48.12-.46.3-1,.4-1.2.1-.2.32-.51.47-.69s.49-.46.74-.62c.25-.16.71-.38,1.02-.48.46-.15.71-.18,1.32-.15.58.03.93.11,1.5.33.49.2.97.45,1.41.75.43.29.74.58.87.79.1.19.24.57.29.84.07.34.17.57.33.72l.23.21,3.05.03,3.05.03.26-.26.26-.26v-6.12l-.26-.26-.26-.26h-1.36c-1.18,0-1.4.03-1.71.18-.2.1-.57.31-.84.48-.27.17-.6.31-.74.31s-.48-.1-.76-.21c-.28-.12-.9-.33-1.39-.48-.47-.14-.94-.27-1.42-.37-.29-.06-.99-.14-1.55-.18-.56-.04-1.16-.11-1.33-.17-.22-.06-.44-.09-.66-.09-.21,0-.42.04-.62.1h0ZM105.06,15.42c-.12.06-.24.14-.34.24-.11.1-.32.41-.46.69-.17.35-.33.7-.47,1.06-.11.31-.34.81-.5,1.13-.16.31-.45.95-.64,1.41-.19.46-.62,1.49-.95,2.3-.33.8-.72,1.7-.88,2-.15.3-.37.8-.49,1.1-.12.31-.35.83-.52,1.17s-.5,1.1-.73,1.68c-.23.58-.57,1.28-.75,1.54-.24.36-.44.55-.8.73-.28.14-.62.24-.82.24-.26,0-.41.06-.6.26l-.26.26v2.68l.26.26.26.26,5.05-.02,5.05-.03.25-.24c.24-.24.25-.27.28-1.44l.03-1.19-.25-.25c-.15-.15-.47-.31-.75-.4-.28-.08-.62-.25-.77-.37-.16-.14-.27-.32-.32-.52-.04-.21,0-.42.09-.61.11-.22.28-.38.6-.54.44-.22.5-.22,2.32-.22,1.65,0,1.91.02,2.24.17.21.1.45.3.56.46.13.18.18.41.14.63-.02.19-.13.43-.24.55-.12.13-.38.25-.68.31-.3.06-.59.19-.76.35l-.28.25-.03,1.29-.03,1.29.27.27.27.27,6.06-.02c5.82-.02,6.07-.03,6.25-.19.18-.16.19-.26.19-1.57v-1.41l-.26-.26c-.14-.14-.35-.26-.46-.26-.11,0-.41-.09-.65-.21-.28-.14-.54-.33-.76-.56-.21-.24-.39-.49-.56-.76-.13-.22-.38-.74-.55-1.14-.5-1.16-1-2.31-1.49-3.47-.25-.59-.5-1.18-.75-1.76-.22-.52-.46-1.04-.71-1.55-.25-.51-.49-1.02-.71-1.54-.18-.44-.59-1.41-.9-2.16-.22-.55-.46-1.1-.71-1.64-.11-.18-.27-.32-.45-.42-.27-.13-.75-.14-4.01-.14-2.04,0-3.77.03-3.84.06h0ZM123.48,15.61c-.26.26-.26.27-.26,1.28,0,.57.04,1.11.1,1.24.06.12.37.4.7.62.33.22.7.53.83.69.14.19.26.4.36.62.12.28.13.98.13,4.85,0,3.59-.03,4.6-.12,4.86-.07.19-.19.41-.27.5s-.46.33-.83.52c-.45.23-.72.43-.79.58-.06.14-.11.68-.11,1.38v1.15l.26.26.26.26h9.06l.26-.26.26-.26v-1.18c0-.94-.03-1.22-.14-1.38-.08-.11-.43-.33-.78-.49-.36-.16-.74-.41-.87-.57-.13-.15-.26-.41-.29-.57-.03-.16-.04-1.76-.03-3.57.02-2.9.04-3.3.17-3.43.11-.11.18-.12.32-.05.1.05.28.31.41.58.13.27.37.88.54,1.35.17.47.46,1.24.66,1.7.19.46.7,1.67,1.12,2.69.42,1.02.83,2.05.91,2.3.08.24.34.92.57,1.5.27.66.53,1.16.7,1.32l.27.27h1.94c1.93,0,1.94,0,2.17-.21.12-.12.29-.39.38-.62.08-.22.74-1.88,1.46-3.67.55-1.38,1.1-2.76,1.63-4.15.21-.56.42-1.13.62-1.7.16-.45.36-.93.43-1.08.08-.14.23-.29.33-.32.14-.04.24,0,.35.14.15.18.16.44.16,3.55,0,2.91-.02,3.39-.14,3.66-.09.19-.33.42-.67.63-.29.18-.65.41-.81.51-.16.1-.29.24-.39.4-.08.15-.11.54-.09,1.3.02,1.05.03,1.09.27,1.32l.25.25,5.72.02,5.71.03.26-.26.26-.26v-1.19c0-1.05-.02-1.21-.18-1.41-.1-.13-.44-.33-.8-.46-.34-.13-.76-.36-.92-.52-.18-.18-.32-.4-.4-.65-.07-.26-.09-1.8-.08-5.08l.03-4.71.24-.37c.17-.26.46-.49.94-.77.41-.24.74-.49.8-.62.06-.12.1-.67.1-1.24,0-1.01,0-1.02-.26-1.28l-.26-.26-6.24.02c-6.1.02-6.24.03-6.44.2-.11.1-.36.51-.55.93-.19.41-.63,1.43-.97,2.25-.34.83-.89,2.15-1.21,2.95-.43,1.05-.66,1.5-.83,1.62-.21.16-.25.16-.43.04-.14-.09-.44-.72-.97-2.02-.61-1.51-1.24-3-1.89-4.49-.13-.32-.28-.63-.43-.94-.11-.18-.27-.32-.45-.42-.27-.13-.91-.14-6.03-.14h-5.73l-.26.26ZM158.02,15.61c-.26.26-.26.27-.26,1.28,0,.57.04,1.11.1,1.24.06.13.38.38.8.62.48.28.77.52.94.77l.24.37.05,4.29c.04,2.93.08,4.41.16,4.67.06.21.08.53.05.71-.05.24-.13.47-.23.69-.13.25-.32.46-.54.63-.22.15-.45.29-.69.4-.21.1-.4.24-.55.41-.14.17-.24.37-.29.58-.03.17-.04.6-.02.97.03.58.06.69.28.9l.24.24h11.95l.25-.24c.24-.24.25-.26.25-1.29,0-.92-.02-1.07-.18-1.24-.1-.11-.5-.35-.9-.54-.4-.19-.81-.45-.91-.58-.12-.17-.21-.37-.27-.57-.06-.22-.08-2.01-.07-5.09.02-4.44.04-4.77.19-5.06.09-.17.27-.42.4-.56.13-.14.48-.38.77-.55.31-.17.58-.4.64-.53.06-.13.1-.66.1-1.24,0-1.01,0-1.02-.26-1.28l-.26-.26h-11.72l-.26.26h0ZM70.87,18.44c.25.09.59.26.75.38.17.11.36.33.44.5.11.23.13.53.11,1.47-.03,1.1-.04,1.19-.24,1.4-.12.12-.4.29-.62.37s-1.15.44-2.06.8c-.91.36-1.68.65-1.71.65s-.51.18-1.07.4c-.56.22-1.15.4-1.34.4-.21,0-1.16-.33-2.66-.93-1.28-.51-2.36-.93-2.39-.93s-.71-.26-1.49-.57c-.75-.3-1.51-.59-2.27-.88-.46-.17-1.12-.41-1.46-.54-.49-.19-.73-.23-1.15-.2-.44.03-1.31.35-4.92,1.79-2.41.96-4.62,1.86-4.92,2-.36.17-.67.25-.97.25-.34,0-.92-.19-2.75-.92-.84-.34-1.69-.67-2.53-.98-.7-.26-1.39-.53-2.08-.81-.91-.37-1.82-.72-2.74-1.05-.48-.17-1.01-.3-1.16-.3s-.67.13-1.16.3c-.49.17-1.42.52-2.08.78-.66.26-1.36.53-1.55.6-.19.06-.97.36-1.73.66-.75.3-1.53.6-1.73.66s-.88.33-1.53.59-1.3.47-1.45.47-.73-.18-1.28-.4c-.55-.22-1.03-.4-1.07-.4s-.8-.29-1.71-.65c-.91-.36-1.83-.72-2.06-.8-.22-.08-.5-.25-.62-.37-.2-.22-.21-.28-.21-1.43,0-.99.03-1.26.16-1.49.1-.17.23-.32.39-.44.13-.09.5-.24.82-.35l.58-.2h27.48c27.01,0,27.49,0,27.93.17h0ZM213.61,18.74c.24.12.57.34.72.51.15.16.38.46.5.65.12.19.33.65.46,1.01s.34,1.06.45,1.54c.19.77.21,1.09.21,2.53s-.03,1.79-.21,2.66c-.14.65-.33,1.24-.53,1.64-.17.34-.45.77-.6.95s-.49.42-.73.53c-.36.17-.6.21-1.2.21-.64,0-.83-.03-1.22-.23-.29-.16-.56-.36-.78-.6-.22-.27-.41-.56-.56-.87-.13-.28-.31-.83-.38-1.24-.09-.49-.19-.99-.28-1.48-.09-.51-.13-1.03-.14-1.54,0-.49.08-1.2.22-1.86.12-.59.35-1.45.52-1.92.17-.47.41-1.03.54-1.24.12-.21.33-.51.45-.65.12-.15.47-.39.77-.54.37-.18.67-.27.95-.27.24,0,.59.08.85.21ZM32.69,22.32c.41.14,1.29.47,1.94.74.66.27,1.36.53,1.55.6.19.06.93.34,1.64.63.72.29,1.44.57,2.17.84.49.18,1.2.44,1.59.59.55.21.85.27,1.33.27.53,0,.78-.06,1.68-.42.58-.23,1.44-.56,1.9-.72.46-.17,1.78-.68,2.93-1.14,1.15-.46,2.12-.83,2.15-.83s.51-.18,1.07-.4c.55-.22,1.14-.4,1.31-.4s.64.12,1.05.26c.41.14,1.84.69,3.18,1.23,1.34.54,2.81,1.11,3.28,1.28.46.17,1.32.49,1.9.72,1.04.41,1.07.41,1.9.38.82-.03.9-.06,2.49-.71.84-.35,1.68-.69,2.52-1.04.54-.22.99-.36,1.15-.34.2.02.28.08.3.22.01.11-.08.38-.21.61-.13.23-.45.64-.71.92-.35.36-.73.68-1.14.97-.37.25-1.15.69-1.75.98-.77.37-1.4.6-2.15.78-.58.14-1.36.32-1.72.4-.6.13-2.77.14-21.22.14s-20.62-.01-21.22-.14c-.58-.13-1.15-.26-1.73-.4-.74-.18-1.46-.44-2.15-.78-.6-.29-1.38-.72-1.73-.97-.37-.26-.73-.55-1.05-.87-.27-.28-.51-.59-.73-.91-.18-.27-.32-.59-.32-.72s.06-.26.14-.29c.07-.03.42.05.77.17.35.12.94.36,1.3.52.47.21.94.42,1.42.63.41.18,1.13.46,1.58.62.54.19.99.3,1.28.3.25,0,.62-.04.81-.1.19-.05,1.53-.56,2.97-1.13,1.44-.57,2.77-1.09,2.97-1.15.19-.06.79-.29,1.33-.51.63-.25,1.27-.5,1.91-.73.51-.19,1.07-.34,1.24-.34.17,0,.65.11,1.06.25ZM108.03,23.49c.07.14.23.53.35.86.12.33.22.71.22.84,0,.13-.08.28-.2.37-.13.09-.39.14-.73.14s-.61-.05-.73-.14c-.12-.08-.19-.22-.2-.37,0-.12.1-.5.22-.84.12-.33.28-.72.35-.86s.18-.27.25-.29c.07-.02.15-.02.23,0,.06.02.17.16.25.29ZM45.68,35.73c-.08.23-.29.61-.46.83-.2.26-.43.49-.69.68-.3.19-.62.34-.96.46-.41.14-.68.18-.96.14-.29-.05-.58-.14-.85-.26-.29-.14-.56-.31-.81-.52-.19-.17-.52-.61-.74-.98-.22-.37-.42-.67-.45-.67s-.15.19-.26.42c-.21.4-.22.52-.28,2.85-.02.88-.05,1.76-.08,2.64,0,.13.05.26.13.35.13.13.52.14,3.55.14s3.42-.01,3.55-.14c.08-.08.14-.24.13-.35-.03-.91-.05-1.82-.08-2.72-.06-2.38-.08-2.54-.27-2.89-.11-.21-.23-.38-.27-.38s-.14.19-.22.42ZM102.22,39.19c-.51.14-1.08.31-1.26.39-.18.07-.63.34-1,.6-.42.3-.81.64-1.17,1.01-.29.32-.55.66-.79,1.02-.17.28-.39.88-.55,1.49-.15.56-.27,1.21-.27,1.46s.1.81.22,1.25c.12.45.38,1.13.57,1.51.2.39.57.94.86,1.24.28.3.85.77,1.27,1.05.53.36.96.56,1.43.69.36.1.92.24,1.24.31.32.07.91.12,1.33.12s1.01-.05,1.33-.12c.43-.1.86-.2,1.29-.33.57-.17.87-.32,1.46-.77.47-.35.89-.76,1.25-1.22.27-.36.58-.82.69-1.03s.29-.74.41-1.19c.12-.45.22-.95.22-1.11,0-.21-.08-.37-.26-.55l-.26-.26h-6.14l-.27.27c-.25.25-.27.3-.23.8.03.43.08.58.28.77.24.24.25.24,1.79.28,1.43.04,1.57.06,1.69.22.08.13.11.28.08.43-.05.18-.13.35-.23.51-.1.14-.36.36-.58.49-.22.13-.73.35-1.12.49-.46.16-.9.25-1.21.25-.27,0-.77-.07-1.12-.16-.37-.1-.73-.24-1.08-.41-.33-.2-.65-.42-.94-.68-.31-.27-.57-.61-.75-.98-.18-.41-.32-.83-.42-1.27-.13-.6-.13-.81-.05-1.23.06-.28.22-.76.36-1.07.15-.31.48-.78.75-1.07.27-.28.72-.64,1-.78.32-.16.65-.3.99-.41.27-.08.8-.14,1.21-.14.47,0,.92.06,1.29.17.31.1.78.31,1.05.48.27.17.65.39.84.49.29.14.53.18,1.26.18.8,0,.93-.02,1.09-.18.13-.13.16-.24.12-.38-.03-.11-.2-.39-.37-.62-.17-.24-.65-.68-1.06-.99-.65-.49-.9-.61-1.84-.92-1.06-.34-1.13-.35-2.27-.35-1,0-1.32.04-2.11.26h0ZM215.61,39.15c-.41.11-1.01.32-1.33.44-.32.13-.94.51-1.39.84-.67.5-.9.74-1.33,1.38-.36.53-.59,1-.72,1.46-.18.61-.2.83-.18,2.03l.03,1.35.37.77c.2.42.53,1.01.73,1.3.23.34.62.72,1.07,1.07.39.3.96.65,1.26.79.3.14,1.01.38,1.57.52.71.19,1.23.27,1.71.27.38,0,.94-.06,1.24-.13.3-.07.69-.15.87-.18.18-.03.69-.23,1.14-.45.65-.31.96-.54,1.46-1.04.43-.41.78-.89,1.04-1.43.22-.44.49-1.07.59-1.4.1-.33.19-.8.19-1.04,0-.37-.04-.48-.26-.7l-.26-.26h-6.14l-.27.27c-.25.25-.27.3-.23.8.03.43.09.58.28.77q.24.24,1.88.28c1.5.04,1.65.06,1.77.22.07.1.1.23.07.35-.03.1-.16.34-.29.53s-.46.48-.72.64c-.33.19-.68.34-1.05.46-.32.1-.82.17-1.16.17s-.81-.06-1.08-.14c-.38-.12-.74-.28-1.09-.46-.34-.18-.79-.5-1.02-.72-.26-.27-.48-.57-.65-.9-.15-.31-.26-.63-.34-.96-.05-.25-.08-.85-.06-1.32.03-.76.07-.93.33-1.46.16-.33.47-.77.67-.98.22-.22.73-.55,1.24-.8.82-.41.91-.43,1.71-.46.73-.03.94,0,1.58.21.49.17.97.39,1.43.64.68.4.71.4,1.62.44.82.04.96.02,1.14-.13.18-.14.2-.21.15-.46-.04-.2-.28-.51-.74-.98-.51-.52-.85-.77-1.41-1.05-.5-.24-1.02-.43-1.55-.58-.68-.18-1.01-.22-1.97-.21-.93,0-1.3.05-1.9.21h0ZM126.32,39.35c-.27.14-.44.43-1.43,2.37-.62,1.21-1.23,2.48-1.36,2.82-.13.34-.83,1.8-1.55,3.24-.72,1.44-1.32,2.71-1.32,2.8s.08.26.18.36c.17.17.27.18,1.1.15.81-.03.94-.05,1.13-.23.12-.11.36-.55.54-.98.18-.43.44-.9.59-1.05.15-.15.4-.3.55-.33.15-.03,1.46-.04,2.91-.02l2.63.03.24.22c.13.12.43.6.66,1.06.23.46.53.94.66,1.06.22.2.32.22,1.15.25.83.03.93.01,1.1-.15.1-.1.18-.26.18-.36s-.46-1.1-1.03-2.23c-.57-1.13-1.13-2.3-1.24-2.61-.12-.31-.85-1.82-1.62-3.36-1.04-2.07-1.48-2.85-1.66-2.97-.2-.13-.44-.17-1.18-.19-.77-.02-.98,0-1.24.14h0ZM145.01,39.45l-.27.26v10.89l.27.27c.27.26.27.27,1.14.24.71-.03.91-.06,1.06-.2.18-.16.19-.23.19-3.07,0-1.83.03-2.97.09-3.08.07-.1.18-.17.3-.17.13,0,.28.09.38.24.1.13.81,1.52,1.6,3.08,1.05,2.09,1.49,2.88,1.67,3,.2.13.45.17,1.27.2.76.02,1.11,0,1.34-.1.21-.09.43-.3.67-.65.19-.28.92-1.64,1.61-3.01.96-1.9,1.31-2.52,1.48-2.6.16-.08.24-.07.33,0,.08.08.12.89.15,3.03l.04,2.92.25.21c.22.19.33.21,1.05.21.77,0,.81-.01,1.06-.26l.26-.26v-10.89l-.26-.26-.27-.26-1.14.03c-.99.03-1.17.05-1.34.21-.11.1-.37.45-.59.78-.22.33-.93,1.68-1.6,3-.66,1.32-1.29,2.51-1.39,2.66-.1.14-.41.68-.68,1.19-.38.71-.54.94-.69.96-.12.01-.24-.02-.34-.08-.08-.06-.52-.87-.98-1.79-.46-.93-.95-1.84-1.09-2.04-.13-.19-.7-1.27-1.26-2.38-.56-1.12-1.13-2.13-1.26-2.25-.23-.21-.29-.22-1.51-.25l-1.28-.03-.26.26h0ZM172.96,39.28c-.1.04-.26.16-.35.27-.17.19-.18.32-.18,5.61v5.42l.24.25c.23.23.3.25,1.17.28l.93.03.27-.27.27-.27v-10.89l-.26-.26c-.25-.25-.29-.26-1.09-.25-.45,0-.91.04-1,.08h0ZM187.25,39.45l-.26.26v10.89l.26.26c.25.25.29.26,1.07.26s.82-.01,1.07-.26l.26-.26v-3.36c0-1.97.04-3.45.09-3.58.06-.15.15-.23.29-.23.11,0,.31.09.43.2.13.11.43.45.66.76.24.31.66.84.94,1.19.28.35.75.93,1.04,1.29.29.36.76.95,1.04,1.3.28.35.71.89.95,1.19.24.31.64.79.88,1.06.24.28.56.55.7.6s.72.09,1.27.09c1,0,1.02,0,1.27-.26l.26-.26v-10.89l-.27-.27-.27-.27-.93.03c-.88.03-.94.04-1.17.27l-.25.25-.04,3.29c-.02,1.81-.07,3.34-.12,3.4-.04.06-.16.11-.28.11-.14,0-.35-.17-.69-.55-.31-.36-.62-.73-.92-1.11-.31-.4-.63-.8-.95-1.19-.28-.35-.76-.94-1.06-1.32l-1-1.24-.91-1.13c-.29-.36-.57-.62-.74-.68-.15-.05-.75-.1-1.34-.1-1.05,0-1.06,0-1.32.26h0ZM127.76,43.06c.07.08.4.68.72,1.32.32.65.59,1.28.59,1.43,0,.17-.07.31-.2.4-.15.11-.45.14-1.4.14s-1.24-.03-1.4-.14c-.12-.09-.2-.23-.2-.38,0-.13.12-.54.26-.92.14-.37.38-.91.53-1.2s.33-.59.41-.67c.1-.09.22-.14.35-.14.11,0,.26.07.34.15ZM30.87,44.92c-.19.09-.5.32-.68.52-.18.2-.38.52-.43.72-.08.27-.08.44,0,.69.06.18.18.46.28.61.1.16.35.37.56.49.38.2.43.2,4.17.25l3.78.04.2.2c.19.19.2.27.23,1.9.03,1.65.02,1.71-.16,1.87-.18.16-.38.18-3.26.22-2.02.03-3.18.09-3.38.15-.19.06-.85.11-1.68.11-.93,0-1.53.04-1.86.13-.29.08-.89.13-1.46.13-.57,0-1.17.06-1.46.13-.27.07-.87.13-1.33.13-.46,0-1.06.06-1.33.13-.3.08-.62.12-.93.13-.24,0-.66.06-.93.13-.35.08-.7.13-1.06.13-.32,0-.8.06-1.06.13-.3.08-.62.12-.93.13-.25,0-.51.03-.75.09-.17.05-.59.13-.93.17-.34.04-.84.12-1.11.17l-1.02.19c-.29.06-.79.13-1.11.17-.32.04-.76.11-.98.16-.22.05-.74.16-1.15.24-.41.08-1.99.45-3.5.81-1.51.36-3.54.92-4.52,1.24-.97.32-1.97.67-2.2.79-.24.12-.53.31-.64.43-.12.11-.21.25-.21.3s.14.13.31.17c.22.06.48.05.91-.04.33-.07.78-.13,1-.13.22,0,.62-.06.88-.13.35-.08.7-.13,1.06-.13.36,0,.71-.05,1.06-.13.35-.08.7-.13,1.06-.13.36,0,.71-.05,1.06-.13.27-.07.69-.13.93-.13.24,0,.66-.06.93-.13.35-.08.7-.13,1.06-.13.36,0,.71-.05,1.06-.13.27-.07.81-.13,1.2-.13.39,0,.93-.06,1.2-.13.27-.07.87-.13,1.33-.13.46,0,1.06-.06,1.33-.13.29-.08.89-.13,1.46-.13.57,0,1.17-.06,1.46-.13.29-.08.89-.13,1.46-.13.57,0,1.17-.06,1.46-.13.33-.09.93-.13,1.86-.13.93,0,1.53-.04,1.86-.13.34-.09.95-.13,1.99-.13,1.04,0,1.66-.04,1.99-.13.36-.1,1-.13,2.39-.13,1.4,0,2.03-.04,2.39-.13.41-.11,1.81-.13,9.3-.13s8.89.02,9.3.13c.35.09.98.13,2.26.13,1.28,0,1.91.04,2.26.13.34.09.95.13,1.99.13,1.04,0,1.66.04,1.99.13.32.08.92.13,1.73.13.81,0,1.41.05,1.73.13.29.08.89.13,1.46.13.57,0,1.18.06,1.46.13.27.07.87.13,1.33.13.46,0,1.06.06,1.33.13.27.07.81.13,1.2.13.39,0,.93.06,1.2.13.27.07.81.13,1.2.13.39,0,.93.06,1.2.13.27.07.75.13,1.06.13.32,0,.79.06,1.06.13.27.07.69.13.93.13.24,0,.66.06.93.13.27.07.69.13.93.13.24,0,.66.06.93.13.27.07.69.13.93.13.24,0,.66.06.93.13.27.07.87.13,1.35.13.47,0,.86-.04.86-.08s-.23-.24-.51-.44c-.4-.29-.9-.49-2.37-.97-1.02-.33-3.1-.91-4.61-1.27-1.51-.36-3.08-.73-3.5-.81-.41-.08-.93-.19-1.15-.24-.32-.07-.65-.12-.97-.16-.36-.05-.71-.1-1.06-.16l-1.02-.19c-.29-.05-.81-.13-1.15-.18-.31-.04-.62-.09-.93-.17-.25-.06-.5-.09-.75-.09-.31-.01-.63-.05-.93-.13-.35-.08-.71-.13-1.06-.13-.36,0-.71-.05-1.06-.13-.3-.08-.62-.12-.93-.13-.31-.01-.63-.06-.93-.13-.27-.07-.81-.13-1.2-.13-.39,0-.93-.06-1.19-.13-.3-.08-.9-.13-1.6-.13-.69,0-1.29-.05-1.59-.13-.33-.09-.93-.13-1.86-.13-.83,0-1.5-.04-1.68-.11-.2-.07-1.36-.12-3.34-.15-3.01-.05-3.03-.05-3.23-.25-.2-.19-.2-.25-.2-1.87s0-1.68.2-1.87l.2-.2,3.78-.04c3.73-.04,3.79-.05,4.16-.25.21-.11.46-.33.56-.49s.22-.43.28-.61c.08-.25.08-.42,0-.69-.06-.2-.26-.52-.44-.72-.18-.2-.49-.43-.68-.52-.34-.15-.92-.16-11.96-.16s-11.62,0-11.96.16h0Z"/>
  </g>
</svg>