<?xml version="1.0" encoding="UTF-8"?>
<svg id="Layer_2" data-name="Layer 2" xmlns="http://www.w3.org/2000/svg" viewBox="0 0 226 30.99">
  <defs>
    <style>
      .cls-1 {
        fill: #fff;
        stroke-width: 0px;
      }
    </style>
  </defs>
  <g id="Layer_1-2" data-name="Layer 1">
    <g>
      <path class="cls-1" d="M37.98,20.33V3.34h2.6v14.34h7.67v2.66h-10.27ZM51.82,20.33V3.34h2.6v14.34h7.67v2.66s-10.28,0-10.28,0ZM106.99,21.17c-1.45,0-2.88-.36-4.16-1.06-1.28-.7-2.37-1.7-3.17-2.93-1.63-2.5-1.92-5.64-.77-8.4.43-1.06,1.07-2.02,1.88-2.83.79-.83,1.74-1.49,2.79-1.94,2.19-.94,4.66-.94,6.85,0,2.11.92,3.79,2.62,4.68,4.74.93,2.22.93,4.72,0,6.93-.44,1.06-1.08,2.02-1.89,2.84-.79.82-1.74,1.46-2.79,1.9-1.08.48-2.24.73-3.42.74ZM106.99,5.97c-.83,0-1.65.16-2.4.49-1.49.65-2.68,1.85-3.31,3.35-.98,2.35-.45,5.06,1.33,6.87.57.57,1.24,1.03,1.98,1.35,1.54.66,3.27.66,4.81,0,1.49-.65,2.68-1.85,3.31-3.35.65-1.56.65-3.31,0-4.87-.63-1.5-1.82-2.7-3.31-3.35-.76-.33-1.58-.5-2.4-.49ZM126.85,21.17c-1.18,0-2.34-.24-3.42-.71-2.12-.91-3.8-2.61-4.68-4.74-.93-2.22-.93-4.71,0-6.93.44-1.06,1.09-2.03,1.92-2.83.79-.83,1.74-1.49,2.79-1.94,2.18-.94,4.66-.94,6.84,0,1.05.45,2,1.11,2.79,1.94.81.81,1.45,1.77,1.89,2.83.93,2.22.93,4.71,0,6.93-.88,2.13-2.56,3.83-4.68,4.74-1.09.47-2.27.71-3.45.71ZM126.85,5.97c-.83,0-1.65.16-2.4.49-1.49.65-2.67,1.85-3.31,3.35-.65,1.56-.65,3.31,0,4.87.63,1.5,1.81,2.7,3.31,3.35,1.54.66,3.27.66,4.81,0,1.49-.65,2.68-1.85,3.31-3.35.65-1.56.65-3.31,0-4.87-.63-1.5-1.82-2.7-3.31-3.35-.76-.33-1.58-.5-2.4-.49ZM144.44,20.33h-5.82V3.34h5.82c1.15,0,2.29.22,3.36.65,1.04.41,1.98,1.03,2.77,1.81.78.78,1.39,1.71,1.81,2.74.42,1.03.63,2.12.62,3.23,0,1.12-.19,2.24-.6,3.29-.4,1.03-1.01,1.97-1.78,2.76-.77.79-1.68,1.41-2.7,1.83-1.11.46-2.3.69-3.5.68h0ZM141.21,17.69h3.23c.83.01,1.65-.14,2.42-.44.7-.28,1.34-.69,1.89-1.22.53-.53.95-1.16,1.22-1.87.3-.76.45-1.58.43-2.4,0-.79-.14-1.57-.44-2.31-.29-.69-.72-1.32-1.26-1.85-.54-.52-1.17-.93-1.87-1.19-.76-.29-1.57-.44-2.38-.43h-3.23v11.7h0ZM69.92,17.15v3.18h-2.6v-3.18l-7.03-12.23,2.08-1.58,6.25,11.16,1.92-5.29,1.31,2.59-1.93,5.35ZM84.1,9.55l-5.7,11.66-6.97-16.53,2.4-1.01,4.72,11.66,5.55-11.97,5.52,11.97,4.72-11.66,2.4,1.01-6.96,16.52-5.7-11.65h0ZM2.6,9.66V3.34H0v16.97h2.6v-10.65h0ZM11.59,3.34v16.97h2.6V3.34h-2.6Z"/>
      <path class="cls-1" d="M34.21,8.78c-.89-2.13-2.57-3.83-4.68-4.74-2.18-.94-4.66-.94-6.84,0-1.05.45-2.01,1.12-2.8,1.94-.81.81-1.45,1.77-1.88,2.83-.68,1.64-.87,3.44-.53,5.18-3.94-3.17-7.58-5.33-11.98-2.74l.96,1.68c3.76-2.21,6.76.04,11.73,4.19l1.43,1.19.07.05.19.21c1.23,1.25,2.82,2.09,4.54,2.43,1.72.33,3.5.14,5.1-.56,1.05-.44,2-1.09,2.79-1.9.82-.81,1.47-1.77,1.92-2.84.93-2.22.93-4.71,0-6.93h-.03,0ZM31.85,14.69c-.63,1.5-1.81,2.7-3.31,3.35-1.54.66-3.27.66-4.81,0-1.5-.64-2.68-1.85-3.31-3.35-.65-1.56-.65-3.31,0-4.87.63-1.5,1.81-2.7,3.31-3.35,1.54-.66,3.27-.66,4.81,0,1.49.65,2.67,1.85,3.31,3.35.65,1.56.65,3.31,0,4.87Z"/>
      <path class="cls-1" d="M26.09,13.52c.75,0,1.37-.62,1.37-1.39s-.61-1.39-1.37-1.39-1.37.62-1.37,1.39.61,1.39,1.37,1.39h0ZM13.79,24.51l-.64,5.44h3.14l-.1.81h-3.96l.76-6.25h.8,0ZM23.27,24.51l-.76,6.25h-.85l.76-6.25h.85ZM34.23,24.51l-3.49,6.48-1.92-6.48h.99l1.23,4.46,2.25-4.46h.94ZM43.71,24.51l-.09.78h-3.15l-.24,1.94h2.81l-.1.79h-2.78l-.23,1.94h3.27l-.1.8h-4.15l.76-6.25h4ZM59.67,30.69c-.35.09-.71.14-1.07.14-.48-.01-.95-.12-1.38-.32-.47-.22-.87-.55-1.17-.98-.32-.49-.48-1.06-.46-1.64.02-.56.16-1.1.4-1.61.26-.56.68-1.04,1.21-1.36.52-.32,1.13-.48,1.75-.46.35,0,.71.05,1.05.15.33.09.64.23.93.42l-.36.76c-.23-.16-.49-.28-.76-.36-.27-.09-.55-.13-.84-.12-.51-.02-1.01.12-1.43.39-.36.25-.64.59-.82.99-.17.37-.25.78-.26,1.19-.01.42.12.84.37,1.18.23.31.54.55.9.7.34.15.71.23,1.08.23.32,0,.65-.05.95-.18l.15-1.29h-1.2l.1-.8h2.07l-.31,2.63c-.27.16-.57.28-.88.33h0ZM69.74,29.11h-2.36l-.86,1.64h-.82l3.48-6.48h.05l1.92,6.48h-.93l-.47-1.64h0ZM69.54,28.39l-.61-2.23-1.18,2.24s1.78-.01,1.78-.01ZM83.46,24.31l-.78,6.44h-.83l.5-4.04-2.67,3.24-1.85-3.14-.47,3.89h-.81l.79-6.44,2.5,4.35,3.61-4.35s.02.06.02.06ZM93.5,24.51l-.1.78h-3.15l-.24,1.94h2.81l-.1.79h-2.81l-.23,1.94h3.27l-.1.8h-4.1l.76-6.25h3.98ZM101.58,25.38c-.24-.09-.48-.14-.74-.14-.3-.02-.6.07-.82.27-.18.15-.28.38-.28.61,0,.24.12.46.31.6.27.2.57.38.88.51.37.15.71.37,1,.65.26.28.39.65.36,1.02,0,.33-.09.65-.25.94-.16.28-.4.52-.68.69-.35.2-.75.29-1.16.28-.39,0-.78-.07-1.14-.21-.35-.14-.67-.33-.95-.57l.44-.65c.22.2.47.37.75.48.28.12.57.19.88.19.32.01.63-.09.88-.29.23-.18.37-.45.38-.74.02-.25-.08-.49-.27-.65-.23-.21-.5-.38-.79-.5-.26-.12-.51-.26-.75-.42-.2-.13-.37-.29-.51-.49-.15-.21-.22-.46-.22-.72,0-.33.08-.66.26-.95.18-.27.42-.48.71-.61.32-.15.67-.22,1.02-.21.34.01.68.07,1,.19.3.11.58.25.84.43l-.4.65c-.23-.15-.47-.27-.73-.36h0ZM225.95,0l-10.99,14.74,11.04,14.42-.05-29.16ZM165.94,0v29.15h31.88L219.75,0h-53.82ZM181.25,24.68h-3.77v-14.18l-.04-2.59-4.88.03v-3.44h26.98l-2.66,3.47h-15.64v16.71h0ZM192.76,24.77l-.05-.14-4.78-13.22h3.7l2.13,6.32,10.03-13.24h3.93l-.1.13-14.86,20.14h0Z"/>
    </g>
  </g>
</svg>