<?xml version="1.0" encoding="UTF-8"?>
<svg id="Layer_2" data-name="Layer 2" xmlns="http://www.w3.org/2000/svg" viewBox="0 0 126.15 97.42">
  <defs>
    <style>
      .cls-1 {
        fill: #fff;
        stroke-width: 0px;
      }
    </style>
  </defs>
  <g id="Layer_1-2" data-name="Layer 1">
    <g>
      <path class="cls-1" d="M82.42,39.95c1.8-2.39,3.55-4.69,5.18-6.94h27.75l10.8-14.12h-29.02c6.23-10.13,8.96-17.04,7.16-18.58-.4-.35-1.1-.4-1.97-.13-2.15.62-4.79,2.52-6.63,3.94-1.89,1.42-4.04,3.23-6.41,5.31-5.23,4.65-5.01,4.51-.31.53,2.64-2.22,4.74-3.76,6.32-4.56.49-.22.88-.4,1.27-.49.57-.13.96-.13,1.23.09,1.27,1.06-1.14,6.24-6.15,13.89-5.75,8.85-15.01,21.11-26,34.16l-.79.93c-5.97,7.08-11.81,13.63-17.17,19.29h34.73v-19.93h30.48l10.15-13.23h-40.62v-.17h0ZM67.18,90.57v-.62h1.45l-1.45-7.17v-1.01h.44l2.55,12.17h-.83l-.62-3.36s-1.53,0-1.53,0ZM79.6,93.89l.35-12.17h.79l2.55,10.98,2.59-10.98h.84l.35,12.17h-.71l-.31-10.18-2.46,10.18h-.57l-2.42-10.18-.31,10.18h-.69ZM97.09,93.89v-12.17h4.17v.66h-3.38v4.87h2.77v.62h-2.77v5.36h3.38v.66h-4.17ZM113.33,94.06c-1.75,0-2.72-1.06-2.9-3.14l.71-.22c.04.35.09.66.18.88.04.26.13.49.26.75.13.22.26.44.4.57.18.13.35.26.57.35.22.09.53.13.79.13,1.27,0,1.93-.66,1.93-1.95,0-.49-.13-.97-.4-1.37-.26-.4-.66-.88-1.18-1.42l-2.2-2.22c-.71-.71-1.05-1.46-1.05-2.3s.22-1.42.71-1.82c.49-.44,1.1-.66,1.93-.66h.04c.88,0,1.54.22,1.97.71.49.49.75,1.24.79,2.35l-.71.18c-.09-.88-.26-1.5-.57-1.95-.31-.4-.79-.62-1.45-.62h-.09c-.57,0-1.05.18-1.4.44-.35.31-.53.75-.53,1.32,0,.31.09.62.22.93.13.31.35.62.71.93l2.2,2.17c.57.57,1.01,1.1,1.32,1.64.31.53.49,1.1.49,1.68,0,.88-.26,1.55-.75,1.99-.52.4-1.18.62-1.97.62h0ZM51.9,94.06c-.44,0-.83-.04-1.18-.18-.35-.14-.62-.26-.83-.49-.22-.23-.4-.5-.53-.79-.13-.32-.22-.67-.26-1.01-.04-.35-.09-.75-.09-1.19v-5.18c0-.44.04-.84.09-1.19.04-.35.13-.66.31-.97.13-.31.31-.57.53-.75.22-.22.49-.35.83-.49.35-.14.75-.18,1.18-.18,1.01,0,1.71.31,2.15.88.44.57.66,1.46.66,2.57v.44h-.79v-.49c0-.93-.13-1.64-.44-2.08-.31-.44-.84-.66-1.58-.66-.35,0-.66.04-.92.13-.24.08-.45.22-.62.4-.18.18-.26.35-.35.62-.09.26-.18.53-.18.79-.04.26-.04.62-.04.97v5.31c0,.49.04.88.09,1.19.04.35.18.62.31.88.18.26.4.49.66.62.26.13.62.18,1.06.18.4,0,.71-.04.97-.18.26-.13.49-.31.62-.57.13-.26.26-.57.31-.88.04-.35.09-.75.09-1.19v-1.77h-1.93v-.62h2.68v5.8h-.53l-.13-1.37c-.23.98-.98,1.46-2.12,1.46h0ZM67.18,81.76v1.01-.04l-1.45,7.21h1.45v.62h-1.58l-.66,3.36h-.79l2.55-12.17h.48Z"/>
      <path class="cls-1" d="M65.82,41.54c.66-.93,1.23-2.04,1.67-3.27.44-1.24.66-2.7.66-4.29,0-2.48-.49-4.69-1.49-6.55-1.02-1.89-2.48-3.5-4.26-4.69-1.84-1.28-4.08-2.22-6.67-2.83-2.59-.61-5.53-.93-8.74-.93H10.85L0,33.09h47.73c1.11,0,2.21.25,3.21.75.97.49,1.45,1.42,1.45,2.74,0,1.42-.49,2.39-1.4,2.88-.93.53-2.02.75-3.25.75H0v33.05h37.84c-.93.93-2.02,2.08-3.21,3.27-4.43,4.47-10.36,10.13-14.97,12.74-.44.22-.84.44-1.18.57-.88.35-1.49.4-1.84.09-1.97-1.73,6.19-12.3,6.19-12.3-5.93,6.55-12.43,17.17-9.71,19.47.53.44,1.4.4,2.64-.09,1.1-.44,2.46-1.19,4.04-2.3.62-.44,1.27-.88,1.93-1.42,3.47-2.61,7.86-6.28,12.91-10.93,3.24-2.98,6.41-6.02,9.53-9.12,6.76-6.76,13.25-13.78,19.45-21.06.93-1.11,1.84-2.17,2.72-3.27-.26-.26-.53-.57-.79-.79-.97-.93-2.02-1.64-3.21-2.22-.53-.22-1.01-.44-1.58-.62.93-.31,1.8-.79,2.72-1.42.9-.64,1.69-1.44,2.33-2.35h0ZM51.38,58.31c-.79.66-2.11.97-3.95.97h-30.69v-7.48h30.69c1.84,0,3.17.31,3.95.93.79.62,1.23,1.55,1.23,2.74s-.4,2.21-1.23,2.83Z"/>
    </g>
  </g>
</svg>