<?xml version="1.0" encoding="UTF-8"?>
<svg id="Layer_2" data-name="Layer 2" xmlns="http://www.w3.org/2000/svg" viewBox="0 0 226.01 34.01">
  <defs>
    <style>
      .cls-1, .cls-2 {
        fill: #fff;
        stroke-width: 0px;
      }

      .cls-2 {
        fill-rule: evenodd;
      }
    </style>
  </defs>
  <g id="Layer_1-2" data-name="Layer 1">
    <g>
      <path class="cls-1" d="M49.64,26.31c-.32.68-.76.76-3.81.49V6.85h3.67v5.81c.97-.17,1.83-.42,2.69-.45,2.23-.06,4.46-.03,6.69-.02,1.36,0,1.89.5,1.89,1.84.02,3.68.02,7.37,0,11.05,0,1.26-.53,1.77-1.83,1.78-2.5.02-4.99.04-7.49-.02-.61-.01-1.2-.34-1.82-.53ZM56.96,15.81c-2.08,0-4.02-.07-5.96.05-.49.03-1.32.68-1.34,1.09-.14,2.07-.06,4.16-.06,6.24h7.37v-7.38Z"/>
      <path class="cls-1" d="M68.28,21.45v1.78h11.11v3.64h-12.85c-1.65,0-2.1-.45-2.11-2.09v-10.5c0-1.64.46-2.08,2.11-2.09h10.96c1.45,0,1.95.48,1.96,1.88.01,1.84.01,3.69,0,5.53,0,1.33-.53,1.84-1.89,1.84-2.69.01-5.38,0-8.08,0h-1.22ZM75.62,17.78v-1.91h-7.31v1.91h7.31Z"/>
      <path class="cls-1" d="M210.97,22.36h3.23c.15,0,.41.04.42.1.29,1.32,1.37.74,2.11.77,1.79.07,3.59.02,5.45.02v-1.8h-9.32c-1.31,0-1.87-.51-1.89-1.74-.03-1.92-.03-3.84,0-5.76.02-1.24.58-1.74,1.88-1.75,3.77-.01,7.54-.01,11.31,0,1.3,0,1.81.51,1.85,1.78.02.86,0,1.73,0,2.57-2.23.49-3.58.24-3.96-.68h-7.2v1.97h9.27c1.37,0,1.87.5,1.88,1.84.01,1.81.01,3.61,0,5.42,0,1.25-.54,1.76-1.85,1.76-3.77.01-7.54.01-11.31,0-1.37,0-1.86-.5-1.88-1.85,0-.85,0-1.7,0-2.66Z"/>
      <path class="cls-1" d="M108.43,16.71h-3.06c-.19,0-.53-.02-.54-.08-.31-1.42-1.45-.75-2.21-.79-1.77-.1-3.52-.03-5.35-.03v2.03h9.27c1.38,0,1.88.49,1.89,1.82.01,1.84.02,3.69,0,5.53-.01,1.13-.54,1.66-1.7,1.67-3.88.02-7.76.02-11.64,0-1.06,0-1.65-.54-1.67-1.6-.02-.93,0-1.86,0-2.85h3.63c.09.23.21.51.32.8h7.24v-1.76h-7.96c-.54,0-1.08.02-1.62,0-1.01-.04-1.59-.57-1.62-1.55-.03-2.03-.03-4.06,0-6.1.01-1.04.61-1.6,1.68-1.6,3.88,0,7.76-.02,11.64,0,1.15,0,1.67.54,1.69,1.68.02.9,0,1.79,0,2.83Z"/>
      <path class="cls-1" d="M127.12,19.53v5.53c0,1.28-.51,1.81-1.8,1.81-3.8.02-7.61.02-11.41,0-1.29,0-1.81-.52-1.81-1.81-.02-3.69-.02-7.37,0-11.05,0-1.31.55-1.81,1.92-1.81,3.73-.01,7.45-.01,11.18,0,1.43,0,1.91.5,1.92,1.92,0,1.8,0,3.61,0,5.41ZM123.31,15.87h-7.35v7.33h7.35v-7.33Z"/>
      <path class="cls-1" d="M182.29,26.87h-5.54c-1.38,0-1.92-.48-1.92-1.81-.02-3.69-.02-7.37,0-11.05,0-1.32.54-1.82,1.91-1.82,3.73-.01,7.45-.01,11.18,0,1.42,0,1.93.51,1.93,1.92,0,3.61,0,7.22,0,10.83,0,1.46-.5,1.92-2.03,1.93-1.84,0-3.68,0-5.53,0ZM178.68,23.2h7.34v-7.31h-7.34v7.31Z"/>
      <path class="cls-1" d="M139.67,12.26h3.79v10.99c1.7,0,3.31.08,4.9-.03,1.03-.07,1.33-.86,1.32-1.81-.01-2.63,0-5.27,0-7.9v-1.26h3.72v14.63c-1.32-.15-2.67.33-4.06-.42-.61.11-1.51.36-2.41.39-1.85.07-3.69.02-5.54.02-.99,0-1.69-.45-1.7-1.44-.04-4.35-.02-8.71-.02-13.16Z"/>
      <path class="cls-1" d="M203.55,15.81c-1.72,0-3.23-.03-4.72,0-1.02.02-1.52.6-1.52,1.72-.01,2.67,0,5.34,0,8.01v1.27h-3.72v-14.63c1.29.27,2.68-.45,3.84.48.8-.14,1.69-.4,2.59-.44,1.85-.07,3.69-.02,5.54-.02,1.06,0,1.71.53,1.71,1.56.03,4.32,0,8.64,0,13.04h-3.73v-10.99Z"/>
      <path class="cls-1" d="M90.29,12.17v3.61h-2.52v7.45h2.5v3.64c-1.69,0-3.33.06-4.97-.02-1.08-.05-1.45-.83-1.44-1.82v-9.16l-1.77-.11v-3.51l1.74-.11v-5.28h3.85v5.3h2.61Z"/>
      <path class="cls-1" d="M157.75,15.85l-1.75-.08v-3.52l1.71-.12v-5.3h3.86v5.35h2.61v3.61h-2.54v7.45h2.54v3.61c-1.71,0-3.39.07-5.06-.03-1.01-.06-1.39-.81-1.37-1.77v-9.23Z"/>
      <path class="cls-1" d="M134.63,23.2l1.3.1v3.54c-1.28,0-2.58.12-3.84-.06-.46-.07-1.17-.82-1.17-1.27-.08-6.19-.05-12.39-.05-18.66h3.76v16.35Z"/>
      <path class="cls-1" d="M167.37,26.79v-14.52h3.65v14.52h-3.65Z"/>
      <path class="cls-1" d="M167.32,6.82h3.71v3.56c-1.1,0-2.12.03-3.14-.02-.13-.04-.24-.1-.34-.2-.09-.09-.16-.21-.2-.33-.06-.96-.03-1.93-.03-3.01Z"/>
      <path class="cls-2" d="M17.37.02c3.63,0,7.18,1.12,10.13,3.19,2.95,2.07,5.17,5,6.33,8.37-4.05-1.42-8.25-2.22-12.7-2.1l.06,2.03c4.66-.12,9,.75,13.25,2.3.2,1.06.31,2.13.31,3.2,0,2.52-.57,5-1.67,7.27-1.1,2.27-2.7,4.28-4.69,5.87-1.99,1.59-4.31,2.73-6.81,3.34-2.49.61-5.1.66-7.62.17,3.29-2.74,6.09-5.87,8.21-9.71l-1.82-.97c-2.22,4-5.18,7.25-8.66,10.07-2.69-.91-5.12-2.46-7.06-4.5-1.94-2.05-3.33-4.53-4.06-7.23-.73-2.7-.76-5.53-.1-8.24.66-2.71,1.99-5.23,3.88-7.32.78,4.15,2.16,8.1,4.49,11.81l1.77-1.06c-2.43-3.89-3.83-8-4.59-12.38C9.18,1.47,13.21,0,17.38,0v.02Z"/>
    </g>
  </g>
</svg>