<?xml version="1.0" encoding="UTF-8"?>
<svg id="Layer_2" data-name="Layer 2" xmlns="http://www.w3.org/2000/svg" viewBox="0 0 222.15 44.04">
  <defs>
    <style>
      .cls-1 {
        fill: #fff;
        stroke-width: 0px;
      }
    </style>
  </defs>
  <g id="Layer_1-2" data-name="Layer 1">
    <g>
      <path class="cls-1" d="M56.99.03H0v40.06c0,2.18,1.78,3.93,3.97,3.93h56.91V3.88c.03-2.12-1.73-3.85-3.88-3.85ZM6.73,9.93c0-2.12,1.78-3.88,3.99-3.88h39.41c2.21,0,3.99,1.73,3.99,3.88v16.58c0,2.13-1.78,3.88-3.99,3.88H10.7c-2.21,0-3.99-1.73-3.99-3.88V9.94h.03,0ZM52.39,38.62H8.52c-1.01,0-1.84-.82-1.84-1.81s.82-1.81,1.84-1.81h43.85c1.01,0,1.84.82,1.84,1.81,0,1-.81,1.81-1.81,1.81h0Z"/>
      <path class="cls-1" d="M35.55,9.56h-10.86v17.11h10.86V9.56h0ZM30.07,21.17c-.16.29-.47.47-.8.48-.72,0-1.17-.8-.77-1.41l2.13-3.43h-2.26c-.48,0-.87-.39-.88-.88,0-.48.4-.88.88-.88h3.14c.37,0,.69.13.93.37.27.27.37.56.37.93l-2.74,4.81ZM21.29,9.56h-10.86v17.11h10.86V9.56h0ZM15.7,21.17c-.16.29-.47.47-.8.48-.72,0-1.17-.8-.77-1.41l2.13-3.43h-2.26c-.48,0-.87-.39-.88-.88,0-.48.4-.88.88-.88h3.14c.37,0,.69.13.93.37.27.27.37.56.37.93l-2.74,4.81ZM49.94,9.56h-10.85v17.11h10.85V9.56h0ZM44.54,21.17c-.16.29-.47.47-.8.48-.72,0-1.17-.8-.77-1.41l2.13-3.43h-2.26c-.48,0-.87-.39-.88-.88,0-.48.4-.88.88-.88h3.14c.37,0,.69.13.93.37.27.27.37.56.37.93l-2.74,4.81ZM92.28.03c1.14,0,2.1.4,2.9,1.2.8.8,1.2,1.75,1.2,2.9v5.44c0,1.12-.4,2.07-1.2,2.87s-1.76,1.19-2.9,1.19h-1.6l5.67,6.77h-7.08l-5.69-6.78h-4.9v6.77h-6.79V.03h20.38ZM89.56,8.16v-2.71h-10.88v2.71h10.88ZM110.02,5.45v2.05h14.64v5.39h-14.64v2.04h17.67v5.44h-20.35c-1.14,0-2.1-.4-2.9-1.19s-1.2-1.75-1.2-2.9V4.09c0-1.14.4-2.1,1.2-2.9.8-.8,1.76-1.19,2.9-1.19h20.35v5.44h-17.67ZM159.01.03v5.44h-8.83v14.9h-6.79V5.44h-8.81V.03h24.43ZM186.28.03c1.14,0,2.1.4,2.9,1.19s1.2,1.75,1.2,2.9v5.45c0,1.12-.4,2.07-1.2,2.87-.8.8-1.76,1.2-2.9,1.2h-1.6l5.67,6.77h-7.08l-5.69-6.8h-4.9v6.77h-6.79V.03h20.38ZM183.59,8.16v-2.71h-10.88v2.71h10.88ZM218.05.03c1.14,0,2.1.4,2.9,1.19.8.8,1.2,1.75,1.2,2.9v12.19c0,1.14-.4,2.1-1.2,2.9-.8.8-1.76,1.19-2.9,1.19h-16.28c-1.14,0-2.1-.4-2.9-1.19s-1.2-1.75-1.2-2.9V4.09c0-1.14.4-2.1,1.2-2.9.8-.8,1.76-1.19,2.9-1.19h16.28v.03ZM215.33,14.93V5.44h-10.88v9.46h10.88v.03ZM73.09,24.99c-.8.8-1.17,1.73-1.17,2.87v12.14c0,1.12.4,2.07,1.17,2.87.8.8,1.73,1.17,2.87,1.17h20.25v-12.78h-15.54v5.37h8.81v2.02h-10.83v-9.4h17.56v-5.39h-20.25c-1.14-.03-2.1.35-2.87,1.14h0ZM120.35,23.83h-16.2c-1.12,0-2.08.4-2.87,1.17-.8.8-1.17,1.73-1.17,2.87v16.18h6.73v-6.75h10.78v6.72h6.78v-16.18c0-1.12-.4-2.07-1.2-2.87-.77-.77-1.73-1.14-2.85-1.14ZM117.63,31.9h-10.78v-2.68h10.78v2.68ZM151.34,23.83h-2.98l-6.49,10.17-6.49-10.17h-2.98c-1.09,0-2.05.4-2.85,1.17-.8.8-1.2,1.73-1.2,2.87v16.18h6.79v-10.57l6.73,10.57,6.73-10.57v10.57h6.79v-16.18c0-1.11-.4-2.07-1.2-2.87-.8-.8-1.76-1.17-2.85-1.17h0ZM165.79,23.83h-6.79v20.21h6.79v-20.21ZM187.21,36.34l-10.06-12.54h-3.46c-1.12,0-2.08.4-2.87,1.17-.8.8-1.17,1.73-1.17,2.87v16.18h6.73v-12.54l10.06,12.54h3.46c1.12,0,2.07-.4,2.87-1.17.8-.8,1.17-1.73,1.17-2.87v-16.18h-6.73s0,12.54,0,12.54ZM222.12,29.22v-5.39h-20.25c-1.12,0-2.07.4-2.87,1.17-.8.8-1.17,1.73-1.17,2.87v12.14c0,1.11.4,2.07,1.17,2.87.8.8,1.73,1.17,2.87,1.17h20.25v-12.78h-15.54v5.37h8.81v2.02h-10.83v-9.4h17.56v-.03h0Z"/>
    </g>
  </g>
</svg>