<?xml version="1.0" encoding="UTF-8"?>
<svg id="Layer_2" data-name="Layer 2" xmlns="http://www.w3.org/2000/svg" viewBox="0 0 186.51 92.42">
  <defs>
    <style>
      .cls-1 {
        fill: #fff;
        fill-rule: evenodd;
        stroke-width: 0px;
      }
    </style>
  </defs>
  <g id="Layer_1-2" data-name="Layer 1">
    <g>
      <path class="cls-1" d="M48.52,6.6c.78-.59.22-2.04-.77-1.82l-.08.02c-.36.17-.86.7-.89,1.15-.02.91,1.08,1.21,1.74.64Z"/>
      <path class="cls-1" d="M11.36,13.16h-.1c-1.79.21-2.16,3.13-.08,3.12,2.03-.07,2.36-3.16.18-3.12Z"/>
      <path class="cls-1" d="M19.96,24.94c-.9.69-3.18,2.06-4.37,2.88-.52.36,2.24-.43,2.78-.66,9.66-4,19.08-8.6,28.06-13.99,1.78-1.07,3.48-2.21,5.18-3.4,2.54-1.8,5.02-3.8,6.88-6.31.57-.76,1.12-2.05.09-2.7-2.71-1.7-15.73,3.46-15.55,3.51.18.05,5.35-1.41,7.84-1.58.93-.07,2.08.06,2.42.92.28.73-.24,1.52-.75,2.11-1.29,1.52-2.73,2.92-4.27,4.18-.75.61-1.53,1.19-2.33,1.75-.26.18-2.52,1.42-2.51,1.6-.31-4.65-3.07-9.07-7.11-11.39s-9.25-2.47-13.42-.39c-4.17,2.08-7.18,6.33-7.76,10.95-.58,4.62,1.29,9.49,4.82,12.53ZM35.86,13.56c.09-.21.43-.26.84-.25.96.09,2.01-.59,2.03-1.62.03-.42-.29-.92-.37-1.3-.13-.88,1.21-.29,1.54.26.91,1.5.06,3.62-1.59,4.07l-.1.03c-.82.24-2.47-.13-2.34-1.19ZM31.12,3.43c.41-.24,1.15-.41,1.66-.37.77.19,1.39.73,1.76,1.43.23.6.02,1.44-.28,1.94l-.05.05c-.73.33-.44-.82-.63-1.2-.2-.74-1.17-1.1-1.76-.76-.39.09-.97,1.06-1.26.44-.11-.51.2-1.17.57-1.52ZM29.04,11.01c.19-.53,1.01-.61,1.33-.17.23.32.15.84-.22,1.01l-.08.03c-.53.21-1.29-.26-1.03-.88ZM26.29,19.11c.48-.52,1.34-.05,1.22.63l-.02.09c-.43,1.43-2.17.4-1.2-.73ZM23.5,4.64c1.39-.55,2.06,1.82.88,2.4l-.09.04c-1.55.5-2.24-1.84-.8-2.44ZM19.74,10.99l.06-.04c.29-.19.82.09.66.46-.25.53-1.18.05-.72-.41ZM18.49,17.23c-.12-.2-.15-.45-.14-.68.02-1.09.78-2.46,2.03-2.37.54.04,1.02.38,1.35.81.1.13.2.28.2.45,0,.14-.08.28-.2.32-.03.01-.06.02-.09.01-.06,0-.11-.02-.17-.05-.31-.13-.67-.38-1.03-.27-.32.1-.59.43-.72.73-.26.63.18,1.1.13,1.71-.49-.09-1.1-.2-1.37-.67Z"/>
      <path class="cls-1" d="M.77,28.54c-.28.31-.57.65-.7,1.05-.79,2.6,4.78,1.99,5.99,1.8,1.12-.18,3.66-.53,4.36-1.52,1.23-1.74-2.15-1.86-3.02-1.89-3.47-.12-.71-3.69.51-4.84.88-.83,4.71-3.95,4.55-3.88-3.28,1.46-5.19,3.14-6.2,3.99-1.95,1.63-3.79,3.39-5.49,5.28Z"/>
      <path class="cls-1" d="M42.5,16.29c-.93,1.33-4.47,2.41-6,3.38-4.25,2.67-9.1,4.75-14,6.75.22.95.92.66,1.75,1,1.33.54,4.97,1.43,7.25.88,4.9-1.19,8-3.69,10.38-7.38.73-1.14.64-2.74,1.38-3.88-.03-.28,0-.53-.15-.73-.16-.06-.41,0-.6-.02ZM33.06,26.5c-.84.3-2.23-.17-2.06-1.24.02-.2.11-.43.34-.4.26.01.5.36.78.5.24.13.51.1.74-.03.26-.14.36-.5.56-.6l.06-.02c.16-.04.35.18.42.43.15.58-.34,1.15-.84,1.35ZM36.44,23.86c-.13.08-.36.03-.47-.04-.33-.09-.17-.58,0-.76l.05-.03c.22,0,.27.03.39.07.35.12.26.58.02.76Z"/>
      <path class="cls-1" d="M98.01,80.56c-1.93.84-4.25.47-6.02-.59-1.99-1.19-3.4-3.15-4.42-5.22-2.71-5.53-2.88-11.97-2.33-18.1.68-7.44,2.35-14.78,4.73-21.86.79-2.34,3.22-6.46,1.89-8.93-.54-1.01-1.53-1.25-2.73-1.03-1.55.29-2.99,1.13-4.31,1.96-11.28,7.16-19.45,19.55-25.4,31.21-.47.92-4.92,11.59-4.31,11.66-2.85-.36-2.91-7.89-3.03-9.88-.33-5.54.18-11.12,1.5-16.51.76-3.1,1.78-6.16,3.08-9.07.89-1.99,2.36-6.3-1.74-5.49-1.68.33-3.16,2.4-4.25,3.62-1.55,1.73-2.97,3.58-4.28,5.5-2.59,3.79-4.75,7.84-6.75,11.96-2.26,4.65-4.46,9.38-5.86,14.37-1.13,4.01-2.65,9.5-.13,13.26,1.48,2.2,4.04,3.62,6.69,3.52,2.3-.09,2.65-1.34,2.53-3.48-.21-3.9.04-7.78.44-11.65.11-1.05.8-10.26,1.83-10.26h.25c-.25,5.57-1.06,10.89.23,16.44.84,3.6,2.3,7.53,6.14,8.82,1.92.64,4.09.48,5.9-.44,4.16-2.13,5.47-7.13,6.94-11.17,1.76-4.81,3.66-9.58,6.01-14.14,1.62-3.15,3.45-6.18,5.36-9.16,1.56-2.43,3.14-5.93,5.42-7.72.13-.1.03-.05.25-.13v.13h.13c-.11,1.52-1.52,3.3-2.12,4.7-.76,1.78-1.41,3.61-1.97,5.46-1.11,3.64-1.88,7.38-2.49,11.14-1.14,7.02-1.9,14.84.87,21.59,2.14,5.21,5.05,11.05,11.53,11.17,3.07.06,6.09-1.27,8.35-3.35,2.02-1.85,4.11-4.79,4.64-7.55.45-2.35-1.33-1.3-2.55-.77Z"/>
      <path class="cls-1" d="M42.47,35.88c1.94-2.86,3.98-6.13,6.53-8.47-.64-6.11-21.09,5.45-23.51,7.04-3.11,2.05-6.06,4.34-8.78,6.89-1.01.95-1.99,1.94-2.72,3.11-.73,1.17-1.2,2.55-1.08,3.93.1,1.21.64,2.34,1.36,3.32.74,1,2.64,3.54,4.11,3.21.99-.22,1.69-2.2,2.22-2.97.94-1.34,1.92-2.66,2.94-3.94,1.93-2.44,4.05-4.84,6.16-7.05.42-.44,2.48-3.05,3.05-3.05h.5s-.63,1.12-.69,1.21c-.44.64-.9,1.28-1.37,1.91-1.25,1.67-2.45,3.39-3.58,5.14-4.04,6.26-7.3,13.06-9.31,20.24-.79,2.82-1.37,5.92-.17,8.59.77,1.72,2.22,3.03,3.89,3.85,1.44.71,3.81,1.59,5.24.43.1-.08.2-.18.28-.29.48-.66.23-1.55.3-2.3.09-1.01.2-2.01.33-3.02.26-2.01.58-4,.98-5.99.79-3.93,1.84-7.8,3.16-11.58,2.49-7.15,5.92-13.98,10.18-20.24Z"/>
      <path class="cls-1" d="M179.25,68.67c-.48-.72-.82-1.52-1.09-2.34-1.07-3.27-1.31-7.11-.99-10.52.37-4.02.82-8.09,1.96-11.98.71-2.42,1.7-4.82,1.64-7.34,0-.42-.05-.85-.25-1.22-.27-.5-.8-.81-1.35-.95-.67-.17-1.47-.19-2.15-.05-.23.05-.47.11-.72.19-3.72,1.12-6.54,3.83-8.97,6.78-.86,1.05-1.65,2.15-2.37,3.29-.5.8-1.14,1.78-1.99,2.82-.41.5-.03-1.43,0-2.07.04-.79,0-1.61-.35-2.34-.1-.2-.22-.39-.42-.49-.93-.46-2.16.96-2.61,1.58-.61.83-1.05,1.77-1.53,2.68-1.09,2.06-1.91,4.25-2.6,6.48-.72,2.3-1.31,4.7-1.12,7.1.06.71.18,1.42.46,2.08.31.72.8,1.36,1.37,1.9.95.89,2.18,1.5,3.46,1.73.99.17,2.76.22,3.6-.45.52-.41.54-.94.52-1.55-.02-.71.11-1.42.23-2.13.65-3.82,1.82-7.55,3.47-11.06.79-1.67,1.58-3.33,2.54-4.92.48-.78.99-1.55,1.53-2.29.18-.24,1.33-2.02,1.6-1.97.48.09.49.08.63.5.14.43-.38,1.59-.53,2-.34.96-.67,1.91-1,2.87-2.58,7.55-4.68,15.47-3.66,23.51.14,1.1.33,2.21.74,3.25.43,1.08,1.09,2.06,1.84,2.95.99,1.17,2.2,2.22,3.65,2.73,1.45.51,3.06.44,4.53,0s2.81-1.24,4.04-2.17c.67-.5,1.3-1.05,1.87-1.66.48-.52.81-1.22,1.3-1.71,0-.29,0-.58,0-.87-3.34-.63-5.69-2.04-7.26-4.36Z"/>
      <path class="cls-1" d="M158.04,37.16c-.44-.36-5.12.74-5.08,1.11.09.98.85,1.97,1.38,2.62v.12c-1.04-.15-1.9-1.29-2.13-2.24-.07-.27-2.66,1.2-2.84,1.31-.98.64-1.86,1.42-2.63,2.3-.6.69-.88,1.89-1.67,2.37-.26.15-2.42-.5-3.38.12-.5.32-.82,1.19-1.25,1.62-.43.42-1.13.92-1.63,1.25.01.56.08.68.25,1,1.22-.03,1.91-.81,2.76-1.15.59.73,1.83,2.16,3.37,2.77.1.08-1.07,1.85-1.63,2.37.12.26.41.71.75,1,1.46-1.49,4.98-2.12,3.76-5.11.79-.71,1.67-1.02,2.63-1.62.83-.52,1.63-1.11,2.38-1.74.62-.53,1.27-1.05,1.85-1.64,1.17-1.2,4.15-5.6,3.11-6.45ZM153.27,43.27c-.78,1.65-3.61,3.83-5.5,2.75l-.08-.05c-2.47-1.95.92-4.01,2.63-4.9.32-.18.68-.32,1.04-.32,1.12.04,2.25,1.48,1.9,2.51Z"/>
      <path class="cls-1" d="M150.95,44.38c-.33.04-.67.08-1,.12-.15.08-.3.43-.5.5-.39.14-.85-.04-1.13.12h-.13c.13.09.12.08.38.12.79.39,3.12-.91,3.63-1.49.09-.13.08-.12.13-.37-.67.16-.88.76-1.38,1Z"/>
      <path class="cls-1" d="M138.48,43.78l-.08.03c-1.21.79.18,1.97,1.04,1.06.43-.56-.41-1.27-.96-1.1Z"/>
      <path class="cls-1" d="M142.85,51.82c.56-.35,1.03-.94,1.11-1.15-.74-.52-1.64-1.09-2.07-1.94-.25.12-.75.69-.86.96.23.75,1.1,1.8,1.82,2.13Z"/>
      <path class="cls-1" d="M150.17,51.82h-.08c-.36.14-.74.54-.96.87-.25.56.5,1.33,1.05,1.37.43-.05,1.32-.6,1.27-1.14-.09-.5-.79-1.09-1.28-1.1Z"/>
      <path class="cls-1" d="M146.01,59.11c.53.3.88,1.35.87,2.01-.01.6.34.52.38,0,.05-.64.33-1.65.66-1.94.21-.19,1.53-.53,2.18-.74.39-.13.24-.26-.04-.3-.49-.06-1.72-.34-2.04-.6-.41-.34-.72-1.44-.79-1.95-.06-.49-.31-.42-.35,0-.05.46-.42,1.49-.62,1.75-.31.41-1.55.79-2.2.8-.4,0-.35.45.03.43.27-.01,1.59.37,1.91.56Z"/>
      <path class="cls-1" d="M136.88,47.33c-.12.15-.49.4-.62.45-.2.07-.71-.1-.93-.25-.14-.09-.23.07-.09.15.09.06.45.5.52.63.11.23-.02.66-.17.88-.14.2,0,.25.13.09.17-.21.5-.48.68-.5.11-.01.64.18.91.26.16.05.14-.03.06-.11-.15-.14-.5-.52-.55-.68-.06-.21.09-.66.19-.84.09-.18,0-.21-.12-.08Z"/>
      <path class="cls-1" d="M85.75,92.29c.19.13.51.13.88.13-.19-.13-.51-.13-.88-.13Z"/>
      <path class="cls-1" d="M88.13,92.42c-.13-.09-.12-.08-.38-.13.13.09.12.08.38.13Z"/>
      <path class="cls-1" d="M89.5,92.42c-.13-.09-.12-.08-.38-.13.13.09.12.08.38.13Z"/>
      <path class="cls-1" d="M150.24,63.33c-.2-.07-.55.09-.7.16-3.55,1.66-7.44.81-10.67-1.14-.64-.38-1.35-.78-1.87-1.31-.34-.34-.88.43-1.17.55-.61.24-1.37.11-1.96-.13-1.12-.46-2.3-1.39-2.65-2.59-.31-1.05-.06-2.3.93-2.9.17-.1,1.13-.48,1.11-.68-.05-.64-.43-1.19-.52-1.83-.1-.75-.08-1.51-.01-2.26.36-3.96,3.45-7.96,7.53-10.79.41-.29-4.75-.09-8.54,1.31-3.97,1.47-6.83,4.32-6.83,4.32.26.05.63.13.63.13-.29.69-4.23,5.33-4.25,5.63h.38l-2,3.25c.37-.04.75-.08,1.13-.13-.08.74-1.09,1.99-1,2.13.19.11,1,.13,1,.13-.64,1.66-2.28,2.39-2.25,4.88.7-.97,1.62-1.78,1.95-2.23.07.89-.21,2.96-.32,3.98.6,0,.79.07,1.13.25v1.38c-.45,1.34-5.33,4.88-5.38,5,.13.04,4.59-.67,7.94-1.85.03,1.28-2.46,3.03-3.41,3.91,1.83.1,5.66-.97,7.1-.31-.17.76-1.42,1.69-4.25,2.38,1.33.58,4.28-.3,6.25-1.5-.29-.03-1.13-.13-1.13-.13.38-1.11,3.03-1.32,3.25-1.25-.44.64-1.76,1.24-1.88,1.38,1.3.38,2.51-.62,3.36-.92.73-.25,2.68-.57,3.01-.46-.39,1.03-4.43,2.27-5,2.63.04.29,3.9,1.5,11.64-2.78,4.79-2.65,7.69-7.66,7.6-8.04-.02-.08-.06-.12-.12-.14ZM129.97,43.22l.02.05c0,.59-.66.97-1.1,1.28-.41.33-1.24.85-1.75.52-.14-.64,2.09-2.1,2.82-1.85ZM125.34,49.95l.04-.08c.16-.43.51-.36.83-.26.52.13.22.68-.08.88-.36.41-1.07-.04-.79-.54ZM123,58.73c-.4-.93-.35-2.12.06-3.04.14-.31.31-.58.51-.83.59-.72,1.43-1.17,2.39-1.24,1.17-.09,2.4.38,3,1.43.15.24.3.64.08.82-.22.2-.83-.13-1.42-.29-1.72-.46-3.52,1.3-2.91,3.02.27.72,1.1,1.42.2,1.51-.83.08-1.62-.68-1.92-1.37ZM124.71,63.95c.18.32.58,1.04,1.14,1.45.41.3,1.25.56,1.82.54-.02.08,0,.31.06.37-.76.27-3.07-.14-3.02-2.36ZM127.93,66.24c-.03-.08-.05-.21-.03-.31.28-.04.83-.21.99-.36-.26.41-.76.6-.97.67ZM129.47,64.82s-1.27.99-2.94.17c-1.38-.68-1.59-1.76-1.61-2,.13-.88,1.69-2.37,3.44-1.51,1.57.78,1.4,2.6,1.1,3.34ZM129.78,52.02l-.08.02c-.44.02-1.08-.33-1.07-.82.08-.41.36-.87.74-1.09.39-.19.88-.03,1.17.26.6.58-.2,1.4-.76,1.63ZM130.28,47.63l-.08-.05c-.69-.31-1.06-1.4-.55-2.04.17-.27.5-.56.83-.47.19.07.17.25.14.43-.08.37-.06.91.31,1.11.26.14.57.1.85.11.51.02.34.6.07.84-.42.44-1.09.33-1.57.06ZM134.77,65.66l-.09.02c-.94.05-.99-.99-.39-1.48.27-.27.78-.08,1.07.11.43.42-.08,1.21-.59,1.35ZM138.79,63.83c.12-.08.35.04.5.06.37.14.77.29,1.18.28l.04.05c-.04.28-.05.5-.27.68-.24.07-.53,0-.76-.03-.2-.05-.42-.08-.58-.21-.07-.13-.08-.29-.11-.43,0-.1-.07-.31,0-.4ZM140.78,68.38l-.06.05c-.63.28-1.44.08-2-.24-.41-.17-.47-.71.03-.77.33-.03.66.08,1.01-.08.59-.2.83-.66.6-1.23-.05-.19-.17-.51,0-.64.26-.15.73.18.93.38.77.72.01,1.89-.5,2.53Z"/>
      <path class="cls-1" d="M138.38,52.79c-.54.1-.66-.68-1.13-1-.6-.41-1.35-.37-2.02-.15-.84.28-1.04.91-1,1.62-.03-.5,1.4-1.28,2.26-.44.07.07-.04.1-.13.08-.9-.2-2.52.29-2.44,1.97,0,.11.29.98.47.79-.29.31-.37.08-.88.25-.65.21-1.4.97-1.63,1.63-.28.95.12,1.87.67,2.29,0,0-.46-1.56.51-2.24.26-.18.72.13.51.45-.25.39-.42,1.03.08,1.37.34.23,1.06.19,1.23.06.24-.18.32-.53.6-.67.28-.14.56.09.51.39-.16.9-1.35,1.6-1.59,1.72,0,0,1.09-.15,1.59-.52.89-.64.74-1.36,1-1.16.42.32.3,1.03-.3,1.44,0,0,1.02.08,1.37-.87.09-.26.71.26,1.19.48.65.31,2.03-.33,2.25-.75,1.42-2.68.69-4.9-1.38-4.75h-.13c.17-.47,1.73-2.43,2.18-2.72-.48-.28-1.29-1.22-1.4-1.73-1.32,1.1-1.34,1.93-2.4,2.45ZM140.62,58.95l.03-.03h.16c.11.13.02.27-.03.37,0,.1-.06.17-.14.1-.05-.09,0-.31-.02-.44ZM140.36,59.65l.02.04s-.06.18-.09.27c-.04.09-.12.11-.21.1-.14-.01-.33.03-.42-.03-.11-.18.07-.3.21-.39.12-.17.37-.04.49,0ZM139.85,56.5c-.37,0-.41-.51-.66-.72-.27-.33-1.05-.25-1.16-.67-.01-.14.12-.28.27-.33l.08-.02c.46-.04.97.11,1.24.49.26.27.68.99.23,1.25Z"/>
      <path class="cls-1" d="M118.11,46.57c-.25-2.26-1.03-4.37-3.17-5.43-1.92-.94-4.61-1.06-6.25.5-.85.81-1.32,2.13-1.68,3.23-.92,2.82-1.13,6.07.2,8.79.5,1.03,1.53,3.04,3.72,4.56-.83,1.65-3.44,5.95-8.77,7.38-.75.2-4.25-.45-1.47-1.91,3.12-1.65,5.7-6.54,6.15-7.33-3.26,3.89-7.83,5.75-8.72,5.16-1.64-1.08,1.67-3.1,2.25-5.5-1.17,1.74-4.35,3.88-5.38,2.37-.62-.9.27-5,.81-7.13,1.06-4.15,3.15-7.32,6.31-9.24,1-.42,2-.83,3-1.25.97-.24,2.25.28,2.88-.25.1-.12.18-.34.25-.5-1.07-1.02-1.96-2.04-3.42-2.5-1.29-.4-2.72-.39-4.02-.03-2.22.62-4.09,2.13-5.65,3.83-3.26,3.55-5.44,8.08-6.16,12.85-.73,4.77,0,9.74,2.05,14.1.93,1.97,2.12,3.8,4.05,4.89.72.41,1.51.71,2.32.85,2.06.37,4.18-.24,6.09-1.11,1.32-.6,2.58-1.33,3.76-2.17,1.79-1.27,3.37-2.82,4.71-4.55,2-2.59,3.45-5.57,4.53-8.65,1.26-3.58,2.02-7.18,1.59-10.99ZM112.26,56.17c-2.14-1.93-2.37-6.54-2.02-8.5.08-.46.79-2.39,2.27.47.9,1.74.4,6.67-.26,8.03Z"/>
    </g>
  </g>
</svg>