<?xml version="1.0" encoding="UTF-8"?>
<svg id="Layer_2" data-name="Layer 2" xmlns="http://www.w3.org/2000/svg" viewBox="0 0 225.83 48.2">
  <defs>
    <style>
      .cls-1 {
        fill: #fff;
        stroke-width: 0px;
      }
    </style>
  </defs>
  <g id="Layer_1-2" data-name="Layer 1">
    <g>
      <path class="cls-1" d="M0,0h3.31v10.81h.11c.68-2.07,2.51-2.88,6.16-2.88h5.02c7.87,0,10.27,2.19,10.27,8.51v3.45c0,6.79-4.11,8.28-10.04,8.28h-4.56c-3.42,0-6.04-1.04-7.07-3.45h-.11v3.11H0V0ZM21.56,15.99c0-4.49-2.28-5.41-6.73-5.41h-4.45c-4.45,0-7.07.81-7.07,5.41v3.68c0,3.57,1.6,5.64,6.39,5.64h5.36c5.36,0,6.5-1.84,6.5-5.64v-3.68h0ZM68.89,10.93h-4.22v-2.65h4.22V3.68h3.31v4.6h13v2.65h-13v9.66c0,3.68,1.25,4.72,4.79,4.72h1.03c4.33,0,5.02-.92,5.02-5.06v-1.5h2.62v2.19c0,3.91-.34,7.02-7.41,7.02h-1.82c-6.16,0-7.53-2.99-7.53-6.21v-10.81h0ZM89.88,8.17h6.84v3.68h.11c.8-3.11,3.76-4.03,7.07-4.03,5.36,0,7.41,2.3,7.41,7.71,0,.46,0,1.03-.11,1.72h-6.27c0-2.42-.57-3.57-3.42-3.57-2.51,0-4.22.92-4.22,3.34v10.81h-7.3V8.17h-.11ZM114.06,20.94c0-5.29,3.65-5.64,10.72-5.64,3.99,0,6.16.12,7.64,1.61v-1.72c0-1.96-.57-2.65-3.42-2.65h-4.33c-2.17,0-2.74.23-2.85,1.61h-7.07c0-5.29,2.62-6.21,8.78-6.21h8.44c5.02,0,7.64,2.42,7.64,7.02v12.89h-6.96v-2.18c-2.05,2.07-2.74,2.53-6.39,2.53h-5.02c-4.45,0-7.3-.92-7.3-5.52v-1.72h.12ZM127.06,23.47c5.02,0,5.48-.81,5.48-2.07,0-1.5-.46-1.96-4.45-1.96h-3.19c-3.08,0-3.76.69-3.76,2.3,0,1.27,1.03,1.73,3.88,1.73h2.05ZM143.37,16.22c0-4.95,1.14-8.28,10.38-8.28h2.17c2.97,0,6.04.81,6.5,3.91h.11V0h7.3v27.84h-6.84v-3.57h-.11c-.8,2.42-2.62,3.91-7.07,3.91h-2.17c-9.24,0-10.38-3.34-10.38-8.28v-3.68h.11ZM150.55,19.1c0,2.19.34,3.45,3.88,3.45h4.33c2.85,0,4.45-.69,4.45-3.57v-1.96c0-2.99-1.48-3.57-4.45-3.57h-4.33c-3.54,0-3.88,1.27-3.88,3.45v2.19ZM173.94,20.94c0-5.29,3.65-5.64,10.72-5.64,3.99,0,6.16.12,7.64,1.61v-1.72c0-1.96-.57-2.65-3.42-2.65h-4.33c-2.17,0-2.74.23-2.85,1.61h-7.07c0-5.29,2.62-6.21,8.78-6.21h8.44c5.02,0,7.64,2.42,7.64,7.02v12.89h-6.73v-2.18c-2.05,2.07-2.74,2.53-6.39,2.53h-5.02c-4.45,0-7.3-.92-7.3-5.52v-1.72h-.11ZM187.05,23.47c5.02,0,5.48-.81,5.48-2.07,0-1.5-.46-1.96-4.45-1.96h-3.31c-3.08,0-3.76.69-3.76,2.3,0,1.27,1.03,1.73,3.88,1.73h2.17,0ZM204.39,8.17h6.84v3.68h.11c.8-3.11,3.76-4.03,7.07-4.03,5.36,0,7.41,2.3,7.41,7.71,0,.46,0,1.03-.11,1.72h-6.27c0-2.53-.57-3.68-3.54-3.68-2.51,0-4.22.92-4.22,3.34v10.81h-7.3V8.17h0ZM121.93,45.79h-1.03v-1.04c-.34.81-1.14,1.04-2.28,1.04h-1.48c-1.94,0-3.19-.46-3.19-2.65v-1.15c0-1.96.8-2.76,3.31-2.76h1.6c1.14,0,1.71.23,1.94.92v-3.45h1.03v9.09h.11ZM115.08,43.26c0,1.26.34,1.84,2.05,1.84h1.71c1.6,0,2.05-.69,2.05-1.84v-1.15c0-1.5-.91-1.73-2.28-1.73h-1.37c-1.48,0-2.17.23-2.17,1.73v1.15h0ZM123.98,39.58h1.03v.92c.34-.81,1.14-1.04,1.94-1.04h1.03c1.94,0,2.62.69,2.62,2.19v.69h-1.03v-.23c0-1.5-.34-1.84-2.17-1.84h-.68c-1.14,0-1.6.69-1.6,1.5v3.91h-1.03v-6.1h-.11ZM131.85,36.93h1.03v1.15h-1.03v-1.15ZM131.85,39.58h1.03v6.21h-1.03v-6.21ZM134.13,39.58h1.14l2.96,5.41,2.97-5.41h1.14l-3.54,6.21h-1.26l-3.42-6.21h0ZM143.14,41.99c0-2.3,1.6-2.53,3.08-2.53h1.71c1.82,0,3.19.46,3.19,2.76v.69h-6.84v.35c0,1.38.68,1.84,2.51,1.84h1.48c1.26,0,1.82-.11,1.94-1.15h1.03v.11c0,1.38-1.14,1.84-3.08,1.84h-2.17c-1.37,0-2.96-.23-2.96-2.53v-1.38h.11ZM149.98,41.65c0-.69-.46-1.27-2.17-1.27h-1.48c-1.6,0-2.05.23-2.17,1.73h5.82v-.46h0ZM152.72,39.58h1.03v1.04c.34-.92,1.26-1.15,2.51-1.15h1.6c1.94,0,2.62,1.04,2.62,2.07v4.26h-1.03v-3.91c0-.92-.23-1.5-2.28-1.5h-.23c-2.4,0-2.97.46-2.97,1.96v3.57h-1.03v-6.33h-.23ZM165.72,36.93h1.03v3.45c.23-.69.8-.92,1.94-.92h1.6c2.51,0,3.31.69,3.31,2.76v1.15c0,2.19-1.37,2.65-3.19,2.65h-1.48c-1.14,0-1.94-.35-2.28-1.04v1.04h-1.03v-9.09h.11ZM172.57,41.99c0-1.5-.68-1.73-2.17-1.73h-1.37c-1.37,0-2.28.23-2.28,1.73v1.15c0,1.15.46,1.84,2.05,1.84h1.71c1.71,0,2.05-.57,2.05-1.84v-1.15h0ZM175.65,47.28c1.6,0,1.94-.11,2.51-1.38h-.23l-3.54-6.33h1.14l2.96,5.52,2.74-5.52h1.14l-3.54,7.02c-.68,1.27-1.03,1.5-3.19,1.61v-.92h0ZM187.51,40.38h-1.37v-.81h1.37v-.57c0-1.5.91-2.07,2.05-2.07h1.94v.81h-1.82c-.8,0-1.03.46-1.03,1.04v.81h2.97v.81h-2.97v5.41h-1.03v-5.41h-.11ZM199.26,45.21c-.34.57-.68.69-2.28.69h-2.51c-1.6,0-1.94-.69-1.94-1.84v-.46c0-1.38,1.03-1.61,2.85-1.61h1.71c1.37,0,1.82.11,2.17.69v-1.15c0-1.15-.68-1.27-2.28-1.27h-1.48c-1.26,0-1.6.35-1.6.81v.23h-1.14v-.35c0-1.15.68-1.61,2.62-1.61h1.6c1.94,0,3.31.35,3.31,2.19v4.14h-1.03v-.46ZM199.26,43.83c0-.81-.8-.92-2.4-.92h-1.6c-1.37,0-1.71.23-1.71,1.04v.23c0,.69.23,1.04,1.71,1.04h1.37c1.94,0,2.62-.11,2.62-.92v-.46h0ZM201.77,41.99c0-2.3,1.6-2.53,3.08-2.53h1.71c1.94,0,2.74.81,2.74,2.07v.12h-1.03v-.11c0-1.04-.68-1.27-1.71-1.27h-1.94c-1.03,0-1.94.11-1.94,1.73v1.26c0,1.38.8,1.73,2.17,1.73h1.71c1.03,0,1.82-.35,1.82-1.27v-.23h1.03v.23c0,1.61-.8,2.19-2.74,2.19h-2.4c-.91,0-2.62-.23-2.62-2.53v-1.38h.11ZM211.69,40.38h-1.37v-.81h1.37v-1.5h1.03v1.5h4.11v.81h-4.11v3.11c0,1.15.46,1.5,1.6,1.5h.34c1.37,0,1.6-.35,1.6-1.61v-.46h.8v.69c0,1.26-.11,2.18-2.4,2.18h-.57c-1.94,0-2.4-.92-2.4-1.96v-3.45h0ZM218.08,43.6h1.03v.35c0,.81.46,1.04,1.48,1.04h2.28c1.6,0,2.05-.11,2.05-1.04,0-.58-.11-.92-1.37-.92h-3.42c-1.48,0-2.05-.46-2.05-1.61v-.35c0-1.04.57-1.61,3.19-1.61h1.6c2.4,0,2.74.69,2.74,1.61v.35h-1.03v-.11c0-.92-.68-1.04-1.82-1.04h-1.82c-1.48,0-1.82.11-1.82.81v.23c0,.46.11.81,1.26.81h2.74c1.6,0,2.62.11,2.62,1.84s-1.6,1.84-2.85,1.84h-1.94c-1.6,0-2.96,0-2.96-1.84v-.35h.11,0ZM47.33,10.59h-4.79c-5.13,0-6.39.81-6.73,5.29h18.36v-1.27c0-2.07-1.48-4.03-6.84-4.03Z"/>
      <path class="cls-1" d="M48.13,5.06h-5.93c-7.99,0-13.69,1.96-13.69,10.12v5.52c0,8.28,5.82,10.12,13.69,10.12h6.05c7.98,0,13.69-1.96,13.69-10.12v-5.52c0-8.28-5.82-10.12-13.8-10.12h0ZM57.49,18.52h-21.56v1.27c0,4.49,2.17,5.64,7.87,5.64h4.45c4.11,0,5.82-.58,5.93-3.57h3.31v.35c0,4.49-3.65,5.87-9.81,5.87h-5.93c-4.22,0-9.12-.81-9.12-8.05v-4.26c0-7.13,4.9-7.94,9.47-7.94h5.25c5.82,0,10.04,1.49,10.04,8.51v2.19h.11Z"/>
    </g>
  </g>
</svg>