<?xml version="1.0" encoding="UTF-8"?>
<svg id="Layer_2" data-name="Layer 2" xmlns="http://www.w3.org/2000/svg" viewBox="0 0 173.54 73.27">
  <defs>
    <style>
      .cls-1 {
        fill: #fff;
        stroke-width: 0px;
      }
    </style>
  </defs>
  <g id="Layer_1-2" data-name="Layer 1">
    <g>
      <path class="cls-1" d="M24.19,48.47h12.76c-.81.52-1.16.93-1.74,1.27-2.15,1.39-4.18,3.01-6.26,4.51-1.86,1.33-3.83,2.6-5.68,3.93-2.15,1.56-4.41,2.83-6.5,4.51-1.1.87-2.38,1.5-3.48,2.31-1.94,1.37-3.88,2.76-5.8,4.16-1.74,1.21-3.42,2.43-5.22,3.59-.64.4-1.39.75-2.26.29,4.93-7,9.8-14,14.73-21-1.33-.35-5.63-.4-7.13-.06.71-1.1,1.44-2.18,2.2-3.24,1.16-1.62,2.38-3.18,3.6-4.8.87-1.21,1.68-2.43,2.55-3.59.81-1.16,1.68-2.26,2.49-3.41,1.33-1.85,2.67-3.7,4.18-5.78h-8.47c1.45-2.89,3.13-5.38,4.7-7.92,1.62-2.6,3.19-5.2,4.87-7.75s3.25-5.15,4.87-7.75c1.62-2.55,3.25-5.15,4.93-7.75h39.79c-12.12,9.6-24.19,19.2-36.42,28.92,2.03.29,3.83.12,5.57.17s3.48,0,5.34,0c-7.95,6.48-15.66,12.84-23.61,19.38ZM156.37,60.61c-1.45,1.39-2.15,3.3-3.25,4.86-1.16,1.62-1.86,3.59-3.77,4.86-.81.23-1.8-.06-2.9.35-.87.29-2.09.46-3.07-.23-.17-.12-.75.29-.93.17-.41-.29-.7-.29-1.04.06-.12.12-.41.12-.52.06-.17-.06-.29-.29-.52-.46.93-2.26,2.49-4.11,3.65-6.25.87-1.68,2.09-3.12,2.96-4.86.66-1.3,1.44-2.54,2.32-3.7.75-.98,1.1-2.25,1.57-3.41.12-.29,0-.81-.17-1.1-1.28-2.49-2.61-4.97-4.18-7.4-1.28-1.97-2.49-3.93-3.77-5.96-.46-.75-.75-1.62-1.28-2.31-.46-.58-.29-1.1-.29-1.79,1.28-.17,2.61.06,3.89-.4.64-.23,1.57-.29,2.32.23.35.23,1.04.23,1.33.06,1.28-.87,2.03.06,2.67.75,1.04,1.27,1.68,2.78,2.44,4.22.29.58.46,1.16.81,1.68,1.45,2.43,3.13,4.74,4.52,7.23,1.16,2.02,2.49,3.99,3.83,5.9.87,1.33,1.8,2.6,2.44,4.05.7,1.68,1.91,3.01,2.9,4.45,1.45,2.03,2.67,4.22,4.41,6.07.41.46.58,1.1.81,1.68-1.22.87-2.44.98-3.65,1.27-1.91.46-3.83.12-5.57.29-2.78-3.36-5.34-6.83-7.95-10.35h0ZM96.74,51.19c2.2.69,3.83,2.14,4.99,4.05.12.23.29.4.35.69.75,2.72.52,5.38-.41,7.98-.35.98-.75,2.08-1.74,2.72-.7.46-.87,1.33-1.68,1.79-.64.35-1.04.81-1.91.81-.64,0-1.22.58-1.91.75-3.89,1.16-7.83.75-11.89.81v-3.12c0-.81.41-1.62.12-2.54.12.11.29.29.35.29.64-.4,1.33-.35,2.03-.29,1.74.23,3.36-.35,4.93-.87,1.74-.52,3.07-2.66,3.07-4.51.06-1.56-.17-3.07-1.51-3.99-.71-.53-1.52-.93-2.38-1.16-.99-.29-2.15-.06-3.07-.52-1.04-.46-2.09-.17-3.07-.41-.17.35-.29.58-.52,1.16v-5.55c.46,0,.99-.06,1.45,0,1.68.29,3.19-.4,4.76-.87,2.44-.75,3.94-3.41,3.48-5.9-.23-1.33-1.28-2.26-2.38-2.95-.87-.52-1.8-.98-2.9-.87-1.04.12-2.15,0-3.25.06-.35,0-.7.17-1.16.29v-4.11c0-.64.41-.98.93-1.04,2.67-.06,5.28-.17,7.89.06,1.57.12,3.19.46,4.52,1.22,1.39.81,3.19,1.27,3.77,3.07,1.8,1.85,1.86,3.47,1.22,6.71-.12.52-.17.98-.29,1.5-.46,1.97-1.68,3.3-3.42,4.22,0,.11-.12.29-.35.52ZM127.66,38.29c-1.28.23-2.55-.29-3.89.4-.17-.29-.46-.64-.87-1.27v-4.4c.93.17,1.8-.12,2.73.35.58.29,1.57.29,2.15,0,.93-.46,1.8-.29,2.73-.35.7-.06,1.39-.06,2.09-.35.58-.23,1.39-.17,1.97,0s1.1.64,1.62.98c.87,4.57.35,9.25.46,13.94.06,4.74,0,9.43,0,14.17,0,.58-.29,1.16-.35,1.68-.06,1.16-.52,2.37.35,3.47-.12.81.12,1.62-.35,2.49-.7,1.27-.52,1.33-1.68,1.33-1.51,0-3.02.29-4.47-.06-2.55-.58-5.05-.17-7.6-.4-.75-1.97.46-3.93.17-6.13,1.68.17,3.25.35,4.87.58.06-8.79.06-17.47.06-26.43h0ZM108.17,33.72c.81-.64,1.62-.64,2.49-.64,1.62.06,3.25-.06,4.87,0,.75,0,1.62-.35,2.26.35.12.12.64.12.75-.06.64-.64,1.39-.17,2.15-.4v4.8c-1.51.17-3.13.29-4.7.46-.06.75-.35,1.33.23,1.79.06.06.12.29.12.35-.87,1.91-.29,3.93-.35,5.9-.12,2.02-.29,4.11.06,6.07.35,2.2.35,4.34.29,6.54,0,1.33-.58,2.66-.41,4.11.06.35-.12.75.06.98.17.29.35,1.04.93.35h4.29v6.01h-8.35c-.7,0-1.39.06-2.09.35-.46.17-1.16-.29-2.03-.58-.23-.4.35-1.45-.64-1.85-.17-.06-.29-.75-.17-.87.64-.64.35-1.39.35-2.08.06-1.5-.12-2.95.06-4.45.17-1.97-.46-3.76-.46-5.73.06-1.97-.06-3.93,0-5.84.06-1.45.29-2.83.35-4.28.06-1.56,0-3.12,0-4.63v-4.45c0-.17-.06-.52,0-.58.87-.52,0-1.04-.06-1.62h0ZM81.32,33.95v36.32h-7.48c-.29-1.74-.41-29.04-.12-36.32h7.6ZM155.38,15.56V3.58h3.6c0,.41.06.92.06,1.45v20.24c0,.81-.17,1.62-.29,2.49h-3.36c-.93-2.72-1.91-5.49-2.84-8.27-.29-.87-.46-1.85-.87-2.66-.58-1.27-.87-2.55-1.04-3.93-.06.23-.17.46-.17.75v10.53c0,.35-.12.81,0,.98.46.46.46.98.35,1.45-.17.58-.58,1.1-.87,1.62-1.04-.75-2.03.4-3.19-.17v-5.49c0-.75.06-1.5,0-2.2-.06-.64.12-1.27-.17-1.97-.23-.52.17-1.33.17-1.97.06-.69,0-1.33,0-2.02,0-.75-.12-1.5.06-2.2.12-.69-.35-1.22-.12-1.91.23-.69.12-1.45.12-2.2V3.47c.64.35.93,1.16,1.74.93.52-.17,1.1-.23,1.74-.35.12.17.23.46.35.75.17-.12.29-.29.52-.46.46.92,1.16,1.85,1.22,2.78.17,1.74,1.04,3.24,1.39,4.92.29,1.27.81,2.49,1.28,3.7.17-.12.23-.12.35-.17h0ZM131.37,11.62c0,.69-.06,1.45,0,2.14.06.58-.35.98-.41,1.45,0,.46.46.87.35,1.45-.12.69.17,1.45-.41,2.08-.17.17-.12.69,0,.98.23.46.41.92.41,1.45-.06,2.02,0,4.05,0,6.07,0,.69-.52.93-1.33.58-.81-.35-.64.35-.93.75-.12-.29-.17-.64-.41-.75-.23-.17-.64-.12-.99-.12v-7.64c.41,0,.87.06,1.33,0,.41-.06.7-.35.99-.75h-2.38v-3.82c0-1.27-.23-2.6.06-3.82.29-1.27-.17-2.37-.06-3.53.12-1.27,0-2.54,0-4.05.99.64,1.8.64,2.55-.06.23-.17.7-.12,1.28-.17-.29.35-.41.46-.52.64.06.06.17.23.23.23,1.1-.23,1.28-.23,1.33.69,0,1.16,1.16,1.91.87,3.12,1.1,1.39.87,3.24,1.62,4.8.23.52.35,1.04.81,1.56v-1.33c.17-3.3.35-6.59.52-9.95h3.6c-.12.46-.23.87-.29,1.27-.06.29,0,.64-.17.93-.35.92.7,1.62.29,2.6-.35.81-.23,1.79-.29,2.72s0,1.91,0,2.83v2.83c0,.52-.23,1.1.35,1.5.06.06.12.29.06.35-.87,2.14-.17,4.34-.41,6.54-.06.87,0,1.74,0,2.66h-3.13c-.58-.92-1.16-1.85-1.39-3.06-.23-1.33-.99-2.54-1.39-3.88-.52-1.68-.93-3.35-1.68-4.97-.23-.52-.06-1.16-.06-1.79v-2.37c-.12-.12-.29-.12-.41-.17h0ZM168.14,3.18c.46.4,1.04.75,1.51,1.21.46.41.75.98,1.22,1.39.64.64.64,1.45.87,2.31.17.75.64,1.39,0,2.14-.35.4.52,1.45-.7,1.5-.23,1.16-1.22.87-1.86.69-.52-.12-1.16-.58-1.16-1.45,0-.23-.29-.46-.29-.69,0-.17.29-.46.17-.58-.41-.64-.35-1.5-1.1-1.97-.41-.23-.64-.69-.93-1.04-.46.46-.93.81-1.22,1.22-.29.52-.75,1.04-.7,1.74.06.64.17,1.33-.35,1.85-.12.12-.06.4,0,.58.87,3.18.23,6.36.35,9.54.06.69.17,1.33.46,1.85.35.52.29,1.62,1.33,1.45.52-.12,1.1-.35,1.51-.69.35-.29.7-.81.7-1.27.12-1.04.06-2.14,0-3.24,0-.29-.41-.69-.75-.81-.52-.12-1.04-.06-1.51-.06-.64-.64.64-.98.06-1.68-.29-.29-.23-.92-.29-1.5,1.91-.35,3.71.29,5.57-.52.29.35.64.75,1.04,1.22-.17,1.79-.35,3.7-.41,5.55-.06.64-.29,1.33.29,1.91.06.06-.12.46-.17.69-.06.46-.35,1.16-.12,1.33.93.81-.23,1.27-.17,1.85-1.04.17-2.09-.06-3.13.35-.7.29-1.68.35-2.49-.17-.17-.12-.46-.17-.52-.12-.99.87-1.8.12-2.67-.23-.99-.35-1.28-1.1-1.62-1.91-.46-1.1-.81-2.14-.81-3.3.06-4.74,0-9.43,0-14.17,0-2.55,2.2-4.69,4.76-4.69.52,0,1.1.06,1.62,0,.52,0,.99-.17,1.51-.29h0ZM162.28,33.95c1.91-.17,3.6-.4,5.28-.46,1.68-.06,3.36,0,5.1,0-.52,2.31-1.51,3.99-3.36,5.78.06.29.17.58.06.64-1.04.98-1.8,2.2-2.67,3.35-1.22,1.62-1.91,3.53-2.84,5.32-.35.69-.87,1.27-1.39,2.08-.81-1.16-1.57-2.2-2.26-3.24l-2.61-4.16c-.41-.69-.46-1.44-.06-2.02,1.28-1.91,2.15-4.05,3.71-5.78.52-.46.81-1.04,1.04-1.5h0ZM113.68,3.47c.35.41-.17.41-.17.64-.06.4,0,.81,0,1.21v17.82c0,1.33.64,2.54.41,3.88-.12.87-.35,1.21-1.16,1.21-.99,0-1.97.17-2.9-.58v-7.75c0-.46.29-.87.41-1.27.23-1.21-.23-1.91-1.39-1.74-.58.12-1.1.23-1.8.4v-2.6c0-.69.41-.98,1.16-1.04h2.09V5.32c0-.41-.12-.87.06-1.21.17-.29.81-.64.93-.58.75.93,1.57.17,2.38-.06h0ZM145.23,28.17h-3.6V4.05c1.16-.17,2.32-.35,3.6-.52,0,.52.06,1.04,0,1.56-.29,2.66.52,5.26.46,7.92-.06,1.62-.58,3.18-.46,4.86.17,1.74.06,3.47.06,5.26-.06,1.68-.06,3.35-.06,5.03ZM85.03,27.76V6.01c0-.46-.12-.98.06-1.39.06-.23.23-.92.93-.41.7.52,1.22-.23,1.62-.69.81.35.64,1.04.64,1.68,0,5.78-.06,11.57,0,17.35,0,1.56.29,3.07.46,4.51-1.22,1.62-2.49.52-3.71.69h0ZM106.14,27.76c-1.22.29-2.44-.29-3.6.52-.06-.4-.06-.75-.06-1.1v-9.49c0-1.5.52-2.95.41-4.51-.12-1.5,0-2.95,0-4.45V3.99h2.26c.7,0,.75.12.58.98v.41c0,2.89-.29,5.84.12,8.68.29,2.26.23,4.51.29,6.71.06,2.31,0,4.57,0,7h0ZM94.25,3.58c1.04.87.29,2.02.58,3.01-1.57.69-1.8,2.31-1.97,3.59-.23,1.5-.41,3.18.17,4.74.12.35.12.75.12,1.16,0,1.16-.06,2.31,0,3.41.06,1.27.23,2.6.41,3.88,0,.06,0,.17.06.17,1.16,1.1,1.1,2.66,1.62,4.11-1.16.23-2.38.35-3.31-.52-.93-.87-1.68-2.08-1.57-3.35.12-2.2-.75-4.34-.41-6.48.52-3.24.23-6.48.35-9.72,0-1.04.93-1.62,1.22-2.55.06-.12,1.68-1.1,1.91-1.16.23-.06.52-.17.81-.29ZM118.84,8.04h3.07c-.06,6.71.81,13.36.41,20.13-.52.29-.99-.4-1.68,0-.35.23-1.16-.29-1.8-.52-.17-1.56-.41-3.24-.52-4.92-.12-1.74-.29-3.53.06-5.26.64-3.06.17-6.19.46-9.43Z"/>
      <path class="cls-1" d="M101.62,26.84c-.29.17-.64.29-.93.52-.29.29-.58.46-1.04.46-1.33-.06-2.67,0-4,0-.12-.98-.17-1.85-.29-2.78.23-.12.64-.29,1.04-.46.52-.23.75-.58.75-1.22,0-.69.35-1.39.35-2.08,0-.75-.17-1.5-.35-2.37h-2.26c.23-.69.7-1.5.52-1.68-.46-.46.35-1.1-.81-1.56,1.74.12,3.02-.4,4.29.35.29-.52.7,0,.99-.12.7-.23,1.22,0,1.28.52.06.35,0,.69,0,.98v7.46c.17.64.35,1.22.46,1.97ZM76.97,23.71h-3.19c.35-.52-.12-.98-.12-1.56V4.45c.17-.06.29-.12.46-.12h1.62c.81,0,1.04.23.93.87-.06.52-.12,1.04-.12,1.56v8.04c0,.58-.17,1.1-.35,1.68-.12.4.52.93.7,1.45.12.23.06.58-.06.75-.75,1.45-.17,3.01-.29,4.45,0,.23.17.35.41.58ZM125.51,3.53c.35.64.87,1.27.17,2.02-.23.29.75.58.06.87-.35.17-.7.29-1.1.29h-9.05c-.46-.87.23-1.79-.46-2.55-.06-.06.29-.64.46-.64,1.22-.06,2.55-.35,3.6.06,1.04.41,1.97.17,2.9.29.99.11,1.97.11,2.84-.35.29-.06.41,0,.58,0h0ZM97.61,11.68c.06-1.56.17-2.89-.75-3.93-.12-.11-.12-.46-.17-.52-1.86-.46-.75-1.97-.99-3.01-.06-.17.58-.69.81-.64.99.17,2.26-.06,2.84,1.16.12.29.35.52.58.75.99,1.16,1.22,1.97,1.04,3.64-.06.98.12,1.97-.7,2.95-.81-.12-1.68-.23-2.67-.41ZM73.66,27.65v-3.01c.52,0,.99-.06,1.51-.06h6.5c.58,0,1.04.17,1.28.58-.17.92-.29,1.74-.46,2.66h-2.9c-1.04,0-2.2.35-3.02-.06-1.1-.58-1.91.52-2.9-.12Z"/>
    </g>
  </g>
</svg>