<?xml version="1.0" encoding="UTF-8"?>
<svg id="Layer_2" data-name="Layer 2" xmlns="http://www.w3.org/2000/svg" xmlns:xlink="http://www.w3.org/1999/xlink" viewBox="0 0 226 34">
  <defs>
    <style>
      .cls-1 {
        fill: none;
      }

      .cls-1, .cls-2 {
        stroke-width: 0px;
      }

      .cls-2 {
        fill: #fff;
      }

      .cls-3 {
        clip-path: url(#clippath);
      }
    </style>
    <clipPath id="clippath">
      <rect class="cls-1" width="226" height="34"/>
    </clipPath>
  </defs>
  <g id="Layer_1-2" data-name="Layer 1">
    <g class="cls-3">
      <path class="cls-2" d="M66.02,0l1.94.73c6.4,2.1,10.85,7.59,11.26,14.38.49,6.95-1.78,12.84-8.02,16.39-6.32,3.55-12.88,3.47-18.87-.65-5.83-3.96-7.86-9.93-6.8-16.8,1.13-7.19,5.35-11.87,12.47-13.73.33-.08.57-.24.73-.32C58.73,0,66.02,0,66.02,0ZM62.29,5.73c-5.83,0-10.77,5.17-10.77,11.15s4.94,11.15,10.77,11.06c5.83,0,10.77-5.09,10.77-11.15s-4.94-11.06-10.77-11.06ZM30.86,0c1.62.48,3.4.89,4.94,1.53,1.46.65,2.84,1.62,4.38,2.5-1.22,1.7-2.35,3.23-3.32,4.6-2.03-.81-3.81-1.78-5.75-2.34-2.11-.73-4.29-.81-6.48-.24-1.7.48-2.75,1.45-2.92,2.83-.16,1.21.57,2.58,2.19,3.15,2.59.89,5.26,1.37,7.94,2.1,1.7.48,3.48.89,5.1,1.62,2.76,1.29,4.38,3.55,4.62,6.62.57,6.3-2.76,10.34-9.15,11.14-5.99.81-11.5-.4-16.36-4.04-.73-.48-.81-.89-.32-1.61.67-.91,1.29-1.85,1.86-2.83.49-.81.89-.81,1.7-.32,3.57,2.18,7.37,3.63,11.66,3.15.24,0,.4,0,.65-.08,2.19-.32,3.65-1.7,3.81-3.39.16-1.78-.89-3.15-3.16-3.79-2.67-.73-5.51-1.29-8.26-1.94-2.43-.65-4.7-1.53-6.4-3.39-4.37-4.68-1.86-12.68,4.54-14.54.97-.32,1.94-.57,3-.81C26.97,0,28.92,0,30.86,0h0ZM162.01,16.15c4.94,2.34,6.64,6.46,4.78,11.47-1.13,3.07-3.56,4.52-6.64,5.09-1.54.24-3.16.32-4.7.4-4.05.08-8.1,0-12.07,0-.89,0-1.3-.16-1.3-1.13V1.53c0-.89.32-1.13,1.13-1.13,4.37,0,8.83,0,13.2.08,1.54,0,3.08.32,4.54.73,3.24.97,4.78,3.39,5.1,6.7.16,2.02.08,4.04-1.21,5.73-.81.97-1.86,1.7-2.84,2.5h0ZM148.4,19.46v7.51c0,.24.49.57.73.57,2.84,0,5.67.08,8.43-.16,2.19-.16,3.4-1.61,3.48-3.8.08-2.26-1.05-3.96-3.24-4.12-3-.16-6.07,0-9.4,0ZM148.4,13.65c2.84,0,5.51.16,8.18-.08,2.27-.16,3.32-1.78,3.24-4.12-.08-2.02-1.3-3.31-3.56-3.39-2.35-.08-4.7-.08-7.05-.08-.24,0-.81.4-.81.65v7.03h0ZM173.43,16.8V1.86c0-1.13.32-1.53,1.46-1.45,7.13.08,14.18.08,21.3,0,.97,0,1.46.24,1.38,1.29-.08.94-.08,1.89,0,2.83.08,1.05-.32,1.45-1.46,1.45-4.94-.08-9.88,0-14.82,0q-1.62,0-1.62,1.62c0,1.7.08,3.39,0,5.09-.08,1.05.24,1.45,1.38,1.45,4.37-.08,8.75,0,13.12-.08,1.13,0,1.46.32,1.38,1.45-.08.94-.08,1.89,0,2.83.08,1.05-.32,1.37-1.3,1.37-4.29-.08-8.67,0-12.96-.08-1.21,0-1.62.32-1.54,1.53.08,1.61.08,3.23,0,4.85-.08,1.29.4,1.61,1.62,1.61,4.94-.08,9.8,0,14.74-.08,1.21,0,1.62.32,1.54,1.53-.08.99-.08,1.99,0,2.99,0,.73-.24,1.05-.97,1.05h-22.2c-1.05,0-.97-.65-.97-1.29-.08-5.01-.08-10.01-.08-15.02h0ZM91.13,6.06v7.91c0,.89.73.73,1.3.73h12.8q1.62,0,1.62,1.62c0,.81-.08,1.62,0,2.34.16,1.37-.4,1.53-1.62,1.53-4.29-.08-8.59,0-12.8-.08-.97,0-1.38.24-1.38,1.29.08,3.47,0,6.86.08,10.34,0,1.05-.32,1.37-1.38,1.29-1.29-.08-2.59-.08-3.89,0-.89,0-1.21-.24-1.13-1.13.08-1.78,0-3.47,0-5.25V1.78c0-1.13.24-1.62,1.54-1.53,7.05.08,14.09.08,21.22,0,1.13,0,1.62.32,1.46,1.45-.08.91-.08,1.83,0,2.75.08,1.05-.32,1.45-1.38,1.45-4.94-.08-9.88,0-14.82,0-.57.08-1.05.16-1.62.16ZM210.37,33.19V7.51c0-1.21-.4-1.53-1.54-1.53-2.19.08-4.37,0-6.64.08-.97,0-1.3-.32-1.3-1.29.08-1.13-.08-2.26.08-3.39,0-.32.49-.89.81-.89h23.82c.08,0,.16.08.4.16,0,1.53,0,3.15-.08,4.76,0,.24-.65.56-.97.56-2.27.08-4.54.08-6.88,0-1.13,0-1.54.32-1.46,1.45.08,8.08,0,16.07,0,24.15q0,1.61-1.62,1.61h-4.62ZM121.34,33.19V7.35c0-1.05-.32-1.37-1.38-1.37-2.27.08-4.54,0-6.89,0-.89,0-1.3-.32-1.21-1.21.08-1.05.08-2.1,0-3.07-.08-.97.32-1.29,1.3-1.29,4.29.08,8.67,0,12.96,0h9.56c.89,0,1.3.16,1.21,1.13-.08,1.13-.08,2.26,0,3.39,0,.81-.24,1.13-1.05,1.05h-6.48q-1.78,0-1.78,1.7v23.9c0,1.29-.32,1.7-1.62,1.61-1.38-.08-2.92,0-4.62,0h0ZM4.94,15.1c-.89,0-1.78-.16-2.59-.32v16.88c0,.32-.08.65.08.97,0,.16.32.49.49.49,1.86.08,3.81,0,5.67,0V14.29c-1.13.57-2.35.81-3.65.81ZM6.64.65c.24,0,.4.08.65.16,2.03.65,3.48,2.42,3.64,4.6.16,2.26-.57,4.12-2.59,5.25-2.03,1.13-4.13,1.13-6.07-.24C.4,9.13-.24,7.19.08,5.01.4,2.67,1.78,1.21,4.13.56c.08,0,.16-.08.24-.08.73.16,1.46.16,2.27.16ZM5.43,2.42c-1.86,0-3.48,1.62-3.48,3.55s1.62,3.55,3.48,3.55,3.48-1.62,3.48-3.55-1.54-3.55-3.48-3.55Z"/>
    </g>
  </g>
</svg>