<?xml version="1.0" encoding="UTF-8"?>
<svg id="Layer_2" data-name="Layer 2" xmlns="http://www.w3.org/2000/svg" viewBox="0 0 188.56 82.88">
  <defs>
    <style>
      .cls-1 {
        fill: #fff;
        stroke-width: 0px;
      }
    </style>
  </defs>
  <g id="Layer_1-2" data-name="Layer 1">
    <g>
      <path class="cls-1" d="M13.72,53.77l-1.75,3.45s-1.88-1.31-3.84-1.31c-1.47,0-2.25.67-2.25,1.7s1.79,1.82,3.95,2.74c2.11.9,4.43,2.69,4.43,5.18,0,4.54-3.45,6.12-7.15,6.12-4.43,0-7.12-2.51-7.12-2.51l2.16-3.64s2.53,2.14,4.64,2.14c.94,0,2.73-.09,2.73-1.87,0-1.38-2.02-2-4.27-3.13-2.28-1.13-3.61-2.9-3.61-4.88,0-3.55,3.13-5.8,6.18-5.8,2.09.01,4.14.64,5.88,1.8Z"/>
      <path class="cls-1" d="M31.64,67.53h6.53v3.8h-10.85v-19h4.32v15.2Z"/>
      <path class="cls-1" d="M58.2,51.98c5.26,0,9.54,4.29,9.54,9.83s-4.09,9.86-9.54,9.86-9.56-4.31-9.56-9.86,4.34-9.83,9.56-9.83ZM58.2,67.48c3.45,0,4.87-2.83,4.87-5.67s-1.52-5.67-4.87-5.67-4.89,2.83-4.89,5.67,1.36,5.67,4.89,5.67Z"/>
      <path class="cls-1" d="M77.83,52.32h13.33v3.8h-4.51v15.21h-4.32v-15.2h-4.5v-3.8Z"/>
      <path class="cls-1" d="M118.52,60.06h-.12l-3.88,11.15h-2.57l-3.88-11.15h-.12l-.9,11.26h-4.32l1.7-19h4.6l4.21,10.96,4.21-10.96h4.6l1.7,19h-4.32l-.9-11.26Z"/>
      <path class="cls-1" d="M141.75,71.33h-4.32v-19h4.32v19Z"/>
      <path class="cls-1" d="M161.24,67.53h6.53v3.8h-10.85v-19h4.32v15.2Z"/>
      <path class="cls-1" d="M182.03,67.53h6.53v3.8h-10.85v-19h4.32v15.2Z"/>
      <path class="cls-1" d="M113.94,19.76c-.02-.76-.24-1.84-.4-2.49-.1-.4.12-.22.35.45-.22-1.03-.57-2.13-.65-2.13s-.03.16-.05.23c-.06-.14-.14-.49-.24-.73-.12-.3-.24-.47-.16-.2.17.49.81,3.1.88,3.56-.07-.24-.15-.53-.2-.72-.61-2.18-1.47-4.28-2.56-6.26.08.07.12.1.17.15.01-.11.02-.2.04-.35.22.31.4.58.59.86-.38-1.03-1.07-1.89-1.62-2.79-.02.04-.04.07-.07.12-.65-.9-1.51-1.64-1.87-2.7-.01.05-.03.07-.04.11-.05-.52-.73-.22-.66-.76.39.2,1.05.74,1.37,1.03.32.29.45.29.57.3.11.01-.11-.17-.05-.23.09-.07.93,1.05,1.36,1.53-1.19-2.66-4.35-3.63-6.58-5.33-5.84-3.8-13.68-4.77-19.93-1.14-.28.16-.66.4-.82.51-.16.11.19,0,.21,0-.17.12-.32.22-.5.35-.18.13.21.03.12.1-.08.06-.44.54.03.24.46-.31.99-.65,1.27-.65s-1.11.78-1.62,1.12c-.8.52-1.51.99-1.97,1.31-.38.27-.78.55-.86.49-.15-.11.39-.55.45-.66.1-.16-.58.28-.42.12.5-.5,1.03-.97,1.59-1.41.39-.3.63-.47.62-.59,0-.12-.4.08-.82.31-3.03,1.66-4.08,5.18-5.45,8.1.12,0,.22-.02.38-.03-.32.69-.73,1.31-.8,2.06.15-.11.24-.27.43-.33.07.24-.07.47-.12.7.02,0,.03,0,.05.02.09-.24.19-.5.27-.74.08,0,.14.01.22.02-.26,1.86-.45,3.7-.96,5.52l.02-.02c-.43,1.34.14,2.66-.04,4.08h-.05c-.12-.7-.37-1.38-.22-2.11-.02.03-.05.06-.11.13-.02-.2-.04-.38-.06-.56-.02-.14-.19-.14-.18-.02.07.74-.11,1.48.12,2.23.03-.11.06-.21.07-.26.24,1.12.84,3.82.67,3.47-.16-.34-.26-.82-.39-1.23.17,1.46.69,2.84,1.22,4.2-.04,0-.16-.1-.26-.31-.05-.13-.19-.13-.17-.05.14.36.3.7.48,1.04-.07-.23-.16-.51-.13-.55.33.39.68,1.15.9,1.56.22.41,1,1.8.49,1.07-.51-.73-1.62-2.2-2.15-3.46-.16-.37-.25-.92-.33-.92-.08,0-.06.17-.07.23-.05-.07-.06-.41-.12-.39-.11.04.31,1.54.19,1.33-.12-.21-.35-1.14-.4-1.42.04.6.22,1.15.2,1.3-.5-.8-.27-1.66-.27-2.08,0,.24.05.48.14.71-.06-.47.03-.96.01-1.1-.02-.14-.22-.03-.21.14-.04-.09-.05-.24-.1-.23-.05.01-.05.18-.05.28-.03-.04-.03-.11-.06-.09s-.01.43-.11.37c-.06-.03,0-.37,0-.67,0-.28-.04-.51-.09-.49-.12.04-.02.18-.05.6-.03.39-.37-.18-.34.08.01.09-.09.4-.01.75.08.35-.01.88.07.79.09-.1.05-.16.12-.21.02.03,0,.11.06.08.05-.03.04-.14.07-.24,1.5,8.75,9.61,12.77,17.37,15.15l-.15.06c9.44,1.82,19.12-5.75,21.68-14.46.07-.23.22-1.12.33-1.76-.34,1.15-.59,1.12-.58,1.04.09-.77.2-1.29.39-1.65.56-.87.21-3.08.04-3.2-.13-.09-.18.11-.19.11.02-.17.06-.75-.07-.47-.1.21.25,5.31-1.49,7.5-.07-1.38.67-2.7,1.08-4.05-.01,0-.02,0-.03-.01-.11.17-.21.34-.32.52-.01-.05-.02-.09-.03-.12-.14.08-.12.31-.34.33.05-.28.1-.55.15-.82-1.12,2.04-1.5,4.62-3.01,6.5-.26.32.21-.79.48-1.54.25-.66.2-.95-.25-.12-.53.97-1.51,2.16-2.32,2.91-2.86,2.66-6.18,5.05-10.27,5.19v.03h.36c-2.9.34-6.27.07-8.97-1.18,0,0,.01-.02.02-.03.38.14,1.18.56,1.15.36-.01-.08-1.03-.4-2.1-.9-1.46-.69-3.1-1.61-3.21-1.7-.19-.15.19.24.18.26-2.05-1.44-3.48-3.73-4.58-6.06-.17-.35-.45-.6-.61-1-.12-.28-.17-.8-.14-.85.13-.22-.19-.43-.17-.09.09.49.21.97.37,1.45.06.18-.14-.18-.22-.39-.52-1.39-.56-1.64-.68-2.14,0,1.42,1.05,3.66,1.22,4.05-.22-.16-.55-.6-.7-1.06.15.53.31.98.3,1.16-.77-1.37-1.37-4.33-1.56-4.33s0,.47.02.69c-.44-.67-.73-2.8-.56-3.34.12-2.43.5-4.91,1.34-7.2v-.02s.01-.03.01-.05c.73-1.94,1.8-3.74,3.33-5.23-.01,0-.02-.02-.03-.03-.27.24-.54.48-.81.71.31-1.05,1.45-1.59,1.87-2.52l-.06-.03c.22-.21.45-.41.71-.65-.46.21-.68.69-1.2.72,1.32-1.49,3.25-2.77,4.71-3.63-.14.08-.12.35.14.44.24.09.43-.37.75-.49,2-.8,4.15-.7,6.13-.32-2.12-.76-4.84-.53-5.43-.39.64-.32,1.57-.28,1.93-.3,6.13-.32,11.96,3.71,15.52,8.6.2.27.61.92.76,1.4.07.2.43.85.56.76.13-.09-.08-.61-.34-.92-.35-.42-.57-.94-1.01-1.73.41.49.73.87,1.08,1.29-.81-1.4-2.82-3.44-3.04-4.01,1.16.85,2.05,1.95,2.79,3.15.66,1.08,1.33,2.5,1.74,3.36.03.07.06.13.1.19-.04-.12-.6-1.45-.61-1.45-.34-1.09-.95-2.13-1.46-3.19.33.28.29.29.38.2.1-.09-.55-.89-.67-1.4.42.65.83,1.31,1.28,2-.1-.24-.18-.46-.27-.67.01,0,.02-.01.03-.02.52.65,1.04,1.3,1.56,1.94-.48-1-1.28-1.82-1.75-2.79l.09-.04c.44.73,1.42,1.66,1.64,1.94.22.28-.46-.9-.18-.58.28.33.72.95.81,1.08.09.14.17.14.05-.04l-1.37-1.97.05-.04c1.17,1.52,2.28,3.13,2.93,4.94-.69-2.74-2.69-4.92-4.3-7.17.82.65,1.39,1.53,2.08,2.29.01-.01.03-.02.04-.03-.1-.18-.19-.36-.29-.54,1.54,1.34,2.58,5.08,2.68,5.33.1.24-.07-.51-.19-1.02-.12-.51.08-.37.08-.02,0,.35.53,1.38.22,1.93-.03-.04-.05-.09-.1-.17.26.79.16,1.6.47,2.33.15,1.21.07,2.43,0,3.63h.04c.05-.37.1-.74.14-1.11h.05v.43c.07-.66-.05-1.39.19-2,.04.35.08.71.13,1.06.03,0,.05,0,.08,0,.14-1.48-.02-2.96-.17-4.43.02,0,.04,0,.06,0,.03.2.06.4.1.64.04-.09.06-.14.08-.21.18.47.25.98.55,1.38-.09-.54.04-1.06.04-1.61.24.62.37,1.82.41,1.93.04.11.05-.09.04-.12.17.5.29,2.01.3,1.77.01-.49,0-.98-.05-1.46.11.33.2.67.26,1.02h0ZM108.67,33.77c-.31.23-.35.24.04-.24.39-.48,1.24-1.84,1.56-2.42.32-.58-.06.71.24.18.29-.53.5-.78.83-2.06.03.4-.39,2.04-.92,2.96-.54.92-1.56,2.01-1.95,2.45-.39.45.71-1.02,1.12-1.52.29-.35.53-.74.72-1.15-.4.56-1.32,1.55-1.63,1.79ZM79.88,30.8c.49,1.35,2.53,3.4,3.52,3.93-1.62-.7-2.97-1.66-3.2-2.1-.15-.29.09-.23.3.02.18.24.41.44.68.59-.82-1.06-1.19-1.75-1.3-2.43ZM86.28,2.37c-.49.15-.92.29-.35-.02.51-.27,1.63-.67,1.83-.46.2.21-.99.32-1.48.48h0ZM102.99,7.58c.99.18,1.15,1.31,1.48,1.63-.62-.57-1.24-1.21-1.48-1.63ZM106.02,9.07c-.13-.13-.23-.29-.29-.46.21.2.4.41.57.63.06.07-.09,0-.29-.17h0Z"/>
      <path class="cls-1" d="M77.89,17.54l.39-1.89h.05s-.37,1.93-.37,1.93l-.08-.04Z"/>
      <path class="cls-1" d="M75.47,18.82c-.04-.49,0-.97.1-1.45h.05c-.05.48-.1.96-.15,1.45h0Z"/>
      <path class="cls-1" d="M109.97,28.31c-.15.27-.33.79,0,.51.33-.28.15-.79,0-.51Z"/>
      <path class="cls-1" d="M112.49,24.75c.12-.32.02-.98.18-.58s-.37,1.09-.18.58Z"/>
      <path class="cls-1" d="M73.98,25.51c.1.2.02-.88-.14-.87-.16,0-.23.12-.16.44.07.31.22.28.3.44Z"/>
      <path class="cls-1" d="M74.26,24.45c-.05-.14-.24-.58-.18-.67.06-.09.15-.05.21.15.06.2.03.68-.03.52Z"/>
      <path class="cls-1" d="M77.14,24.73c.02-.08.1-.36.05-.4s-.11,0-.13.11.06.38.08.29Z"/>
      <path class="cls-1" d="M74.41,23.35c.16-.01.05.19-.04.27-.05.04-.15-.26.04-.27Z"/>
      <path class="cls-1" d="M74.91,25.23c.13.03.04.15-.02.19-.04.02-.13-.23.02-.19Z"/>
      <path class="cls-1" d="M108.85,15.7c-.12-.3.2.3.41.86.12.33.23.6.17.77-.1.3-.29-.94-.58-1.63Z"/>
      <path class="cls-1" d="M109.14,14.04c.21.4.35.61.44.57.09-.04.12-.22,0-.38-.12-.16-.56-.41-.44-.19Z"/>
      <path class="cls-1" d="M109.92,14.7c.05.16.33.09.21-.07-.12-.16-.27-.1-.21.07Z"/>
      <path class="cls-1" d="M112.69,23.38c.01.14-.26.14-.21-.02.04-.16.2-.13.21.02Z"/>
      <path class="cls-1" d="M113.47,25.84c.06-.21-.13-.24-.15-.05-.02.19.09.27.15.05Z"/>
      <path class="cls-1" d="M112.16,24.68c.06.29-.33.52-.31.15s.25-.47.31-.15Z"/>
      <path class="cls-1" d="M82.26,2.84c.17-.1.54-.28.49-.39-.05-.11-.36.11-.49.23-.13.12-.17.26,0,.16Z"/>
      <path class="cls-1" d="M78.69,26.43c-.11-.06-.02-.19.05-.15.07.04.09.22-.05.15Z"/>
      <path class="cls-1" d="M107.65,14.87c-.1.02,0,.31.1.27.11-.04,0-.29-.1-.27Z"/>
      <path class="cls-1" d="M109.14,13.4c-.1.02-.06.17.05.13.11-.04.06-.16-.05-.13Z"/>
      <path class="cls-1" d="M108.81,15.19c-.04-.13.35.21.26.37-.1.16-.2-.16-.26-.37Z"/>
      <path class="cls-1" d="M86.35,5.69c-.15.08-.32.19-.15.24.07.02.15.02.22-.02.07-.03.12-.09.15-.16.04-.13-.06-.13-.22-.05Z"/>
      <path class="cls-1" d="M26.8,80v2.79h-.5v-6.93h1.78c.81,0,1.42.18,1.83.53.41.35.61.86.62,1.52,0,.29-.05.57-.17.84-.11.25-.28.48-.49.66-.23.19-.49.34-.77.43-.33.11-.68.16-1.03.15h-1.28ZM26.8,79.6h1.28c.28,0,.56-.04.82-.12.22-.08.43-.2.61-.35.17-.15.3-.33.39-.53.09-.21.14-.44.13-.67,0-.53-.16-.94-.49-1.22-.33-.28-.81-.43-1.47-.43h-1.28v3.33Z"/>
      <path class="cls-1" d="M33.57,79.66v3.13h-.5v-6.93h1.76c.8,0,1.39.15,1.79.46.39.31.59.76.59,1.36,0,.25-.04.49-.14.72-.09.22-.22.41-.39.58-.18.17-.39.31-.62.41-.26.11-.53.18-.82.21.08.05.15.12.21.2l2.38,3h-.44s-.09,0-.13-.03c-.04-.02-.08-.06-.11-.1l-2.21-2.82c-.05-.06-.11-.12-.18-.15-.09-.03-.2-.05-.3-.04h-.9ZM33.57,79.3h1.2c.28,0,.56-.03.82-.11.22-.06.43-.17.61-.32.16-.13.3-.3.38-.49.09-.2.14-.43.13-.65,0-.49-.16-.86-.49-1.1-.33-.24-.79-.37-1.4-.36h-1.27v3.03Z"/>
      <path class="cls-1" d="M44.21,75.87v.42h-3.63v2.8h3.03v.41h-3.03v2.89h3.64v.42h-4.15v-6.93h4.14Z"/>
      <path class="cls-1" d="M50.27,81.07c.02-.05.04-.1.06-.15.02-.05.04-.1.07-.14l2.72-4.82s.04-.06.08-.08c.03,0,.07-.01.11-.01h.34v6.93h-.44v-5.91c0-.09,0-.18.01-.27l-2.72,4.84s-.04.07-.08.09c-.03.02-.08.03-.12.03h-.08s-.08-.01-.11-.03c-.03-.02-.06-.05-.08-.09l-2.79-4.85c0,.09.01.18.01.27v5.91h-.43v-6.93h.34s.07,0,.11.01c.03.02.06.04.08.08l2.79,4.82c.05.09.09.19.13.29h0Z"/>
      <path class="cls-1" d="M57.36,82.8h-.5v-6.93h.5v6.93Z"/>
      <path class="cls-1" d="M63.13,82.44c.31,0,.61-.05.89-.17.26-.11.48-.27.67-.48.19-.21.33-.46.42-.73.1-.29.15-.6.14-.9v-4.28h.5v4.28c0,.36-.06.73-.18,1.07-.11.32-.29.62-.52.87-.23.25-.51.45-.83.58-.7.28-1.48.28-2.18,0-.31-.13-.59-.33-.83-.58-.23-.25-.41-.55-.52-.87-.12-.34-.18-.7-.18-1.07v-4.28h.5v4.28c0,.31.05.61.14.9.09.27.23.51.42.73.18.21.41.38.66.49.28.12.59.17.89.17h0Z"/>
      <path class="cls-1" d="M72.17,81.07c.02-.05.04-.1.06-.15.02-.05.04-.1.07-.14l2.72-4.82s.04-.06.08-.08c.04,0,.07-.01.11-.01h.35v6.93h-.44v-5.91c0-.09,0-.18.01-.27l-2.72,4.84s-.04.07-.08.09c-.03.02-.08.03-.12.03h-.08s-.08-.01-.12-.03-.06-.05-.08-.09l-2.79-4.85c0,.09.01.18.01.27v5.91h-.43v-6.93h.34s.07,0,.11.01c.03.02.06.04.08.08l2.79,4.82c.05.09.09.19.12.29h0Z"/>
      <path class="cls-1" d="M86.47,81.63s.03,0,.04,0c.01,0,.03.01.04.03l.19.21c-.14.15-.3.29-.47.41-.17.12-.36.23-.55.31-.21.09-.43.16-.66.2-.26.05-.52.07-.79.07-.45,0-.89-.08-1.31-.25-.39-.16-.74-.41-1.03-.72-.3-.32-.53-.71-.67-1.12-.17-.47-.25-.96-.24-1.46,0-.49.08-.98.24-1.44.15-.42.39-.8.69-1.12.3-.31.67-.56,1.07-.72.44-.18.91-.26,1.38-.26.23,0,.46.02.69.06.2.04.39.09.58.16.18.07.35.16.51.26.17.11.32.23.47.37l-.15.22s-.03.03-.05.04c-.02.01-.04.01-.07.01-.04,0-.08-.02-.11-.05l-.17-.12c-.07-.05-.15-.11-.25-.17-.11-.07-.23-.12-.35-.17-.15-.05-.31-.09-.47-.12-.2-.04-.41-.05-.61-.05-.4,0-.79.07-1.16.22-.34.14-.65.35-.91.62-.26.28-.46.62-.59.98-.15.41-.22.85-.21,1.29,0,.45.06.89.21,1.31.13.36.32.7.58.98.24.26.54.47.88.61.35.14.72.22,1.1.21.22,0,.44-.01.66-.05.18-.03.36-.08.53-.15.16-.06.31-.15.45-.24.15-.1.29-.21.42-.33.02-.01.03-.02.05-.03.02-.01.04-.02.06-.02h0Z"/>
      <path class="cls-1" d="M94.5,82.8h-.39s-.08-.01-.11-.04c-.03-.03-.05-.06-.07-.1l-.82-2.01h-3.4l-.81,2.01s-.04.07-.07.09c-.03.03-.08.04-.12.04h-.38l2.83-6.93h.5l2.83,6.93ZM89.87,80.28h3.1l-1.41-3.5c-.02-.06-.05-.12-.07-.19-.02-.07-.05-.14-.07-.22-.02.08-.05.15-.07.22-.02.07-.04.14-.07.19l-1.41,3.5Z"/>
      <path class="cls-1" d="M99.92,76.71s-.03.04-.05.06c-.02.01-.05.02-.07.02-.06-.01-.12-.04-.16-.09-.21-.18-.44-.32-.7-.4-.42-.13-.88-.12-1.3.01-.18.06-.34.16-.48.29-.13.12-.23.27-.29.43-.07.16-.1.34-.1.51,0,.2.04.41.15.58.1.16.24.29.39.39.17.11.36.2.55.27.21.07.42.15.64.22s.43.15.64.24c.2.08.39.19.56.33.16.13.3.3.39.48.11.22.16.47.15.71,0,.28-.05.56-.15.82-.1.25-.24.48-.43.67-.2.2-.43.35-.69.45-.3.11-.62.17-.94.16-.41.01-.81-.07-1.18-.24-.33-.16-.62-.39-.86-.66l.14-.21s.04-.04.06-.05c.02-.01.05-.02.08-.02.04,0,.08.03.11.06.05.04.1.09.17.14.07.06.14.12.24.19.1.07.21.13.32.19.13.06.27.11.42.14.18.04.35.06.53.06.25,0,.5-.04.73-.12.2-.08.39-.19.55-.34.15-.14.26-.32.34-.51.08-.2.12-.42.12-.63,0-.21-.04-.42-.15-.6-.1-.16-.24-.29-.39-.4-.17-.11-.36-.2-.55-.27-.21-.07-.42-.14-.64-.21-.22-.07-.43-.14-.64-.23-.2-.08-.39-.19-.55-.33-.17-.13-.3-.3-.4-.49-.11-.23-.16-.49-.15-.74,0-.23.04-.46.13-.67.09-.22.22-.41.39-.57.18-.17.4-.31.63-.4.27-.1.56-.16.86-.15.33,0,.66.05.97.17.29.12.56.3.78.53l-.13.22Z"/>
      <path class="cls-1" d="M103.34,82.8h-.5v-6.93h.5v6.93Z"/>
      <path class="cls-1" d="M106.9,75.89s.06.04.08.08l4.47,6c0-.09-.01-.19-.01-.28v-5.81h.44v6.93h-.24s-.07,0-.1-.03c-.03-.02-.06-.04-.08-.07l-4.49-6.01c.01.1.01.19.01.28v5.83h-.43v-6.93h.24s.08,0,.11.02h0Z"/>
      <path class="cls-1" d="M121.08,79.33c0,.5-.08.99-.24,1.46-.15.41-.38.79-.68,1.12-.29.31-.65.55-1.04.71-.86.34-1.82.34-2.68,0-.39-.16-.75-.4-1.04-.71-.3-.32-.53-.7-.68-1.12-.32-.94-.32-1.97,0-2.91.15-.41.38-.79.68-1.12.29-.31.65-.55,1.04-.72.42-.17.88-.26,1.33-.25.46,0,.92.08,1.34.25.39.16.75.41,1.04.72.3.32.53.7.68,1.12.17.47.25.96.24,1.45h0ZM120.56,79.33c0-.44-.06-.88-.2-1.3-.12-.36-.31-.69-.57-.98-.24-.27-.54-.48-.88-.61-.36-.15-.75-.22-1.14-.21-.38,0-.77.07-1.13.21-.33.14-.63.35-.88.61-.25.28-.45.62-.57.98-.27.85-.27,1.76,0,2.61.12.36.32.7.57.98.24.27.54.48.88.61.36.14.74.22,1.13.21.39,0,.78-.07,1.14-.21.33-.13.63-.34.88-.61.25-.28.45-.62.57-.98.14-.42.21-.86.2-1.31h0Z"/>
      <path class="cls-1" d="M129.52,82.47c.22,0,.43-.01.65-.04.18-.02.37-.06.54-.11.16-.05.32-.11.48-.18.15-.07.3-.15.46-.24v-1.86h-1.33s-.03,0-.05,0c-.01,0-.03-.02-.04-.03-.01,0-.02-.02-.03-.04,0-.01,0-.03,0-.04v-.27h1.91v2.46c-.17.12-.35.23-.54.32-.19.1-.39.18-.6.24-.22.07-.45.12-.68.15-.26.04-.53.05-.8.05-.47,0-.93-.08-1.37-.25-.4-.16-.76-.4-1.06-.72-.3-.32-.54-.7-.69-1.12-.33-.94-.33-1.97,0-2.92.15-.42.39-.8.69-1.12.31-.31.68-.56,1.09-.71.46-.17.95-.26,1.44-.25.25,0,.49.02.73.05.21.03.42.09.62.16.19.07.37.16.54.26.17.11.33.22.48.36l-.13.22s-.03.04-.05.05c-.02.01-.05.02-.07.02-.03,0-.06,0-.08-.02-.08-.04-.15-.08-.21-.14-.12-.09-.25-.16-.38-.23-.19-.09-.39-.16-.59-.21-.28-.07-.57-.1-.87-.09-.42,0-.83.07-1.22.22-.35.13-.67.34-.93.61-.26.28-.46.61-.59.98-.14.42-.21.86-.21,1.3,0,.45.06.89.21,1.32.13.36.33.7.59.98.25.27.56.48.91.62.37.15.77.23,1.17.23h0Z"/>
      <path class="cls-1" d="M140.04,82.8h-.39s-.08-.01-.11-.04c-.03-.03-.05-.06-.07-.1l-.82-2.01h-3.4l-.81,2.01s-.04.07-.07.09c-.03.03-.08.04-.12.04h-.38l2.83-6.93h.5l2.84,6.93ZM135.41,80.28h3.1l-1.41-3.5c-.02-.06-.05-.12-.07-.19-.02-.07-.05-.14-.07-.22-.02.08-.05.15-.07.22s-.05.14-.07.19l-1.41,3.5Z"/>
      <path class="cls-1" d="M145.56,81.07c.02-.05.04-.1.06-.15.02-.05.04-.1.07-.14l2.72-4.82s.04-.06.08-.08c.04-.01.07-.01.11-.01h.35v6.93h-.44v-5.91c0-.09,0-.18.01-.27l-2.72,4.84s-.04.07-.08.09c-.03.02-.07.03-.12.03h-.08s-.08-.01-.12-.03c-.03-.02-.06-.05-.08-.09l-2.79-4.85c0,.09.01.18.01.27v5.91h-.43v-6.93h.34s.07,0,.11.01c.03.02.06.04.08.08l2.79,4.82c.05.09.09.19.13.29h0Z"/>
      <path class="cls-1" d="M156.11,75.87v.42h-3.64v2.8h3.03v.41h-3.03v2.89h3.64v.42h-4.14v-6.93h4.14Z"/>
      <path class="cls-1" d="M162.07,76.71s-.03.05-.05.06c-.02.01-.05.02-.07.02-.06-.01-.12-.04-.16-.09-.08-.07-.18-.14-.27-.2-.14-.08-.28-.15-.43-.2-.42-.13-.88-.12-1.3.01-.18.06-.34.16-.48.3-.13.12-.23.27-.29.43-.07.16-.1.34-.1.51,0,.2.04.41.15.58.1.16.24.29.39.39.17.11.36.2.56.27.21.07.42.15.64.22.22.07.43.15.64.24.2.08.39.19.56.33.16.13.3.3.39.48.11.22.16.47.15.71,0,.28-.05.56-.15.82-.1.25-.24.48-.43.67-.2.2-.43.35-.69.45-.3.11-.62.17-.94.16-.41.01-.81-.07-1.18-.24-.33-.16-.62-.39-.86-.66l.14-.21s.04-.04.06-.05.05-.02.08-.02c.04,0,.08.03.11.06l.17.14c.07.07.15.13.23.19.1.07.21.13.32.19.13.06.27.11.42.14.18.04.35.06.53.06.25,0,.5-.04.73-.12.2-.08.39-.19.55-.34.15-.14.26-.32.34-.51.08-.2.12-.42.12-.63,0-.21-.04-.42-.15-.6-.1-.16-.23-.29-.39-.4-.17-.11-.36-.2-.56-.27-.21-.07-.42-.14-.64-.21-.22-.07-.43-.14-.64-.23-.2-.08-.39-.19-.56-.33-.16-.13-.3-.3-.39-.49-.11-.23-.16-.49-.15-.74,0-.23.04-.46.13-.67.09-.22.22-.41.39-.57.18-.17.4-.31.63-.4.27-.1.56-.16.85-.15.33,0,.66.05.97.17.29.12.56.3.78.53l-.13.22Z"/>
    </g>
  </g>
</svg>