<?xml version="1.0" encoding="UTF-8"?>
<svg id="Layer_2" data-name="Layer 2" xmlns="http://www.w3.org/2000/svg" viewBox="0 0 224.76 106.96">
  <defs>
    <style>
      .cls-1 {
        fill: #fff;
        stroke-width: 0px;
      }
    </style>
  </defs>
  <g id="Layer_1-2" data-name="Layer 1">
    <g>
      <path class="cls-1" d="M77.91,2.49c-14.08,2.15-27.71,5.43-40.88,10.97-9.43,3.96-18.28,8.82-25.78,15.72-3.98,3.62-7.27,7.81-9.54,12.67-.68,1.36-1.14,2.83-1.7,4.3.23,0,.57-.23.68-.45,2.16-4.07,5-7.69,8.29-10.86,5.57-5.43,12.04-9.61,18.97-13.12,10.9-5.54,22.49-9.28,34.41-11.88,13.74-3.05,27.6-4.64,41.68-4.98,14.31-.34,28.73.57,42.93,2.94,15.45,2.6,30.32,6.67,44.41,13.57,8.4,4.07,16.01,9.16,22.26,16.18,3.41,3.85,6.02,8.14,7.61,13.12,1.14,3.85,1.25,7.58,1.02,11.54,2.16-6.22,2.04-12.44-.34-18.55-2.5-6.33-6.81-11.42-11.93-15.84-7.95-6.79-17.04-11.65-26.69-15.38-9.43-3.73-19.31-6.45-29.3-8.37-11.24-2.15-22.49-3.51-33.96-3.85-.68,0-1.48-.11-2.16-.23h-12.83c-.68.11-1.36.23-2.04.23-8.4.11-16.81,1.02-25.1,2.26h0Z"/>
      <path class="cls-1" d="M223.62,61.99c-1.93,2.83-3.75,5.77-6.02,8.26-7.04,7.69-15.79,12.78-25.1,17.19-6.7,3.05-13.74,5.43-20.78,7.46-13.06,3.73-26.46,5.88-39.98,6.79-16.81,1.13-33.62.68-50.31-1.81-14.08-2.15-27.94-5.54-41.11-11.08-10.11-4.3-19.42-9.5-27.26-17.31-4.77-4.86-8.52-10.29-9.88-16.97-.57-2.94-.57-5.99-.8-9.05l-.11.11c-.11.23-.11.45-.23.68-2.27,8.03-.8,15.61,3.52,22.62,4.09,6.56,9.88,11.54,16.24,15.72,5.11,3.39,10.56,6.22,16.24,8.6,7.15,3.05,14.54,5.43,22.15,7.35,15.67,4.07,31.69,6,47.81,6.33,19.42.45,38.61-1.36,57.58-6.22,13.63-3.51,26.69-8.14,38.5-15.84,7.15-4.64,13.4-10.07,17.6-17.42,1.25-2.15,2.04-4.52,3.07-6.79l-.34-.11c-.23.57-.46,1.02-.79,1.47h0Z"/>
      <path class="cls-1" d="M42.36,64.59c.45,1.47,1.36,3.05,2.61,4.19,2.04,1.81,5.11,1.24,7.27-1.02,1.02-1.24,1.93-2.6,2.95-4.07,0,.45-.11.68-.11.9-.57,2.49-1.13,5.09-1.82,7.47-.68,2.26-1.48,4.41-2.5,6.56-1.48,3.17-4.54,3.62-6.25,1.13.79-.23,1.82-.34,2.38-.79,1.82-1.47,1.82-4.53.23-6.22-1.02-1.25-2.84-1.36-4.09-.34h-.11c-2.27,1.92-1.82,6.56.79,8.37,3.29,2.26,9.2,1.81,12.49-.68,3.07-2.26,4.43-5.43,5.34-8.94l6.47-26.13c.11-.45.11-.9.11-1.24h-7.15c-.34,0-.91.45-1.02.79-.45,1.13-.68,2.26-1.02,3.51-.34-.45-.57-.9-.68-1.47-.8-2.72-2.73-3.85-5.57-3.17-1.13.23-2.16.68-3.18,1.36-6.7,4.07-9.08,14.03-7.15,19.79ZM49.74,64.59c1.25-5.32,2.61-10.52,3.86-15.84.22-.87.57-1.71,1.02-2.49.23-.45.91-.9,1.25-.79.57.11,1.02.56,1.25,1.02.23,1.13.45,2.26.57,3.39-.46,6.11-1.93,11.31-5.22,16.06-.57.79-1.25,1.92-2.38,1.36-1.13-.57-.57-1.81-.34-2.71h0ZM35.09,69.11c.34,0,.68-.34,1.02-.57-.34-.34-.57-.45-.79-.45-3.97.11-3.63-1.36-3.07-3.96,2.04-9.39,4.2-18.66,6.36-28.05.79-3.28,1.14-3.62,4.54-3.96.34,0,.79-.34,1.48-.57-.57-.23-.68-.34-.79-.34h-19.08c-.23,0-.57.34-.91.57.34.23.68.34,1.14.34,2.73.11,3.29.68,2.84,3.39-.45,2.38-1.02,4.64-1.48,7.01-1.59,7.01-3.18,13.91-4.66,20.93-.8,3.51-1.36,4.64-5,4.53-.34,0-.68.34-1.02.57l.23.45c6.25.11,12.72.11,19.19.11h0ZM168.77,63.8c-1.36,5.09-2.61,10.07-4.09,15.04-.23.9-1.25,1.7-1.82,2.49-.23.23-.45.57-.68.79l.23.34h9.43c.79,0,1.02-.45,1.14-1.13,1.82-8.82,3.75-17.65,5.57-26.47.68-3.05,1.14-6.22,1.7-9.5h3.75c1.02.11,1.59-.23,1.36-1.58h-5c.79-3.28,1.48-6.22,2.27-9.16.26-.61.6-1.18,1.02-1.7.79-.9,1.82-1.02,2.95-.23-2.04,1.24-2.73,3.28-1.93,5.54.45,1.24,1.25,1.92,2.5,2.04,1.36.11,2.27-.57,2.73-1.7,1.48-3.62-.79-7.58-4.54-7.47-1.66.11-3.27.66-4.66,1.58-2.84,1.92-4.43,4.86-5.45,8.03-.79,2.38-1.93,3.62-4.54,3.06-1.02-.23-1.48.34-1.25,1.47h4.32l-.34,1.47c-1.82,5.77-3.18,11.43-4.66,17.08ZM158.88,67.87c5-3.28,7.27-8.15,6.81-14.14-.57-8.6-9.65-13.23-17.15-8.71-4.77,2.83-6.93,7.24-6.93,12.78v1.7c.68,8.71,9.77,13.24,17.26,8.37h0ZM149.12,66.17c.23-1.47.45-2.94.91-4.3l3.41-14.25c.11-.45.23-.9.45-1.36.45-1.24,1.59-2.04,2.61-1.92,1.25.23,1.82,1.13,1.7,3.28-.46,2.15-1.02,4.86-1.7,7.69-.79,3.51-1.7,6.9-2.5,10.29-.11.68-.46,1.25-.68,1.81-.57.9-1.36,1.58-2.61,1.13-1.25-.34-1.7-1.24-1.59-2.38h0ZM108.35,68.55c5.34-2.6,7.84-7.35,8.06-13.23.11-3.96-1.25-7.47-4.43-9.84-4.66-3.51-11.81-2.49-15.67,1.81-3.41,3.85-4.66,8.37-3.75,13.35,1.36,7.92,8.75,11.31,15.79,7.92ZM99.83,66.17c.23-1.36.46-2.83.79-4.18,1.14-4.75,2.27-9.61,3.41-14.37.11-.45.23-1.02.46-1.47.45-1.24,1.59-2.04,2.61-1.81,1.14.23,1.7,1.13,1.7,3.05-.17.95-.36,1.89-.57,2.83l-3.75,15.61c-.11.64-.34,1.26-.68,1.81-.57.9-1.48,1.58-2.61,1.13-1.02-.57-1.59-1.47-1.36-2.6Z"/>
      <path class="cls-1" d="M187.85,43.89c-1.02,0-1.59.34-1.36,1.58h3.75c-.79,3.05-1.48,5.99-2.16,8.82-.68,3.39-1.48,6.9-1.82,10.29-.23,2.15.68,4.07,2.95,4.86,2.27.9,4.43.34,6.25-1.24,2.73-2.49,3.63-5.88,4.66-9.16,0-.11-.11-.23-.34-.68l-.46,1.13c-.91,2.04-1.7,4.07-2.73,6-.46.79-1.59,1.7-2.16,1.58-1.14-.34-.91-1.7-.68-2.6,1.25-5.43,2.5-10.97,3.86-16.4q.68-2.6,3.41-2.6c.45,0,.79,0,1.25-.11l.23-1.47h-3.86l2.84-12.22h-6.7c-1.02,0-1.36.34-1.59,1.24-.57,2.72-1.25,5.43-1.93,8.26-.68,2.6-.68,2.72-3.41,2.72h0ZM131.85,69.11c3.52-.9,5.91-4.07,6.02-7.58.11-3.28-1.59-5.43-4.2-7.24-1.36-.9-2.84-1.7-4.2-2.71-1.93-1.58-2.5-3.51-1.48-5.32,1.36-2.6,6.59-2.49,8.29-.11-.91.45-2.04.68-2.61,1.36-1.02,1.24-.91,2.83,0,4.19.68,1.13,2.04,1.7,3.41,1.58,1.02,0,1.93-.79,2.27-1.81.57-1.67.23-3.51-.91-4.86-2.73-3.17-6.36-3.51-10.22-2.94-2.73.34-5,1.58-6.47,3.96-2.61,4.19-1.48,8.48,2.84,11.08,1.93,1.25,3.98,2.49,5.68,3.96,1.7,1.47,1.14,4.64-.79,5.77-2.16,1.25-6.81.23-8.29-1.81v-.23c2.84.34,4.43-1.47,3.86-4.3-.34-1.7-1.59-2.71-3.29-2.83-1.7-.11-2.84.57-3.18,2.04-.46,1.92-.23,3.73,1.14,5.2,3.52,3.62,7.72,3.85,12.15,2.6ZM69.5,54.41c.23-.45.34-.9.45-1.24.79-2.04,1.7-3.96,2.61-5.99.23-.45.91-.79,1.48-1.13.23.57.34,1.13.45,1.7,0,.34-.11.68-.23,1.13-1.48,6.22-2.95,12.44-4.54,18.66-.11.45-.11.9-.23,1.58h7.04c.79,0,1.14-.23,1.36-1.13,1.7-6,3.41-11.99,5.22-17.87.46-1.58,1.36-2.94,2.16-4.41l.57.11c-.91,1.92-1.02,4.07-.23,6.11.34,1.13,1.48,1.92,2.61,1.92,1.25,0,2.16-.56,2.61-1.7,1.04-2.05,1.12-4.45.23-6.56-1.02-2.6-3.97-3.17-5.79-1.02-.91,1.13-1.59,2.6-2.27,3.96-.79,1.7-1.36,3.39-2.16,5.43v-1.47c-.11-2.04.23-4.19-.34-6.11-.91-3.28-4.77-4.07-7.16-1.58-2.5,2.6-3.52,5.88-4.43,9.28.11,0,.23.11.57.34h0Z"/>
    </g>
  </g>
</svg>