<?xml version="1.0" encoding="UTF-8"?>
<svg id="Layer_2" data-name="Layer 2" xmlns="http://www.w3.org/2000/svg" viewBox="0 0 225.17 49.76">
  <defs>
    <style>
      .cls-1 {
        fill: #fff;
        stroke-width: 0px;
      }
    </style>
  </defs>
  <g id="Layer_1-2" data-name="Layer 1">
    <g>
      <path class="cls-1" d="M63.05,0c0,1.58.15,3.17.68,4.75,1.06,3.39,3.24,6.03,6.03,7.99.9.68,1.96,1.06,3.01,1.51,1.5.68,3.11,1.06,4.75,1.13.45,0,.68.3.68.75v3.62c0,.68-.23.9-.9.9-1.66,0-3.24.3-4.82.83-1.91.62-3.73,1.48-5.42,2.56-2.26,1.51-4.22,3.32-5.95,5.35-1.05,1.21-1.96,2.64-2.79,4-.53.83-1.06,1.66-1.43,2.56-.6,1.27-1.13,2.58-1.58,3.92-.38,1-.68,2.04-.9,3.09-.15.53-.23,1.06-.3,1.51-.15,1.21-.3,2.34-.45,3.54-.08.68-.3.83-.98.9h-3.24c-.68,0-.98-.23-.9-.9.08-1.58,0-3.17.45-4.75.38-1.28.6-2.64.9-3.92.23-.75.45-1.51.75-2.26.83-2.04,1.73-4,2.86-5.88,1.28-2.18,2.86-4.22,4.52-6.1,2.03-2.26,4.37-4.15,6.93-5.8.53-.38,1.13-.6,1.66-.9.38-.23.75-.45.9-.98-2.49-1.51-4.52-3.62-6.25-6.1-.3.45-.6.75-.75,1.13-.75,1.43-1.36,2.94-2.19,4.37-.75,1.28-1.66,2.49-2.56,3.69-2.19,2.94-4.9,5.35-7.91,7.46-1.58,1.13-3.24,2.11-5.12,2.87-1.28.53-2.56,1.13-3.92,1.58-1.13.38-2.34.6-3.54.83-.83.15-1.73.38-2.64.53-.6.07-.6.53-.6.98v13.34c0,.68-.23.9-.9.9h-3.32c-.6,0-.83-.23-.9-.75v-13.34c0-.98-.15-1.21-1.13-1.43-.38-.07-.75-.07-1.13-.23-1.2-.3-2.41-.6-3.54-.98-.7-.23-1.38-.51-2.03-.83-1.33-.66-2.64-1.36-3.92-2.11-2.41-1.51-4.52-3.39-6.48-5.43-1.66-1.73-3.16-3.62-4.37-5.73-.98-1.73-1.96-3.47-2.79-5.2-.38-.75-.53-1.58-.9-2.34-.15-.38-.38-.68-.6-1.06.6-.45,1.28-.68,2.03-.83.98-.15,2.03-.3,3.01-.45,1.73-.23,3.39-.23,5.12.15.53.15,1.06.08,1.58.23,1.13.23,2.19.53,3.31.83.9.3,1.81.68,2.71,1.05.83.38,1.73.83,2.49,1.28,1.38.91,2.71,1.89,3.99,2.94,1.58,1.36,2.94,2.94,4.14,4.67.9,1.36,1.66,2.86,2.26,4.37.38.98.53,2.04.83,3.01.08.3.15.53.23.83.23.6.45.75,1.06.68.68-.08,1.36-.15,1.96-.3,1.13-.3,2.26-.53,3.31-.98,1.2-.46,2.38-.96,3.54-1.51,1.58-.75,2.94-1.73,4.37-2.71,1.43-1.06,2.71-2.26,3.92-3.54,1.58-1.66,2.94-3.54,4.07-5.5.6-.98,1.05-2.03,1.51-3.09.38-.75.68-1.58.98-2.34.3-.75.53-1.51.68-2.26.3-1.88.83-3.69.68-5.65V.08C59.51,0,61.25,0,63.05,0ZM26.14,28.19c-.08-.53,0-.83-.08-1.13-.23-.68-.53-1.36-.75-2.03-.68-1.88-1.81-3.47-3.16-4.9-2.03-2.19-4.44-3.84-7.16-5.05-1.69-.74-3.46-1.27-5.27-1.58-.45-.08-.9-.08-1.36-.08-.6,0-.75.38-.45.9.83,1.28,1.66,2.56,2.56,3.77,1.65,2.1,3.55,4,5.65,5.65,2.18,1.66,4.6,2.94,7.16,3.77.98.3,1.81.45,2.86.68ZM225.17,26.53q-1.36,0-1.36-1.28v-1.81c0-.23-.07-.53-.15-.9-.9.68-.98,1.96-2.03,2.41-.6-.75-1.13-1.51-1.66-2.26-.07,0-.15,0-.23.08,0,.23-.07.45-.07.68v2.41c0,.6-.15.83-.6.83s-.75-.23-.75-.83v-4.9c0-.38.07-.83.53-.9.45-.08.9-.08,1.21.38.45.68.9,1.43,1.36,2.11.07.08.15.15.3.38.3-.3.53-.53.75-.83.23-.3.45-.6.6-.98.45-.9,1.13-1.28,2.11-1.05v6.48h0ZM196.39,28.11c.6-.45,1.13-.83,1.73-1.28,1.58-1.06,3.31-1.43,5.2-1.36,2.26.08,4.22.98,5.88,2.56,1.81,1.73,2.64,3.99,2.64,6.48v13.11c0,1.13-.23,1.36-1.36,1.36h-2.41c-1.21,0-1.36-.23-1.36-1.36v-12.36c0-.45,0-.9-.08-1.36-.23-2.26-2.56-3.99-5.12-3.17-1.73.6-2.56,1.81-2.64,3.92-.07,1.96,0,3.84,0,5.8v7.24c0,1.06-.15,1.28-1.28,1.28h-2.56c-1.05,0-1.36-.22-1.36-1.36v-13.34c.07-2.26-2.34-4.37-5.05-3.54-1.21.38-2.11,1.21-2.41,2.49-.15.75-.3,1.58-.3,2.41v12.28c0,.75-.23,1.06-.98,1.06h-3.09c-.9,0-1.13-.3-1.13-1.21,0-4.37-.08-8.74,0-13.11.07-3.01,1.21-5.58,3.69-7.46,1.88-1.43,4.07-1.88,6.4-1.66,1.96.23,3.62,1.06,5.12,2.34.23.08.38.15.45.23ZM111.27,49.74h-.83c-1.51.15-2.86-.45-4.14-.98-2.11-.9-3.77-2.26-5.05-4.14-.77-1.16-1.36-2.43-1.73-3.77-.45-1.58-.53-3.09-.38-4.67.45-3.17,1.88-5.8,4.44-7.91,2.26-1.88,4.9-2.79,7.83-2.71,4.6.08,7.99,2.19,10.4,6.03,1.43,2.41,1.81,5.05,1.43,7.84-.45,3.62-2.41,6.25-5.27,8.36-.98.68-2.11,1.06-3.16,1.51-1.36.45-2.49.38-3.54.45ZM111.19,30.67c-3.99-.23-7.08,3.24-7.16,6.93-.07,3.84,3.16,7.08,7.01,7.16,3.77,0,7.01-2.94,7.08-7.01.07-3.99-3.32-7.31-6.93-7.08Z"/>
      <path class="cls-1" d="M122.11,26.6c.38-.08.6-.23.9-.23h4.6c.45,0,.75.15,1.05.53l3.62,4.75c.45.53.9,1.13,1.36,1.66.83-.38,1.13-1.13,1.58-1.73,1.22-1.54,2.43-3.1,3.62-4.67.3-.38.6-.53,1.05-.53h4.67c.23,0,.45.08.83.15-.23.38-.38.75-.6.98-2.49,3.17-4.9,6.33-7.38,9.57-.3.38-.3.68,0,1.13,2.03,2.64,4.14,5.35,6.18,7.99.45.6.9,1.13,1.36,1.81.15.23.23.53.38.9-.38.07-.68.15-.98.15h-3.92c-.68,0-1.21-.15-1.66-.75-.96-1.27-1.94-2.53-2.94-3.77-.68-.83-1.36-1.66-2.03-2.64-.75.98-1.43,1.81-2.11,2.71-.98,1.28-2.03,2.56-3.01,3.84-.23.3-.53.53-.98.53-1.58,0-3.24.07-4.82.07-.53,0-.68-.53-.3-1.06.6-.83,1.21-1.58,1.81-2.34,1.36-1.73,2.71-3.54,4.07-5.28.48-.65.98-1.27,1.51-1.88.53-.68.53-.9.07-1.51-1.01-1.32-2.04-2.63-3.09-3.92-1.51-1.96-3.01-3.92-4.52-5.8-.08-.23-.18-.46-.3-.68h0ZM177.18,34.59v6.56c0,1.73-.68,3.17-1.58,4.52-.9,1.43-2.18,2.49-3.69,3.17-.98.45-2.03,1.06-3.16.9-.38-.08-.83,0-1.28,0-2.94.07-5.12-1.36-7.01-3.39-1.58-1.81-2.18-3.99-2.18-6.33-.07-4.14,0-8.29,0-12.44,0-.98.15-1.13,1.13-1.13h2.79c1.05,0,1.21.15,1.21,1.21v11.76c0,.75.07,1.51.23,2.18.3,1.13,1.05,1.96,2.03,2.56,1.43.83,2.86.83,4.22,0,1.28-.83,2.18-1.96,2.26-3.54.07-1.66,0-3.32,0-4.97v-8.22c0-.9.07-.98.98-.98h2.64q1.36,0,1.36,1.36c.07,2.19.07,4.45.07,6.78h0ZM92.81,40.24v8.06c0,.38-.23.68-.68.68h-3.62c-.38,0-.6-.23-.68-.6v-15.98c-.08-.75-.23-.9-.98-.9h-.45c-.68-.08-.9-.23-.9-.9v-3.32c0-.75.15-.83.9-.9q1.36-.08,1.43-1.43c.23-3.47,1.88-6.03,4.75-7.91,1.28-.83,2.79-1.28,4.22-1.58.98-.23,1.36.08,1.36,1.06v2.79c0,.9-.23,1.21-1.13,1.36-2.49.38-4.07,2.79-4.14,4.75,0,.83.07.9.9.98h3.24c.98,0,1.13.15,1.13,1.13v2.86c0,.83-.23,1.06-1.06,1.06h-3.16c-.98,0-1.06.08-1.06,1.06-.07,2.64-.07,5.2-.07,7.76h0ZM153.75,37.68v10.55c-.07.6-.23.75-.83.83h-3.32c-.6,0-.75-.15-.83-.75v-20.57q0-1.28,1.36-1.28h2.49c1.13,0,1.21,0,1.21,1.21v4c-.08,1.96-.08,3.99-.08,6.03h0ZM215.23,23.82v1.81c0,.6-.23.83-.68.83-.53,0-.75-.23-.75-.83v-3.39c0-.9-.07-.98-.98-1.13-.23,0-.45,0-.68-.15-.21-.12-.37-.31-.45-.53-.08-.3.15-.53.45-.6.23,0,.38-.08.6-.08,1.21,0,2.41-.08,3.62-.08.45,0,.75.23.75.68s-.23.68-.75.68c-1.05-.08-1.21.08-1.21,1.13.07.6.07,1.13.07,1.66Z"/>
    </g>
  </g>
</svg>