<?xml version="1.0" encoding="UTF-8"?>
<svg id="Layer_2" data-name="Layer 2" xmlns="http://www.w3.org/2000/svg" viewBox="0 0 220 88">
  <defs>
    <style>
      .cls-1 {
        fill: #fff;
        stroke-width: 0px;
      }
    </style>
  </defs>
  <g id="Layer_1-2" data-name="Layer 1">
    <g>
      <path class="cls-1" d="M68.02,0h-34.01l-16.9,29.15.11.18,8.3,14.31h0s0,0,0,0l8.5,14.66h0s-1.31-1.89-1.31-1.89l-7.93-11.49-.88-1.28h0s-15.18,0-15.18,0L0,58.67l17,29.33h34.01l17.01-29.33h0s.2-.35.2-.35h-.01l-8.5-14.66h0s0,0,0,0l-8.5-14.66h0s10.12,14.66,10.12,14.66h0s15.18,0,15.18,0h.19s8.3-14.32,8.3-14.32L68.02,0Z"/>
      <path class="cls-1" d="M112.24,42.25c-2.83-.84-5.43-1.64-5.43-4.19,0-2.17,1.99-3.2,4.21-3.2,2.03,0,4.28.91,5.62,2.63l3.06-3.28c-2.14-2.59-5.32-3.89-8.45-3.89-4.78,0-9.22,2.93-9.22,8.27s4.21,6.74,7.92,7.85c2.98.91,5.74,1.6,5.74,4,0,1.9-1.72,3.2-4.21,3.2s-5.05-1.18-6.77-3.39l-3.29,3.43c2.56,3.12,6.27,4.53,9.72,4.53,4.93,0,9.37-2.93,9.37-8.3s-4.44-6.55-8.26-7.66h0Z"/>
      <path class="cls-1" d="M143.07,51.35l-4.32-13.1h-4.63l-4.36,13.1-4.32-13.1h-4.97l7.15,19.35h4.28l4.52-12.88,4.51,12.88h4.32l7.15-19.35h-5.2l-4.13,13.1Z"/>
      <path class="cls-1" d="M159.7,38.25h-4.67v19.35h4.67v-19.35Z"/>
      <path class="cls-1" d="M157.36,29.37c-1.76,0-3.14,1.3-3.14,3.01s1.38,2.97,3.14,2.97,3.13-1.3,3.13-2.97-1.38-3.01-3.13-3.01Z"/>
      <path class="cls-1" d="M174.03,37.79c-2.68,0-5.01,1.22-6.2,3.24v-2.78h-4.51v19.35h4.63v-10.4c0-3.58,2.37-5.29,4.67-5.29,2.1,0,3.79,1.37,3.79,4.04v11.66h4.63v-12.42c0-4.88-3.1-7.39-7-7.39h0Z"/>
      <path class="cls-1" d="M194.08,53.68c-1.76,0-3.13-1.03-3.13-3.16v-8.15h6.66l-2.39-4.11h-4.28v-7.93h-4.67v7.93h-5.4l2.39,4.11h3.01v8.84c0,4.34,3.1,6.63,6.7,6.63,1.76,0,3.67-.57,5.35-1.75l-1.23-3.39c-.96.65-2.06.99-3.02.99h0Z"/>
      <path class="cls-1" d="M210.84,53.68c-1.76,0-3.14-1.03-3.14-3.16v-8.15h6.67l-2.39-4.11h-4.28v-7.93h-4.67v7.93h-5.4l2.39,4.11h3.01v8.84c0,4.34,3.1,6.63,6.7,6.63,1.76,0,3.67-.57,5.35-1.75l-1.23-3.39c-.96.65-2.06.99-3.02.99h0Z"/>
      <path class="cls-1" d="M217.96,38.24c-1.18,0-2.04.87-2.04,2.06s.86,2.06,2.04,2.06,2.04-.87,2.04-2.06-.86-2.06-2.04-2.06ZM217.96,42.06c-.98,0-1.71-.72-1.71-1.75s.74-1.75,1.71-1.75,1.71.72,1.71,1.75-.73,1.75-1.71,1.75Z"/>
      <path class="cls-1" d="M218.93,39.85c0-.42-.33-.72-.81-.72h-.98v2.17h.48v-.68h.38l.41.68h.58l-.49-.8c.25-.13.42-.38.42-.65h0ZM218.1,40.22h-.48v-.61h.47c.2,0,.34.13.34.3s-.13.3-.33.3h0Z"/>
    </g>
  </g>
</svg>