<?xml version="1.0" encoding="UTF-8"?>
<svg id="Layer_2" data-name="Layer 2" xmlns="http://www.w3.org/2000/svg" viewBox="0 0 215 70">
  <defs>
    <style>
      .cls-1, .cls-2 {
        fill: #fff;
        stroke-width: 0px;
      }

      .cls-2 {
        fill-rule: evenodd;
      }
    </style>
  </defs>
  <g id="Layer_1-2" data-name="Layer 1">
    <g>
      <path class="cls-1" d="M70.12,30.79c-2.94,3.25-6.38,6.01-10.21,8.18-.99,5.76-4.01,10.99-8.52,14.76-4.51,3.78-10.22,5.86-16.13,5.88-5.91.02-11.63-2.02-16.17-5.76-4.54-3.74-7.59-8.95-8.63-14.7-.9-.51-1.79-1.05-2.65-1.62-2.8-1.85-5.36-4.05-7.61-6.54-.14,1.26-.21,2.53-.21,3.8,0,4.74.98,9.42,2.88,13.77,1.9,4.35,4.67,8.27,8.16,11.52,3.48,3.25,7.6,5.76,12.1,7.38,4.5,1.62,9.29,2.32,14.07,2.04,4.78-.27,9.45-1.51,13.74-3.63,4.28-2.12,8.08-5.09,11.16-8.71,3.08-3.62,5.38-7.83,6.76-12.37,1.38-4.54,1.81-9.3,1.26-14.01Z"/>
      <path class="cls-1" d="M35.19,0c-7.99,0-15.75,2.69-21.99,7.64C6.96,12.58,2.6,19.48.86,27.19c.14.15.28.3.43.45,2.61,2.62,5.57,4.87,8.81,6.69.13-6.49,2.82-12.67,7.5-17.22,4.68-4.55,10.98-7.1,17.54-7.12,6.56-.01,12.87,2.52,17.57,7.05,4.7,4.53,7.41,10.71,7.56,17.2,3.12-1.76,5.99-3.93,8.54-6.44.24-.23.47-.47.7-.72-1.77-7.69-6.13-14.56-12.36-19.48C50.9,2.68,43.16,0,35.19,0h0Z"/>
      <path class="cls-2" d="M35.17,57.35c12.6,0,22.81-10.1,22.81-22.56s-10.21-22.56-22.81-22.56-22.81,10.1-22.81,22.56,10.21,22.56,22.81,22.56ZM53.52,28.02c-1.46-3.87-4.13-7.17-7.62-9.43-3.49-2.26-7.62-3.36-11.79-3.14h-.1c-.27.02-.55.05-.83.07-.04,0-.07,0-.11.01-.03,0-.07,0-.1.01-.24.03-.48.06-.72.09-.07.01-.13.02-.2.03h0l-.09.02c-.22.04-.43.07-.65.12-.11.02-.22.05-.33.07-.32.07-.64.15-.96.24-.19.05-.38.1-.57.16-.13.04-.26.08-.38.12-.18.06-.35.12-.53.18-.13.05-.26.09-.38.14-.26.1-.51.2-.77.31-.04.02-.08.03-.12.05h0c-.07.03-.14.06-.2.09-.3.14-.6.28-.9.43-.19.1-.37.2-.55.3-.33.18-.65.37-.97.57-.05.03-.1.06-.15.09h0s-.05.03-.08.05c-.71.46-1.4.97-2.04,1.52l-.1.08c-.21.18-.41.36-.61.55l-.14.13c-.2.2-.4.39-.6.6h0c-.2.21-.39.43-.58.65,5.55-1.69,11.45-1.92,17.12-.66,13.64,3.28,16.91,17.16,9.72,19.76-3.45,1.25-6.36.49-9.07-.21-2.93-.76-5.65-1.47-8.62.46-3.32,2.15-3.22,7.1-2.55,10.87.05.02.09.04.14.07.12.06.24.11.37.17,3.99,1.69,8.43,2.03,12.63.95s7.92-3.5,10.58-6.89l.04-.05c.18-.23.35-.46.51-.69l.11-.16c.14-.21.28-.41.42-.63l.14-.22c.12-.2.24-.4.35-.6.03-.05.06-.11.09-.16.02-.03.03-.06.05-.09.11-.2.21-.39.31-.59.05-.09.09-.19.14-.28.09-.19.18-.39.27-.59.05-.11.09-.22.14-.33.08-.18.15-.36.22-.54.11-.28.21-.56.31-.85h0c.06-.17.11-.34.16-.51.03-.09.05-.18.08-.27l.02-.06c.06-.21.12-.41.17-.62l.05-.21c.06-.25.11-.49.16-.74l.02-.1c.05-.28.1-.56.14-.85h0c.45-3.2.09-6.46-1.05-9.47ZM38.61,26.81c-5.61-3.13-14.13-2.88-20.12-2.16-1.37,2.2-2.28,4.65-2.67,7.2-.4,2.55-.27,5.16.37,7.66.64,2.5,1.77,4.86,3.35,6.92,1.57,2.06,3.54,3.79,5.8,5.09-1.94-4.58-3.58-10.7-.08-13.43,4.04-3.15,7.1-2.64,10.08-2.14,1.41.24,2.8.47,4.27.31,4.55-.51,8.44-4.19-.98-9.45h0Z"/>
      <path class="cls-1" d="M87.67,13.63c.17-.98.3-1.98.53-2.95.05-.16.05-.34,0-.5-.05-.16-.16-.3-.3-.4-.69-.64-1.37-1.29-2.03-1.95-.45-.45-.37-.76.27-.88.93-.17,1.87-.24,2.8-.43.32-.08.6-.28.78-.56.46-.79.83-1.63,1.26-2.43.1-.18.33-.41.49-.4.17,0,.39.23.49.42.42.76.83,1.53,1.17,2.33.08.2.21.38.39.5.18.12.39.19.61.2.85.09,1.7.21,2.54.35.21.04.55.19.57.32,0,.12-.02.24-.07.36-.05.11-.12.21-.21.3-.65.67-1.36,1.29-2.01,1.97-.17.2-.25.46-.22.72.13.95.33,1.88.47,2.83.01.12,0,.24-.04.36-.04.12-.1.22-.18.32-.08.08-.43-.05-.63-.15-.88-.44-1.74-.92-2.63-1.35-.1-.04-.2-.05-.3-.05-.1,0-.2.03-.3.07-.9.46-1.78.93-2.66,1.42-.46.25-.79.09-.8-.42h0Z"/>
      <path class="cls-1" d="M163.3,13.63c.18-1.02.37-2.03.51-3.04.02-.26-.06-.52-.22-.72-.69-.72-1.44-1.4-2.16-2.1-.41-.4-.35-.68.22-.79.91-.17,1.82-.3,2.73-.4.23,0,.45-.07.64-.2.19-.13.33-.31.41-.52.33-.76.71-1.49,1.12-2.21.12-.23.32-.41.57-.51.13-.03.39.27.51.48.4.72.79,1.45,1.12,2.21.08.22.23.41.43.55.2.14.43.21.67.21.85.09,1.7.21,2.54.36.11.01.22.05.32.11.1.06.19.13.26.23.06.12-.14.41-.29.56-.64.65-1.3,1.29-1.98,1.91-.15.11-.26.26-.31.43-.06.17-.06.36,0,.53.21.89.34,1.79.47,2.69-.01.25-.06.49-.15.71-.24-.03-.48-.09-.7-.18-.86-.43-1.7-.9-2.57-1.31-.12-.04-.24-.06-.36-.05-.12,0-.24.04-.35.09-.88.44-1.74.92-2.6,1.39-.44.24-.78.05-.78-.43h0Z"/>
      <path class="cls-1" d="M123.1,7.29c.21-.11.43-.2.66-.26.84-.14,1.69-.3,2.54-.37.26,0,.52-.08.73-.23.21-.15.38-.36.46-.6.34-.78.73-1.53,1.13-2.28.09-.17.3-.38.45-.38.15,0,.36.22.44.39.42.81.83,1.63,1.22,2.45.08.18.2.33.36.44.16.11.35.17.55.18.91.11,1.82.25,2.73.4.25.07.5.17.74.29-.9.88-1.7,1.68-2.52,2.45-.15.12-.26.28-.32.47-.05.18-.05.38,0,.56.21.86.35,1.74.47,2.62-.02.23-.08.45-.18.65-.2-.04-.39-.1-.57-.18-.88-.45-1.74-.92-2.63-1.35-.1-.04-.2-.06-.3-.06-.1,0-.21.02-.3.06-.9.44-1.79.93-2.68,1.38-.16.08-.47.19-.5.14-.14-.18-.21-.4-.21-.63.12-.88.27-1.76.47-2.62.06-.18.07-.38.01-.57-.05-.19-.16-.35-.31-.47-.67-.62-1.31-1.28-1.96-1.93-.15-.15-.28-.31-.49-.56h0Z"/>
      <path class="cls-1" d="M75.57,61.53h-1.6v-1.49h4.68v1.49h-1.59v8.35h-1.5v-8.35Z"/>
      <path class="cls-1" d="M82.23,60.04c.34-.03.68.02,1,.14.32.12.61.31.84.55.37.47.55,1.07.52,1.66v1.43c0,.33-.07.67-.2.97-.14.31-.34.58-.6.8l1.11,4.3h-1.62l-.91-3.71h-1v3.71h-1.5v-9.84h2.37ZM83.12,62.41c.02-.12,0-.23-.03-.34-.04-.11-.1-.21-.18-.29s-.18-.15-.3-.18c-.11-.04-.23-.05-.35-.03h-.91v3.15h.91c.11,0,.23-.02.33-.06.1-.04.2-.11.28-.19.08-.08.14-.17.19-.28.04-.1.06-.22.06-.33v-1.44Z"/>
      <path class="cls-1" d="M87.68,69.87h-1.5v-9.84h1.5v9.84Z"/>
      <path class="cls-1" d="M91.39,60.04c.32-.01.65.04.95.16.3.12.57.3.8.53.41.46.63,1.05.6,1.66v1.43c0,.31-.05.62-.17.9-.12.29-.29.55-.52.76-.21.22-.47.4-.76.52-.29.12-.59.18-.9.17h-.87v3.71h-1.5v-9.84h2.37ZM92.28,62.41c0-.11-.01-.23-.05-.33s-.1-.2-.18-.29c-.08-.08-.18-.14-.29-.18-.11-.04-.22-.06-.34-.05h-.91v3.15h.91c.11,0,.23-.02.33-.06.1-.04.2-.11.28-.19.08-.08.14-.17.19-.28.04-.1.06-.22.06-.33v-1.44Z"/>
      <path class="cls-1" d="M99.02,69.87h-4.09v-9.84h1.5v8.36h2.59v1.48Z"/>
      <path class="cls-1" d="M100.06,69.87v-9.85h4.27v1.49h-2.77v2.69h2.02v1.49h-2.02v2.69h2.77v1.49h-4.27Z"/>
      <path class="cls-1" d="M112.98,60.04c.32-.01.65.04.95.16.3.12.57.3.8.53.41.46.63,1.05.6,1.66v1.43c0,.31-.05.62-.17.9-.12.29-.29.55-.52.76-.21.22-.47.4-.76.52-.29.12-.6.18-.91.17h-.86v3.71h-1.5v-9.84h2.37ZM113.88,62.41c0-.11-.01-.23-.05-.33-.04-.11-.1-.2-.18-.29-.08-.08-.18-.14-.29-.18-.11-.04-.22-.06-.34-.05h-.9v3.15h.9c.11,0,.23-.02.33-.06.11-.04.2-.11.28-.19.08-.08.14-.17.19-.28.04-.1.06-.22.06-.33v-1.44Z"/>
      <path class="cls-1" d="M118.89,60.04c.34-.03.68.02,1,.14s.61.31.84.55c.37.47.55,1.07.52,1.66v1.43c0,.33-.07.67-.2.97-.14.31-.34.58-.6.8l1.11,4.3h-1.62l-.91-3.71h-1v3.71h-1.5v-9.84h2.37ZM119.79,62.41c.02-.12,0-.23-.03-.34-.04-.11-.1-.21-.18-.29s-.18-.15-.3-.18c-.11-.04-.23-.05-.35-.03h-.9v3.15h.9c.11,0,.23-.02.33-.06.1-.04.2-.11.28-.19.08-.08.14-.17.19-.28.04-.1.07-.22.06-.33v-1.44Z"/>
      <path class="cls-1" d="M124.96,59.91c.31,0,.62.06.91.18.29.12.55.29.77.51.22.22.4.48.52.76.12.29.18.59.18.9v5.37c0,.62-.25,1.22-.7,1.66-.45.44-1.05.69-1.68.69s-1.24-.25-1.68-.69c-.45-.44-.7-1.04-.7-1.66v-5.37c0-.62.25-1.22.69-1.66.45-.44,1.05-.69,1.68-.69h0ZM125.78,62.24c0-.11-.02-.22-.06-.33-.04-.1-.11-.2-.19-.28-.08-.08-.18-.14-.28-.18-.1-.04-.22-.06-.33-.06-.11,0-.23.02-.33.06-.1.04-.2.11-.28.19-.08.08-.15.17-.19.27-.04.1-.07.21-.06.33v5.39c0,.11.02.22.06.33.04.1.11.2.19.27.08.08.18.14.28.19.11.04.22.06.33.06.11,0,.22-.02.33-.06.1-.04.2-.1.28-.18.08-.08.14-.17.19-.28.04-.1.06-.21.06-.33v-5.39Z"/>
      <path class="cls-1" d="M130.17,69.87h-1.5v-9.85h4.27v1.49h-2.77v2.69h2.02v1.49h-2.02v4.18Z"/>
      <path class="cls-1" d="M135.47,69.87h-1.5v-9.84h1.5v9.84Z"/>
      <path class="cls-1" d="M138.27,61.53h-1.6v-1.49h4.68v1.49h-1.59v8.35h-1.5v-8.35Z"/>
      <path class="cls-1" d="M147.35,67.43c.03.63-.16,1.25-.54,1.76-.26.34-.62.58-1.03.7-.27.08-.55.12-.83.11-.52.02-1.04-.13-1.46-.43-.34-.25-.6-.58-.77-.96-.2-.44-.31-.91-.33-1.39l1.43-.1c.02.45.18.89.46,1.25.07.09.17.16.28.21.11.05.22.07.34.07.16,0,.32-.05.46-.14.14-.08.25-.2.33-.34.11-.2.17-.42.15-.65-.02-.46-.23-.9-.56-1.22l-1.33-1.25c-.41-.37-.77-.8-1.06-1.28-.22-.43-.34-.9-.33-1.38-.03-.39.04-.77.2-1.13.16-.35.4-.67.71-.91.41-.29.9-.43,1.4-.42.48-.01.96.11,1.37.35.3.19.55.45.72.77.19.35.3.74.33,1.14l-1.44.26c-.02-.34-.14-.67-.35-.94-.07-.08-.17-.15-.27-.19-.1-.04-.21-.06-.33-.05-.13,0-.26.03-.37.09-.11.06-.2.16-.26.27-.12.22-.18.47-.17.72.03.51.23,1,.59,1.37.2.23.42.44.67.63.35.29.58.49.69.61.33.32.62.68.86,1.08.09.15.16.3.23.46.13.3.21.62.22.94h0Z"/>
      <path class="cls-1" d="M155.68,70c-.63,0-1.24-.25-1.68-.69-.45-.44-.7-1.04-.7-1.66v-5.37c0-.62.25-1.22.7-1.66s1.05-.69,1.68-.69,1.24.25,1.68.69.7,1.04.7,1.66v1.12h-1.56v-1.15c0-.23-.09-.44-.25-.6s-.38-.25-.61-.25c-.11,0-.23.02-.33.06-.1.04-.2.11-.28.19-.08.08-.14.17-.19.28-.04.1-.07.22-.06.33v5.39c0,.11.02.22.06.33.04.1.11.2.19.28.08.08.17.14.28.18.1.04.22.06.33.06.11,0,.22-.02.33-.06.1-.04.2-.11.28-.18.08-.08.15-.17.19-.27.04-.1.06-.21.06-.33v-1.93h-.83v-1.49h2.39v3.44c0,.31-.06.61-.18.9s-.29.54-.51.76c-.22.22-.48.39-.77.51-.29.12-.6.18-.91.18h0Z"/>
      <path class="cls-1" d="M161.01,67.61l-.37,2.26h-1.56l1.69-9.84h2.06l1.67,9.84h-1.58l-.35-2.26h-1.57ZM161.8,62.29l-.55,3.88h1.11l-.56-3.88Z"/>
      <path class="cls-1" d="M167.27,69.87h-1.5v-9.85h2.15l1.4,7.07,1.34-7.07h2.07v9.85h-1.5v-6.19l-1.3,6.19h-1.2l-1.45-6.17v6.17Z"/>
      <path class="cls-1" d="M174.07,69.87v-9.85h4.27v1.49h-2.77v2.69h2.02v1.49h-2.02v2.69h2.77v1.49h-4.27Z"/>
      <path class="cls-1" d="M184.34,67.43c.03.63-.16,1.25-.54,1.76-.26.34-.62.58-1.03.7-.27.08-.55.12-.84.11-.52.02-1.04-.13-1.46-.43-.33-.25-.6-.58-.77-.96-.19-.44-.31-.91-.33-1.39l1.43-.1c.02.45.18.89.46,1.25.07.09.17.16.28.21.11.05.23.07.34.07.16,0,.32-.05.46-.14.14-.08.25-.2.33-.34.11-.2.16-.42.15-.65-.02-.46-.23-.9-.56-1.22l-1.33-1.25c-.41-.37-.77-.8-1.06-1.28-.22-.43-.34-.9-.33-1.38-.03-.39.04-.77.2-1.13.16-.35.4-.67.71-.91.41-.29.9-.43,1.4-.42.48-.01.96.11,1.37.35.3.19.55.45.72.77.19.35.3.74.33,1.14l-1.44.26c-.02-.34-.14-.67-.35-.94-.07-.08-.17-.15-.27-.19-.1-.04-.21-.06-.33-.05-.13,0-.26.03-.37.09-.11.06-.2.16-.26.27-.12.22-.18.47-.18.72.03.51.23,1,.59,1.37.2.23.43.44.67.63.35.29.58.49.69.61.34.32.62.68.86,1.08.09.15.16.3.23.46.13.3.21.62.22.94h0Z"/>
      <path class="cls-2" d="M146.46,16.97h-34.71v39.33h34.71V16.97ZM79.84,16.97h29.02c0,.69,0,12.52,0,23.03,0,8.51,0,16.16,0,16.32h-.39c-2.72,0-18.9,0-27.09,0-1.26.03-2.5-.29-3.58-.92-1.08-.63-1.97-1.55-2.55-2.65-.84-1.42-1.28-3.05-1.28-4.7,0-5.46,0-13.92,0-20.64,0-1.68,0-3.24,0-4.63,0-.76.15-1.52.44-2.22.29-.7.73-1.35,1.27-1.89.55-.54,1.19-.97,1.9-1.26.71-.29,1.48-.44,2.25-.44h0ZM172.36,56.29h-22.57V16.97h.79c2.22,0,4.87,0,7.74,0,4.43,0,9.37,0,14.04,0,1.57,0,3.13.31,4.59.9,1.45.6,2.78,1.47,3.89,2.57,1.11,1.1,2,2.41,2.6,3.84.6,1.44.91,2.98.91,4.54v15.61c0,3.14-1.26,6.16-3.51,8.38-2.25,2.22-5.29,3.47-8.47,3.47ZM187.36,26.25v25.51c0,.61.14,1.21.42,1.75.27.54.67,1.02,1.16,1.39.49.37,1.06.62,1.66.73.6.11,1.23.08,1.82-.08,3.62-1.03,6.83-3.13,9.2-6.03,2.37-2.9,3.78-6.44,4.03-10.16.26-3.72-.65-7.42-2.59-10.61-1.94-3.19-4.83-5.71-8.28-7.22-.8-.36-1.68-.51-2.55-.45-.88.06-1.72.34-2.46.81-.74.47-1.35,1.11-1.77,1.88-.42.76-.64,1.61-.65,2.48ZM134.46,33.85c.15.02.31,0,.44-.09.13-.08.23-.21.28-.35.09-.29.13-.58.13-.88.01-.26-.04-.52-.16-.75-.16-.22-.39-.39-.65-.49h-18v-5.83h23.31c.32.06.62.17.89.33.2.12.36.28.49.46.11.16.2.34.27.53.06.18.14.36.22.53v9.63c-.05.48-.22.94-.49,1.35-.35.45-.83.79-1.38.95h-17.51v8.43h-5.8v-13.82h17.95ZM77.93,31.64v-5.83h26.97v5.83h-10.36v16.38h-6.34v-16.38h-10.27ZM180.43,35.62c-.19-.47-.48-.9-.85-1.26h0c-.18-.17-.4-.3-.64-.39-.24-.09-.49-.13-.74-.12h-14.65v5.34h10.09c.31.08.57.27.75.53.18.26.26.57.23.88-.03.21-.08.41-.14.62-.03.15-.1.29-.22.4h-14.87v-10.38h21.57v-2.21c-.02-.41-.14-.82-.36-1.17-.24-.43-.54-.82-.89-1.17-.35-.34-.74-.64-1.16-.88-.35-.22-.75-.34-1.16-.35h-20.67c-.41.02-.82.15-1.16.37-.42.26-.81.56-1.16.91-.35.34-.65.73-.89,1.15-.22.35-.34.74-.36,1.15v15.06c.02.41.14.8.36,1.15.24.42.54.81.89,1.15.35.35.74.65,1.16.91.34.23.75.36,1.16.37h20.81c.44,0,.87-.13,1.25-.35.42-.24.79-.53,1.12-.88.32-.34.58-.73.78-1.15.18-.37.28-.78.29-1.19v-5.08c0-.58-.04-1.17-.11-1.75-.07-.57-.21-1.12-.42-1.65ZM203.49,38.29c0,1.07-.43,2.09-1.19,2.84-.76.75-1.8,1.18-2.88,1.18s-2.11-.42-2.88-1.18c-.76-.75-1.19-1.78-1.19-2.84s.43-2.09,1.19-2.84c.76-.75,1.8-1.18,2.88-1.18s2.11.42,2.88,1.18c.76.75,1.19,1.78,1.19,2.84Z"/>
      <path class="cls-1" d="M210.83,10.27l-9.42,28.79c-.18.53-.56.98-1.06,1.24s-1.09.3-1.63.13h0c-.54-.17-.99-.55-1.25-1.05-.26-.5-.31-1.08-.13-1.62l9.42-28.79c.18-.53.56-.98,1.06-1.24.51-.26,1.1-.3,1.64-.13h0c.54.17.99.55,1.25,1.05.26.5.31,1.08.13,1.62h0Z"/>
      <path class="cls-1" d="M215,7.6c0,1.46-.59,2.85-1.63,3.88-1.04,1.03-2.45,1.61-3.92,1.61s-2.88-.58-3.93-1.61c-1.04-1.03-1.62-2.43-1.62-3.88s.58-2.85,1.62-3.88c1.04-1.03,2.45-1.61,3.93-1.61s2.88.58,3.92,1.61c1.04,1.03,1.63,2.43,1.63,3.88h0Z"/>
    </g>
  </g>
</svg>