<?xml version="1.0" encoding="UTF-8"?>
<svg id="Layer_2" data-name="Layer 2" xmlns="http://www.w3.org/2000/svg" viewBox="0 0 225.32 93.34">
  <defs>
    <style>
      .cls-1 {
        fill: #fff;
        stroke-width: 0px;
      }
    </style>
  </defs>
  <g id="Layer_1-2" data-name="Layer 1">
    <g>
      <path class="cls-1" d="M.08,88.14c1.81.22,2.64-.52,2.64-2.47v-26.66h4.97c0,.37.08.67.08,1.05v26.58c0,.6-.08,1.2-.23,1.8-.6,2.85-2.64,4.57-5.57,4.72H0c.08-1.65.08-3.29.08-5.02h0ZM121.51,22.61c0,6.59-.6,13.03-1.73,19.54-.3,1.95-1.43,2.92-3.39,2.92h-14.99c-1.96,0-3.01-.97-3.39-2.85-1.43-7.71-1.88-15.5-1.66-23.36.15-5.32.68-10.56,1.66-15.8.38-2.1,1.51-3,3.62-3.07h14.54c1.96.07,3.16,1.05,3.47,2.99,1.28,6.44,1.88,13.03,1.88,19.62ZM107.95,28.23c.07,0,.15-.08.15-.08-.83-2.85-1.58-5.69-2.41-8.46h-5.42c2.71,2.92,5.2,5.77,7.68,8.54ZM117.45,19.69h-5.35c-.75,2.77-1.58,5.62-2.33,8.39.07,0,.15.08.15.08,2.41-2.7,4.9-5.54,7.53-8.46ZM108.78,28.6h.23c.75-2.99,1.58-5.92,2.41-8.99h-4.97c.75,3.07,1.58,6.07,2.34,8.99ZM103.13,15.8c-.98,1.05-1.81,1.95-2.79,3h4.9c-.68-.97-1.36-1.87-2.11-3h0ZM117.52,18.87c-1.05-1.12-1.88-2.1-2.86-3.07-.75,1.05-1.36,2.02-2.11,3.07h4.97ZM109.54,15.58c.83,1.05,1.51,2.02,2.26,3.07.75-1.12,1.43-2.02,2.18-3.07h-4.44ZM105.99,18.72c.75-1.05,1.43-2.02,2.26-3.07h-4.37c.68,1.05,1.36,1.95,2.11,3.07ZM111.12,18.87c-.75-1.05-1.43-2.02-2.26-3.07-.75,1.05-1.43,2.02-2.18,3.07h4.44Z"/>
      <path class="cls-1" d="M131.23,45.08c-2.41,0-4.82-.08-7.23,0-1.88.07-2.71-1.2-2.49-2.77.6-4.87,1.21-9.74,1.43-14.6.38-8.16,0-16.25-1.36-24.34-.07-.37-.07-.67-.15-1.05-.08-1.12.53-1.87,1.66-2.17.45-.07.98-.15,1.43-.15h13.48c2.64,0,3.99.9,4.97,3.3,2.94,7.04,4.22,14.38,3.84,21.94-.3,5.86-1.65,11.62-3.99,17-.83,1.8-2.18,2.77-4.22,2.77-2.49.08-4.97.08-7.38.08h0ZM126.19,19.62c2.54,2.88,5.11,5.75,7.68,8.61.07-.07.15-.07.15-.15-.83-2.85-1.58-5.62-2.41-8.46h-5.42ZM135.68,27.86c.07.07.15.07.3.15,2.41-2.77,4.9-5.47,7.46-8.39h-5.42c-.83,2.77-1.58,5.54-2.34,8.24h0ZM132.29,19.62c.83,2.99,1.58,5.99,2.34,8.91.07,0,.15,0,.23-.07.75-2.92,1.51-5.84,2.34-8.84h-4.9ZM129.05,15.8c-.98,1.05-1.81,1.95-2.79,3h4.9c-.75-1.05-1.36-1.95-2.11-3h0ZM143.36,18.87c-.98-1.05-1.81-2.02-2.79-3.07-.75,1.05-1.43,2.02-2.18,3.07h4.97ZM137.71,18.65c.75-1.12,1.43-2.02,2.18-3.07h-4.44c.83,1.12,1.51,2.02,2.26,3.07ZM131.91,18.65c.83-1.05,1.51-2.02,2.26-3.07h-4.45c.75,1.12,1.36,2.02,2.18,3.07h0ZM132.59,18.8h4.37c-.75-1.05-1.43-1.95-2.18-2.99-.75,1.05-1.43,1.95-2.18,2.99ZM86.33,45.08h-7.23c-2.03,0-3.46-.97-4.22-2.77-3.32-7.64-4.6-15.65-3.92-23.96.45-5.24,1.73-10.26,3.69-15.13C75.56.97,77.07,0,79.48,0h13.86C95.6,0,96.35.82,96.05,3.15c0,.15,0,.23-.07.38-1.21,7.19-1.58,14.45-1.43,21.72.07,5.54.53,11.08,1.43,16.55.08.3.08.6.08.97.15,1.5-.68,2.4-2.18,2.4-2.34-.08-4.97-.08-7.53-.08h0ZM79.63,19.69h-5.42c2.56,2.92,5.05,5.69,7.53,8.46.07-.08.15-.08.23-.15-.75-2.77-1.51-5.54-2.33-8.31ZM85.96,19.62c-.83,2.85-1.58,5.69-2.41,8.46.07,0,.15.08.23.08,2.49-2.85,4.97-5.62,7.61-8.61-1.96.08-3.62.08-5.42.08h0ZM80.31,19.62c.83,3.07,1.58,6.07,2.41,9.06h.15c.83-2.99,1.58-5.99,2.41-9.06h-4.97ZM76.99,15.8c-.92.98-1.83,1.98-2.71,3h4.9c-.83-1.05-1.43-2.02-2.18-3h0ZM88.52,15.8c-.75,1.05-1.43,2.02-2.11,3h4.82c-.88-1.02-1.79-2.02-2.71-3h0ZM85.73,18.65c.75-1.05,1.43-2.02,2.18-3.07h-4.37c.68,1.12,1.36,2.02,2.19,3.07ZM79.86,18.65c.75-1.05,1.43-2.02,2.26-3.07h-4.37c.68,1.12,1.36,2.02,2.11,3.07ZM85.05,18.87c-.83-1.12-1.51-2.02-2.26-3.07-.75,1.05-1.43,1.95-2.18,3.07h4.44ZM179.37,92.78h-3.99c-1.5-11.24-3.03-22.47-4.6-33.7h4.67c.68,6.14,1.43,12.28,2.11,18.42h.3l2.26-18.42h3.69c.75,6.22,1.51,12.28,2.26,18.42h.3c.23-2.25.53-4.57.75-6.81.38-3.67.83-7.26,1.21-10.93.07-.45.23-.75.75-.75h4.07c-1.51,11.31-3.09,22.54-4.6,33.85h-3.24c-.53,0-.75-.22-.83-.75-.38-2.92-.83-5.77-1.21-8.61-.38-2.77-.83-5.47-1.36-8.24-.83,5.77-1.73,11.61-2.56,17.52h0ZM213.04,59.08h4.52v33.77h-3.84c-.6,0-.68-.45-.75-.9-1.13-4.04-2.26-8.16-3.39-12.21-.53-1.95-1.05-3.82-1.81-5.69v18.72h-4.6v-33.62h4.45c1.73,6.29,3.46,12.51,5.2,18.8h.23v-18.87h0ZM142.31,92.78v-14.53h-3.69v14.53h-5.05v-33.62h4.97v13.86h3.69v-13.78h5.05v33.62c-1.51-.07-3.16-.07-4.97-.07h0ZM109.31,92.85h-4.52c-.23,0-.6-.45-.6-.67-.75-4.04-1.51-8.09-2.18-12.13-.08-.45-.15-.82-.3-1.35h-1.21v14.08h-4.97v-33.7c2.71,0,5.5-.3,8.14.38,2.26.6,3.84,2.17,4.6,4.42.98,3.14,1.06,6.36,0,9.51-.3.97-.9,1.87-1.51,2.62-.38.45-.45.9-.38,1.42l2.49,12.81c.15.82.3,1.65.45,2.62h0ZM100.57,64.1v9.88c1.88-.15,2.64-.75,3.16-2.4.53-1.65.53-3.37,0-5.09-.53-1.72-1.28-2.25-3.16-2.4ZM19.36,59.08h4.97c0,.38.08.67.08.97v25.68c0,2.17-.53,4.19-2.18,5.77-3.47,3.44-9.49,1.8-10.85-3-.3-.97-.38-1.95-.38-2.92v-25.38c0-.3.07-.6.07-.97h5.05v26.21c0,.6.08,1.27.23,1.87.15.67.68,1.12,1.36,1.12.75,0,1.2-.45,1.36-1.12.15-.6.23-1.2.23-1.8v-24.94c.08-.45.08-.9.08-1.5ZM78.8,75.93v-9.81c0-.82.15-1.65.38-2.47.98-3.52,3.54-5.24,7.08-4.94,3.17.3,5.5,2.77,5.8,6.21.07.97.15,2.02.15,3v16.92c0,1.12-.07,2.32-.38,3.44-.83,3.29-3.09,5.02-6.4,5.02s-5.5-1.8-6.33-5.02c-.23-.82-.3-1.65-.3-2.47-.07-3.37,0-6.66,0-9.88ZM83.85,75.93v9.81c0,.6.08,1.27.38,1.72.23.37.83.82,1.28.82s.98-.53,1.21-.9c.3-.45.3-1.05.3-1.65v-19.62c0-.6-.15-1.27-.45-1.8-.45-.9-1.88-.9-2.33,0-.3.52-.45,1.2-.45,1.8.07,3.29.07,6.51.07,9.81h0ZM26.82,83.34c1.81-.15,3.32-.3,5.12-.52,0,.6-.08,1.2,0,1.72.15.97.3,1.87.6,2.77.23.75.83,1.27,1.73,1.27.75,0,1.43-.52,1.66-1.5.38-1.35.53-2.69-.15-3.97-.75-1.41-1.53-2.81-2.34-4.19-1.28-2.02-2.79-3.97-3.84-6.07-.83-1.57-1.51-3.37-1.81-5.17-.45-2.32,0-4.57,1.36-6.51,1.51-2.17,3.69-2.85,6.18-2.62,2.49.22,4.22,1.5,5.05,3.82.6,1.65.9,3.29.75,5.17-1.58.15-3.09.3-4.75.45-.08-.75-.15-1.5-.3-2.25-.15-.6-.3-1.27-.6-1.8-.23-.38-.83-.82-1.21-.75-.45.07-1.06.52-1.21.9-.53,1.2-.6,2.55-.15,3.74.45,1.2,1.13,2.4,1.81,3.52,1.58,2.62,3.39,5.17,4.97,7.79,1.73,2.92,1.96,6.14,1.06,9.36-.83,2.92-2.86,4.42-5.88,4.57-.83,0-1.58,0-2.41-.07-3.24-.52-4.67-2.85-5.2-5.84-.3-1.12-.3-2.4-.45-3.82ZM160.54,78.55h-4.45v9.14h6.33v5.09h-11.38v-33.62h11.38v5.02h-6.33v8.84h4.45v5.54h0ZM77.14,59.08v5.02h-6.78v8.84h4.44v5.17h-4.52v14.68h-5.05v-33.7h11.9ZM51.76,92.78h-5.05v-28.53h-4.67v-5.09h14.31v5.02h-4.6v28.61h0ZM127.09,92.78h-5.05v-28.53h-4.75v-5.09h14.39v5.02h-4.52c-.07,9.58-.07,19.02-.07,28.61ZM200.46,92.78h-4.97v-33.7h4.97v33.7ZM225.32,60.43c0,1.57-1.21,2.77-2.86,2.77s-2.86-1.2-2.86-2.77,1.28-2.77,2.86-2.77c1.66.07,2.86,1.27,2.86,2.77ZM220.35,60.43c0,1.2.9,2.17,2.18,2.17,1.21,0,2.11-.97,2.11-2.17s-.9-2.25-2.11-2.25c-1.28.07-2.18,1.05-2.18,2.25ZM222.01,61.93h-.68v-2.77c.23-.08.6-.08,1.05-.08.53,0,.75.07.98.22.15.15.3.3.3.6s-.23.52-.6.67c.3.07.45.3.53.67.07.45.15.6.23.67h-.68c-.08-.07-.15-.37-.23-.67-.08-.3-.23-.45-.6-.45h-.3v1.12h0ZM222.08,60.36h.3c.38,0,.68-.15.68-.38s-.15-.45-.6-.45h-.38v.82h0Z"/>
    </g>
  </g>
</svg>