<?xml version="1.0" encoding="UTF-8"?>
<svg id="Layer_2" data-name="Layer 2" xmlns="http://www.w3.org/2000/svg" viewBox="0 0 225.83 46.42">
  <defs>
    <style>
      .cls-1, .cls-2 {
        fill: #fff;
        stroke-width: 0px;
      }

      .cls-2 {
        fill-rule: evenodd;
      }
    </style>
  </defs>
  <g id="Layer_1-2" data-name="Layer 1">
    <g>
      <path class="cls-1" d="M217.74,22.36h-1.25v-3.65h-1.25v-1.14h3.88v1.14h-1.37v3.65h0ZM225.72,22.36h-1.25l.11-3.65-1.25,3.65h-1.14l-1.25-3.65.11,3.65h-1.25v-4.79h2.05l.91,2.97h.11l.91-2.97h2.05l-.11,4.79h0ZM66.46,37.64h-5.47v-7.99h-7.18v7.99h-5.59v-20.42h5.59v7.76h7.18v-7.76h5.47s0,20.42,0,20.42ZM75.24,34.1l-1.03,3.54h-5.7l6.16-20.42h8.32l6.27,20.42h-5.59l-1.14-3.54h-7.3ZM78.89,21.33l-2.51,8.78h5.13s-2.62-8.78-2.62-8.78ZM91.31,17.22h11.29c1.82,0,3.31.34,4.45,1.03,1.14.69,1.71,2.05,1.71,4.22,0,1.14-.11,2.17-.46,3.08-.34.91-1.25,1.48-2.74,1.71v.11c1.37.11,2.39.57,2.85,1.37.46.68.68,1.71.68,3.08,0,2.28-.46,3.88-1.37,4.68-.91.8-2.62,1.25-5.02,1.25h-11.29s-.11-20.53-.11-20.53ZM100.43,25.43h.46c.58,0,1.15-.08,1.71-.23.46-.11.68-.68.68-1.48s-.11-1.25-.34-1.48c-.23-.34-.8-.46-1.48-.46h-4.56v3.65s3.53,0,3.53,0ZM100.55,33.08c.91,0,1.6-.11,2.17-.23.57-.23.8-.8.8-1.71s-.23-1.48-.68-1.71-1.14-.23-1.94-.23h-3.99v3.99h3.65v-.11ZM116.39,34.1l-1.03,3.54h-5.7l6.16-20.42h8.32l6.27,20.42h-5.59l-1.14-3.54h-7.3ZM120.04,21.33l-2.51,8.9h5.13s-2.62-8.9-2.62-8.9ZM152.42,37.64h-9.35l-5.81-15.63h-.34l.23,15.63h-5.36v-20.42h9.35l5.81,15.51h.23l-.23-15.51h5.47v20.42h0ZM160.74,25.43h8.78v3.76h-8.78v3.99h9.58v4.45h-15.05v-20.42h14.93v4.45h-9.46s0,3.76,0,3.76ZM172.82,17.22h10.37c2.62,0,4.56.46,5.7,1.37,1.14.91,1.71,2.62,1.71,5.36,0,1.48-.11,2.74-.46,3.65-.34.91-1.48,1.6-3.42,2.05v.23c1.25.11,2.17.46,2.85,1.14.68.8,1.03,1.82.91,2.85v3.65h-5.59v-2.74c0-.8-.11-1.48-.46-1.94s-.91-.68-1.82-.68h-4.1v5.36h-5.47l-.23-20.3h0ZM182.74,27.6c1.03,0,1.6-.23,1.82-.69.22-.66.34-1.35.34-2.05,0-1.03-.11-1.71-.34-2.17-.23-.46-.91-.69-2.05-.69h-4.1v5.59h4.33ZM192.77,26.35c0-1.26.11-2.51.34-3.76.34-2.28,1.48-3.76,3.19-4.45,1.71-.68,3.53-1.03,5.47-1.03h.57c3.53,0,6.04.57,7.41,1.83,1.37,1.14,2.17,3.65,2.17,7.3s-.46,6.62-1.25,8.55c-.8,1.94-3.53,2.97-8.21,2.97-.68,0-1.37,0-2.05-.11-1.6-.11-3.08-.34-4.45-.91s-2.28-1.71-2.85-3.42c-.22-.66-.34-1.35-.34-2.05,0-.68-.11-1.48-.11-2.17v-1.48l.11-1.25h0ZM198.36,27.49v1.26c0,1.48.11,2.51.46,3.31s1.37,1.14,3.08,1.14c1.94,0,3.08-.34,3.65-.91.46-.57.8-1.71.8-3.54v-2.97c0-1.37-.23-2.4-.57-2.97-.34-.69-1.37-.91-2.85-.91-2.17,0-3.42.34-3.76.91-.57.46-.68,1.94-.8,4.68h0Z"/>
      <path class="cls-2" d="M17.56,6.27c.57,0,1.03-.46,1.03-1.03v-2.97c0-.57-.46-1.03-1.03-1.03s-1.03.46-1.03,1.03v2.97c-.11.57.46,1.03,1.03,1.03ZM13.34,8.9c.57,0,1.03-.46,1.03-1.03v-2.97c0-.57-.46-1.03-1.03-1.03s-1.03.46-1.03,1.03v2.97c0,.57.46,1.03,1.03,1.03ZM13.34,2.05c.57,0,1.03-.46,1.03-1.03s-.46-1.03-1.03-1.03-1.03.46-1.03,1.03c0,.68.46,1.03,1.03,1.03ZM21.66,9.69c.57,0,1.03-.46,1.03-1.03s-.46-1.03-1.03-1.03-1.03.46-1.03,1.03.46,1.03,1.03,1.03Z"/>
      <path class="cls-2" d="M29.87,17.22c-.57,0-1.03.46-1.03,1.03v.57c0,.57-.46,1.03-1.03,1.03s-1.03-.46-1.03-1.03v-2.51c0-.57-.46-1.03-1.03-1.03s-1.03.46-1.03,1.03c.11.57-.34,1.03-.91,1.14-.57.12-1.03-.34-1.14-.91v-4.45c0-.57-.46-1.03-1.03-1.03s-1.03.46-1.03,1.03v1.6c0,.57-.57,1.03-1.03,1.03-.57,0-1.03-.46-1.03-1.03v-4.56c0-.57-.46-1.03-1.03-1.03s-1.03.46-1.03,1.03v3.88c0,.57-.46,1.03-1.03,1.03s-1.03-.46-1.03-1.03v-1.48c0-.57-.46-1.03-1.03-1.03s-1.03.46-1.03,1.03v3.08c0,.57-.46,1.03-1.03,1.03s-1.03-.46-1.03-1.03v-4.22c0-.57-.46-1.03-1.03-1.03s-1.03.46-1.03,1.03v6.5c0,.57-.46,1.03-1.03,1.03s-1.03-.46-1.03-1.03v-1.71c-.11-.57-.57-1.03-1.14-1.03s-1.03.46-1.03,1.03v4.79c0,.57-.46,1.03-1.03,1.03s-1.03-.46-1.03-1.03v-1.6c0-.57-.46-1.03-1.03-1.03s-1.03.46-1.03,1.03v19.28l15.39,8.78,15.39-8.78v-19.39c.11-.57-.34-1.03-.91-1.03h0ZM22.69,34.56h-4.9v-3.65h-4.9v3.65h-4.67v-11.41h4.79v3.88h4.9v-3.88h4.9v11.41h-.11Z"/>
    </g>
  </g>
</svg>