<?xml version="1.0" encoding="UTF-8"?>
<svg id="Layer_2" data-name="Layer 2" xmlns="http://www.w3.org/2000/svg" viewBox="0 0 182 52.9">
  <defs>
    <style>
      .cls-1, .cls-2 {
        fill: #fff;
        stroke-width: 0px;
      }

      .cls-2 {
        fill-rule: evenodd;
      }
    </style>
  </defs>
  <g id="Layer_1-2" data-name="Layer 1">
    <g>
      <path class="cls-2" d="M51.93,26c0,14.36-11.62,26-25.96,26S0,40.37,0,26,11.62,0,25.96,0s25.96,11.64,25.96,26ZM36.94,25.76l8.31,8.32c1.04,1.04,1.04,2.67,0,3.72l-7.37,7.38c-1.04,1.04-2.67,1.04-3.71,0l-8.31-8.32-8.31,8.32c-1.04,1.04-2.67,1.04-3.71,0l-7.37-7.38c-1.04-1.04-1.04-2.67,0-3.72l8.31-8.32-8.31-8.32c-1.04-1.04-1.04-2.67,0-3.71l7.37-7.38c1.04-1.04,2.67-1.04,3.71,0l8.31,8.32,8.31-8.32c1.04-1.04,2.67-1.04,3.71,0l7.37,7.38c1.04,1.04,1.04,2.67,0,3.71l-8.31,8.32Z"/>
      <path class="cls-1" d="M169.64,0c-6.82,0-12.36,5.55-12.36,12.38s5.54,12.38,12.36,12.38,12.36-5.55,12.36-12.38-5.54-12.38-12.36-12.38ZM175.32,14.86c.3.3.3.79,0,1.09l-2.18,2.18c-.3.3-.79.3-1.09,0l-2.42-2.43-2.42,2.43c-.3.3-.79.3-1.09,0l-2.18-2.18c-.3-.3-.3-.79,0-1.09l2.42-2.43-2.42-2.43c-.3-.3-.3-.79,0-1.09l2.18-2.18c.3-.3.79-.3,1.09,0l2.42,2.43,2.42-2.43c.3-.3.79-.3,1.09,0l2.18,2.18c.3.3.3.79,0,1.09l-2.42,2.43,2.42,2.43Z"/>
      <path class="cls-1" d="M92.19,30.71h6.92c.3,0,.59.2.69.5l7.72,20.66c.2.5-.2.99-.69.99h-6.43c-.3,0-.59-.2-.69-.5l-.64-1.78c-.1-.3-.39-.5-.69-.5h-5.44c-.3,0-.59.2-.69.5l-.64,1.78c-.1.3-.4.5-.69.5h-6.38c-.49,0-.89-.5-.69-.99l7.67-20.7c.1-.25.39-.45.69-.45ZM97.13,45.03c.49,0,.84-.5.69-.94l-2.13-6.59h-.15l-2.08,6.59c-.15.5.2.94.69.94h2.97Z"/>
      <path class="cls-1" d="M110.78,30.71h5.09c.25,0,.45.1.59.3l6.08,8.22c.3.4.89.4,1.19,0l6.08-8.22c.15-.2.35-.3.59-.3h5.04c.4,0,.74.35.74.74v20.66c0,.4-.35.74-.74.74h-5.98c-.4,0-.74-.35-.74-.74v-4.36l.05-4.56h-.1l-3.26,4.46c-.15.2-.35.3-.59.3h-3.46c-.25,0-.44-.1-.59-.3l-3.26-4.51-.1.05.05,4.56v4.36c0,.4-.35.74-.74.74h-5.93c-.4,0-.74-.35-.74-.74v-20.66c0-.45.3-.74.74-.74Z"/>
      <path class="cls-1" d="M174.73,39.48h-7.07s-1.53.1-1.53-1.24,1.53-1.34,1.53-1.34h13.6c.4,0,.74-.35.74-.74v-4.76c0-.4-.35-.74-.74-.74h-14.04c-3.61,0-7.32,0-7.32,7.33,0,6.64,3.56,6.04,7.22,6.04h7.07s1.58,0,1.58,1.24-1.53,1.29-1.53,1.29h-29.33v-1.78c0-.4.35-.74.74-.74h7.12c.4,0,.74-.35.74-.74v-3.17c0-.4-.35-.74-.74-.74h-7.86v-1.73c0-.4.35-.74.74-.74h10.78c.4,0,.74-.35.74-.74v-4.76c0-.4-.35-.74-.74-.74h-16.96c-.39,0-.74.35-.74.74v20.66c0,.4.35.74.74.74h35.21c3.76,0,7.27,0,7.27-7.33.05-6.59-3.71-5.99-7.22-5.99Z"/>
      <path class="cls-1" d="M124.43,24.22l-4.15-6.93c-.2-.3-.49-.5-.84-.5h-2.23c-.54,0-.99.45-.99.99v5.89c0,.54-.45.99-.99.99h-5.69c-.54,0-.99-.45-.99-.99V1.04c0-.54.44-.99.99-.99h14.14c5.69,0,8.56,4.21,8.56,8.37,0,2.87-1.34,5.75-4.01,7.28-.05.05-.1.15-.05.2l4.2,7.33c.4.64-.1,1.49-.89,1.49h-6.23c-.35,0-.64-.15-.84-.5ZM116.22,11s.05.1.1.1h5.59c1.88,0,2.82-1.34,2.82-2.67s-.94-2.67-2.82-2.67h-4.7c-.54,0-.99.45-.99.99v4.26Z"/>
      <path class="cls-1" d="M153.51,12.04s-.05-.05-.05-.1,0-.05.05-.1c1.19-1.24,1.88-3.22,1.88-5.2,0-4.61-2.97-6.64-5.93-6.64h-13.6c-.69,0-1.24.54-1.24,1.24v22.29c0,.69.54,1.24,1.24,1.24h13.6c4.5,0,6.53-3.67,6.53-7.03,0-2.33-.94-4.41-2.47-5.7ZM146.79,10.4h-5.34v-4.01c0-.4.35-.74.74-.74h4.6c1.73,0,2.52,1.19,2.52,2.38s-.79,2.38-2.52,2.38ZM142.19,14.76h4.6c1.73,0,2.52,1.19,2.52,2.38s-.79,2.38-2.52,2.38h-5.34v-4.01c0-.4.35-.74.74-.74Z"/>
      <path class="cls-1" d="M81.7,39.58h-8.01c-.64,0-1.14.5-1.14,1.14v2.77c0,.64.49,1.14,1.14,1.14h2.67c.1,0,.2.1.2.2v1.44s-.05.15-.1.2c-.74.4-1.58.59-2.67.59h-.15c-2.32,0-3.51-.05-4.6-.1-2.27-.15-3.96-2.28-3.96-5.05v-.05c0-2.38,1.48-4.36,3.76-5,.54-.15,9.3-.2,12.61-.15.54,0,.94-.45.94-.94v-4.01c0-.54-.44-.94-.94-.94-3.36,0-12.46,0-12.66.05-6.03.45-10.39,5.1-10.39,11v.05c0,6.49,3.26,10.5,8.95,10.95.25,0,2.13.05,5,.05h2.52c3.02,0,7.67-3.02,8.01-3.91.05-.1,0-8.17,0-8.17-.05-.74-.54-1.24-1.19-1.24Z"/>
      <path class="cls-1" d="M78.64,0h-18.84c-.54,0-.99.45-.99.99v5.65c0,.54.45.99.99.99h4.6c.54,0,.99.45.99.99v15.16c0,.54.45.99.99.99h5.64c.54,0,.99-.45.99-.99v-15.11c0-.54.45-.99.99-.99h4.6c.54,0,.99-.45.99-.99V.99c.05-.54-.39-.99-.94-.99Z"/>
      <path class="cls-1" d="M99.26.05c-.54,0-.99.45-.99.99v15.16c0,1.04-.39,1.44-1.48,1.44h-5.39c-1.09,0-1.48-.4-1.48-1.44V1.04c0-.54-.44-.99-.99-.99h-5.84c-.54,0-.99.45-.99.99v16.15c0,2.63.64,4.56,1.88,5.75,1.24,1.24,3.26,1.83,5.94,1.83h8.26c2.67,0,4.7-.64,5.94-1.83,1.24-1.24,1.88-3.17,1.88-5.75V1.04c0-.54-.45-.99-.99-.99h-5.74Z"/>
    </g>
  </g>
</svg>