<?xml version="1.0" encoding="UTF-8"?>
<svg id="Layer_2" data-name="Layer 2" xmlns="http://www.w3.org/2000/svg" viewBox="0 0 217.42 55.52">
  <defs>
    <style>
      .cls-1, .cls-2 {
        fill: #fff;
        stroke-width: 0px;
      }

      .cls-2 {
        fill-rule: evenodd;
      }
    </style>
  </defs>
  <g id="Layer_1-2" data-name="Layer 1">
    <g>
      <path class="cls-2" d="M91.24,36.05c0,.91-.17,1.76-.5,2.56-.33.8-.78,1.5-1.35,2.09-.57.59-1.26,1.06-2.05,1.4-.8.34-1.67.51-2.6.51-.82,0-1.56-.16-2.25-.5-.68-.33-1.25-.76-1.7-1.3v1.8h-2.81v-19.71h2.81v8.37c.45-.51,1.02-.94,1.72-1.28.69-.34,1.44-.51,2.24-.51.94,0,1.8.17,2.6.51.8.34,1.48.81,2.05,1.4.57.59,1.02,1.29,1.35,2.09.33.8.5,1.66.5,2.57h0ZM80.32,36.04c0,.56.1,1.09.31,1.57.21.49.5.92.86,1.28.36.36.79.64,1.27.85.48.2,1.01.31,1.56.31s1.11-.11,1.6-.31c.5-.21.93-.49,1.3-.85.37-.36.66-.79.87-1.28.21-.48.31-1.01.31-1.57s-.1-1.09-.31-1.58c-.21-.49-.5-.92-.87-1.28-.37-.36-.81-.64-1.3-.84-.5-.2-1.03-.31-1.6-.31s-1.08.1-1.56.31c-.49.21-.91.49-1.27.84-.36.36-.65.79-.86,1.28-.21.48-.31,1.01-.31,1.58Z"/>
      <path class="cls-1" d="M70.52,24.48c0-.4.14-.75.44-1.04.29-.28.64-.43,1.07-.43s.76.14,1.04.43c.29.28.44.63.44,1.04s-.15.77-.44,1.06c-.29.28-.64.43-1.04.43s-.78-.14-1.07-.43c-.29-.29-.44-.64-.44-1.06Z"/>
      <path class="cls-1" d="M73.45,42.61h-2.86v-13.14h2.86v13.14Z"/>
      <path class="cls-1" d="M94.44,42.62h2.86v-6.93c0-.53.09-1.03.27-1.49.18-.46.44-.86.78-1.19.34-.33.74-.6,1.21-.78.47-.19.98-.28,1.54-.28h.73v-2.47h-.73c-.85,0-1.64.17-2.36.52-.72.34-1.32.82-1.83,1.44v-1.95h-2.47v13.14Z"/>
      <path class="cls-2" d="M110.14,42.22c.76-.43,1.34-.98,1.74-1.64v2.04h2.76v-7.96c0-.72-.12-1.4-.36-2.06-.24-.66-.6-1.24-1.08-1.72-.47-.48-1.07-.88-1.78-1.16-.71-.29-1.53-.44-2.47-.44-1.03.02-1.95.24-2.78.68-.83.44-1.53.97-2.08,1.6l1.9,1.64c.38-.43.82-.76,1.32-1,.51-.24,1.05-.36,1.64-.36.99,0,1.72.28,2.2.84.48.55.72,1.22.72,2.01v.26h-3.8c-.92,0-1.71.1-2.39.31-.68.2-1.23.48-1.67.82-.44.34-.76.75-.96,1.22-.2.47-.31.96-.31,1.48,0,.56.11,1.09.33,1.59.22.5.52.93.92,1.31.4.38.89.67,1.48.89.58.21,1.26.32,2.03.32,1.01,0,1.89-.22,2.65-.66ZM105.62,38.77c0,.51.22.93.68,1.27.46.33,1.03.5,1.75.5.47,0,.93-.08,1.38-.23.45-.16.86-.38,1.22-.68.37-.3.66-.66.89-1.08.22-.42.34-.88.34-1.4h-3.8c-.86,0-1.49.15-1.87.46-.38.31-.57.69-.57,1.16h0Z"/>
      <path class="cls-1" d="M122.59,36.46c-.44-1.01-.66-2.1-.66-3.28h0c0-1.17.21-2.26.62-3.26.42-1,1-1.88,1.74-2.61.75-.73,1.63-1.32,2.63-1.73,1-.42,2.16-.63,3.3-.63s2.15.16,3.03.49c.87.32,1.68.79,2.4,1.38l1.01-1c-.87-.76-1.84-1.32-2.92-1.72-1.09-.39-2.26-.59-3.53-.59-1.42,0-2.73.25-3.94.75-1.21.49-2.25,1.18-3.12,2.04-.87.86-1.57,1.88-2.05,3.07-.5,1.18-.74,2.48-.74,3.82s.25,2.6.75,3.77c.51,1.18,1.19,2.22,2.08,3.11.88.89,1.93,1.59,3.13,2.1,1.2.51,2.52.77,3.94.77,1.32,0,2.56-.21,3.72-.63,1.16-.42,2.18-1.04,3.04-1.86.86-.82,1.55-1.84,2.05-3.04.5-1.2.76-2.6.76-4.19v-.4c0-.12-.01-.25-.02-.39h0s-8.69-.01-8.69-.01v1.41h7.12c-.03,1.18-.25,2.24-.63,3.18-.39.94-.94,1.73-1.64,2.38-.71.65-1.54,1.16-2.51,1.5-.97.36-2.08.53-3.2.53s-2.19-.21-3.21-.63c-1.02-.41-1.91-.99-2.67-1.72-.77-.73-1.37-1.6-1.81-2.6Z"/>
      <path class="cls-2" d="M152.22,39.51c-.17.46-.42.89-.75,1.3-.33.4-.72.76-1.16,1.06-.44.31-.94.55-1.5.72-.55.17-1.14.26-1.77.26-.73,0-1.38-.1-1.96-.29-.58-.2-1.07-.47-1.48-.82-.41-.35-.72-.76-.92-1.23-.21-.47-.32-.98-.32-1.53,0-.46.1-.91.29-1.34.19-.43.49-.8.9-1.12.41-.32.92-.57,1.54-.76.62-.19,1.35-.28,2.2-.28h4.89v-.56c0-.52-.08-1.02-.23-1.52-.16-.5-.4-.94-.72-1.32-.32-.38-.73-.7-1.22-.93-.49-.24-1.09-.36-1.78-.36s-1.3.12-1.87.36c-.57.24-1.09.57-1.54,1l-.99-.95c.57-.55,1.23-.98,1.99-1.31.75-.32,1.55-.49,2.4-.49.9,0,1.7.16,2.39.46.69.31,1.26.72,1.72,1.24.45.51.79,1.1,1.03,1.76.24.66.35,1.34.35,2.04v7.72h-1.48v-3.1ZM143.93,38.97c0,.75.31,1.37.92,1.84.61.48,1.42.72,2.4.72.6,0,1.2-.1,1.79-.31.59-.21,1.11-.52,1.57-.92.46-.41.83-.92,1.12-1.52s.43-1.29.43-2.08h-4.89c-1.16,0-2.01.22-2.54.65-.54.44-.81.97-.81,1.6h0Z"/>
      <path class="cls-1" d="M176.98,42.62h1.59v-7.73c0-.82-.14-1.58-.41-2.28-.26-.7-.64-1.31-1.12-1.84-.48-.52-1.05-.92-1.72-1.22-.67-.29-1.4-.44-2.19-.44-.54,0-1.05.08-1.55.24-.49.16-.96.39-1.38.67-.43.28-.8.63-1.13,1.02-.33.39-.6.82-.81,1.28-.37-.92-.95-1.69-1.76-2.3-.81-.6-1.76-.91-2.87-.91-.55,0-1.07.09-1.55.27-.47.18-.9.41-1.27.71-.38.29-.7.62-.98.97-.27.36-.48.73-.6,1.11v-2.7h-1.54v13.14h1.54v-7.19c0-.64.1-1.25.28-1.84.19-.59.47-1.1.83-1.54.36-.44.79-.79,1.3-1.05.51-.27,1.05-.4,1.69-.4s1.21.13,1.72.39c.5.26.92.6,1.26,1,.34.41.6.87.77,1.39.18.51.26,1.02.26,1.51v7.72h1.61v-7.72c0-.56.1-1.1.3-1.61.2-.52.48-.97.84-1.37.37-.4.8-.72,1.29-.95.49-.23,1.03-.35,1.6-.35.63,0,1.18.12,1.67.34.49.22.9.53,1.25.92.35.4.61.85.79,1.37.18.52.27,1.07.27,1.65v7.72Z"/>
      <path class="cls-1" d="M182.16,24.24c0-.34.11-.63.35-.86.23-.24.52-.35.87-.35s.64.12.87.35c.24.23.36.52.36.86s-.12.63-.36.87c-.23.24-.53.36-.87.36s-.64-.12-.87-.36c-.24-.24-.35-.53-.35-.87Z"/>
      <path class="cls-1" d="M184.16,42.62h-1.56v-13.14h1.56v13.14Z"/>
      <path class="cls-1" d="M199.92,42.62h1.54v-6.89c0-.96-.15-1.84-.45-2.63-.3-.8-.73-1.48-1.26-2.07-.54-.58-1.18-1.03-1.94-1.35-.76-.32-1.58-.48-2.46-.48-.66,0-1.27.11-1.85.32-.57.21-1.08.49-1.54.82-.45.33-.84.69-1.14,1.09-.31.4-.54.78-.68,1.16v-3.13h-1.53v13.14h1.53v-6.77c.02-.75.16-1.45.43-2.09.27-.64.63-1.2,1.07-1.66.44-.46.96-.83,1.56-1.09.59-.27,1.23-.4,1.91-.4.73,0,1.38.13,1.97.39.59.26,1.1.61,1.51,1.06.41.44.74.96.97,1.56.24.6.35,1.24.35,1.93v7.08Z"/>
      <path class="cls-2" d="M205.07,34.18c0-.73.14-1.43.43-2.08.29-.65.67-1.22,1.15-1.71.49-.48,1.05-.87,1.71-1.16.65-.28,1.35-.42,2.09-.42.66,0,1.28.11,1.87.33.59.22,1.11.53,1.59.92.5-.22,1.02-.38,1.55-.46.53-.08,1.11-.13,1.76-.13h.21v1.33h-2.96c.43.43.78.93,1.04,1.52.26.58.39,1.2.39,1.85,0,.73-.14,1.43-.43,2.07-.29.64-.68,1.2-1.17,1.68-.5.48-1.07.86-1.73,1.14-.66.28-1.36.42-2.11.42-.59,0-1.18-.12-1.77-.35-.59-.23-1.08-.52-1.48-.88-.63.2-1.11.49-1.44.86-.34.37-.5.82-.5,1.35,0,.56.18,1,.54,1.31.36.32.88.46,1.56.46h5.12c1.49,0,2.61.33,3.37.98.75.65,1.13,1.52,1.13,2.6,0,.56-.12,1.07-.35,1.52-.23.45-.56.84-.99,1.14-.42.31-.93.55-1.52.72-.59.17-1.25.26-1.98.26-.92,0-1.77-.14-2.54-.4-.77-.26-1.44-.63-1.99-1.09-.55-.46-.98-1.01-1.28-1.65-.3-.64-.43-1.34-.38-2.09l.75-.54c-.88-.07-1.59-.35-2.13-.86-.54-.5-.8-1.19-.78-2.07.02-.72.27-1.36.74-1.94.48-.57,1.08-.99,1.81-1.24-.4-.46-.71-.98-.94-1.56-.22-.57-.33-1.18-.33-1.83h0ZM206.5,34.18c0,.55.11,1.06.31,1.53.21.47.49.88.85,1.23.36.35.77.63,1.25.84.48.2.99.31,1.54.31s1.07-.1,1.56-.31c.49-.2.91-.48,1.26-.84.36-.35.64-.76.85-1.23.21-.47.31-.98.31-1.53s-.11-1.06-.31-1.54c-.21-.48-.49-.89-.85-1.24-.36-.35-.77-.63-1.26-.84-.49-.21-1-.31-1.56-.31s-1.07.1-1.54.31c-.48.21-.9.48-1.25.84-.36.35-.64.77-.85,1.24-.21.48-.31.99-.31,1.54ZM212.14,48.04c.99,0,1.78-.18,2.4-.55.6-.37.91-.93.91-1.68,0-.65-.25-1.17-.75-1.56-.51-.39-1.24-.58-2.21-.58h-5.28c-.03.63.07,1.21.31,1.75.24.53.59.99,1.03,1.37.45.39.97.69,1.59.91.62.22,1.29.33,2.01.33Z"/>
      <path class="cls-1" d="M57.17,42.62h4.6l6.6-18.86h-3.15l-5.77,16.4-5.77-16.4h-3.15l6.63,18.86Z"/>
      <path class="cls-1" d="M36.35,26.68s2.91-16.97,5.31-21.76c.11-.22.32-.36.55-.32.21.04.36.22.41.44.1.58.18,1.4.21,2.6l.02-.04v1.62c0,1.28-.07,2.79-.2,4.41-.23,3.19-.65,5.75-1.18,7.8-.02.08-.04.16-.05.24-.15.64-.36,1.31-.6,1.93-.29.82-.59,1.53-.91,2.15,0,0,0,.01-.01.03h0c-.53,1.24-1.52,2.24-2.74,2.82-.02,0-.04.02-.06.03-.2.09-.4.17-.61.24,0,0-.02,0-.03,0-.17.06-.36.1-.54.14-.05,0-.09.02-.13.03.18-.81.37-1.42.55-2.37M19.8,52.97c-.19-.19-.38-.39-.56-.6-.05-.06-.16-.18-.16-.18-4.69-5.42-8.27-16.18-8.27-16.18C4.62,16.74,3.86,7.84,4.28,4.08c.09-.74.72-1.31,1.49-1.31.41,0,.79.16,1.06.44.36.35.82.85,1.47,1.6.6.72,1.33,1.63,1.65,2.04.18.23.35.45.52.68.01.01.02.03.04.04,4.13,5.34,7.6,9.43,10.49,12.56h0s0,0,0,0c4.25,4.6,7.25,7.14,9.28,8.54.26.22,1.2.96,2.49,1.42.77.32,1.1.3,1.1.3-2.97,12.77-5.91,18.93-7.99,21.88,0,0-.11.12-.16.18-.82.97-1.95,1.57-3.21,1.57-1.02,0-1.95-.4-2.72-1.07M4.75.04C2.46.23.59,1.87.12,4.04c-.02.14-.04.28-.05.42,0,.04,0,.07,0,.11-.02.2-.04.4-.05.62-.16,4.3,1.01,13.24,7.12,30.82,0,0,5.33,14.85,11.63,18.51.05.03.09.05.14.08.04.02.07.04.1.06,0,0,.4.25,1.09.48.12.04.25.08.37.11.05.01.09.03.14.04.54.14,1.09.22,1.67.22.11,0,.22-.01.32-.02h.2c.07,0,.13-.02.2-.02.06,0,.13-.01.19-.02.19-.02.37-.06.56-.1.09-.02.18-.04.27-.07.08-.02.15-.04.23-.07.4-.12.78-.27,1.15-.46.25-.12.52-.28.81-.48.13-.09.24-.19.36-.28.12-.1.24-.18.36-.29.14-.12.27-.26.41-.4.12-.12.24-.24.36-.36.08-.09.16-.2.23-.29.11-.13.23-.26.32-.4.02-.03.05-.07.07-.1.07-.09.13-.2.19-.29,1.97-3.07,4.45-9.3,7.06-21.37.9-.03,1.85-.28,2.8-.94.36-.24.68-.52.96-.82.02-.02.03-.03.05-.05h0c.97-1.03,1.47-2.18,1.47-2.18,0,0,1.24-2.55,1.73-4.82.93-4.28,1.32-9.16,1.32-12.46,0-2.25-.1-3.58-.24-4.37-.14-.7-.62-1.25-1.26-1.35-.57-.09-1.12.19-1.49.68-2.66,3.42-6.19,22.5-6.19,22.5-.17.81-.36,1.6-.54,2.36-.91-.16-1.67-.56-2.21-.94-2.91-2.37-8.69-8.13-19.35-22.01-.77-1-2.91-3.69-3.15-3.95-.11-.12-.21-.23-.32-.33-.46-.46-.91-.81-1.36-1.08h0s-.09-.05-.14-.08c-.18-.11-.37-.2-.57-.29,0,0-.02,0-.03-.01-.14-.05-.28-.1-.42-.14-.43-.12-.88-.19-1.35-.2h-.03c-.16,0-.43.02-.5.03"/>
    </g>
  </g>
</svg>