<?xml version="1.0" encoding="UTF-8"?>
<svg id="Layer_2" data-name="Layer 2" xmlns="http://www.w3.org/2000/svg" viewBox="0 0 226 60">
  <defs>
    <style>
      .cls-1, .cls-2 {
        fill: #fff;
        stroke-width: 0px;
      }

      .cls-2 {
        fill-rule: evenodd;
      }
    </style>
  </defs>
  <g id="Layer_1-2" data-name="Layer 1">
    <g>
      <path class="cls-2" d="M14.72,3.81c-.75,2.1-2.29,5.63-3.41,7.84-1.12,2.22-2.61,4.89-3.3,5.95l-1.25,1.92,2.61.78c1.43.43,4.7,1.59,7.27,2.58,2.56.99,5.32,2.51,6.13,3.38,1.02,1.09,1.46,2.28,1.44,3.87-.02,1.59-1.15,4.38-3.68,9.11-2.01,3.75-4.29,8.3-5.06,10.12-.81,1.92-1.45,4.77-1.52,6.8-.1,2.97.06,3.53,1.04,3.73.64.13,1.39-.14,1.68-.6.29-.46.53-1.97.53-3.36,0-1.39.45-4.04.99-5.89.54-1.85,1.96-5.95,3.16-9.12,1.2-3.16,2.26-5.66,2.37-5.55.11.11-.35,1.95-1.01,4.1-.66,2.15-1.2,5.15-1.2,6.67s.44,3.66.99,4.75c.54,1.09,1.58,2.46,2.3,3.05.82.67,2.4,1.08,4.21,1.08,2.56.01,3.08-.23,4.57-2.11,1.57-1.99,1.86-2.1,4.48-1.8,2.25.26,3.12.07,4.44-.98.9-.72,1.97-2.31,2.37-3.52.6-1.82.55-2.68-.27-4.84-.55-1.45-1.75-3.34-2.67-4.2-.92-.87-3.61-2.7-5.98-4.09-2.36-1.38-4.85-2.95-5.53-3.47-.89-.69.28-.53,4.3.62,3.04.87,6.81,1.73,8.37,1.91,1.57.18,3.84,0,5.05-.4,1.21-.4,2.9-1.57,3.76-2.6,1.07-1.29,1.56-2.6,1.56-4.25s-.48-2.96-1.62-4.32l-1.62-1.94,1.77.44c.97.24,2.45.88,3.28,1.42,1.29.84,1.45.85,1.14.06-.2-.51-1.12-2.83-2.05-5.15l-1.69-4.22-1.08,2.44c-.6,1.34-1.35,2.61-1.67,2.81-.34.21-.47-.25-.31-1.08.15-.8-.18-2.35-.74-3.44-.61-1.19-1.91-2.36-3.24-2.92-1.32-.56-2.98-.78-4.09-.56-1.03.21-2.85,1.03-4.03,1.83-1.42.95-3.42,3.6-5.84,7.75-2.02,3.47-3.77,6.03-3.88,5.71-.11-.33.77-2.63,1.94-5.13,1.17-2.49,2.85-5.7,3.73-7.13.88-1.43,1.39-2.71,1.13-2.86-.26-.15-1.99-.76-3.85-1.37-1.86-.6-4.9-1.87-6.76-2.81-1.86-.94-4.39-2.41-5.62-3.26l-2.24-1.55-1.37,3.81ZM84.47,6.64c.32.31,1.14.66,1.81.78,1.17.21,1.24.78,1.4,12.14l.17,11.92-2.01.89c-1.89.83-1.57.89,5.36.91,6.87.02,7.23-.03,5.37-.85l-2-.88v-5.61c0-4.68.16-5.61.96-5.61.53,0,1.56.32,2.3.7.74.39,1.44.78,1.55.88.12.1.59,1.25,1.05,2.55.79,2.24.84,1.99.81-4.76-.02-5.24-.17-6.62-.58-5.22-.3,1.05-1.04,2.35-1.63,2.9-.6.54-1.84,1.18-2.77,1.41l-1.69.43V7.94h3.73c3.31,0,3.94.21,5.53,1.81.99,1,1.79,2.24,1.79,2.75s.28,1.11.62,1.32c.38.24.61-1.13.61-3.68v-4.07h-11.48c-6.85,0-11.25.23-10.9.56ZM113.94,6.62c.33.32,1.15.67,1.83.8,1.17.21,1.24.78,1.39,12.14l.17,11.92-2.01.89c-1.84.81-1,.89,9.75.94l11.76.05.41-3.25c.23-1.79.55-3.74.71-4.34.17-.6.04-1.08-.28-1.08s-.75.64-.94,1.41c-.19.78-1.21,2.24-2.26,3.25-1.72,1.67-2.29,1.84-6.01,1.84h-4.11l-.18-5.42c-.17-5.11-.1-5.42,1.08-5.42.69,0,1.74.57,2.33,1.26.59.69,1.39,2.16,1.79,3.25.62,1.72.72.97.72-5.44,0-7.16-.03-7.35-.87-5.02-.48,1.33-1.16,2.76-1.51,3.19-.35.42-1.32.9-2.15,1.06l-1.52.29V7.94h3.1c1.7,0,3.9.42,4.87.92,1.05.55,2.09,1.81,2.55,3.1.43,1.2,1.01,2.18,1.3,2.18s.44-1.74.34-3.87l-.18-3.87-11.35-.17c-6.98-.1-11.11.05-10.75.4ZM145.89,6.64c.32.31,1.14.66,1.81.78,1.17.21,1.24.78,1.4,12.14l.17,11.92-2.01.89c-1.83.81-.96.89,10.03.94l12.04.05.39-3.25c.21-1.79.37-4.09.36-5.11-.03-1.7-.15-1.59-1.47,1.34-.79,1.76-2.13,3.66-2.97,4.22-1.11.73-2.61.96-5.43.83l-3.9-.19V7.63l1.69-.2c.93-.11,1.69-.46,1.69-.77s-3.15-.58-7.18-.58c-4.3,0-6.95.22-6.6.56ZM177.82,6.64c.32.31,1.14.66,1.81.78,1.17.21,1.24.78,1.4,12.14l.17,11.92-2.01.89c-1.89.83-1.56.89,5.36.89s7.25-.05,5.36-.89l-2.01-.89.17-11.92c.16-11.36.22-11.93,1.4-12.14.68-.12,1.49-.47,1.81-.78.35-.33-2.35-.56-6.72-.56s-7.07.22-6.73.56ZM198.36,6.7c0,.34.4.62.89.62s2.98,3.11,5.54,6.9l4.65,6.9-1.5,1.99c-.83,1.09-2.93,3.57-4.67,5.49-1.75,1.93-3.7,3.5-4.34,3.5s-1.17.28-1.17.62c0,.37,2.17.6,5.37.57,5.19-.05,5.31-.08,3.38-.93-1.1-.48-2-1.27-2-1.75s1.26-2.43,2.8-4.34c1.54-1.91,2.91-3.47,3.05-3.47s1.37,1.66,2.73,3.68c1.36,2.03,2.48,4.12,2.48,4.65s-.41.96-.92.96-.92.28-.92.62c0,.37,2.46.62,6.14.62,3.38,0,6.14-.21,6.14-.47s-.54-.81-1.21-1.23c-.67-.42-3.15-3.68-5.53-7.26-2.37-3.57-4.32-6.73-4.32-7.03s1.82-2.67,4.04-5.29c2.44-2.87,4.51-4.76,5.22-4.76.65,0,1.18-.28,1.18-.62,0-.36-2.05-.62-4.91-.62-2.7,0-4.91.15-4.91.33s.69.59,1.54.91c.85.32,1.54.98,1.54,1.46s-1.04,2.29-2.3,4.03c-1.27,1.74-2.44,3.17-2.61,3.18-.17,0-1.35-1.68-2.63-3.74-1.28-2.06-2.16-4.01-1.96-4.34.2-.33.76-.59,1.25-.59s.88-.28.88-.62c0-.37-2.56-.62-6.45-.62s-6.45.25-6.45.62ZM3.57,25.32c-1.56,1.58-1.8,2.21-1.49,3.87.21,1.09,1.08,2.62,1.95,3.38,1.32,1.17,1.39,1.39.46,1.39-.61,0-1.87-.4-2.8-.89-.93-.49-1.69-.68-1.69-.42s.45,1.85,1,3.53c.55,1.68,1.24,3.32,1.54,3.64.32.36.53.18.53-.43,0-.56.65-1.78,1.45-2.71l1.45-1.7-.28,1.96c-.16,1.08-.11,2.68.11,3.56.26,1.04,1.13,1.91,2.49,2.48,1.15.49,2.59.7,3.2.49.61-.22,1.73-.96,2.49-1.65.91-.82,1.38-1.96,1.38-3.32,0-1.46.28-2.06.97-2.06.53,0,1.78-.82,2.76-1.81,1.08-1.09,1.8-2.47,1.8-3.46s-.71-2.36-1.8-3.46c-.99-1-2.39-1.81-3.11-1.81s-1.83.28-2.46.62c-.91.49-1.51.24-2.98-1.24-1.12-1.13-2.48-1.86-3.47-1.86s-2.36.73-3.5,1.88ZM89.09,41.52c-1.65.87-3.17,2.29-3.88,3.6-.83,1.55-1.08,3.02-.9,5.13.17,2.02.73,3.47,1.73,4.55.81.87,2.22,1.98,3.13,2.46.91.48,3.01.87,4.67.87s3.88-.31,4.94-.68c1.72-.6,1.93-.95,1.93-3.07,0-1.62.35-2.59,1.07-3.02.8-.47-.02-.62-3.22-.6-2.36.02-3.88.19-3.38.38.51.19,1.12.66,1.37,1.04.25.37.46,1.57.46,2.65,0,1.44-.33,2.08-1.23,2.37-.68.22-2.07.21-3.09-.01-1.02-.23-2.32-1.14-2.9-2.03-.73-1.13-1.05-2.9-1.05-5.79,0-3.26.28-4.54,1.29-5.92.92-1.25,1.92-1.8,3.51-1.94,1.22-.1,2.79.12,3.5.5s1.82,1.58,2.48,2.67l1.19,1.97v-2.79c0-2.61-.11-2.8-1.68-2.89-.93-.05-2.93-.28-4.45-.51-2.22-.33-3.3-.13-5.48,1.03ZM116.73,45.01c-1.14,2.62-2.97,6.51-4.06,8.64l-1.99,3.87h1.5c.83,0,1.34-.27,1.14-.59-.2-.33-.18-1.3.03-2.17.36-1.45.67-1.58,3.72-1.58s3.38.15,3.93,1.6c.33.88.45,1.86.26,2.17-.19.32,1.07.57,2.85.57,3,0,3.14-.07,2.26-1.08-.52-.6-2.38-4.43-4.13-8.51-1.76-4.09-3.25-7.49-3.32-7.56-.07-.07-1.06,2.02-2.2,4.64ZM214.09,40.78c-.98.31-2.57,1.33-3.54,2.27-.97.94-2.04,2.76-2.39,4.06-.43,1.63-.43,3.11.03,4.82.43,1.63,1.39,3.03,2.83,4.14,1.52,1.17,3.13,1.75,5.35,1.94,1.75.15,4.15,0,5.33-.3,1.95-.51,2.18-.81,2.5-3.21.2-1.46.75-2.9,1.23-3.21.57-.36-.52-.55-3.12-.55-3.01,0-3.73.16-2.92.64.73.43,1.08,1.4,1.08,3.01s-.32,2.51-.97,2.76c-.53.21-1.52.38-2.2.38s-2.03-.81-3.02-1.81c-1.62-1.64-1.79-2.21-1.79-5.92,0-2.39.38-4.84.9-5.86.49-.97,1.35-1.93,1.89-2.14.55-.21,1.87-.38,2.94-.37,1.07.01,2.37.36,2.9.77.52.42,1.42,1.44,2,2.29l1.05,1.53v-2.46c0-2.25-.15-2.47-1.69-2.55-.93-.05-2.79-.25-4.15-.44-1.35-.2-3.26-.1-4.24.21ZM136.49,41.43c.92.56,1.07,1.65,1.07,7.63,0,4.6-.25,7.23-.74,7.72-.57.58-.35.74,1,.74s1.6-.16,1.02-.86c-.47-.57-.65-3.16-.54-7.59l.17-6.73,2.98,7.12c1.64,3.92,3.18,7.34,3.43,7.61.25.27,1.77-2.66,3.38-6.51,1.61-3.85,3.06-7.13,3.21-7.29.15-.16.19,2.97.09,6.97l-.19,7.27h4.91l-.19-7.84c-.14-5.96,0-7.97.61-8.36.49-.31-.4-.52-2.28-.52h-3.08s-2.09,5.26-2.09,5.26c-1.15,2.9-2.26,5.27-2.47,5.27s-1.34-2.3-2.52-5.11l-2.14-5.11-3.36-.16c-2.58-.12-3.11,0-2.29.5ZM167.27,41.58c.95.7,1.05,1.73.89,8.37l-.19,7.57h2.73c2.12,0,2.57-.17,1.99-.75-.49-.49-.74-3.12-.74-7.72,0-5.99.15-7.06,1.07-7.6.81-.48.11-.64-2.88-.65-3.36-.02-3.79.1-2.88.78ZM183.49,41.75c1.26.89,1.36,1.46,1.36,7.17,0,3.41-.29,6.74-.63,7.4-.56,1.05-.43,1.2,1,1.2,1.33,0,1.5-.16.92-.87-.46-.56-.65-2.91-.54-6.61l.18-5.74,5.68,7,5.68,7v-7.67c.01-4.22.22-7.98.47-8.35s.87-.84,1.37-1.04c.51-.19-.31-.38-1.81-.4-2.35-.04-2.58.06-1.66.74.88.65,1.04,1.58.88,5.11l-.18,4.32-3.99-5.11-3.99-5.11h-3.06c-2.94,0-3,.04-1.69.96ZM118.81,49.62l.96,2.32h-2.53c-2.17,0-2.47-.16-2.09-1.08.24-.6.72-1.87,1.06-2.84.35-.96.86-1.52,1.13-1.24.28.28.94,1.56,1.47,2.84Z"/>
      <path class="cls-1" d="M68.78,4.84h1.23v55.16h-1.23V4.84Z"/>
    </g>
  </g>
</svg>