<?xml version="1.0" encoding="UTF-8"?>
<svg id="Layer_2" data-name="Layer 2" xmlns="http://www.w3.org/2000/svg" viewBox="0 0 198 61.65">
  <defs>
    <style>
      .cls-1 {
        fill: #fff;
        stroke-width: 0px;
      }
    </style>
  </defs>
  <g id="Layer_1-2" data-name="Layer 1">
    <g>
      <path class="cls-1" d="M186.17.06c-.66.01-17.18.07-36.71.14l-35.5.13-.79.26c-1.61.53-3.93,1.77-5.1,2.71-.24.2-.47.36-.52.36-.04,0-.2-.22-.34-.48-.77-1.45-3.19-2.71-5.64-2.95-.46-.04-10.08-.04-21.37,0-18.83.07-20.56.09-20.87.25-.19.09-.43.25-.54.35-.86.75-.75,2.8.19,3.37.18.1.63.3,1.01.42,1.05.35,2.83,1.33,2.83,1.56,0,.08-3.71,10.29-3.84,10.58-.04.08-.1-.71-.15-1.78-.13-3.42-.83-5.76-2.5-8.25C53.05,1.84,47.13-.32,39.35.52c-5.25.58-10.63,3.07-15.34,7.11-1.19,1.03-3.35,3.25-4.27,4.4-3.58,4.46-6.1,10.28-6.73,15.61-.19,1.62-.15,3.91.1,5.33.79,4.38,3.28,8.02,6.91,10.1l.82.46-3.23.04c-2.95.04-3.3.06-3.92.27-.92.3-1.86.88-2.5,1.53C10.76,45.81.16,61.12,0,61.54c-.04.1,15.54.13,78.31.1l78.38-.03.47-.25c.67-.35,1.37-1.13,1.86-2.07.23-.45,4.15-11.14,8.71-23.75,4.57-12.62,8.39-23.13,8.49-23.37l.19-.44,6.79-.03c6.55-.03,6.8-.04,7.21-.24.31-.16,1.27-1.21,3.8-4.19,1.86-2.19,3.48-4.17,3.59-4.4.36-.76.21-1.68-.35-2.22-.69-.66-.66-.66-5.6-.64-2.46.01-5.03.03-5.69.05ZM195.99,2.06c-.07.1-1.54,1.84-3.25,3.85l-3.11,3.68-4.1.06c-2.26.04-5.53.07-7.28.07-2.43,0-3.17.03-3.21.13-.03.07-.99,2.42-2.15,5.22-3.51,8.52-6.95,17.06-8.55,21.21-1.38,3.57-1.86,4.75-2.24,5.45l-.4.73-2.93.06c-3.58.08-8.21.1-8.21.05,0-.02.18-.35.41-.71.96-1.58,1.43-2.66,4.77-10.98,3.65-9.07,5.67-14.04,7.04-17.44.72-1.79,1.35-3.36,1.4-3.5l.11-.25-7.72.07c-5.16.05-7.7.04-7.68-.02.02-.06,1.39-1.71,3.05-3.67,1.65-1.95,3.1-3.67,3.21-3.8l.2-.25,16.54-.06c9.09-.03,18.26-.06,20.38-.07,3.71-.02,3.85-.01,3.72.17ZM153.32,2.32c-.1.13-1.57,1.87-3.27,3.87l-3.09,3.63h-7.29c-4.01,0-10.77.03-15,.07l-7.71.06-1.61,4.04c-.88,2.22-1.61,4.09-1.63,4.16-.02.08,3.59.1,13.5.06l13.52-.05-3.21,3.81c-1.78,2.09-3.25,3.83-3.27,3.85-.01.02-5.36.07-11.88.1l-11.84.06-1.82,4.5c-1,2.47-1.82,4.51-1.82,4.52,0,0,3.55-.01,7.89-.03,19.02-.1,29.71-.13,29.71-.05,0,.03-.63.8-1.38,1.7-.76.9-2.21,2.61-3.21,3.79l-1.82,2.17h-1.63c-.9.01-11.04.05-22.53.1-11.49.04-20.9.07-20.91.07,0-.01.28-.75.65-1.64.37-.89,2.55-6.34,4.87-12.1,7.98-19.86,9.03-22.4,9.32-22.83.83-1.21,2.71-2.48,5.45-3.68l.68-.3,8.69-.05c4.79-.03,13.68-.06,19.77-.08l11.08-.02-.19.24ZM44.23,2.29c4.03.32,7.04,1.61,9.25,3.94,1.64,1.73,2.76,3.97,3.24,6.48.27,1.48.24,4.73-.07,6.49-.29,1.68-.72,3.37-1.28,5.04l-.42,1.27-2.21.06c-1.21.04-8.06.07-15.23.07-10.29,0-13.04.03-13.1.13-.18.27-.17,2.88.01,3.68.6,2.69,2.53,4.47,5.5,5.07,1.1.22,3.55.21,4.83-.01,2.19-.39,4.61-1.4,6.81-2.87l1.19-.8,5.71-.04,5.71-.05-.78.87c-.93,1.04-3.27,3.26-4.5,4.28-2.02,1.69-4.17,3.07-6.81,4.39-3.02,1.51-5.26,2.3-7.8,2.75-1.23.22-1.67.25-4.5.25-3.02,0-3.19-.01-4.47-.29-4.12-.88-6.89-2.82-8.8-6.15-.99-1.74-1.64-4.41-1.65-6.79-.01-5.02,2.4-11.53,6.01-16.23,2.86-3.73,6.68-6.92,10.69-8.94,4.14-2.08,8.34-2.94,12.68-2.6ZM102.76,2.58c2.13.71,3.2,1.87,3.06,3.3-.06.65-.38,1.61-1.23,3.75-.93,2.32-3.24,7.83-3.53,8.42-.38.74-1.7,2-2.69,2.56-1.36.78-3.5,1.48-4.46,1.48-.17,0-.33.04-.37.1-.04.06.08.1.29.1.54,0,1.92.39,2.5.7.71.39,1.29,1.07,1.45,1.7.22.93.01,1.68-1.54,5.51-1.49,3.69-3.18,7.72-3.49,8.33-.89,1.77-3.12,3.18-6.28,3.99-.85.22-1.21.23-7.28.3-7.61.09-26.37.1-28.58.01l-1.57-.06.63-.39c1.45-.89,2.45-2.09,3.34-4,.25-.53,2.06-5.24,4.02-10.44,1.96-5.2,4.58-12.18,5.82-15.49,1.4-3.73,2.27-6.17,2.27-6.41.02-1.12-1.35-2.22-4.05-3.24l-.93-.36,7.22-.05c3.98-.03,13.4-.05,20.95-.05h13.72l.73.24ZM161.21,11.94c-.07.21-8.69,21.49-9.61,23.75-.97,2.39-2,4.52-2.57,5.34-.22.31-.45.79-.52,1.05l-.11.47-3.84.03c-2.1.01-3.83-.01-3.83-.05,0-.05,1.18-1.48,2.63-3.17,1.45-1.7,2.75-3.27,2.9-3.5.22-.31.27-.53.28-.99,0-.79-.27-1.32-.88-1.71l-.48-.31-17.56.05c-14.65.04-17.57.03-17.57-.09,0-.07.43-1.19.95-2.49l.96-2.37h2.16c1.18-.02,6.36-.05,11.49-.09l9.32-.06.37-.25c.43-.29,7.11-8.15,7.29-8.57.35-.8.04-1.86-.67-2.41l-.38-.29-12.37-.02c-6.8-.01-12.38-.05-12.39-.1-.02-.05.33-1.01.78-2.13l.82-2.04,7.75-.05c4.25-.03,13.91-.06,21.45-.08,10.92-.02,13.69.01,13.65.1ZM54.95,27.67c0,.08-.08.36-.2.61l-.19.45-6.06.03c-3.82.02-6.19.07-6.41.15-.19.05-.87.45-1.5.88-1.95,1.32-3.92,2.2-5.85,2.62-1.24.27-3.85.27-4.82.01-1.92-.52-2.94-1.46-3.47-3.12-.12-.36-.2-.87-.2-1.15v-.51l7.73-.03c4.24-.01,10.7-.03,14.35-.05,5.66-.02,6.62,0,6.62.13ZM51.81,36.34c-.13.31-.47,1.04-.76,1.61-.62,1.21-1.41,2.08-2.48,2.71-.38.23-.76.48-.88.58-.38.32-.59.91-.59,1.63v.68h-3.79c-2.08,0-3.76-.02-3.74-.04.02-.02.57-.26,1.19-.53,4.04-1.75,7.44-3.91,10.68-6.8.29-.25.53-.45.56-.43.01.01-.07.28-.19.59ZM53.59,49.53c0,.75.03,1.35.08,1.33.86-.44,1.19-.54,1.87-.59,2.07-.12,3.49,1.06,3.49,2.89,0,.81-.18,1.32-.66,1.86-.52.59-1.21.94-2.14,1.1-.61.09-.83.09-1.39-.05-.37-.09-.83-.29-1.02-.44l-.35-.26v.64h-1.26v-7.85h1.36v1.37ZM87.97,50.38l.65.03v.73l-.65.03-.66.03v1.85c0,1.31.04,1.91.13,1.99.07.07.37.13.67.13.53,0,.54,0,.61.37.04.21.04.42.01.47-.03.06-.43.1-.87.1-.96,0-1.65-.26-1.8-.68-.06-.16-.1-1.16-.1-2.25v-1.98l-.49-.03q-.5-.03-.5-.4t.5-.4l.49-.03v-1.4l.66-.27.65-.26.03.96.03.97.65.03ZM40.21,50.46c1.24.39,2.02,1.32,2.08,2.51l.03.47-2.9.03c-3.16.03-3.04,0-2.8.62.29.79,1.08,1.21,2.19,1.21.9,0,1.27-.15,1.76-.7.28-.32.4-.38.77-.38.25,0,.56.03.68.06l.24.06-.24.42c-.58,1.04-2.27,1.59-4.04,1.34-1.3-.18-2.19-.72-2.66-1.61-.32-.61-.32-1.93,0-2.53.35-.65,1.11-1.27,1.85-1.51.87-.27,2.14-.27,3.03,0ZM74.16,50.66c.39.19.83.5,1.01.72.35.42.63,1.21.63,1.77v.35h-2.93c-2.27,0-2.93.03-2.93.13,0,.07.09.34.2.58.62,1.34,3.13,1.56,4,.34.22-.31.25-.32.84-.28.34.02.64.07.68.12.13.12-.32.74-.79,1.09-1.19.91-3.77.95-5.15.07-1.74-1.09-1.54-3.86.34-4.82.75-.38,1.18-.46,2.37-.42.95.02,1.14.06,1.75.37ZM113.28,50.37c.68.15,1.47.67,1.73,1.16.25.47.18.57-.52.63-.49.04-.53.03-.73-.26-.36-.54-.72-.74-1.46-.79-1.08-.07-1.91.35-2.22,1.1-.24.55-.19,1.69.09,2.18.43.75,1.42,1.11,2.46.88.66-.14,1.11-.49,1.28-.98q.12-.36.66-.3.82.08.68.47c-.19.53-.91,1.18-1.61,1.46-.88.34-2.35.34-3.24,0-1.3-.49-2.05-1.69-1.89-3.01.16-1.34.85-2.11,2.26-2.5.6-.17,1.82-.18,2.51-.03ZM129.89,50.61c1.15.51,1.74,1.35,1.75,2.48,0,1.3-.45,2.07-1.53,2.6-1.75.86-4.06.57-5.14-.63-.54-.61-.74-1.28-.66-2.2.1-1.15.83-1.98,2.09-2.4.97-.31,2.61-.25,3.49.15ZM146.12,50.37c.27.07.63.27.84.46l.36.35.39-.3c.98-.8,3.07-.83,3.9-.06.48.44.53.75.53,3.06v2.15h-1.36v-2.04c0-1.31-.04-2.13-.12-2.29-.27-.59-1.52-.74-2.4-.29-.65.34-.73.66-.73,2.76v1.86h-1.36v-2.02c0-1.81-.02-2.04-.21-2.35-.28-.46-.87-.64-1.62-.48-1.29.27-1.43.56-1.5,2.98l-.05,1.86h-1.33l.02-2.81.03-2.8.61-.03.6-.03v.75l.35-.25c.72-.56,2-.74,3.07-.48ZM99.25,55.49v.52h-1.57v-1.05h1.57v.52Z"/>
      <path class="cls-1" d="M38.04,10.72c-1.36.24-2.65.65-3.92,1.27-1.68.8-2.78,1.56-4.03,2.8-1.11,1.1-2.68,2.92-2.68,3.13,0,.06.09.08.24.04.13-.03,4.72-.06,10.21-.06h9.97v-.71c0-.9-.31-2.15-.75-2.98-.21-.4-.67-.98-1.18-1.5-.68-.69-1.01-.93-1.73-1.28-.49-.23-1.19-.5-1.57-.6-.94-.24-3.46-.3-4.56-.1ZM42.1,12.81c1.42.37,2.69,1.33,3.2,2.44.15.3.23.57.21.6-.06.05-13.61.08-13.67.02-.07-.06,1.42-1.17,2.13-1.58,1.45-.82,3.25-1.42,4.85-1.63.9-.12,2.52-.04,3.28.16Z"/>
      <path class="cls-1" d="M83.85,10.04l-9.36.05-1.6,4.03c-.88,2.22-1.6,4.09-1.6,4.18,0,.13.43.14,2.85.08,1.56-.04,5.77-.07,9.34-.07h6.5l1.12-2.75c.62-1.51,1.37-3.37,1.69-4.13.32-.76.54-1.4.51-1.41-.04-.02-4.29-.01-9.45.02ZM90.38,11.9s-.33,1.02-.81,2.17l-.86,2.09-7.19.03c-3.96.01-7.19-.01-7.19-.05,0-.05.36-1.02.81-2.15l.81-2.07,4.61-.03c2.54-.01,5.78-.03,7.21-.05,1.42-.01,2.61.01,2.63.06Z"/>
      <path class="cls-1" d="M76.74,26.06l-8.72.05-1.82,4.49c-1.01,2.47-1.82,4.51-1.82,4.53s4.24.02,9.44.01l9.44-.03,1.78-4.45c.97-2.45,1.8-4.51,1.83-4.59.04-.09-.13-.12-.66-.1-.4.02-4.65.05-9.46.08ZM83.9,27.94c.05.07-1.77,4.8-1.92,4.94-.03.04-3.3.1-7.26.15-6.03.06-7.21.05-7.21-.06,0-.08.44-1.24.97-2.56l.97-2.41,4.97-.05c2.73-.03,5.96-.06,7.18-.08,1.21-.01,2.24.02,2.27.07Z"/>
      <path class="cls-1" d="M54.55,51.31c-.27.14-.58.41-.73.65-.25.38-.28.53-.28,1.27,0,.67.04.93.22,1.21.68,1.16,2.79,1.17,3.57.02.44-.66.44-1.88,0-2.56-.51-.78-1.84-1.06-2.78-.6Z"/>
      <path class="cls-1" d="M37.62,51.29c-.51.24-.87.61-.99,1.04l-.09.34h4.38l-.08-.29c-.15-.51-.36-.75-.89-1.02-.66-.32-1.69-.36-2.31-.06Z"/>
      <path class="cls-1" d="M71,51.35c-.56.25-.97.74-.97,1.12,0,.18.17.19,2.16.19h2.16l-.06-.29c-.27-1.13-1.93-1.64-3.28-1.02Z"/>
      <path class="cls-1" d="M126.97,51.25c-.85.29-1.26.92-1.27,1.94,0,.93.31,1.51,1.03,1.87.94.48,2.41.3,3.02-.38.54-.6.66-1.79.26-2.56-.47-.89-1.89-1.3-3.04-.88Z"/>
    </g>
  </g>
</svg>