<?xml version="1.0" encoding="UTF-8"?>
<svg id="Layer_2" data-name="Layer 2" xmlns="http://www.w3.org/2000/svg" viewBox="0 0 223.74 64.37">
  <defs>
    <style>
      .cls-1 {
        fill: #fff;
        stroke-width: 0px;
      }
    </style>
  </defs>
  <g id="Layer_1-2" data-name="Layer 1">
    <g>
      <path class="cls-1" d="M0,8.84v8.84h6.78v36.49h9.49V17.68h6.78v-8.84H0ZM101.47,8.84v45.33h21.24v-8.84h-11.98v-9.29h9.49v-8.84h-9.49v-9.52h11.98v-8.84s-21.24,0-21.24,0ZM142.15,1.81h-9.49v45.33h21.47v-8.84h-11.98V1.81ZM217.19,30.15c1.9-2.38,2.93-5.34,2.94-8.39,0-7.25-5.88-13.15-13.11-13.15h-10.17v45.33h10.4c7.68,0,14.01-6.35,14.01-14.05.23-3.63-1.36-7.03-4.07-9.75h0ZM206.56,17.68c2.26,0,4.29,1.81,4.29,4.31,0,2.27-1.81,4.31-4.29,4.31h-.23l.23-8.61ZM211.99,40.12c0,2.95-2.26,5.21-5.2,5.21h-.45v-10.43h.45c2.94,0,5.2,2.49,5.2,5.21ZM58.08,25.39c0-9.07-7.46-16.55-16.5-16.55h-10.17v45.33h9.27v-12.24h2.49l6.1,12.24h10.62l-7.91-15.87c3.84-2.95,6.1-7.71,6.1-12.92ZM40.91,33.32v-15.41h.23c4.29,0,7.68,3.4,7.68,7.71,0,4.08-3.39,7.71-7.91,7.71ZM83.39,42.39c0,2.27-1.81,4.31-4.29,4.31-2.26,0-4.29-1.81-4.29-4.31V8.84h-9.27v32.87c0,7.48,6.1,13.6,13.56,13.6s13.56-6.12,13.56-13.6V8.84h-9.27v33.55ZM223.74,60.75h-94.24v3.63h94.24v-3.63h0Z"/>
      <path class="cls-1" d="M223.74,0h-94.24v3.63h94.24V0ZM179.9,61.2h9.49l-9.72-45.33h-11.53l-9.72,45.33h9.49l1.13-5.21h9.72l1.13,5.21h0ZM170.86,47.15l2.94-13.83,2.94,13.83h-5.88Z"/>
    </g>
  </g>
</svg>