<?xml version="1.0" encoding="UTF-8"?>
<svg id="Layer_2" data-name="Layer 2" xmlns="http://www.w3.org/2000/svg" viewBox="0 0 223.63 72.18">
  <defs>
    <style>
      .cls-1 {
        fill: #fff;
        stroke-width: 0px;
      }
    </style>
  </defs>
  <g id="Layer_1-2" data-name="Layer 1">
    <g>
      <path class="cls-1" d="M25.75,35.01c-2.31-.51-4.56-.97-6.82-1.43-1.91-.4-3.89-.8-5.8-1.26-.23-.06-.45-.11-.56-.28-1.24-1.31-2.25-2.8-2.76-4.56-.51-1.94-.11-3.71,1.35-5.08.17-.17.51-.28.79-.28,6.48.74,12.9,1.48,19.38,2.28,3.77.46,6.87,3.59,7.66,7.42.62,3.02.06,5.93-1.18,8.61-.84,1.84-1.82,3.61-2.93,5.3-4.68,7.08-9.39,14.13-14.14,21.16-.79,1.2-1.69,2.34-2.59,3.42-.41.48-.89.9-1.41,1.25-1.41.97-2.65.8-3.77-.51-1.24-1.48-1.91-3.19-2.53-5.02-1.35-3.99-.73-7.76,1.69-11.24,4.39-6.33,8.79-12.72,13.18-19.11.11-.23.28-.4.45-.68ZM174.44,30.16c-.17,2.34-.39,4.68-1.35,6.84-1.75,4.11-4.96,6.1-9.24,6.56-2.08.23-4.17.17-6.14-.46-3.66-1.03-6.08-3.42-7.21-7.07-1.18-3.88-1.24-7.76-.06-11.64,1.3-4.28,4.28-6.73,8.62-7.47,2.22-.4,4.5-.34,6.7.17,4.39,1.08,7.04,3.99,8,8.38.4,1.48.45,3.08.68,4.68h0ZM168.58,30.16c-.06-.68-.06-1.43-.11-2.11-.23-1.83-.62-3.54-1.86-4.96-3.1-3.42-9.12-1.94-10.53,2.62-.73,2.4-.73,4.9-.34,7.36.11.8.34,1.54.62,2.28,1.3,3.02,3.77,3.88,6.93,3.48,2.25-.29,3.77-1.6,4.45-3.76.51-1.6.85-3.88.85-4.91ZM126.9,17.1c.11,0,.23-.06.34-.06,3.1.06,6.2,0,9.29.17,1.18.06,2.42.34,3.55.74,3.77,1.25,4.96,4.45,4.56,7.98-.28,2.57-1.8,4.33-4,5.59-.23.11-.45.23-.73.4,2.53,3.76,5.01,7.53,7.6,11.41h-5.52c-.45,0-.73-.17-.96-.57-1.8-3.02-3.66-5.99-5.52-9.01-.23-.4-.45-.57-.9-.51-.73.06-1.46,0-2.31,0v9.98h-5.46c.06-8.72.06-17.4.06-26.12ZM132.42,28.62c.96,0,1.86.06,2.7,0,.79-.06,1.63-.23,2.37-.57,1.18-.46,1.69-1.54,1.75-2.74.06-1.14-.17-2.28-1.3-2.91-1.75-.97-3.6-.74-5.52-.74v6.96h0ZM91.14,17.04c-1.24,1.6-2.37,3.08-3.55,4.51-1.69,2.22-3.43,4.39-5.18,6.56-.28.4-.28.63-.06,1.08,2.76,4.45,5.58,8.9,8.33,13.35.11.23.23.4.39.74h-6.03c-.17,0-.39-.29-.51-.46-2.08-3.31-4.11-6.67-6.2-10.04-.11-.17-.17-.28-.34-.51-.73.51-1.41,1.03-2.08,1.54-.17.11-.23.46-.23.68v8.73h-5.46v-26.12h5.46v11.86c.23-.28.34-.46.51-.63,2.82-3.65,5.63-7.3,8.39-10.95.11-.17.39-.34.56-.34h5.97ZM223.56,43.28h-6.03c-.17,0-.39-.29-.51-.46l-6.08-9.92c-.11-.17-.23-.4-.39-.63-.73.51-1.41.97-2.08,1.54-.17.11-.17.51-.17.74v8.67h-5.46v-26.18h5.46v11.63c.06,0,.11.06.17.06.11-.11.23-.28.34-.4,2.82-3.65,5.63-7.36,8.45-11.01.13-.18.34-.29.56-.28h5.8c-.18.21-.33.44-.45.68-2.7,3.48-5.41,6.96-8.17,10.44-.28.4-.28.63-.06,1.03,2.76,4.45,5.58,8.9,8.34,13.35,0,.23.11.4.28.74h0ZM48.78,36.89c1.13.46,2.2.85,3.21,1.26,1.92.63,3.83,1.14,5.92.74,1.8-.34,2.76-1.71,2.25-3.25-.22-.57-.68-1.2-1.13-1.54-1.18-.8-2.42-1.43-3.72-2.05-1.63-.85-3.21-1.71-4.51-3.08-2.87-3.14-2.53-10.1,3.55-11.75,3.55-.97,7.72-.34,11.21,1.43-.56,1.43-1.18,2.85-1.69,4.16-1.58-.46-3.04-.97-4.56-1.25-.9-.17-1.92-.11-2.82.06-1.01.17-1.69.91-1.92,1.94-.17,1.03.11,1.94,1.01,2.51,1.24.74,2.53,1.37,3.77,2.11,1.18.63,2.37,1.25,3.44,2.05,2.54,1.77,3.32,4.33,2.82,7.3-.45,2.74-2.2,4.51-4.67,5.42-2.65.97-5.35.97-8.05.46-1.18-.23-2.31-.68-3.49-1.03-.39-.11-.56-.34-.56-.8-.06-1.6-.06-3.08-.06-4.68Z"/>
      <path class="cls-1" d="M10.6,31.81c-2.42-.57-4.68-1.08-6.93-1.71-3.04-.91-4.28-3.31-3.38-6.39.45-1.54,1.18-2.85,2.14-4.11C6.88,13.73,11.33,7.8,15.83,1.93c.23-.28.51-.57.73-.85,1.13-1.14,2.31-1.37,3.55-.68,1.41.8,2.14,2.11,1.69,3.59-.28,1.08-.76,2.11-1.41,3.02-3.49,4.79-7.04,9.52-10.59,14.32-1.24,1.65-2.03,3.42-1.8,5.53.17,1.65.9,3.02,1.97,4.22.17.23.34.4.62.74h0ZM197.25,37.63v4.45c0,.11-.17.34-.28.34-4,1.43-8.05,1.82-12.05.23-2.48-.97-4.23-2.91-5.13-5.42-1.63-4.39-1.75-8.9-.11-13.35,1.63-4.33,4.96-6.62,9.46-7.13,3.1-.34,6.03.34,8.84,1.65.06.06.17.11.28.17-.57,1.51-1.15,3.01-1.75,4.51-.62-.29-1.18-.57-1.8-.74-1.18-.34-2.37-.85-3.55-.91-3.21-.17-5.35,1.37-6.31,4.51-.9,2.85-.85,5.82-.06,8.67.9,3.14,3.27,4.73,6.65,4.33,1.69-.17,3.38-.68,5.07-1.08.17-.06.45-.17.73-.23h0ZM106.4,43.22v-26.12h5.52v21.5h10.42v4.62s-15.94,0-15.94,0ZM99.87,43.22h-5.46v-26.12h5.46v26.12ZM111.98,57.7h-1.24v-8.44c.51,0,.96-.06,1.41,0,.17,0,.39.23.51.46,1.13,1.77,2.2,3.59,3.32,5.36l.45.68v-6.5h1.3v8.44c-.51,0-.96.06-1.46,0-.17,0-.39-.23-.51-.4-1.18-1.88-2.31-3.76-3.49-5.59-.11-.17-.17-.28-.34-.57.06,2.22.06,4.39.06,6.56h0ZM158.84,53.43c0-2.28.9-3.71,2.65-4.16,3.15-.86,5.52,1.2,5.29,4.51,0,.4-.06.8-.17,1.14-.45,2.05-2.03,3.14-4.28,2.97-2.08-.17-3.38-1.6-3.49-3.82v-.63ZM165.32,53.37c-.06-.34-.11-.86-.23-1.37-.34-1.14-1.07-1.65-2.31-1.65s-1.97.57-2.2,1.71c-.17.86-.17,1.71-.06,2.57.17,1.37,1.07,2.05,2.42,2.05,1.24-.06,2.08-.8,2.31-2.17,0-.34,0-.68.06-1.14ZM135.41,53.54c-.11.63-.11,1.2-.34,1.83-.56,1.82-2.14,2.74-4.28,2.51-1.91-.23-3.15-1.43-3.38-3.42-.06-.74-.06-1.48.06-2.17.39-2.34,2.37-3.59,4.84-3.08,1.69.34,2.82,1.6,2.93,3.42v.91c.11-.06.17-.06.17,0h0ZM128.88,53.48c.06.46.11,1.03.23,1.48.28,1.08,1.13,1.71,2.31,1.65,1.13,0,2.03-.63,2.2-1.71.17-.9.17-1.83,0-2.74-.23-1.25-1.01-1.82-2.25-1.82s-2.03.57-2.37,1.82c0,.4,0,.8-.11,1.31h0ZM181.54,56.45v-2.11h-1.63v-1.2h3.1v3.99c0,.11-.23.29-.34.34-1.13.11-2.25.4-3.38.29-1.8-.17-2.82-1.25-3.15-3.02-.11-.68-.17-1.48-.06-2.17.23-1.77,1.35-2.96,3.1-3.36,1.24-.29,2.48-.17,3.77.4-.17.4-.34.74-.45,1.14-1.69-.51-3.32-.91-4.51.86-.73,1.08-.62,3.14.11,4.11.68.91,1.91,1.2,3.44.74h0ZM94.07,57.7v-8.44h1.35v3.36h3.83v-3.36h1.41v8.38h-1.35v-3.76h-3.89v3.76c-.45.06-.9.06-1.35.06ZM64.27,49.26h4.79v1.14h-3.32v2.28h3.04v1.2h-3.1v2.62h3.32v1.2h-4.73v-8.44h0ZM209.08,56.51v1.14h-4.73v-8.38h4.73v1.14h-3.32v2.28h3.1v1.2h-3.1v2.62s3.32,0,3.32,0ZM218.21,56.22c.9.11,1.75.34,2.59.4.62.06,1.18-.17,1.35-.86.17-.68-.28-1.08-.85-1.37-.56-.29-1.13-.51-1.63-.8-1.13-.63-1.58-1.54-1.35-2.74.17-.97,1.13-1.71,2.31-1.71.9,0,1.86.17,2.93.34-.23.57-.39.91-.51,1.25-.73-.11-1.41-.29-2.08-.34-.56-.06-1.07.17-1.24.8-.17.63.23,1.03.73,1.31.56.29,1.13.51,1.69.8,1.18.57,1.58,1.37,1.46,2.57-.11,1.03-.85,1.71-2.08,1.94-.69.11-1.39.11-2.08,0q-1.29-.23-1.24-1.6h0ZM84.32,56.34c.17,1.2.17,1.25-.96,1.43-.28.06-.51.06-.79.11-2.7.11-4.22-1.31-4.28-4.11v-.8c.17-1.48.68-2.74,2.08-3.42,1.41-.68,2.87-.51,4.34.11-.17.4-.34.74-.51,1.14-1.41-.51-2.87-.97-3.89.51-.9,1.31-.9,2.85-.11,4.22,1.01,1.71,2.65,1.08,4.11.8ZM52.67,57.7h-1.41v-7.24h-2.48v-1.2h6.31v1.2h-2.42v7.24ZM146.39,56.51h3.55v1.14h-4.96v-8.44h1.35c.06,2.45.06,4.85.06,7.3h0ZM194.21,49.32v8.38h-1.35v-8.38h1.35Z"/>
    </g>
  </g>
</svg>