<?xml version="1.0" encoding="UTF-8"?>
<svg id="Layer_2" data-name="Layer 2" xmlns="http://www.w3.org/2000/svg" viewBox="0 0 284.53 78.07">
  <defs>
    <style>
      .cls-1 {
        fill: #fff;
        stroke-width: 0px;
      }
    </style>
  </defs>
  <g id="Layer_1-2" data-name="Layer 1">
    <g>
      <path class="cls-1" d="M273.2,17.44c-2.35-.09-4.72-.02-7.07-.02-.21,0-.43,0-.63,0-.1-.78-.17-1.48-.29-2.18-.72-4.12-2.48-7.7-5.73-10.41C255.51,1.51,250.85.04,245.74.03,223.59,0,201.44.05,179.29,0c-5-.01-9.65,1.12-14.01,3.52-5.64,3.12-10.05,7.48-13.04,13.22-.27.52-.56.69-1.14.69-43.27-.02-86.54-.01-129.81-.01-.6,0-1.21-.01-1.81.05-6.11.64-11.67,5.26-13.46,11.16-1.39,4.58-2.82,9.15-4.19,13.74-.65,2.17-1.42,4.35-1.72,6.58-.5,3.72.68,6.98,3.61,9.45,2.11,1.78,4.64,2.42,7.36,2.42,42.52,0,85.05,0,127.57,0q.95,0,1.04.92c.03.26.06.52.1.78.62,4.3,2.42,7.99,5.7,10.89,3.63,3.21,7.95,4.65,12.75,4.65,21.28.01,42.57.01,63.85,0,2.25,0,4.52-.02,6.76-.23,3.85-.37,7.45-1.65,10.85-3.5,5.72-3.11,10.33-7.38,13.46-13.15.18-.33.39-.39.72-.39,2.2,0,4.4-.06,6.59.02,4.35.15,8.2-1.24,11.69-3.72,2.83-2.02,5.1-4.52,6.16-7.91,1.43-4.55,5.36-20.28,6.1-24.42,1.06-6.01-6.39-7.13-11.23-7.31ZM29.21,45.55c-1.77-.08-3.55.01-5.32-.03-.61-.02-.84.2-1,.76-.51,1.74-1.08,3.46-1.6,5.19-.14.45-.37.58-.82.57-1.67-.02-3.35,0-5.02,0-.76,0-.79-.04-.57-.75,1.94-6.35,3.89-12.69,5.84-19.04.56-1.83,1.14-3.65,1.67-5.48.13-.46.33-.63.83-.63,2.14.03,4.27.01,6.41.01,1.96,0,3.91,0,5.87,0,3.59,0,5.66,2.63,4.71,6.08-.67,2.42-1.42,4.83-2.25,7.2-1.21,3.47-5.12,6.3-8.74,6.13ZM56.1,52.12c-6.09-.01-12.17,0-18.26-.01-.14,0-.28-.02-.52-.03.51-1.65.99-3.22,1.48-4.79,2.1-6.78,4.21-13.56,6.28-20.35.19-.63.45-.85,1.11-.83,1.65.05,3.3.01,4.96.02.64,0,.67.05.48.67-1.8,5.91-3.59,11.82-5.39,17.72-.05.17-.1.35-.16.52-.1.33,0,.51.36.51,1.79,0,3.59.02,5.38-.02.18,0,.45-.3.52-.51.59-1.77,1.16-3.56,1.71-5.35.13-.43.33-.61.8-.6,1.71.03,3.43,0,5.14.01.65,0,.72.09.52.71-1.22,3.92-2.46,7.83-3.67,11.75-.13.41-.31.58-.75.58ZM85.88,32.17c-1.08,3.81-2.29,7.58-3.45,11.37-.81,2.65-1.64,5.3-2.44,7.96-.12.39-.28.55-.7.54-1.75-.03-3.51,0-5.26-.01-.61,0-.67-.09-.49-.68.68-2.19,1.37-4.38,2.05-6.56.2-.63.15-.7-.51-.7-.89,0-1.77,0-2.66,0-.87,0-1.73.02-2.6,0-.44-.02-.64.15-.77.57-.71,2.29-1.45,4.56-2.16,6.85-.13.42-.32.56-.77.56-1.69-.03-3.38,0-5.08-.01-.72,0-.76-.05-.56-.71,1.9-6.23,3.79-12.47,5.71-18.69,1.18-3.82,5.29-6.65,8.85-6.5,2.07.08,4.15.01,6.22.02,3.5,0,5.57,2.64,4.61,6.03ZM110.54,26.83c-1.25,4.1-2.4,8.23-3.8,12.27-1.27,3.68-3.93,5.9-7.87,6.42-.35.05-.52.18-.62.52-.53,1.81-1.1,3.62-1.63,5.43-.12.41-.3.58-.75.57-1.73-.02-3.47,0-5.2,0-.65,0-.71-.08-.52-.71.51-1.67,1.01-3.35,1.55-5.02.16-.51.1-.69-.49-.77-2.98-.4-4.72-2.94-3.92-5.88.87-3.2,1.9-6.36,2.86-9.54.34-1.12.72-2.22,1.01-3.35.14-.54.4-.68.92-.67,1.59.03,3.18.01,4.78.01.95,0,.95,0,.67.89-1.17,3.83-2.32,7.66-3.48,11.49-.05.17-.09.35-.17.63h3.95c.6,0,1.21-.04,1.81.01.56.05.8-.15.97-.69,1.18-3.93,2.4-7.85,3.59-11.77.13-.42.3-.57.75-.57,1.69.03,3.39,0,5.08.01.67,0,.71.05.52.7ZM112.18,33.74c.19-.65.36-1.24.54-1.82.53-1.77,1.07-3.54,1.6-5.32.08-.25.14-.47.51-.46,2.34.02,4.67,0,7.09,0-.76,2.47-1.48,4.86-2.23,7.24-.05.14-.26.34-.39.34-2.34.02-4.67.01-7.12.01ZM139.13,38.8c-1.25,4.26-2.58,8.51-3.85,12.76-.14.47-.38.58-.82.57-1.71-.02-3.43,0-5.14,0-.74,0-.78-.06-.57-.76,1.17-3.83,2.33-7.66,3.49-11.49.06-.21.12-.42.2-.71-.25,0-.44,0-.64,0-1.73,0-3.47.03-5.2,0-.43,0-.58.15-.7.53-1.2,3.92-2.44,7.83-3.63,11.76-.16.53-.41.68-.94.67-1.65-.03-3.3,0-4.96-.01-.69,0-.74-.07-.54-.74,1.22-4.06,2.44-8.13,3.67-12.19,1.15-3.82,5.22-6.81,9-6.65,1.97.08,3.95.01,5.92.01,3.66,0,5.74,2.72,4.7,6.24ZM183.79,68.43c-2.98,1.73-6.22,2.6-9.69,2.58-5.36-.03-10.72.05-16.08-.04-3.89-.07-7.21-1.49-9.45-4.82-1.79-2.66-2.29-5.66-1.65-8.73.55-2.61,1.39-5.16,2.19-7.71,2.74-8.82,5.54-17.62,8.27-26.44,1.82-5.89,5.56-10.18,10.82-13.21,3.42-1.97,7.12-2.91,11.08-2.9,9.82.03,19.63.01,29.45.01q1.05,0,.74.98c-1.5,4.72-3.01,9.43-4.49,14.15-.18.57-.42.78-1.04.78-4.96-.03-9.92-.02-14.87-.02-4.96,0-9.92,0-14.87-.01-.53,0-.76.16-.92.68-3.17,10.2-6.35,20.4-9.54,30.59-.21.66-.16.74.53.74,4.66,0,9.31,0,13.97,0,.42,0,.6-.13.72-.53.82-2.76,1.66-5.51,2.49-8.26.17-.57.11-.65-.52-.66-1.91,0-3.83,0-5.74,0-.71,0-.74-.06-.53-.73,1.25-3.89,2.51-7.77,3.74-11.66.13-.41.31-.57.76-.57,7.28.02,14.55.01,21.83.01.71,0,.73.04.46.92-2.11,6.87-4.24,13.72-6.32,20.6-1.89,6.26-5.7,10.98-11.32,14.25ZM257.37,25.4c-2.88,9.49-5.76,18.97-8.64,28.46-1.45,4.77-4.3,8.56-8.14,11.65-3.3,2.66-7,4.51-11.21,5.18-.87.14-1.76.2-2.65.21-2.5.03-5,0-7.5,0-2.58,0-5.16.03-7.74,0-3.56-.05-6.69-1.17-9.05-3.95-1.97-2.33-2.65-5.09-2.58-8.1.06-2.21.72-4.27,1.36-6.35,3-9.77,5.97-19.54,9-29.3,1.88-6.05,5.88-10.36,11.35-13.37,3.47-1.91,7.2-2.79,11.19-2.72,4.92.08,9.83-.03,14.75.05,2.95.05,5.67.96,7.91,2.97,2.49,2.23,3.47,5.11,3.43,8.38-.02,2.4-.81,4.62-1.5,6.87Z"/>
      <path class="cls-1" d="M241.22,23.01c-4.69,0-9.39,0-14.08-.01-.53,0-.72.19-.87.66-.82,2.69-1.67,5.38-2.51,8.07-2.35,7.54-4.71,15.09-7.05,22.63-.21.68-.17.73.53.73,2.4,0,4.8,0,7.19,0s4.8,0,7.19,0c.41,0,.59-.13.72-.53,3.15-10.25,6.31-20.49,9.46-30.73.25-.82.24-.83-.59-.83Z"/>
      <path class="cls-1" d="M73.12,32.55c-.15,0-.38.25-.44.42-.41,1.26-.79,2.53-1.18,3.8-.23.75-.44,1.5-.69,2.34,2.13,0,4.14,0,6.15-.02.15,0,.38-.25.44-.43.39-1.16.74-2.34,1.1-3.51.26-.85.53-1.71.81-2.63-2.13,0-4.16,0-6.19.02Z"/>
      <path class="cls-1" d="M27.43,32.57c-.13,0-.33.25-.38.42-.46,1.46-.9,2.92-1.34,4.39-.17.57-.34,1.14-.51,1.72.12.04.17.07.23.07,1.95,0,3.91.02,5.86-.01.16,0,.41-.22.47-.39.36-1.07.68-2.15,1.01-3.23.3-.97.59-1.95.91-2.99-2.15,0-4.2,0-6.25.02Z"/>
    </g>
  </g>
</svg>