<?xml version="1.0" encoding="UTF-8"?>
<svg id="Layer_2" data-name="Layer 2" xmlns="http://www.w3.org/2000/svg" viewBox="0 0 222.23 42.08">
  <defs>
    <style>
      .cls-1 {
        fill: #fff;
        stroke-width: 0px;
      }
    </style>
  </defs>
  <g id="Layer_1-2" data-name="Layer 1">
    <g>
      <path class="cls-1" d="M222.23,39.15c-2.24.09-4.49.18-7,.37v-8.98c0-2.29-.09-4.68-.09-6.97s-.99-3.67-3.14-4.13c-2.24-.46-4.31.64-5.12,2.84-.45,1.38-.72,2.84-.72,4.22-.09,4.22,0,8.43,0,12.84h-6.46V14.21h6.29c.09.92.18,1.83.18,2.47,1.71-.92,3.41-2.38,5.39-2.93,4.49-1.19,8.26,1.19,9.79,5.78.36,1.1.63,2.11.9,3.21v16.41h0ZM39.69,24.02v9.35h18.77v5.87h-25.5V3.94h24.96v5.68h-18.41v8.34h12.21v6.05h-12.03ZM196.64,26.68c0,7.52-5.48,13.11-12.84,13.2-7.36.09-12.75-5.5-12.66-13.2,0-7.61,5.39-13.11,12.75-13.2,7.36,0,12.75,5.59,12.75,13.2ZM177.87,27.14c.09.64.18,1.47.36,2.38.54,2.84,2.42,4.68,5.12,4.86,2.87.18,5.12-1.19,6.11-3.94.9-2.66.81-5.41-.27-7.98-.81-1.92-2.24-3.03-4.31-3.3-4.31-.55-7,2.47-7,7.98h0ZM80.36,26.5c.09-7.52,5.57-13.11,12.93-13.02,7.36.09,12.57,5.68,12.57,13.39s-5.66,13.11-13.02,13.02c-7.36-.09-12.48-5.59-12.48-13.39ZM99.4,26.77c-.36-1.47-.54-3.03-1.08-4.4-.9-2.29-2.69-3.3-5.03-3.39-2.33-.09-4.22.83-5.21,2.93-1.44,2.93-1.53,6.05-.18,9.08,1.44,3.21,5.21,4.22,8.17,2.38,2.6-1.38,3.05-3.85,3.32-6.6ZM134.86,14.12h6.46v25.12h-6.2c-.09-.73-.27-1.47-.27-1.74-2.34.73-4.67,2.11-7,2.2-4.85.18-8.08-3.48-8.62-8.98-.09-.92-.09-1.93-.09-2.93v-13.66h6.64c0,4.95-.18,9.9.09,14.85.09,1.47.9,3.39,1.98,4.22,2.43,1.93,5.66.55,6.46-2.47.45-1.65.54-3.48.54-5.23v-11.37h0Z"/>
      <path class="cls-1" d="M81.44,14.03c-2.07,5.78-4.04,11.37-6.02,16.96-.81,2.29-1.71,4.49-2.42,6.78-.36,1.28-1.08,1.83-2.33,1.74-.9-.09-1.98.18-2.78-.09-.72-.18-1.8-.73-1.97-1.47-2.96-7.61-5.75-15.22-8.62-22.92-.09-.18-.09-.46-.09-1.01,1.89,0,3.77-.09,5.57.09.54.09,1.26,1.01,1.53,1.65,1.71,4.95,3.32,9.9,5.48,14.94.81-2.66,1.71-5.23,2.51-7.89.72-2.38,1.53-4.68,2.15-7.06.36-1.19.9-1.92,2.24-1.74,1.44.09,2.96,0,4.76,0h0ZM158.21,33.74v5.68c-2.42-.18-4.85-.09-7.18-.46-2.15-.37-3.41-2.02-3.5-4.31-.09-4.03-.18-8.07-.27-12.01v-3.03c-1.17-.09-1.89-.09-3.41-.09v-5.32c1.17-.09,2.15.09,3.5,0v-4.49c0-2.29,3.95-2.75,6.29-4.03v8.34h4.67v5.32h-4.85c0,4.4-.09,8.62.09,12.74,0,.64,1.08,1.38,1.89,1.65.9.28,1.88,0,2.78,0h0ZM108.91,3.39h6.28v35.85h-6.29s0-35.85,0-35.85ZM168.09,39.24h-6.38V14.21h6.38v25.03ZM168.18,10.36h-6.46V3.94h6.46v6.42h0ZM105.95,26.96c0,7.52-5.48,13.11-12.84,13.2s-12.75-5.5-12.66-13.2c0-7.61,5.39-13.11,12.75-13.2,7.36,0,12.75,5.59,12.75,13.2ZM87.19,27.32c.09.64.18,1.47.36,2.38.54,2.84,2.42,4.68,5.12,4.86,2.87.18,5.12-1.19,6.11-3.94.9-2.66.81-5.41-.27-7.98-.81-1.92-2.25-3.03-4.31-3.3-4.4-.55-7,2.47-7,7.98ZM0,2.93v-.18c1.62-.64,3.14-1.38,4.76-1.92q1.26-.37,2.78-.64c1.17-.18,1.35-.18,2.15-.18.63,0,1.53.09,1.7.09,2.42.18,4.67,1.01,6.83,2.11,5.3,2.66,8.53,7.15,10.15,12.84.36,1.38.63,2.75.9,4.22,0,.28.09.55.09.92-3.68.09-7.36.37-11.05-.18-3.05-.46-5.93-1.28-8.62-2.93-3.86-2.29-6.11-5.87-7.9-9.9-.54-1.47-1.17-2.84-1.8-4.22ZM0,39.15v.18c1.62.64,3.14,1.38,4.76,1.93q1.26.37,2.78.64c1.17.18,1.35.18,2.15.18.63,0,1.53-.09,1.7-.09,2.42-.18,4.67-1.01,6.83-2.11,5.3-2.66,8.53-7.15,10.15-12.84.36-1.38.63-2.75.9-4.22,0-.28.09-.55.09-.92-3.68-.09-7.36-.37-11.05.18-3.05.46-5.93,1.28-8.62,2.93-3.86,2.29-6.11,5.87-7.9,9.9-.54,1.38-1.17,2.75-1.8,4.22Z"/>
    </g>
  </g>
</svg>