<?xml version="1.0" encoding="UTF-8"?>
<svg id="Layer_2" data-name="Layer 2" xmlns="http://www.w3.org/2000/svg" viewBox="0 0 224 54">
  <defs>
    <style>
      .cls-1 {
        fill: #fff;
        stroke-width: 0px;
      }
    </style>
  </defs>
  <g id="Layer_1-2" data-name="Layer 1">
    <g>
      <path class="cls-1" d="M109.89,31.3c-.02-.05-.05-.1-.08-.14l-6.72-19.34c-.03-.09-.09-.17-.17-.22-.08-.06-.17-.09-.27-.09h-7.15c-.1,0-.19.03-.27.09-.08.06-.14.13-.17.22l-6.33,18.24-6.33-18.24c-.03-.09-.1-.17-.18-.23-.08-.06-.18-.09-.28-.09h-7.14c-.1,0-.19.03-.27.09-.08.06-.14.13-.17.22l-10.35,29.8c-.02.07-.03.14-.02.21.01.07.04.14.08.2.04.06.1.11.17.14s.14.05.21.05h7.14c.1,0,.19-.03.27-.09.08-.06.14-.13.17-.22l6.34-18.25,6.34,18.25c.03.09.09.17.17.22.08.06.18.09.27.09h7.14c.1,0,.19-.03.27-.09.08-.06.14-.13.17-.22l6.33-18.23,6.33,18.23c.03.09.1.17.18.23.08.06.18.09.28.08h7.17c.07,0,.14-.02.21-.06.06-.03.12-.08.16-.14.04-.06.07-.13.08-.2.01-.07,0-.14-.02-.21l-3.56-10.32Z"/>
      <path class="cls-1" d="M134.48,39.01s-.01-.06-.02-.09l-9.43-27.1c-.03-.09-.09-.17-.17-.22-.08-.06-.18-.09-.27-.09h-7.15c-.1,0-.19.03-.27.09-.08.06-.14.13-.17.22l-4.83,13.9c-.03.09-.03.2,0,.29l3.56,10.32c.03.09.09.17.17.23.08.06.18.09.27.09.1,0,.19-.03.27-.09.08-.06.14-.13.17-.22l4.4-12.66,6.34,18.25c.03.09.09.17.17.22.08.06.18.09.27.09h7.15c.07,0,.15-.02.21-.05.07-.03.12-.08.17-.14s.07-.13.08-.2c.01-.07,0-.15-.02-.21l-.91-2.61Z"/>
      <path class="cls-1" d="M170.46,11.82c-.03-.09-.09-.17-.17-.22-.08-.06-.18-.09-.27-.09h-7.08c-.1,0-.19.03-.27.09-.08.06-.14.13-.17.22l-10.43,29.8c-.02.07-.03.14-.02.21s.04.14.08.2c.04.06.1.11.17.14.07.03.14.05.21.05h7.15c.1,0,.19-.03.27-.09.08-.06.14-.13.17-.22l6.34-18.25,6.34,18.25c.03.09.09.17.17.22.08.06.18.09.27.09h7.14c.07,0,.15-.02.21-.05.07-.03.12-.08.17-.14.04-.06.07-.13.08-.2s0-.15-.02-.21l-10.35-29.8Z"/>
      <path class="cls-1" d="M151.03,31.82l-.11-.07c-.09-.05-.2-.07-.31-.06-.11.02-.21.07-.28.15-.72.78-1.6,1.4-2.58,1.83-.98.43-2.04.65-3.12.65-1.03,0-2.05-.2-3-.6-.95-.39-1.81-.97-2.52-1.7-.72-.73-1.27-1.59-1.64-2.53-.37-.94-.54-1.95-.5-2.95.06-1.45.55-2.86,1.41-4.05.87-1.19,2.07-2.1,3.45-2.63,1.39-.53,2.91-.65,4.37-.36,1.46.3,2.8,1.01,3.85,2.04.09.09.21.13.33.13s.24-.05.33-.13l.1-.1c.05-.05.09-.11.11-.18l2.53-7.26c.03-.1.03-.2,0-.3-.04-.1-.1-.18-.19-.23-2.58-1.59-5.58-2.44-8.63-2.44-2.62,0-5.19.62-7.51,1.81-2.32,1.19-4.3,2.9-5.79,5-.04.06-.07.13-.08.2,0,.07,0,.14.02.21l8.12,23.34c.02.07.06.13.11.18.05.05.12.09.19.11,1.6.5,3.26.75,4.94.75.94,0,1.87-.08,2.8-.24.08-.01.16-.05.22-.1.06-.05.11-.12.14-.2l3.44-9.74c.04-.1.03-.21,0-.31-.04-.1-.11-.18-.2-.24h0Z"/>
      <path class="cls-1" d="M223.91,11.7c-.04-.06-.1-.11-.17-.14-.07-.03-.14-.05-.21-.05h-7.15c-.1,0-.19.03-.27.09-.08.06-.14.13-.17.22l-6.34,18.25-6.34-18.25c-.03-.09-.09-.17-.17-.23-.08-.06-.18-.09-.27-.09h-7.15c-.1,0-.19.03-.27.09-.08.06-.14.13-.17.22l-6.33,18.23-6.33-18.23c-.03-.09-.09-.17-.17-.22-.08-.06-.18-.09-.27-.09h-7.15c-.07,0-.15.02-.21.05-.07.03-.12.08-.17.14-.04.06-.07.13-.08.2,0,.07,0,.15.02.21l10.35,29.8c.03.09.09.17.17.22.08.06.17.09.27.09h7.15c.1,0,.19-.03.27-.09.08-.06.14-.13.17-.22l6.33-18.24,6.33,18.24c.03.09.1.17.18.23.08.06.18.09.28.08h7.15c.1,0,.19-.03.27-.09.08-.06.14-.13.17-.22l10.35-29.8c.02-.07.03-.14.02-.21-.01-.07-.04-.14-.08-.2h0Z"/>
      <path class="cls-1" d="M100.48,49.51v-.02c0-.5.1-1,.29-1.47.2-.47.49-.89.86-1.24.37-.35.8-.63,1.28-.82s.99-.28,1.51-.27c1.35,0,2.17.36,2.96,1.01l-1.04,1.23c-.53-.49-1.24-.76-1.97-.74-1.2,0-2.16,1.04-2.16,2.29v.02c0,1.34.95,2.33,2.28,2.33.56.02,1.1-.14,1.56-.44v-1.05h-1.67v-1.4h3.27v3.19c-.89.75-2.03,1.17-3.21,1.16-2.34,0-3.96-1.61-3.96-3.78Z"/>
      <path class="cls-1" d="M120.42,45.77h1.53l3.22,7.4h-1.73l-.69-1.65h-3.18l-.69,1.65h-1.69l3.22-7.4ZM122.16,50.09l-1-2.38-1,2.38h2Z"/>
      <path class="cls-1" d="M134.93,45.82h1.78l1.98,3.11,1.98-3.11h1.78v7.35h-1.64v-4.8l-2.12,3.14h-.04l-2.1-3.11v4.76h-1.62v-7.35Z"/>
      <path class="cls-1" d="M152.93,45.82h1.65v7.35h-1.65v-7.35Z"/>
      <path class="cls-1" d="M165.07,45.82h1.53l3.53,4.52v-4.52h1.63v7.35h-1.41l-3.65-4.67v4.67h-1.63v-7.35Z"/>
      <path class="cls-1" d="M181.82,49.51v-.02c0-.5.1-1,.29-1.47.2-.47.49-.89.86-1.24.37-.35.8-.63,1.28-.82.48-.19.99-.28,1.51-.27,1.35,0,2.17.36,2.96,1.01l-1.04,1.23c-.53-.49-1.24-.76-1.97-.74-1.2,0-2.16,1.04-2.16,2.29v.02c0,1.34.95,2.33,2.28,2.33.55.02,1.1-.14,1.56-.44v-1.05h-1.67v-1.4h3.27v3.19c-.89.75-2.03,1.17-3.21,1.16-2.34,0-3.96-1.61-3.96-3.78Z"/>
      <path class="cls-1" d="M38.63,15.69c0-.41-.08-.81-.24-1.19-.16-.38-.39-.72-.69-1.01-.3-.29-.65-.52-1.03-.67-.39-.16-.8-.24-1.22-.24-.42,0-.83.08-1.22.24-.39.16-.74.38-1.03.67-.3.29-.53.63-.69,1.01-.16.38-.24.78-.24,1.19,0,.82.33,1.61.93,2.19.6.58,1.4.91,2.25.91.42,0,.83-.08,1.22-.24s.74-.38,1.03-.67c.3-.29.53-.63.69-1.01.16-.38.24-.78.24-1.19h0Z"/>
      <path class="cls-1" d="M52.85,14.09s0,0,0-.01c-.01-.19-.05-.37-.1-.55C52.09,10.41,44.09,0,25.56,0c-3.09,0-6.17.31-9.19.93C11.76,3.53,7.85,7.19,5,11.59,2.15,15.99.43,21,0,26.19,8.6,4.52,36.33-.79,51.19,13.03c-4.43-2.5-17.13-8.24-26.09,2.12-12.77,14.76,1.74,32.59,8.95,37.03-13.82-.33-22.91-13.79-22.91-13.79h-.06c.59,1.43,8.04,18.41,29.69,15.2,0,0-6.93-2.74-11.15-9.47,2.28,1.19,4.79,1.92,7.36,2.12,2.58.21,5.17-.11,7.62-.93,0,.06,0,.11,0,.17,0,2.7-.63,5.36-1.86,7.78,3.69-1.53,6.97-3.87,9.58-6.84,2.61-2.97,4.48-6.5,5.46-10.29.98-3.8,1.04-7.76.19-11.59-.86-3.82-2.61-7.4-5.12-10.46h0ZM28.16,41.62c-1.31-2.92,5.64-12.27,7.76-11.13,8.19,4.39,8.62,13.53,8.62,13.53-7.34,1.85-13.52-.28-16.38-2.4h0ZM45.2,50.99s4.4-13.95-8.77-21.03c-1.23-.85,1.32-4.5,4.81-8-4.52,3.04-9.11,4.64-13.74,4.16-3.12-.33-5.04.65-5.7,2.62-.14-1.22-.1-2.45.09-3.66,1.17-.68,2.41-1.26,3.69-1.71,2.63-.86,2.7,1.84,7.86,1.29,4.48-.48,6.88-2.82,6.88-2.82-7.26,3.88-10.27,1.76-12.08.64-1.43-.89-3.41-.36-5.99.96.18-.66.4-1.31.67-1.94,1.18-.49,2.4-.87,3.65-1.14,2.73-.53,2.44,2.15,7.63,2.25,4.51.08,7.19-1.95,7.19-1.95-7.71,2.96-10.42.48-12.07-.86-1.23-1-3.11-.81-5.62.05.24-.45.5-.89.78-1.32,1.19-.36,2.42-.61,3.66-.75,2.77-.26,2.21,2.38,7.36,2.99,4.48.52,7.36-1.24,7.36-1.24-7.97,2.18-10.42-.55-11.92-2.04-1.08-1.08-2.87-1.1-5.3-.57,2.47-3.09,5.87-5.44,9.54-6.28,8.12-1.84,14.04,1.86,14.04,1.86,0,0-5.57-2.23-10.98-.74,0,0,7.66,1.45,5.42,4.34-2.24,2.89-6.83,3.46-6.83,3.46,5.86-.22,8.58-3.21,8.58-3.21,0,0-.02.78-1.03,2.25,1.45-1.1,3.73-2.59,5.5-3.25.67-.34,1.4-.54,2.15-.59,0,0,7.03,8.92,4.86,20.17-2.17,11.25-11.66,16.06-11.66,16.06h0Z"/>
    </g>
  </g>
</svg>