<?xml version="1.0" encoding="UTF-8"?>
<svg id="Layer_2" data-name="Layer 2" xmlns="http://www.w3.org/2000/svg" viewBox="0 0 214 49">
  <defs>
    <style>
      .cls-1, .cls-2 {
        fill: #fff;
        stroke-width: 0px;
      }

      .cls-2 {
        fill-rule: evenodd;
      }
    </style>
  </defs>
  <g id="Layer_1-2" data-name="Layer 1">
    <g>
      <path class="cls-1" d="M81.64,30.03h2v11.94h-2v-11.94Z"/>
      <path class="cls-1" d="M97.5,30.03h2v11.94h-2.17l-6.71-8.71v8.71h-2v-11.94h2l6.88,8.92v-8.92h0Z"/>
      <path class="cls-1" d="M108.96,31.87v10.1h-2v-10.1h-3.59v-1.85h9.19v1.85h-3.59,0Z"/>
      <path class="cls-1" d="M124.73,30.03v1.9h-6.32v3.16h5.68v1.79h-5.68v3.19h6.53v1.9h-8.52v-11.94h8.32,0Z"/>
      <path class="cls-1" d="M138.65,33.91c0,1.97-.85,3.21-2.56,3.72l3.1,4.34h-2.54l-2.83-4.01h-2.63v4.01h-2v-11.94h4.41c1.81,0,3.1.31,3.88.92.78.61,1.17,1.6,1.17,2.95h0ZM135.99,35.6c.41-.35.61-.92.61-1.7s-.21-1.32-.63-1.61c-.42-.29-1.16-.44-2.24-.44h-2.54v4.27h2.49c1.13,0,1.9-.18,2.31-.53h0Z"/>
      <path class="cls-1" d="M144.9,39.25l-1.19,2.72h-2.14l5.22-11.94h2.14l5.22,11.94h-2.14l-1.19-2.72h-5.93ZM150.02,37.39l-2.15-4.92-2.15,4.92h4.31,0Z"/>
      <path class="cls-1" d="M162.9,40.14c.69,0,1.28-.12,1.78-.35.5-.23,1.02-.61,1.56-1.12l1.29,1.33c-1.25,1.4-2.78,2.1-4.57,2.1s-3.28-.58-4.46-1.74c-1.18-1.16-1.77-2.63-1.77-4.41s.6-3.26,1.8-4.44c1.2-1.18,2.72-1.78,4.56-1.78s3.37.68,4.6,2.05l-1.27,1.4c-.57-.55-1.1-.93-1.6-1.14-.5-.22-1.09-.32-1.77-.32-1.2,0-2.2.39-3.02,1.17-.82.78-1.22,1.78-1.22,2.99s.4,2.23,1.21,3.04c.81.81,1.77,1.22,2.87,1.22h0Z"/>
      <path class="cls-1" d="M176.13,31.87v10.1h-2v-10.1h-3.59v-1.85h9.18v1.85h-3.59,0Z"/>
      <path class="cls-1" d="M183.59,30.03h2v11.94h-2v-11.94h0Z"/>
      <path class="cls-1" d="M195.97,41.97h-2.24l-4.76-11.94h2.24l3.64,8.92,3.64-8.92h2.24l-4.76,11.94h0Z"/>
      <path class="cls-1" d="M212.44,30.03v1.9h-6.32v3.16h5.68v1.79h-5.68v3.19h6.53v1.9h-8.52v-11.94h8.32,0Z"/>
      <path class="cls-2" d="M14.36,25.06c.06-6.55,6.19-14.97,16.65-19.58,18.41-8.11,28.95-.63,31.68,6.43,2.54,6.59-2.49,18.15-11.2,26.77,6.22-4.49,11.3-9.32,14.82-14,4.68-6.22,6.61-12.2,4.83-16.84C68.52.98,58.26-1.22,45.26.63c-13,1.85-22.99,5.07-31.01,9.17C5.33,14.37.72,19.8.06,25.99c-.96,9,8.61,21.09,30.48,22.58,11.5.78,22.52,1.05,43.87-4.18-2.54.08-60.29,7.31-60.06-19.33h0Z"/>
      <path class="cls-2" d="M35.59,35.53c6.85,0,12.44-5.63,12.44-12.54s-5.59-12.54-12.44-12.54-12.44,5.63-12.44,12.54,5.59,12.54,12.44,12.54h0Z"/>
      <path class="cls-1" d="M93.78,19.62h-6.76l-1.26,3.13h-4.61l7.06-16.11h4.45l7.08,16.11h-4.7l-1.26-3.13h0ZM92.45,16.26l-2.06-5.16-2.06,5.16h4.11Z"/>
      <path class="cls-1" d="M117.43,22.75l-.04-8.54-4.11,6.95h-2.01l-4.09-6.72v8.31h-4.18V6.64h3.72l5.62,9.3,5.48-9.3h3.72l.05,16.11h-4.16Z"/>
      <path class="cls-1" d="M128.61,21.12c-1.32-1.3-1.98-3.15-1.98-5.55V6.64h4.52v8.79c0,2.58,1.01,3.87,3.04,3.87s3.01-1.29,3.01-3.87V6.64h4.45v8.93c0,2.39-.66,4.24-1.98,5.55-1.32,1.3-3.16,1.96-5.54,1.96s-4.22-.65-5.54-1.96h0Z"/>
      <path class="cls-1" d="M148.56,22.59c-1.22-.32-2.21-.75-2.97-1.29l1.48-3.36c.71.48,1.54.86,2.49,1.15.94.29,1.87.44,2.78.44,1.74,0,2.6-.44,2.6-1.31,0-.46-.25-.8-.74-1.03-.5-.22-1.29-.46-2.39-.7-1.2-.26-2.21-.54-3.01-.84-.81-.3-1.5-.78-2.08-1.44-.58-.66-.87-1.55-.87-2.67,0-.98.27-1.87.8-2.66.53-.79,1.33-1.42,2.39-1.88,1.06-.46,2.36-.69,3.89-.69,1.05,0,2.09.12,3.1.36,1.02.24,1.92.59,2.69,1.05l-1.39,3.38c-1.52-.83-3-1.24-4.43-1.24-.9,0-1.55.14-1.96.4-.41.27-.62.62-.62,1.05s.24.75.73.97c.49.22,1.27.44,2.35.67,1.22.26,2.23.54,3.03.84.8.3,1.49.78,2.08,1.43.59.65.88,1.54.88,2.66,0,.97-.27,1.84-.8,2.62-.53.78-1.33,1.41-2.4,1.88-1.07.47-2.36.7-3.88.7-1.29,0-2.55-.16-3.77-.48h0Z"/>
      <path class="cls-1" d="M178.67,6.64v16.11h-3.72l-7.06-8.59v8.59h-4.43V6.64h3.72l7.06,8.59V6.64h4.43Z"/>
      <path class="cls-1" d="M196.69,19.23v3.52h-12.83V6.64h12.54v3.52h-8.06v2.72h7.1v3.41h-7.1v2.95h8.36Z"/>
      <path class="cls-1" d="M204.59,10.25h-4.91v-3.61h14.32v3.61h-4.89v12.5h-4.52v-12.5h0Z"/>
    </g>
  </g>
</svg>