<?xml version="1.0" encoding="UTF-8"?>
<svg id="Layer_2" data-name="Layer 2" xmlns="http://www.w3.org/2000/svg" viewBox="0 0 114.5 106.78">
  <defs>
    <style>
      .cls-1 {
        fill: #fff;
        stroke-width: 0px;
      }
    </style>
  </defs>
  <g id="Layer_1-2" data-name="Layer 1">
    <g>
      <path class="cls-1" d="M73.64,79.65c.3-.16.6-.32.9-.46.39-.21.76-.39,1.15-.6.28-.14.53-.3.81-.44.44-.23.85-.46,1.29-.69.23-.12.46-.25.69-.39.07-.05.16-.09.23-.14-1.69.95-3.41,1.86-5.14,2.74.05,0,.07,0,.07-.02ZM76.24,49.14c.85-9.93,1.73-19.89,2.58-29.85-.88,9.93-1.73,19.89-2.58,29.85Z"/>
      <path class="cls-1" d="M82.07,75.06c-.62.35-1.24.71-1.84,1.06.61-.37,1.22-.72,1.84-1.06,2.88-25.02,5.76-50.04,8.67-75.06-25.84,17.22-46.67,31.87-66.97,42.52,15.65,4.36,31.21,15.26,43.9,32.15.9-13.99,1.8-27.98,2.67-41.97-5.3,3.43-10.42,6.64-15.42,9.56,2.03,1.38,3.99,2.86,5.88,4.42-.09,2.65-.21,5.28-.3,7.93-6.08-5.58-12.54-10-19.13-13.27,11.75-6.18,23.94-13.62,37.4-22.06l10.46-6.57c-2.38,20.78-4.77,41.56-7.17,62.34Z"/>
      <path class="cls-1" d="M73.59,79.67c.88-10.19,1.75-20.37,2.63-30.54-.88,10.16-1.75,20.35-2.63,30.54ZM78.73,76.93c.48-.28.99-.55,1.5-.83-.51.3-.99.55-1.5.83Z"/>
      <path class="cls-1" d="M82.07,75.06c2.4-20.79,4.79-41.58,7.19-62.34l-10.46,6.57c-.85,9.96-1.71,19.91-2.58,29.85-.88,10.19-1.75,20.37-2.63,30.54,1.73-.88,3.44-1.8,5.14-2.74.48-.28.99-.55,1.5-.83.61-.35,1.23-.7,1.84-1.04ZM13.28,101.27c0,2.97-2.97,5.39-6.64,5.39s-6.64-2.42-6.64-5.39,2.97-5.39,6.64-5.39c1.82,0,3.48.6,4.68,1.59l-1.57,1.27c-.81-.64-1.89-1.06-3.11-1.06-2.44,0-4.42,1.61-4.42,3.6s1.98,3.6,4.42,3.6c2.05,0,3.78-1.15,4.29-2.7h-3.92l-.37-1.8h6.64s0,.9,0,.9ZM42.08,95.88l7.01,5.69,7.01-5.69v10.76h-2.21v-5.99l-4.79,3.89-4.79-3.89v5.99h-2.21v-10.76ZM66.86,100.9c-.88-.71-.99-1.36-.99-2.14,0-1.66,2.17-3,4.19-3s4.19,1.25,4.19,2.4l-2.21.6c0-.67-.88-1.2-1.98-1.2s-1.98.53-1.98,1.2.85,1.15,1.98,1.31c1.29.18,1.89.28,2.51.51.99.35,2.05,1.08,2.05,2.9s-2.33,3.3-4.56,3.3-4.56-1.29-4.56-2.7l2.21-.6c0,.83,1.36,1.5,2.35,1.5,1.08,0,2.35-.67,2.35-1.5,0-1.06-1.31-1.38-2.35-1.61-1.41-.3-2.51-.39-3.2-.97ZM84.05,95.88h2.21v4.49h5.9v-4.49h2.21v10.76h-2.21v-4.49h-5.9v4.49h-2.21v-10.76ZM107.86,102.03l-4.43-6.15h2.58l2.95,4.1,2.95-4.1h2.58l-4.43,6.15v4.61h-2.21v-4.61h0ZM27.89,104.84h.21l-1.01-1.8h-1.45l.69-1.36.78-1.66,3.73,6.61h2.19l-5.9-10.76-4.91,8.97s5.67,0,5.67,0Z"/>
    </g>
  </g>
</svg>