<?xml version="1.0" encoding="UTF-8"?>
<svg id="Layer_2" data-name="Layer 2" xmlns="http://www.w3.org/2000/svg" viewBox="0 0 223.67 101.27">
  <defs>
    <style>
      .cls-1 {
        fill: #fff;
        stroke-width: 0px;
      }
    </style>
  </defs>
  <g id="Layer_1-2" data-name="Layer 1">
    <g>
      <path class="cls-1" d="M23.28,87.69c-3.16-4.52-3.39-9.15.34-15.47,3.73-6.32,15.82-14.34,15.82-14.34,0,0,7.01-3.73,7.01-7.34v-.45c0-3.61-7.01-7.34-7.01-7.34-.56-.34-12.2-8.13-15.82-14.23-1.81-3.16-2.71-5.87-2.71-8.36s.79-4.86,2.37-7c3.16-4.52,10.85-7.34,22.6-6.55,5.31.34,10.62,1.24,15.71,2.82l.57.23c1.89.56,3.74,1.24,5.54,2.03.68.34,1.47.68,2.15,1.02.34.23.68.34,1.02.57l3.05,1.69c.45.34,1.02.68,1.47,1.02,1.68,1.12,3.26,2.36,4.75,3.73,0,0-8.25-14.57-29.27-18.63C29.83-3,13.67,5.25,4.29,13.6,1.81,15.86.56,18.01.11,20.04c-.11.23-.11.79-.11,1.24,0,4.74,4.29,8.81,8.25,12.54l.68.56c5.99,5.53,8.59,11.07,8.59,16.04s-2.6,10.5-8.59,16.04c-4.41,4.18-9.83,9.03-8.7,14.68.34,1.47.9,2.82,1.92,3.95.34.45.68.79,1.02,1.24l.23.23.45.45.23.23c.11.11.34.23.45.45,2.69,2.47,5.65,4.63,8.81,6.44.79.45,1.58.9,2.49,1.36,1.24.68,2.6,1.24,3.95,1.81.9.34,1.92.79,2.83,1.13.45.11,1.02.34,1.47.45,2.03.68,4.07,1.13,6.22,1.58.56.11,1.13.23,1.58.23,6.33.9,12.77.79,19.1-.45,21.02-4.07,29.27-18.52,29.27-18.52-9.72,8.58-22.6,12.2-34.35,12.87-11.75.68-19.55-2.37-22.6-6.89h0Z"/>
      <path class="cls-1" d="M64.52,52.34c.68,0,1.47,0,2.15-.11.6-.1,1.21-.22,1.81-.34.57-.23,1.02-.56,1.24-1.02.34-.56.57-1.24.45-1.92,0-2.15-.57-3.73-1.69-4.74s-2.82-1.47-5.2-1.47c-1.13,0-2.15.11-3.16.34-.9.23-1.69.56-2.49,1.13-.79.56-1.36,1.47-1.69,2.37-.45,1.24-.56,2.49-.56,3.73,0,2.94.68,5.08,2.15,6.32,1.36,1.24,3.62,1.81,6.67,1.81,2.15,0,3.62-.34,4.41-1.02.68-.68,1.02-1.81,1.02-3.39-.11,0-.57,0-1.36.11l-2.37.34c-.9.11-1.81.11-2.6.11s-1.58-.11-2.26-.45c-.56-.23-.9-.68-.9-1.24.68-.23,1.36-.45,2.15-.45.68-.11,1.47-.23,2.26-.11ZM60,49.97c-.23-1.81.23-2.94,1.69-3.5,1.02-.34,2.15-.34,3.16.11.79.34,1.13.68,1.13,1.24,0,.45-.23,1.02-.68,1.13-.54.22-1.11.34-1.69.34-.68,0-1.36,0-2.03.11-.56.11-1.13.23-1.58.56ZM80.12,42.63c-3.96.11-5.88.79-5.88,1.92v13.66h1.69c.47,0,.94-.12,1.36-.34.45-.11.79-.45.9-.79.23-.45.34-.9.23-1.47v-7.68c0-.34,0-.79-.11-1.13l2.03-.34c2.26-.23,3.62.22,3.84,1.58v7.45c0,.45.11,1.02.23,1.47.23.34.57.68.9.79.45.23.9.23,1.36.34h1.69v-10.16c.11-3.61-2.71-5.42-8.25-5.31h0ZM106.45,37.32c-.34-.11-.68-.11-1.02-.11s-.79,0-1.13-.11c-.34,0-.79-.23-1.02-.34v6.78c-.68-.45-1.69-.68-3.16-.68-.68,0-1.47.11-2.15.23-.68.11-1.47.45-2.03.79-1.47.79-2.49,2.03-2.94,3.61-.34,1.02-.45,2.03-.45,3.05,0,2.94.68,4.97,1.92,6.21,1.24,1.24,3.39,1.81,6.22,1.92.79,0,1.69,0,2.49-.11.57-.11,1.13-.11,1.69-.34.45-.11.79-.23,1.13-.45.23-.11.45-.34.68-.45l.45-.45c.11-.23.23-.34.23-.34v-16.71c0-.56-.11-1.13-.23-1.69,0-.45-.23-.68-.68-.79h0ZM103.28,54.37c-.11,0-.34.11-.45.11s-.45.11-.9.11-.79.11-1.24,0c-.45,0-.9-.11-1.24-.22-.47-.11-.9-.35-1.24-.68-.34-.34-.68-.79-.79-1.24-.22-.58-.34-1.19-.34-1.81,0-.68.11-1.35.23-1.92.11-.45.45-.9.68-1.24.34-.34.68-.56,1.02-.79.34-.23.79-.34,1.24-.34h1.24c.34,0,.68.11,1.13.11.23,0,.57.11.79.22v3.95c-.11,2.48-.11,3.73-.11,3.73ZM127.46,48.73c0-.34-.11-.79-.23-1.13-.11-.34-.23-.79-.45-1.13-.11-.45-.34-.79-.68-1.13l-1.02-1.02c-.45-.34-.9-.68-1.36-.79-.57-.23-1.24-.45-1.81-.56-.79-.11-1.58-.23-2.37-.23-1.13,0-2.15.11-3.28.45-.79.22-1.58.56-2.26,1.02-.57.45-1.02.9-1.36,1.58-.33.53-.6,1.1-.79,1.69-.11.45-.23,1.02-.34,1.58-.11.34-.11.68-.11,1.13v.45c0,.79.11,1.35.23,1.92l.34,1.69c.11.56.34,1.02.68,1.47.34.45.68.79,1.02,1.13.45.34.9.68,1.47.9.68.23,1.36.45,2.03.57.9.11,1.81.23,2.82.23.9,0,1.81-.11,2.71-.34.68-.23,1.36-.45,1.92-.79.45-.34.9-.79,1.24-1.24.34-.45.57-.9.79-1.36.23-.45.34-.9.34-1.35.11-.56.11-.9.11-1.13v-2.26c0-.23.34-.9.34-1.35h0ZM123.4,50.76v.9c0,.34-.11.56-.23.79-.12.34-.31.65-.57.9-.34.34-.68.56-1.02.68-.54.22-1.11.34-1.69.34-.68,0-1.36-.11-2.03-.23-.45-.11-.9-.45-1.24-.79-.23-.34-.45-.68-.57-1.13-.11-.56-.23-1.02-.23-1.58v-1.13c0-.34.11-.68.23-1.02.11-.34.34-.79.57-1.02.34-.34.68-.56,1.13-.68.57-.23,1.24-.34,1.92-.34.34,0,.79,0,1.13.11.34.11.57.11.9.34.23.11.45.22.68.45.23.11.34.34.45.56l.34.68c.11.23.11.45.23.68,0,.23.11.45.11.68v.56l-.11.23ZM141.81,42.74h-4.97c-.68,0-1.36.11-2.03.23-.57.11-1.02.34-1.47.68-.38.26-.7.61-.9,1.02-.23.34-.45.68-.57,1.02s-.23.68-.23,1.02-.11.56-.11.79v7.91c0,.57.11,1.13.45,1.58.23.34.57.57,1.02.68.34.11.9.23,1.36.34.45.11.9.34,1.36.56v-8.92c0-.56,0-1.13.11-1.69.11-.34.34-.68.68-.9.34-.23.79-.34,1.13-.45.57-.11,1.24-.11,1.81-.11.45,0,.9-.11,1.36-.34.34-.22.57-.56.68-.9.11-.34.23-.68.23-1.02v-1.02c.11-.11.11-.34.11-.45h0ZM152.21,42.63c-.79,0-1.7,0-2.49.11-.57.11-1.13.11-1.7.34-.45.11-.79.23-1.13.45-.23.11-.45.34-.68.45l-.45.45c-.11.23-.23.34-.23.34v16.49c0,.9.11,1.58.45,1.92.23.34.57.57,1.02.57.34,0,.9,0,1.36.11.45,0,.9.22,1.36.45v-6.55c1.02.34,2.1.46,3.16.34.9,0,1.81-.11,2.71-.34.9-.22,1.7-.68,2.37-1.24.79-.56,1.47-1.47,1.81-2.37.45-1.15.68-2.38.68-3.61,0-2.94-.68-4.97-1.92-6.21-1.36-1.02-3.39-1.69-6.33-1.69h0ZM155.6,52.57c-.21.54-.56,1.01-1.02,1.35-.45.23-.79.45-1.24.68-.45.11-1.02.23-1.47.11-.57,0-.9-.11-1.36-.11-.34,0-.68-.11-1.02-.22v-7.68c.23,0,.34-.11.45-.11s.45,0,.9-.11c.45-.11.9-.11,1.24,0,.45,0,.9.11,1.24.22.45.11.9.34,1.24.68.34.34.68.79.79,1.24.23.56.34,1.24.34,1.81.23.79.11,1.47-.11,2.15ZM178.31,46.02c-.23-.56-.45-1.13-.79-1.58-.45-.56-1.02-.9-1.58-1.24-.9-.34-1.81-.56-2.71-.56-2.15,0-3.73.23-4.63.56v-3.73c0-.9-.11-1.58-.45-1.92-.23-.34-.57-.56-1.02-.56-.34,0-.9,0-1.36-.11-.45,0-.9-.23-1.36-.45v21.8c1.36.11,2.49,0,3.16-.45.79-.34,1.13-1.13,1.02-2.15v-8.58c.9-.34,1.81-.45,2.82-.45,1.47,0,2.37.34,2.6,1.02.23.56.45,2.26.34,5.08v3.05c0,2.14,1.36,2.94,4.29,2.6v-10.95l-.34-1.36ZM184.98,37.32c-.57,0-1.13.23-1.58.68-.43.42-.67.98-.68,1.58,0,.56.23,1.13.68,1.58.42.43.99.67,1.58.68.6,0,1.17-.25,1.58-.68.43-.42.67-.98.68-1.58,0-.56-.23-1.13-.68-1.58-.42-.43-.99-.67-1.58-.68ZM187.01,45.45c0-.9-.11-1.58-.45-1.92-.23-.34-.57-.56-1.02-.56-.34,0-.9,0-1.36-.11-.45,0-.9-.11-1.36-.45v15.81c1.36.11,2.49,0,3.16-.45.79-.34,1.13-1.02,1.02-2.15v-10.17h0ZM197.18,42.63c-3.96.11-5.88.79-5.88,1.92v13.66h1.7c.47,0,.94-.12,1.36-.34.45-.11.79-.45.9-.79.23-.45.34-.9.23-1.47v-7.68c0-.34,0-.79-.11-1.13l2.03-.34c2.26-.23,3.62.22,3.84,1.58v7.45c0,.45.11,1.02.23,1.47.23.34.57.68.9.79.45.23.9.23,1.36.34h1.7v-10.17c.11-3.61-2.71-5.42-8.25-5.31h0ZM223.51,47.14c-.23-1.13-.79-2.03-1.58-2.82-.34-.34-.79-.56-1.24-.79-.45-.23-.9-.34-1.36-.45-.45-.11-1.02-.23-1.58-.23l-1.58-.11h-2.37c-.45,0-1.02.11-1.47.23-.34.12-.65.31-.9.56-.23.23-.45.45-.57.79-.11.23-.23.57-.23.79s-.11.56-.11.79v.79c1.02-.34,2.03-.56,3.05-.56,1.36-.11,2.6-.11,3.96.11,1.24.23,1.81.68,1.81,1.24,0,.45-.34.79-.9,1.02-.57.23-1.7.34-3.39.34-.79,0-1.58.11-2.37.22-.68.11-1.24.45-1.81.79-.57.45-1.02,1.02-1.24,1.58-.23.79-.45,1.69-.34,2.6,0,.56.11,1.02.23,1.58.11.45.34.79.57,1.13s.57.57.9.79c.57.34,1.13.57,1.81.68.34,0,.57.11.68.11h4.97c.34,0,.68-.11,1.02-.11.34-.11.79-.23,1.13-.34.34-.22.79-.34,1.02-.68.34-.34.68-.68.9-1.02.34-.45.45-1.02.68-1.58.23-.68.23-1.36.23-2.03v-3.28c.34-.68.34-1.47.11-2.15h0ZM219.67,52.45c0,.34,0,.68-.11,1.02,0,.23-.11.45-.23.68-.11.11-.34.23-.45.34-.23.11-.45.22-.79.22h-1.13c-1.24,0-2.03-.11-2.49-.34-.34-.23-.68-.68-.57-1.13,0-.45.23-.68.9-.9.68-.23,1.47-.34,2.26-.34.57,0,1.02-.11,1.58-.34.34-.12.65-.31.9-.56l.34-.34c-.23.79-.23,1.36-.23,1.7Z"/>
    </g>
  </g>
</svg>