<?xml version="1.0" encoding="UTF-8"?>
<svg id="Layer_2" data-name="Layer 2" xmlns="http://www.w3.org/2000/svg" viewBox="0 0 201.99 54.89">
  <defs>
    <style>
      .cls-1 {
        fill: #fff;
        stroke-width: 0px;
      }
    </style>
  </defs>
  <g id="Layer_1-2" data-name="Layer 1">
    <path class="cls-1" d="M1.05,33.19c2.14,5.43,5.92,9.83,10.2,13.71,3.06,2.76,6.43,5.12,10.3,6.55,5.92,2.15,11.83,1.84,17.54-.72,4.08-1.74,7.24-4.61,9.89-8.09,2.55-3.48,4.08-7.37,5.1-11.46.82-3.38.92-6.86.31-10.24-1.02-5.22-3.26-9.72-6.53-13.82C43.38,3.61,37.88-.18,29.51.03c-3.47-.2-7.65.82-11.53,2.56-3.37,1.53-6.53,3.68-9.59,5.83-2.75,1.94-4.9,4.61-6.32,7.68C.54,19.47-.17,23.26.03,27.15c.1,2.05.31,4.2,1.02,6.04h0ZM12.78,46.29c-.31-.1-.71-.2-.92-.41-1.02-.72-1.86-1.66-2.45-2.76-.2-.31-.31-.51-.31-.82-.1-.92.82-1.33,1.53-.92,1.33.72,2.45,1.64,3.06,2.97.2.31.31.72.31,1.02,0,.82-.61,1.02-1.22.92ZM17.27,37.49c-.41-.1-.92-.31-1.22-.51-1.12-.92-2.04-2.05-2.55-3.28-.1-.31-.2-.51-.2-.82s.1-.61.31-.72c1.73-1.13,4.39,2.35,5,3.58.2.31.2.72.2,1.02-.1.72-.82.92-1.53.72ZM16.76,17.53c1.12-1.33,2.75-1.94,4.49-1.84.82.1,1.43.72,1.02,1.53l-.61.92c-.68.7-1.52,1.22-2.45,1.54-.51.2-.92.31-1.43.31-1.53-.1-1.94-1.33-1.02-2.46ZM23.6,50.38c-.1-.1-.2-.1-.31-.2-.92-.71-1.74-1.54-2.45-2.46-.31-.41-.61-.82-.71-1.33-.2-1.84,1.94-.82,2.65-.31.82.61,1.84,1.54,2.24,2.56.1.31.2.51.31.82.1.41-.31.92-.61,1.02-.51.31-.82.2-1.12-.1ZM48.28,30.22c.71-.82,1.63-1.33,2.65-.92,1.94.72,1.53,3.38.71,4.81-.92,1.54-3.06,2.15-4.08.41-.41-.72-.41-1.64-.2-2.46.09-.7.42-1.35.92-1.84ZM43.38,15.99c.92-1.02,2.75-1.33,3.57.1.31.51.41,1.13.41,1.74,0,1.02-.1,2.05-.61,2.87-.71,1.33-2.86,2.25-3.98.72-.51-.72-.61-1.53-.61-2.35.1-1.13.51-2.35,1.22-3.07ZM39.3,32.37v-.31c.1-1.94,1.02-4.81,3.47-4.3,1.33.31,2.04,1.64,2.04,2.97-.1.82-.31,1.64-.71,2.35-.2.51-.51.92-.92,1.23-1.02.82-2.96.41-3.57-.72-.2-.31-.31-.72-.31-1.23ZM37.77,41.27c.51-.61,1.33-.92,2.14-1.02,1.33,0,1.84,1.43,1.84,2.46.1,1.02-.2,2.15-.82,2.97-1.12,1.43-3.37,1.84-4.08-.1-.41-1.43-.1-3.17.92-4.3ZM35.73,28.38c.1.41.1.82.1,1.23-.1.92-.31,1.94-.82,2.66-1.12,1.43-3.26,1.43-4.08-.31-.92-1.84-.1-4.91,2.14-5.53,1.43-.21,2.35.82,2.65,1.94ZM27.88,7.6c.2-.31.51-.72.92-.92,1.02-.82,2.24-1.23,3.57-1.33.92,0,2.24.51,1.43,1.64-1.02,1.32-2.46,2.26-4.08,2.66-.71.21-1.94.21-2.14-.72-.1-.62,0-1.02.31-1.33ZM26.55,10.06h.41c2.24.31.41,2.87-.51,3.58-.82.61-1.84.92-2.86,1.02-1.73.1-1.94-1.23-.92-2.46.92-.92,2.35-2.05,3.88-2.15ZM16.76,5.55c.71-1.23,2.65-1.94,3.88-2.05,1.22-.1,1.73.92.92,1.84-.95,1.16-2.37,1.84-3.88,1.84-.2,0-.51,0-.71-.1-.41-.21-.51-.92-.2-1.53ZM11.25,10.57l.1-.1c.92-1.02,2.14-1.74,3.47-1.94.82-.1,2.24-.31,1.94.92-.1.41-.51.72-.82,1.02-.92.72-1.94,1.43-3.06,1.64-1.12.21-2.35-.51-1.63-1.53ZM5.54,15.28c.1-.2.31-.41.61-.61.71-.61,5.81-2.66,5-.31-.2.51-.71.92-1.12,1.23-.9.6-1.9,1.02-2.96,1.23-1.12.31-2.14.1-1.63-1.23,0-.1,0-.2.1-.31ZM2.79,28.69c.31-.31.92-.31,1.53.1,1.02.72,1.84,1.74,2.55,2.76.31.31.41.82.51,1.23,0,1.54-1.53.82-2.24.2-.87-.66-1.63-1.45-2.24-2.35-.61-.82-.51-1.53-.1-1.94ZM83.67,54.68c6.32.1,11.12-2.56,14.89-7.27,3.67-4.61,6.02-9.93,6.83-15.86.51-3.79-.1-7.37-1.84-10.64-3.06-5.83-8.16-9.01-14.89-9.11-6.22-.1-12.44,0-18.67,0-.71,0-1.02.21-1.12.92-.31,1.74-.61,3.48-1.02,5.12l-3.67,17.81c-.82,3.79-1.63,7.47-2.35,11.26-.51,2.56-1.02,5.12-1.53,7.88h1.53c7.34-.1,14.59-.21,21.83-.1h0ZM83.27,22.44c2.45-.21,4.69-.21,6.02,2.15.41.82.71,1.64.92,2.56.71,5.02-.31,9.72-3.16,14.02-1.84,2.76-4.9,3.79-8.16,2.66,0,0,4.39-21.39,4.39-21.39ZM171.29,11.8c-.41,0-.82.41-1.02.82-1.43,2.46-2.65,5.01-4.08,7.47-.82,1.54-1.73,3.07-2.55,4.61l-.31-.1-.61-12.79h-17.95c.2,1.13.41,2.15.61,3.17.82,5.22,1.63,10.44,2.45,15.56,1.22,7.68,2.45,15.45,3.57,23.13.1.72.31,1.02,1.12,1.02h9.08c.41,0,.82-.31,1.12-.61,1.73-2.66,3.26-5.32,5-7.98,3.7-5.89,7.44-11.76,11.22-17.6,2.24-3.48,4.39-7.06,6.53-10.54,1.22-2.05,2.45-3.99,3.77-6.24-6.22,0-12.04,0-17.95.1ZM140.69,53.97l.61-2.76,1.94-9.31h-16.32l6.22-29.89c-.2-.1-.31-.1-.51-.21h-15.91c-.31,0-.71.41-.82.72-.31.92-.41,1.94-.61,2.97-1.12,5.12-2.14,10.13-3.26,15.25-1.22,5.73-2.35,11.36-3.57,17.09-.51,2.25-.92,4.61-1.33,6.96.2,0,.31.1.51.1h32.13c.31-.21.82-.61.92-.92h0ZM192,5.45h-1.53v-1.12h4.49v1.13h-1.63v4.71h-1.33v-4.71ZM200.57,7.91c0-.72-.1-1.53-.1-2.35-.2.72-.41,1.53-.61,2.25l-.71,2.25h-1.02l-.61-2.25c-.2-.72-.41-1.54-.51-2.25,0,.82-.1,1.64-.1,2.46l-.1,2.25h-1.22l.41-5.83h1.73l.61,1.94c.2.72.41,1.43.51,2.05.2-.72.41-1.43.51-2.05l.61-1.94h1.73l.31,5.83h-1.33l-.1-2.35h0Z"/>
  </g>
</svg>