<?xml version="1.0" encoding="UTF-8"?>
<svg id="Layer_2" data-name="Layer 2" xmlns="http://www.w3.org/2000/svg" viewBox="0 0 170.56 70.07">
  <defs>
    <style>
      .cls-1 {
        fill: #fff;
        fill-rule: evenodd;
        stroke-width: 0px;
      }
    </style>
  </defs>
  <g id="Layer_1-2" data-name="Layer 1">
    <g>
      <path class="cls-1" d="M.24,44.49v-3.54h9.3v4.12c0,3.77,1.45,5.66,4.35,5.66h.04c2.87,0,4.31-1.88,4.31-5.64,0-2.15-.62-4.16-1.86-6.04-1.24-1.88-2.72-3.6-4.45-5.16l-4.66-4.83c-1.93-1.69-3.54-3.78-4.83-6.28-1.3-2.5-1.95-5.26-1.95-8.3C.49,9.82,1.71,6.24,4.16,3.74,6.61,1.25,9.94,0,14.14,0s7.43,1.25,9.69,3.74c2.25,2.49,3.38,6.07,3.38,10.74v1.85h-8.57v-2.41c0-3.78-1.51-5.67-4.55-5.67s-4.55,1.89-4.55,5.68c0,1.58.33,3.09.99,4.53.66,1.44,1.51,2.73,2.57,3.89,1.05,1.15,2.21,2.29,3.48,3.42,1.27,1.13,2.52,2.31,3.75,3.54,1.23,1.23,2.37,2.56,3.42,3.97,1.05,1.41,1.9,3.07,2.55,4.99.66,1.92.99,4.01.99,6.26,0,4.66-1.15,8.23-3.46,10.71-2.31,2.49-5.56,3.73-9.77,3.73s-7.56-1.25-10.06-3.74c-2.5-2.49-3.75-6.08-3.75-10.74Z"/>
      <path class="cls-1" d="M41.49,28.44h4.31c1.47,0,2.58-.42,3.32-1.25.74-.83,1.11-2.24,1.11-4.22v-8.65c0-1.99-.37-3.39-1.11-4.2-.74-.82-1.85-1.23-3.32-1.23h-4.31v19.55ZM32.44,58.32V.64h13.34c9,0,13.5,4.77,13.5,14.29v7.49c0,9.5-4.5,14.26-13.49,14.26h-4.3v21.64h-9.06Z"/>
      <path class="cls-1" d="M72.56,26.63h3.54c1.83,0,3.19-.47,4.09-1.41.9-.94,1.35-2.51,1.35-4.71v-5.67c.03-3.97-1.5-5.95-4.59-5.95h-4.39v17.74ZM63.51,58.32V.64h13.66c4.66,0,8.06,1.09,10.21,3.26,2.14,2.17,3.22,5.51,3.22,10.02v4.55c0,5.93-1.98,9.83-5.93,11.71,4.01,1.69,6.01,5.78,6.01,12.28v9.24c0,2.94.32,5.15.97,6.62h-9.18c-.53-1.63-.81-3.99-.84-7.07v-9.03c0-2.62-.46-4.5-1.39-5.64-.93-1.14-2.44-1.71-4.53-1.71h-3.14v23.45h-9.06Z"/>
      <path class="cls-1" d="M96.63,58.32h9.06V.64h-9.06v57.68Z"/>
      <path class="cls-1" d="M121.34,50.08h5.19c1.58,0,2.76-.42,3.54-1.27s1.17-2.31,1.17-4.4v-5.03c0-2.63-.45-4.45-1.35-5.47-.9-1.02-2.39-1.53-4.49-1.53h-4.06v17.7ZM121.34,24.13h3.56c1.83,0,3.2-.47,4.1-1.41.9-.94,1.36-2.49,1.36-4.67v-3.22c.03-3.97-1.51-5.95-4.61-5.95h-4.41v15.24ZM112.28,58.33V.64h13.68c4.67,0,8.08,1.09,10.22,3.26,2.15,2.17,3.22,5.51,3.22,10.02v2.05c0,5.93-1.96,9.8-5.88,11.62,4.51,1.77,6.76,5.89,6.76,12.35v4.71c0,4.45-1.16,7.84-3.5,10.18-2.34,2.33-5.76,3.5-10.26,3.5h-14.25Z"/>
      <path class="cls-1" d="M145.72,58.32V.64h24.71v8.25h-15.65v16.05h12.43v8.24h-12.43v16.89h15.65v8.25h-24.71Z"/>
      <path class="cls-1" d="M0,70.07h170.56v-8.01H0v8.01Z"/>
    </g>
  </g>
</svg>