<?xml version="1.0" encoding="UTF-8"?>
<svg id="Layer_2" data-name="Layer 2" xmlns="http://www.w3.org/2000/svg" viewBox="0 0 223.74 38.79">
  <defs>
    <style>
      .cls-1 {
        fill: #fff;
        stroke-width: 0px;
      }
    </style>
  </defs>
  <g id="Layer_1-2" data-name="Layer 1">
    <path class="cls-1" d="M37.18,17.53c-.9-2.49-2.83-3.73-5.76-3.73H11.41v-2.49c.23,0,.45-.11.68-.11h16.27c1.47.11,3.05.34,4.41.79,1.47.45,2.94,1.24,4.52,1.92-.9-2.94-2.71-5.2-4.75-7.24C28.36,2.49,23.5,0,17.4,0H.11c0,.45-.11.68-.11.9v18.66c0,.57.11,1.24.34,1.81,1.02,2.49,3.05,3.5,5.65,3.5h20.11v2.6h-14.35c-4.07.11-8.02-.34-11.53-2.83,0,.23-.11.23-.11.34.11.23.11.57.23.79,1.13,2.83,3.05,5.09,5.31,7.12,3.96,3.73,8.59,5.88,14.13,5.88h16.27c1.02,0,1.36-.23,1.36-1.24v-17.98c0-.79-.11-1.47-.23-2.03h0ZM64.97,22.62c-1.58-1.24-3.39-1.58-5.31-2.04-2.15-.45-4.29-.9-6.33-1.58-1.69-.68-1.69-3.05-.23-4.07,1.69-1.24,3.73-1.36,5.65-1.24,2.49.11,5.09,1.13,5.42,4.3,0,.34.79.68,1.24.68.23,0,.79-.56.79-.9,0-1.7-.79-3.39-2.15-4.41-1.81-1.47-3.84-1.7-5.54-1.81-2.37-.11-5.42.57-7.01,2.04-2.03,1.7-2.03,5.43.23,6.9,1.02.68,2.03,1.13,3.16,1.36,1.81.45,3.62.79,5.42,1.13.79.23,1.58.45,2.26.79,1.24.45,1.92,1.36,1.92,2.71s-1.02,2.15-2.03,2.6c-2.83,1.25-5.76,1.02-8.59,0-1.36-.45-2.26-1.58-2.37-3.17,0-.45,0-1.02-.23-1.36-.23-.34-.79-.45-1.24-.45-.23,0-.68.45-.68.68-.34,2.15,1.13,4.97,3.16,5.88,3.84,1.7,7.68,1.81,11.53-.11,3.05-1.47,3.5-5.65.9-7.92h0ZM74.13,18.66c.23-1.24-.34-1.47-1.24-1.36-1.13.11-.79.9-.79,1.58v16.4c0,.68.11,1.13,1.02,1.13s1.13-.34,1.13-1.24v-4.75c5.2,3.28,9.38,1.47,11.19-1.24,1.92-2.94,2.03-7.58-.79-10.52-2.15-2.04-6.21-3.28-10.51,0h0ZM83.39,28.27c-1.47,1.92-3.5,2.04-5.65,1.47-2.03-.45-3.05-1.81-3.39-3.84-.11-.45-.11-1.02-.11-1.47l-.34-.11c.45-1.36.68-2.83,1.47-3.84,2.26-2.83,7.23-2.15,8.59,1.24,1.02,2.26,1.02,4.52-.57,6.56ZM174.92,17.64c-4.41-2.6-10.74-.23-11.3,5.43-.23,2.26-.11,4.52,1.36,6.44,2.15,2.83,6.1,3.17,8.81,2.15,1.7-.68,3.16-1.7,3.84-3.73-.9-.23-1.81-.45-2.49.23-1.7,1.92-3.96,2.04-6.21,1.47-2.15-.57-3.28-2.15-3.28-4.52h11.53c.79,0,1.36-.23,1.24-1.13,0-2.6-1.13-4.86-3.5-6.33h0ZM165.88,22.96c.11-2.26,1.92-3.96,4.63-4.07,3.05-.23,5.09,1.24,5.76,4.07h-10.4ZM214.7,16.62c-.79,0-1.13.34-1.13,1.13,0,.34,0,.57-.11.91-4.18-3.39-8.81-2.15-11.19.79-2.03,2.71-2.26,7.92.79,10.74,2.26,2.04,6.89,2.71,10.28-.11,0,.23.11.45.11.68,0,.9.45,1.02,1.24,1.02s.9-.45.9-1.13v-12.89c.11-.68-.11-1.13-.9-1.13ZM211.99,28.38c-1.81,1.81-3.84,1.81-5.99,1.13-2.03-.68-2.82-2.26-2.94-4.3v-1.02c0-.57.11-1.02.23-1.58.57-2.6,2.6-3.96,5.42-3.84,2.6.11,4.41,1.81,4.75,4.41.11,1.81.11,3.73-1.47,5.2ZM124.98,16.62c-4.07,0-7.68,2.71-7.57,7.69,0,4.75,2.82,7.69,7.57,7.69s7.68-3.05,7.68-7.69-3.28-7.69-7.68-7.69ZM124.98,29.85c-3.62,0-5.42-1.92-5.42-5.54s2.03-5.54,5.54-5.54c3.28,0,5.54,2.26,5.54,5.54-.11,3.39-2.26,5.54-5.65,5.54ZM196.05,21.71c0-2.15-1.24-3.62-3.16-4.41-2.71-1.13-5.2-.57-7.8,1.24.23-1.02-.23-1.47-1.13-1.36-1.02.11-1.02.79-1.02,1.47v11.99c0,.79.23,1.36,1.24,1.36s.9-.57.9-1.24v-6.78c.11-3.39,2.26-5.31,5.65-4.86,2.37.34,3.16,1.13,3.16,3.62v8.26c0,.79.23,1.13,1.02,1.13s1.13-.34,1.13-1.13v-9.27h0ZM158.76,21.71c0-1.92-.79-3.51-2.6-4.3-2.71-1.36-5.2-.9-7.68,1.47l-.23-.23c-1.02-.9-1.92-1.58-3.28-1.81-2.03-.45-4.07.34-5.65,1.58.23-1.02-.23-1.47-1.02-1.36-.9.11-.9.79-.9,1.47v11.99c0,.79.23,1.36,1.13,1.36s.9-.57.9-1.24v-6.79c0-1.36.34-2.83,1.36-3.84,1.13-1.13,2.82-1.36,4.29-1.02,1.7.45,2.15,1.81,2.15,3.39v8.37c0,.79.34,1.24,1.02,1.13h.11c.79,0,1.02-.34,1.02-1.13v-8.26c.11-2.26,1.81-3.73,4.18-3.62,2.26.11,3.28,1.24,3.28,3.73v8.14c0,.68.11,1.13.9,1.13.9,0,1.13-.34,1.13-1.13-.11-3.05-.11-5.99-.11-9.05h0ZM106.33,16.74c-1.58.11-2.94.68-4.63,2.03.11-1.13-.34-1.7-1.24-1.58-1.02.11-.79.9-.79,1.47v11.65c0,.68-.23,1.47,1.02,1.58s1.02-.79,1.02-1.47v-6.45c0-3.39,2.26-5.43,5.65-4.97,2.26.23,3.16,1.24,3.16,3.62v8.14c0,.68.11,1.24,1.02,1.24s1.02-.57,1.02-1.24c0-2.6-.11-5.2,0-7.92.11-4.18-2.94-6.33-6.22-6.11h0ZM222.61,11.76c-1.02,0-1.02.56-1.02,1.36v17.3c0,.68,0,1.36,1.02,1.36s1.13-.45,1.13-1.36V13c0-.79-.23-1.24-1.13-1.24ZM93.79,24.43v-6.22c0-.68-.11-1.36-1.02-1.24-.9,0-1.13.45-1.13,1.24v12.55c0,.79.23,1.24,1.13,1.24s1.02-.45,1.02-1.13v-6.45ZM92.66,11.19c-.34,0-.79.45-1.02.9-.11.34,0,.79,0,1.24,0,.34-.11.79,0,1.13.23.45.68.9,1.02,1.02.34,0,1.02-.45,1.13-.68.11-.94.11-1.89,0-2.83-.11-.45-.79-.79-1.13-.79Z"/>
  </g>
</svg>