<?xml version="1.0" encoding="UTF-8"?>
<svg id="Layer_2" data-name="Layer 2" xmlns="http://www.w3.org/2000/svg" viewBox="0 0 129.03 118.05">
  <defs>
    <style>
      .cls-1 {
        fill: #fff;
        stroke-width: 0px;
      }
    </style>
  </defs>
  <g id="Layer_1-2" data-name="Layer 1">
    <g>
      <path class="cls-1" d="M64.8.05c.54.8,1.04,1.66,1.63,2.41l17.42,21.66c.54.67,1.07,1.35,1.58,2.04.91,1.17,1.19,1.17,1.79-.16.6-1.32,1.19-2.66,1.61-4.04.78-2.61.03-4.92-1.71-6.93-.23-.26-.49-.52-.62-.8-.1-.23-.08-.65.08-.83.16-.16.57-.21.8-.1,5.42,2.2,7.18,5.87,4.92,11.33-1.84,4.5-4.98,8.13-8.4,11.49-2.05,2.02-4.28,3.88-6.4,5.82-.75.7-1.32.57-1.92-.21-3.39-4.29-6.84-8.54-10.24-12.83-.65-.8-1.17-.83-1.84,0-4.04,5.1-8.17,10.14-12.18,15.24-2.67,3.39-2.75,7.43-.26,10.43.36.41.83.75,1.24,1.11.75.67.73,1.11-.21,1.47-6.43,2.56-13.09,4.27-19.93,5.36-3.47.57-6.76.31-10.06-.78-3.08-1.03-4.51-3.57-3.86-6.78.13-.6.08-1.22.29-1.78.13-.31.6-.49.93-.75.18.34.57.67.52.98-.52,3.75,2.85,5.15,5.34,5.56.7.13,1.09-.21,1.01-.96-.86-6.86,1.56-12.63,5.81-17.88,7.05-8.69,14.05-17.44,21.07-26.19,3.53-4.4,7.05-8.82,10.55-13.25.16-.18.16-.47.26-.7.26.05.52.05.78.05ZM0,101.23c.18-.18.44-.34.49-.54.7-2.12,2.41-2.9,4.41-2.95,1.53-.05,3.08.23,4.59.47,1.14.18,1.56.83.91,1.94-.1.19-.18.39-.23.6-.26,1.19-1.01,1.19-1.97.85-.72-.26-1.48-.49-2.23-.52-.39-.03-.8.46-1.19.7.23.39.39.88.73,1.11.8.49,1.71.8,2.54,1.24,2.36,1.27,3.32,3.13,2.83,5.36-.44,2.02-2.69,3.83-5.16,3.75-1.89-.05-3.78-.57-5.68-.88v-3.62c.57.08,1.17.15,1.74.26,1.14.21,2.26.52,3.42.6.42.03.85-.47,1.27-.7-.26-.39-.47-.85-.83-1.16-.39-.31-.93-.44-1.35-.72-1.12-.78-2.26-1.53-3.29-2.41-.47-.36-.67-1.04-.99-1.55v-1.81h0Z"/>
      <path class="cls-1" d="M59.3,70.1c-1.04.7-1.89,1.29-2.77,1.86-7.98,5.07-18.48,3.78-24.99-3.08-.57-.6-1.17-1.16-1.63-1.81-.47-.62-.39-1.14.54-1.22,7.49-.57,14.7-2.51,21.69-5.12,2.77-1.03,5.42-2.41,8.14-3.62.29-.13.52-.34.8-.41.31-.08.65-.08.96-.1,0,.31.13.7-.03.93-1.11,1.84-2.25,3.62-3.4,5.43-.21.34-.36.7-.57,1.04.36.08.73.21,1.06.21,3.58.03,7.15.03,10.76.03.29,0,.57-.05,1.14-.1-.29-.44-.42-.8-.65-1.01-1.94-1.76-2.82-4.17-3.91-6.44-.1-.21-.03-.65.13-.8.13-.13.54-.08.8.03,1.04.41,2,1.01,3.06,1.32,4.64,1.32,9.67-3,9.07-7.79-.13-1.01-.6-1.97-.72-2.97-.08-.54.05-1.37.41-1.68,4.02-3.34,7.83-6.88,10.96-11.1.49-.65,1.09-.54,1.53,0,3.84,4.81,8.01,9.42,9.95,15.42,1.09,3.36,1.43,6.81.7,10.33-1.11,5.23-3.73,9.5-8.19,12.53-3.52,2.38-7.46,3.23-11.66,3.08-4.51-.16-8.5-1.68-12.05-4.4-.18-.15-.42-.26-.91-.23.31.91.52,1.86.93,2.74,1.43,3.03,2.77,6.08,4.38,9,1.81,3.29,4.17,6.21,7.1,8.64.23.21.26.65.39.98-.31.1-.6.28-.91.28-7.54,0-15.11-.05-22.65-.08-3.76,0-7.52.05-11.28.05-.31,0-.6-.21-.91-.31.15-.34.21-.75.44-.98,4.15-3.6,7.15-8,9.36-12.97.99-2.22,1.97-4.45,2.93-6.7.05-.21-.03-.47-.03-.96ZM82.63,112.44c0,1.55-.02,2.92,0,4.29.03.96-.39,1.27-1.3,1.29-3.06.08-3.06.1-3.06-2.95,0-4.09-.03-8.18.03-12.27,0-.54.39-1.55.65-1.55.91-.08,1.92.05,2.75.41.47.21.67.83,1.35.39,2.82-1.81,5.49-.93,6.32,2.3.57,2.15.62,4.43-.44,6.55-1.19,2.38-3.21,3.05-5.55,1.79-.15-.13-.36-.15-.75-.26h0ZM85.4,107.13h-.08c0-.34.13-.78-.03-1.01-.36-.54-.83-1.35-1.35-1.42-.88-.15-1.35.6-1.35,1.5,0,.7-.16,1.42.05,2.04.21.57.78,1.01,1.22,1.47.44-.39,1.01-.72,1.32-1.22.26-.34.16-.9.21-1.37h0ZM31,112.41c0,1.4-.05,2.67.03,3.93.08,1.19-.31,1.71-1.61,1.68-2.77-.05-2.77,0-2.75-2.74.03-4.09,0-8.18,0-12.29,0-.7-.26-1.66.73-1.81.96-.15,2.05-.57,2.85.57.18.26.96.41,1.19.26,2.57-1.68,4.77-1.24,5.99,1.55,1.04,2.38,1.09,4.97-.13,7.35-1.29,2.54-3.16,3-5.68,1.66-.1-.08-.23-.08-.62-.15h0ZM33.8,107.16c.03-1.58-.47-2.51-1.35-2.56-.96-.03-1.45.88-1.45,2.59,0,1.45.62,2.54,1.43,2.54s1.35-1.06,1.37-2.56ZM111.4,102.06c-.05-1.37-.08-2.54-.16-3.68-.08-.98.34-1.45,1.32-1.45,3.55,0,3.03-.03,3.03,2.85-.03,3.67.03,7.32-.03,11,0,.65-.21,1.79-.52,1.86-.85.21-1.84,0-2.75-.13-.29-.05-.52-.41-.83-.65-.34.23-.67.41-.99.62-1.84,1.19-3.65.91-5.03-.8-1.71-2.15-1.79-6.73-.13-8.9,1.45-1.89,2.95-2.22,5.05-1.11.23.15.54.21,1.01.39h0ZM111.71,106.93c0-.1.1-.54-.05-.78-.41-.57-.88-1.32-1.48-1.53-.86-.29-1.4.39-1.61,1.24-.08.34-.21.65-.26.98-.18,1.4.65,2.85,1.68,2.95.99.1,1.71-1.01,1.71-2.87ZM70.53,113.42c-1.11-.15-1.84-.18-2.54-.36-2.33-.67-2.49-.93-2.33-3.36.05-.98.49-1.17,1.37-.88.99.31,1.97.7,2.98.78.62.05,1.3-.41,1.94-.65-.39-.49-.7-1.11-1.19-1.45-.7-.49-1.56-.75-2.31-1.14-1.87-1.01-2.88-2.9-2.59-4.79.31-2.02,1.66-3.54,3.89-3.73,1.84-.15,3.76.21,5.6.47.93.13,1.17.78.73,1.66-.13.26-.29.54-.34.83-.23,1.11-.91,1.19-1.84.88-.78-.26-1.56-.52-2.36-.6-.36-.03-.78.39-1.17.6.23.41.36.98.73,1.22,1.06.65,2.23,1.14,3.29,1.76,1.66.98,2.39,2.51,2.1,4.37-.26,1.76-1.22,3.13-3.03,3.67-1.09.31-2.18.54-2.93.72h0ZM47.46,108.37c-.73,0-1.48-.03-2.2.03-.34.03-.67.23-1.01.36.28.36.52.98.83,1.01,1.19.1,2.38.03,3.58.03.57,0,1.35-.15,1.68.15.52.47.05,2.33-.52,2.67-2.28,1.27-7.67,1.32-9.51-1.97-1.14-2.04-1.04-5.77.54-7.84,1.22-1.6,4.38-2.3,6.66-1.6,3.32,1.04,3.81,3.42,3.55,6.26-.03.34-.62.78-1.01.85-.83.13-1.71.05-2.59.05,0-.03,0,0,0,0ZM44.17,104.98l.16.39c.44.05.91.21,1.32.1.41-.08.78-.39,1.17-.62-.49-.26-.96-.7-1.45-.72-.39,0-.8.54-1.19.85ZM20.68,112.05c-1.4.49-2.46,1.09-3.55,1.19-2.49.23-4.28-1.35-4.38-3.83-.1-2.36-.05-4.74-.05-7.12,0-.8.42-1.19,1.19-1.22.47-.03.96-.03,1.42,0,1.58.03,1.76.31,1.68,1.84-.08,1.68-.03,3.36-.03,5.05,0,.91.36,1.86,1.32,1.68.62-.13,1.45-1.04,1.56-1.71.23-1.55.05-3.18.16-4.76.05-.67.26-1.81.57-1.89,1.06-.21,2.2-.05,3.29.08.18.03.39.72.39,1.11.03,3.03.05,6.03,0,9.06,0,.41-.29,1.16-.49,1.19-.86.1-1.76,0-2.62-.1-.23-.03-.39-.47-.47-.57ZM102.35,108.45c0,.85-.03,1.73,0,2.59.05,1.73-1.35,2.69-2.75,1.63-1.14-.88-1.79-.31-2.67.15-1.66.88-3.71.57-4.9-.67-1.09-1.14-1.27-3.29-.41-4.71.83-1.37,2.28-1.58,3.68-1.84.54-.1,1.14,0,1.66-.1.31-.08.6-.36.88-.57-.29-.26-.54-.72-.85-.78-.57-.08-1.22.03-1.76.21-1.61.52-2.26.29-2.67-1.24-.44-1.58.86-1.58,1.79-1.66,1.66-.16,3.37-.44,4.95-.13,2.18.44,3.03,1.89,3.09,4.17-.03.96-.03,1.97-.03,2.95h0ZM96.65,110.55c.6-.83,1.01-1.29,1.27-1.86.05-.13-.7-.83-.78-.78-.6.36-1.11.85-1.63,1.29.29.36.57.7,1.14,1.35h0ZM125.29,108.3c-.73,0-1.48-.05-2.2.03-.34.03-.65.26-.98.39.21.34.39.96.65.98,1.29.13,2.62.1,3.91.15.52.03,1.04.13,1.55.21-.18.83-.08,2.15-.54,2.43-2.54,1.45-7.46,1.29-9.36-1.91-1.35-2.3-.91-6.5,1.01-8.18,2.1-1.84,5.94-1.89,8.04-.13,1.71,1.42,1.81,3.34,1.55,5.31-.03.28-.65.65-1.04.7-.86.08-1.74,0-2.59.03t0,0ZM123.51,105.84c.47-.34.88-.65,1.3-.96-.41-.29-.88-.83-1.27-.78-.52.08-.96.62-1.43.96.41.23.8.44,1.4.78ZM55.13,112.93c-2.07,0-2.07-.03-2.07-2.1v-8.12c0-.67-.13-1.55.86-1.61.86-.05,1.97-.52,2.46.75.36.98.83.75,1.43.23.42-.36.88-.78,1.4-.88.62-.13,1.45-.21,1.94.08.31.18.21,1.11.18,1.71-.03,1.35-.39,2.25-2.12,2.15-1.14-.08-1.97,1.06-1.97,2.28,0,1.11.03,2.23.03,3.36q0,2.15-2.13,2.15Z"/>
    </g>
  </g>
</svg>