<?xml version="1.0" encoding="UTF-8"?>
<svg id="Layer_2" data-name="Layer 2" xmlns="http://www.w3.org/2000/svg" viewBox="0 0 176.36 70.06">
  <defs>
    <style>
      .cls-1 {
        fill: #fff;
        stroke-width: 0px;
      }
    </style>
  </defs>
  <g id="Layer_1-2" data-name="Layer 1">
    <path class="cls-1" d="M3.87,6.51c-1.51,3.48-.89,7.31,2.05,9.62,1.6,1.25,3.38,2.23,5.25,2.85,4.9,1.69,9.88,2.76,14.51,5.26,3.74,2.05,7.3,4.19,10.32,7.13,1.07.98,1.16,1.42.09,2.4-2.14,2.05-4.27,4.01-6.59,5.79-4.9,3.83-10.06,7.04-15.93,9.36-3.03,1.16-6.05,2.41-8.72,4.1-5.16,3.39-6.05,7.66-3.38,12.47,1.87,3.39,5.34,4.72,9.08,4.54,5.78-.18,10.32-2.85,13.26-7.93,2.76-4.72,5.34-9.45,8.28-13.99,2.4-3.83,5.43-7.22,9.08-9.89,1.33-.98,2.14-1.07,3.38,0,1.42,1.25,2.85,2.5,4.18,3.83,2.58,2.67,5.07,5.44,5.96,9.27.18.62.53,1.25.8,1.78,1.87,4.1,6.32,6.06,10.77,4.81,2.67-.71,6.41-3.56,6.5-7.84.09-3.21-1.33-5.53-5.16-7.04-3.11-1.25-6.32-2.41-9.43-3.74-3.47-1.6-6.76-3.47-9.61-6.15-.98-.89-.98-1.69-.18-2.76.27-.36.53-.62.89-.98,4.27-3.92,9.26-6.95,14.42-9.45,2.14-1.07,4.45-1.69,6.5-2.85,3.56-1.96,4.27-6.6,1.96-9.62-2.85-3.56-10.86-4.46-13.62,1.51-.8,1.69-1.78,3.21-2.85,4.72-2.49,3.12-5.16,6.15-7.83,9.18-1.25,1.42-2.49,2.76-3.83,4.01-1.33,1.25-2.4,1.25-3.74,0-1.33-1.34-2.76-2.58-3.83-4.1-3.56-4.99-6.94-10.07-10.41-15.06-2.14-3.12-4.54-5.79-8.28-7.04-.62-.18-1.25-.45-1.87-.71h-3.83c-.36.18-.8.36-1.16.53-3.38.8-5.61,2.85-7.03,5.97h0ZM173.24,30.57h-4.72c-2.23,0-3.38,1.25-3.38,3.48,0,2.05,0,4.1-.09,6.06-.09,1.87-1.6,3.12-3.47,3.12h-9.7c-6.14,0-10.59-5.08-11.21-10.16-.62-4.54,1.6-8.02,5.07-10.69,2.4-1.87,5.16-2.67,8.19-2.58,6.32.09,12.64,0,18.96,0,2.23,0,3.47-1.16,3.47-3.39v-2.67c0-2.32-1.25-3.56-3.56-3.56h-19.94c-5.7.09-10.95,1.6-15.57,5.08-12.46,9.18-10.41,26.56,2.23,33.95,4.36,2.58,9.17,3.74,14.24,3.74,6.14,0,12.19-.09,18.33-.09,3.2,0,4.27-.98,4.27-4.19v-15.24c.09-1.6-1.16-2.85-2.76-2.94-.27.09-.36.09-.36.09h0ZM82.81,52.93h3.29c2.67,0,3.56-1.07,3.56-3.65v-26.47c0-1.87,1.07-3.03,2.85-3.21.53-.09,1.07-.09,1.69-.09h14.77c2.31,0,4.01,1.43,4.01,3.48s-1.51,3.39-3.92,3.48c-1.96.09-3.83.18-5.79.09-4.09-.27-5.52,1.69-5.25,5.17.18,2.94,1.78,4.28,4.36,4.28s5.25.09,7.92-.09c2.58-.18,5.16-.27,7.57-.98,7.92-2.49,10.95-12.56,5.96-19.16-2.67-3.56-6.32-5.26-10.68-5.35-10.24-.09-20.47,0-30.62,0-2.67,0-3.74,1.07-3.74,3.83v34.76c0,3.03.98,4.01,4.01,3.92Z"/>
  </g>
</svg>