<?xml version="1.0" encoding="UTF-8"?>
<svg id="Layer_2" data-name="Layer 2" xmlns="http://www.w3.org/2000/svg" viewBox="0 0 223 103">
  <defs>
    <style>
      .cls-1 {
        fill: #fff;
        fill-rule: evenodd;
        stroke-width: 0px;
      }
    </style>
  </defs>
  <g id="Layer_1-2" data-name="Layer 1">
    <path class="cls-1" d="M169.42.11c-.1.06-.22.2-.28.32-.05.11-.1.29-.1.39s.06.28.13.4c.07.12.21.26.31.33.17.11,1.24.12,26.55.12,22.8,0,26.39-.01,26.54-.09.1-.05.23-.19.3-.3.07-.11.13-.32.13-.45s-.05-.33-.11-.43c-.06-.1-.19-.23-.29-.29-.17-.1-2.26-.11-26.59-.11-24.75,0-26.42,0-26.59.11ZM170.58,7.75c-.14.05-.39.15-.54.23-.15.08-.39.29-.53.47-.14.18-.31.48-.37.66-.08.24-.1.46-.08.75.02.23.1.55.18.72.08.17.27.43.41.57.14.14.42.33.61.41l.35.16h50.85s.39-.19.39-.19c.22-.1.49-.29.6-.43.12-.13.28-.37.36-.52.12-.23.15-.38.15-.87,0-.53-.02-.62-.19-.94-.11-.19-.32-.46-.48-.6-.16-.14-.42-.3-.59-.37-.29-.11-1.29-.12-25.59-.13-20.3,0-25.33,0-25.54.07ZM173.09,17.46c-.09.01-.34.07-.55.13-.22.06-.57.19-.78.3-.22.11-.59.34-.83.51-.24.18-.59.51-.78.73-.19.23-.47.68-.63,1-.15.32-.33.81-.38,1.07-.06.26-.1.68-.1.94s.04.67.1.94c.05.26.17.66.27.89.09.23.27.57.39.77.12.2.43.55.67.79.24.24.65.56.92.72.26.15.7.36.97.46l.5.18h46.31l.52-.18c.29-.1.71-.29.95-.42.24-.13.64-.45.92-.73.27-.27.62-.71.78-.97.15-.26.35-.7.44-.98.12-.36.17-.71.2-1.23.03-.6,0-.82-.1-1.28-.08-.3-.24-.75-.37-1-.13-.24-.34-.6-.48-.79s-.41-.49-.6-.66c-.19-.17-.54-.43-.77-.57-.24-.14-.66-.34-.95-.44l-.52-.18h-22.96c-12.63-.01-23.03,0-23.12.01ZM173.88,30.33c-.19.03-.54.12-.78.19-.23.07-.68.27-1,.44-.32.17-.78.47-1.02.68-.24.2-.6.59-.81.85-.2.27-.47.69-.6.95-.13.25-.27.59-.32.75-.05.16-.13.45-.18.65-.07.3-.09,4.11-.09,22.56v22.2l.18.58c.1.32.27.76.38.98.11.22.35.6.52.84.18.24.5.6.71.8.21.2.52.45.68.56.16.11.51.3.77.43.26.12.68.29.93.37l.46.15,22.08.02c20.04.02,22.13,0,22.6-.09.29-.06.74-.2,1.01-.31.27-.11.73-.36,1.02-.55.3-.19.75-.58,1.01-.87.26-.28.6-.72.75-.97.15-.25.34-.64.44-.88s.22-.66.27-.95c.09-.47.1-2.59.09-22.63l-.02-22.1-.18-.58c-.1-.32-.26-.73-.35-.92-.09-.19-.29-.52-.44-.73-.14-.22-.46-.59-.69-.82-.24-.24-.6-.55-.82-.69-.21-.15-.51-.32-.65-.4s-.49-.21-.77-.3c-.28-.09-.71-.2-.95-.23-.28-.04-8.47-.06-22.16-.06-12.58,0-21.87.03-22.08.07ZM199.14,43.69l.02,2.67h-6.27v-2.65c0-2.06.02-2.65.08-2.68.04-.02,1.45-.03,3.12-.02h3.04s.02,2.68.02,2.68ZM4.98,48.92c-.22.03-.62.12-.88.2-.26.08-.64.23-.84.33-.2.1-.54.3-.77.45-.22.15-.56.42-.75.61-.19.19-.47.51-.62.7-.15.2-.39.6-.53.88-.15.29-.33.74-.41,1.01l-.15.49-.02,22.13c-.02,19.34,0,22.19.08,22.61.05.26.19.7.29.98.11.28.35.74.53,1.02.18.28.51.69.74.92.22.23.59.54.82.7.23.15.63.38.89.5.26.12.72.29,1.02.37l.54.15,21.62.02c14.84.01,21.81,0,22.22-.05.33-.04.85-.14,1.14-.24.3-.09.79-.31,1.09-.47.34-.19.76-.5,1.1-.83.3-.29.66-.68.8-.88.14-.2.33-.54.44-.76.11-.22.26-.58.33-.82.08-.23.17-.6.21-.81.05-.27.07-7.23.07-22.17,0-14.56-.02-21.92-.07-22.2-.04-.23-.13-.62-.2-.85s-.23-.6-.33-.82c-.11-.22-.32-.57-.47-.79-.15-.22-.48-.59-.74-.83-.25-.24-.59-.53-.76-.64-.17-.12-.52-.31-.78-.43-.26-.12-.7-.29-.99-.37l-.52-.15h-21.85c-12.02-.02-22.03,0-22.25.03ZM61.56,48.89c-.11.01-.37.06-.59.09-.22.04-.63.16-.91.27s-.76.36-1.05.54c-.29.19-.69.51-.89.71-.2.2-.48.52-.62.71-.14.19-.38.59-.53.88-.15.29-.33.77-.41,1.05l-.15.51-.02,22.07c-.01,19.09,0,22.14.08,22.58.05.28.2.76.32,1.06.12.31.36.76.52,1.01.16.25.49.65.72.88.23.24.63.56.88.73.25.17.64.39.87.49.23.1.66.26.97.34l.56.15,21.59.02c14.7.01,21.79,0,22.23-.05.38-.04.9-.15,1.26-.27.34-.11.84-.34,1.11-.5.27-.16.72-.5.99-.76.27-.26.62-.65.78-.87.16-.22.4-.65.54-.95.14-.3.31-.75.37-1.01.12-.44.12-1.22.12-22.66s0-22.22-.12-22.66c-.07-.25-.23-.7-.36-.99-.14-.29-.35-.69-.48-.88-.13-.19-.44-.56-.68-.81-.24-.25-.61-.57-.83-.71-.21-.14-.6-.36-.87-.49-.27-.12-.71-.29-.99-.37l-.5-.14h-21.85c-12.02-.01-21.94,0-22.05,0ZM117.73,48.92c-.18.03-.52.1-.75.16-.23.06-.63.21-.89.33-.26.12-.64.33-.85.48-.21.14-.53.41-.71.58-.18.18-.46.5-.63.71-.16.22-.42.63-.57.93-.15.29-.34.75-.42,1.02l-.15.48-.02,22.1c-.02,19.98,0,22.15.09,22.63.06.29.2.77.32,1.06.12.3.35.74.51.98.16.24.49.64.73.89.24.24.64.58.89.74.25.16.65.38.88.49.23.1.68.26.99.34l.57.14h21.95c20.95,0,21.97,0,22.45-.12.28-.07.69-.19.91-.28.22-.09.61-.28.86-.43.25-.15.7-.51,1-.8.3-.29.67-.72.82-.96.15-.24.34-.57.42-.73.08-.16.2-.49.27-.72.08-.23.17-.6.2-.82.04-.25.06-8.22.06-22.17s-.02-21.92-.07-22.2c-.04-.23-.13-.62-.2-.85-.08-.23-.23-.62-.35-.85-.12-.23-.34-.6-.5-.82-.16-.22-.45-.55-.64-.74-.19-.19-.55-.48-.78-.64-.24-.16-.63-.38-.88-.49-.25-.11-.67-.27-.94-.35l-.5-.15h-21.88c-12.04-.01-22.03,0-22.21.03ZM199.14,61.44l-.02,12.13h-6.21l-.02-12.13-.02-12.13h6.27l-.02,12.13ZM33.42,59.63l.15.04v4.36l-1.13.03c-.96.03-1.18.05-1.5.18-.25.1-.45.23-.59.4-.12.14-.25.37-.3.51-.05.16-.08.76-.08,1.57v1.32l1.78.02,1.78.02v4.26l-1.77.02-1.77.02-.04,3.52c-.02,1.94-.04,6.42-.04,9.97v6.45s-3.1.02-3.1.02l-3.1.02v-9.99c0-7.95-.02-9.99-.08-9.99-.04,0-.75,0-1.57,0h-1.49s0-2.16,0-2.16v-2.16h3.14v-1.62c0-1.02.04-1.87.09-2.31.05-.38.16-.89.23-1.15.08-.25.25-.66.38-.92.16-.32.4-.62.76-.98.34-.34.69-.61.99-.77.25-.13.72-.32,1.04-.41.32-.09.85-.21,1.17-.26.46-.07,1.06-.09,2.74-.07,1.19.02,2.22.05,2.3.07ZM84.59,66.86c.48.04,1.14.11,1.47.17s.85.17,1.18.26c.32.09.82.27,1.1.39.28.12.67.33.88.46.2.13.53.39.72.57.2.19.47.49.6.67.13.18.33.51.44.72.11.22.26.6.34.85.08.25.19.69.24.98.09.46.11,1.54.15,8.68.03,5.71.07,8.31.13,8.68.04.29.13.75.2,1.02.07.27.2.69.29.93l.16.44h-5.95l-.17-.37c-.09-.2-.26-.75-.37-1.21-.11-.46-.22-.86-.24-.88-.02-.02-.21.22-.42.54-.21.31-.57.76-.8.98s-.54.5-.7.61c-.16.11-.43.26-.6.33-.17.08-.48.19-.69.26-.21.07-.63.17-.95.23-.31.06-.98.12-1.49.14-.59.03-1.11.01-1.47-.04-.3-.04-.77-.15-1.04-.24-.27-.09-.74-.31-1.04-.49-.3-.18-.71-.5-.92-.71-.21-.2-.5-.56-.66-.79-.15-.23-.4-.67-.54-.97-.14-.3-.34-.88-.44-1.28-.1-.4-.22-1.05-.26-1.45-.05-.45-.07-1.03-.04-1.54.02-.45.09-1.1.14-1.44.06-.34.19-.89.3-1.21.11-.32.33-.82.5-1.11.19-.32.51-.73.83-1.05.29-.29.75-.67,1.02-.84.28-.17.83-.45,1.24-.63.41-.18,1.03-.41,1.39-.52.36-.11.95-.28,1.31-.37.36-.1,1.3-.35,2.09-.57.79-.22,1.62-.48,1.85-.59s.53-.3.67-.43c.14-.13.33-.37.41-.53.08-.16.19-.46.23-.65.05-.23.07-.61.05-1.08-.02-.53-.07-.84-.18-1.12-.08-.22-.25-.53-.37-.69-.12-.16-.32-.36-.44-.44-.12-.08-.38-.2-.57-.27-.19-.07-.6-.14-.91-.17-.34-.03-.72-.02-.98.03-.23.04-.55.13-.71.2-.16.07-.42.23-.57.36-.16.13-.36.36-.45.52-.09.16-.23.45-.3.63-.1.25-.14.56-.17,1.19l-.04.85-2.79.02-2.79.02v-.73c0-.4.05-1.04.1-1.42.06-.38.19-.95.29-1.27.1-.31.27-.73.36-.92.1-.19.32-.56.5-.82.18-.26.53-.67.78-.91.25-.24.62-.54.82-.67.2-.13.63-.36.96-.51.32-.15.94-.36,1.37-.47.43-.11,1.06-.23,1.4-.27.34-.04.72-.08.85-.09.13-.01.58-.03,1.02-.03.43,0,1.18.02,1.67.06ZM148.52,70.44l.02,2.37-1,1.49c-.55.82-1.63,2.44-2.41,3.59-.77,1.15-2.25,3.36-3.29,4.91-1.04,1.55-2.13,3.18-2.43,3.61-.3.44-.54.82-.54.83s2.18.04,4.84.04h4.84l-.04,2.5-.04,2.5-8.49.02-8.49.02v-4.79l1.26-1.88c.7-1.03,2.01-3,2.93-4.37.92-1.37,2.51-3.75,3.54-5.28,1.03-1.54,1.87-2.81,1.87-2.83s-2.06-.04-4.57-.04h-4.57v-5.11l8.28.02,8.28.02.02,2.37ZM85.27,79.94c-.25.15-.69.37-.98.48-.29.11-.85.29-1.25.39s-.91.27-1.14.36-.57.27-.76.39c-.19.12-.46.34-.6.48-.14.14-.34.43-.45.64-.11.21-.25.57-.32.81-.08.31-.11.66-.11,1.24,0,.52.04.98.11,1.27.06.25.2.64.31.87.11.23.3.52.43.65.13.13.36.29.52.36.16.07.5.14.76.16.31.02.65,0,.99-.07.29-.06.73-.21.98-.33.25-.12.58-.32.73-.44.15-.12.4-.38.56-.59.16-.2.35-.51.42-.69.07-.17.17-.49.21-.71.05-.26.07-1.24.05-2.98l-.02-2.59-.46.28Z"/>
  </g>
</svg>