<?xml version="1.0" encoding="UTF-8"?>
<svg id="Layer_2" data-name="Layer 2" xmlns="http://www.w3.org/2000/svg" viewBox="0 0 226.14 43.09">
  <defs>
    <style>
      .cls-1 {
        fill: #fff;
        stroke-width: 0px;
      }
    </style>
  </defs>
  <g id="Layer_1-2" data-name="Layer 1">
    <path class="cls-1" d="M32,43.01c-.78-1.89-2.24-3.78-2.24-5.68-.26-10.84,0-21.67-.17-32.51,0-2.84.69-4.13,3.79-4.13,3.36-.09,4.05,1.29,4.05,4.39-.17,8.69-.09,17.37-.09,26.06v4.82h6.47v-12.47c0-6.45.09-12.81-.09-19.26-.09-3.1,1.55-3.53,3.97-3.53,2.24,0,3.88.34,3.88,3.18-.09,11.44,0,22.79-.17,34.23,0,1.63-1.47,3.18-2.24,4.82-5.69.09-11.39.09-17.17.09ZM63.06,43.01c-3.88-3.96-2.07-8.94-1.81-13.42.09-.77,4.14-1.38,6.99-2.24.26,3.53.43,6.02.6,8.69h5c1.04-3.78.86-6.97-2.67-9.46-1.29-.86-2.16-2.32-3.45-3.18-6.38-4.13-7.59-10.15-6.9-17.11.35-3.53,1.9-5.33,5.26-5.5,3.59-.17,7.19-.17,10.78,0,3.28.17,5.35,1.81,5.26,5.42-.09,2.84,0,5.68,0,8.86h-7.59c-.09-2.32-.26-4.39-.35-6.88h-5.09c-1.04,3.27-.69,6.11,2.33,8.34,1.29.95,2.16,2.32,3.45,3.18,7.25,4.39,8.11,11.18,7.07,18.58-.26,1.72-1.64,3.18-2.5,4.73h-16.39,0ZM118.26,43.01c-.09-7.91-.26-15.82-.26-23.74,0-6.36.17-12.73.26-19.09h18.11c2.41,2.49,3.02,5.5,2.85,8.86-.26,4.21-.09,8.51-.09,12.81-.09,5.33-1.12,6.36-6.64,6.45h-6.56c-.26,5.42-.52,10.06-.78,14.71h-6.9ZM125.68,20.91c.43.43.95.86,1.38,1.29,1.38-1.03,3.79-1.89,4.05-3.18.6-2.84.43-5.93.09-8.94-.09-.86-1.73-2.15-2.59-2.15-.95,0-2.67,1.2-2.76,1.98-.35,3.7-.17,7.4-.17,11.01ZM187.27.18c2.24,10.84,4.49,21.59,6.73,32.42.69,3.44,1.29,6.97,1.9,10.41h-7.76c-.26-1.55-.6-3.1-.69-4.64-.09-2.58-1.29-3.27-3.8-3.27s-3.28,1.03-3.36,3.27c-.09,1.55-.52,3.1-.78,4.64h-6.9c.52-4.04.86-8.08,1.64-12.04,1.98-10.32,4.05-20.55,6.12-30.79h6.9ZM184.42,19.19c-.43,0-.86-.09-1.29-.09-.17,2.92-.26,5.93-.43,8.86h3.02c-.52-3.18-.86-5.93-1.29-8.77h0ZM209.7,43.01c2.07-13.07-2.68-25.03-6.56-37.07-.6-1.89-.86-3.87-1.21-5.76h7.76c1.21,4.73,2.33,9.46,3.54,14.19h.95L218.32.18c1.9,0,3.8.26,5.61-.09,2.76-.52,2.16,1.2,2.16,2.67-.6,1.38-1.38,2.75-1.9,4.21-4.31,11.61-7.85,23.48-6.73,36.03h-7.76ZM.09,27.61h7.25c.17,2.92.26,5.42.35,8.26,1.47.09,2.76.17,4.66.34.09-1.72.26-3.27.26-4.82,0-9.12.09-18.23-.09-27.26-.09-3.18,1.73-3.35,4.05-3.35s3.8.26,3.8,3.18c-.09,11.35,0,22.79-.17,34.14,0,1.63-1.29,3.27-2.07,4.9H0c.09-5.16.09-10.32.09-15.39ZM95.83,43.01V8.61c-.86-.17-1.81-.52-2.76-.43-2.85.26-3.62-.95-3.62-3.7,0-2.92,1.21-3.78,3.88-3.7,3.71.09,7.42,0,11.21,0,6.64,0,6.73.09,5.69,7.05-1.81.17-3.79.43-6.56.69v34.49s-7.85,0-7.85,0ZM148.45,43.01c-.17-1.38-.6-2.75-.6-4.13V4.39c0-1.38.35-2.75.52-4.21h6.9l.26,29.93v5.42c3.36.17,6.38.34,10.01.52-.26,2.49-.52,4.73-.86,7.05-5.35-.09-10.78-.09-16.22-.09Z"/>
  </g>
</svg>