<?xml version="1.0" encoding="UTF-8"?>
<svg id="Layer_2" data-name="Layer 2" xmlns="http://www.w3.org/2000/svg" viewBox="0 0 218.74 54.35">
  <defs>
    <style>
      .cls-1 {
        fill: #fff;
        stroke-width: 0px;
      }
    </style>
  </defs>
  <g id="Layer_1-2" data-name="Layer 1">
    <g>
      <path class="cls-1" d="M36.97,21.4c-.18-.08.9.45-.9-.45-2.51-1.25-5.75-2.46-5.68-6.56,0-.5-.42-.3-.97.3-.04.04-.08.07-.12.1-4.81,4.22-6.98,7.28-7.64,11.79-1.05,7.19.74,8.09,1.36,7.8.12-.06.22-.14.29-.24.08-.1.13-.22.15-.35.22-1.01.66-4.48,6.78-5.64,6.04,9.86-3.36,15.82-9.1,15.82-7.01,0-16.3-9.22-5.58-20.42,1.83-1.91,4.41-3.75,7.06-7.74,3.25-4.88,3.82-9.49.55-13.86-1.67-2.24-1.96-2.17-1.9-1.65.26,2.12.2,1.47.22,2.09.13,3.07-2.04,4.57-4.93,6.34l-11.28,6.48c-.11.06-1.39.76-1.49.82-1.05.6-3.82,2.83-3.82,6.19,0,2.01,0,16.84,0,16.84,0,1.22.31,2.42.91,3.48.6,1.06,1.47,1.94,2.53,2.56,1.5.89,12.06,7.02,14.04,8.12.12.07.25.16.37.22,2.76,1.42,5.42,1.03,7.62-.22,2.16-1.24,11.46-6.33,14.71-8.65,2.09-1.49,2.91-3.58,2.84-5.37v-9.91c0-3.43-2.24-6.11-6.05-7.9Z"/>
      <path class="cls-1" d="M56.35,33.52c0-3.79,2.69-6.19,5.93-6.19,1.61,0,2.94.5,3.84,1.4v-1.13h3.04v12.08c0,3.01-2.19,5.87-6.25,5.87-3.79,0-5.98-2.43-6.26-5.04h3.11c.33,1.2,1.28,2.21,3.14,2.21,2.16,0,3.27-1.5,3.27-3.28v-1.15c-.9.93-2.29,1.4-3.89,1.4-3.24,0-5.93-2.38-5.93-6.17ZM59.39,33.52c0,2.13,1.48,3.43,3.47,3.43.9-.03,1.76-.4,2.39-1.05.63-.65.98-1.51.98-2.41s-.35-1.77-.98-2.41c-.63-.65-1.48-1.02-2.39-1.05-1.98,0-3.47,1.33-3.47,3.48Z"/>
      <path class="cls-1" d="M77.78,40.82c-3.34,0-6.2-2.51-6.2-6.74s2.86-6.77,6.2-6.77c.73-.02,1.45.11,2.13.38.68.27,1.29.67,1.81,1.17v-1.25h3.12v12.91h-3.12v-1.23c-.52.5-1.14.9-1.82,1.16-.68.26-1.4.39-2.13.37h0ZM74.74,34.07c0,2.48,1.56,3.91,3.59,3.91,1.86,0,3.47-1.43,3.47-3.91s-1.61-3.94-3.47-3.94c-2.03,0-3.59,1.43-3.59,3.94Z"/>
      <path class="cls-1" d="M103.93,27.3c3.29,0,4.9,2.31,4.9,5.62v7.6h-3.19v-7.25c0-2.06-.86-3.13-2.76-3.13-1.61,0-2.86,1.08-2.86,3.13v7.25h-3.19v-7.25c0-2.06-.75-3.13-2.66-3.13-1.71,0-2.96,1.08-2.96,3.13v7.25h-3.19v-12.91h3.19v1.33c.6-.85,1.76-1.63,3.92-1.63s3.52.88,4.17,2.08c.75-1.2,2.16-2.08,4.65-2.08Z"/>
      <path class="cls-1" d="M111.5,22.89c0-.52.21-1.02.57-1.38.37-.37.87-.57,1.38-.57.26,0,.51.05.75.15s.45.24.63.43c.18.18.32.4.42.63.1.24.14.49.14.75,0,.51-.21,1-.58,1.37-.36.36-.86.56-1.37.56s-1.01-.2-1.37-.56c-.37-.36-.57-.85-.57-1.37h0ZM115.06,27.6v12.91h-3.19v-12.91h3.19Z"/>
      <path class="cls-1" d="M121.42,27.6v1.33c.6-.85,1.83-1.63,3.92-1.63,3.29,0,5.1,2.31,5.1,5.62v7.6h-3.19v-7.25c0-2.06-.98-3.13-2.86-3.13-1.71,0-2.96,1.08-2.96,3.13v7.25h-3.19v-12.91h3.19Z"/>
      <path class="cls-1" d="M132.75,33.52c0-3.79,2.69-6.19,5.93-6.19,1.61,0,2.94.5,3.84,1.4v-1.13h3.04v12.08c0,3.01-2.18,5.87-6.26,5.87-3.79,0-5.98-2.43-6.25-5.04h3.11c.33,1.2,1.28,2.21,3.14,2.21,2.16,0,3.27-1.5,3.27-3.28v-1.15c-.9.93-2.29,1.4-3.89,1.4-3.24,0-5.93-2.38-5.93-6.17ZM135.79,33.52c0,2.13,1.48,3.43,3.47,3.43.9-.03,1.76-.4,2.39-1.05.63-.65.98-1.51.98-2.41s-.35-1.77-.98-2.41c-.63-.65-1.48-1.02-2.39-1.05-1.98,0-3.47,1.33-3.47,3.48Z"/>
      <path class="cls-1" d="M160.33,37.86c.72.02,1.44-.12,2.09-.41.66-.3,1.24-.74,1.7-1.29l1.68,2.48c-.95,1.03-2.74,2.18-5.5,2.18-4.1,0-6.68-2.93-6.68-6.74s2.59-6.74,6.68-6.74c2.76,0,4.55,1.15,5.5,2.18l-1.68,2.48c-.46-.55-1.04-1-1.7-1.29-.66-.3-1.37-.44-2.09-.41-2.09,0-3.52,1.5-3.52,3.79s1.43,3.79,3.52,3.79Z"/>
      <path class="cls-1" d="M166.84,34.07c0-3.53,2.49-6.77,6.86-6.77s6.86,3.23,6.86,6.77-2.49,6.79-6.86,6.79-6.86-3.23-6.86-6.79ZM170.03,34.07c0,2.41,1.58,3.96,3.67,3.96s3.67-1.55,3.67-3.96-1.58-3.94-3.67-3.94-3.67,1.55-3.67,3.94Z"/>
      <path class="cls-1" d="M186.13,27.6v1.23c.43-.78,1.26-1.53,2.89-1.53,2.04,0,3.47,1.55,3.34,4.36h-3.12c0-.93-.55-1.55-1.48-1.55-.85,0-1.63.63-1.63,2.68v7.72h-3.19v-12.91h3.19Z"/>
      <path class="cls-1" d="M197.51,28.83c.93-1,2.34-1.53,4.04-1.53,3.52,0,6.23,2.66,6.23,6.74s-2.71,6.77-6.23,6.77c-1.71,0-3.11-.55-4.04-1.55v6.77h-3.19v-18.43h3.19v1.23ZM197.36,34.05c0,2.51,1.66,3.94,3.49,3.94,2.09,0,3.74-1.43,3.74-3.94s-1.66-3.91-3.74-3.91c-1.83,0-3.49,1.43-3.49,3.91Z"/>
      <path class="cls-1" d="M208.94,38.33l2.09-2.08c.25.55.66,1.01,1.17,1.33.52.32,1.11.47,1.72.45.93,0,1.73-.53,1.73-1.43,0-.83-.65-1.28-1.63-1.6l-1.15-.38c-1.78-.58-3.07-1.81-3.07-3.71s1.81-3.61,4.02-3.61,3.62.98,4.3,2.11l-2.09,1.81c-.21-.37-.51-.67-.88-.88-.37-.21-.78-.32-1.21-.32-.73,0-1.16.43-1.16.9,0,.58.45.93,1.18,1.18l1.11.38c1.76.6,3.67,1.76,3.67,4.14s-2.01,4.21-4.82,4.21c-2.59,0-4.22-1.18-4.97-2.48Z"/>
    </g>
  </g>
</svg>