<?xml version="1.0" encoding="UTF-8"?>
<svg id="Layer_2" data-name="Layer 2" xmlns="http://www.w3.org/2000/svg" viewBox="0 0 224.91 46.23">
  <defs>
    <style>
      .cls-1 {
        fill: #fff;
        stroke-width: 0px;
      }
    </style>
  </defs>
  <g id="Layer_1-2" data-name="Layer 1">
    <g>
      <path class="cls-1" d="M107.74,35.02c.45-2.94.79-6,1.25-8.94.34-2.38.68-4.76,1.02-7.25.11-.45.45-1.13-.34-1.36-.91-.23-1.36.34-1.48,1.13-.34,1.92-.57,3.85-.91,5.78-.34,2.38-.68,4.75-1.14,7.13-.57,2.83-1.48,3.51-4.31,3.62h-5.22c2.27-1.7,2.39-3.85,2.72-6,.68-4.98,1.48-10.08,2.27-15.06.45-2.94,1.36-3.74,4.31-3.85,5.94-.11,11.88-.11,17.83,0,2.95,0,3.86.91,3.41,3.96-.69,5.6-1.49,11.19-2.38,16.76-.57,3.51-1.36,4.19-5,4.19-.91,0-1.7.23-2.72-.23.45-3.51,1.02-7.02,1.48-10.53.23-1.92.57-3.85.79-5.78.11-.45.34-1.13-.57-1.24-.57-.11-1.14.23-1.25.79-.11.45-.23.91-.23,1.36-.57,3.74-1.14,7.59-1.7,11.32-.57,3.51-1.36,4.19-5,4.3-1.02.11-1.82.34-2.84-.11h0ZM28.61,10.45v.23c-.57,6.57-1.59,6.68-6.93,6.68h-11.47c-.8.11-1.14.57-1.02,1.25.11.68.68.57,1.14.57h11.92c.8,0,1.59,0,2.39.11,1.82.23,2.38.9,2.27,2.72-.11,3.51-.57,7.02-1.48,10.42-.45,1.93-1.25,2.6-3.41,2.72-1.7.11-3.52.11-5.22.11H4.2c-.8,0-1.59,0-2.38-.23-1.13-.23-1.82-.91-1.82-2.15v-.91q.11-3.85,3.86-3.85h12.6c.57,0,1.14,0,1.7-.11.68-.11.91-.57.91-1.24s-.68-.57-1.02-.57H5.68c-3.52,0-5.34-.23-4.32-4.98.57-2.49.68-5.1,1.25-7.59.45-2.38,1.48-3.28,3.86-3.28,7.27-.11,14.42,0,21.68,0,.23,0,.34.11.45.11ZM165.42,17.35h-6.81c-.45-.68-.23-1.13-.11-1.7.91-5.1,1.14-5.32,6.36-5.32,1.14,0,1.7-.34,1.82-1.47.23-1.81.45-3.62.68-5.32.23-1.25.11-2.38-1.36-3.4,2.5,0,4.43-.11,6.24,0,1.82.11,2.27.79,2.27,2.6.11,2.38-.57,4.76-.68,7.47h10.9c.11,1.59-.23,2.83-.57,4.08-.45,2.04-1.48,2.83-3.63,2.94-2.16.11-4.32.11-6.47,0-1.02,0-1.59.23-1.7,1.36-.34,3.06-.79,6-1.25,9.28,3.75.23,7.38,0,11.13.23-.23,1.47-.34,2.94-.68,4.3-.34,1.58-1.36,2.49-2.95,2.6-4.31.23-8.74.23-13.06,0-1.93-.11-2.5-.91-2.27-2.83.34-3.17.91-6.34,1.25-9.51.45-1.7.68-3.4.91-5.32h0ZM87.65,35.02l2.5-17.55h-7.49q-3.75,0-4.32,3.74c-.57,3.51-.91,7.02-1.59,10.42-.45,2.83-1.36,3.62-4.31,3.62h-5.22c2.84-2.15,2.5-5.1,2.95-7.81.68-4.42,1.25-8.83,1.93-13.25.45-2.94,1.36-3.85,4.31-3.85,5.9-.11,11.92,0,17.82,0,.34,0,.79,0,1.14.11,1.82.34,2.27.79,2.27,2.6,0,1.7-.23,3.28-.45,4.87-.68,4.42-1.25,8.83-1.93,13.25-.45,3.17-1.36,3.96-4.77,3.96-.68.11-1.7.34-2.84-.11ZM224.8,10.45c.11.11.11.34.11.57-.79,6.34-1.36,6.45-6.93,6.45h-10.44c-1.93,0-1.93.11-2.27,1.92-.45,2.83-.91,5.77-1.36,8.83h18.39c-.11,1.53-.33,3.04-.68,4.53-.34,1.47-1.36,2.15-2.84,2.38-.57.11-1.14.11-1.7.11h-16.92c-.68,0-1.25,0-1.93-.11-1.48-.23-2.04-.79-2.04-2.38,0-.91,0-1.7.11-2.61l2.38-15.97c.45-2.72,1.25-3.74,3.75-3.74,7.49-.11,14.87,0,22.37,0ZM56.09,34.9c1.59-1.25,2.04-2.6,2.27-4.42.79-6.23,1.82-12.34,2.72-18.57q.23-1.7,2.04-1.7h5.34c-.11,3.06-.68,6-1.14,8.94-.57,4.08-1.14,8.15-1.82,12.23-.57,3.06-1.36,3.62-4.43,3.74h-4.31c-.11.11-.23,0-.68-.23ZM183.59,35.24c1.48-1.59,1.82-3.51,2.04-5.43.79-6,1.7-12,2.61-18.12.11-1.13.45-1.47,1.59-1.47,1.93.11,3.75,0,5.9,0-.45,3.06-.79,5.89-1.25,8.72-.57,4.19-1.13,8.38-1.93,12.46-.57,3.06-1.36,3.62-4.43,3.74-1.59.11-3.07.11-4.54.11h0ZM197.1.03c-.32,2.42-.66,4.83-1.02,7.25-.11.68-.23,1.25-1.14,1.13-2.04-.11-4.09.11-6.24-.11.11-2.04.45-3.96.91-5.78.34-1.36,1.36-2.04,2.73-2.38,1.59-.23,3.07-.11,4.77-.11h0ZM69.94.03c-.34,2.49-.68,4.76-.91,7.02-.11,1.02-.45,1.47-1.59,1.47-1.93-.11-3.75,0-5.79,0,.11-2.04.46-4.19,1.02-6.11.34-1.25,1.36-1.92,2.61-2.15,1.48-.34,2.95-.23,4.65-.23ZM46.55,45.66c-1.48.57-2.61.45-3.97.11.34-1.81.68-3.62.91-5.32.11-.68.45-1.02,1.13-.91.79,0,1.7-.23,2.5.34-.34.91-1.02.57-1.48.57-.79,0-1.13.34-1.13,1.13,0,.91.68.68,1.13.79.23.11.45.11.57.23-.11.68-.68.68-1.14.68-.79,0-1.13.34-1.13,1.13,0,1.13.79.68,1.36.79.34-.11.79-.23,1.25.45h0ZM90.72,39.77c-.34.79-1.02.57-1.48.57-.91,0-1.02.57-1.14,1.13-.11.91.68.57,1.14.68.23,0,.45.23.57.45-.57.79-2.84.11-2.16,2.15.68.45,1.7-.11,2.61.57-1.14,1.02-2.38.57-3.52.45-.45,0-.34-.68-.34-1.02.23-1.25.45-2.49.57-3.74.11-1.25.68-1.81,2.04-1.58.45.11,1.02-.11,1.7.34h0ZM175.53,42.83l-2.16,3.06c-1.02-.45-.79-1.58-1.36-2.26-.23-.34-.34-.68-.45-1.02,0-.45.23-.9.79-.9l.91,2.04c1.59-1.13,2.04-3.06,3.75-4.53.45,2.26-.11,4.19-.23,6.11,0,.23-.23.34-.46.34h-.11c-.57-.23-.34-.79-.34-1.13.11-.57.91-1.36-.34-1.7h0ZM154.07,44.19v-.45c.23-.23.23-.57.23-.79s.11-.57.11-.79c.11-.79-.23-2.04.68-2.38,1.02-.34,1.25,1.02,1.7,1.58.68.79,1.25,1.58,1.93,2.38.57-.45.23-1.13.45-1.59l.11-1.25c.23-.34.23-.68.34-1.02.57,0,.91.11.68.79l-.11,1.25c-.34.45-.11,1.02-.34,1.58,0,.79,0,1.7-.68,2.72-.79-1.13-1.48-2.04-2.27-2.94-.45-.45-.45-1.36-1.36-1.25-.34.45-.11,1.02-.34,1.58l-.11.79c-.11.11-.23.23-.45.23-.34-.23-.45-.34-.57-.45h0ZM221.96,39.66c-.23.68-.57.79-.91.79-1.02-.11-1.36.34-1.48,1.36-.11,1.25-.45,2.49-.68,3.62-.11.23-.23.68-.68.57-.34-.11-.45-.45-.34-.68.23-1.02.34-2.15.57-3.17.34-1.13.11-1.58-1.13-1.58-.23,0-.45-.11-.45-.68,1.7-.57,3.29-.45,5.11-.23ZM74.48,45.32c0,.24-.13.46-.34.57-.34.11-.68-.11-.57-.45.11-.79.34-1.47.45-2.26.34-.45.11-1.13.34-1.59.34-1.58-1.25-.91-1.82-1.47,1.25-.79,2.38-.9,5-.34,0,.11,0,.23-.11.45-2.61,0-2.04,2.15-2.61,3.51-.23.45-.11,1.13-.34,1.59h0ZM188.24,43.28l-.11,1.58c.79.57,1.82-.11,2.61.68-1.02.79-2.27.34-3.29.34-.45,0-.57-.45-.45-.91.11-.57.34-1.25.45-1.81.45-.57,0-1.36.34-2.04l.11-.79c.91-1.25,2.16-.68,3.29-.45-.11.68-.68.45-1.14.45s-1.02-.11-1.36.45c-.23.45-.34.91.11,1.36l1.36.11q.11.11.11.23v.11c-.68.57-1.48,0-2.04.68h0ZM57.34,43.96l-.11,1.13c-.23.34-.34.79-.91.45-.11-.45-.11-1.02.11-1.47.11-.34.23-.79.34-1.25,0-1.13.11-2.26.79-3.51,1.36.91,1.93,2.15,2.72,3.28,0,.34-.23.57-.57.57-.34-.45-.79-.91-1.13-1.36-.45-.45-.57,0-.79.34-.34.68-.23,1.25-.45,1.81h0ZM116.37,43.73c0,.11,0,.23-.11.34-.11.11-.45.11-.57,0v-.11c-.11-.45-.11-1.02.11-1.47v-.23q.11-1.81-1.59-2.26c1.14-.79,2.5-.91,5-.23-.79.79-2.61.23-2.5,1.93-.34.68.11,1.47-.34,2.04h0Z"/>
      <path class="cls-1" d="M172.46,41.81l-.45,1.02c-.34.11-.57.23-.79.45-.23.79-.57,1.58-.79,2.38,0,.11-.23.11-.79.34.11-2.38,1.02-4.3,1.59-6.57,1.02.68,1.02,1.58,1.25,2.38ZM204.48,44.19l-2.16-2.61c-.45.79-.23,1.58-.68,2.15-.79-.45,0-1.36-.45-1.93-.11-.79.11-1.47.57-2.38,1.59,1.02,2.38,2.6,3.29,4.08.11.45-.11.68-.57.68h0ZM59.61,43.28l.57-.57c.11.11.23.34.34.45.45.34.68.11.79-.34.11-.34.23-.79.23-1.13.34-.45.11-1.13.34-1.59v-.23c1.02,0,.57.79.57,1.25.11,1.59-.45,3.06-.68,4.64-.91.11-1.02-.57-1.36-1.13-.11-.23-.23-.34-.46-.57,0-.11-.23-.45-.34-.79Z"/>
      <path class="cls-1" d="M204.48,44.19l.57-.68c1.02-.45.57-1.47.91-2.15.34-.45,0-1.02.34-1.47,1.02,0,.68.68.57,1.25,0,.57,0,1.02-.11,1.59-.25,1.09-.48,2.18-.68,3.28-.91-.45-1.25-1.13-1.59-1.81ZM143.62,43.73l-.11.79c-.34.23,0,1.25-.91.91-.11-.45,0-.91.11-1.47.34-.45.11-1.02.34-1.58l.11-1.25c.34-.45,0-1.02.34-1.47.91,0,.68.57.57,1.13l-.23,1.25c-.23.68,0,1.25-.23,1.7h0ZM201.52,44.19c0,.68.11,1.36-.79,1.81-.46-1.25-.11-2.26.34-3.4.57.45,0,1.13.45,1.59h0ZM191.19,39.88c-1.14,0-2.27-.11-3.29.45,0-.23,0-.57.11-.68,1.02-.23,2.16-.57,3.18.23h0ZM115.92,44.19h.45c0,.68.23,1.7-.68,1.58-.68-.11-.23-1.02-.11-1.58,0-.34.11-.34.34,0ZM175.53,42.83c.11-.23.23-.45.34-.57.23-.11.45.11.45.34,0,.68,0,1.36-.34,2.04-.34-.57.11-1.36-.45-1.81ZM154.07,44.19h.45c.34.43.34,1.04,0,1.47-.57.57-.79.11-.68-.34-.11-.45.11-.79.23-1.13h0Z"/>
      <path class="cls-1" d="M201.52,44.19c-.45-.45-.34-1.02-.45-1.47l.11-.79c.45.57.34,1.25.45,1.93.11,0,0,.23-.11.34ZM144.08,41.02c-.11-.45-.23-.91-.57-1.13.34-.57.68-.45.91.11.11.34-.11.68-.34,1.02h0ZM206.97,41.13c-.11-.45-.23-.91-.57-1.25.34-.57.68-.45.91,0,0,.45-.11.91-.34,1.25ZM62.67,41.13c0-.45-.23-.91-.57-1.25.45-.68.68-.45.91.11,0,.45-.11.91-.34,1.13h0ZM188.24,43.28c.57-.68,1.25-.57,1.93-.45-.45.68-1.25.11-1.93.45ZM116.37,43.73c-.11-.68-.11-1.36.34-2.04.23.79,0,1.47-.34,2.04h0ZM142.49,45.55l.91-.91c-.11.45.45,1.59-.91.91ZM187.79,41.13c.11.68.11,1.36-.34,2.04-.23-.68-.11-1.36.34-2.04ZM171.21,43.17c0-.34-.11-.68.23-.68.11,0,.34.23.57.34v.79s-.79-.45-.79-.45ZM74.48,45.32c0-.57,0-1.25.34-1.7.11.68.11,1.25-.34,1.7ZM115.92,44.19h-.34c-.11-.57,0-1.13.34-1.59v1.59ZM142.94,42.6c.11.57,0,1.13-.34,1.59-.11-.57,0-1.13.34-1.59ZM131.02,40.34l-.79-.45c0-.23.23-.34.45-.34.34.23.34.45.34.79ZM160.2,40.56l-.68-.79c.23-.34.45-.34.79-.11.34.23.11.57-.11.91ZM159.74,43.39c-.12-.55,0-1.13.34-1.58.11.57,0,1.02-.34,1.58h0Z"/>
      <path class="cls-1" d="M143.51,39.88c.11.57,0,1.02-.34,1.47-.11-.57-.11-1.13.34-1.47h0ZM154.98,43.28c-.12-.55,0-1.13.34-1.58.11.68,0,1.13-.34,1.58ZM143.62,43.73c-.11-.57,0-1.13.34-1.58,0,.68-.11,1.25-.34,1.59h0ZM188.7,42.26c-.57-.45-.45-.91-.11-1.36l.11,1.36ZM159.18,42.04c.11.57.11,1.13-.46,1.58l.46-1.58ZM61.99,40.11c0,.57,0,1.13-.34,1.59-.11-.45.11-1.02.34-1.59ZM74.37,41.58c0,.57,0,1.13-.34,1.58,0-.57.11-1.13.34-1.59h0ZM206.29,39.88c0,.57,0,1.02-.34,1.47-.11-.57,0-1.13.34-1.47h0ZM56.31,45.55l.91-.45c0,.57,0,1.36-.91.45ZM57.33,43.96c-.11-.57,0-1.13.34-1.7.11.57,0,1.13-.34,1.7ZM154.52,45.55v-1.47h.45c0,.57,0,1.13-.45,1.47ZM56.77,42.94c.11.45,0,.91-.34,1.25-.11-.45,0-.91.34-1.25h0ZM154.41,42.04v1.13c-.11.23-.23.23-.34,0-.11-.34,0-.79.34-1.13ZM159.63,39.77c.11.34,0,.79-.34,1.02-.11-.34,0-.68.34-1.02h0ZM60.63,43.17l-.34-.45.34.45h0ZM130.11,40.11l-.45.68c0-.23.23-.45.45-.68ZM60.29,44.19l.45.57c-.34-.23-.45-.34-.45-.57h0Z"/>
      <path class="cls-1" d="M154.07,43.17h.34l-.34.45v-.45ZM190.29,42.83c0-.11-.11-.34-.11-.45.45.11.45.23.11.45ZM54.04,10.33h-17.15c-.79,0-1.59,0-2.38.11-1.59.23-2.61,1.02-2.95,2.6-.11.57-.34,1.24-.34,1.81-1.13,8.6-2.38,17.21-3.52,25.82-.23,1.7-.34,3.4-2.04,4.64,1.82.23,3.52.34,5.11-.11,2.04-.45,3.41-1.7,3.75-3.74.23-1.47.57-2.94.79-4.42q.34-1.81,2.16-1.93c4.31,0,8.52,0,12.83-.11,2.72,0,3.63-.79,4.09-3.51.91-5.89,1.82-11.78,2.61-17.66.46-2.49-.23-3.28-2.95-3.51h0ZM48.02,26.86c-.11.91-.68,1.36-1.59,1.36h-9.76c.45-3.28.79-6.11,1.25-8.95.11-.9.46-1.81,1.7-1.81h9.65c-.34,3.28-.79,6.34-1.25,9.4h0ZM153.39,10.33c-.68-.11-1.48-.11-2.16-.11h-16.46c-4.43,0-4.77.34-3.75,4.76.34,1.47.91,2.04,2.38,2.26.91.11,1.7.11,2.61.11h11.24c.46,0,1.02-.11,1.02.57,0,.57-.23,1.13-.91,1.13s-1.25.11-1.93,0c-4.09,0-8.06,0-12.15.11-2.84.11-3.63.79-4.09,3.51-.45,2.83-.91,5.78-1.25,8.61-.34,2.94.34,3.74,3.29,3.74,5.9.11,11.92.11,17.82,0,3.07,0,3.97-.79,4.43-3.74.68-4.19,1.25-8.38,1.82-12.57.23-1.81.57-3.74.57-5.55.23-1.92-.45-2.6-2.5-2.83ZM145.89,28.11h-10.1c-.23-1.36.23-1.92,1.59-1.81h8.51c.45,0,1.02-.11,1.02.57.11.68-.23,1.25-1.02,1.25ZM103.09,39.54c-1.48-.34-2.27,0-2.5,1.25-.23,1.25-.34,2.49-.57,3.74.11.45.23.91.57,1.13-.11-.57,0-1.02.34-1.47.23-.79.57-1.36,1.36-.45.68.68.68,1.92,1.82,2.26l.23-.23c-.11-.34,0-3.62.11-4.08.34-1.13-.23-1.93-1.36-2.15ZM102.18,42.26c-.45,0-.68-.23-.57-1.02,0-.23,0-.79.79-.79.57,0,1.02.23,1.02.68,0,.79-.45,1.13-1.25,1.13ZM131.47,42.26c-.23-.34-.34-.68-.34-1.02l-.11-.79c-.23-.34-.34-.79-.79-.45-.11,0-.11.11-.11.23,0,.34-.23.57-.45.68-.11.11-.23.34-.34.45-.11.11-.23.23-.23.34v.57h.45l.45-.45c.23-.11.34-.11.34.11v.11c-.11.45.34,1.13-.23,1.36-.45.23-.91.11-1.02-.45l-.11-.57h-.45c-.68,1.13-1.7,2.15-1.93,3.62,1.36-.11,1.36-1.7,2.84-1.81,1.59-.11,1.25,1.7,2.5,1.81.45-1.47-.23-2.6-.45-3.74Z"/>
    </g>
  </g>
</svg>