<?xml version="1.0" encoding="UTF-8"?>
<svg id="Layer_2" data-name="Layer 2" xmlns="http://www.w3.org/2000/svg" viewBox="0 0 210.01 74">
  <defs>
    <style>
      .cls-1, .cls-2 {
        fill: #fff;
        stroke-width: 0px;
      }

      .cls-2 {
        fill-rule: evenodd;
      }
    </style>
  </defs>
  <g id="Layer_1-2" data-name="Layer 1">
    <g>
      <path class="cls-1" d="M188.51,50.02c-.24,0-.49.04-.71.13-.23.09-.43.23-.6.4-.18.17-.32.38-.42.61-.1.23-.14.48-.14.72,0,.24.04.48.14.69.1.22.24.42.41.58.17.17.38.3.61.39.22.09.47.13.71.13.24,0,.48-.04.7-.13.22-.09.42-.22.59-.39.17-.16.31-.36.41-.58.09-.22.14-.45.14-.69,0-.24-.05-.48-.14-.71-.1-.22-.24-.43-.41-.59-.16-.18-.36-.32-.58-.41s-.46-.15-.7-.15Z"/>
      <path class="cls-1" d="M133.53,65.03c-.37-.34-.8-.62-1.26-.82-.44-.21-.88-.4-1.34-.56-.35-.12-.86-.27-1.53-.44-.68-.18-1.11-.34-1.43-.44-.38-.14-.75-.3-1.11-.48-.36-.16-.67-.42-.89-.75-.18-.3-.27-.65-.27-1,0-.34.1-.67.29-.95.19-.28.46-.5.77-.63.74-.36,1.57-.52,2.39-.44,1.28.06,2.49.56,3.44,1.42l1.55-1.89c-.74-.57-1.58-1-2.48-1.27-.96-.32-1.97-.48-2.98-.48-1.47-.04-2.91.41-4.09,1.27-.54.37-.98.86-1.28,1.44-.3.58-.45,1.22-.44,1.87,0,.43.06.86.19,1.27.13.39.34.74.63,1.03.26.27.53.52.82.75.35.25.73.45,1.13.59.51.2.89.34,1.14.44l1.23.4,1.2.36c.23.08.56.2.99.38.33.12.64.29.92.51.2.18.37.38.51.61.16.25.24.55.24.85,0,.35-.09.69-.26.98-.18.3-.43.54-.73.71-.75.44-1.61.64-2.48.56-.98-.03-1.95-.24-2.86-.61-.79-.27-1.48-.75-2-1.39l-1.46,1.83c.74.79,1.68,1.38,2.71,1.72,1.2.46,2.47.69,3.76.69,1.57.06,3.11-.41,4.38-1.33.55-.39.99-.9,1.3-1.5.31-.6.46-1.26.46-1.92,0-.56-.11-1.12-.35-1.63-.19-.42-.45-.81-.77-1.15Z"/>
      <path class="cls-1" d="M143.53,70.19c-1.39,0-2.09-.78-2.09-2.32v-9.13h4.25v-2.17h-4.29v-5.33h-2.78v5.33h-2.05v2.17h2.05v9.13c-.02.63.08,1.26.31,1.84.23.59.58,1.12,1.03,1.56.47.44,1.02.78,1.62,1.01.6.22,1.24.32,1.89.3,1.43,0,2.54-.41,3.32-1.23l-1.54-1.88c-.22.24-.48.42-.78.55-.29.12-.61.19-.93.18Z"/>
      <path class="cls-1" d="M160.2,66.05c0,.54-.1,1.07-.31,1.57-.21.49-.53.94-.93,1.31-.4.38-.87.69-1.38.89-.51.2-1.07.3-1.62.29-.54.01-1.09-.09-1.59-.29-.51-.2-.96-.5-1.35-.89-.39-.37-.69-.82-.9-1.31-.21-.49-.31-1.03-.3-1.56v-9.48h-2.78v9.77c-.02.82.13,1.64.44,2.4.31.76.77,1.46,1.35,2.04.57.59,1.26,1.06,2.02,1.37.76.31,1.58.47,2.4.45.97.02,1.94-.19,2.81-.62.88-.43,1.64-1.05,2.22-1.83l.16,2.1h2.56v-15.68h-2.81v9.48Z"/>
      <path class="cls-1" d="M179.09,58.71c-.61-.78-1.4-1.41-2.29-1.84-.9-.43-1.89-.63-2.88-.61-1-.04-2,.16-2.91.56-.91.4-1.72,1.01-2.37,1.78-1.29,1.67-1.99,3.72-1.99,5.82s.7,4.15,1.99,5.82c.64.76,1.45,1.37,2.36,1.78.91.41,1.91.6,2.91.56,1.02.02,2.04-.2,2.96-.65.92-.45,1.71-1.11,2.32-1.93l.13,2.26h2.49v-23.53h-2.72v9.98ZM179.09,66.11c-.26,1.12-.88,2.12-1.75,2.87-.94.8-2.17,1.19-3.4,1.1-1.24-.09-2.39-.67-3.2-1.6-.87-1.18-1.35-2.61-1.35-4.07s.47-2.89,1.35-4.07c.4-.47.88-.85,1.43-1.13.55-.28,1.15-.45,1.76-.49.61-.05,1.23.03,1.82.22.58.19,1.13.5,1.59.9.88.76,1.49,1.77,1.75,2.89v3.39Z"/>
      <path class="cls-1" d="M189.86,56.57h-2.78v15.69h2.78v-15.69Z"/>
      <path class="cls-1" d="M201.77,56.26c-1.04-.03-2.08.16-3.04.56-.96.4-1.82,1.01-2.52,1.78-1.39,1.62-2.15,3.68-2.15,5.81s.76,4.19,2.15,5.81c.72.74,1.58,1.34,2.53,1.74.96.4,1.98.61,3.02.61s2.06-.21,3.02-.61c.95-.4,1.82-1,2.53-1.74,1.4-1.62,2.16-3.68,2.16-5.81s-.77-4.19-2.16-5.81c-.69-.77-1.55-1.38-2.51-1.79-.96-.41-1.99-.6-3.04-.57ZM205.37,68.47c-.45.51-1,.92-1.63,1.2-.62.28-1.3.43-1.98.43s-1.36-.14-1.98-.43c-.62-.28-1.18-.69-1.63-1.2-.87-1.18-1.35-2.61-1.35-4.07s.47-2.89,1.35-4.07c.45-.51,1-.92,1.62-1.21.62-.28,1.3-.43,1.98-.43s1.36.15,1.98.43c.62.28,1.17.69,1.62,1.21.89,1.17,1.37,2.6,1.37,4.06s-.48,2.89-1.37,4.06l.02.02Z"/>
      <path class="cls-1" d="M197.56,13.86c3.6,0,6.58.97,8.94,2.92,2.35,1.94,3.53,4.75,3.52,8.4v18.14h-5.71l-.29-3.58c-3.33,2.77-6.67,4.16-10,4.16-1.18.04-2.37-.16-3.47-.59-1.1-.43-2.11-1.07-2.96-1.9-.84-.83-1.49-1.82-1.93-2.91-.43-1.09-.64-2.26-.6-3.43-.04-1.32.26-2.64.86-3.82.6-1.18,1.5-2.19,2.6-2.94,2.31-1.65,5.75-2.18,10.32-1.56l4.83.64v-2.62c0-1.85-.6-3.22-1.79-4.13-1.34-.95-2.95-1.43-4.59-1.36-1.36-.02-2.7.29-3.91.89-1.21.6-2.26,1.49-3.06,2.58l-4.42-4c2.67-3.27,6.56-4.9,11.67-4.9ZM191.63,34.73c-.02.48.06.96.25,1.4.19.44.47.84.83,1.16.79.66,1.79,1,2.82.95,2.48,0,5.2-1.19,8.14-3.58v-2.61l-3.84-.58c-5.46-.81-8.19.27-8.2,3.24h0Z"/>
      <path class="cls-1" d="M89.25,43.9c-2.34,0-4.66-.4-6.86-1.15-2.29-.77-4.05-1.75-5.29-2.94l3.2-4.44c.78.89,2.01,1.65,3.69,2.28,1.57.61,3.23.97,4.92,1.07,1.38.13,2.76-.14,3.98-.78.46-.23.85-.58,1.12-1.01.27-.43.42-.93.42-1.45,0-.52-.13-1.03-.4-1.47-.27-.44-.65-.81-1.11-1.04-1.48-.79-3.04-1.42-4.65-1.88-.97-.31-1.63-.52-1.98-.63-.35-.12-.97-.35-1.86-.69-.67-.24-1.31-.53-1.92-.89-.38-.25-.89-.59-1.54-1.04-.55-.35-1.02-.81-1.37-1.36-.3-.53-.56-1.09-.76-1.67-.23-.67-.35-1.37-.35-2.08,0-2.55,1.08-4.65,3.23-6.33,2.15-1.67,4.78-2.51,7.88-2.51,1.96,0,3.91.31,5.78.89,1.75.5,3.41,1.27,4.92,2.28l-3.49,4.44c-1.7-1.46-3.81-2.34-6.05-2.54-1.34-.17-2.7.03-3.93.59-1.18.56-1.79,1.33-1.79,2.34,0,.36.06.71.2,1.04.18.35.44.66.76.89.37.29.67.52.93.7.42.25.87.45,1.34.6.66.23,1.14.4,1.46.49l1.69.55c1.17.33,2.33.71,3.46,1.16.99.43,1.94.93,2.85,1.5,1,.59,1.82,1.44,2.38,2.46.55,1.08.82,2.28.79,3.49.02,1.28-.28,2.54-.85,3.68-.58,1.14-1.42,2.13-2.46,2.87-2.19,1.73-4.97,2.59-8.33,2.59Z"/>
      <path class="cls-1" d="M118.08,13.86c3.61,0,6.59.97,8.94,2.92,2.35,1.94,3.52,4.75,3.52,8.4v18.14h-5.71l-.29-3.58c-3.33,2.77-6.67,4.16-10,4.16-1.18.04-2.36-.16-3.47-.59-1.1-.43-2.11-1.07-2.96-1.9-.84-.83-1.49-1.82-1.93-2.91-.43-1.09-.64-2.26-.6-3.43-.04-1.33.25-2.64.86-3.82.6-1.18,1.5-2.2,2.6-2.95,2.31-1.65,5.75-2.18,10.32-1.56l4.82.64v-2.6c0-1.85-.6-3.22-1.79-4.13-1.34-.95-2.95-1.43-4.59-1.36-1.36-.02-2.7.29-3.91.89-1.21.6-2.26,1.49-3.06,2.58l-4.42-4c2.67-3.27,6.56-4.9,11.68-4.9ZM112.17,34.72c-.03.48.06.96.24,1.41.18.45.47.85.82,1.17.78.66,1.79,1,2.82.95,2.48,0,5.19-1.19,8.14-3.58v-2.61l-3.83-.58c-5.46-.81-8.19.27-8.19,3.24Z"/>
      <path class="cls-1" d="M148.78,43.9c-3.1,0-5.56-.9-7.38-2.71-1.82-1.81-2.73-4.18-2.73-7.1V0h6.45l.06,34.08c0,2.89,1.26,4.33,3.78,4.33.6.02,1.2-.09,1.76-.33.55-.24,1.05-.6,1.44-1.05l3.54,4.33c-1.63,1.7-3.93,2.54-6.92,2.54Z"/>
      <path class="cls-1" d="M168.72,43.9c-2.33,0-4.65-.4-6.86-1.15-2.29-.77-4.05-1.75-5.29-2.94l3.2-4.44c.77.89,2,1.65,3.69,2.28,1.57.61,3.23.97,4.91,1.07,1.38.13,2.76-.14,3.99-.78.46-.23.85-.58,1.12-1.01.27-.43.42-.93.42-1.45,0-.52-.13-1.03-.4-1.47-.27-.44-.65-.81-1.11-1.04-1.48-.79-3.04-1.42-4.66-1.88-.97-.31-1.63-.52-1.97-.63-.35-.12-.97-.35-1.86-.69-.67-.24-1.31-.53-1.92-.89-.39-.25-.89-.59-1.54-1.04-.55-.35-1.01-.82-1.35-1.37-.31-.53-.56-1.09-.76-1.67-.24-.67-.35-1.37-.35-2.08,0-2.55,1.08-4.65,3.23-6.33,2.15-1.67,4.78-2.51,7.88-2.51,1.96,0,3.91.31,5.78.89,1.75.5,3.41,1.27,4.92,2.28l-3.49,4.44c-1.7-1.46-3.81-2.34-6.05-2.54-1.35-.17-2.71.04-3.95.61-1.18.56-1.79,1.33-1.79,2.34,0,.36.06.71.2,1.04.18.35.44.66.76.89.37.29.68.52.93.7.43.25.89.46,1.36.6.66.23,1.14.4,1.46.49l1.68.55c1.17.33,2.33.71,3.46,1.16.99.43,1.94.93,2.85,1.5,1.02.59,1.86,1.45,2.42,2.48.55,1.08.81,2.28.78,3.49.02,1.28-.27,2.54-.85,3.68-.58,1.14-1.42,2.13-2.46,2.88-2.23,1.71-5.03,2.57-8.4,2.57Z"/>
      <path class="cls-2" d="M34,69.64c16.35,0,29.61-13.17,29.61-29.41s-13.26-29.41-29.61-29.41S4.39,23.98,4.39,40.23s13.26,29.41,29.61,29.41ZM43.69,18.86s.98,1.48-4.98,3.61c-.78.28-1.68.58-2.65.9-6.51,2.16-16.41,5.43-15.7,11.53,0,0,.33,4.49,5.68,6.62-.11-.04-.58-.24-1.07-.58l12.83,5.35c-.87.3-1.84.61-2.93.93-15.7,4.54-14.45,10.25-14.45,10.25,0,0,0,3.13,3.61,4.11,0,0-.95-1.5,5.05-3.53.78-.27,1.69-.55,2.68-.85,6.55-2.04,16.5-5.13,15.9-11.24,0,0-.24-4.42-5.44-6.67-2.97-1.4-9.18-3.85-11.91-4.92.84-.31,1.77-.62,2.82-.95,15.62-4.82,14.26-10.51,14.26-10.51,0,0-.06-3.13-3.68-4.05Z"/>
      <path class="cls-2" d="M34,6.45c-6.72,0-13.3,1.98-18.89,5.69-5.59,3.71-9.95,8.99-12.52,15.16C.01,33.47-.66,40.26.65,46.82c1.31,6.55,4.55,12.57,9.3,17.3,4.75,4.72,10.81,7.94,17.41,9.24,6.6,1.3,13.43.63,19.64-1.92,6.21-2.56,11.52-6.89,15.26-12.44,3.74-5.55,5.73-12.09,5.73-18.77,0-8.96-3.58-17.55-9.96-23.89-6.38-6.33-15.02-9.89-24.04-9.89ZM34,71.4c-6.21,0-12.28-1.83-17.44-5.25-5.16-3.43-9.19-8.3-11.56-13.99-2.38-5.7-3-11.97-1.79-18.02,1.21-6.05,4.2-11.61,8.59-15.97,4.39-4.36,9.98-7.33,16.07-8.53,6.09-1.2,12.4-.59,18.13,1.78s10.64,6.36,14.08,11.49c3.45,5.13,5.29,11.16,5.29,17.33-.01,8.27-3.32,16.19-9.2,22.03-5.88,5.84-13.86,9.13-22.18,9.14Z"/>
    </g>
  </g>
</svg>