<?xml version="1.0" encoding="UTF-8"?>
<svg id="Layer_2" data-name="Layer 2" xmlns="http://www.w3.org/2000/svg" viewBox="0 0 224 25">
  <defs>
    <style>
      .cls-1 {
        fill: #fff;
        stroke-width: 0px;
      }
    </style>
  </defs>
  <g id="Layer_1-2" data-name="Layer 1">
    <g>
      <path class="cls-1" d="M80.87,1.35h22.29l-2.33,3.58h-2.39v-1.43h-2.87v12.41h2.87l-.97,2.25h-10.8l-1.01-2.25h3.6V3.5h-3.12v1.43h-2.87l-2.41-3.58Z"/>
      <path class="cls-1" d="M37.26,7.36l1.76-3.85,1.59,3.85h-3.35ZM49.46,15.91l-1.89-5.39v-3.17h-1.19l-1.25-3.85h2l-1.72-2.15h-12.88l-1.66,2.15h1.35l-4.65,12.41h-.97l.11,2.26h8.05l1.18-2.26h-2.04l2.35-5.4h5.12l2.11,5.4h-3.08l1.31,2.26h8.75l1.03-2.26h-2.04"/>
      <path class="cls-1" d="M74.81,13.55c-2.99,0-5.44-1.93-5.44-4.29s2.45-4.32,5.44-4.32,5.44,1.93,5.44,4.32-2.45,4.29-5.44,4.29h0ZM73.55,1.35c-5.92,0-10.74,3.77-10.74,8.41s4.82,8.41,10.74,8.41,10.74-3.79,10.74-8.41-4.82-8.41-10.74-8.41Z"/>
      <path class="cls-1" d="M46.84,1.35h17.49c-3.8,9.7-2.71,20.03-18.09,23.64-.43.06-.69-.37-.34-.77,7.16-4.09,8.65-12.13,10.32-20.72h-4.71v1.43h-2.22l-2.44-3.58Z"/>
      <path class="cls-1" d="M8.13,3.5l-1.22-2.15h11.76l-1.01,2.15h-1.03l-1.28,3.85h1.26l6.23-6h8.46l-12.07,6h3.85l.53,8.55h2.2l-1.36,2.26h-8.92l-1.34-2.26h2.95v-5.53h-2.82c-1.7,3.93-4.46,8.51-13.53,11.47-.63.28-1.1-.44-.56-.79C8.18,15.91,7.9,9.83,9.49,3.51h-1.36"/>
      <path class="cls-1" d="M134.32,18.07c-.32,0-.63-.04-.95-.1-.34-.07-.68-.18-1-.32-.34-.15-.66-.34-.95-.56-.31-.24-.59-.52-.82-.84-.24-.35-.43-.73-.56-1.14-.14-.47-.21-.96-.21-1.44v-7.8c0-.31.04-.63.1-.93.07-.34.18-.67.32-.98.15-.33.35-.65.58-.94.24-.31.54-.58.86-.8.35-.24.74-.43,1.15-.55.47-.14.97-.21,1.46-.21h12.26v3.61h-12.26c-.28,0-.49.06-.62.19-.13.13-.19.34-.19.63v7.77c-.02.11,0,.22.03.32.04.1.09.2.17.28.08.08.18.14.28.17.11.03.22.04.33.03h8.73v-2.88h-7.78v-3.63h9.6c.24,0,.49.05.71.14.23.09.43.23.6.4.17.16.3.36.39.57.1.22.14.46.14.7v6.49c0,.25-.05.49-.14.72-.09.22-.22.41-.39.58-.17.17-.37.3-.59.39-.23.09-.48.14-.73.14h-10.55Z"/>
      <path class="cls-1" d="M161.92,18.07v-3.9h-9.54v3.9h-3.67v-8.31c-.01-1.14.2-2.28.63-3.34.4-.99,1-1.88,1.77-2.64.77-.74,1.68-1.33,2.68-1.72,1.07-.42,2.21-.62,3.36-.61h6.59c.25,0,.49.05.72.14.22.09.42.22.59.39.17.17.31.37.4.59.09.22.14.46.14.7v14.79h-3.67ZM161.92,10.56v-5.49h-4.77c-.09,0-.26.01-.54.04-.32.03-.63.09-.93.18-.39.11-.77.26-1.13.45-.4.21-.76.48-1.06.81-.35.38-.62.82-.8,1.3-.23.61-.33,1.27-.32,1.92v.8h9.54Z"/>
      <path class="cls-1" d="M177.99,18.3c-.31,0-.62-.07-.89-.22-.28-.15-.52-.38-.67-.67l-4.51-7.78v8.45h-3.67V3.06c0-.4.13-.79.37-1.11.24-.32.59-.55.98-.65.15-.04.31-.06.46-.06h.13c.19.01.38.05.56.12.18.07.35.17.51.29.15.13.28.28.39.46l6.34,10.85,6.34-10.85c.21-.34.52-.61.9-.76.22-.09.45-.13.69-.13.16,0,.33.02.49.06.39.11.73.33.98.65.25.32.39.71.38,1.11v15.02h-3.68v-8.44l-4.49,7.78c-.16.28-.39.51-.68.66-.28.15-.6.22-.92.22h0Z"/>
      <path class="cls-1" d="M205.73,5.07V1.46h-13.54c-.25,0-.5.05-.73.14-.22.09-.42.22-.59.39-.17.17-.3.36-.39.58-.1.22-.14.46-.14.71v10.4c-.02.71.14,1.42.45,2.06.27.53.65.99,1.12,1.37.43.34.93.6,1.46.76.47.14.95.22,1.44.23h10.92v-3.61h-10.9c-.29,0-.5-.06-.63-.19-.13-.13-.19-.33-.19-.61v-2.08h10.4v-3.63h-10.4v-2.88h11.72Z"/>
      <path class="cls-1" d="M207.27,18.07v-3.61h11.65c.46,0,.8-.13,1.04-.37.25-.24.37-.6.37-1.06,0-.21-.03-.41-.1-.6-.06-.17-.15-.32-.28-.45-.12-.13-.27-.22-.43-.29-.19-.07-.39-.11-.6-.11h-6.73c-.56,0-1.11-.09-1.64-.26-.6-.18-1.16-.48-1.65-.87-.53-.43-.96-.96-1.27-1.57-.34-.64-.51-1.44-.51-2.36s.17-1.71.51-2.36c.29-.58.7-1.1,1.2-1.52.5-.42,1.08-.74,1.71-.93.53-.17,1.08-.26,1.64-.26h10.32v3.61h-10.32c-.45,0-.78.13-1.02.39-.24.26-.37.61-.37,1.07s.12.81.36,1.06c.24.25.58.37,1.03.37h6.73c.37,0,.74.05,1.1.14.8.18,1.55.54,2.19,1.05.35.28.66.6.91.97.27.4.49.83.63,1.3.16.53.24,1.08.23,1.64,0,.56-.07,1.11-.24,1.65-.14.46-.35.9-.63,1.3-.25.37-.56.7-.92.97-.65.5-1.4.84-2.2,1.01-.36.08-.72.12-1.08.12h-11.65Z"/>
      <path class="cls-1" d="M122.19,2.74c-2.1-1.93-5-2.94-7.76-2.7h-.04v.03h0v-.02c-1.04.1-2.05.36-2.99.79-3.2,1.37-5.31,4.26-5.65,7.73h.04v.02h-.03c-.19,1.95.21,3.91,1.15,5.63,1.01,1.82,2.63,3.25,4.57,4.04,1.2.53,2.51.81,3.82.8.34,0,.67-.02,1.01-.05h0l.04.02.02-.03c.63-.07,1.25-.2,1.85-.38,1.96-.59,3.69-1.75,4.99-3.31,1.33-1.6,2.05-3.62,2.02-5.69.06-2.6-1.01-5.05-3.02-6.9ZM118.87,8.58c-.03-.14-.05-.28-.09-.43,1.3-.51,2.53-1.16,3.68-1.94.5,1.08.75,2.25.74,3.43,0,.19,0,.39,0,.59-1.04.92-2.36,1.73-3.94,2.4.05-1.36-.08-2.71-.39-4.04h0ZM122.72,12.57c-.73,1.93-2.18,3.51-4.06,4.41.2-.87.36-1.75.47-2.64,1.27-.43,2.48-1.03,3.6-1.77h0ZM121.6,4.74c-.75.63-1.93,1.31-3.26,1.9-.6-1.64-1.59-3.44-2.97-5.35,1.23.1,2.42.46,3.49,1.06,1.07.6,2.01,1.41,2.73,2.39h0ZM113.07,15.47c1.71-.06,3.41-.33,5.06-.81.05.91.07,1.76.04,2.54-.98.4-2.02.61-3.08.63-.75-.72-1.43-1.51-2.02-2.36h0ZM106.65,8.27c.43-2.67,2.07-4.93,4.41-6.11-1.11,1.95-1.74,4.14-1.84,6.37-.86-.02-1.72-.11-2.57-.26h0ZM110.65,8.51c-.07-2.38.31-4.85,1.01-6.63h.02s.12-.06.12-.06c.98-.38,2.02-.57,3.07-.56.86,1.92,1.57,3.9,2.13,5.92-2.04.75-4.18,1.2-6.35,1.32h0ZM112.32,14.28c-.66-1.13-1.15-2.35-1.47-3.61-.06-.31-.1-.64-.13-.99,2.26,0,4.51-.36,6.66-1.04.03.13.07.27.1.4.24,1.55.41,2.84.52,4.06-1.84.63-3.75,1.03-5.69,1.19ZM110.8,14.35c-1.01.02-2.03-.09-3.02-.31-.9-1.44-1.33-3.12-1.24-4.81.88.21,1.78.35,2.69.41.03.44.09.88.19,1.32.23,1.21.69,2.36,1.37,3.4h0ZM108.12,14.43l-.05.03-.06-.08s.08.04.11.05h0ZM108.16,14.45h0s0-.02,0-.03,0-.02,0-.03c0,0-.01.01-.02.02,0-.01,0-.02,0-.03,0,0,0-.01.01-.02l.05.03v.08s-.03.01-.03.01c0,0-.01-.02-.01-.03h0ZM111.61,15.46c.73.88,1.58,1.66,2.53,2.32-.83-.08-1.64-.29-2.41-.6h0c-1.22-.46-2.31-1.19-3.18-2.15,1,.25,2.03.39,3.06.43h0Z"/>
    </g>
  </g>
</svg>