<?xml version="1.0" encoding="UTF-8"?>
<svg id="Layer_2" data-name="Layer 2" xmlns="http://www.w3.org/2000/svg" viewBox="0 0 226 51">
  <defs>
    <style>
      .cls-1 {
        fill: #fff;
        stroke-width: 0px;
      }
    </style>
  </defs>
  <g id="Layer_1-2" data-name="Layer 1">
    <path class="cls-1" d="M13.08,28.65c-3.55,0-6.42-2.89-6.42-6.46s2.87-6.46,6.42-6.46,6.42,2.89,6.42,6.46c-.04,3.57-2.91,6.46-6.42,6.46ZM26.11,9.07h-6.62v1.73c-1.96-1.11-4.17-1.69-6.42-1.69C5.9,9.11.04,15.01.04,22.23s5.82,13.08,13.04,13.08,13.04-5.9,13.04-13.12v-13.12h0ZM6.62,51H0c0-7.18,5.82-13.04,12.96-13.04h13.16v6.66h-13.16c-3.51-.04-6.34,2.85-6.34,6.38ZM35.4,35.31h-6.62v-13.24c0-7.18,5.82-13.04,12.96-13.04v6.66c-3.51,0-6.38,2.89-6.38,6.42v13.2h.04ZM156.51,35.31c-7.18,0-13-5.86-13-13.04v-13.2h6.62v13.2c0,3.53,2.87,6.42,6.38,6.42s6.38-2.89,6.38-6.42v-13.2h6.62v13.2c-.04,7.18-5.86,13.04-13,13.04ZM124.58,35.31h-6.58v-13.16c0-3.53-2.87-6.42-6.38-6.42s-6.38,2.89-6.38,6.42v13.16h-6.62v-13.16c0-7.18,5.82-13.04,12.96-13.04s12.96,5.86,12.96,13.04v13.16h.04ZM185.5,28.69c-3.51,0-6.38-2.89-6.38-6.42s2.87-6.42,6.38-6.42,6.38,2.89,6.38,6.42-2.87,6.42-6.38,6.42ZM185.5,9.23c-2.31,0-4.51.6-6.38,1.69V0h-6.62v22.27c0,7.18,5.82,13.04,12.96,13.04s12.96-5.86,12.96-13.04-5.78-13.04-12.92-13.04ZM140.25,15.73v-6.66h-6.38V0h-6.62v22.19c0,7.18,5.82,13.04,12.96,13.04v-6.62c-3.51,0-6.38-2.89-6.38-6.42v-6.46s6.42,0,6.42,0ZM68.05,25.6c.28-1.04.44-2.17.44-3.33,0-7.18-5.82-13.04-12.96-13.04s-12.96,5.86-12.96,13.04,5.78,13.04,12.92,13.04c5.26,0,9.85-3.17,11.84-7.75h-8.29c-1.05.73-2.3,1.13-3.59,1.12-3.51,0-6.38-2.89-6.38-6.42s2.87-6.42,6.38-6.42c2.24,0,4.31,1.18,5.46,3.09h-7.22v6.66h14.35,0ZM81.76,25.6v-6.66h7.22c-1.15-1.91-3.23-3.09-5.46-3.09-3.51,0-6.38,2.89-6.38,6.42s2.87,6.42,6.38,6.42c1.28,0,2.54-.39,3.59-1.12h8.29c-2.05,4.71-6.7,7.75-11.84,7.74-7.14,0-12.96-5.86-12.96-13.04s5.82-13.04,12.96-13.04,12.96,5.86,12.96,13.04c0,1.17-.16,2.25-.44,3.33h-14.31ZM218.46,25.6h-7.21v-6.66h7.21c-1.15-1.91-3.23-3.09-5.46-3.09-3.51,0-6.38,2.89-6.38,6.42s2.87,6.42,6.38,6.42c1.28,0,2.54-.39,3.59-1.12h8.29c-2.03,4.57-6.58,7.74-11.84,7.74-7.14,0-12.96-5.86-12.96-13.04s5.78-13.04,12.96-13.04,12.96,5.86,12.96,13.04c0,1.17-.16,2.25-.44,3.33h-7.1Z"/>
  </g>
</svg>