<?xml version="1.0" encoding="UTF-8"?>
<svg id="Layer_2" data-name="Layer 2" xmlns="http://www.w3.org/2000/svg" viewBox="0 0 223.61 69.47">
  <defs>
    <style>
      .cls-1 {
        fill: #fff;
        stroke-width: 0px;
      }
    </style>
  </defs>
  <g id="Layer_1-2" data-name="Layer 1">
    <g>
      <path class="cls-1" d="M31.93,69.45c-1.5-.08-2.99-.16-4.48-.24-1.75-.09-3.51-.18-5.26-.28-.11,0-.24-.09-.34-.18-3.63-2.98-7.26-5.97-10.89-8.96-1.56-1.29-3.12-2.58-4.68-3.87-.11-.09-.22-.26-.28-.42-1.08-3.23-2.18-6.45-3.23-9.7-.39-1.21-.65-2.49-.96-3.76-.6-2.45-1.18-4.9-1.78-7.35-.05-.22-.04-.4.02-.61.39-1.32.79-2.65,1.17-3.98,1.54-5.36,3.08-10.72,4.62-16.08.05-.17.11-.33.14-.5.07-.4.28-.59.53-.76.09-.06.17-.13.25-.21,2.53-2.25,5.04-4.55,7.6-6.76,1.05-.92,2.18-1.66,3.27-2.49,1.41-1.06,2.83-2.11,4.25-3.15.1-.08.22-.12.34-.12,6.44-.02,12.89-.03,19.33-.04.1,0,.19.04.28.1,2.68,1.99,5.38,3.96,8.04,5.99.89.68,1.71,1.52,2.55,2.3,1.71,1.57,3.43,3.15,5.14,4.72.1.09.2.26.25.42,1.94,6.69,3.88,13.38,5.81,20.07,0,.03,0,.05.02.08.31.51.17,1.02.03,1.57-.85,3.38-1.65,6.78-2.52,10.15-.31,1.22-.76,2.38-1.15,3.56-.73,2.19-1.47,4.38-2.19,6.58-.07.22-.17.36-.31.48-5.02,4.13-10.04,8.26-15.06,12.42-.43.36-.85.54-1.35.56-1.47.05-2.93.14-4.4.22-1.42.08-2.84.17-4.26.25-.16,0-.31,0-.47,0-.01,0-.01,0-.01,0ZM41.56,48.94c1.94,3.03,3.87,6.03,5.8,9.04.03-.04.05-.06.06-.09.61-1.16,1.21-2.32,1.81-3.49.04-.07.06-.16.07-.24.03-.53.05-1.05.08-1.57.09-1.61.17-3.23.26-4.85.05-.79.08-1.57.12-2.39-.08.02-.15.03-.21.05-1.96.61-3.91,1.23-5.87,1.84-.05.02-.12.03-.16.08-.65.53-1.29,1.06-1.96,1.61ZM14.07,45.35c.05.82.08,1.59.12,2.36.11,2.11.22,4.23.34,6.34,0,.15.05.31.11.44.56,1.09,1.13,2.19,1.7,3.28.04.08.08.15.13.23,1.94-3.02,3.87-6.03,5.8-9.05-.67-.55-1.32-1.09-1.97-1.62-.05-.04-.11-.05-.17-.07-1.45-.46-2.91-.92-4.36-1.37-.57-.18-1.13-.35-1.72-.54ZM11.85,37.62c.07-.09.12-.17.17-.23,1.15-1.63,2.29-3.28,3.45-4.9.28-.39.49-.79.61-1.3.16-.64.35-1.26.54-1.91-3.14-1.16-6.27-2.31-9.41-3.46.11,1.33.21,2.61.33,3.89.02.21.09.43.18.59.95,1.71,1.91,3.41,2.87,5.11.42.73.83,1.46,1.26,2.21ZM51.95,37.63c.05-.07.06-.09.07-.11,1.39-2.47,2.78-4.93,4.17-7.4.04-.08.07-.17.08-.26.05-.52.1-1.04.14-1.56.07-.82.14-1.64.21-2.5-3.15,1.16-6.28,2.31-9.41,3.46.25.88.49,1.72.73,2.56.02.09.08.16.13.23,1.25,1.79,2.51,3.57,3.76,5.35.04.07.08.14.13.22ZM46.85,58.37c-1.94-3.03-3.85-6.02-5.78-9.02-.69.57-1.38,1.13-2.06,1.7-.05.04-.09.11-.12.17-1.1,1.88-2.2,3.76-3.3,5.65-.03.04-.05.09-.07.16.06.02.1.04.15.05,2.46.73,4.92,1.45,7.39,2.17.1.03.19.03.29,0,.83-.2,1.66-.42,2.49-.62.33-.09.66-.17,1.01-.26ZM28.32,57.03c-.03-.06-.04-.09-.05-.11-1.12-1.91-2.23-3.82-3.35-5.73-.03-.05-.07-.11-.11-.14-.68-.56-1.35-1.12-2.04-1.69-1.92,3-3.84,5.99-5.77,9.01.07.03.1.04.13.05,1.01.26,2.02.51,3.03.76.22.05.45.12.65.06,2.09-.59,4.18-1.21,6.26-1.83.4-.13.81-.26,1.24-.39ZM40.71,13.82c-.06-.09-.1-.15-.14-.2-1.59-2.19-3.17-4.38-4.77-6.56-.06-.09-.15-.16-.23-.2-1.06-.52-2.12-1.04-3.17-1.57-.05-.03-.1-.04-.17-.06v11.11h.22c.7,0,1.41,0,2.1,0,.12,0,.25-.03.37-.08.92-.39,1.84-.78,2.75-1.16,1-.43,2-.85,3.02-1.28ZM31.6,16.34V5.22c-.08.03-.14.06-.2.09-1.02.5-2.04,1.01-3.06,1.52-.13.07-.27.18-.37.32-1.54,2.1-3.07,4.22-4.6,6.32-.08.11-.18.17-.28.26.11.12.17.14.23.17,1.75.75,3.51,1.49,5.26,2.24.17.08.35.2.53.2.83.02,1.66.01,2.49.01ZM56.41,25.05c-.1-.1-.15-.16-.2-.22-.7-.89-1.39-1.79-2.09-2.67-.1-.13-.24-.25-.38-.31-1.83-.82-3.67-1.64-5.5-2.46-.57-.25-1.14-.51-1.73-.76,0,.13-.02.23-.02.34-.08,2.13-.16,4.26-.25,6.39-.01.34.02.65.12.96.19.61.35,1.23.53,1.84.04.12.07.24.11.36,3.13-1.15,6.24-2.3,9.42-3.47ZM16.84,28.53c.25-.88.5-1.73.74-2.58.03-.09.02-.21.01-.31-.07-1.86-.14-3.73-.21-5.6-.01-.46-.04-.92-.06-1.39-.06.02-.1.04-.14.05-2.4,1.07-4.8,2.14-7.2,3.21-.08.04-.16.11-.23.2-.72.92-1.44,1.84-2.16,2.77-.05.06-.09.12-.15.21,3.14,1.15,6.25,2.29,9.38,3.45ZM32.24,35.6v11.84h7.59c-2.53-3.96-5.05-7.88-7.59-11.84ZM24,47.45h7.59v-11.84c-2.54,3.96-5.05,7.88-7.59,11.84ZM32.23,18.68v14.67c2.07-3.22,4.1-6.4,6.15-9.6-2.06-1.69-4.09-3.37-6.15-5.07ZM31.61,33.36v-14.68c-2.06,1.7-4.1,3.37-6.16,5.08,2.05,3.2,4.09,6.38,6.16,9.61ZM40.39,47.09c.79-2.76,1.56-5.47,2.35-8.19-3.31-1.22-6.6-2.43-9.95-3.67,2.55,3.98,5.06,7.9,7.6,11.86ZM23.45,47.09c2.54-3.96,5.05-7.87,7.56-11.79,0-.02-.01-.03-.02-.04-3.29,1.21-6.58,2.42-9.89,3.64.78,2.73,1.56,5.44,2.35,8.19ZM18.78,29.24c4.09,1.51,8.13,2.99,12.17,4.48,0-.02.02-.04.03-.06-2.02-3.15-4.04-6.31-6.07-9.47-2.04,1.68-4.06,3.35-6.13,5.04ZM38.92,24.19c-2.03,3.16-4.05,6.31-6.07,9.47,0,.02.02.04.03.06,4.04-1.49,8.08-2.98,12.17-4.48-2.06-1.69-4.09-3.36-6.13-5.04ZM30.7,34.5s0-.03,0-.05c-4.04-1.49-8.08-2.98-12.17-4.48.79,2.76,1.56,5.45,2.34,8.15,3.3-1.2,6.57-2.41,9.83-3.61ZM33.13,34.45s0,.03,0,.05c3.27,1.21,6.55,2.41,9.83,3.62.78-2.71,1.55-5.41,2.34-8.15-4.09,1.5-8.12,2.99-12.16,4.47ZM58.3,27.69c-.48.85-.94,1.66-1.4,2.49-.05.08-.07.19-.08.29-.1,1.14-.19,2.28-.29,3.42-.14,1.63-.28,3.27-.41,4.9-.1,1.13-.19,2.26-.29,3.42.05-.05.1-.08.13-.11,1.4-1.5,2.8-3,4.19-4.51.05-.06.09-.19.09-.29-.02-.63-.05-1.26-.08-1.89-.09-1.77-.17-3.53-.27-5.3,0-.09-.02-.2-.06-.27-.5-.71-1.01-1.42-1.54-2.16ZM7.99,42.25c-.05-.54-.08-1.01-.12-1.49-.28-3.26-.55-6.52-.82-9.78-.04-.48-.15-.88-.37-1.25-.37-.6-.7-1.24-1.06-1.86-.03-.05-.06-.1-.1-.16-.52.73-1.02,1.44-1.52,2.15-.04.05-.05.16-.06.24-.12,2.41-.24,4.81-.35,7.22,0,.11.05.25.12.32.93,1.01,1.86,2,2.78,3,.49.52.97,1.05,1.5,1.61ZM49.75,57.51c.81-.25,1.59-.48,2.38-.74.07-.02.14-.11.19-.18,1.32-1.83,2.63-3.67,3.96-5.5.12-.16.14-.31.1-.51-.24-1.41-.47-2.83-.7-4.24-.12-.71-.24-1.43-.36-2.19-.04.06-.06.09-.08.13-1.75,3.37-3.51,6.74-5.26,10.11-.03.06-.07.14-.07.22-.05.94-.1,1.89-.15,2.89ZM8.53,44.17c-.02.08-.03.12-.04.17-.34,2.13-.7,4.25-1.04,6.38-.01.1.03.26.09.34,1.32,1.85,2.65,3.7,3.98,5.54.07.1.18.18.28.22.4.14.8.25,1.21.37.35.11.71.22,1.08.32-.05-.93-.1-1.82-.15-2.7-.01-.17-.05-.35-.12-.48-1.71-3.3-3.43-6.6-5.15-9.9-.04-.08-.08-.15-.14-.25ZM47.38,12.33s-.03.06-.05.09c.05.03.09.04.12.09,2.23,2.86,4.46,5.72,6.69,8.58.07.09.17.17.27.21.73.33,1.45.65,2.18.98.06.03.12.04.19.07,0-.12.02-.2.02-.29.03-.74.07-1.48.09-2.21,0-.15-.04-.34-.1-.45-1.08-1.93-2.19-3.84-3.27-5.78-.17-.31-.36-.42-.63-.46-1.52-.22-3.05-.45-4.57-.67-.31-.05-.63-.09-.94-.14ZM7.04,22.34c.09-.04.16-.06.22-.09.71-.31,1.42-.62,2.13-.95.12-.05.24-.15.33-.27,2.22-2.83,4.42-5.67,6.63-8.5.04-.05.07-.11.13-.18-.08,0-.14,0-.2,0-1.87.28-3.74.56-5.6.84-.08,0-.17.09-.22.17-1.15,2.02-2.3,4.04-3.45,6.06-.05.08-.08.21-.07.31.01.5.04.99.05,1.49,0,.37.03.73.05,1.12ZM34.45,3.96s-.04.08-.05.12c.51.66,1.02,1.32,1.54,1.98.1.12.2.22.32.28,3.11,1.54,6.22,3.06,9.33,4.6.06.03.12.05.2.09-.03-.09-.05-.13-.06-.17-.8-1.91-1.61-3.83-2.42-5.74-.05-.11-.16-.2-.26-.22-2.06-.62-4.11-1.24-6.17-1.85-.07-.02-.16-.05-.23-.02-.74.31-1.47.62-2.2.95ZM18.03,11.03c.09-.04.13-.05.16-.08,3.15-1.55,6.3-3.1,9.44-4.65.08-.04.16-.11.22-.2.48-.65.95-1.3,1.42-1.96.04-.05.07-.11.12-.19-.76-.33-1.49-.65-2.23-.96-.06-.03-.15,0-.21,0-2.07.62-4.14,1.24-6.21,1.86-.13.04-.2.12-.26.27-.78,1.87-1.56,3.74-2.35,5.61-.03.08-.05.15-.11.28ZM32.9,62.7c.08.05.1.08.13.09,1.65,1.01,3.3,2.03,4.95,3.04.08.05.2.05.29.02,2-.87,4-1.75,5.99-2.63.1-.04.19-.14.26-.25.36-.61.71-1.23,1.07-1.85.05-.07.08-.14.14-.25-.7-.21-1.38-.38-2.04-.61-.39-.13-.75-.11-1.14,0-2.57.66-5.15,1.3-7.72,1.95-.62.17-1.25.33-1.92.5ZM30.94,62.71c-.1-.03-.15-.05-.2-.06-3.17-.79-6.33-1.59-9.5-2.4-.37-.09-.72-.1-1.08.03-.51.17-1.02.31-1.53.45-.17.05-.34.11-.52.17.41.72.81,1.41,1.21,2.1.06.11.16.2.26.25,1.98.88,3.97,1.75,5.95,2.62.14.06.24.05.37-.03,1.03-.65,2.07-1.28,3.11-1.92.63-.4,1.27-.79,1.94-1.21ZM20.67,17.58c-.04.12-.06.19-.09.27-.68,2.36-1.35,4.74-2.04,7.09-.22.73-.37,1.45-.28,2.24.05.43.04.87.05,1.3,0,.05,0,.1.02.19,2.07-1.71,4.12-3.4,6.19-5.1-1.28-2-2.56-3.99-3.85-6ZM45.51,28.69c.03-.9.07-1.74.1-2.58,0-.08-.03-.16-.05-.23-.77-2.69-1.54-5.38-2.31-8.06-.02-.07-.05-.14-.08-.23-1.29,2.01-2.57,4-3.85,6,2.06,1.69,4.1,3.38,6.19,5.1ZM43.53,38.33c2.08.77,4.15,1.53,6.24,2.3-.04-.13-.05-.22-.08-.31-.62-2.17-1.27-4.32-1.85-6.51-.29-1.11-.7-2.09-1.35-2.87-.21-.25-.39-.54-.59-.84-.79,2.76-1.57,5.48-2.36,8.23ZM14.05,40.64c2.1-.78,4.17-1.54,6.25-2.3-.79-2.75-1.57-5.47-2.36-8.23-.49.7-.97,1.38-1.44,2.06-.05.06-.06.16-.09.23-.47,1.65-.94,3.29-1.41,4.94-.31,1.09-.62,2.17-.95,3.3ZM49.52,41.39c-2.09-.77-4.14-1.52-6.21-2.28-.78,2.72-1.56,5.42-2.34,8.17.1-.02.16-.03.21-.05.49-.15.98-.32,1.47-.45.39-.11.74-.31,1.08-.59,1.85-1.54,3.71-3.06,5.58-4.6.05-.04.11-.1.2-.18ZM14.31,41.4c.1.09.16.14.22.19,1.86,1.53,3.72,3.06,5.57,4.6.34.28.69.49,1.08.59.28.07.55.17.82.26.27.09.54.17.85.26-.03-.12-.05-.2-.07-.27-.73-2.56-1.47-5.11-2.19-7.67-.05-.18-.1-.22-.24-.17-1.3.48-2.6.96-3.9,1.44-.71.26-1.41.51-2.14.79ZM32.24,48.26v7.36c.08-.06.14-.1.2-.15,1.74-1.43,3.47-2.89,5.22-4.29.68-.54,1.28-1.18,1.72-2.08.14-.28.31-.54.49-.84h-7.64ZM23.95,48.26c.39.67.76,1.3,1.12,1.93.06.1.13.19.22.26,2.05,1.69,4.09,3.37,6.14,5.06.05.04.1.07.15.11v-7.35c-2.54,0-5.06,0-7.64,0ZM38.78,23.14c1.27-1.98,2.53-3.95,3.83-5.97h-.28c-2.33,0-4.66,0-6.98,0-.4,0-.79.06-1.17.25-.49.23-1,.43-1.54.66,2.06,1.7,4.09,3.37,6.15,5.07ZM21.23,17.17c1.3,2.03,2.56,3.99,3.83,5.97,2.05-1.69,4.09-3.37,6.14-5.06-.07-.04-.12-.06-.17-.09-.58-.25-1.17-.5-1.76-.74-.12-.05-.24-.08-.37-.08-2.47,0-4.94,0-7.42,0-.06,0-.13,0-.25,0ZM55.23,42.26c.3-3.57.6-7.08.89-10.59-.01,0-.03,0-.05-.02-1.23,2.18-2.46,4.36-3.69,6.55.94,1.35,1.87,2.67,2.84,4.06ZM8.6,42.26c.97-1.37,1.9-2.7,2.84-4.05-1.23-2.19-2.47-4.38-3.7-6.56-.01,0-.03.02-.05.03.3,3.5.59,7.01.9,10.59ZM9.07,43.78c1.59,3.06,3.16,6.06,4.72,9.07.01,0,.03-.02.05-.03-.14-2.56-.27-5.12-.41-7.67-1.45-.45-2.88-.9-4.36-1.37ZM50,52.83s.04,0,.05.02c1.56-3,3.12-6,4.72-9.06-1.48.47-2.91.92-4.36,1.37-.14,2.56-.27,5.12-.41,7.67ZM17.1,12.69c-2.06,2.64-4.08,5.24-6.11,7.83.05.03.09.03.11.02,2.01-.9,4.03-1.8,6.04-2.69.12-.05.15-.13.14-.29-.05-1.23-.1-2.45-.14-3.68,0-.38-.03-.76-.05-1.19ZM52.81,20.58s.02-.04.03-.05c-2.02-2.59-4.05-5.19-6.1-7.83-.01.13-.02.2-.02.27-.06,1.51-.11,3.02-.18,4.53,0,.22.05.31.2.37,1.5.66,3,1.33,4.5,2,.53.24,1.05.48,1.58.71ZM26.72,7.68s-.01-.04-.03-.06c-2.79,1.37-5.58,2.75-8.41,4.14,1.37.58,2.68,1.13,3.99,1.7.15.06.23.04.34-.11.93-1.29,1.86-2.56,2.78-3.85.44-.6.88-1.21,1.32-1.82ZM45.49,11.78v-.05c-2.78-1.37-5.57-2.74-8.36-4.11-.01.03-.03.06-.05.09.11.13.23.26.34.4,1.27,1.75,2.55,3.51,3.83,5.26.05.07.16.13.23.11,1.35-.55,2.68-1.12,4.02-1.69ZM32.62,61.96c3.02-.76,5.98-1.51,8.94-2.25-.05-.06-.09-.08-.14-.09-2.07-.61-4.13-1.21-6.2-1.83-.12-.04-.19.02-.26.14-.58,1-1.16,2-1.74,2.99-.19.33-.38.65-.6,1.04ZM22.27,59.66v.05c2.96.75,5.93,1.49,8.92,2.25-.04-.08-.05-.11-.06-.14-.76-1.3-1.51-2.59-2.27-3.89-.1-.16-.18-.16-.3-.12-1.43.42-2.87.84-4.3,1.26-.66.2-1.32.39-1.99.59ZM19.8,5.18c-.06,0-.1,0-.12.02-1.37.41-2.75.81-4.12,1.25-.3.09-.58.34-.88.53.91,1.41,1.77,2.75,2.65,4.12.83-1.99,1.65-3.94,2.48-5.92ZM44.03,5.16c.84,2,1.66,3.96,2.49,5.94.88-1.38,1.75-2.72,2.64-4.12-.29-.19-.55-.42-.82-.51-.97-.33-1.95-.6-2.93-.9-.45-.14-.9-.26-1.38-.41ZM55.86,43.73c.36,2.16.71,4.29,1.07,6.5.08-.14.12-.22.17-.29.86-1.2,1.71-2.41,2.58-3.59.22-.3.3-.67.42-1.06-1.42-.53-2.82-1.05-4.25-1.57ZM6.84,50.21s.05-.05.08-.08c.35-2.12.7-4.24,1.06-6.4-1.44.53-2.84,1.05-4.24,1.56.11.45.24.83.48,1.15.85,1.15,1.69,2.33,2.53,3.51.04.07.06.17.1.26ZM60.31,38.45c-1.41,1.52-2.8,3.01-4.21,4.52,1.43.53,2.83,1.04,4.22,1.55q.26-.76.21-1.54c-.02-.37-.04-.74-.05-1.12-.05-1.11-.11-2.23-.17-3.41ZM3.53,38.46c0,.09-.01.14-.01.18-.07,1.53-.14,3.05-.23,4.58-.03.48.09.88.23,1.31,1.4-.52,2.79-1.03,4.22-1.56-1.41-1.52-2.79-2.99-4.21-4.51ZM52.79,12.32c-.8-1.4-1.56-2.73-2.31-4.07-.22-.39-.55-.54-.83-.81-.87,1.35-1.71,2.67-2.59,4.04,1.91.29,3.8.56,5.73.84ZM16.78,11.47c-.88-1.38-1.74-2.71-2.61-4.07-.26.26-.56.44-.75.75-.78,1.3-1.51,2.63-2.27,3.96-.03.05-.05.11-.1.2,1.91-.28,3.79-.56,5.72-.84ZM37.29,66.29c-1.71-1.06-3.37-2.08-5.05-3.12v4.96c.3,0,.61.09.87-.02,1.38-.57,2.75-1.19,4.18-1.82ZM31.59,63.18c-1.69,1.04-3.35,2.07-5.05,3.12.1.04.15.07.2.09,1.26.55,2.51,1.09,3.77,1.66.36.16.71.09,1.07.11v-4.99ZM63.1,34.44c-.85-1.19-1.68-2.36-2.54-3.57.1,2.03.19,3.98.29,5.99.77-.83,1.5-1.62,2.25-2.42ZM3.27,30.95s-.03-.02-.04-.02c-.83,1.16-1.66,2.33-2.5,3.51.76.81,1.49,1.6,2.25,2.41.1-2.01.19-3.95.29-5.91ZM6.86,18.31c.96-1.68,1.88-3.3,2.83-4.99-1.05.16-2.04.31-3.04.45.07,1.51.14,2.98.2,4.53ZM57.17,13.78c-1.01-.15-1.99-.29-3.04-.45.96,1.68,1.88,3.31,2.83,4.99.07-1.56.14-3.03.2-4.54ZM10.47,56.4s.01-.04.02-.05c-1.07-1.49-2.14-2.97-3.23-4.5-.19,1.16-.37,2.27-.56,3.4,1.27.39,2.52.77,3.77,1.15ZM53.34,56.35s.01.03.02.05c1.26-.39,2.51-.77,3.77-1.16-.19-1.14-.37-2.24-.56-3.4-1.1,1.54-2.17,3.02-3.24,4.51ZM38.94,66.44c.87.54,1.69,1.04,2.5,1.55.13.08.19.06.28-.09.64-1.12,1.28-2.23,1.92-3.35.03-.05.05-.11.11-.22-1.61.7-3.18,1.39-4.81,2.11ZM24.9,66.43c-1.62-.71-3.2-1.4-4.77-2.1.67,1.24,1.36,2.44,2.05,3.63.02.04.11.06.15.04.85-.5,1.69-1.03,2.58-1.58ZM25.93,2.49s-.07-.06-.1-.08c-1.14-.49-2.28-.98-3.42-1.48-.11-.05-.15,0-.2.12-.23.57-.47,1.13-.71,1.69-.16.39-.33.79-.51,1.23,1.66-.49,3.28-.98,4.93-1.48ZM37.89,2.48c1.67.5,3.29.99,4.95,1.49-.05-.12-.07-.19-.1-.26-.36-.87-.73-1.72-1.08-2.59-.07-.18-.14-.22-.29-.16-1.08.48-2.17.94-3.25,1.41-.07.03-.13.06-.23.12ZM12.21,38.26c.4.72.8,1.43,1.22,2.16.63-2.19,1.24-4.32,1.85-6.45-.01,0-.02-.02-.04-.03-1.01,1.44-2.02,2.87-3.03,4.32ZM51.62,38.26c-1.02-1.45-2.03-2.89-3.03-4.32-.01,0-.02.02-.04.03.61,2.14,1.22,4.27,1.85,6.45.42-.74.81-1.44,1.22-2.16ZM20.01,17.47s-.06,0-.08,0c-.63.28-1.27.57-1.9.84-.11.05-.1.15-.1.27.05,1.24.1,2.48.14,3.73.02.52.05,1.04.07,1.55.01,0,.03,0,.04,0,.6-2.12,1.21-4.24,1.83-6.39ZM45.65,23.87s.03,0,.04,0c0-.09.01-.17.02-.26.07-1.69.13-3.37.19-5.06,0-.16-.05-.2-.14-.23-.6-.26-1.21-.53-1.8-.8-.04-.02-.08-.02-.15-.04.62,2.15,1.22,4.27,1.83,6.39ZM26.32,52.28c.02.08.03.09.04.11.84,1.44,1.68,2.87,2.51,4.31.07.13.15.14.25.11.45-.14.89-.26,1.34-.4.19-.06.39-.12.64-.19-1.62-1.33-3.19-2.62-4.78-3.94ZM37.51,52.34s-.01-.02-.02-.04c-1.57,1.29-3.14,2.58-4.72,3.88.02.03.03.04.05.05.65.19,1.3.39,1.95.57.06.02.17-.07.22-.15.76-1.27,1.5-2.56,2.25-3.85.09-.16.18-.31.27-.47ZM14.02,44.52c1.52.48,3.02.95,4.52,1.42,0-.02.01-.04.01-.06-1.55-1.27-3.09-2.55-4.67-3.85.05.86.1,1.66.14,2.48ZM49.94,42.04c-1.59,1.3-3.12,2.58-4.67,3.85,0,.02.01.04.02.06,1.5-.47,3.01-.95,4.51-1.41.05-.82.09-1.62.14-2.49ZM27.07,16.34c-.08-.04-.1-.06-.13-.08-1.38-.59-2.78-1.18-4.16-1.76-.06-.03-.18.03-.23.1-.39.52-.77,1.05-1.15,1.58-.03.04-.05.09-.09.16h5.75ZM42.49,16.34s.04-.06.05-.09c-.44-.57-.88-1.15-1.32-1.71-.04-.05-.15-.04-.21-.02-1.04.44-2.09.88-3.13,1.32-.36.15-.72.31-1.07.45,0,0,0,.03,0,.04,1.9,0,3.79,0,5.68,0ZM46.12,13.02s-.03,0-.05-.02c-.75,1.18-1.51,2.36-2.28,3.56.73.33,1.42.64,2.14.96.06-1.53.12-3.01.18-4.5ZM17.75,13s-.03.02-.04.03c.06,1.49.11,2.97.17,4.49.73-.33,1.42-.64,2.14-.96-.77-1.22-1.52-2.39-2.28-3.56ZM32.24,61.37c.76-1.29,1.47-2.53,2.22-3.8-.76-.22-1.48-.43-2.22-.65v4.45ZM31.59,61.35v-4.44c-.74.22-1.46.43-2.21.65.74,1.28,1.46,2.51,2.21,3.79ZM22.01,14.18c-1.25-.53-2.47-1.05-3.69-1.57,0,0-.01.03-.02.04.75,1.17,1.5,2.33,2.22,3.46.49-.65.98-1.27,1.49-1.93ZM41.83,14.17c.5.66.99,1.29,1.48,1.94.73-1.13,1.47-2.29,2.22-3.46,0,0-.01-.03-.02-.04-1.22.51-2.43,1.03-3.68,1.55ZM52.03,38.85c-.41.73-.81,1.43-1.22,2.17,1.23.45,2.43.9,3.63,1.34,0-.02.01-.03.02-.04-.8-1.15-1.61-2.3-2.43-3.46ZM13.03,41.02c-.42-.74-.82-1.45-1.22-2.17-.83,1.18-1.63,2.32-2.43,3.46,0,.02.01.03.02.05,1.21-.45,2.4-.89,3.64-1.35ZM54.17,43.15v-.05c-1.18-.44-2.37-.87-3.58-1.31-.05.87-.09,1.68-.13,2.53,1.25-.4,2.48-.78,3.71-1.17ZM13.38,44.32c-.05-.87-.09-1.68-.14-2.53-1.21.44-2.39.88-3.57,1.31v.05c1.23.39,2.45.78,3.71,1.16ZM62.82,35.83s-.02-.03-.03-.04c-.61.66-1.22,1.31-1.83,1.97-.05.05-.06.19-.05.28.04.93.09,1.86.14,2.8.01.29.03.58.05.87.01,0,.03,0,.05,0,.56-1.96,1.12-3.92,1.68-5.88ZM2.71,41.76c.02-.09.03-.13.03-.16.06-1.21.12-2.43.17-3.64,0-.09-.05-.22-.11-.27-.57-.62-1.14-1.23-1.71-1.84-.02-.02-.05-.03-.1-.07.58,2.02,1.14,3.98,1.72,5.99ZM59.29,48.15s-.02-.02-.04-.02c-.58.81-1.14,1.65-1.75,2.41-.34.43-.44.82-.3,1.42.16.68.24,1.4.37,2.17.58-2.05,1.14-4.02,1.71-5.98ZM6.25,54.11c.03-.12.05-.19.05-.25.14-.83.27-1.66.41-2.49.03-.17,0-.26-.08-.37-.64-.89-1.28-1.78-1.92-2.67-.04-.05-.08-.09-.12-.15-.01,0-.02.02-.04.03.56,1.95,1.12,3.9,1.7,5.91ZM21.27,1.65s-.02-.02-.03-.03c-1.41,1.17-2.84,2.33-4.25,3.5,1.04-.26,2.06-.57,3.08-.88.07-.02.16-.12.2-.22.28-.64.55-1.29.82-1.94.07-.15.13-.3.19-.44ZM42.59,1.62s-.02.02-.03.03c.03.07.05.14.08.2.3.71.6,1.42.89,2.14.07.17.15.24.28.28.53.16,1.06.31,1.59.48.47.14.94.28,1.42.42,0-.02,0-.03.01-.04-1.41-1.16-2.83-2.32-4.24-3.49ZM56.1,12.81s0-.04,0-.05c-1.41-1.16-2.82-2.32-4.23-3.48.55,1.05,1.12,2.06,1.69,3.06.04.06.1.1.16.11.79.13,1.58.25,2.36.36ZM11.97,9.33s-.02-.03-.03-.04c-1.41,1.16-2.82,2.32-4.23,3.48.8-.07,1.59-.19,2.38-.31.06,0,.13-.05.16-.11.59-1.01,1.15-2.01,1.72-3.02ZM4.4,24.38c.4.72.79,1.4,1.14,2.02.33-.4.65-.8.97-1.2.02-.03.04-.08.04-.12-.02-.53-.04-1.06-.06-1.62-.71.31-1.38.61-2.08.92ZM58.3,26.4c.35-.62.73-1.31,1.14-2.02-.7-.31-1.38-.61-2.08-.92-.02.57-.05,1.08-.06,1.6,0,.05.01.11.04.14.32.4.64.8.97,1.2ZM33.32,3.61c-.49-.64-.96-1.25-1.39-1.8-.45.58-.92,1.18-1.41,1.81.47.2.91.39,1.35.58.04.02.08,0,.11,0,.43-.2.86-.38,1.33-.58ZM49.07,58.54c-.49.15-.96.29-1.42.43-.05.02-.1.05-.13.11-.24.41-.48.82-.73,1.27.73.22,1.44.42,2.15.64.04-.83.08-1.61.13-2.45ZM17.05,60.35c-.26-.45-.49-.86-.73-1.26-.03-.05-.07-.09-.11-.1-.48-.15-.95-.29-1.45-.44.05.83.09,1.62.13,2.44.72-.21,1.42-.42,2.15-.63ZM23.62,68.1s0,.04,0,.05h5.09s-.05-.06-.07-.06c-.94-.42-1.89-.83-2.84-1.24-.05-.02-.1-.02-.15,0-.68.41-1.36.83-2.04,1.25ZM40.21,68.15s0-.03,0-.05c-.68-.42-1.35-.84-2.04-1.25-.06-.04-.15,0-.22.02-.68.29-1.37.6-2.05.9-.25.11-.5.22-.76.34,0,.02,0,.03,0,.04,1.68,0,3.37,0,5.06,0ZM1.38,32.37s.07-.05.08-.06c.6-.84,1.21-1.69,1.8-2.54.05-.08.08-.22.09-.34.04-.54.06-1.09.08-1.62.02-.43.04-.87.05-1.3-.01,0-.03,0-.05,0-.68,1.94-1.36,3.88-2.05,5.87ZM62.41,32.34s.02-.02.03-.03c-.68-1.94-1.36-3.89-2.05-5.83,0,1.03.05,2.05.1,3.06,0,.08.03.16.07.22.62.86,1.23,1.73,1.85,2.59ZM57.73,15.88s-.03,0-.04,0c-.05,1.09-.1,2.19-.15,3.29,0,.09.04.2.08.28.45.81.91,1.61,1.36,2.41.02.04.05.09.07.13.01,0,.02-.02.03-.04-.45-2.02-.91-4.05-1.36-6.08ZM6.14,15.89s-.03,0-.04-.02c-.46,2.03-.91,4.06-1.37,6.11.03-.02.05-.02.05-.03.49-.85.98-1.71,1.46-2.58.03-.06.05-.15.05-.22-.04-1.08-.09-2.18-.15-3.27ZM47.31,62.8c-.06,0-.08,0-.1,0-.79.35-1.58.69-2.37,1.05-.07.03-.13.11-.18.19-.46.8-.93,1.61-1.39,2.42-.03.06-.06.12-.09.18,0,0,.01.02.02.03,1.36-1.28,2.72-2.56,4.1-3.86ZM20.63,66.66s.01-.03.03-.04c-.32-.57-.68-1.1-.97-1.7-.37-.78-.85-1.29-1.53-1.44-.1-.02-.19-.09-.3-.13-.42-.18-.84-.37-1.27-.55,0,.02-.01.03-.02.05,1.35,1.27,2.7,2.54,4.05,3.81ZM55.25,56.71s0-.03,0-.04c-.02,0-.04,0-.06,0-.85.26-1.7.52-2.54.79-.08.03-.16.1-.23.18-.44.6-.87,1.21-1.31,1.81-.08.11-.17.2-.26.29.02.03.04.06.05.09,1.45-1.03,2.9-2.07,4.35-3.11ZM12.92,59.82s.02-.03.03-.05c-.54-.74-1.07-1.49-1.61-2.23-.05-.06-.11-.08-.17-.1-.58-.17-1.15-.35-1.72-.53-.29-.09-.58-.18-.86-.26,0,.02,0,.04-.01.05,1.45,1.04,2.9,2.08,4.34,3.11ZM39.25,1.03v-.05c-1.66.12-3.32.24-4.98.36.05.05.1.08.15.09.55.17,1.11.29,1.65.5.45.17.86.14,1.29-.08.62-.3,1.26-.55,1.9-.83ZM29.57,1.39s0-.03,0-.04c-1.66-.12-3.32-.24-5.04-.37.07.05.1.08.12.09.79.34,1.58.68,2.37,1.02.06.03.14.03.21,0,.46-.13.92-.27,1.38-.4.32-.09.64-.19.97-.29ZM58.64,27.1c.4.5.81.99,1.17,1.44-.05-.98-.1-2.07-.15-3.16-.01,0-.03,0-.05-.02-.31.57-.63,1.13-.97,1.74ZM4.21,25.37s-.04,0-.05.02c-.05,1.09-.1,2.17-.15,3.14.37-.45.77-.94,1.17-1.44-.33-.6-.65-1.16-.97-1.72ZM57.48,20.56c-.03.71-.06,1.34-.08,1.96,0,.04.05.11.07.12.51.23,1.02.47,1.6.72-.54-.96-1.05-1.84-1.59-2.8ZM6.35,20.56c-.54.96-1.05,1.84-1.59,2.8.57-.26,1.08-.48,1.59-.72.04-.02.08-.1.08-.15-.02-.62-.05-1.23-.08-1.93ZM49.6,60.38c.63-.87,1.21-1.68,1.8-2.49-.55.12-1.07.27-1.59.44-.04,0-.1.08-.1.13-.04.61-.07,1.22-.1,1.92ZM14.23,60.16c-.03-.5-.06-1.12-.1-1.73,0-.04-.05-.09-.09-.11-.53-.17-1.06-.33-1.58-.48-.01.02-.02.04-.03.06.61.77,1.22,1.54,1.8,2.27ZM47.98,61.6s0-.04,0-.06c-.51-.15-1.02-.3-1.52-.44-.04,0-.1,0-.12.05-.29.5-.58,1.01-.88,1.52,0,.02.01.03.02.04.83-.38,1.66-.74,2.5-1.11ZM35.51,2.65v-.05c-.88-.26-1.74-.52-2.62-.79-.01.03-.03.05-.05.08.35.45.7.91,1.05,1.36.03.04.1.05.14.04.5-.2.99-.42,1.48-.63ZM18.41,62.73c-.19-.34-.36-.62-.52-.9-.14-.25-.25-.61-.44-.7-.19-.09-.45.08-.68.14-.31.09-.61.18-.92.28v.06c.83.36,1.67.73,2.56,1.12ZM28.32,2.61v.05c.49.22.98.43,1.47.64.04.02.11,0,.14-.04.35-.45.7-.9,1.05-1.36-.01-.02-.03-.05-.05-.07-.87.25-1.74.51-2.61.77ZM56.99,28.64s.02.02.04.02c.29-.51.58-1.03.88-1.56-.24-.31-.47-.59-.71-.89-.07.8-.14,1.62-.21,2.43ZM6.81,28.66s.02-.02.04-.02c-.07-.81-.14-1.62-.2-2.4-.24.29-.47.57-.71.87.29.53.58,1.04.87,1.55ZM14.68,55.98s-.04,0-.05.02c.03.53.06,1.07.09,1.6,0,.04.03.11.06.12.3.1.61.19.97.3-.38-.72-.72-1.38-1.07-2.04ZM49.2,56s-.04,0-.05-.02c-.34.66-.69,1.32-1.06,2.04.34-.11.64-.19.93-.29.04,0,.09-.08.1-.13.03-.54.06-1.08.09-1.61ZM7.13,24.37c.48-.61.92-1.18,1.35-1.74-.46.14-.89.34-1.32.54-.04.02-.07.12-.07.18.01.32.03.64.05,1.03ZM56.7,24.37c.01-.37.02-.68.05-.99,0-.14-.04-.2-.13-.25-.35-.15-.7-.31-1.05-.47-.07-.03-.14-.05-.2-.09,0,.02,0,.03-.01.05.44.57.88,1.13,1.35,1.74ZM31,4.65c-.33-.14-.61-.27-.88-.38-.03,0-.08,0-.1.04-.3.39-.6.78-.91,1.16.01.03.03.05.05.08.6-.29,1.19-.58,1.85-.91ZM34.67,5.56s.03-.06.05-.09c-.29-.38-.58-.76-.88-1.13-.03-.04-.1-.08-.14-.06-.27.11-.54.23-.87.37.65.32,1.24.61,1.84.91ZM46.69,59.23c-.67.17-1.3.33-1.92.48.43.17.86.31,1.29.42.05,0,.11-.03.15-.08.16-.26.3-.52.49-.83ZM17.14,59.23c.18.31.34.59.49.85.02.04.08.06.11.06.44-.12.88-.25,1.31-.38,0-.02,0-.03,0-.05-.62-.16-1.25-.31-1.92-.48ZM46.38,28.75c-.07-.26-.14-.48-.2-.7-.01,0-.03,0-.05,0v.78c.08-.03.15-.06.24-.09ZM17.7,28.84v-.78s-.03,0-.05,0c-.07.23-.13.46-.2.7.1.04.17.06.24.09ZM17.24,29.49c-.07.24-.13.46-.19.68.01,0,.02.02.03.03.14-.19.27-.39.42-.61-.1-.03-.16-.06-.26-.1ZM46.33,29.59c.16.22.29.42.43.61,0,0,.02-.02.03-.02-.06-.22-.13-.45-.19-.68-.09.03-.15.05-.26.09ZM23.66,49.11s.02-.03.03-.04c-.11-.2-.23-.39-.36-.61-.05.09-.1.17-.15.25.17.15.32.28.48.4ZM40.5,48.46c-.13.22-.24.42-.36.61,0,.02.02.03.03.04.16-.13.32-.26.51-.42-.08-.1-.12-.16-.18-.24ZM22.79,48.09c-.17-.05-.32-.09-.49-.15.29.37.37.39.49.15ZM41.55,47.93c-.19.06-.34.11-.5.16.1.25.15.23.5-.16ZM32.25,17.41c.13-.06.26-.11.44-.19-.43-.09-.47-.07-.44.19ZM31.59,17.41c0-.26-.1-.3-.42-.18.15.06.28.12.42.18Z"/>
      <path class="cls-1" d="M85.07,18.72h-5.75v-4.29h14.22c.89,0,1.6.72,1.6,1.58v2.71h-5.75v13.76h-4.33v-13.76Z"/>
      <path class="cls-1" d="M115.09,23.46c0,4.99-4.08,9.02-9.12,9.02s-9.12-4.04-9.12-9.02,4.08-9.02,9.12-9.02,9.12,4.04,9.12,9.02ZM110.73,23.46c0-2.59-2.15-4.72-4.77-4.72s-4.77,2.12-4.77,4.72,2.12,4.72,4.77,4.72,4.77-2.1,4.77-4.72Z"/>
      <path class="cls-1" d="M117.93,14.44h3.9c.16,0,.32.07.44.2l4.92,5.66,4.93-5.66c.11-.13.27-.2.46-.2h3.87v18.04h-4.33v-11.28l-2.05,2.39-1.66,1.89c-.64.72-1.78.72-2.42,0l-3.71-4.29v11.28h-4.33V14.44h0Z"/>
      <path class="cls-1" d="M147.83,14.44h2.76c.89,0,1.6.7,1.6,1.58v5.3h7.06v-6.88h2.76c.87,0,1.6.7,1.6,1.58v16.47h-4.35v-6.88h-7.06v6.88h-4.35V14.44Z"/>
      <path class="cls-1" d="M184.68,23.46c0,4.99-4.08,9.02-9.12,9.02s-9.12-4.04-9.12-9.02,4.08-9.02,9.12-9.02,9.12,4.04,9.12,9.02ZM180.33,23.46c0-2.59-2.14-4.72-4.77-4.72s-4.76,2.12-4.76,4.72,2.12,4.72,4.76,4.72,4.77-2.1,4.77-4.72Z"/>
      <path class="cls-1" d="M187.53,24.88c0-.86.73-1.58,1.6-1.58h5.2c1.32,0,2.37-1.06,2.3-2.37-.05-1.24-1.12-2.19-2.35-2.19h-6.75v-4.29h6.72c3.65,0,6.75,2.93,6.73,6.54,0,2.62-1.55,4.85-3.81,5.89l5.65,5.6h-6.02l-4.95-4.9v4.9h-4.33v-7.6Z"/>
      <path class="cls-1" d="M205.1,14.44h3.42c.46,0,.91.2,1.21.54l9.55,10.98v-11.53h2.73c.89,0,1.6.7,1.6,1.58v16.47h-4.38l-9.8-11.28v11.28h-4.33V14.44Z"/>
      <path class="cls-1" d="M82.86,54.73c-.09-.03-.19-.06-.28-.1-.09-.03-.17-.07-.26-.1l-.19-.1-.36-.19c-.06-.04-.13-.07-.19-.12-.12-.07-.23-.16-.34-.23-.23-.17-.44-.36-.64-.55-1.04-1.05-1.7-2.48-1.7-4.06s.65-3.03,1.7-4.06c.2-.2.41-.37.64-.54.1-.09.22-.16.34-.23.24-.16.49-.29.74-.4.09-.04.17-.07.26-.12l.28-.09c.58-.2,1.2-.3,1.85-.3s1.27.1,1.85.3l.28.09c.09.04.17.07.26.12.26.12.51.24.74.4.12.07.23.14.35.23.22.17.44.35.63.54l-1.95,1.92c-.15-.13-.29-.26-.45-.36h-.01s-.07-.06-.12-.09l-.09-.04-.12-.07c-.09-.04-.16-.07-.24-.1l-.12-.04s-.06-.03-.09-.03c-.03-.01-.05-.01-.06-.03-.03,0-.07-.01-.1-.03-.24-.06-.51-.09-.77-.09s-.52.03-.75.09c-.05.01-.07.03-.12.03l-.05.03s-.07.01-.1.03l-.12.04c-.09.03-.16.06-.23.1l-.1.04-.05.04-.09.04s-.07.04-.1.07l-.13.09s-.01,0-.01.01h-.01c-.06.04-.1.09-.15.11h0c-.64.56-1.04,1.38-1.04,2.28s.41,1.71,1.04,2.27c.05.03.09.07.15.12l.03.03.13.09c.1.07.22.13.34.19.07.04.15.09.23.12.12.04.24.09.38.12.23.06.49.1.75.1s.52-.04.77-.1c.12-.03.24-.07.36-.12.09-.03.16-.07.24-.12.12-.06.22-.12.32-.19h.01l.23-.17.22-.2v-2.11h1.74c.57,0,1.02.44,1.02.99v1.09c0,.73-.28,1.44-.8,1.95h-.01c-.19.2-.41.39-.63.56l-.35.23-.17.1c-.12.07-.24.14-.38.2-.06.04-.13.07-.19.1l-.23.09h0s-.03.01-.03.01c-.09.04-.17.07-.28.1-.58.2-1.2.3-1.85.3-.66,0-1.28-.1-1.86-.3Z"/>
      <path class="cls-1" d="M95.46,44.2h.01c.15-.37.51-.63.93-.63s.77.24.93.59l5.13,10.86h-.03s-2.84.01-2.84.01l-1.12-2.37h-4.14l-1.12,2.37h-2.87l5.1-10.83ZM97.26,50.1l-.84-1.82-.86,1.82h1.7Z"/>
      <path class="cls-1" d="M103.91,43.55h2.48c.1,0,.2.04.28.13l3.13,3.6,3.13-3.6c.07-.09.17-.13.29-.13h2.47v11.48h-2.76v-7.17l-1.31,1.52-1.06,1.21c-.41.46-1.13.46-1.54,0l-2.36-2.73v7.17h-2.76v-11.48h0Z"/>
      <path class="cls-1" d="M117.87,43.55h1.76c.55,0,1.01.44,1.01,1.01v10.48h-2.77v-11.48Z"/>
      <path class="cls-1" d="M122.81,43.55h2.18c.29,0,.58.13.77.35l6.08,6.99v-7.33h1.74c.57,0,1.02.44,1.02,1.01v10.48h-2.78l-6.24-7.17v7.17h-2.76v-11.49h0Z"/>
      <path class="cls-1" d="M140.34,54.73c-.09-.03-.19-.06-.28-.1-.09-.03-.17-.07-.26-.1l-.19-.1-.36-.19c-.06-.04-.13-.07-.19-.12-.12-.07-.23-.16-.34-.23-.23-.17-.44-.36-.64-.55-1.04-1.05-1.7-2.48-1.7-4.06s.65-3.03,1.7-4.06c.2-.2.41-.37.64-.54.1-.09.22-.16.34-.23.24-.16.49-.29.74-.4.09-.04.17-.07.26-.12l.28-.09c.58-.2,1.2-.3,1.85-.3s1.27.1,1.85.3l.28.09c.09.04.17.07.26.12.26.12.51.24.74.4.12.07.23.14.35.23.22.17.43.35.62.54l-1.95,1.92c-.14-.13-.29-.26-.45-.36h-.01s-.07-.06-.12-.09l-.09-.04-.12-.07c-.09-.04-.16-.07-.24-.1l-.12-.04s-.06-.03-.09-.03c-.03-.01-.04-.01-.06-.03-.03,0-.07-.01-.1-.03-.24-.06-.51-.09-.77-.09s-.52.03-.75.09c-.04.01-.07.03-.12.03l-.04.03s-.07.01-.1.03l-.12.04c-.09.03-.16.06-.23.1l-.1.04-.04.04-.09.04s-.07.04-.1.07l-.13.09s-.01,0-.01.01h-.01c-.06.04-.1.09-.15.11h0c-.64.56-1.04,1.38-1.04,2.28s.41,1.71,1.04,2.27c.05.03.09.07.15.12l.03.03.13.09c.1.07.22.13.34.19.07.04.15.09.23.12.12.04.24.09.38.12.23.06.49.1.75.1s.52-.04.77-.1c.12-.03.24-.07.36-.12.09-.03.16-.07.24-.12.12-.06.22-.12.32-.19h.01l.23-.17.22-.2v-2.11h1.74c.57,0,1.02.44,1.02.99v1.09c0,.73-.28,1.44-.8,1.95h-.01c-.18.2-.4.39-.62.56l-.35.23-.17.1c-.12.07-.24.14-.38.2-.06.04-.13.07-.19.1l-.23.09h0s-.03.01-.03.01c-.09.04-.17.07-.28.1-.58.2-1.2.3-1.85.3-.65,0-1.27-.1-1.85-.3Z"/>
    </g>
  </g>
</svg>