<?xml version="1.0" encoding="UTF-8"?>
<svg id="Layer_2" data-name="Layer 2" xmlns="http://www.w3.org/2000/svg" viewBox="0 0 226 88.32">
  <defs>
    <style>
      .cls-1 {
        fill: #fff;
        fill-rule: evenodd;
        stroke-width: 0px;
      }
    </style>
  </defs>
  <g id="Layer_1-2" data-name="Layer 1">
    <path class="cls-1" d="M91.96,34.46c0,1.13,1.28,1.69,2.59,1.69s2.5-.56,2.5-1.58c0-1.53-1.73-1.63-2.91-1.7h-.1c-2.99-.2-5.98-1.39-5.98-4.82s3.01-5.36,6.35-5.36c3.14,0,6.35,1.8,6.28,5.36h-3.99c0-1.13-1.07-1.58-2.22-1.58-.96,0-2.22.26-2.22,1.49,0,1.1.93,1.36,2.5,1.53,3.47.31,6.52,1.13,6.52,5.11,0,3.44-3.34,5.25-6.68,5.25s-6.77-1.74-6.7-5.42c0,0,4.07.02,4.07.02ZM118.33,23.04h1.52v16.46h-4.28v-7.57l-3.47,3.65h-.5l-3.47-3.65v7.57h-4.28v-16.46h1.51l6.5,7.09,6.46-7.09h0ZM125.79,39.5l.93-2.04h6.12l.96,2.04h4.42v-.58l-7.43-15.99h-1.96l-7.5,15.99v.58h4.46ZM131.48,33.87h-3.38l1.68-3.94,1.7,3.94ZM153.57,38.87v.61h-4.53l-2.81-5.13h-2.24v5.13h-4.28v-16.41h7.19c1.57-.08,3.1.5,4.21,1.61.55.55.99,1.2,1.28,1.93.29.72.42,1.5.39,2.28.03,1.9-.88,3.69-2.43,4.79l3.21,5.2h0ZM146.89,30.85c.79-.03,1.47-.55,1.7-1.31.08-.24.1-.5.07-.76.11-.98-.59-1.87-1.57-1.98-.07,0-.13-.01-.2-.01h-2.96v4.06h2.96ZM154.41,23.08v3.76h4.02v12.65h4.13v-12.65h3.99v-3.76h-12.14ZM172,34.46c0,1.13,1.28,1.69,2.59,1.69s2.5-.56,2.5-1.58c0-1.53-1.73-1.63-2.91-1.7h-.1c-2.99-.2-5.98-1.39-5.98-4.82s3.01-5.36,6.35-5.36c3.14,0,6.35,1.8,6.27,5.36h-3.99c0-1.13-1.07-1.58-2.22-1.58-.96,0-2.22.26-2.22,1.49,0,1.1.93,1.36,2.5,1.53,3.48.31,6.52,1.13,6.52,5.11,0,3.44-3.34,5.25-6.68,5.25s-6.77-1.74-6.7-5.42l4.07.02ZM183.04,31.29c0,5.7,4.04,8.51,8.35,8.51,4.95,0,8.41-3.49,8.41-8.51,0-5.67-4.09-8.54-8.34-8.54s-8.43,2.83-8.43,8.53ZM193.04,35.39c-.52.23-1.08.35-1.65.35l.02.02c-2.1,0-4.13-1.47-4.13-4.47s2.12-4.45,4.16-4.45,4.06,1.52,4.06,4.45c.08,1.15-.31,2.28-1.09,3.12-.38.42-.85.75-1.37.98ZM211.95,34.19h-5.23v5.3h-4.24v-16.4h10.2v3.73h-5.93v3.63h5.23l-.02,3.74ZM213.88,23.08v3.76h3.99v12.65h4.13v-12.65h3.99v-3.76h-12.12,0ZM103.53,53.62c-.93-3.42-4.06-4.92-7.26-4.92-4.55,0-8.15,3.32-8.15,8.41s3.53,8.46,8.15,8.46c3.32,0,6.02-1.57,7.24-4.6.52-1.36.74-2.82.64-4.27h-7.62v1.67h5.81c-.3,3.56-2.71,5.36-6.07,5.36-3.83,0-6.18-2.9-6.18-6.63s2.38-6.64,6.18-6.64c2.46,0,4.49.79,5.35,3.15,0,0,1.92,0,1.91,0ZM106.92,65.34l1.92-4.05h8.17l1.91,4.05h2.01v-.26l-7.55-16.22h-.89l-7.61,16.22v.26s2.03,0,2.03,0ZM116.35,59.6h-6.86l3.44-7.66,3.43,7.66ZM137.55,48.91h.78v16.43h-1.96v-11.81l-5.37,7.41h-.3l-5.37-7.41v11.81h-1.96v-16.43h.78l6.72,9.17,6.68-9.17h0ZM148.95,65.34v-1.57h-2.82v-13.29h2.64v-1.57h-7.24v1.57h2.64v13.29h-2.83v1.57h7.62ZM153.76,52.94l.16,4.5v7.87h-1.94v-16.46h.68l10.65,12.43-.21-4.72v-7.66h1.96v16.46h-.64l-10.67-12.43h0ZM183.85,53.62c-.93-3.42-4.06-4.92-7.26-4.92-4.59,0-8.18,3.32-8.18,8.41s3.53,8.46,8.15,8.46c3.32,0,6.02-1.57,7.24-4.6.52-1.36.74-2.82.64-4.27h-7.59v1.67h5.81c-.3,3.56-2.71,5.36-6.07,5.36-3.84,0-6.19-2.9-6.19-6.63s2.38-6.64,6.19-6.64c2.45,0,4.49.79,5.35,3.15h1.91ZM73.87,19c-.2-.37-.48-.68-.83-.92L44.67,1.23c-2.81-1.64-6.29-1.64-9.11,0L4.54,18.44c-1.38.8-2.52,1.95-3.32,3.33C.43,23.15,0,24.72,0,26.31v13.67c.01,1.98.56,3.93,1.57,5.63,1.01,1.7,2.46,3.1,4.2,4.06,0,0,20.73,10.01,27.79,13.1,1.08.45,2.24.68,3.4.66,2.3.06,4.53-.81,6.19-2.41,1.66-1.6,2.62-3.8,2.65-6.11-.05-1.76-.63-3.46-1.65-4.88-1.02-1.42-2.45-2.51-4.09-3.12l-13.04-5.37c-1.64-.63-3.06-1.74-4.06-3.19-1.01-1.45-1.55-3.17-1.57-4.94v-.79c.13-3.76,2.02-7.75,4.84-9.87,3.85-2.88,8.53-4.43,13.34-4.42,8.64,0,17.33,5.94,19.76,7.72.71.51,1.48.91,2.31,1.2,2.48.85,5.2.68,7.55-.49,2.19-1.26,3.88-3.23,4.81-5.58.3-.71.26-1.51-.1-2.19h0s0,0,0,0ZM32.89,36.72c1.04,1.5,2.5,2.65,4.19,3.32l13.13,5.61c1.69.69,3.14,1.88,4.16,3.4,1.02,1.52,1.56,3.32,1.56,5.15,0,4.11-1.94,8.58-4.94,10.95-3.88,3.02-8.65,4.65-13.56,4.64-7.99,0-15.67-4.94-19.27-7.26-.34-.22-.69-.44-1.04-.66-1.45-.89-3.09-1.43-4.78-1.57-2.13-.21-4.29.17-6.22,1.09-1.93.93-3.58,2.36-4.76,4.15h0s0,0,0,0c-.7,1.11-.37,2.57.74,3.27.03.02.07.04.11.06l30.87,18.22c2.82,1.63,6.29,1.63,9.12,0l31.02-17.21c1.38-.81,2.53-1.96,3.33-3.35.8-1.39,1.22-2.97,1.22-4.57v-14.64c0-2.07-.54-4.1-1.57-5.89-1.03-1.79-2.51-3.27-4.3-4.3,0,0-21.09-10.53-28.24-13.78-1.09-.48-2.27-.72-3.46-.7-2.37,0-4.64.95-6.32,2.63-1.68,1.68-2.62,3.97-2.62,6.34.03,1.82.61,3.6,1.65,5.1h0Z"/>
  </g>
</svg>