<?xml version="1.0" encoding="UTF-8"?>
<svg id="Layer_2" data-name="Layer 2" xmlns="http://www.w3.org/2000/svg" viewBox="0 0 204.15 73.58">
  <defs>
    <style>
      .cls-1, .cls-2 {
        fill: #fff;
        stroke-width: 0px;
      }

      .cls-2 {
        fill-rule: evenodd;
      }
    </style>
  </defs>
  <g id="Layer_1-2" data-name="Layer 1">
    <g>
      <path class="cls-2" d="M69.79,4.38v28.49c2.68,4.13,4.24,9.07,4.24,14.38,0,14.54-11.67,26.33-26.06,26.33s-26.06-11.79-26.06-26.33c0-5.31,1.56-10.26,4.25-14.39V4.38c0-2.42,1.81-4.38,4.03-4.38h35.58c2.22,0,4.03,1.96,4.03,4.38ZM47.98,66.33c10.42,0,18.87-8.55,18.87-19.07s-8.45-19.06-18.87-19.06-18.87,8.54-18.87,19.06,8.45,19.07,18.87,19.07Z"/>
      <path class="cls-2" d="M44.72,57.84s.09-.04.13-.06h-.15l.02.06Z"/>
      <path class="cls-1" d="M116.44,43.45c-6.36,0-10.25,4.42-10.25,10.03s4.05,10.44,9.75,10.44c2.52,0,3.92-.82,5.37-1.89v-4.26c-1.24,1.56-2.93,2.7-5,2.7-3.8,0-6.49-3.07-6.49-6.72s2.52-6.88,6.53-6.88c3.3,0,6.44,1.89,6.44,5.57v11.06h3.64v-10.72c0-5.65-3.88-9.34-9.99-9.34ZM147.75,43.45c-2.24,0-4.46.9-5.78,2.78-1.32-1.89-3.56-2.78-5.78-2.78-4.05,0-7.11,3.03-7.11,6.72v13.36h3.64v-12.54c0-2.5,1.4-4.09,3.55-4.09,2.36,0,3.88,1.31,3.88,4.67v11.96h3.64v-11.96c0-3.35,1.52-4.67,3.88-4.67,2.14,0,3.55,1.6,3.55,4.09v12.54h3.64v-13.36c0-3.68-3.06-6.72-7.11-6.72ZM90.62,50.99h10.08c-.28,5.86-5.12,9.42-10.61,9.42-6.4,0-11.07-5.12-11.07-11.22s4.67-11.22,11.07-11.22c4.05,0,6.15,1.72,9.33,4.34l2.6-2.79c-3.84-3.81-7.1-5.16-11.93-5.16-8.18,0-15.12,6.56-15.12,14.84s6.94,14.84,15.12,14.84c6.9,0,14.67-4.87,14.67-14.18v-2.46h-14.14v3.61ZM16.44,46.89H3.88v-12.04H0v28.68h3.88v-13.03h12.56v13.03h3.88v-28.68h-3.88v12.04h0ZM159.52,37.3c-1.4,0-2.19,1.07-2.19,2.18s.78,2.18,2.19,2.18,2.19-1.07,2.19-2.18-.78-2.18-2.19-2.18ZM157.71,63.53h3.64v-19.67h-3.64v19.67ZM194.39,43.45c-6.2,0-10.25,4.59-10.25,10.49s4.46,9.99,10.25,9.99c1.36,0,3.3-.57,4.67-1.31v-3.71c-1.4.82-2.98,1.6-4.62,1.6-3.76,0-6.65-2.49-6.65-6.35s2.1-7.25,6.45-7.25c3.39,0,6.28,2.7,6.28,7.13v9.18c0,4.79-3.64,6.23-6.9,6.23-1.86,0-3.68-.49-5.49-.98l-.87,3.27c2.1.7,4.3,1.15,6.53,1.15,5.82,0,10.37-3.53,10.37-10.9v-8.77c0-4.92-3.73-9.76-9.76-9.76ZM173.53,43.45c-4.83,0-8.47,3.44-8.47,8.6v11.47h3.64v-11.46c0-3.04,2.23-5.16,4.83-5.16s4.84,2.13,4.84,5.16v11.47h3.64v-11.47c0-5.17-3.64-8.61-8.47-8.61Z"/>
      <path class="cls-1" d="M42.49,39.11c-3.18,2.1-7.95,4.06-7.91,9.33.06,9.2,9.24,11.51,13.07,4.35-.02.52-.03,1.07-.03,1.61-.49,4.66-2.89,5.59-2.92,5.6h6.84s-2.44-.94-2.93-5.6c0-.54-.01-1.09-.03-1.61,3.83,7.16,13,4.85,13.07-4.35.04-5.26-4.74-7.22-7.91-9.33-3.09-2.04-5.62-6.01-5.62-6.01,0,0-2.55,3.98-5.63,6.01Z"/>
    </g>
  </g>
</svg>