<?xml version="1.0" encoding="UTF-8"?>
<svg id="Layer_2" data-name="Layer 2" xmlns="http://www.w3.org/2000/svg" viewBox="0 0 217.9 61.05">
  <defs>
    <style>
      .cls-1 {
        fill: #fff;
        stroke-width: 0px;
      }
    </style>
  </defs>
  <g id="Layer_1-2" data-name="Layer 1">
    <g>
      <path class="cls-1" d="M53.99,41.67c0-.24.04-.36.04-.48.56-4,1.12-7.96,1.63-11.96.04-.52-.08-1-.32-1.48-1.99-4.19-3.99-8.38-6.02-12.56-.48-.95-.95-1.91-1.39-2.88-1.63.56-3.19,1.12-4.74,1.6-.28.08-.72.04-.88-.16-1.71-1.8-3.39-3.68-5.1-5.48-.6-.64-1.12-1.32-1.83-1.76-2.31-1.36-4.7-2.6-7.05-3.88-1.63-.84-3.27-1.72-4.98-2.64l-2.67,9.92-1.87-5.16c-.12.08-.2.12-.32.2-2.27,2.2-4.58,4.4-6.81,6.64-.92.92-1.95,1.84-2.67,2.92-1.28,1.88-2.39,3.88-3.55,5.84-.8,1.44-1.87,2.8-1.63,4.64.12,1.08,0,2.2,0,3.28v4.36l-3.83-1.8c.04.36.04.64.08.88l1.91,11.52c.2,1.08.24,2.28.76,3.24,1.63,3,3.43,5.92,5.18,8.84.28.44.72.8,1.2.96,3.27,1.16,6.55,2.28,9.84,3.36,1.39.44,2.71,1.04,4.22,1.08,2.55,0,5.14.2,7.69.28.8.04,1.59.16,2.35-.04,1.28-.32,2.51-.84,3.79-1.32,4.86-1.8,9.72-3.56,14.54-5.4.44-.16.76-.48.96-.88.84-2.04,1.63-4.08,2.47-6.12.52-1.2,1.08-2.4,1.59-3.64.44-1,.8-2.04,1.24-3.2l-3.82,1.28ZM45.94,27.59c-.08,2.24-.2,4.52-.32,6.84l-10.8.36-.92,19.23h-9.44l-.84-18.99-11.47.56-.36-11.68h3.51c9.84-.16,19.72-.36,29.56-.56.76,0,1.16.12,1.12.92-.04,1.12,0,2.24-.04,3.32Z"/>
      <g>
        <path class="cls-1" d="M213.29,34.35c1.78-1.68,3.25-3.9,3.36-6.84.21-4.53.11-4.63-4.41-4-1.36.21-1.89.63-1.78,2,.21,2.21-.42,4.21-2.2,6.32v-4.42c0-4.74.42-4.21-4.09-3.79-1.57.11-1.89.74-1.89,2.21.21,4.21.21,8.32.32,12.53.11,2.32.31,4.74.42,7.16h2.52c1.99.11,2.73-.74,2.73-2.63,0-1.37.11-2.63.21-4l.63-.11c.73,1.79,1.47,3.58,2.41,5.27.31.63,1.05,1.37,1.57,1.37,1.58,0,3.25-.42,4.83-.74v-1.26l-4.62-9.06Z"/>
        <path class="cls-1" d="M78.78,25.4c.11-1.58-.42-2.21-2.2-2-1.78.21-3.57.11-5.35.21-2.31.11-4.62.32-6.93.42v3.69c.63,2.32,2.83.63,4.2,1.58.21,4.32.52,8.63.84,12.95.21,3.37.21,3.26,3.57,3.26,1.68,0,2.1-.63,2.1-2.21-.21-4.11-.11-8.21-.31-12.32-.11-1.79.31-2.63,2.2-2.32,1.57.21,2.1-.53,1.89-2-.1-.41-.1-.85,0-1.26Z"/>
        <path class="cls-1" d="M121.9,23.71c-.52-.21-1.26.11-1.89,0-1.78-.21-2.52.42-2.31,2.32.31,2.32.31,4.63.42,6.95h-.31c-1.05-2.63-1.99-5.37-3.04-8-.95-2.42-2.83-.74-4.3-.84-1.47-.11-1.26,1.16-1.15,2l.63,16.01c.11,3.37.11,3.26,3.46,3.37,1.78.11,2.1-.63,1.89-2.21-.21-1.79-.31-3.58-.52-5.37,1.26,2,1.99,4.21,2.83,6.32.32.63.95,1.05,1.57,1.16,1.26.11,2.52.11,3.88.11v-20.85c0-.21-.73-.84-1.15-.95Z"/>
        <path class="cls-1" d="M90,24.24h-.42c-1.26-.21-1.78.42-1.78,1.58,0,2-.11,4.11-.11,6.11,0,1.16-.32,1.79-1.78,1.37l-.32-5.48q-.21-4.84-5.45-3.9v2.11c.11,5.37.31,10.64.42,16.01q.11,4.84,5.35,4.11v-7.58l.63-.32c.31.42.84.95.95,1.37.1,1.37.21,2.74.1,4.11-.11,1.47.63,2,1.89,2,.52,0,1.15,0,1.68.11,1.58.32,2.2-.32,2.2-2v-16.11h0q0-3.26-3.36-3.47Z"/>
        <path class="cls-1" d="M178.77,25.4c0-.95.11-2.21-1.36-1.9-1.36.32-3.46-.95-3.88,1.79-.31,2.11-1.15,4.21-1.78,6.32l-.63-.11v-3.16c.1-4.74-.21-5.05-5.04-4.21-.21.11-.52.21-.73.32v2c.11,5.9.21,11.9.42,17.8,0,.84-.1,2.11,1.26,1.68,1.36-.42,3.67.84,3.78-1.9.11-1.47,0-3.05,0-4.53l.73-.11c.73,1.68,1.36,3.37,2.1,4.95.21.53.73,1.26,1.15,1.37,1.36.21,2.73.11,4.2.11-.31-4-1.47-7.27-3.99-10.11,2.83-4.21,3.78-6.84,3.78-10.32Z"/>
        <path class="cls-1" d="M106.16,22.55c-3.15.11-3.67.32-3.67,2.21v9.06c0,1.9.11,3.69-.11,5.58-.1.74-.63,1.37-.95,2-.41-.63-.76-1.3-1.05-2-.11-.63-.11-1.26-.11-1.79,0-3.47,0-6.95.11-10.42,0-3.26,0-3.16-3.36-3.69-1.78-.32-2.31.32-2.2,2,.11,4.74.11,9.58.11,14.32,0,3.37,2.2,5.69,5.56,5.9,3.67.21,6.19-1.58,6.4-5.05.31-5.27.42-10.64.52-16.01.21-.95.52-2.11-1.26-2.11Z"/>
        <path class="cls-1" d="M127.56,23.08c-1.57-.11-2.41.32-2.31,2.11.11,3.09.11,6.18,0,9.27-.11,3.02-.11,6.04,0,9.06,0,.32.11.63.21.95.73,1.05,2.1.84,3.25.74,1.36,0,2.62-.32,3.78-.95,2.35-1.2,4.07-3.35,4.72-5.9.21-.63.32-1.16.32-1.79.11-1.26.11-2.63.11-3.9.21-7.16-3.15-9.16-10.07-9.58ZM130.08,40.67v-12.74c2.52.63,2.52,2.53,2.41,4.11,0,2.84.73,6.11-2.41,8.63Z"/>
        <path class="cls-1" d="M193.77,23.5h0c-3.36.21-5.46,2-5.67,5.27-.31,3.16-.42,6.42-.42,9.58.11,5.69,2.83,7.9,8.5,7.06,2.94-.42,4.41-2,4.41-4.95,0-.95.52-2.53-1.36-2.32-1.36.11-3.46-.84-3.36,2,0,.32-.31.63-.73.95l-.42.42-.21.21c-.1-.11-.31-.21-.42-.32-.42-.32-.94-.63-.94-1.05-.21-1.9-.21-3.79-.32-4.74.21-2.95.32-4.95.52-6.84.21-.53.63-.95,1.15-1.16.53-.11,1.47.42,1.47.63.11,2.74,2.2,1.79,3.67,2,1.68.21,1.99-.74,1.68-2.11-.73-3.05-3.67-4.84-7.55-4.63Z"/>
        <path class="cls-1" d="M150.12,42.88c.1-.53,0-1.05-.52-1.26-.32-.11-.63-.11-.95-.11l-4.09.21c-.11-1.05-.11-1.9-.21-2.63-.21-1.47.74-1.9,1.99-1.9,1.99,0,1.99-1.58,1.99-3.05,0-2-1.47-1.05-2.41-1.16-.52-.11-1.05-.11-1.58-.11v-4.63h3.99c.94,0,1.89-.11,1.57-1.37-.31-1.16.63-3.05-1.68-3.05-2.62,0-5.25.21-7.87.21-1.05,0-1.47.42-1.47,1.47l.32,18.85c0,.53.73,1.37,1.26,1.37,2.73.11,5.56.11,8.29,0,2.2-.11,1.15-1.79,1.36-2.84Z"/>
        <path class="cls-1" d="M182.44,23.19c-1.58.32-1.99.84-1.99,2.32.11,3.47,0,6.95,0,10.42v8.95h3.67c1.68,0,2.2-.63,2.2-2.32-.21-5.37-.21-10.85-.31-16.32,0-3.16.52-3.9-3.57-3.05Z"/>
        <path class="cls-1" d="M163.66,27.29c-.63-2.11-2.1-3.58-4.41-3.79-2.1-.21-4.2,0-6.29,0-1.26,0-1.58.74-1.58,1.9l.32,12v6.11c0,1.79,1.47,1.37,2.73,1.58,1.68.21,1.78-.74,1.78-2-.1-1.26,0-2.63,0-3.9,0-.42.42-.74.73-1.16.32.32.74.53.84.95.41,1.24.73,2.5.94,3.79.63,2.84.95,3.16,3.88,2.42.42-.11,1.05-1.05.94-1.47-.42-1.9-1.05-3.79-1.47-5.79-.11-.63,0-1.37.31-1.9,2.2-2.74,2.2-5.69,1.26-8.74ZM156.31,33.3v-5.16c1.68-.42,2.52-.11,2.94,1.26.11.21.11.42.21.63.31,2-.52,2.95-3.15,3.26Z"/>
      </g>
    </g>
  </g>
</svg>