<?xml version="1.0" encoding="UTF-8"?>
<svg id="Layer_2" data-name="Layer 2" xmlns="http://www.w3.org/2000/svg" viewBox="0 0 226.05 61.01">
  <defs>
    <style>
      .cls-1 {
        fill: #fff;
        stroke-width: 0px;
      }
    </style>
  </defs>
  <g id="Layer_1-2" data-name="Layer 1">
    <path class="cls-1" d="M152.3,6.48c1.76-1.49,3.24-3.19,5.1-4.2,2.01-1.09,4.38-2.18,6.56-2.1,7.27.23,12.07,3.54,14.33,11.06.3,1.04.45,2.13.65,3.22.15.71-.18,1.01-.88.99-1.68-.03-3.35-.03-5.03,0-.78.03-.98-.4-1.08-1.06-.38-2.2-1.21-4.18-3.04-5.59-4.35-3.32-11.52-.71-12.67,4.61-.07.38-.23.73-.25,1.11-.07.73-.45.99-1.18.96-1.63-.05-3.27-.03-4.9,0-.68,0-.96-.23-1.18-.94-.53-1.57-1.06-3.26-2.06-4.53-2.31-2.94-5.53-3.04-8.8-2.03-2.97.91-4.38,3.29-4.93,6.15-.23,1.09-.6,1.39-1.63,1.37-1.51-.08-3.02-.05-4.53,0-.75.03-1.11-.2-1.01-1.01.86-6.43,4.73-12.35,11.79-13.85,5.83-1.24,10.26.74,13.93,5.09.15.2.33.38.5.56.15.08.28.18.3.2h0ZM39.35,17.19c1.03.05,2.34-.23,3.04.3.53.4.33,1.82.45,2.78.78,6.56,6.41,10.02,13.13,8.43,5.28-1.27,7.82-4.86,7.79-10.38,0-.78.28-1.06,1.01-1.06h5.03c.68,0,.98.28.98.99.05,6.73-2.19,12.35-8.25,15.74-1.91,1.06-4.22,1.67-6.41,1.92-4.73.53-9.38.18-13.43-2.76-5.1-3.69-7.06-8.86-6.89-14.98,0-.3.55-.81.91-.86.85-.13,1.76-.05,2.64-.05,0,0,0-.08,0-.08ZM67.24,15.42h-.12c-2.16.35-3.6-.13-4.22-2.63-.63-2.48-2.74-3.9-5.08-4.66-3.32-1.09-6.66-1.06-9.93.3-2.67,1.11-4.28,3.19-4.95,5.95-.18.76-.43,1.06-1.21,1.04-1.69-.05-3.35-.03-5.03,0-.8,0-1.03-.35-.88-1.11,1.46-7.24,5.96-12.2,13.5-13.77,4.35-.91,8.35-.23,12.19,1.39,5.41,2.3,8.1,6.91,9.15,12.56.13.68-.15.91-.8.91-.86.03-1.74.03-2.62.03h0ZM8.07.28c2.87.18,5.78,0,8.55.56,5.35,1.09,9.55,3.92,11.36,9.47.43,1.32.55,2.71.78,4.08.12.76-.28,1.06-1.01,1.04-1.68-.03-3.35-.03-5.03,0-.73,0-.98-.3-1.08-1.04-.58-4.58-3.27-6.94-7.85-6.94-1.76,0-3.52.03-5.28-.03-.93-.03-1.23.3-1.18,1.26.1,1.85.02,3.7.05,5.57.02.83-.25,1.24-1.16,1.19-1.59-.05-3.19-.05-4.78,0-1.11.03-1.46-.46-1.46-1.52.1-3.92.13-7.85.05-11.77C.03.86.55.43,1.73.43c2.11.03,4.22,0,6.34,0v-.15h0ZM89.36,36.05c-3.19,0-6.36-.03-9.56.03-1.01.03-1.33-.3-1.31-1.32.03-5.39.03-10.81,0-16.2,0-1.01.4-1.37,1.33-1.34,1.46.03,2.94.05,4.4,0,1.01-.05,1.28.38,1.28,1.34-.05,2.91-.03,5.82-.03,8.73q0,1.72,1.66,1.72c3.85,0,7.72.03,11.57-.03,1.11-.03,1.61.28,1.51,1.49-.1,1.47-.07,2.96,0,4.43.03.91-.3,1.16-1.16,1.14-3.24-.03-6.46,0-9.71,0ZM214.13.05h10.18c1.33,0,1.68.35,1.71,1.72.02,1.34-.05,2.71.02,4.05.05,1.24-.53,1.65-1.66,1.62-1.76-.03-3.52.1-5.28-.05-1.23-.1-1.41.4-1.36,1.44.05,1.77-.02,3.54.02,5.32.03.91-.25,1.32-1.21,1.29-1.59-.05-3.19-.05-4.78,0-.88.03-1.06-.35-1.03-1.14.05-1.82-.02-3.62.02-5.44.02-1.06-.25-1.52-1.41-1.47-1.89.1-3.77.03-5.66.03-1.01,0-1.38-.35-1.31-1.47.13-1.47.1-2.96,0-4.43-.07-1.14.35-1.52,1.41-1.52,3.45.05,6.89.05,10.31.05ZM7.42,26.5c0,2.61-.02,5.24.03,7.85.02,1.11-.28,1.64-1.48,1.57-1.46-.1-2.94-.03-4.4-.03-.98,0-1.51-.38-1.48-1.52.05-5.24.05-10.45,0-15.69-.02-1.04.43-1.44,1.41-1.44,1.58,0,3.19.03,4.78,0,.86-.03,1.18.33,1.18,1.19-.05,2.68-.03,5.39-.03,8.07ZM155.9,26.78c0,2.66-.02,5.32.03,7.95.02.94-.23,1.39-1.26,1.34-1.54-.08-3.08-.08-4.63,0-.96.03-1.23-.35-1.23-1.26.02-5.47.02-10.94,0-16.4,0-.78.28-1.16,1.08-1.14,1.63.03,3.27.03,4.9,0,.88-.02,1.16.38,1.16,1.22-.05,2.73-.05,5.52-.05,8.3ZM187.48,26.58c0-2.63.05-5.29-.02-7.92-.02-1.16.43-1.47,1.46-1.44,1.51.05,3.02.03,4.53,0,.78,0,1.16.33,1.16,1.14v16.68c0,.78-.38,1.01-1.11,1.01-1.63-.03-3.27-.05-4.9,0-.9.03-1.16-.33-1.16-1.19.07-2.73.05-5.52.05-8.28h0ZM28.79,26.81c0,2.71-.02,5.39.02,8.1.03.89-.28,1.19-1.16,1.16-1.59-.05-3.19-.05-4.78,0-.8.03-1.23-.2-1.23-1.14.02-5.39.02-10.78,0-16.17,0-.91.33-1.29,1.26-1.26,1.58.05,3.19.05,4.78,0,.81-.03,1.11.28,1.11,1.11-.02,2.71,0,5.47,0,8.2h0ZM116.17,26.83c0,2.66-.05,5.32.03,7.95.03,1.01-.33,1.32-1.28,1.27-1.53-.08-3.09-.05-4.65,0-.81.03-1.11-.3-1.11-1.11.03-5.52.03-11.03,0-16.53,0-.78.23-1.16,1.06-1.16,1.63.03,3.27.03,4.9,0,.83-.03,1.08.35,1.06,1.14v8.45ZM125.77,36.02v-1.65c0-5.34,0-10.71-.03-16.05,0-.76.18-1.11.96-1.09,1.64.03,3.27,0,4.9,0,.85,0,1.13.38,1.13,1.26-.02,5.47,0,10.96-.05,16.43,0,.38-.4,1.04-.65,1.06-2.04.08-4.07.03-6.26.03h0ZM172.06,26.71c0-2.73.02-5.47-.03-8.2-.02-.94.3-1.29,1.23-1.27,1.53.05,3.09.03,4.65,0,.78-.03,1.16.23,1.13,1.06-.02,5.57-.02,11.11,0,16.68,0,.86-.35,1.09-1.13,1.09-1.56-.03-3.09-.05-4.65,0-.93.03-1.26-.33-1.23-1.26.05-2.71.03-5.39.03-8.1ZM210.76,26.61c0-2.73.02-5.47-.02-8.23-.02-.89.3-1.19,1.16-1.17,1.51.05,3.02.03,4.53,0,.93-.03,1.36.33,1.36,1.34-.02,5.44-.02,10.86,0,16.3,0,.89-.3,1.21-1.16,1.19-1.59-.05-3.19-.05-4.78,0-.83.03-1.11-.28-1.08-1.09.02-2.79,0-5.57,0-8.35ZM187.48,7.82c0-2.1.02-4.2,0-6.3-.02-1.01.4-1.47,1.41-1.47,1.46.03,2.94.03,4.4,0,.93-.03,1.31.4,1.31,1.27,0,4.35,0,8.68.02,13.03,0,.83-.38,1.09-1.16,1.09-1.59-.03-3.18-.03-4.78,0-.85.03-1.21-.33-1.21-1.19.02-2.15,0-4.3,0-6.43ZM85.57,7.87c0,2.15-.03,4.28.03,6.43.03.83-.3,1.14-1.11,1.11-1.63-.03-3.25-.03-4.88,0-.83.03-1.08-.35-1.08-1.14.02-4.25.02-8.5,0-12.76,0-1.01.35-1.57,1.48-1.49,1.41.08,2.84.05,4.25,0,1-.03,1.31.48,1.31,1.39-.03,2.15-.03,4.3,0,6.45,0,0-.03,0,0,0ZM116.17,7.85c0,2.15-.03,4.3,0,6.45,0,.81-.25,1.14-1.08,1.14-1.64-.05-3.27-.03-4.9,0-.78.03-1.03-.3-1.03-1.06.03-4.38.03-8.76,0-13.16,0-.89.43-1.19,1.26-1.19,1.51.03,3.02.05,4.53-.03,1.06-.05,1.28.48,1.28,1.37-.03,2.15,0,4.3,0,6.45,0,.03-.03.03-.05.03ZM57.1,57.99c.48,1.82.35,1.85-1.08,2.58-2.82,1.47-6.94-.99-7.47-4.05-.3-1.8-.25-3.52.33-5.21.85-2.43,3.7-3.82,6.64-3.24.33.08.65.13.98.25.55.23,1.48.15,1.08,1.24-.33.89-.55,1.6-1.84,1.01-2.31-1.04-4.05,0-4.45,2.53-.1.71-.15,1.44-.1,2.13.2,2.46,1.68,3.54,4.1,3.06.63-.1,1.23-.2,1.81-.3ZM164.34,48.35c2.29-.61,2.64-.46,3.57,1.39.5,1.01,1.01,2,1.68,3.32.63-1.19,1.18-2.15,1.66-3.14,1.03-2.05,1.16-2.1,3.7-1.62-.6,1.17-1.18,2.3-1.79,3.42-.6,1.11-1.43,2.13-1.79,3.32-.38,1.24-.35,2.61-.4,3.92-.07,1.52-.13,1.6-1.68,1.54-.65-.03-1.13-.2-1.01-.94.63-3.47-1.23-6.1-2.74-8.88-.43-.76-.8-1.54-1.21-2.33h0ZM133.72,48.12c.38,2.1.3,2.23-1.53,2.23-1.63,0-1.66.05-1.66,1.75,0,2.48-.02,4.96.05,7.44.02,1.04-.63.94-1.23.91-.63-.03-1.51.33-1.46-.91.05-2.61,0-5.21.08-7.82.02-1.06-.35-1.47-1.38-1.37-.38.05-.75-.03-1.13,0-.75.03-.9-.38-.9-1.04.03-.63-.03-1.21.86-1.19h8.32,0ZM89.89,54.3c0-1.72.05-3.44-.03-5.16-.05-.96.45-1.09,1.16-1.01.65.08,1.64-.46,1.64.89,0,3.54.05,7.09.05,10.63,0,1.22-.98.76-1.58.81-.63.05-1.28.13-1.28-.89.05-1.77,0-3.52,0-5.29.03.03.05.03.05.03Z"/>
  </g>
</svg>