<?xml version="1.0" encoding="UTF-8"?>
<svg id="Layer_2" data-name="Layer 2" xmlns="http://www.w3.org/2000/svg" viewBox="0 0 205 63.8">
  <defs>
    <style>
      .cls-1 {
        fill: #fff;
        stroke-width: 0px;
      }
    </style>
  </defs>
  <g id="Layer_1-2" data-name="Layer 1">
    <path class="cls-1" d="M11.87,57.48c0,2.37-.59,3.95-1.98,5.14-.79.79-1.98.99-3.56.99-1.98,0-3.36-.79-4.55-2.17-.99-1.38-1.39-2.76-1.39-4.35,0-1.97.4-3.56,1.58-4.94.59-.59,1.19-1.18,1.78-1.58.79-.39,1.58-.59,2.57-.59s1.78.2,2.77.39c.79.2,1.39.59,1.78,1.18.2.2.2.39.2.59s0,.39-.2.59c-.2.2-.4.2-.59.2s-.4,0-.59-.2c-.59-.39-.99-.79-1.39-.99-.59-.2-.99-.39-1.78-.39-1.39,0-2.57.59-3.36,1.78-.65,1.07-.99,2.3-.99,3.56,0,1.98.59,3.36,1.58,4.54.62.64,1.48,1,2.37.99.59,0,1.39-.2,1.98-.39,1.39-.59,2.18-1.97,2.18-3.75v-.59h-2.38c-.4,0-.79-.2-.79-.79s.2-.79.79-.79h2.97c.59,0,.99.59.99,1.38v.2ZM204.8,57.48c0,2.37-.59,3.95-1.98,5.14-.79.79-1.98.99-3.56.99-1.98,0-3.36-.79-4.55-2.17-.99-1.38-1.38-2.76-1.38-4.35,0-1.97.4-3.56,1.58-4.94.59-.59,1.19-1.18,1.78-1.58.79-.39,1.58-.59,2.57-.59s1.78.2,2.77.39c.79.2,1.38.59,1.78,1.18.2.2.2.39.2.59s0,.39-.2.59c-.2.2-.4.2-.59.2s-.4,0-.59-.2c-.59-.39-.99-.79-1.39-.99-.59-.2-.99-.39-1.78-.39-1.38,0-2.57.59-3.36,1.78-.65,1.07-.99,2.3-.99,3.56,0,1.98.59,3.36,1.58,4.54.62.64,1.48,1,2.38.99.59,0,1.38-.2,1.98-.39,1.38-.59,2.18-1.97,2.18-3.75v-.59h-2.37c-.4,0-.79-.2-.79-.79s.2-.79.79-.79h2.97c.79,0,1.19.39,1.19,1.18v.39h-.2,0ZM93.6,62.62c0,.79-.2,1.18-.79,1.18-.4,0-.79-.2-.79-.79l-1.58-10.86-3.17,10.86c-.2.39-.4.59-.79.59s-.79-.2-.79-.59l-3.17-10.86-1.58,10.86c0,.59-.39.79-.99.79-.4,0-.79-.39-.79-.99v-.39l1.98-11.26c0-.39.2-.59.4-.79.2-.2.59-.39.79-.39.39,0,.59,0,.79.2.2.2.4.39.4.59l2.77,9.68,2.77-9.88c0-.2.2-.39.4-.59.2-.2.4-.2.79-.2s.59,0,.79.2c.2.2.4.39.4.79,0,0,2.18,11.85,2.18,11.85ZM124.46,62.82c0,.59-.2.99-.79.99s-.79-.2-.79-.79v-11.85c0-.59.2-.79.79-.79s.79.2.79.79v11.65ZM164.24,62.82c0,.59-.2.79-.79.79-.4,0-.59-.2-.99-.59l-7.12-10.07v9.68c0,.59-.2.79-.79.79s-.79-.2-.79-.79v-11.85c0-.59.2-.79.59-.79s.59.2.99.59l6.93,10.07v-9.68c0-.2,0-.39.2-.59.2-.2.4-.2.59-.2.59,0,.79.2.79.79v11.85h.4ZM51.05,63.01c0,.39-.2.59-.79.59-.2,0-.4,0-.59-.2q-.2,0-.2-.2l-.79-2.37h-6.13l-1.19,2.37c-.2.39-.4.59-.79.59s-.79-.2-.79-.59v-.39l4.35-11.46c.2-.39.2-.59.4-.79.2-.2.4-.2.59-.2s.4,0,.79.2c.2.2.4.39.4.79l4.35,11.46c.4,0,.4.2.4.2ZM48.08,59.26l-2.57-7.31-2.77,7.31h5.34ZM171.76,10.67c2.95,0,5.34-2.39,5.34-5.33,0-2.95-2.39-5.34-5.34-5.33-2.95,0-5.34,2.38-5.34,5.33h0c0,2.95,2.39,5.34,5.34,5.33,0,0,0,0,0,0ZM205,5.33c0,2.94-2.36,5.32-5.3,5.33-.02,0-.03,0-.05,0-2.94.01-5.33-2.35-5.34-5.29,0-.02,0-.03,0-.05C194.31,2.4,196.68.01,199.61,0c.02,0,.03,0,.05,0,2.94-.01,5.33,2.35,5.34,5.29,0,.01,0,.03,0,.04ZM171.76,36.74c2.95,0,5.34-2.39,5.34-5.33,0-2.95-2.39-5.34-5.34-5.33-2.95,0-5.34,2.38-5.34,5.33h0c0,2.95,2.39,5.34,5.34,5.33h0ZM205,31.41c0,2.94-2.36,5.32-5.3,5.33-.02,0-.03,0-.05,0-2.94.01-5.33-2.35-5.34-5.29,0-.02,0-.03,0-.05,0-2.94,2.36-5.32,5.3-5.33.02,0,.03,0,.05,0,2.94-.01,5.33,2.35,5.34,5.29,0,.01,0,.03,0,.04ZM191.15,18.37c0,2.94-2.36,5.32-5.3,5.33-.02,0-.03,0-.05,0-2.94.01-5.33-2.35-5.34-5.29,0-.02,0-.03,0-.05,0-2.94,2.36-5.32,5.3-5.33.01,0,.03,0,.04,0,2.94-.01,5.33,2.35,5.34,5.29,0,.01,0,.03,0,.04ZM157.51,35.56L142.67.59c-.2-.4-.4-.59-.79-.59h-6.33c-.4,0-.59.2-.79.59l-15.04,34.96v.2c0,.39.2.59.59.59h6.73c.4,0,.59-.2.79-.59l3.17-8.1h15.83l3.17,8.1c.2.39.4.59.79.59h6.73c.4,0,.59-.2.59-.59-.4,0-.4-.2-.59-.2h0ZM133.17,21.33l5.54-14.02,5.54,14.02h-11.08ZM52.04,11.26c.4-1.38.99-1.98.99-1.98,0,0,.79-1.38,2.57-2.17s3.36-.79,3.36-.79h13.26c.4,0,.79-.4.79-.79V.79C73.02.4,72.62,0,72.23,0h-14.64C49.47,0,42.94,7.11,42.94,15.8v5.14c0,8.69,6.53,15.8,14.64,15.8h14.64c.4,0,.79-.39.79-.79v-4.94c0-.39-.39-.79-.79-.79h-13.26s-1.78,0-3.36-.79c-1.78-.79-2.57-2.17-2.57-2.17,0,0-.59-.79-.99-1.97-.4-1.38-.4-3.16-.4-3.16v-.79h20.58c.4,0,.79-.4.79-.79v-4.94c0-.39-.39-.79-.79-.79h-20.58v-.39s.2-1.78.4-3.16ZM97.55,36.35h12.07c.4,0,.59-.39.59-.79v-4.94c0-.39-.2-.79-.59-.79h-10.88s-1.39,0-2.77-.79-2.18-2.17-2.18-2.17c0,0-.79-.79-.79-2.17V.59C93,.2,92.8,0,92.41,0h-6.33c-.4,0-.79.4-.79.79v24.1c.2,6.32,5.54,11.46,12.27,11.46h0ZM32.65,35.56l-8.51-14.22c4.35-.99,7.32-3.95,7.32-10.47C31.66,2.17,25.72.2,18.4,0H.79C.4,0,0,.4,0,.79v34.96c0,.39.4.79.79.79h6.33c.4,0,.79-.39.79-.79v-13.63h8.9l7.92,13.83c.2.39.59.59.99.59h6.73c.4,0,.59-.2.59-.59-.4-.2-.4-.39-.39-.4ZM18.6,15.61l-1.98.2H7.72V6.52h10.88c4.16,0,5.34,1.97,5.34,4.54-.2,2.57-1.38,4.54-5.34,4.54Z"/>
  </g>
</svg>