<?xml version="1.0" encoding="UTF-8"?>
<svg id="Layer_2" data-name="Layer 2" xmlns="http://www.w3.org/2000/svg" viewBox="0 0 225.8 102.99">
  <defs>
    <style>
      .cls-1 {
        fill: #fff;
        stroke-width: 0px;
      }
    </style>
  </defs>
  <g id="Layer_1-2" data-name="Layer 1">
    <g>
      <path class="cls-1" d="M194.39,40.13c-11.22.69-6.18,15.21,6.22,14.45,12.13-.75,5.73-15.18-6.22-14.45Z"/>
      <path class="cls-1" d="M189.65,31.16c-7.14,0-14.13,2.1-20.08,6.05-5.94,3.94-10.57,9.55-13.31,16.12-2.73,6.56-3.45,13.78-2.06,20.75,1.4,6.98,4.84,13.38,9.89,18.39,5.07,5.03,11.5,8.45,18.51,9.83,7.01,1.39,14.27.68,20.88-2.04,6.59-2.71,12.24-7.31,16.22-13.23,3.97-5.9,6.09-12.85,6.09-19.96,0-9.54-3.82-18.68-10.59-25.4-6.8-6.74-15.98-10.53-25.56-10.52h0ZM189.65,99.23c-6.39,0-12.65-1.88-17.97-5.41-5.31-3.52-9.46-8.54-11.92-14.43-2.45-5.87-3.09-12.34-1.84-18.57,1.25-6.24,4.33-11.97,8.85-16.46,4.53-4.5,10.3-7.56,16.56-8.8,6.27-1.24,12.78-.6,18.69,1.83,5.9,2.43,10.95,6.55,14.52,11.84,3.55,5.28,5.45,11.5,5.45,17.86,0,8.54-3.41,16.72-9.47,22.73-6.08,6.04-14.3,9.42-22.87,9.42h0ZM188.56,6.09c-8.58,6.44-7.09,16.33-7.09,16.33,0,0-5.39-13.91-12.4-22.42-.95,10.95,2.51,25.45,2.51,25.45,0,0-4.39-8.99-15.13-9.5,8.91,5.09,12.37,14.26,13.16,16.72,5.32-3.26,11.39-5.09,17.63-5.3-.7-2.29-3.2-11.94,1.32-21.29h0Z"/>
      <path class="cls-1" d="M3.15,70.6v7.52H0v-19.36h6.63c2.25,0,3.93.53,5.07,1.59,1.13,1.06,1.7,2.51,1.71,4.36,0,1.83-.58,3.27-1.74,4.32-1.16,1.05-2.83,1.57-5.02,1.57h-3.49,0ZM10.19,64.7c0-1.1-.31-1.94-.93-2.51-.62-.58-1.6-.86-2.97-.86h-3.15v6.72h3.15c2.59,0,3.89-1.12,3.89-3.35ZM26.39,78.11l-4.86-7.73h-2.24v7.73h-3.15v-19.36h6.88c2.23,0,3.91.54,5.07,1.62,1.15,1.08,1.73,2.51,1.73,4.28,0,1.51-.43,2.75-1.28,3.73-.86.98-2.09,1.6-3.7,1.86l5.12,7.87h-3.56ZM19.3,68.16h3.47c2.54,0,3.81-1.12,3.81-3.35,0-1.06-.31-1.89-.92-2.48-.62-.59-1.58-.89-2.89-.89h-3.47v6.72ZM44.28,73.92h-8.23l-1.49,4.2h-3.37l7.18-19.06h3.62l7.15,19.06h-3.37l-1.49-4.2ZM43.4,71.51l-3.23-9.05-3.23,9.05h6.46ZM65.04,60.28c1.54,1.13,2.63,2.78,3.07,4.64h-3.31c-.41-1.03-1.14-1.91-2.09-2.5-1.03-.64-2.22-.96-3.44-.93-1.15-.02-2.28.27-3.27.85-.97.57-1.76,1.41-2.26,2.41-.56,1.15-.84,2.41-.8,3.69-.04,1.32.25,2.63.83,3.82.52,1.02,1.33,1.87,2.33,2.43,1.07.58,2.28.87,3.49.85,1.53.03,3.01-.51,4.16-1.52,1.16-1,1.86-2.36,2.1-4.1h-7.16v-2.31h9.8v2.99c-.21,1.39-.73,2.72-1.53,3.88-.81,1.17-1.9,2.13-3.17,2.79-1.4.71-2.95,1.07-4.51,1.04-1.76.04-3.49-.4-5.03-1.26-1.43-.82-2.6-2.03-3.37-3.5-1.58-3.23-1.58-7,0-10.23.76-1.46,1.92-2.67,3.35-3.48,1.53-.85,3.26-1.28,5.01-1.25,2.32,0,4.25.57,5.8,1.7ZM90.72,59.05v19.06h-3.18v-14.29l-5.55,14.29h-2.76l-5.58-14.29v14.29h-3.14v-19.06h3.81l6.35,15.22,6.24-15.22h3.81,0ZM106.12,73.92h-8.21l-1.49,4.2h-3.38l7.18-19.06h3.61l7.15,19.06h-3.37s-1.49-4.2-1.49-4.2ZM105.24,71.51l-3.23-9.05-3.23,9.05h6.46ZM124.45,58.75v2.52h-5.44v16.84h-3.18v-16.84h-5.41v-2.52h14.02ZM129.28,58.75v19.37h-3.14v-19.36h3.14ZM147.09,60.37c1.59,1.23,2.72,2.96,3.2,4.91h-3.34c-.43-1.13-1.19-2.1-2.2-2.79-1.09-.71-2.38-1.07-3.68-1.03-1.09-.02-2.17.28-3.1.85-.93.59-1.68,1.43-2.15,2.43-1.05,2.34-1.05,5.01,0,7.35.48,1,1.22,1.84,2.15,2.43.93.57,2.01.87,3.1.85,1.3.04,2.59-.32,3.68-1.03,1-.67,1.76-1.64,2.2-2.76h3.34c-.47,1.95-1.61,3.68-3.2,4.9-1.58,1.2-3.57,1.8-5.96,1.8-1.71.03-3.4-.4-4.89-1.25-1.41-.82-2.55-2.03-3.29-3.48-1.55-3.24-1.55-7,0-10.23.74-1.46,1.88-2.67,3.29-3.5,1.48-.86,3.17-1.29,4.89-1.26,2.39,0,4.38.61,5.96,1.81h0ZM165.14,70.6v7.52h-3.15v-19.36h6.63c2.24,0,3.93.53,5.07,1.59,1.13,1.06,1.7,2.51,1.71,4.36,0,1.83-.58,3.27-1.74,4.32-1.16,1.05-2.83,1.57-5.02,1.57h-3.49,0ZM172.19,64.7c0-1.1-.31-1.94-.93-2.51s-1.61-.86-2.97-.86h-3.16v6.72h3.15c2.6,0,3.9-1.12,3.9-3.35h0ZM180.79,75.67h6.74v2.44h-9.88v-19.36h3.15v16.93h0ZM201.94,73.92h-8.23l-1.49,4.2h-3.37l7.18-19.06h3.62l7.15,19.06h-3.37l-1.49-4.2ZM201.06,71.51l-3.23-9.05-3.23,9.05h6.46ZM219.43,58.75l-6.49,12.32v7.05h-3.17v-7.05l-6.51-12.32h3.65l4.47,8.97,4.47-8.97h3.58Z"/>
    </g>
  </g>
</svg>