<?xml version="1.0" encoding="UTF-8"?>
<svg id="Layer_2" data-name="Layer 2" xmlns="http://www.w3.org/2000/svg" viewBox="0 0 224 42.51">
  <defs>
    <style>
      .cls-1 {
        fill: #fff;
        stroke-width: 0px;
      }
    </style>
  </defs>
  <g id="Layer_1-2" data-name="Layer 1">
    <g>
      <path class="cls-1" d="M6.07,39.47V7.95l26.6,13.31-15.07,7.54v-7.54c0-1.68-1.36-3.04-3.04-3.04s-3.04,1.36-3.04,3.04v12.45c0,1.06.54,2.03,1.44,2.58.9.55,2.01.61,2.95.14l24.89-12.45c1.03-.51,1.68-1.56,1.68-2.71s-.65-2.2-1.68-2.71L4.39.32C3.45-.15,2.33-.1,1.44.46.54,1.01,0,1.98,0,3.04v36.43c0,1.68,1.36,3.04,3.04,3.04s3.04-1.36,3.04-3.04Z"/>
      <path class="cls-1" d="M82.14,14.63c-.34-.81-.91-1.49-1.63-1.98-.36-.24-.76-.44-1.18-.57-.42-.13-.88-.2-1.34-.2h-12.38c-.49,0-.98.2-1.33.55-.35.35-.55.83-.55,1.33v15c0,1.03.84,1.88,1.88,1.88s1.88-.84,1.88-1.88v-4.38h10.5c.62,0,1.22-.12,1.75-.36.81-.34,1.49-.91,1.98-1.63.24-.36.44-.76.57-1.18.13-.42.2-.88.2-1.34v-3.5c0-.62-.12-1.22-.36-1.75h0ZM78.74,19.88c0,.11-.02.2-.06.29-.06.13-.15.25-.27.33-.06.04-.12.07-.19.1-.07.02-.14.03-.23.03h-10.5v-5h10.5c.11,0,.2.02.29.06.13.06.25.15.33.27.04.06.07.12.1.19.02.07.03.14.03.23v3.5h-.01Z"/>
      <path class="cls-1" d="M171.88,20.15c-.36-.24-.76-.44-1.18-.57-.42-.13-.88-.2-1.34-.2h-11c-.11,0-.2-.02-.29-.06-.13-.06-.25-.15-.33-.27-.04-.06-.07-.12-.1-.19-.02-.07-.03-.14-.03-.23v-2.25c0-.11.02-.2.06-.29.06-.13.15-.25.27-.33.06-.04.12-.07.19-.1.07-.02.14-.03.23-.03h13c1.03,0,1.88-.84,1.88-1.88s-.84-1.88-1.88-1.88h-13c-.62,0-1.22.12-1.75.36-.81.34-1.49.91-1.98,1.63-.24.36-.44.76-.57,1.18-.13.42-.2.88-.2,1.34v2.25c0,.62.12,1.22.36,1.75.35.81.91,1.49,1.63,1.98.36.24.76.44,1.18.57.42.13.88.2,1.34.2h11c.11,0,.2.02.29.06.13.06.25.15.33.27.04.06.07.12.1.19.02.07.03.14.03.23v2.25c0,.11-.02.2-.06.29-.06.13-.15.25-.27.33-.06.04-.12.07-.19.1-.07.02-.14.03-.23.03h-13c-1.03,0-1.88.84-1.88,1.88s.84,1.88,1.88,1.88h13c.62,0,1.22-.12,1.75-.36.81-.34,1.49-.91,1.98-1.63.24-.36.44-.76.57-1.18.13-.42.2-.88.2-1.34v-2.25c0-.62-.12-1.22-.36-1.75-.35-.81-.91-1.49-1.63-1.98h0Z"/>
      <path class="cls-1" d="M149.35,12.34c-.78-.68-1.96-.61-2.65.18l-7.34,8.39-7.34-8.39c-.68-.78-1.87-.86-2.65-.18-.78.68-.86,1.87-.18,2.65l8.29,9.47v4.3c0,1.03.84,1.88,1.88,1.88s1.88-.84,1.88-1.88v-4.3l8.29-9.47c.68-.78.61-1.96-.18-2.65h-.01Z"/>
      <path class="cls-1" d="M198.45,14.63c-.35-.81-.91-1.49-1.63-1.98-.36-.24-.76-.44-1.18-.57-.42-.13-.88-.2-1.34-.2h-11c-.62,0-1.22.12-1.75.36-.81.35-1.49.91-1.98,1.63-.24.36-.43.76-.57,1.18s-.2.88-.2,1.34v9.75c0,.62.12,1.22.36,1.75.35.81.91,1.49,1.63,1.98.36.24.76.44,1.18.57.42.13.88.2,1.34.2h11c.62,0,1.22-.12,1.75-.36.81-.34,1.49-.91,1.98-1.63.24-.36.44-.76.57-1.18.13-.42.2-.88.2-1.34v-9.75c0-.62-.12-1.22-.36-1.75h0ZM195.05,26.13c0,.11-.02.2-.06.29-.06.13-.15.25-.27.33-.06.04-.12.07-.19.1-.07.02-.14.03-.23.03h-11c-.11,0-.2-.02-.29-.06-.13-.06-.25-.15-.33-.27-.04-.06-.07-.12-.1-.19-.02-.07-.03-.14-.03-.23v-9.75c0-.11.02-.2.06-.29.06-.13.15-.25.27-.33.06-.04.12-.07.19-.1.07-.02.14-.03.23-.03h11c.11,0,.2.02.29.06.13.06.25.15.33.27.04.06.07.12.1.19.02.07.03.14.03.23v9.75h0Z"/>
      <path class="cls-1" d="M222.12,11.88c-1.04,0-1.88.84-1.88,1.88v10.72l-13.1-12.1c-.55-.51-1.34-.64-2.02-.34-.68.3-1.12.97-1.12,1.72v15c0,1.03.84,1.88,1.88,1.88s1.88-.84,1.88-1.88v-10.72l13.1,12.1c.55.51,1.34.64,2.02.34.68-.3,1.12-.97,1.12-1.72v-15c0-1.03-.84-1.88-1.88-1.88h0Z"/>
      <path class="cls-1" d="M102.37,26.88h-11.25v-13.12c0-1.03-.84-1.88-1.88-1.88s-1.88.84-1.88,1.88v15c0,.49.2.98.55,1.32.35.35.83.55,1.33.55h13.12c1.03,0,1.88-.84,1.88-1.88s-.84-1.88-1.88-1.88h0Z"/>
      <path class="cls-1" d="M127.87,30.63c-.64,0-1.27-.33-1.62-.93l-7.13-12.23-7.13,12.23c-.52.89-1.67,1.2-2.57.67-.89-.52-1.2-1.67-.67-2.57l8.75-15c.33-.58.96-.93,1.62-.93s1.28.36,1.62.93l8.75,15c.52.89.22,2.04-.67,2.57-.3.18-.62.25-.94.25h0Z"/>
    </g>
  </g>
</svg>