<?xml version="1.0" encoding="UTF-8"?>
<svg id="Layer_2" data-name="Layer 2" xmlns="http://www.w3.org/2000/svg" viewBox="0 0 98.61 98.39">
  <defs>
    <style>
      .cls-1 {
        fill: #fff;
        stroke-width: 0px;
      }
    </style>
  </defs>
  <g id="Layer_1-2" data-name="Layer 1">
    <g>
      <path class="cls-1" d="M95.48,57.08c4.18-4.18,4.18-10.95,0-15.12-4.18-4.18-10.95-4.18-15.12,0-4.18,4.18-4.18,10.95,0,15.12,4.18,4.18,10.95,4.18,15.12,0Z"/>
      <path class="cls-1" d="M67.49,55.59l-5.01-5.01.05-.05-9.9-9.9c-.64-.64-1.67-.64-2.31,0,0,0,0,0,0,0l-9.68,9.69c-.64.64-.64,1.67,0,2.31,0,0,0,0,0,0l9.9,9.9.03-.03,3.53,3.53c.82.82.82,2.16,0,2.98h0s-5.08,5.09-5.08,5.09c-.64.64-1.67.64-2.31,0,0,0,0,0,0,0l-3.9-3.9h.01s-11.93-11.92-11.93-11.92l-6.57-6.58c-.63-.64-.63-1.67,0-2.31l8.67-8.67,7.73-7.73,8.66-8.66c.64-.64,1.67-.64,2.31,0,0,0,0,0,0,0l8.65,8.65h.01s9.75,9.75,9.75,9.75c.64.64,1.68.64,2.31,0l9.6-9.6c.64-.64.64-1.67,0-2.31,0,0,0,0,0,0l-14.49-14.49h0s-5.07-5.07-5.07-5.07h.01S51.69.48,51.69.48c-.64-.64-1.67-.64-2.31,0,0,0,0,0,0,0l-8.67,8.67-1.04,1.05-1.04,1.05-9.83,9.83-7.73,7.73-11.91,11.92L.48,49.37c-.64.64-.64,1.67,0,2.31,0,0,0,0,0,0l8.65,8.65h-.01s11.92,11.93,11.92,11.93h.01s7.72,7.71,7.72,7.71h-.01s7.16,7.17,7.16,7.17l4.75,4.75,6,6c.64.64,1.68.64,2.31,0l8.67-8.67,1.04-1.04,1.04-1.04,7.73-7.74,10.76-10.76c.64-.64.64-1.67,0-2.31,0,0,0,0,0,0l-10.76-10.76h0Z"/>
    </g>
  </g>
</svg>