<?xml version="1.0" encoding="UTF-8"?>
<svg id="Layer_2" data-name="Layer 2" xmlns="http://www.w3.org/2000/svg" viewBox="0 0 112 112">
  <defs>
    <style>
      .cls-1 {
        fill: #fff;
        fill-rule: evenodd;
        stroke-width: 0px;
      }
    </style>
  </defs>
  <g id="Layer_1-2" data-name="Layer 1">
    <g>
      <path class="cls-1" d="M94.77,14c2.89,1.96.56,7-.33,8.8-3.85,7.82-8.47,11.68-11.9,14.56h0c-.3.25-.59.49-.87.73,4.58-4.54,8.33-9.85,11.08-15.67.98-2.17,1.76-5.31.51-6.52-1.02-.97-2.73-1.67-7-.43,2.09-1.23,5.8-3.29,8.51-1.46h0ZM28.46,15.08c4.21-1.76,9.61.39,16.43,3.1,2.53,1,5.26,2.09,8.19,3.08,9.78,3.17,20.5,1.22,28.52-5.21,2.68,4.87,1.99,10.87-.98,16.51,2.21-4.36,2.51-9.45.84-14.04,0,0-10.43,7.1-21.9,6.18-8.34-.67-15.25-3.42-19.69-5.2-1.66-.66-2.98-1.19-3.9-1.42-3.38-.84-5.96-.72-7.79,2.19-1.62,2.6-.97,11.55,3.45,19.5,4.42,7.95,13.07,11.82,22.8,12.02,6.79-.02,13.53-1.2,19.93-3.48,1.56-.75,2.99-5.93,2.99-5.93-.2,2.29-.74,4.55-1.6,6.68-2.96,1.62-9.51,4.33-22.05,4.55-16.04.36-23.7-1.44-25.1-3.03-.34-.38-.34-.95,0-1.33.02-.05.05-.09.09-.13.1-.15.22-.28.35-.4l.2-.17c.34-.29.71-.55,1.1-.78l.16-.09.14-.09h.13l.32-.16.19-.1.4-.19c-.23.17-.45.35-.65.55l-.09.1-.1.1-.14.2-.09.16c-.3.62,0,1.17.62,1.62l.36.2.2.09c.14.07.28.14.43.19.25.09.49.17.76.24l.27.07.59.13c1.43.27,2.88.42,4.33.43-1.34-1.44-3.68-4.24-4.62-5.6-2.37-3.26-4.31-6.8-5.77-10.55-2.58-5.92-4.6-17.77.66-20.01ZM22.13,44.94c-2.48,1.44-5.54,3.68-4.71,5.98,1.2,3.28,17.79,6.67,37.53,6.32,19.73-.35,37.28-4.46,40.01-9.99,1.08-2.17-2.29-3.9-6.28-5.95h-.03c5.43,1.43,8.66,3.29,8.82,5.54.27,5.44-18.08,10.85-41.02,12.05-22.93,1.2-41.71-2.25-42.03-7.71-.12-2.12,2.74-4.36,7.71-6.25ZM59.81,81.32c.42.51,1.06.79,1.72.76.59,0,1.16-.13,1.7-.36.92-.43,1.8-.96,2.61-1.57l.2.35c-1.52,1.62-3.57,2.64-5.77,2.89-.96.1-1.9-.33-2.47-1.11-.47-.71-.65-1.57-.5-2.41.25-1.34.82-2.6,1.64-3.68.84-1.17,1.92-2.15,3.16-2.89,1.06-.68,2.29-1.07,3.55-1.13.63-.07,1.27.11,1.78.5.17.15.29.34.37.55.08.21.1.44.06.66-.14.73-.52,1.4-1.08,1.89-.95.87-2.09,1.51-3.32,1.89-1.26.4-2.55.66-3.87.77-.1.33-.19.67-.25,1.01-.14.66.03,1.35.46,1.88h0ZM22.85,83.03h-12.32l.23-.48c.43.01.86-.04,1.27-.16.3-.11.56-.3.77-.55.44-.62.79-1.3,1.07-2.01l4.26-9.71c.27-.58.47-1.18.61-1.8.06-.25-.02-.52-.22-.69-.36-.23-.78-.32-1.2-.27h-.23l.22-.48h11.55l-1.59,3.84h-.48c.1-.3.17-.61.22-.92.08-.36.03-.74-.16-1.05-.23-.39-.59-.69-1.02-.84-.84-.2-1.71-.28-2.57-.22h-2.02l-2.8,6.35h1.44c.83.08,1.67-.07,2.42-.43.62-.5,1.11-1.14,1.44-1.86h.48l-2.5,5.88h-.48c.19-.39.32-.81.4-1.24.06-.27.03-.56-.1-.81-.1-.21-.28-.37-.49-.46-.49-.13-1.01-.18-1.52-.14h-1.47l-2.44,5.57c-.17.32-.3.66-.38,1.01-.03.19.06.38.22.49.33.12.68.16,1.03.13h1.44c1.32.05,2.63-.24,3.81-.84,1.2-.71,2.22-1.7,2.96-2.89h.42l-2.27,4.59h0ZM27.57,82.83c-.18-.1-.37-.17-.58-.19-.4.03-.75.29-.91.66h-.43l1.26-3.9h.48c-.2.88-.07,1.8.36,2.6.42.51,1.07.79,1.73.74.55.03,1.08-.14,1.52-.48.37-.32.62-.76.69-1.24.07-.29.07-.6,0-.89-.26-.72-.62-1.39-1.07-2.01-.43-.59-.79-1.23-1.05-1.9-.15-.41-.19-.84-.12-1.27.12-.76.51-1.46,1.11-1.95.6-.53,1.37-.83,2.17-.84.22-.02.45-.02.68,0,.24.09.48.19.71.32.24.14.5.23.76.28.4-.04.76-.29.92-.66h.45l-1.21,3.61h-.46c.15-.78.05-1.59-.29-2.31-.29-.47-.81-.75-1.36-.74-.43-.01-.84.13-1.17.4-.29.26-.49.61-.55,1-.06.25-.06.5,0,.75.15.36.35.7.58,1.01.61.79,1.12,1.66,1.53,2.57.21.56.28,1.16.19,1.75-.16.88-.64,1.67-1.36,2.21-.77.64-1.74.99-2.74.97-.64-.03-1.26-.19-1.83-.48h0ZM37.67,105.92c-.11.17-.27.32-.45.42-.18.12-.39.2-.61.23-.22.05-.45.07-.68.07-.23,0-.46-.03-.69-.07-.21-.05-.41-.14-.59-.26-.18-.12-.32-.28-.42-.46-.11-.22-.17-.46-.17-.71h.74c.01.15.05.29.11.42.07.1.17.19.28.26.12.07.24.12.38.14.14.01.29.01.43,0h.36c.12-.02.24-.05.35-.1.11-.03.2-.1.26-.2.07-.1.11-.21.1-.33.01-.17-.07-.34-.22-.43-.16-.11-.34-.19-.53-.23-.23-.07-.46-.13-.69-.17-.24-.04-.47-.11-.69-.2-.2-.08-.38-.21-.53-.36-.15-.19-.23-.43-.22-.68,0-.2.05-.4.14-.58.1-.15.24-.29.39-.39.16-.1.34-.18.53-.22.19-.03.39-.03.58,0,.23-.02.46-.02.69,0,.2.04.39.12.56.23.17.11.3.26.39.43.11.2.17.43.17.66h-.72c-.01-.13-.05-.25-.12-.36-.06-.09-.15-.16-.25-.22-.1-.06-.21-.1-.32-.13-.12-.01-.24-.01-.36,0h-.32c-.11.01-.22.04-.32.09-.08.04-.16.1-.22.17-.06.08-.09.18-.09.29,0,.12.04.23.13.3.09.09.21.16.33.2l.46.14.52.11.53.14c.17.05.32.13.46.23.13.1.25.22.33.36.1.19.14.41.12.62-.02.22-.1.44-.23.62l.07-.06h0ZM39.78,106.54h-.72v-4.37h.72v4.37ZM39.78,101.32h-.72v-.89h.72v.89ZM44.93,106.56h-.72v-2.96c.03-.45-.31-.85-.76-.88-.05,0-.1,0-.15,0-.2,0-.39.03-.58.1-.16.06-.29.16-.4.29-.11.13-.19.27-.25.43-.06.18-.09.37-.09.56v2.51h-.72v-4.45h.68v.71c.28-.53.85-.84,1.44-.81.25,0,.5.04.74.12.18.08.34.2.46.35.13.14.22.32.26.5.03.22.03.43,0,.65l.09,2.87ZM39.73,83.32c-.34,0-.68-.04-1.01-.14-.34-.1-.66-.25-.95-.45l-1.39,3.04c-.18.37-.32.76-.43,1.15-.07.33.14.66.48.74.4.09.81.12,1.21.1l-.17.48h-5.56l.19-.48c.55.02,1.09-.12,1.56-.39.48-.52.85-1.13,1.08-1.8l4.53-10.42c.18-.4.33-.8.46-1.21.03-.18-.01-.36-.11-.5-.14-.13-.34-.2-.53-.17-.32,0-.64.04-.95.09l.07-.48,4.16-.71-1.24,2.89c.78-.85,1.67-1.59,2.64-2.21.65-.42,1.41-.65,2.18-.68.66-.02,1.29.3,1.66.85.43.65.58,1.44.42,2.19-.39,2.04-1.4,3.91-2.89,5.36-1.32,1.65-3.29,2.66-5.4,2.76h0ZM49.48,106.26c-.37.32-.85.48-1.34.45-.31,0-.61-.05-.89-.16-.25-.1-.47-.26-.65-.46-.18-.21-.31-.46-.39-.72-.09-.29-.13-.6-.13-.91,0-.32.03-.63.12-.94.08-.28.22-.53.4-.75.18-.21.4-.39.65-.5.29-.12.61-.18.92-.17.24,0,.48.03.71.09.21.05.4.15.58.27.17.14.31.3.42.48.11.21.18.44.2.68h-.69c-.04-.25-.16-.49-.36-.65-.21-.16-.47-.25-.74-.23-.23-.01-.46.04-.66.14-.17.09-.32.22-.42.39-.11.16-.19.35-.23.55-.02.22-.02.43,0,.65-.02.2-.02.4,0,.61.05.18.13.36.23.52.11.15.24.27.4.36.18.09.39.14.59.13.3.02.6-.08.84-.27.22-.22.35-.5.38-.81h.75c-.07.49-.31.94-.68,1.27ZM50.11,88.58c.04.45-.1.9-.39,1.25-.41.4-.97.6-1.54.55-.31,0-.62-.03-.92-.11-.23-.08-.45-.2-.64-.36-.17-.16-.3-.37-.38-.59h1.03c.1.11.22.19.36.23.17.05.34.07.52.07.21.01.41-.02.61-.1.13-.06.25-.15.33-.28.08-.18.11-.38.1-.58-.15.14-.34.25-.53.32-.2.07-.41.1-.62.1-.47.01-.93-.16-1.27-.49-.52-.5-.68-1.27-.39-1.94.09-.22.23-.41.39-.57.33-.29.76-.44,1.2-.43.21,0,.41.04.61.1.21.08.42.2.59.35v-.39h.92l.03,2.87h0ZM51.86,105.16c.05.17.14.33.26.46.11.14.26.26.43.33.2.08.41.12.62.11.27.01.54-.06.76-.22.21-.16.35-.39.39-.65h.72c-.07.44-.3.84-.65,1.13-.36.26-.8.39-1.24.38-.32,0-.63-.05-.92-.17-.25-.11-.48-.27-.66-.48-.18-.22-.31-.47-.39-.74-.09-.31-.14-.62-.16-.94,0-.32.05-.64.16-.94.1-.27.24-.51.43-.72.18-.21.41-.37.66-.48.26-.12.54-.18.82-.17.35-.02.7.07,1,.25.25.16.46.37.62.62.16.25.27.53.33.82.04.28.04.57,0,.85h-3.32c.02.19.06.37.13.55ZM56.59,74.11c-.04-.07-.12-.12-.2-.11-.14,0-.27.03-.39.1-.39.26-.75.58-1.05.94-.91.97-1.77,2-2.57,3.07-.42.56-.79,1.15-1.1,1.78-.48.92-.74,1.44-.81,1.66l-.64,1.44h-1.75l3.25-7.4c.29-.58.52-1.2.66-1.83.02-.13-.03-.27-.13-.36-.16-.13-.37-.2-.58-.19-.3.01-.6.05-.89.1v-.48l4.19-.65-2.58,5.77c1.25-1.87,2.76-3.56,4.49-5.01.45-.41,1.01-.68,1.62-.78.21-.02.42.07.56.23.13.21.18.46.12.69-.08.56-.3,1.1-.64,1.56-.17.33-.51.54-.88.55-.17,0-.33-.07-.43-.2-.12-.17-.17-.38-.14-.59.01-.13,0-.25-.1-.29ZM57.27,88.66c-.34-.33-.53-.78-.52-1.26-.02-.48.17-.94.52-1.27.5-.47,1.22-.62,1.86-.38.2.07.39.19.55.33v-.38h.94v3.36h-.94v-.35c-.16.14-.35.25-.55.33-.19.07-.39.1-.59.1-.46,0-.9-.19-1.23-.5h-.04ZM62.54,105.98v.65h-3.93c.02-.32.08-.63.19-.92.09-.24.22-.47.39-.66.15-.19.32-.35.52-.49.15-.11.31-.22.47-.32l.13-.09c.23-.14.46-.29.68-.45.18-.12.34-.25.49-.4.12-.13.22-.28.29-.45.07-.18.11-.37.1-.56,0-.16-.03-.31-.1-.45-.13-.26-.35-.46-.62-.56-.15-.06-.3-.09-.46-.09-.19,0-.38.05-.55.14-.15.08-.27.2-.36.35-.1.14-.18.31-.22.48-.02.18-.02.37,0,.55h-.72c-.02-.29.01-.59.1-.87.13-.52.5-.94,1-1.14.27-.11.56-.16.85-.16.25,0,.51.04.75.12.22.07.43.18.61.33.17.15.31.34.4.55.1.24.15.49.14.75,0,.25-.04.49-.12.72-.08.2-.2.38-.33.55-.14.16-.3.31-.48.45l-.55.38-.56.35c-.18.1-.36.21-.52.35-.15.12-.28.26-.4.4-.11.15-.19.32-.22.5h3.02ZM67.88,104.32c-.01.24-.04.47-.09.71-.04.22-.11.44-.2.65-.08.2-.2.38-.35.53-.16.16-.35.28-.56.36-.26.1-.54.15-.82.14-.28,0-.55-.05-.81-.14-.21-.08-.4-.2-.56-.36-.15-.16-.26-.34-.35-.53-.08-.21-.15-.43-.2-.65-.04-.23-.07-.47-.09-.71v-1.39c0-.23.04-.46.09-.69.04-.22.1-.44.19-.65.09-.2.21-.39.36-.55.16-.16.35-.28.56-.36.26-.11.53-.15.81-.14.28,0,.55.04.81.14.21.08.4.21.56.36.14.16.26.35.35.55.09.21.16.43.2.65.04.23.07.46.09.69v.69c0,.11.01.22.03.33.01.12.03.23.03.35h-.04ZM73,104.32c-.01.24-.04.47-.09.71-.05.22-.12.44-.2.65-.08.2-.2.38-.35.53-.16.16-.35.28-.56.36-.26.1-.54.15-.82.14-.28,0-.55-.05-.81-.14-.21-.08-.4-.2-.56-.36-.15-.16-.26-.34-.35-.53-.09-.21-.16-.43-.2-.65-.04-.23-.07-.47-.09-.71v-1.39c0-.23.03-.47.09-.69.04-.22.1-.44.19-.65.09-.2.21-.39.36-.55.16-.16.35-.28.56-.36.26-.11.53-.16.81-.14.28,0,.55.04.81.14.25.07.48.18.68.35.15.16.26.35.35.55.09.21.15.43.2.65.04.23.07.46.09.69v.69c0,.11-.01.22-.03.34-.01.12-.03.24-.03.36h-.04s0,.02,0,.02ZM73,89.1h-.94v-1.7c.03-.27-.02-.54-.16-.78-.12-.13-.3-.2-.48-.19-.15.02-.29.08-.4.17-.13.08-.22.2-.27.35-.08.23-.12.47-.1.71v1.44h-.94v-1.62c.03-.22.03-.44,0-.66-.05-.12-.13-.23-.23-.3-.11-.06-.24-.09-.38-.09-.3,0-.58.18-.69.46-.07.23-.11.47-.1.71v1.44h-.91v-3.32h.91v.4c.14-.16.33-.28.53-.35.2-.09.42-.13.64-.13s.44.05.63.14c.19.11.35.26.46.45.15-.19.34-.34.55-.45.22-.1.46-.14.71-.14.24,0,.48.05.69.16.19.11.34.26.45.45.1.28.15.57.13.87l-.1,1.98h0ZM73.07,82.37c-.77.63-1.73.98-2.73.97-.66-.02-1.32-.18-1.9-.49-.18-.11-.37-.17-.58-.19-.35,0-.65.23-.91.68h-.26l1.27-3.9h.46c-.2.88-.07,1.79.36,2.58.43.51,1.08.79,1.75.74.52,0,1.03-.18,1.44-.5.62-.52.88-1.36.65-2.14-.27-.71-.64-1.38-1.1-1.98-.43-.59-.78-1.23-1.05-1.9-.14-.41-.18-.84-.12-1.27.12-.76.51-1.46,1.11-1.95.61-.55,1.4-.85,2.22-.85.22-.02.44-.02.66,0l.74.33c.23.14.48.23.74.27.4-.03.77-.25.97-.61h.45l-1.2,3.61h-.48c.17-.79.06-1.61-.3-2.32-.29-.47-.8-.75-1.34-.74-.43,0-.84.14-1.17.42-.29.25-.49.6-.55.98-.06.25-.06.5,0,.75.14.36.33.7.56,1.01.61.79,1.13,1.65,1.53,2.57.2.52.27,1.08.19,1.63-.13.9-.6,1.72-1.31,2.28h-.1s0,.01,0,.01ZM77.84,105.98v.65h-3.93c.02-.32.09-.63.2-.92.09-.24.21-.46.38-.66.15-.19.33-.35.52-.49l.62-.4.68-.45c.17-.12.33-.25.48-.4.12-.13.22-.28.29-.45.07-.18.11-.37.1-.56,0-.16-.03-.31-.1-.45-.06-.13-.14-.25-.24-.35-.11-.09-.24-.17-.38-.22-.15-.06-.3-.09-.46-.09-.19,0-.37.05-.53.14-.3.18-.51.48-.58.82-.03.18-.03.37,0,.55h-.74c-.02-.29.01-.59.1-.87.07-.25.2-.49.38-.69.17-.19.38-.34.62-.45.28-.11.57-.16.87-.16.25,0,.5.04.74.12.22.07.43.18.61.33.17.15.31.34.4.55.11.24.16.49.16.75,0,.47-.16.92-.46,1.27-.14.17-.3.32-.48.45l-.55.38-.56.35c-.18.1-.36.21-.52.35-.15.12-.28.26-.4.4-.1.15-.17.33-.22.5h3.02ZM83.61,87.48v.14h-2.93c.03.24.16.45.35.59.21.16.46.23.72.22.33,0,.65-.11.9-.33l.78.32c-.17.24-.41.44-.69.55-.31.12-.64.18-.97.17-.53.04-1.05-.14-1.44-.49-.36-.31-.57-.76-.56-1.24,0-.49.2-.96.56-1.28.37-.33.85-.5,1.34-.49.53-.03,1.05.15,1.44.5.38.34.58.83.56,1.34h-.06ZM85.46,75.82h-.46c.16-.78.05-1.6-.3-2.31-.27-.48-.79-.77-1.34-.74-.42-.01-.83.13-1.15.4-.3.25-.5.6-.56.98-.07.25-.07.5,0,.75.12.37.31.71.56,1.01.61.79,1.12,1.66,1.53,2.57.23.52.33,1.08.29,1.64-.18.89-.7,1.68-1.44,2.21-.76.64-1.73.99-2.73.97-.65-.02-1.29-.18-1.88-.48-.18-.1-.38-.17-.59-.19-.4.04-.74.29-.9.66h-.4l1.26-3.9h.48c-.2.88-.08,1.8.35,2.6.43.51,1.08.78,1.75.74.55.03,1.08-.14,1.51-.48.37-.32.63-.76.71-1.24.06-.3.06-.6,0-.89-.27-.71-.64-1.37-1.1-1.98-.43-.59-.78-1.23-1.05-1.91-.14-.41-.18-.84-.12-1.27.12-.77.52-1.46,1.13-1.95.59-.54,1.36-.85,2.16-.87.22-.03.44-.03.66,0,.25.09.49.19.72.32.23.14.49.23.75.28.35,0,.65-.23.95-.66h.45l-1.23,3.72h0ZM92.67,88.81c-.28.21-.63.32-.98.3-.5.02-.98-.2-1.29-.59l.56-.58c.11.12.24.22.39.29.12.07.25.11.39.11.1.02.21-.01.29-.09.07-.03.12-.11.12-.19,0-.13-.13-.25-.4-.36l-.33-.14c-.59-.27-.9-.62-.9-1.03,0-.26.12-.51.33-.66.25-.2.56-.3.88-.29.23,0,.46.05.68.14.21.1.4.24.55.42l-.59.53c-.16-.18-.39-.29-.63-.32-.08-.02-.17-.02-.24,0-.03,0-.06.03-.07.06-.02.03-.03.06-.03.09l.07.11c.08.07.17.13.27.16l.33.14c.28.11.54.28.75.49.14.16.22.37.22.59.03.33-.1.65-.36.85v-.06h0ZM98.03,75.82c-.19,1.28-.68,2.5-1.44,3.55-.78,1.2-1.84,2.2-3.09,2.9-1.04.64-2.22.99-3.43,1.03-.94.05-1.86-.32-2.5-1.03-.61-.76-.85-1.75-.66-2.7.23-1.29.75-2.5,1.53-3.55.82-1.14,1.88-2.09,3.1-2.79,1.04-.65,2.23-1.02,3.45-1.07.93-.06,1.83.32,2.42,1.04.61.77.83,1.78.61,2.74v-.13s.01,0,.01,0ZM99.14,73.55c.03-.62.36-1.19.88-1.52.32-.21.7-.32,1.09-.31,1.04.02,1.88.85,1.89,1.89.04-.8-.41-1.53-1.13-1.86-.97-.44-2.12-.01-2.56.96-.12.26-.18.55-.17.84h0ZM101.06,73.88l.61.89h.4l-.63-1.02c.11-.06.2-.15.26-.26.08-.13.11-.27.09-.42,0-.16-.06-.31-.19-.4-.13-.1-.29-.14-.45-.13h-.72v2.24h.36v-.89h.27,0ZM96.15,75.05c-.31,1.86-1.07,3.62-2.21,5.12-1.23,1.69-2.38,2.53-3.49,2.53-.51.02-1.01-.2-1.33-.61-.33-.53-.43-1.17-.29-1.78.32-1.83,1.08-3.56,2.21-5.04,1.21-1.7,2.4-2.54,3.55-2.54.5-.03.99.19,1.3.59.31.52.4,1.13.26,1.72h0ZM66.16,73.9c-.12.65-.44,1.25-.91,1.72-.69.7-1.52,1.24-2.44,1.6-.98.38-2,.63-3.04.72.53-1.49,1.43-2.82,2.6-3.88.75-.73,1.72-1.18,2.76-1.29.32-.03.63.08.87.3.19.23.25.54.17.82ZM46.01,75.31c-.12.83-.37,1.63-.74,2.38-.34.73-.74,1.44-1.2,2.11-.4.55-.85,1.08-1.33,1.56-.42.42-.91.76-1.44,1.03-.4.22-.85.34-1.31.35-.74.05-1.44-.29-1.86-.89l1.59-3.61c.58-1.29,1.41-2.46,2.44-3.43.7-.82,1.69-1.34,2.77-1.44.38,0,.74.19.94.52.25.44.3.96.14,1.44ZM49.17,87.74c.05-.12.07-.25.07-.38,0-.26-.1-.51-.29-.69-.21-.17-.48-.27-.75-.26-.27,0-.54.08-.75.26-.19.18-.29.42-.29.68,0,.26.1.52.3.69.2.18.46.28.74.28.27,0,.54-.08.75-.26.09-.09.17-.2.22-.32ZM54.34,103.92h-2.56c.01-.16.05-.32.12-.48.07-.15.15-.28.26-.4.11-.11.25-.2.39-.27.17-.06.34-.09.52-.09.17,0,.33.03.49.09.15.07.29.16.4.27.11.11.2.24.26.39.07.15.11.32.12.49ZM59.78,87.38c.02.28-.09.54-.29.74-.2.18-.47.28-.74.28-.27,0-.54-.09-.74-.28-.2-.18-.32-.45-.3-.72-.02-.27.09-.53.29-.71.2-.18.46-.28.74-.27.27-.01.54.09.74.28.2.17.31.43.3.69h0ZM67.16,104.38v-.76l-.06-.49v-.55c-.02-.18-.06-.36-.12-.53-.04-.16-.11-.32-.22-.45-.21-.28-.53-.44-.88-.43-.18,0-.36.04-.52.13-.14.08-.26.18-.36.3-.09.14-.16.29-.2.45-.05.17-.09.35-.11.53-.01.18-.01.37,0,.55v1.25c.02.27.06.54.14.79.07.24.2.46.38.64.2.18.46.28.72.26.26.02.52-.08.71-.26.18-.18.31-.39.38-.64.09-.26.14-.52.14-.79ZM72.28,103.61v.76c-.02.27-.06.54-.14.79-.07.24-.2.46-.38.64-.19.18-.45.28-.71.26-.27.02-.53-.08-.72-.26-.18-.18-.31-.39-.38-.64-.09-.26-.14-.52-.14-.79v-1.25c-.01-.18-.01-.37,0-.55.02-.18.05-.36.1-.53.06-.16.13-.31.22-.45.1-.12.23-.22.36-.3.16-.09.34-.14.52-.13.19,0,.37.04.53.13.28.16.49.43.56.75.05.18.09.35.12.53v.55l.06.49ZM80.74,86.94h2.02c-.07-.19-.2-.35-.38-.45-.41-.24-.91-.23-1.31.01-.13.12-.25.27-.33.43h0ZM101.43,73.34c.02-.06.04-.12.03-.18.04-.14,0-.28-.12-.38h-.55v.81h.07c.16.02.32-.02.45-.12.05-.04.09-.09.11-.14h0Z"/>
      <path class="cls-1" d="M111,1H1v110h110V1ZM0,0v112h112V0H0Z"/>
    </g>
  </g>
</svg>