<?xml version="1.0" encoding="UTF-8"?>
<svg id="Layer_2" data-name="Layer 2" xmlns="http://www.w3.org/2000/svg" viewBox="0 0 226.97 87.28">
  <defs>
    <style>
      .cls-1 {
        fill: #fff;
      }

      .cls-1, .cls-2 {
        stroke-width: 0px;
      }

      .cls-2 {
        fill: rgba(255, 255, 255, .4);
      }
    </style>
  </defs>
  <g id="Layer_1-2" data-name="Layer 1">
    <g>
      <path class="cls-1" d="M109.71,26.57c-5.35,0-9.25,1.88-11.86,5.48v-4.62h-9.25v50.2h9.98v-17.02c2.75,3.03,6.36,4.47,10.99,4.47,5.06,0,9.4-1.88,12.72-5.48,3.33-3.75,5.06-8.22,5.06-13.85s-1.74-10.1-5.06-13.71c-3.32-3.61-7.52-5.48-12.58-5.48ZM114.63,53.12c-1.74,1.88-4.05,2.89-6.79,2.89-2.6,0-4.92-.87-6.65-2.74-1.74-1.88-2.6-4.33-2.6-7.5s.87-5.63,2.6-7.5c1.74-1.73,3.9-2.74,6.65-2.74s5.06,1.01,6.79,2.88c1.74,1.88,2.6,4.33,2.6,7.36.14,3.03-.87,5.48-2.6,7.36ZM133.86,64.23h9.98V8.4h-9.98v55.83ZM168.85,26.57c-6.36,0-11.71,2.6-16.05,7.65l5.21,6.2c1.74-1.73,3.32-3.03,4.77-3.9,1.53-.75,3.21-1.15,4.92-1.15,2.17,0,3.9.58,5.06,1.73,1.16,1.15,1.74,2.74,1.74,4.76v1.59h-9.25c-4.19,0-7.66,1.01-10.12,2.88-2.46,1.88-3.76,4.47-3.76,7.79s1.16,5.92,3.47,7.93c2.31,2.02,5.35,3.03,9.25,3.03,4.63,0,8.39-1.44,11.13-4.47v3.61h9.25v-21.93c0-5.05-1.45-8.94-4.19-11.69-2.75-2.74-6.51-4.04-11.42-4.04h0ZM174.63,50.38c0,2.16-.72,3.89-2.17,5.19-1.45,1.3-3.32,2.02-5.49,2.02-1.59,0-2.89-.29-3.76-1.01-1.01-.72-1.45-1.73-1.45-2.89,0-2.45,1.74-3.75,5.06-3.75h7.81v.43ZM216.41,27.44l-9.54,24.09-8.96-24.09h-10.55l14.02,34.62-1.16,2.6c-.87,1.88-1.88,3.17-3.04,3.89-1.16.72-2.75,1.15-4.63,1.15-.87,0-2.31-.14-4.34-.29v8.37c2.17.58,4.34.86,6.51.86,3.47,0,6.22-.86,8.53-2.74,2.31-1.73,4.34-4.62,6.07-8.37l17.64-39.96s-10.55-.15-10.55-.14Z"/>
      <path class="cls-2" d="M64.74,18.21c12.14,2.45,14.03,9.38,14.03,9.38,2.31,7.94-2.6,13.7-2.6,13.7l-5.06,5.51v-4.21c0-1.15-.14-2.45-.29-3.75-.87-6.06-4.92-10.68-10.84-11.54-5.21-.87-10.12.14-14.17,3.61-.14.14-.28.29-.42.45-.31.34-.63.7-1.02.99-2.75-3.61-6.22-5.19-10.56-5.34-4.19-.14-8.1.87-11.28,4.04v-2.45c.14-.58-.15-.72-.72-.72h-7.66c-.72,0-1.01.14-1.01,1.01v34.96L.4,22.82C-3.07,5.37,17.03,7.39,17.03,7.39l47.71,10.82h0Z"/>
      <path class="cls-2" d="M13.59,65.33l3.73,12.03s7.66,17.89,20.53,5.63l22.85-24.86v-14.53c0-1.59-.29-3.17-1.16-4.47-1.45-2.31-4.19-3.32-7.23-2.74-2.6.58-4.77,2.74-5.06,5.34-.15.72-.15,1.3-.15,2.02v21.49h-10.27v-21.93c0-1.73-.43-3.46-1.59-4.9-1.88-2.31-4.48-2.74-7.23-2.02-2.6.58-4.05,2.45-4.63,5.05-.14.72-.14,1.44-.14,2.16v20.34c.29.58.29,1.01.29,1.44h-9.4c-.18,0-.37-.01-.55-.05h0Z"/>
      <path class="cls-1" d="M27.73,1.62l42.36,24.52c10.99,5.92,10.7,13.13,10.55,12.98-.14,8.37-6.51,12.26-6.51,12.26l-3.04,1.78v-10.58c0-1.15-.14-2.45-.29-3.75-.87-6.06-4.92-10.68-10.84-11.54-5.21-.87-10.12.14-14.17,3.61-.14.14-.28.29-.42.45-.31.34-.63.7-1.02.99-2.75-3.61-6.22-5.19-10.56-5.34-4.19-.14-8.1.87-11.28,4.04v-2.45c.14-.58-.15-.72-.72-.72h-7.66c-.72,0-1.01.14-1.01,1.01v35.63c0,.72.29.87,1.01.87h9.4c0-.43,0-.87-.29-1.44v-20.34c0-.72,0-1.44.15-2.17.58-2.6,2.02-4.47,4.63-5.05,2.75-.72,5.35-.29,7.23,2.02,1.16,1.44,1.59,3.17,1.59,4.9v21.93h10.26v-21.49c0-.72,0-1.3.15-2.02.29-2.6,2.46-4.76,5.06-5.34,3.04-.58,5.78.43,7.23,2.74.87,1.3,1.16,2.88,1.16,4.47v15.65l-35.43,20.7c-16.19,7.21-17.93-11.4-17.93-11.4V11.43C12.55-5.88,27.73,1.62,27.73,1.62Z"/>
    </g>
  </g>
</svg>