<?xml version="1.0" encoding="UTF-8"?>
<svg id="Layer_2" data-name="Layer 2" xmlns="http://www.w3.org/2000/svg" viewBox="0 0 106 108">
  <defs>
    <style>
      .cls-1 {
        fill: #fff;
        stroke-width: 0px;
      }
    </style>
  </defs>
  <g id="Layer_1-2" data-name="Layer 1">
    <g>
      <path class="cls-1" d="M54.77,0c.12.03.25.05.37.07,4.06.14,8.09.78,11.99,1.89,7.41,2.08,14.27,5.78,20.09,10.83,7.33,6.34,12.59,14.09,15.8,23.24,1.08,3.06,1.83,6.22,2.23,9.43.23,1.81.45,3.62.65,5.42.05.5.03,1,.05,1.5.01.1.03.19.06.28v3.44c-.03.11-.06.21-.07.33-.25,7.21-1.99,14.3-5.11,20.8-5.2,10.94-13.18,19.22-23.92,24.86-4.6,2.39-9.53,4.07-14.63,4.97-2.75.49-5.54.78-8.33.87-.1.01-.19.03-.28.06h-1.21c-.09-.03-.19-.05-.29-.06-1.03-.06-2.07-.11-3.09-.18-2.95-.21-5.87-.68-8.74-1.41-8.95-2.29-16.82-6.58-23.48-12.99-7.75-7.44-12.85-16.41-15.3-26.9-.76-3.22-1.23-6.51-1.39-9.82-.02-.38-.1-.76-.15-1.13v-2.76c.05-.36.11-.72.15-1.09.15-1.64.26-3.29.45-4.92.43-3.5,1.23-6.95,2.37-10.28,2.66-7.81,6.83-14.72,12.63-20.61,5.81-5.89,12.54-10.24,20.36-12.95,3.36-1.17,6.83-1.99,10.36-2.44,1.52-.19,3.06-.26,4.58-.39.14-.01.28-.05.42-.07h3.44ZM52.95.44c-2.15-.01-4.3.12-6.44.41-3.53.46-7,1.29-10.35,2.47-7.95,2.8-14.79,7.32-20.63,13.39-5.63,5.86-9.67,12.66-12.26,20.35C.44,45.48-.22,54.49,1.36,63.24c.95,5.49,2.74,10.8,5.3,15.75,4.06,7.87,9.85,14.24,17.02,19.36,5.18,3.7,10.93,6.2,17.09,7.76,3.37.86,6.81,1.35,10.28,1.48,1.81.06,3.62.02,5.43-.1,1.83-.11,3.66-.33,5.47-.64,5.03-.9,9.9-2.55,14.44-4.9,7.74-4,14.04-9.65,19.12-16.68,3.93-5.45,6.6-11.49,8.27-17.98.65-2.48,1.1-5.01,1.35-7.57.15-1.67.2-3.35.29-5.02,0-.13-.05-.3.01-.38.21-.28.11-.57.08-.86-.2-2.13-.39-4.26-.6-6.38-.29-2.85-.85-5.67-1.69-8.42-3.42-11.12-9.64-20.33-18.88-27.44C75.09,4.12,64.64.46,52.95.44h0Z"/>
      <path class="cls-1" d="M52.74,2.58c4,.04,7.64.36,11.22,1.2,2.58.61,5.04,1.55,7.43,2.67,3.49,1.63,6.86,3.46,9.98,5.73,7.04,5.11,12.48,11.57,16.45,19.31,2.11,4.11,3.66,8.4,4.54,12.93.76,3.84,1.07,7.76.9,11.68-.26,5.82-1.41,11.45-3.54,16.88-.86,2.17-1.86,4.28-3,6.32-.21.38-.43.74-.67,1.1-.34.52-.83.93-1.41,1.16-3.25,1.38-6.65,2.37-10.13,2.96-2.41.41-4.84.58-7.28.68-.95.04-1.89.09-2.84.13h-.39c-1.53-.1-3.07-.18-4.59-.32-2-.17-4-.34-6-.58-2.62-.32-5.23-.7-7.84-1.06-2.32-.33-4.65-.69-6.98-.99-2.46-.32-4.92-.63-7.39-.9-3.12-.35-6.26-.57-9.4-.64-2.04-.04-4.08.03-6.11.21-3.49.29-6.93.99-10.26,2.07-.75.25-1.49.52-2.23.78-.61.22-1,.11-1.32-.43-1.42-2.42-2.95-4.78-4.2-7.31-1.8-3.65-3.11-7.53-3.89-11.53-.69-3.52-1.05-7.1-1.07-10.68-.05-7.77,1.7-15.45,5.12-22.44,4.11-8.47,10.07-15.36,17.9-20.61,5.19-3.49,11-5.95,17.12-7.25,2.54-.55,5.12-.88,7.71-.99.83-.03,1.66-.06,2.16-.08h0ZM14.39,56.59v13.68c0,.16,0,.32,0,.47.03.44.27.83.65,1.06,3.52,2.26,7.34,3.52,11.53,3.68,1.71.07,3.41.04,5.12-.1,1.27-.11,2.54-.26,3.78-.6,4.05-1.12,6.8-3.67,8.14-7.64.85-2.53.77-5.11,0-7.66-.6-2.04-1.87-3.82-3.61-5.05-.57-.41-1.18-.76-1.77-1.14-.12-.07-.24-.15-.36-.24-.18-.16-.19-.3-.05-.49.09-.11.19-.22.3-.31.37-.34.75-.67,1.11-1.01.65-.61,1.19-1.33,1.59-2.13.81-1.59.99-3.28.7-5.02-.66-4.08-2.96-6.88-6.76-8.44-1.58-.65-3.27-.84-4.97-.89-1.62-.03-3.24.07-4.85.28-1.17.12-2.33.35-3.46.68-2.49.75-4.56,2.11-6.11,4.23-.65.87-.99,1.92-.98,3.01.01,4.55,0,9.09,0,13.64ZM92.59,61.79h-.01v-8.43c0-.2,0-.4-.02-.6-.03-.29-.15-.4-.44-.44-.19-.02-.37-.03-.56-.03-3.17,0-6.34,0-9.51,0-.63,0-1.26.06-1.89.12-.49.05-.73.34-.77.83v.22c-.02,1.69-.04,3.38-.05,5.08,0,.81.1.9.92.92,1.12.03,2.24.07,3.36.1.13,0,.26.02.39.05.27.02.48.24.5.51.03.21.04.43.05.65,0,1.72,0,3.44.02,5.16,0,.77-.29,1.32-.97,1.68-.65.36-1.35.63-2.07.82-1.66.42-3.33.34-4.99-.01-2.71-.58-4.8-2.03-6.25-4.4-.66-1.06-1.16-2.22-1.48-3.42-1-3.77-.79-7.5.45-11.17.63-1.89,1.78-3.57,3.32-4.84,2.99-2.47,6.38-2.86,10-1.74,1.58.49,2.93,1.42,4.24,2.41.14.12.3.22.46.31.23.12.4.08.57-.13.06-.08.12-.17.16-.26.88-1.72,1.76-3.45,2.63-5.18.25-.46.14-1.03-.26-1.37-.1-.09-.19-.17-.29-.25-2.71-2.16-5.81-3.29-9.26-3.52-2.02-.12-4.05.02-6.03.43-3.19.63-6.04,1.97-8.45,4.17-2.98,2.72-4.88,6.09-5.81,10-.75,3.14-.87,6.33-.54,9.53.25,2.5.92,4.94,1.99,7.22,1.11,2.39,2.6,4.49,4.66,6.16,3.06,2.47,6.62,3.6,10.5,3.79,2.82.14,5.57-.3,8.28-1.08,2.18-.61,4.25-1.58,6.13-2.86.72-.5,1.07-1.12,1.05-2.02-.03-2.8-.01-5.59-.01-8.39h0ZM36.63,34.7l-.02.08c.3.18.61.37.92.55,1.22.73,2.3,1.67,3.18,2.79.92,1.17,1.66,2.48,2.2,3.87.26.67.45.78,1.16.78,1.12,0,2.24,0,3.36,0,.52,0,.7.17.71.7.04,1.6.09,3.21.09,4.81,0,8.78,0,17.55,0,26.33,0,.23.01.46.03.68,0,.05.01.1.03.15.04.09.12.17.21.2.05.02.1.02.15.02.14,0,.29.03.43.03h6.28c.14,0,.29-.01.43-.03.33-.04.42-.12.46-.46.02-.23.03-.46.03-.69,0-9.38,0-18.76.01-28.13,0-1,.06-2.01.09-3.01.02-.42.2-.58.62-.61h.17c1.06,0,2.12,0,3.19.01.42.03.83-.19,1.04-.55,1.12-1.7,2.53-3.15,4.1-4.44,1.29-1.05,2.68-1.98,4.15-2.77.14-.08.28-.17.42-.26l-.03-.06h-33.42ZM40.41,13.83c.16.11.32.21.49.33,2.05,1.48,4.09,2.96,6.14,4.44.19.13.36.28.53.44.23.2.33.52.26.82-.05.22-.1.45-.17.67-.78,2.46-1.55,4.92-2.32,7.38-.05.15-.16.3-.07.53.26-.15.5-.28.71-.43,2.01-1.45,4.02-2.91,6.03-4.37.16-.12.33-.23.5-.34.29-.2.68-.21.97,0,.18.11.36.23.54.36l6.13,4.44c.19.14.4.26.68.43-.04-.19-.06-.3-.09-.4l-1.21-3.81c-.44-1.38-.88-2.76-1.32-4.14-.11-.33-.18-.68.05-.99.12-.16.27-.29.44-.41,1.23-.89,2.47-1.78,3.7-2.67.95-.69,1.9-1.38,2.85-2.08.12-.09.29-.14.27-.4-.27-.02-.55-.06-.83-.06-2.02-.04-4.05-.08-6.07-.11-.6-.01-1.21-.01-1.81-.02-.54,0-.89-.27-1.08-.76-.05-.12-.08-.25-.12-.37l-2.42-7.26c-.05-.15-.11-.29-.2-.5-.18.48-.34.9-.48,1.31-.76,2.24-1.51,4.48-2.26,6.72-.22.67-.47.84-1.16.85l-5.98.09c-.76.01-1.52.03-2.28.04-.18,0-.38-.01-.42.27ZM27.74,28.81l.13.07.36-.33c.67-.61,1.32-1.24,2.01-1.82.92-.77,1.27-.8,2.32-.24.65.34,1.29.7,1.93,1.04.12.06.25.11.44.2-.07-.21-.1-.36-.16-.5-.37-.87-.74-1.74-1.12-2.61-.31-.69-.26-.96.27-1.49.78-.77,1.55-1.57,2.32-2.35.07-.08.14-.17.26-.32-.23-.02-.47-.02-.71,0-.92.14-1.84.29-2.76.44-.86.14-1.12.01-1.53-.75-.06-.11-.12-.23-.18-.35-.37-.76-.74-1.52-1.12-2.28-.06-.1-.13-.2-.2-.3-.07.2-.12.34-.15.48-.21.9-.42,1.81-.61,2.72-.15.74-.44,1.05-1.13,1.16-1.09.18-2.18.35-3.27.54-.09.03-.19.07-.27.11.26.17.46.31.67.43.85.46,1.7.89,2.54,1.36.56.31.65.54.55,1.16-.17.97-.35,1.94-.52,2.92-.03.24-.06.48-.1.71h0ZM78.11,28.88l.09-.04c-.02-.25-.02-.5-.07-.74-.15-.92-.33-1.83-.46-2.75-.13-.92-.03-1.06.79-1.5l2.58-1.38c.1-.05.18-.12.34-.23-.32-.08-.57-.15-.82-.19-.93-.16-1.87-.3-2.8-.45-.58-.1-.84-.35-.97-.94-.12-.55-.22-1.09-.34-1.64-.12-.57-.24-1.14-.36-1.7-.14.09-.25.22-.32.36-.4.77-.8,1.55-1.2,2.33-.07.14-.14.28-.21.42-.16.34-.51.53-.88.5-.13,0-.26,0-.39-.02-.67-.09-1.33-.2-2-.29-.45-.06-.89-.11-1.39-.17.08.38.29.59.5.8.62.61,1.25,1.22,1.88,1.83.52.52.58.88.27,1.54-.44.93-.86,1.88-1.29,2.82-.04.1-.07.21-.13.37.19-.09.31-.14.43-.21.87-.45,1.73-.9,2.59-1.35.68-.35.98-.3,1.54.23.7.66,1.4,1.32,2.1,1.98.16.15.34.28.51.43h0s0,0,0,0ZM12.6,32.32c.17.06.26.1.35.13.42.11.83.21,1.25.32.61.16.82.44.87,1.06.04.47.1.94.17,1.41.02.08.04.15.08.22l.11.07c.03-.08.07-.15.11-.23.24-.38.47-.75.71-1.13.39-.62.78-.77,1.49-.62.43.1.86.18,1.38.28-.12-.17-.19-.27-.27-.37-.27-.34-.54-.66-.81-1-.25-.3-.29-.71-.1-1.05.08-.17.17-.33.26-.49.18-.33.36-.65.54-.98.06-.1.11-.21-.07-.33-.43.19-.89.39-1.34.58-.63.28-1.04.18-1.49-.33-.26-.3-.55-.58-.83-.87-.09-.07-.19-.13-.29-.19.04.53.07.99.11,1.44.04.49-.1.91-.52,1.21-.17.11-.34.21-.52.29-.36.18-.73.36-1.17.57h0ZM90.65,35.38l.13-.04c.04-.5.1-.99.12-1.49.03-.63.23-.91.84-1.08.41-.12.83-.21,1.25-.32.1-.04.21-.08.3-.13-.32-.16-.57-.31-.84-.41-.97-.39-1.41-1.07-1.29-2.12.02-.29.02-.58,0-.88-.29.22-.56.47-.78.76-.58.73-1.08.92-1.96.4-.39-.22-.82-.38-1.26-.46.03.12.08.24.13.36.23.41.46.83.7,1.23.32.54.28.94-.13,1.41-.24.27-.47.54-.7.82-.08.1-.2.19-.21.37.48-.1.93-.19,1.38-.28.71-.14,1.07.03,1.44.64.21.36.44.71.67,1.05.06.07.13.13.21.18h0Z"/>
      <path class="cls-1" d="M93.59,84.12c-.08.12-.14.23-.21.33-2.08,2.89-4.47,5.55-7.12,7.92-.7.66-1.63,1.04-2.6,1.07-1.95.06-3.9.22-5.85.02-1.28-.14-2.57-.29-3.84-.47-4.15-.55-8.15-1.73-12.18-2.83-4.02-1.1-8.01-2.22-12.03-3.26-3.15-.82-6.32-1.53-9.48-2.29-.16-.04-.38-.02-.42-.31.1-.02.2-.03.3-.03,2.15.07,4.3.1,6.45.24,2.26.15,4.52.39,6.77.64,1.85.2,3.7.48,5.55.72,2,.26,4.01.5,6.02.73,3.21.36,6.44.4,9.67.46,2.11.05,4.22-.03,6.32-.22,4.03-.37,8-1.24,11.81-2.61.26-.1.53-.22.85-.09h0ZM30.45,86.28c.09-.01.18-.02.28-.02,2.17.11,4.29.54,6.4,1.04,3.5.83,6.92,1.97,10.33,3.09,4.74,1.55,9.45,3.17,14.24,4.57,3.28.95,6.58,1.81,9.94,2.41,1.66.3,3.34.53,5.03.66.48.04.95.13,1.49.2-.08.14-.1.22-.15.26-.18.14-.37.27-.57.39-3.38,2.01-7,3.47-10.79,4.55-.69.2-1.39.34-2.07.56-.58.18-1.09.08-1.6-.2-4.9-2.7-9.74-5.49-14.52-8.39-2.85-1.74-5.73-3.43-8.64-5.08-2.62-1.5-5.4-2.68-8.29-3.53-.25-.07-.5-.13-.74-.21-.13-.05-.25-.11-.37-.17l.04-.12h0ZM22.57,94.36c9.33.68,17.33,4.49,24.48,10.54-.3.03-.51.07-.71.07-1.13.01-2.22-.2-3.31-.46-3.17-.76-6.22-1.9-9.21-3.18-2.66-1.14-5.27-2.4-7.74-3.92-1.07-.66-2.12-1.36-3.01-2.28-.2-.21-.38-.45-.57-.68l.08-.1ZM23.38,61.83v-3.7c0-.17,0-.35.02-.52.06-.52.31-.73.83-.73.67,0,1.35.02,2.02.05,1.26.06,2.52.1,3.77.22.61.06,1.21.2,1.79.4,1.57.52,2.54,1.62,2.92,3.22.32,1.33.28,2.72-.12,4.03-.29.98-.89,1.85-1.71,2.47-.59.47-1.32.72-2.07.71-1.32-.02-2.64-.02-3.95-.1-.79-.06-1.57-.17-2.33-.34-.81-.17-1.08-.5-1.14-1.34-.05-.68-.05-1.37-.06-2.07,0-.77,0-1.55,0-2.32,0,0,.03,0,.03,0ZM23.36,48.17c.07-.86.11-1.72.23-2.56.18-1.31.91-2.24,2.11-2.77,1.96-.87,3.82-.67,5.55.61,2.29,1.69,1.53,5.22-.44,6.18-.63.29-1.3.47-1.98.53-.87.1-1.74.21-2.61.24-.71.02-1.42-.01-2.13-.08-.46-.03-.68-.31-.7-.78-.01-.46,0-.92,0-1.37,0,0-.03,0-.03,0Z"/>
    </g>
  </g>
</svg>