<?xml version="1.0" encoding="UTF-8"?>
<svg id="Layer_2" data-name="Layer 2" xmlns="http://www.w3.org/2000/svg" viewBox="0 0 180.72 83.05">
  <defs>
    <style>
      .cls-1 {
        fill: #fff;
        stroke-width: 0px;
      }
    </style>
  </defs>
  <g id="Layer_1-2" data-name="Layer 1">
    <path class="cls-1" d="M115.25,53.49c1.62.82,3.24,1.79,4.86,2.45,3.08,1.31,6.32,2.28,9.72,2.12,1.13,0,2.27-.33,3.24-.65,1.62-.49,2.59-1.63,2.92-3.43.16-1.63.16-3.26.32-5.06-.81.49-1.46.98-2.27,1.3-7.46,3.91-16.69.65-20.1-7.18-2.76-6.36-2.59-12.88,1.3-18.75,4.7-7.17,14.75-7.83,19.93-4.08.32.16.49.49.97.65,0-.65.16-1.79.16-1.79h11.34v33.6c0,3.59-.65,6.85-2.92,9.79-2.27,3.1-5.51,4.73-9.24,5.38-6.81,1.31-13.29.16-19.45-3.26-.49-.33-.65-.49-.65-1.14-.16-3.1-.16-6.52-.16-9.95h0ZM136.15,35.06v-1.96c0-2.12-.81-3.26-2.59-4.08-.65-.33-1.3-.49-1.94-.65-2.76-.65-5.19.16-6.48,2.28-1.3,1.96-1.46,4.24-.97,6.36.49,2.45,1.78,4.24,4.38,4.73,2.76.49,5.19-.49,7.29-2.45.16-.16.16-.49.32-.82v-3.42ZM12.01,23.81h19.77v10.76H12.01v7.83h21.88v11.09H.34V5.06h33.55v10.6H12.01v8.15h0ZM107.3,53.49h-11.18v-2.45c-.49.49-.97.82-1.3,1.14-5.51,4.08-13.94,2.94-17.83-2.45-1.62-2.12-2.27-4.73-2.27-7.34v-23h11.35v19.57c0,.49,0,1.14.16,1.63.49,1.96,2.59,3.1,4.86,2.94,2.27-.16,4.54-1.31,4.86-3.1v-21.03h11.35v34.08h0ZM69.22,19.24v8.15c0,.81-.16,1.3-.81,1.79-4.7,4.57-15.4,14.84-15.4,14.84h16.37v9.46h-31.28v-8.48c0-.49.16-.98.65-1.31,4.86-4.73,15.23-15,15.23-15h-15.4v-9.46s30.63,0,30.63,0ZM153.33,19.41h11.35v34.08h-11.35V19.41ZM60.14,82.36h-1.78v-13.37c1.46-.33,1.62-.33,2.43.98,1.46,2.45,2.92,4.73,4.38,7.18,1.46-2.45,2.92-4.73,4.38-7.18q.81-1.3,2.43-1.14v13.37h-1.62v-9.95h-.16c-1.65,2.68-3.33,5.34-5.02,7.99-1.62-2.77-3.24-5.38-5.02-7.99h-.16c.16,3.42.16,6.69.16,10.11ZM17.52,82.36v-5.54c0-1.14-.49-1.79-1.3-2.12-.81-.33-2.11,0-2.76.82-.16.16-.32.65-.32.82v6.03h-1.78v-9.13h1.62c0,.16.16.33.16.65,1.78-1.3,3.57-1.63,5.35.16.97-.98,2.27-1.3,3.57-1.14,1.46.16,2.92,1.31,2.92,2.77.16,2.28,0,4.57,0,6.85h-1.62v-5.22c0-.49,0-.98-.16-1.31-.16-.82-.97-1.3-1.78-1.3-.97,0-1.78.33-2.27,1.14-.16.16,0,.33,0,.49v6.2c0-.16-.97-.16-1.62-.16ZM8.44,71.27c-1.3-.33-2.43-.65-3.57-.65-.65,0-1.46.16-2.11.49-.81.33-.97,1.14-.81,1.96.16.82.49,1.31,1.3,1.47.97.33,1.78.49,2.76.65,3.08.82,4.21,4.08,2.27,6.36-.81.98-1.94,1.31-3.4,1.47-1.46.16-2.43-.16-3.73-.65-.65-.33-.97-.65-.97-1.47v-.82c.32.16.65.33.81.33,1.46.65,2.92.98,4.38.82,1.13-.16,1.78-.82,1.95-1.96.16-1.14-.49-1.96-1.62-2.28l-2.43-.49c-2.27-.49-3.4-1.96-3.24-4.24.16-1.47.97-2.45,2.43-2.94,1.94-.82,3.73-.49,5.67.16.16,0,.32.33.32.65v1.14h0ZM104.39,78.44h-6.97c0,.98.49,1.79,1.13,2.12,1.94,1.14,3.57.16,5.35-.82.32,1.47.16,1.63-.97,2.28-2.27.98-4.7.65-6.16-.82-1.46-1.63-1.62-4.57-.32-6.52,1.13-1.79,3.4-2.45,5.35-1.63,1.78.65,2.92,2.77,2.59,5.38ZM102.44,76.81c0-1.47-.97-2.45-2.43-2.45s-2.59.82-2.75,2.45h5.19ZM35.51,82.19h-1.46c0-.16-.16-.33-.16-.49q-.16,0-.16.16c-.97.65-2.11.98-3.4.65-1.62-.33-2.59-1.63-2.59-3.26,0-1.47,1.13-2.61,2.76-2.77h1.62c.49,0,.97.16,1.62.33.33-1.63-.32-2.61-2.11-2.45-1.13.16-2.27.49-3.4.82q0,.16,0,0c0-1.79-.33-1.63,1.46-2.12,1.3-.33,2.59-.49,3.89.16,1.13.49,1.78,1.31,1.78,2.45.16,2.12.16,4.24.16,6.52h0ZM33.73,79.42c0-.49,0-.98-.32-1.14-.97-.65-2.11-.82-3.08-.33-.81.33-1.13,1.47-.65,2.12.32.49.97.82,1.46.82,1.46.49,2.59-.33,2.59-1.47ZM79.43,72.9c2.75,0,4.86,2.12,4.86,4.89s-2.27,4.89-5.02,4.89c-2.59,0-4.86-2.12-4.7-4.89.16-2.77,2.27-4.89,4.86-4.89ZM76.51,77.63c0,1.96,1.14,3.26,2.92,3.26s3.08-1.31,3.08-3.26-1.3-3.26-2.92-3.26c-1.78,0-3.08,1.3-3.08,3.26ZM85.26,73.06h1.62c.16,0,.49.33.49.49.81,2.12,1.62,4.24,2.59,6.69.97-2.45,1.94-4.89,2.75-7.18h1.78c-.16.49-.32.82-.49,1.31l-2.92,7.34c-.16.65-.65.65-1.13.65s-.97.16-1.3-.65c-1.01-2.69-2.09-5.36-3.24-7.99,0-.16-.16-.33-.16-.65ZM46.37,73.06v-1.31c-.32-1.3.49-1.79,1.62-2.12v3.59h2.27v1.47h-2.11v4.89c0,1.31.32,1.47,1.46,1.47h.49c0,.16.16.16.16.16q0,1.31-1.14,1.31c-1.78.16-2.75-.82-2.75-2.45v-5.38h-1.62v-1.63s1.62,0,1.62,0ZM39.88,82.36h-1.62v-9.3h1.62c0,.33,0,.65.16,1.31.97-1.14,1.94-1.79,3.4-1.47v1.79h-.81c-1.46,0-2.43,1.14-2.43,2.61-.32,1.63-.32,3.26-.33,5.06ZM173.1,15.33c4.21,0,7.62-3.43,7.62-7.67s-3.41-7.67-7.62-7.67-7.62,3.43-7.62,7.67,3.41,7.67,7.62,7.67Z"/>
  </g>
</svg>