<?xml version="1.0" encoding="UTF-8"?>
<svg id="Layer_2" data-name="Layer 2" xmlns="http://www.w3.org/2000/svg" viewBox="0 0 106.08 116.01">
  <defs>
    <style>
      .cls-1 {
        fill: #fff;
        stroke-width: 0px;
      }
    </style>
  </defs>
  <g id="Layer_1-2" data-name="Layer 1">
    <g>
      <path class="cls-1" d="M46.22.03c2.23-.23,3.96.85,5.69,2.07,3.34,2.37,6.7,4.7,10.04,7.05,3.24,2.27,6.45,4.57,9.68,6.85.78.55,1.58,1.07,2.38,1.62.4.25.4.52,0,.8-2.13,1.4-4.29,2.8-6.4,4.2-.48.33-.83.3-1.28-.02-4.29-3.05-8.63-6.1-12.92-9.14-1.78-1.25-3.56-2.5-5.32-3.77-.5-.35-.85-.4-1.4-.02-3.99,2.67-8,5.27-12.02,7.92-2.48,1.62-4.94,3.22-7.43,4.85-.4.25-.38.45,0,.73,2.96,2.07,5.9,4.15,8.86,6.22,2.79,1.97,5.6,3.92,8.38,5.9.85.6,1.71,1.17,2.53,1.8.38.27.68.27,1.03.02,2.23-1.5,4.49-2.97,6.72-4.45.48-.33.48-.53,0-.85-1.54-1.05-3.07-2.11-4.59-3.17-.33-.22-.53-.22-.88.02-.9.65-1.83,1.27-2.78,1.85-.18.1-.55.1-.73-.03-1.63-1.12-3.26-2.3-4.89-3.45-.5-.35-1.03-.67-1.53-1.02-.38-.27-.4-.5,0-.75l6.62-4.27c1.15-.75,2.31-1.5,3.46-2.3.43-.3.75-.3,1.18,0,2.08,1.5,4.17,2.92,6.27,4.4,2.03,1.45,4.06,2.89,6.1,4.32,2.11,1.47,4.21,2.97,6.32,4.45.58.4,1.18.8,1.76,1.2.35.25.33.47-.02.7l-6.32,4.12c-2.38,1.55-4.74,3.12-7.12,4.7-2.16,1.42-4.32,2.82-6.45,4.22-1.71,1.12-3.44,2.22-5.14,3.4-2.79,1.92-6.77,1.9-9.53-.1-1.13-.83-2.28-1.62-3.44-2.42-.6-.42-.58-.5.05-.87,1.98-1.25,3.96-2.5,5.92-3.8,1-.65.98-.67-.03-1.37-3.14-2.2-6.25-4.4-9.38-6.6-3.21-2.25-6.4-4.5-9.61-6.74-1.75-1.23-3.54-2.45-5.27-3.72-2.21-1.62-2.18-4.3.1-5.85,2.13-1.45,4.34-2.85,6.5-4.27,2.91-1.9,5.8-3.82,8.71-5.72,2.03-1.32,4.07-2.65,6.07-3.97,1.61-1.05,3.24-2.05,4.79-3.17,1.66-1.07,3.36-1.65,5.32-1.52h0Z"/>
      <path class="cls-1" d="M42.06,58.79c1.83.08,3.51-.83,5.14-1.9,2.36-1.57,4.72-3.1,7.07-4.65,3.24-2.12,6.45-4.25,9.68-6.37,2.48-1.62,4.99-3.25,7.48-4.9,3.31-2.17,6.65-4.37,9.96-6.57,1.03-.67,1-.72.02-1.42-2.57-1.82-5.15-3.62-7.73-5.42-.35-.25-.73-.5-1.08-.77-.35-.27-.33-.5.05-.75,2.13-1.4,4.29-2.77,6.4-4.2.45-.3.78-.3,1.23.02,1.98,1.45,4.01,2.85,6.02,4.27,3.71,2.62,7.4,5.22,11.11,7.82.25.17.53.3.8.47.4.25.4.55.02.8-2.84,1.85-5.7,3.7-8.53,5.57l-11.06,7.27c-2.38,1.58-4.79,3.12-7.18,4.7-3.13,2.05-6.25,4.12-9.36,6.2-3.32,2.18-6.65,4.35-9.99,6.52-1.38.9-2.73,1.85-4.14,2.72-1.96,1.2-4.04,1.5-6.3,1.02-1.68-.35-2.96-1.35-4.29-2.27-3.56-2.47-7.1-5-10.64-7.49-2.96-2-5.82-4.05-8.68-6.07-1.98-1.4-4.01-2.77-5.97-4.22-1.05-.77-1.91-1.7-1.83-3.12.08-1.12.68-2.05,1.61-2.67,2.66-1.8,5.34-3.52,8.03-5.3.55-.35,1.08-.72,1.61-1.1.33-.25.6-.25.93-.03l5.42,3.82.83.52c.53.3.58.6.08.92-1.48.97-2.96,1.92-4.44,2.9-.45.3-.9.57-1.38.85-.35.22-.35.42-.03.65,2.96,2.07,5.92,4.12,8.88,6.2,2.47,1.73,4.93,3.48,7.38,5.25.83.6,1.71.75,2.86.72h0ZM65.04,107.46v7.6c0,.72-.1.82-.83.8-.5,0-1,.03-1.5,0-.58-.03-.75-.28-.75-.85v-8.1c0-.43.05-.85.03-1.25,0-.12-.18-.25-.28-.38-.1.1-.25.18-.3.3-1.13,1.87-2.23,3.75-3.36,5.62-.43.7-.85,1.4-1.28,2.12-.58.92-1.61.95-2.18.03-1.58-2.55-3.11-5.1-4.69-7.64-.1-.18-.33-.28-.5-.4-.05.2-.13.4-.13.62.03,1.5.08,3.02.1,4.52.03,1.52.03,3.07.03,4.6,0,.67-.23.9-.9.87-.53-.03-1.03-.03-1.56-.03-.48-.03-.68-.28-.68-.75.03-2.57.05-5.12.05-7.69s-.03-5.12-.03-7.7c0-.47.23-.65.68-.62.38.03.78.05,1.15,0,.63-.07,1,.2,1.31.72,1.98,3.27,3.96,6.52,5.97,9.77.1.15.25.25.4.38.13-.12.28-.25.35-.4.6-1.02,1.18-2.05,1.78-3.07.98-1.65,1.98-3.27,2.96-4.92.38-.65.75-1.3,1.13-1.92.2-.35.45-.53.88-.5.45.03.88-.03,1.33-.05.6-.03.8.15.8.77.03,2.45.03,5,.03,7.55h0ZM52.92,94.29h51.96c.68-.03.78.07.83.7.05.65-.13.82-.78.82H1.84c-.38,0-.73.03-1.1.03-.53,0-.78-.28-.73-.8.05-.65.2-.77.78-.77,2.58.03,5.19.03,7.78.03h44.36ZM73.54,107.36v-7.69c0-.47.15-.65.7-.62,1.05.07,2.11.07,3.16.07,2.11,0,4.24,0,6.35-.03.5,0,1-.05,1.51-.07.5-.03.75.2.75.7,0,.4,0,.8.02,1.2.02.5-.23.75-.73.75-2.66-.03-5.29-.03-7.95-.07-.5,0-.63.22-.63.65,0,1.02,0,2.02-.02,3.05,0,.53.25.65.73.65,2.18-.03,4.34-.03,6.52-.03,1.03,0,1.08.03,1.05,1.05,0,.22,0,.45.02.7.02.8-.13.95-.93.95-1.88,0-3.76-.03-5.65-.03-.38,0-.73,0-1.1-.03-.43-.03-.63.12-.63.57.02,1.1,0,2.22,0,3.32,0,.5.23.68.7.68,2.41-.03,4.82-.03,7.2-.03h.4q1.35,0,1.35,1.37v.28c0,1-.07,1.05-1.08,1.05h-10.91c-.73,0-.85-.1-.85-.85v-7.6h0ZM16.21,110.63c0,.88-.03,1.77,0,2.65.03.7-.5.97-.95,1.25-1.53.92-3.21,1.45-5.02,1.45-1.33,0-2.66.03-3.99-.35-3.21-.95-5.72-3.97-6.02-7.29-.33-3.72,1.65-7.39,5.27-8.74,2.06-.78,4.14-1.12,6.35-.53,1.5.4,2.81,1.1,4.04,2,.33.25.38.47.1.75-.43.45-.88.88-1.3,1.3-.25.25-.55.25-.83,0-1.53-1.32-3.34-1.77-5.27-1.5-2.63.4-4.77,1.92-5.14,5.12-.25,2.15.45,3.92,2.13,5.27,1.28,1.02,2.81,1.4,4.42,1.27.78-.05,1.53-.3,2.31-.45.58-.12.75-.53.73-1.07-.03-1.25-.03-2.5-.05-3.72,0-.67.07-.75.75-.75.58,0,1.15,0,1.73-.03.43-.03.65.15.65.6v2.75c.05.03.07.03.1.03h0ZM38.54,115.85c-1.3.38-1.88-.32-2.23-1.42-.2-.65-.55-1.27-.8-1.9-.18-.42-.45-.6-.93-.6-2.43.03-4.89.03-7.33,0-.4,0-.58.12-.73.5-.38.95-.8,1.85-1.21,2.8-.22.5-.6.7-1.15.68-.56-.02-1.12-.02-1.68,0-.58.03-.73-.22-.5-.75.8-1.7,1.63-3.37,2.43-5.07,1.46-3.17,2.99-6.3,4.32-9.52.48-1.12,1-1.47,2.21-1.5,1.25-.03,1.86.32,2.33,1.47,1.1,2.67,2.38,5.27,3.59,7.89,1.03,2.25,2.11,4.47,3.16,6.7.23.5.13.72-.43.75h-.53c-.2-.03-.38-.03-.53-.02ZM30.89,102.34c-.15.32-.23.5-.3.65-.85,1.92-1.73,3.87-2.58,5.8-.2.47-.1.67.43.67,1.71.03,3.41.03,5.12,0,.5,0,.58-.15.38-.6-.88-2-1.76-3.97-2.64-5.97-.07-.12-.2-.25-.4-.55h0ZM99.01,116c-2.03.07-3.99-.32-5.77-1.32-.93-.53-.93-.65-.48-1.57.12-.25.23-.53.33-.8.23-.57.45-.62.98-.27,1.98,1.25,4.11,1.75,6.45,1.35.95-.18,1.81-.53,2.26-1.5.18-.4.18-.75-.05-1.15-.45-.82-1.2-1.2-2.06-1.42-1.68-.47-3.36-.9-5.04-1.45-1.13-.38-2.06-1.1-2.56-2.2-.93-2.05-.15-4.6,1.83-5.7,2.21-1.25,4.59-1.55,7.07-.87.9.25,1.78.55,2.68.82.5.15.6.47.4.93-.2.45-.4.92-.58,1.37-.18.38-.4.45-.78.25-1.68-.9-3.46-1.2-5.34-.97-.83.1-1.56.4-2.08,1.07-.68.87-.53,2,.48,2.47.95.45,1.98.72,2.99,1.05,1.35.45,2.79.75,4.09,1.35,2.68,1.25,2.74,4.45,1.4,6.17-1.28,1.67-3.09,2.32-5.14,2.37-.4.03-.73.03-1.08.03h0ZM46.47,84.1c0-1.6.03-3.22,0-4.82,0-.5.18-.65.68-.7.75-.07,1.25.22,1.71.8,1.63,2.06,3.29,4.1,4.97,6.12.13.15.35.18.53.28.03-.17.1-.35.1-.52,0-1.27-.03-2.52-.03-3.8,0-.75-.03-1.5-.05-2.25-.03-.45.15-.65.6-.62,1.21.05,1.56-.4,1.51,1.4-.08,2.95,0,5.89,0,8.84,0,.75-.1.82-.85.88-.68.03-1.13-.25-1.53-.77-1.63-2.06-3.27-4.1-4.94-6.12-.1-.12-.28-.15-.43-.25-.05.18-.15.35-.15.5.03,1.97.07,3.95.12,5.9,0,.5-.25.72-.75.72-1.4.05-1.4.03-1.4-1.35-.05-1.4-.05-2.8-.07-4.22h0ZM84,84.07v-4.95c0-.4.15-.55.55-.55,1.73.03,3.46-.1,5.19.05,3.54.3,5.82,2.85,5.37,6.32-.35,2.72-2.53,4.57-5.14,4.67-1.76.07-3.54.03-5.29.05-.55,0-.7-.25-.68-.75,0-1.6-.02-3.22,0-4.85h0ZM86.19,84.07s-.02,0,0,0c0,1.07,0,2.15-.02,3.22,0,.47.23.65.68.65.75,0,1.51.07,2.26-.03.78-.1,1.66-.2,2.31-.6,1.63-1.05,2.11-3.12,1.26-4.87-.5-1.03-1.28-1.75-2.43-1.9-1.1-.15-2.21-.12-3.34-.2-.5-.05-.7.15-.7.62v3.1h0ZM13.28,84.15v-4.87c0-.53.18-.7.7-.68,1.48.05,2.96.03,4.44.05,1.13.03,2.11.43,3.04,1.1,1.71,1.25,1.81,5.05-.7,6.12-.4.18-.4.38-.15.7.6.8,1.23,1.62,1.81,2.45.1.15.13.38.2.57-.2.05-.38.12-.58.15-.28.03-.53,0-.8,0-.48.03-.8-.18-1.05-.57-.48-.72-.98-1.42-1.46-2.12-.28-.4-.6-.57-1.13-.5-.48.07-.95.03-1.43,0-.78-.03-.85.07-.8.85.03.6.03,1.17.03,1.77,0,.43-.22.6-.65.62-1.46.03-1.43.05-1.4-1.37,0-1.5-.03-2.9-.05-4.27,0,0,.03,0,0,0ZM15.31,82.58h.05c-.02.52-.05,1.03-.1,1.55-.05.45.15.65.58.65.85,0,1.76.1,2.58-.05.58-.1,1.25-.4,1.63-.85,1.11-1.22.48-3.07-1.15-3.37-1.03-.2-2.11-.15-3.16-.18-.35-.03-.48.22-.48.57.07.57.05,1.12.05,1.67ZM24.97,84.05v-4.82c0-.43.13-.62.58-.62h7.03c.63,0,.65.38.65.82,0,.72-.12.95-.7.95-1.5,0-3.04,0-4.54-.03-.83-.03-.9.03-.88.85,0,.4,0,.8-.05,1.2-.05.6.1.85.7.85,1.28.02,2.53,0,3.81-.03.75-.03.95.1.98.78.03.77-.18.95-.93.95-1.28-.03-2.58,0-3.86-.03-.48,0-.65.22-.65.68,0,.6-.03,1.17-.05,1.77-.03.45.22.65.63.65,1.63,0,3.26,0,4.89-.05.65-.03.8.15.83.97,0,.7-.12.82-.78.8-2.26-.03-4.49,0-6.75,0-.8,0-.9-.1-.9-.87.03-1.65.03-3.25,0-4.82ZM35.73,84.12c0-1.6.03-3.22,0-4.82,0-.53.18-.7.7-.7,2.26.03,4.54,0,6.8,0,.58,0,.7.15.73.9.03.65-.12.85-.7.85-1.48,0-2.96,0-4.44-.03-.88-.03-.95.05-.95.93,0,.37,0,.77-.05,1.15-.08.55.1.82.68.82,1.27.03,2.54.02,3.81-.03.9-.03,1.36.55.93,1.35-.1.2-.5.32-.75.35-1.28.02-2.53,0-3.81,0-.68,0-.8.1-.8.8,0,.5-.03,1-.05,1.5-.05.55.12.77.7.77,1.63,0,3.26,0,4.89-.05.53-.03.7.2.73.65,0,.2.03.43.03.62-.03.4-.25.53-.6.53-2.33,0-4.64,0-6.97-.03-.75,0-.85-.1-.85-.87.03-1.57,0-3.12,0-4.7h0ZM97.23,84.05v-4.72c0-.62.07-.72.73-.72h6.88c.63,0,.7.1.7.88s-.1.9-.73.9c-1.61,0-3.19,0-4.79-.05-.45,0-.65.12-.63.57,0,.57,0,1.15-.02,1.72,0,.4.18.62.58.6,1.4-.03,2.81,0,4.21-.05.43,0,.63.15.65.52.02.22,0,.45,0,.7,0,.37-.23.52-.6.52-1.43-.03-2.84-.03-4.27-.05-.38,0-.55.15-.55.47,0,.7,0,1.42-.02,2.12,0,.37.25.47.58.47,1.66,0,3.31,0,4.97-.03.7,0,.83.1.83.95,0,.67-.15.82-.8.82h-6.7c-.95,0-1.05-.12-1.03-1.05.07-1.55.05-3.07.02-4.6t0,0h0ZM10.62,86.27c0,.52-.03,1.02,0,1.55.03.43-.12.72-.5.95-1.56,1.02-3.26,1.22-5.07,1-1.81-.22-3.14-1.1-4.09-2.6-2.03-3.2-.38-7.6,3.31-8.47,2.01-.47,4.11-.43,5.87,1,.55.45.55.6.03,1.05-.1.07-.2.15-.25.22-.3.42-.63.42-1.03.12-1.3-.97-2.73-1-4.22-.57-1.83.5-2.68,2.65-2.46,4.15.5,3.12,3.54,3.9,5.9,3.02.38-.15.5-.45.5-.82-.03-.72,0-1.45-.05-2.17-.03-.52.18-.72.7-.72q1.33,0,1.3,1.3c.03.35.03.67.05,1,0,0-.03,0,0,0ZM81.49,89.7c-.78.12-1.15-.22-1.46-.95-.8-1.9-.68-1.55-2.38-1.55-1.15,0-2.31-.05-3.46,0-.2,0-.48.2-.58.37-.3.53-.5,1.1-.78,1.65-.23.45-1.73.72-2.06.35-.1-.1-.07-.4,0-.55.35-.78.75-1.5,1.08-2.27,1.11-2.43,2.21-4.87,3.29-7.32.33-.75,1.63-1.2,2.36-.75.18.1.28.35.38.55,1.51,3.25,2.99,6.5,4.49,9.74.23.5.13.68-.4.7-.15.03-.33.03-.48.03h0ZM78.06,85.5c.43.05.58-.32.35-.72-.18-.32-.35-.62-.48-.95-.35-.8-.65-1.62-1-2.45-.07-.15-.3-.25-.45-.37-.1.12-.2.25-.28.4-.5,1.12-.95,2.25-1.46,3.37-.2.47-.07.72.48.75.9,0,1.88-.03,2.84-.03h0ZM69.33,82.9c0,1.45.12,2.92-.02,4.35-.12,1.22-.93,2.1-2.18,2.4-1.61.4-3.14.32-4.44-.85-.55-.5-.55-.62-.05-1.15.08-.07.13-.15.2-.2.48-.55.48-.5,1.03-.07.43.32.95.6,1.46.72.98.22,1.88-.5,1.91-1.55.05-1.9.03-3.8.03-5.7,0-.43-.23-.57-.63-.57-.85.03-1.73.05-2.58.05-.73,0-.8-.12-.8-1.05,0-.65.1-.72.8-.72h4.57c.73,0,.85.1.85.82v3.5c-.05.03-.1.03-.12.02Z"/>
    </g>
  </g>
</svg>