<?xml version="1.0" encoding="UTF-8"?>
<svg id="Layer_2" data-name="Layer 2" xmlns="http://www.w3.org/2000/svg" viewBox="0 0 207.9 58.95">
  <defs>
    <style>
      .cls-1 {
        fill: #fff;
        stroke-width: 0px;
      }
    </style>
  </defs>
  <g id="Layer_1-2" data-name="Layer 1">
    <g>
      <path class="cls-1" d="M35.5,23.56c-.63.07-1.04.24-1.27.51-.23.27-.4.91-.53,1.88-.13.98-.33,2.96-.6,5.96-.27,3-.4,4.98-.43,5.96-.03.98.03,1.58.2,1.82.17.24.57.34,1.2.27.67-.07,1.1-.24,1.34-.51.23-.27.4-.91.53-1.88.13-.98.33-2.96.6-5.96.27-3,.4-4.98.43-5.96.03-.98-.03-1.58-.23-1.82-.2-.24-.6-.34-1.24-.27Z"/>
      <path class="cls-1" d="M206.63,22.89c-.24-.78-.58-1.53-1-2.22l1.1.03,1.17-13.7-3.34-6.06-4.01-.61c-1.04-.16-2.09-.26-3.14-.31-1.45-.07-2.9-.03-4.35.1-2.11.2-3.91.57-5.48,1.21l.03-.4-16.98,1.48-34.1,3-16.31,1.45-.3,1.18-2.14-.34c-1.32-.19-2.65-.3-3.98-.34-1.47-.03-2.85-.03-4.04.1-3.44.3-6.08,1.08-8.12,2.39-1.08.69-2.04,1.57-2.82,2.59l-2.36-4.28-21.93,1.95-15.88,1.41-11.36,1.01c1.87-3.33.9-7.4-1.2-9.93-.78-.95-1.76-1.71-2.88-2.22-.67-.32-1.41-.44-2.14-.36-.73.08-1.43.37-2.01.83-.36.28-.67.62-.9,1.01-.32.15-.61.34-.87.57-.13.1-.27.23-.4.34-.68-.68-1.47-1.24-2.34-1.65-.66-.32-1.4-.44-2.12-.36-.73.08-1.42.37-1.99.83-.36.28-.67.62-.9,1.01-.32.15-.61.34-.87.57-1.27,1.08-2.26,2.45-2.88,4-.8,2.05-1.07,4.95.27,7.17l-22.99,2.02L0,52.9l3.34,6.06,26.07-2.29.1-1.25c1.44.67,3.17.98,5.35.98.77,0,1.57-.03,2.44-.1,2.64-.24,4.78-.74,6.52-1.55l-.07.64,20.89-1.85,9.36-.81,22.66-1.99.74-8.63,2.17,3.95c.74,1.36,1.86,2.48,3.21,3.23,1.57.88,3.54,1.31,5.98,1.31.67,0,1.4-.03,2.17-.1,1.5-.14,3-.37,4.48-.67.17-.03.3-.07.47-.1l28.78-2.52,26.07-2.29,17.11-1.51.03-.2c.67.03,1.37.07,2.14.1h.83c1.2,0,2.37-.03,3.48-.13,2.28-.2,4.15-.64,5.75-1.35,2.01-.88,3.68-2.46,4.91-4.71,1.1-1.95,1.77-4.58,2.07-7.94.2-2.52.1-4.58-.37-6.23l-.07-.06ZM29.51,8.65c.37-.94.97-1.77,1.74-2.42-.43.57-.47,1.18-.2,1.51.07.07.15.12.25.15.09.03.19.03.29.01.6-.1,1-.98,1.1-1.25.26-.6.33-1.27.2-1.92.59.27,1.12.67,1.54,1.18,1.07,1.31,1.93,3.9.53,5.79-1,1.38-2.67,1.62-2.77,1.65-.27.07-1.4.23-2.24-.47-1.2-1.01-.9-3.06-.43-4.24ZM22.06,46.55l-7.09.64.9-10.7-3.14.27-.9,10.7-7.09.64,2.34-27.63,7.09-.64-.9,10.53,3.14-.27.9-10.53,7.09-.64-2.34,27.63ZM43.62,30.93c-.37,4.17-.77,7.17-1.2,8.95-.43,1.78-1.3,3.16-2.61,4.14-1.3.98-3.38,1.58-6.25,1.82-2.84.27-4.88.03-6.02-.71-1.14-.74-1.77-1.99-1.91-3.73-.13-1.75,0-4.71.33-8.92.37-4.21.74-7.2,1.17-8.99.43-1.78,1.27-3.16,2.57-4.11,1.3-.94,3.38-1.55,6.25-1.82,2.87-.27,4.88,0,6.05.74,1.14.74,1.77,1.99,1.93,3.73.14,1.75.04,4.71-.33,8.88h0ZM43.59,10.94c-1,1.37-2.67,1.62-2.78,1.65-.27.07-1.4.24-2.24-.47-1.2-1.01-.9-3.06-.43-4.24.37-.94.97-1.77,1.74-2.42-.4.57-.47,1.21-.2,1.51.07.07.15.12.25.15.09.03.19.03.29.01.6-.1,1-.98,1.1-1.25.26-.6.33-1.27.2-1.92.59.27,1.12.67,1.54,1.18,1.07,1.31,1.94,3.9.53,5.78h0ZM58.26,43.38l-13.04,1.15,2.34-27.63,7.09-.64-1.84,21.5,5.98-.54-.53,6.16ZM73.37,42.04l-13.04,1.15,2.34-27.63,7.09-.64-1.84,21.5,5.98-.54-.53,6.16ZM91.18,18.98l-6.79.61-.4,4.78,5.78-.5-.5,5.89-5.78.51-.43,5.05,6.79-.61-.5,5.96-13.87,1.21,2.34-27.63,13.87-1.21-.5,5.96ZM114.95,38.6c-1,.37-2.24.67-3.68.98-1.33.27-2.66.47-4.01.6-2.57.24-4.45,0-5.68-.67-1.2-.67-2-1.99-2.31-3.9-.33-1.92-.33-4.85,0-8.75.33-3.9.84-6.86,1.54-8.88.7-2.02,1.74-3.47,3.18-4.38,1.4-.91,3.48-1.48,6.18-1.72,1.17-.09,2.34-.11,3.51-.07,1.16.02,2.32.12,3.47.3l-.5,5.45c-2.5-.03-4.18-.03-5.08.03-1.64.14-2.74.37-3.31.67-.6.3-1,.98-1.27,2.05-.27,1.08-.53,3.03-.77,5.89-.23,2.69-.33,4.58-.33,5.65s.17,1.78.47,2.12c.3.34.84.47,1.67.4l1.1-.14.47-5.45-1.71.13.47-5.65,7.96-.71-1.37,16.02ZM129.49,37.9l-.24-4.64-4.91.4-1.04,4.75-6.95.6,7.28-28.07,10.33-.91,2.61,27.19-7.08.67ZM163.45,34.9l-6.71.57,1.61-18.78-.37.03-4.21,19.02-6.02.54-.97-18.54-.4.03-1.6,18.78-6.62.57,2.34-27.63,10.46-.91.7,16.59.3-.03,3.51-16.96,10.33-.91-2.35,27.62ZM182.33,11.72l-6.79.6-.4,4.75,5.78-.51-.5,5.89-5.78.51-.43,5.05,6.78-.61-.5,5.99-13.87,1.21,2.34-27.63,13.87-1.21-.5,5.96ZM191.46,14.31c.03.3.17.51.37.61.33.14.68.23,1.04.27l2.81.3c.87.1,1.6.34,2.17.67.57.34,1.04,1.01,1.34,1.99.33,1.15.4,2.69.23,4.68-.23,2.69-.74,4.75-1.5,6.16-.77,1.41-1.74,2.36-2.87,2.86-1.14.51-2.61.84-4.38.98-1.27.1-2.54.14-3.91.14-1.16-.01-2.32-.09-3.48-.24l.47-5.45c2.41-.03,4.21-.1,5.35-.2.8-.07,1.4-.13,1.77-.23.37-.1.64-.24.8-.44.19-.2.32-.44.37-.71.07-.3.13-.71.2-1.25.07-.81.07-1.37,0-1.68-.03-.15-.1-.29-.2-.41-.1-.12-.23-.21-.37-.26-.3-.14-.84-.24-1.64-.3l-3.28-.34c-1.07-.1-1.81-.81-2.14-2.12-.33-1.28-.4-3.13-.2-5.55.2-2.36.7-4.17,1.5-5.49.8-1.31,1.8-2.22,3.04-2.73s2.74-.88,4.55-1.01c1.24-.12,2.49-.15,3.74-.1,1.14.07,2.04.13,2.67.23l-.47,5.52c-1.61-.04-3.21,0-4.81.13-.77.07-1.3.14-1.67.2-.31.05-.6.18-.84.37-.21.19-.36.43-.43.71-.12.42-.19.85-.2,1.28-.06.46-.07.93-.03,1.4h0Z"/>
      <path class="cls-1" d="M128.08,16.93l-2.41,10.94,3.18-.27-.5-10.7-.27.03Z"/>
    </g>
  </g>
</svg>