<?xml version="1.0" encoding="UTF-8"?>
<svg id="Layer_2" data-name="Layer 2" xmlns="http://www.w3.org/2000/svg" viewBox="0 0 210.03 66.03">
  <defs>
    <style>
      .cls-1 {
        fill: #fff;
        stroke-width: 0px;
      }
    </style>
  </defs>
  <g id="Layer_1-2" data-name="Layer 1">
    <g>
      <path class="cls-1" d="M210,26.99c-1.43,3.57-2.84,7.12-4.27,10.69-3.69,9.1-7.38,18.23-11.1,27.32-.15.39-.61.99-.95.99-4.24.06-8.5.03-13.23.03.37-1.5.49-2.85,1.04-3.99,1.01-2.13,2.23-4.14,3.45-6.15.49-.81.52-1.5.15-2.37-2.87-6.64-5.76-13.27-8.57-19.94-.37-.9-.82-1.26-1.77-1.2-1.37.06-2.71.03-4.3.03v23.75h-9.15q-4.02,0-4.02-3.96v-19.67c-1.22-.06-2.35-.12-3.6-.18v-8.56h3.6c0-1.08.03-1.95,0-2.82-.21-4.41.79-5.71,5.55-7.57,3.51-1.35,7.19-.81,10.82-.72.85.03,1.71.24,2.77.42-.16,2.54-.31,5.08-.46,7.63-1.89-.39-3.66-.66-5.03.69-.46.45-.46,1.32-.73,2.22.85.03,1.4.09,1.92.09,4.63,0,9.24.03,13.87,0,1.01,0,1.52.21,1.83,1.26,1.43,4.78,2.99,9.52,4.48,14.26.15.45.34.93.79,1.41.73-2.43,1.49-4.86,2.23-7.3.85-2.82,1.71-5.62,2.44-8.47.24-.96.7-1.17,1.59-1.17,3.57.03,7.1,0,10.67,0-.03,1.08-.03,2.16-.03,3.27h0ZM0,31.79c.31-.66.58-1.35.91-2.01,1.59-3.39,4.72-4.74,8.05-5.56,5.58-1.35,11.13-1.23,16.58.75,1.07.39,1.65.84,1.56,2.1-.15,1.89-.03,3.78-.03,5.85-1.95-.06-3.69.33-5.55-.57-2.68-1.29-5.61-1.11-8.47-.45-.46.12-1.01.87-1.07,1.38-.03.36.61,1.11,1.04,1.2,2.41.48,4.85,1.05,7.32,1.2,5.12.3,9.15,5.19,8.29,10.45-1.07,6.58-4.63,9.13-11.13,9.97-5.43.69-10.7.18-15.91-1.29-.52-.15-1.04-.33-1.56-.48v-.3c.18-2.55.4-5.14.61-7.84,2.32.15,4.54-.45,6.74.96,2.19,1.41,4.82,1.47,7.32.75.85-.24,1.56-.99,2.35-1.53-.88-.39-1.71-.93-2.62-1.14-2.26-.51-4.57-.75-6.83-1.29-3.87-.9-6.55-3-7.07-7.15-.06-.48-.31-.93-.49-1.41-.03-1.2-.03-2.4-.03-3.6h0ZM100.35,56.59c-3.6,0-7.1.12-10.58-.03-1.95-.09-3.11-1.5-3.72-3.12-1.89.93-3.72,2.01-5.67,2.73-2.62.99-5.36,1.02-8.05.21-3.66-1.08-5.3-3.84-5.91-7.27-.36-1.95-.49-3.96-.49-5.95-.06-6.24-.03-12.49-.03-18.89h13.41c.03.54.06,1.08.06,1.62v16.21c0,.54,0,1.11.09,1.65.4,2.46.82,2.82,3.35,2.82q3.72,0,3.72-3.6v-18.71h13.78c.03,10.78.03,21.5.03,32.31ZM63.19,55.81c-3.44,0-6.74.03-10.03-.03-.43,0-.94-.51-1.28-.87-.49-.54-.85-1.2-1.16-1.59-1.71,1.02-3.17,2.4-4.88,2.82-4.39,1.11-8.87,1.17-12.31-2.4-2.93-3.03-3.11-6.88-1.86-10.66,1.28-3.81,4.54-4.98,8.23-5.67,3.11-.57,6.13-.15,9.21.12.33.03.97-.42,1.04-.72.4-2.1-.82-3.81-2.99-4.05-2.93-.33-5.76-.27-8.51,1.32-1.19.69-3.05.33-4.82.45,0-2.85-.03-5.56.03-8.23,0-.3.52-.72.88-.84,1.83-.57,3.63-1.26,5.52-1.56,5.4-.87,10.79-1.05,16.06.6,3.6,1.11,5.94,3.66,6.31,7.18.52,5.07.34,10.24.46,15.37.03,2.04.03,4.08.03,6.12.06.87.06,1.71.06,2.64h0ZM49.78,45.39c0-2.43,0-2.46-2.04-2.49-2.38-.03-3.54,1.11-3.54,3.48,0,2.13.55,2.64,2.87,2.64,2.44.03,2.71-.36,2.71-3.63ZM132.51,29.87c0,.99-.06,2.01.03,3,.09,1.2-.46,1.56-1.52,1.35-1.86-.33-3.75-.69-5.58-1.08-7.41-1.59-9.72,3.15-8.81,8.92.37,2.34,1.07,4.59,3.63,5.46,2.53.84,4.97.45,7.41-.84,1.25-.66,2.99-.39,4.51-.48.12,0,.37.63.37.99.03,1.86-.03,3.69.03,5.56.06,1.05-.37,1.65-1.31,2.1-3.51,1.65-7.19,2.28-11.07,2.1-3.63-.18-7.13-.75-10.33-2.55-3.23-1.8-5.18-4.53-6.1-8.05-1.19-4.5-1.16-9.01.58-13.39,2.01-5.04,6.1-7.66,11.28-8.83,3.81-.87,7.65-.84,11.49-.42.79.09,1.59.27,2.38.48,2.93.87,3.08,1.11,3.08,4.14-.06.51-.06,1.02-.06,1.53h0ZM150.59,55.96h-13.72V23.63h4.02c1.83,0,3.66-.03,5.49,0,2.62.03,4.18,1.56,4.18,4.26.03,6.46,0,12.91,0,19.37.03,2.85.03,5.71.03,8.71h0ZM150.01,17.65c.15-.72.3-1.44.43-2.16.4-2.22-.43-3.96-2.38-5.08-1.46-.84-3.08-1.47-4.63-2.19-1.04-.51-2.1-1.02-3.05-1.62-1.16-.75-2.01-1.74-1.77-3.24.24-1.59,1.31-2.55,2.84-3,2.56-.78,4.82-.24,6.92,1.38.52.39,1.4.27,2.1.48.61.18,1.37.3,1.77.72,2.5,2.67,2.84,7.99.76,11.35-.79,1.26-1.77,2.37-2.68,3.54-.08-.09-.19-.15-.3-.18h0Z"/>
      <path class="cls-1" d="M136.44,1.01c-1.49,4.57-.79,6.25,3.93,8.68,1.31.66,2.71,1.08,4.05,1.68,2.53,1.14,3.45,2.91,2.71,4.99-.61,1.74-3.17,3.03-5.37,2.37-1.83-.57-3.51-1.59-5.4-2.49-1.22.78-1.62.69-2.71-.87-2.87-4.17-2.23-10.06,1.46-13.36.37-.33.76-.6,1.31-.99h0Z"/>
    </g>
  </g>
</svg>