<?xml version="1.0" encoding="UTF-8"?>
<svg id="Layer_2" data-name="Layer 2" xmlns="http://www.w3.org/2000/svg" viewBox="0 0 201.01 117.45">
  <defs>
    <style>
      .cls-1 {
        fill: #fff;
        stroke-width: 0px;
      }
    </style>
  </defs>
  <g id="Layer_1-2" data-name="Layer 1">
    <path class="cls-1" d="M99.67,0c2.03.4,4.16.61,6.19,1.22,6.09,1.52,11.67,4.76,16.14,9.22,7.1,7.09,10.35,15.7,10.15,25.53-.2,6.99-2.44,13.37-6.6,19.05-3.96,5.47-9.13,9.52-15.43,12.06-7.61,3.04-15.43,3.34-23.35.91-4.26-1.21-8.32-3.34-11.77-6.08-2.71-2.12-5.08-4.65-7-7.5-.1-.33-.1-.68,0-1.01,2.44-3.85,4.87-7.7,7.21-11.65,2.74-4.66,5.38-9.42,8.12-14.18.2-.3.41-.61.71-.81,0,.41.1.91.1,1.32,0,6.18.2,12.36,1.32,18.44.51,2.74,1.32,5.37,2.94,7.7,2.23,3.14,6.6,4.15,9.64,1.82,1.93-1.52,3.65-3.34,5.18-5.37,3.55-4.86,6.19-10.23,8.83-15.5.3-.71.61-1.32,1.01-2.23.81,1.62,1.52,3.14,2.23,4.56,1.62,3.24,3.65,6.28,6.39,8.81l.2.2,1.52.3c0-.51,0-1.11-.2-1.52-.81-1.42-1.73-2.74-2.44-4.15-2.03-4.15-2.94-8.61-3.65-13.07-.2-1.32-.3-2.63-.51-3.95-.2-1.62-1.22-2.74-2.84-2.94-1.42-.1-2.64.81-3.35,2.13-2.84,5.88-5.58,11.65-8.53,17.43-1.62,3.24-3.55,6.28-6.09,9.02l-.2.2c-1.32,1.42-1.93,1.42-2.54-.3-.91-2.84-1.83-5.78-2.13-8.81-1.01-9.22-.71-18.44.1-27.76.1-1.42,0-2.84-.3-4.15-.31-1.22-1.52-1.72-2.74-1.72s-2.33.61-2.84,1.62c-3.25,5.88-6.39,11.85-9.85,17.63-3.45,5.78-7.41,11.35-11.06,16.92-.3.4-.61.71-1.01,1.32-.26-.84-.49-1.68-.71-2.53-1.52-6.89-.91-13.68,1.72-20.26,1.83-4.56,4.67-8.71,8.22-12.16,4.87-4.56,10.66-7.5,17.25-8.92,1.83-.4,3.75-.51,5.68-.71L99.67,0h0ZM3.15,87.94v22.59H0v-25.02h4.87c.3,0,.61.4.71.71,1.62,4.86,3.15,9.83,4.77,14.69.41,1.32.81,2.63,1.32,4.05.2-.2.31-.3.31-.51,1.83-5.57,3.55-11.14,5.38-16.61q.81-2.53,3.45-2.53h2.54v25.12h-2.94v-22.59l-.41-.1c-.2.51-.41.91-.61,1.42-2.13,6.58-4.16,13.17-6.39,19.76-.2.61,0,1.52-1.22,1.62-.91.1-1.32-.3-1.52-1.11-1.42-4.56-2.84-9.22-4.36-13.78-.81-2.43-1.52-4.76-2.34-7.19-.1-.2-.2-.51-.3-.71,0,0-.1.2-.1.2ZM153.67,110.53h-3.15c0-.51-.1-.91-.1-1.32v-11.55c-.1-4.36-3.45-6.18-7.31-4.05-.3.2-.61.3-.91.51-.61.3-.71.71-.71,1.42.1,4.96,0,9.93,0,14.99h-2.54c0-.4-.1-.81-.1-1.32v-11.45c.1-4.97-3.15-5.57-7-4.25-1.42.51-2.13,1.32-2.03,3.04.2,4.25.1,8.41.1,12.66v1.32h-3.04v-19.15c1.83-.51,2.23-.4,2.74,1.32.41-.2.71-.3,1.01-.51,2.34-1.42,4.87-1.72,7.51-1.01,1.01.3,1.93,1.01,2.94,1.52,1.12-.51,2.44-1.11,3.76-1.52,1.93-.61,3.86-.4,5.68.2,2.34.81,2.94,2.74,3.04,4.86.1,3.95.1,7.9.1,11.85v2.43h0ZM89.01,117.22q.2-2.03,1.93-2.03c1.62,0,3.15.1,4.77,0,2.33-.1,3.25-1.01,3.65-3.34.1-.91.1-1.82.2-2.94-1.22.4-2.13.91-3.15,1.22-2.23.71-4.67.71-6.8-.2-1.42-.51-2.44-1.72-2.64-3.14-.81-3.91-.81-7.94,0-11.85.41-2.03,1.73-3.24,3.76-3.75,2.84-.71,5.48-.4,7.92,1.01.3.2.61.3.91.51h.2q.51-1.62,2.84-1.42c.1.2.1.4.1.61,0,6.08.1,12.26-.1,18.34-.1,5.27-2.03,7.09-7.31,7.19-2.03.1-4.16-.1-6.29-.2ZM99.57,100.7v-5.07c0-.4-.2-.91-.51-1.11-1.73-1.22-3.55-1.82-5.68-1.52-1.93.3-2.94,1.01-3.35,2.84-.71,3.14-.61,6.38-.1,9.62.2,1.22.81,2.13,2.13,2.63,2.54.81,4.87.1,7.11-1.01.2-.1.41-.61.41-1.01v-5.37ZM197.92,109.01c-1.73.51-3.25,1.22-4.87,1.42-1.22.2-2.54,0-3.76-.1-2.64-.4-3.96-2.23-4.26-4.66-.51-3.75-.71-7.5.41-11.25.51-1.62,1.62-2.64,3.25-3.14,2.94-.81,5.68-.51,8.32,1.01.3.2.51.3.81.4h.2q.61-1.72,2.84-1.42c0,.4.1.71.1,1.11,0,6.18.1,12.26,0,18.44,0,2.13-.41,4.25-2.54,5.47-1.12.61-2.23.91-3.55,1.01-2.44.1-4.87,0-7.31-.1-.2-2.13-.1-2.13,1.73-2.13,1.73,0,3.55.1,5.28,0,1.93-.1,2.84-1.11,3.15-2.94.1-1.01.1-2.03.2-3.14h0ZM197.92,100.91v-5.17c0-.41-.2-.91-.51-1.11-1.12-.61-2.33-1.32-3.55-1.52-3.25-.61-5.28.61-5.58,3.55-.3,2.84-.2,5.78,0,8.61.1,1.32.71,2.43,2.23,2.94,2.54.91,4.87.1,7.1-1.11.2-.1.41-.61.41-1.01-.1-1.72-.2-3.44-.1-5.17h0ZM122.61,110.53q-2.23.3-2.84-1.52c-.71.3-1.32.61-2.03,1.01-2.54,1.22-5.07,1.32-7.61.41-1.73-.51-2.94-1.93-3.15-3.65-.71-3.65-.71-7.5-.1-11.14.51-2.74,1.93-4.05,4.67-4.46,2.44-.51,4.97-.1,7.21,1.11.3.2.61.3,1.01.51l.51-1.42h2.44l-.1,19.15ZM119.57,100.91v-5.47c0-.41-.2-.81-.51-1.01-1.73-1.21-3.76-1.62-5.79-1.42-1.73.2-2.84,1.11-3.15,2.74-.71,3.24-.71,6.69-.1,9.93.41,2.03,1.52,2.84,3.55,3.04,1.93.2,3.55-.51,5.18-1.21.61-.3.91-.61.91-1.32-.1-1.72-.1-3.44-.1-5.27h0ZM83.43,100.4c-.1,1.72-.1,2.94-.2,4.15-.41,3.65-2.03,5.47-5.58,6.08-2.74.51-5.48.51-8.02-.81-1.42-.61-2.44-1.93-2.74-3.34-.81-3.67-.81-7.47,0-11.14.4-2.03,1.72-3.34,3.75-3.95,2.82-.81,5.81-.81,8.63,0,2.13.61,3.35,2.23,3.76,4.36.3,1.82.3,3.44.41,4.66h0ZM69.32,100.3c.1,1.72.1,2.94.2,4.15,0,.3.1.61.2.91.51,2.03,1.42,3.04,3.45,3.24,1.01.1,2.13.1,3.25,0,2.13-.3,3.25-1.32,3.45-3.34.31-2.33.31-4.76.2-7.19-.2-4.15-1.83-5.47-6.09-5.17-.2,0-.41,0-.61.1-2.03.2-3.15,1.11-3.55,3.14-.31,1.52-.41,3.14-.51,4.15ZM181.28,110.53h-3.15c0-.4-.1-.81-.1-1.22v-10.84c0-.81,0-1.62-.1-2.43-.2-1.42-1.32-2.64-2.74-2.84-2.13-.41-4.16-.1-6.09,1.01-.71.4-.91.81-.91,1.62v14.79h-3.04v-19.15h2.34l.41,1.42c.3-.2.71-.3.91-.4,2.94-1.62,5.99-1.93,9.13-1.01,2.03.51,2.74,2.13,3.15,3.95.2.81.2,1.62.2,2.43v12.66h0ZM50.85,97.46h-2.64c-.3-.91-.51-1.92-.91-2.74-.41-.91-1.22-1.52-2.23-1.52-1.12-.1-2.33-.1-3.45-.1-1.73.1-2.84,1.21-3.15,2.74-.81,3.34-.71,6.69-.1,9.93.3,1.72,1.52,2.63,3.25,2.94,1.01.1,2.13.1,3.25,0,1.83-.3,2.74-1.21,3.05-3.04.1-.4.1-.81.2-1.42h2.64c.61,2.53-.61,4.86-2.94,5.88-2.74,1.11-5.58,1.11-8.42.3-2.13-.61-3.55-1.93-4.06-4.15-.81-4.05-1.01-8,.41-11.96.61-1.52,1.72-2.43,3.25-2.84,2.23-.71,4.67-.81,7-.3,3.55.61,5.08,2.63,4.87,6.28ZM57.55,110.53h-3.15v-19.25h2.44l.41,1.62c1.32-.61,2.44-1.32,3.75-1.72,1.32-.41,2.74-.3,4.16-.51l-.2,2.23c-.2.1-.51.1-.71.1-2.44-.3-4.36.71-6.29,1.93-.3.2-.51.81-.51,1.32v12.76l.1,1.52h0ZM31.26,110.53h-3.04v-19.25h3.04v19.25ZM160.88,110.53h-2.94v-19.25h2.94v19.25ZM31.36,88.65h-3.15v-3.04h3.15v3.04ZM157.83,88.65v-3.04h3.15v3.04h-3.15Z"/>
  </g>
</svg>