<?xml version="1.0" encoding="UTF-8"?>
<svg id="Layer_2" data-name="Layer 2" xmlns="http://www.w3.org/2000/svg" viewBox="0 0 254.87 71.25">
  <defs>
    <style>
      .cls-1 {
        fill: #fff;
        stroke-width: 0px;
      }
    </style>
  </defs>
  <g id="Layer_1-2" data-name="Layer 1">
    <g>
      <path class="cls-1" d="M56.68,49.09c-3.66-.62-6.8-2.28-9.08-5.24-1.66-2.15-2.4-4.67-2.66-7.29-.2-2.02-.15-4.08.4-6.06,1.48-5.3,5.09-8.97,10.55-9.98,2.62-.48,5.37-.67,7.74-1.9,2.86-1.48,4.87-4.47,5.19-7.67.32-3.2-1.05-6.52-3.51-8.59-4.55-3.82-13.2-2.88-15.55,3.11-.91,2.33-.42,4.95-.79,7.43-.71,4.74-4.57,8.64-9.04,10.07-2.81.9-5.84.94-8.72.34-3.83-.8-8.65-3.16-10.31-6.94-1.37-3.13-.56-6.72-1.63-9.95C16.97-.58,7.23-1.74,2.58,3.51,1.3,4.95.55,6.65.27,8.4c-.71,4.41,1.61,9.12,6.14,10.87,2.48.96,5.19.65,7.72,1.39,2.34.68,4.51,1.95,6.24,3.67,4.36,4.37,5.51,11.41,2.7,16.92-1.99,3.91-5.06,6.58-9.44,7.58-1.47.33-2.95.51-4.45.66-4.59.49-8.37,4.06-8.96,8.67-.47,3.65,1.19,7.44,4.26,9.49,1.23.82,2.57,1.33,4.07,1.58,1.58.26,3.08.15,4.55-.32,3.41-1.08,5.76-3.78,6.57-7.24.86-3.68-.04-7.98,2.69-11.01,1.36-1.5,3.02-2.61,4.79-3.56,6.28-3.37,15.47-2.04,19.8,3.89,1.36,1.86,2.13,3.95,2.15,6.24.02,2.19,0,4.18.97,6.21.88,1.83,2.29,3.41,4.07,4.41,5.08,2.86,11.99.52,14.17-4.91,1.58-3.93.36-7.91-2.55-10.77-2.49-2.45-5.84-2.53-9.08-3.08Z"/>
      <path class="cls-1" d="M123.1,3.57c-.26-.13-.55-.07-.83-.07-2.19,0-4.39.04-6.58-.02-.81-.02-1.21.29-1.56.96-.85,1.65-1.75,3.28-2.65,4.91-1.16,2.08-2.36,4.14-3.53,6.22-.67,1.18-1.33,2.36-2.07,3.68-3-5.3-5.93-10.48-8.92-15.75-2.57,0-5.12,0-7.66,0-.11,0-.21,0-.32,0-.32.03-.52.2-.55.53-.02.18,0,.35,0,.53,0,9.99,0,19.98,0,29.97,0,.24-.07.5.16.69h5.8V11.65c.06-.01.11-.02.17-.03,2.88,5,5.76,10,8.61,14.94h5.29c1.46-2.51,2.89-5,4.34-7.48,1.45-2.48,2.85-5,4.5-7.41v15.77c0,1.31,0,2.61,0,3.92.01,1.29-.05,2.58.04,3.92,1.88,0,3.65,0,5.41,0,.14,0,.58.02.68-.1V4.47c0-1.24-.29-.78-.32-.9Z"/>
      <path class="cls-1" d="M254.87,33.99c0-4.59,0-9.18,0-13.77,0-2.22-.48-4.53-2.15-6.11-1.16-1.1-2.72-1.68-4.29-2-2.16-.44-4.39-.44-6.58-.31-2.1.12-4.19.63-6.29.66.27,1.62.18,3.19.51,4.72.11.12.26.12.39.1,2.9-.41,5.7-.78,8.65-.63.53.03,1.07.07,1.54.3.63.31,1.07.92,1.28,1.57.11.34.38,1.98.12,2.19-.27.22-.5.36-.8.37-2.56.05-5.22.19-7.69.87-1.24.34-2.48.86-3.4,1.75-1.29,1.24-1.91,3.14-1.91,4.9,0,.82.07,1.62.27,2.39.62,2.39,2.6,3.97,5.03,4.3,1.72.23,3.44-.11,5.09-.55.44-.12,4.16-1.82,4-2.17.32.7.4,1.42.49,2.14.08.69.14.77.84.78,1.38.01,2.76.02,4.14,0,.61,0,.73-.14.76-.75.01-.25,0-.49,0-.74ZM247.85,28.7c0,.54-.42.81-.8,1.04-1.12.68-2.37,1.09-3.65,1.24-1.06.12-2.14-.4-2.57-1.4-.18-.41-.24-.86-.23-1.3.01-.47.11-.95.34-1.36.34-.62.97-1.04,1.63-1.28.44-.16,5.29-.84,5.29-.75,0,1.36,0,2.59,0,3.82Z"/>
      <path class="cls-1" d="M147.86,18.94c-.01-2.82-1.49-5.05-4.06-6.18-2.08-.91-4.41-1.15-6.68-1.09-2.71.07-5.39.67-8.08.76-.3,1.64.22,3.17.17,4.79,0,.02,3.99-.49,4.32-.52,1.64-.14,3.28-.16,4.92-.05.51.03,1.03.08,1.49.32,1.4.71,1.13,2.42,1.13,3.72-.3.29-.61.4-.99.4-1.83-.02-3.79.18-5.61.42-1.75.23-3.52.74-4.86,1.88-1.26,1.07-2.05,2.65-2.27,4.29-.39,2.94.95,6.42,4.02,7.28,3.4.96,6.93-.07,9.77-1.97.21-.14.38-.32.68-.17.28.86.21,1.84.7,2.67.92,0,1.81.02,2.69,0,.87-.02,1.75.1,2.59-.08.14-.37.09-.69.09-1,0-5.15.02-10.31,0-15.46ZM141.07,29.16c-1.31,1.03-2.8,1.62-4.42,1.81-.67.08-1.4-.17-1.96-.6-.48-.37-.74-.95-.81-1.53-.16-1.49.24-2.4,1.62-3.09.39-.19.81-.27,1.2-.34,1.27-.22,2.55-.35,3.83-.5.13-.02.27.02.52.05.04,1.41,0,2.81.02,4.21Z"/>
      <path class="cls-1" d="M219.28,17.02c-.85-3.21-3.94-4.65-6.98-5.07-3.33-.46-6.83-.3-10.14.27-.53.09-1.11.07-1.61.29-.07,1.05.15,4.07.34,4.73.24,0,.49.03.73,0,2.45-.41,4.83-.74,7.33-.66,1.75.06,3.97.34,3.88,2.61-.02.52,0,1.05,0,1.51-.3.24-.54.41-.83.38-1.13-.11-2.27.15-3.4.2-1.24.06-2.5.16-3.71.45-1.34.32-2.64.88-3.67,1.79-2.86,2.54-3.09,8.1,0,10.57.8.64,1.81.96,2.82,1.12,1.73.28,3.52.14,5.2-.38.77-.24,1.51-.56,2.21-.97.2-.11,2.09-1.23,2.07-1.32.29,1,.29,1.99.72,2.96,1.58,0,3.1.01,4.62,0,.62,0,.74-.14.77-.74,0-.14,0-.28,0-.42,0-5.05,0-10.09,0-15.14,0-.75-.17-1.46-.36-2.16ZM212.78,29.06c-1.37,1.08-2.93,1.76-4.66,1.92-.72.07-1.54-.18-2.08-.8-.59-.67-.74-1.49-.61-2.36.19-1.32,1.09-1.93,2.28-2.3.71-.22,1.45-.27,2.16-.34.93-.09,1.85-.43,2.91-.22v4.1Z"/>
      <path class="cls-1" d="M174.06,15.48c-.83-2.42-2.7-3.53-5.04-3.91-1.64-.26-3.28.09-4.88.54-1.05.29-2.04.73-3.04,1.18-.91.41-1.79.88-2.78,1.13-.06-.59-.29-1.06-.28-1.61,0-.75-.11-.84-.87-.85-1.24-.01-2.48,0-3.71,0-.24,0-.5-.07-.67.15v23.06c1.18.17,5.47.14,6.3-.04v-16.44c.67-.38,1.27-.67,1.9-.88,1.32-.45,2.64-.95,4.02-1.13,1.25-.16,2.56.23,2.85,1.68.08.42.16.82.16,1.24,0,4.87,0,9.74,0,14.61,0,.34-.12.7.18,1.07,1.7,0,3.43,0,5.16,0,.96,0,1.02-.07,1.04-1.01,0-.07,0-.14,0-.21,0-5.51,0-11.01,0-16.52,0-.71-.12-1.37-.36-2.05Z"/>
      <path class="cls-1" d="M196.48,30.27c0-.31-.06-.56-.38-.68-.24-.1-1.09.26-1.39.3-.42.05-.84.07-1.26.13-1.05.14-2.11.25-3.17.21-1.83-.07-3.75-.54-4.74-2.2-.59-1-.82-2.17-.92-3.32-.12-1.44-.06-2.91.33-4.31.22-.79.56-1.56,1.13-2.15,1.42-1.45,3.49-1.39,5.37-1.26.92.06,1.85.1,2.77.19.76.07,1.47.32,2.24.3,0-1.62,0-3.13,0-4.64,0-.37-.17-.57-.55-.65-2.53-.54-5.2-.8-7.79-.59-3.8.31-7.71,2.12-9.03,5.95-.98,2.85-1.27,5.94-.81,8.93.63,4.09,2.89,7.38,6.99,8.53,3.4.95,7.14.6,10.54-.12.49-.1.64-.34.64-.79,0-1.27,0-2.54,0-3.81Z"/>
      <path class="cls-1" d="M230.59.88s-.05-.05-.08-.08c-1.71-.17-5.48-.11-6.18.1v34.32h6.27c.02-.21.05-.34.05-.48,0-11.26-.02-22.52-.03-33.77,0-.03-.02-.06-.04-.09Z"/>
      <path class="cls-1" d="M143.88,48.87c-1.65-.45-3.4-.1-4.84.74-.61.36-.95,1.03-1.6,1.33-.52-.73-1.04-1.34-1.86-1.74-.78-.38-1.64-.56-2.5-.57-1.51-.01-2.94.43-4.12,1.36-.15.12-.26.36-.54.22-.22-.48.07-1.04-.24-1.6-1.12.02-2.27-.04-3.47.04,0,5.19,0,10.27,0,15.35,0,.25.02.49.04.74,0,.03.04.05.06.08.02.03.05.05.08.09h3.65v-8.66c0-.85.01-1.69,0-2.54,0-.53.18-.97.58-1.3.92-.77,1.99-.98,3.16-.75,1.08.21,1.72.88,1.93,1.95.06.31.06.63.06.95,0,3.11,0,6.21,0,9.32,0,.34-.12.71.14,1.01h3.58c.18-.38.1-.74.11-1.08,0-3.11,0-6.21,0-9.32,0-.35-.01-.68.12-1.04.65-1.78,2.48-2.05,3.63-1.77,1.16.28,1.69.97,1.76,2.17.01.25,0,.49,0,.74,0,3.18,0,6.36,0,9.53,0,.33-.13.71.2,1.04,1.16-.03,2.35.05,3.63-.05,0-.39,0-.7,0-1.01,0-3.35-.03-6.71.02-10.06.03-2.33-1.26-4.52-3.58-5.16Z"/>
      <path class="cls-1" d="M96.08,54.06c-.02.92-.1,1.85.06,2.85h4.11v4.33c0,.9-3.09,1.22-3.7,1.2-1.42-.05-2.8-.65-3.76-1.71-1.2-1.33-1.69-3.16-1.84-4.91-.12-1.42-.08-2.84.12-4.25.18-1.24.47-2.5,1.36-3.44,1.2-1.28,2.66-1.77,4.45-1.47,1.83.3,2.85,1.36,3.39,3.02.06.19-.03.43.22.61h3.75c-.05-.25-.1-.42-.11-.59-.07-1.11-.45-2.12-1.03-3.05-3.09-4.96-11.65-4.3-14.62.42-1.83,2.92-1.92,7.08-1.39,10.38.43,2.68,1.7,5.28,4.1,6.7,1.26.75,2.71,1.15,4.17,1.28,3.23.29,6.67-.69,8.9-3.1v-8.32c-1.22-.17-7.39-.14-8.2.04Z"/>
      <path class="cls-1" d="M189.76,48.87c-1.11-.06-2.26-.06-3.44,0-.02.52-.04.93-.07,1.42-2.46-2.95-7.21-2.01-9.18.96-.85,1.28-1.27,2.8-1.44,4.33-.18,1.62-.08,3.29.47,4.82.55,1.53,1.57,2.93,2.97,3.76,2.12,1.27,5,1.07,6.98-.41-.09.93.23,1.93-.2,2.75-.54,1.06-2.02,1.51-3.12,1.57-1.16.06-2.35-.28-3.29-.94-.08-.06-1.16-.88-1.17-.88-.59.73-1.22,1.41-1.7,2.21-.14.23,1.59,1.46,1.8,1.59.66.42,1.39.72,2.15.92,2.23.57,5.01.33,6.87-1.11,1.67-1.3,2.48-3.42,2.49-5.49.03-4.87,0-9.74,0-14.61,0-.27.08-.56-.14-.87ZM185.34,61.53c-2.32,1.72-4.84.61-5.58-2.05-.57-2.07-.62-5.7,1.44-7.02,1.39-.89,3.56-.53,4.64.71.21.24.23.5.23.78,0,1.02,0,2.05,0,3.07,0,.99-.02,1.98,0,2.97.02.66-.25,1.18-.75,1.55Z"/>
      <path class="cls-1" d="M120.75,53.81c-.08-1.66-.96-3.29-2.36-4.2-3.27-2.12-8.57-.89-10.26,2.68-.21.45-.19.86-.12,1.38,1.26.06,2.47.07,3.67,0,.22-1.88,2.03-2.27,3.38-2.05,1.32.22,2.39,1.13,1.92,3.52-.03.17-4.18-.1-6.28.91-1.7.82-2.95,2.1-3.04,4.02-.08,1.62.63,3.29,2.01,4.19,1.12.73,2.51.99,3.85.95.73-.02,1.47-.12,2.14-.41.35-.15,1.13-.51,1.52-.88.2.53.58.84.8,1.18h3.32c0-.21.05-.47,0-.63-1.2-3.3-.38-7.23-.55-10.67ZM116.79,61c-.6.47-1.21.96-1.98,1.2-.66.21-1.26.2-1.94.03-1.05-.26-1.58-.96-1.69-1.9-.12-.99.45-1.7,1.31-2.2.56-.32,1.17-.5,1.78-.57.83-.09,1.67-.02,2.6-.02,0,1.07,0,2.05,0,3.02,0,.13.03.38-.07.45Z"/>
      <path class="cls-1" d="M169.56,49c-.43-.17-.89-.28-1.35-.33-.98-.11-1.97.07-2.91.35-.81.24-2.35,1.06-2.35,1.44,0-.3,0-.96-.03-1.26-.04-.38-.12-.37-.32-.37-.57,0-2.54,0-3.1,0-.26,0-.34.12-.34.3v15.96h3.67c.17-.42.1-.77.1-1.12,0-3.21.02-6.42,0-9.63-.02-1.75,1.85-2.61,3.37-2.57.6.01,1.24.15,1.66.58.58.58.72,1.65.71,2.44-.03,3.18-.02,6.35,0,9.53,0,.34-.12.71.14.99h3.69c0-.4,0-.74,0-1.09,0-3.28-.02-6.56.01-9.85.02-2.2-.75-4.49-2.95-5.37Z"/>
      <path class="cls-1" d="M151.46,49.37c0,5.18.02,10.37.03,15.55,0,.03.03.06.05.09.02.03.05.05.13.14.54,0,1.14.02,1.74,0,.62-.03,1.26.15,1.83-.11v-16.15h-3.72c-.03.22-.05.35-.05.49Z"/>
      <circle class="cls-1" cx="10.05" cy="34.71" r="10.05"/>
      <circle class="cls-1" cx="59.07" cy="34.71" r="10.05" transform="translate(-7.25 51.93) rotate(-45)"/>
      <circle class="cls-1" cx="34.69" cy="59.41" r="10.05" transform="translate(-22.9 21.79) rotate(-26.57)"/>
      <circle class="cls-1" cx="34.69" cy="10.05" r="10.05" transform="translate(-1.38 8.24) rotate(-13.28)"/>
      <path class="cls-1" d="M153.35,42.9c-1.11,0-2.02.9-2.02,2.02s.9,2.02,2.02,2.02,2.02-.9,2.02-2.02-.9-2.02-2.02-2.02Z"/>
    </g>
  </g>
</svg>