<?xml version="1.0" encoding="UTF-8"?>
<svg id="Layer_2" data-name="Layer 2" xmlns="http://www.w3.org/2000/svg" viewBox="0 0 189.93 70">
  <defs>
    <style>
      .cls-1 {
        fill: #fff;
        stroke-width: 0px;
      }
    </style>
  </defs>
  <g id="Layer_1-2" data-name="Layer 1">
    <path class="cls-1" d="M135.71,30.79v24.99h-8.23V14.62h6.87c.41,0,.61.13.82.47,5.1,8.08,10.27,16.17,15.44,24.25.07.13.14.27.34.47V14.69h8.3v41.17h-6.94c-.41,0-.61-.14-.82-.47-5.1-8.02-10.2-16.03-15.24-24.05-.14-.13-.21-.34-.34-.47-.14-.07-.2-.07-.2-.07h0ZM8.23,55.78H0V14.62h6.94c.34,0,.54.13.75.4,5.1,8.02,10.2,16.1,15.37,24.12.14.13.2.34.41.61V14.62h8.3v41.16h-7.01c-.41,0-.61-.13-.82-.47-5.1-8.08-10.2-16.1-15.31-24.19-.12-.21-.26-.42-.41-.61v25.26ZM63.33,47.97v7.81h-27.21V14.62h27.21v7.81h-18.84v8.62h16.12v7.88h-16.12v8.96c6.19.07,12.52.07,18.84.07h0ZM100.2,0h1.5v14.62h21.56v7.88h-18.84v8.62h16.19v7.88h-16.19v8.96h18.84v7.82h-21.56v14.22h-1.5V0ZM76.6,55.78V22.57h-9.52v-7.95h27.21v7.88h-9.39v33.21c-2.72.07-5.51.07-8.3.07h0ZM172.24,22.57h-9.52v-7.95h27.21v7.95h-9.39v33.21h-8.3V22.57Z"/>
  </g>
</svg>