<?xml version="1.0" encoding="UTF-8"?>
<svg id="Layer_2" data-name="Layer 2" xmlns="http://www.w3.org/2000/svg" viewBox="0 0 182 60">
  <defs>
    <style>
      .cls-1 {
        fill: #fff;
        stroke-width: 0px;
      }
    </style>
  </defs>
  <g id="Layer_1-2" data-name="Layer 1">
    <path class="cls-1" d="M63.31,52.41l12.58-30.98c-1.03.22-2.08.33-3.13.34-4.71.04-9.16-2.17-11.99-5.94l-17.95,44.16h8.83c5.33.05,10.12-3.55,11.65-7.57h0ZM18.12,43.97L35.92.03h-17.37L.75,43.85c-3,8.02,3.47,15.54,10.88,16.13l24.03.02,6.56-16.03h-24.1,0ZM64.63,7.75c0,4.3,3.64,7.75,8.13,7.75s8.13-3.44,8.13-7.74-3.64-7.77-8.13-7.77-8.13,3.45-8.13,7.75ZM148.97,38.57l-12.47-30.67c-4.35-10.52-19.69-10.23-23.71-.14l-12.52,30.82-12.9-31.75c.03.31.04.63.03.94,0,6.69-4.92,12.28-11.48,13.65l12.59,30.95c3.88,9.78,19.31,10.48,23.55,0l12.57-30.93,12.56,30.9c4.14,10.28,19.55,10.14,23.55.07L182,.03h-17.39l-15.64,38.54Z"/>
  </g>
</svg>