<?xml version="1.0" encoding="UTF-8"?>
<svg id="Layer_2" data-name="Layer 2" xmlns="http://www.w3.org/2000/svg" viewBox="0 0 144.86 146">
  <defs>
    <style>
      .cls-1 {
        fill: #fff;
        stroke-width: 0px;
      }
    </style>
  </defs>
  <g id="Layer_1-2" data-name="Layer 1">
    <g id="top">
      <path class="cls-1" d="M132.3,94.25c-13.02,7.48-28.34,14.29-45.13,19.75-23.8,7.73-46.78,11.52-65.94,11.58,18.79,18.06,46.66,25.45,73.18,16.84,25.98-8.45,43.98-30.08,49.01-55.08-3.41,2.31-7.04,4.57-10.89,6.79l-.23.13Z"/>
      <path class="cls-1" d="M100.48,102.58c7.55-2.45,14.96-5.3,22.2-8.56v-34.28h-13.62v-8.03h32.59c-.13-.42-.23-.85-.38-1.27-3.37-10.43-9.05-19.96-16.63-27.89-14.27.97-30.43,4.1-47.07,9.51-16.39,5.33-31.13,12.18-43.15,19.65h24.59v7.91h-22.39v9.24h19.76v7.66h-19.76v9.85h23.19v7.91H26.83v-37.51C8.62,69.82-1.18,84.13,2.5,95.43c6.33,19.47,50.19,22.67,97.98,7.14ZM66.75,61.66c2-3.34,4.9-6.06,8.36-7.85,3.57-1.88,7.58-2.83,12.04-2.83,3.73,0,7.11.63,10.15,1.89,2.95,1.19,5.58,3.07,7.66,5.47l-6.32,5.84c-3.04-3.2-6.71-4.8-11.01-4.8-2.72,0-5.13.57-7.24,1.7-2.07,1.1-3.77,2.76-4.92,4.8-1.18,2.07-1.76,4.44-1.76,7.11,0,2.64.59,4.99,1.76,7.05,1.15,2.04,2.84,3.71,4.89,4.84,2.09,1.15,4.47,1.73,7.15,1.73,2.67.04,5.3-.59,7.66-1.82v-12.47h9v17.27c-2.42,1.8-5.14,3.16-8.03,4.01-2.97.92-6.07,1.4-9.18,1.41-4.42,0-8.4-.94-11.92-2.83-3.44-1.8-6.31-4.52-8.3-7.85-2.01-3.34-3.01-7.13-3.01-11.34s1-8,3.01-11.35h0Z"/>
      <path class="cls-1" d="M143.62,59.74h-11.08v29.51c4.14-2.16,8.04-4.39,11.71-6.7,1-7.59.79-15.29-.63-22.81Z"/>
      <path class="cls-1" d="M121.33,19.35C102.56,2.08,75.29-4.85,49.31,3.59,22.79,12.21,4.58,34.57,0,60.23c15.53-11.22,36.35-21.66,60.15-29.39,21.86-7.11,43.03-10.88,61.18-11.49Z"/>
    </g>
  </g>
</svg>