<?xml version="1.0" encoding="UTF-8"?>
<svg id="Layer_2" data-name="Layer 2" xmlns="http://www.w3.org/2000/svg" viewBox="0 0 230.72 50.02">
  <defs>
    <style>
      .cls-1 {
        fill: #fff;
        stroke-width: 0px;
      }
    </style>
  </defs>
  <g id="Layer_1-2" data-name="Layer 1">
    <g id="_Слой_2" data-name="Слой 2">
      <g id="Layer_1-3" data-name="Layer 1">
        <path class="cls-1" d="M5.62,33.23c2.43-.04,4.86-.02,7.29-.01.48,0,.98-.05,1.42.18.71.33,1.23,1.13,1.05,1.93-.89,4.06-1.81,8.12-2.71,12.18-.31,1.38-1.7,2.36-3.09,2.34-2.57,0-5.14,0-7.7,0-.94,0-1.94-.71-1.87-1.72v-.21c.04-.69.23-1.35.38-2.03.76-3.37,1.52-6.74,2.27-10.12.22-1.41,1.56-2.52,2.97-2.53M210.8.13c1.01-.17,2.04-.1,3.06-.12h15.62c.52,0,.99.3,1.19.78.08.3.04.62,0,.92-2.23,9.96-4.5,19.9-6.77,29.85-.21.85-1.02,1.56-1.91,1.51-1.01,0-2.02,0-3.02,0-.67,0-1.19-.72-1.06-1.35.72-3.15,1.4-6.32,2.16-9.47.11-.52.2-1.13-.14-1.59-.26-.37-.73-.5-1.16-.49-2.19-.01-4.37.03-6.56-.01-.85-.01-1.35-1.04-1.03-1.78.8-1.91,2.25-3.49,4.1-4.44,1.72-.9,3.69-1.02,5.59-1.04.76.02,1.46-.57,1.62-1.3.43-1.98.95-3.93,1.29-5.93.16-.73-.55-1.4-1.25-1.37-2.81-.01-5.62,0-8.43,0-.75-.02-1.44.37-1.81,1.02-.18.3-.23.66-.31,1-1.84,8.27-3.75,16.52-5.62,24.78-.09.66-.4,1.32-.98,1.68-.4.29-.91.32-1.38.3-1.7,0-3.4,0-5.1,0-.62.03-1.17-.55-1.16-1.16.03-.24.07-.48.14-.71,1.55-6.96,3.17-13.91,4.74-20.87.48-1.96.73-4.04,1.78-5.81,1.29-2.39,3.77-4.05,6.43-4.41M182.48,4.39c-.72.17-1.29.71-1.5,1.41-1.41,6.4-2.88,12.79-4.33,19.18-.22.94-.52,1.89-.52,2.87.05.59.64.99,1.19,1.01,2.71.01,5.41,0,8.11,0,.34,0,.7.03,1.04-.08.67-.21,1.18-.76,1.33-1.45.4-1.87.86-3.74,1.24-5.62.12-.64-.28-1.46-1-1.49-2.33-.05-4.66,0-6.98-.02-.69.02-1.38-.6-1.29-1.31.17-1.11.84-2.05,1.55-2.88,1.6-1.94,4.13-2.95,6.61-3.02.88-.02,1.82.09,2.63-.33.39-.2.66-.57.75-1,.41-1.71.8-3.43,1.19-5.15.09-.52.3-1.14-.04-1.62-.35-.52-1.04-.6-1.61-.58-2.79.06-5.59-.08-8.38.07M179.71.21c1.38-.2,2.78-.13,4.18-.18h14.56c.6.02,1.18.55,1.18,1.17-.04.28-.1.56-.18.83-.58,2.39-1.07,4.79-1.62,7.18-.29,1.23-.64,2.45-1.2,3.58-.76,1.65-2.27,2.85-3.91,3.57,1.32.94,2.07,2.51,2.2,4.1.11,1.02-.12,2.03-.3,3.03-.39,1.97-.91,3.94-1.91,5.69-1.37,2.41-4.11,3.87-6.85,3.96h-18.02c-.59-.02-1.08-.44-1.18-1.02-.04-.39.12-.77.2-1.15,1.57-7.05,3.21-14.07,4.78-21.12.33-1.27.5-2.59.94-3.83.6-1.59,1.61-3.05,2.97-4.09,1.21-.93,2.65-1.53,4.16-1.73M148.63.13c1.02-.16,2.05-.11,3.07-.12,5.17-.01,10.34-.01,15.51,0,.52,0,1.06.28,1.28.76.12.27.07.57.03.85-2.15,9.66-4.33,19.31-6.54,28.95-.15.78-.29,1.69-1.02,2.16-.49.42-1.17.36-1.77.35-.87-.03-1.73.05-2.6-.04-.57-.13-.93-.78-.82-1.34,1.84-8.3,3.78-16.57,5.62-24.86.11-.52.26-1.04.22-1.58-.03-.29-.16-.61-.42-.76-.86-.51-2.18-.02-2.39.98-1.02,4.39-1.98,8.8-3,13.19-.24.96-1.28,1.52-2.23,1.48-.9-.06-1.81.03-2.71-.06-.66-.07-1.17-.79-.99-1.43.95-4.31,1.92-8.61,2.92-12.91.12-.45-.02-1.01-.43-1.26-.78-.41-1.89-.15-2.33.64-.27.46-.36.99-.48,1.5-1.85,8.3-3.76,16.59-5.62,24.89-.18.87-1.01,1.57-1.91,1.56-1.84-.02-3.68,0-5.52,0-.65-.03-1.2-.73-1.04-1.37,1.83-8.25,3.76-16.49,5.6-24.74.52-2.08,1.73-4,3.47-5.26,1.17-.89,2.62-1.39,4.08-1.59M117.47.08c1.28-.11,2.56-.03,3.84-.05h14.46c.5.02.94.33,1.13.79.12.59-.08,1.18-.21,1.75-2.13,9.57-4.33,19.12-6.49,28.68-.1.87-.79,1.72-1.7,1.81-1.08.05-2.16.01-3.24.02-.74.05-1.31-.76-1.12-1.45.62-2.75,1.24-5.5,1.86-8.25.17-.71.42-1.43.36-2.17-.06-.58-.62-1.03-1.19-1.03-2.26-.02-4.52.03-6.78-.02-.78-.04-1.3-.96-1.02-1.67.94-2.41,3.02-4.35,5.5-5.08,1.38-.44,2.84-.46,4.28-.49.75-.04,1.38-.57,1.55-1.3.43-1.98.95-3.95,1.29-5.95.15-.7-.5-1.35-1.18-1.35-2.85-.02-5.69,0-8.54,0-.89-.03-1.77.61-1.98,1.48-1.92,8.58-3.89,17.14-5.83,25.72-.19.86-.98,1.6-1.88,1.57h-5.41c-.75.08-1.41-.74-1.18-1.46,1.73-7.71,3.52-15.41,5.25-23.13.24-1.11.49-2.23,1-3.26.67-1.42,1.67-2.7,2.96-3.6,1.25-.89,2.76-1.38,4.28-1.56M91.76.09c.33-.07.68-.05,1.02-.07,1.63-.01,3.26,0,4.89,0,.71-.03,1.4.7,1.2,1.41-1.62,7.39-3.34,14.76-4.99,22.15-.14.51-.26,1.06-.05,1.57.13.41.5.68.93.68,2.26.03,4.51-.01,6.77.02.8-.02,1.54.83,1.27,1.62-.62,1.6-1.7,2.98-3.09,3.98-1.52,1.09-3.4,1.59-5.25,1.64-3.23.02-6.46.03-9.68.02-.72.04-1.38-.7-1.21-1.41,2.27-10.06,4.61-20.1,6.83-30.17.19-.68.71-1.22,1.37-1.44M65.24.13c.84-.14,1.7-.1,2.55-.1,5.38,0,10.76,0,16.14,0,.54.01,1.11.41,1.17.97.06.44-.08.87-.17,1.29-2.12,9.46-4.28,18.91-6.42,28.36-.14.63-.23,1.33-.69,1.81-.38.41-.93.64-1.49.62-1.01-.01-2.01.02-3.02-.02-.7-.05-1.17-.81-.99-1.47.74-3.22,1.44-6.45,2.2-9.66.2-.72-.21-1.7-1.04-1.74-2.31-.07-4.63.03-6.94-.04-.77-.05-1.27-.96-1.01-1.67.61-1.54,1.64-2.88,2.99-3.85,1.18-.84,2.54-1.38,3.97-1.56.93-.13,1.86-.14,2.8-.17.76-.03,1.41-.56,1.57-1.31.41-1.8.83-3.59,1.21-5.39.07-.42.18-.9-.05-1.3-.27-.48-.86-.64-1.38-.62-2.81.01-5.62-.01-8.43.01-.87.08-1.59.72-1.77,1.57-1.91,8.54-3.87,17.06-5.8,25.6-.18.87-.99,1.62-1.91,1.59-1.84,0-3.68,0-5.53,0-.66,0-1.21-.71-1.07-1.35,1.73-7.78,3.56-15.54,5.29-23.32.24-1.08.5-2.16.97-3.16.55-1.15,1.29-2.22,2.27-3.04,1.3-1.12,2.89-1.83,4.58-2.06M43.15.11c.26-.06.53-.09.79-.09,2.64.02,5.28-.01,7.91.02.98-.01,1.85.91,1.79,1.89-.03.3-.12.6-.18.9-.75,3.41-1.53,6.82-2.29,10.23-.44,2-1.6,3.81-3.14,5.15-2.25,1.88-4.95,3.17-7.75,4.02-2.26.7-4.59,1.18-6.91,1.64-.22.05-.46.12-.62.29-.1.21.06.44.27.47.64.17,1.31.19,1.96.3,2.08.33,4.12.95,5.97,1.98,1.03.59,2.04,1.26,2.82,2.17,1.48,1.68,2.3,3.99,1.98,6.23-.63,4.09-1.72,8.1-2.56,12.15-.21,1-.98,1.85-1.93,2.21-.6.25-1.25.18-1.88.19-2.39,0-4.79,0-7.18,0-1.06.03-2-1.05-1.77-2.1.56-2.65,1.19-5.28,1.76-7.92.3-1.47.55-2.98.39-4.48-.24-1.33-.62-2.76-1.67-3.7-1.26-1.06-2.72-1.92-4.32-2.34-1.47-.42-3.03-.54-4.44-1.18-.58-.28-1.17-.61-1.56-1.15-.85-1.15-.9-2.79-.17-4.01.37-.64,1.01-1.06,1.67-1.37,1.21-.56,2.55-.71,3.85-.93,2.56-.4,5.21-.74,7.55-1.91,1.58-.74,3.12-1.73,4.09-3.21.33-.5.57-1.05.71-1.64.89-3.85,1.73-7.7,2.6-11.56.24-1.1,1.18-1.97,2.26-2.24M12.64.11c.46-.12.95-.09,1.42-.09,2.46.02,4.92-.02,7.39.01,1.04,0,1.92,1.08,1.7,2.09-.9,4.07-1.82,8.13-2.72,12.19-.33,1.34-1.68,2.3-3.03,2.3-2.53,0-5.06,0-7.59,0-.7,0-1.46-.28-1.83-.9-.3-.45-.29-1.02-.17-1.53.85-3.79,1.7-7.59,2.54-11.39.08-.36.14-.73.31-1.07.41-.8,1.13-1.39,1.99-1.63"/>
        <path class="cls-1" d="M175.65,38.26c2.66-.02,5.33,0,7.99-.01-.1.62-.25,1.24-.37,1.87-1.94-.01-3.89,0-5.83,0-.2.98-.39,1.96-.59,2.94h5.56c-.13.64-.25,1.28-.37,1.92-1.86,0-3.73-.01-5.59,0-.2,1.03-.41,2.05-.61,3.07h5.97c-.13.62-.25,1.24-.37,1.86-2.7.02-5.39,0-8.09,0,.76-3.88,1.56-7.76,2.31-11.64M130.38,49.9c.77-3.89,1.55-7.77,2.33-11.66.75.01,1.5,0,2.24,0,.73,2.95,1.46,5.9,2.19,8.85,1.87-2.96,3.76-5.89,5.62-8.85.73,0,1.46,0,2.18,0-.79,3.88-1.56,7.77-2.33,11.66h-2c.54-2.71,1.09-5.41,1.62-8.12-1.6,2.71-3.18,5.43-4.79,8.13-.61,0-1.22,0-1.83,0-.54-2.71-1.07-5.41-1.6-8.12-.54,2.7-1.09,5.41-1.62,8.11-.66,0-1.33,0-1.99,0M88.22,49.92c2.41-3.89,4.85-7.77,7.27-11.66.78,0,1.56,0,2.33,0,.9,3.89,1.81,7.77,2.72,11.66h-2.24c-.23-1.06-.46-2.11-.69-3.17-1.29-.01-2.58,0-3.87,0,.36-.62.74-1.23,1.09-1.86.79-.03,1.58,0,2.38-.02-.33-1.43-.61-2.88-.97-4.31-.6.86-1.1,1.78-1.66,2.66-1.35,2.22-2.7,4.45-4.05,6.69-.77.02-1.54,0-2.31.01M214.99,38.87c2.28-1.03,4.92-.87,7.28-.17-.12.66-.25,1.31-.38,1.97-1.74-.62-3.67-.87-5.48-.39-.74.25-1.41.91-1.41,1.73-.07.42.17.9.61.96,1.24.18,2.51-.07,3.74.21.6.14,1.23.4,1.56.95.35.51.39,1.15.31,1.74-.1,1-.5,1.99-1.23,2.7-.8.79-1.91,1.19-3.01,1.32-1.75.26-3.54.03-5.23-.46.11-.66.24-1.31.38-1.96,1.29.46,2.65.67,4.01.61.62-.03,1.29-.05,1.84-.39.64-.35,1.05-1.01,1.07-1.74-.01-.38-.27-.77-.66-.85-1.28-.29-2.62.08-3.9-.24-.73-.15-1.42-.66-1.62-1.4-.4-1.76.46-3.79,2.11-4.6M55.86,38.3c1.72-.29,3.52-.19,5.17.42-.14.65-.27,1.3-.39,1.95-1.48-.6-3.14-.84-4.71-.46-.83.21-1.67.58-2.25,1.24-.96,1.09-1.3,2.59-1.29,4.01.02.84.36,1.74,1.12,2.17,1.05.61,2.34.52,3.5.32.24-1.15.46-2.3.69-3.44h2.16c-.33,1.63-.64,3.27-.99,4.89-2.03.68-4.28.87-6.33.18-1.56-.47-2.53-2.12-2.44-3.71,0-1.9.5-3.86,1.69-5.37.99-1.24,2.52-1.95,4.07-2.2M10.69,20.23c1.49-.27,3.07.28,4.15,1.32.88.82,1.38,1.99,1.46,3.18.06,1.49-.54,2.92-1.65,3.92-.72.63-1.61,1.03-2.55,1.16-1.86.24-3.81-.71-4.75-2.33-.64-1.02-.77-2.29-.57-3.47.37-1.9,2-3.45,3.91-3.77"/>
      </g>
    </g>
  </g>
</svg>