<?xml version="1.0" encoding="UTF-8"?>
<svg id="Layer_2" data-name="Layer 2" xmlns="http://www.w3.org/2000/svg" viewBox="0 0 827.94 296.19">
  <defs>
    <style>
      .cls-1 {
        fill: #0089ff;
      }

      .cls-1, .cls-2 {
        stroke-width: 0px;
      }

      .cls-2 {
        fill: #fff;
      }
    </style>
  </defs>
  <g id="Layer_1-2" data-name="Layer 1">
    <g>
      <g>
        <path class="cls-2" d="M327.67,91.43h36.92v85.92h82.04v29.4h-118.96v-115.32Z"/>
        <path class="cls-2" d="M467.63,91.43h63.7l34.3,74.85,34.3-74.85h63.37v115.32h-34.64l.84-86.35h-5.74l-43.51,86.35h-29.15l-43.51-86.35h-6.17l.84,86.35h-34.64v-115.32Z"/>
        <path class="cls-2" d="M684.31,206.75v-115.32h84.91c19.94.06,31.88.27,35.82.63,3.94.37,7.74,1.68,11.41,3.93,4.39,2.65,7.41,6.29,9.04,10.94,1.63,4.65,2.45,11.95,2.45,21.92,0,8.39-.52,14.56-1.56,18.5-1.04,3.94-3,7.1-5.87,9.46-3.1,2.54-7.77,4.28-14.02,5.24,7.38.56,12.67,2.68,15.88,6.34,1.86,2.2,3.04,4.86,3.55,7.98.51,3.13.76,9.67.76,19.64v10.73h-34.64v-6.17c0-6.42-.24-11-.72-13.73-.48-2.73-1.37-4.83-2.66-6.29-1.3-1.35-3.08-2.21-5.37-2.58-2.28-.37-7.05-.55-14.32-.55h-49.51v29.32h-35.15ZM719.46,148.63h49.42c8.62-.17,13.76-.32,15.42-.46,1.66-.14,3.08-.58,4.27-1.31,1.52-.96,2.59-2.38,3.21-4.27.62-1.89.93-4.74.93-8.58s-.35-6.59-1.06-8.45-1.93-3.21-3.68-4.06c-1.24-.56-2.72-.9-4.43-1.01-1.72-.11-6.63-.2-14.74-.25h-49.34v28.39Z"/>
      </g>
      <g>
        <g>
          <circle class="cls-1" cx="131.54" cy="78.49" r="26.31"/>
          <path class="cls-1" d="M16.78,73.25l51.09,29.24c4.15,2.37,11.73,3.08,18.8-1.44,12.26-7.84,6.99-15.93,2.7-19.49-2.68-2.22-17.53-11.28-17.53-11.28-3.15-2.48.09-4.48,3.44-6.4,9.95-5.69,39.8-22.77,39.8-22.77,5.1-2.92,10.78-4.38,16.46-4.38s11.36,1.46,16.46,4.38c0,0,29.85,17.08,39.8,22.77,3.35,1.92,6.59,3.92,3.44,6.4,0,0-14.85,9.06-17.53,11.28-4.29,3.55-9.56,11.65,2.7,19.49,7.07,4.53,14.66,3.82,18.8,1.44l51.09-29.24c3.35-1.92,3.35-6.75,0-8.67L134.02.33c-.77-.44-4.19-.44-4.96,0L16.78,64.58c-3.35,1.92-3.35,6.75,0,8.67Z"/>
        </g>
        <g>
          <circle class="cls-1" cx="194.02" cy="188.98" r="26.31"/>
          <path class="cls-1" d="M255.56,91.98l-50.75,29.82c-4.12,2.42-8.5,8.65-8.09,17.04.72,14.54,10.36,13.98,15.58,12.02,3.26-1.22,18.49-9.61,18.49-9.61,3.72-1.5,3.85,2.3,3.85,6.16,0,11.46,0,45.85,0,45.85,0,5.88-1.56,11.53-4.38,16.46-2.82,4.93-6.91,9.14-11.98,12.11,0,0-29.65,17.42-39.53,23.23-3.33,1.96-6.67,3.77-7.26-.2,0,0-.49-17.39-1.08-20.81-.95-5.49-5.36-14.08-18.26-7.34-7.44,3.89-10.59,10.82-10.59,15.6v58.87c0,3.86,4.19,6.26,7.52,4.3l111.53-65.54c.76-.45,2.46-3.42,2.46-4.3V96.29c0-3.86-4.19-6.26-7.52-4.3Z"/>
        </g>
        <g>
          <circle class="cls-1" cx="69.07" cy="188.98" r="26.31"/>
          <path class="cls-1" d="M7.52,91.98l50.75,29.82c4.12,2.42,8.5,8.65,8.09,17.04-.72,14.54-10.36,13.98-15.58,12.02-3.26-1.22-18.49-9.61-18.49-9.61-3.72-1.5-3.85,2.3-3.85,6.16,0,11.46,0,45.85,0,45.85,0,5.88,1.56,11.53,4.38,16.46,2.82,4.93,6.91,9.14,11.98,12.11,0,0,29.65,17.42,39.53,23.23,3.33,1.96,6.67,3.77,7.26-.2,0,0,.49-17.39,1.08-20.81.95-5.49,5.36-14.08,18.26-7.34,7.44,3.89,10.59,10.82,10.59,15.6v58.87c0,3.86-4.19,6.26-7.52,4.3L2.46,229.95c-.76-.45-2.46-3.42-2.46-4.3V96.29c0-3.86,4.19-6.26,7.52-4.3Z"/>
        </g>
        <polygon class="cls-2" points="131.54 117.85 139.9 141.11 164.6 141.87 145.06 157 151.98 180.73 131.54 166.83 111.11 180.73 118.02 157 98.48 141.87 123.19 141.11 131.54 117.85"/>
      </g>
      <g>
        <path class="cls-1" d="M356.95,237.12h-10.45v37.73h-8.65v-37.73h-10.18v-6.75h29.27v6.75Z"/>
        <path class="cls-1" d="M388.07,255.21h-13.6v12.92h16.29v6.72h-24.9v-44.49h24.84v6.75h-16.22v11.37h13.6v6.72Z"/>
        <path class="cls-1" d="M430.07,261.05l.06.18c.08,4.77-1.14,8.34-3.65,10.71-2.52,2.37-6.11,3.56-10.77,3.56s-8.58-1.41-11.4-4.23c-2.81-2.82-4.22-6.83-4.22-12.02v-13.2c0-5.17,1.36-9.19,4.08-12.04,2.72-2.85,6.39-4.28,11.01-4.28,4.87,0,8.61,1.18,11.21,3.54,2.61,2.36,3.87,5.94,3.79,10.73l-.06.18h-8.37c0-2.85-.5-4.85-1.51-5.99-1.01-1.14-2.69-1.71-5.06-1.71-2.16,0-3.78.78-4.86,2.34-1.08,1.56-1.62,3.95-1.62,7.17v13.26c0,3.24.58,5.64,1.74,7.2,1.16,1.56,2.91,2.34,5.25,2.34,2.14,0,3.68-.56,4.61-1.7.94-1.13,1.41-3.14,1.41-6.03h8.34Z"/>
        <path class="cls-1" d="M471.76,274.86h-8.58v-18.55h-14.33v18.55h-8.62v-44.49h8.62v19.22h14.33v-19.22h8.58v44.49Z"/>
        <path class="cls-1" d="M521.48,263.31c0-1.77-.45-3.17-1.36-4.2-.91-1.03-2.53-2.03-4.87-3.01-4.56-1.61-8-3.43-10.3-5.47-2.3-2.04-3.45-4.89-3.45-8.56s1.31-6.62,3.94-8.91c2.63-2.29,5.98-3.44,10.05-3.44,4.32,0,7.79,1.22,10.42,3.67,2.63,2.44,3.9,5.72,3.82,9.84l-.06.18h-8.37c0-2.3-.51-4.05-1.54-5.24-1.03-1.19-2.5-1.79-4.42-1.79-1.65,0-2.93.55-3.85,1.63-.92,1.09-1.37,2.45-1.37,4.08,0,1.51.52,2.75,1.56,3.73,1.04.98,2.82,2.05,5.35,3.21,4.3,1.42,7.55,3.23,9.76,5.41,2.21,2.18,3.32,5.11,3.32,8.8s-1.29,6.8-3.88,8.98c-2.59,2.18-6.02,3.27-10.3,3.27s-7.82-1.18-10.82-3.53c-2.99-2.35-4.44-5.93-4.34-10.74l.06-.18h8.4c0,2.79.57,4.8,1.7,6.02,1.13,1.22,2.8,1.83,5,1.83,1.85,0,3.24-.51,4.17-1.53.93-1.02,1.39-2.37,1.39-4.06Z"/>
        <path class="cls-1" d="M571.95,258.85c0,5.24-1.48,9.32-4.43,12.25-2.95,2.93-6.89,4.4-11.79,4.4s-8.83-1.47-11.76-4.4c-2.93-2.93-4.4-7.02-4.4-12.25v-12.4c0-5.21,1.46-9.3,4.38-12.27,2.92-2.96,6.84-4.45,11.75-4.45s8.85,1.48,11.81,4.45c2.96,2.96,4.44,7.05,4.44,12.27v12.4ZM563.36,246.35c0-3.24-.66-5.68-1.97-7.33-1.31-1.65-3.21-2.48-5.7-2.48s-4.39.82-5.65,2.46c-1.26,1.64-1.89,4.09-1.89,7.35v12.5c0,3.3.64,5.78,1.91,7.42,1.27,1.65,3.16,2.48,5.67,2.48s4.4-.82,5.7-2.48c1.29-1.65,1.94-4.12,1.94-7.42v-12.5Z"/>
        <path class="cls-1" d="M591.28,268.14h16.59v6.72h-25.21v-44.49h8.62v37.76Z"/>
        <path class="cls-1" d="M647.12,230.37v29.06c0,5.05-1.45,8.99-4.35,11.82-2.9,2.83-6.69,4.25-11.35,4.25s-8.41-1.42-11.3-4.26c-2.89-2.84-4.34-6.78-4.34-11.81v-29.06h8.59v29.06c0,3.04.63,5.35,1.89,6.95,1.26,1.6,2.98,2.4,5.16,2.4s3.96-.79,5.21-2.38c1.25-1.59,1.88-3.91,1.88-6.97v-29.06h8.62Z"/>
        <path class="cls-1" d="M684.32,237.12h-10.45v37.73h-8.65v-37.73h-10.18v-6.75h29.27v6.75Z"/>
        <path class="cls-1" d="M702.3,274.86h-8.58v-44.49h8.58v44.49Z"/>
        <path class="cls-1" d="M745.93,258.85c0,5.24-1.48,9.32-4.43,12.25-2.95,2.93-6.89,4.4-11.8,4.4s-8.83-1.47-11.76-4.4c-2.93-2.93-4.4-7.02-4.4-12.25v-12.4c0-5.21,1.46-9.3,4.39-12.27,2.92-2.96,6.84-4.45,11.75-4.45s8.85,1.48,11.81,4.45c2.96,2.96,4.45,7.05,4.45,12.27v12.4ZM737.34,246.35c0-3.24-.66-5.68-1.97-7.33-1.31-1.65-3.21-2.48-5.7-2.48s-4.39.82-5.65,2.46c-1.26,1.64-1.89,4.09-1.89,7.35v12.5c0,3.3.64,5.78,1.91,7.42,1.27,1.65,3.16,2.48,5.67,2.48s4.4-.82,5.7-2.48c1.29-1.65,1.94-4.12,1.94-7.42v-12.5Z"/>
        <path class="cls-1" d="M788.17,274.86h-8.62l-14.12-28.39-.18.03v28.35h-8.62v-44.49h8.62l14.12,28.42.18-.03v-28.38h8.62v44.49Z"/>
        <path class="cls-1" d="M819.32,263.31c0-1.77-.45-3.17-1.36-4.2-.91-1.03-2.53-2.03-4.87-3.01-4.56-1.61-8-3.43-10.3-5.47-2.3-2.04-3.45-4.89-3.45-8.56s1.31-6.62,3.94-8.91c2.63-2.29,5.98-3.44,10.05-3.44,4.32,0,7.79,1.22,10.42,3.67,2.63,2.44,3.9,5.72,3.82,9.84l-.06.18h-8.37c0-2.3-.51-4.05-1.54-5.24-1.03-1.19-2.5-1.79-4.42-1.79-1.65,0-2.93.55-3.85,1.63-.92,1.09-1.37,2.45-1.37,4.08,0,1.51.52,2.75,1.56,3.73,1.04.98,2.82,2.05,5.35,3.21,4.3,1.42,7.55,3.23,9.76,5.41,2.21,2.18,3.32,5.11,3.32,8.8s-1.29,6.8-3.88,8.98c-2.59,2.18-6.02,3.27-10.3,3.27s-7.82-1.18-10.82-3.53c-2.99-2.35-4.44-5.93-4.34-10.74l.06-.18h8.4c0,2.79.57,4.8,1.7,6.02,1.13,1.22,2.8,1.83,5,1.83,1.85,0,3.24-.51,4.17-1.53.93-1.02,1.39-2.37,1.39-4.06Z"/>
      </g>
    </g>
  </g>
</svg>